<svg width="301" height="232" viewBox="0 0 301 232" fill="none" xmlns="http://www.w3.org/2000/svg">
<path d="M160.88 115.64C160.88 152.973 153.733 181.667 139.44 201.72C125.36 221.56 105.84 231.48 80.88 231.48C55.92 231.48 36.2933 221.56 22 201.72C7.92 181.667 0.880001 152.973 0.880001 115.64C0.880001 97.08 2.69333 80.6533 6.32 66.36C10.16 52.0667 15.6 40.0133 22.64 30.2C29.68 20.3867 38.1067 12.92 47.92 7.79998C57.7333 2.67998 68.72 0.119984 80.88 0.119984C105.84 0.119984 125.36 10.1467 139.44 30.2C153.733 50.04 160.88 78.52 160.88 115.64ZM112.24 115.64C112.24 104.547 111.707 94.52 110.64 85.56C109.573 76.3867 107.867 68.4933 105.52 61.88C103.173 55.2667 99.9733 50.1467 95.92 46.52C91.8667 42.8933 86.8533 41.08 80.88 41.08C74.9067 41.08 69.8933 42.8933 65.84 46.52C62 50.1467 58.8 55.2667 56.24 61.88C53.8933 68.4933 52.1867 76.3867 51.12 85.56C50.0533 94.52 49.52 104.547 49.52 115.64C49.52 126.733 50.0533 136.867 51.12 146.04C52.1867 155.213 53.8933 163.107 56.24 169.72C58.8 176.333 62 181.453 65.84 185.08C69.8933 188.707 74.9067 190.52 80.88 190.52C86.8533 190.52 91.8667 188.707 95.92 185.08C99.9733 181.453 103.173 176.333 105.52 169.72C107.867 163.107 109.573 155.213 110.64 146.04C111.707 136.867 112.24 126.733 112.24 115.64ZM194.275 51.32C200.462 48.76 206.862 45.88 213.475 42.68C220.302 39.2667 226.915 35.64 233.315 31.8C239.715 27.7467 245.795 23.5867 251.555 19.32C257.528 14.84 262.862 10.1467 267.555 5.23999H300.835V227H253.155V67.32C246.755 71.5867 239.608 75.5333 231.715 79.16C223.822 82.5733 216.142 85.56 208.675 88.12L194.275 51.32Z" fill="#FFEB9A" fill-opacity="0.1"/>
</svg>
