<svg width="338" height="232" viewBox="0 0 338 232" fill="none" xmlns="http://www.w3.org/2000/svg">
<path d="M160.88 115.64C160.88 152.973 153.733 181.667 139.44 201.72C125.36 221.56 105.84 231.48 80.88 231.48C55.92 231.48 36.2933 221.56 22 201.72C7.92 181.667 0.880001 152.973 0.880001 115.64C0.880001 97.08 2.69333 80.6533 6.32 66.36C10.16 52.0667 15.6 40.0133 22.64 30.2C29.68 20.3867 38.1067 12.92 47.92 7.79998C57.7333 2.67998 68.72 0.119984 80.88 0.119984C105.84 0.119984 125.36 10.1467 139.44 30.2C153.733 50.04 160.88 78.52 160.88 115.64ZM112.24 115.64C112.24 104.547 111.707 94.52 110.64 85.56C109.573 76.3867 107.867 68.4933 105.52 61.88C103.173 55.2667 99.9733 50.1467 95.92 46.52C91.8667 42.8933 86.8533 41.08 80.88 41.08C74.9067 41.08 69.8933 42.8933 65.84 46.52C62 50.1467 58.8 55.2667 56.24 61.88C53.8933 68.4933 52.1867 76.3867 51.12 85.56C50.0533 94.52 49.52 104.547 49.52 115.64C49.52 126.733 50.0533 136.867 51.12 146.04C52.1867 155.213 53.8933 163.107 56.24 169.72C58.8 176.333 62 181.453 65.84 185.08C69.8933 188.707 74.9067 190.52 80.88 190.52C86.8533 190.52 91.8667 188.707 95.92 185.08C99.9733 181.453 103.173 176.333 105.52 169.72C107.867 163.107 109.573 155.213 110.64 146.04C111.707 136.867 112.24 126.733 112.24 115.64ZM330.595 63.48C330.595 71.5867 328.995 79.3733 325.795 86.84C322.595 94.3067 318.435 101.56 313.315 108.6C308.195 115.427 302.435 122.04 296.035 128.44C289.635 134.84 283.342 140.92 277.155 146.68C273.955 149.667 270.435 153.08 266.595 156.92C262.968 160.547 259.448 164.28 256.035 168.12C252.622 171.96 249.528 175.587 246.755 179C244.195 182.2 242.595 184.867 241.955 187H337.315V227H189.475C189.048 224.653 188.835 221.667 188.835 218.04C188.835 214.413 188.835 211.853 188.835 210.36C188.835 200.12 190.435 190.733 193.635 182.2C197.048 173.667 201.422 165.773 206.755 158.52C212.088 151.053 218.062 144.12 224.675 137.72C231.502 131.32 238.222 124.92 244.835 118.52C249.955 113.613 254.755 109.027 259.235 104.76C263.715 100.28 267.662 96.0133 271.075 91.96C274.488 87.6933 277.155 83.5333 279.075 79.48C280.995 75.2133 281.955 70.9467 281.955 66.68C281.955 57.2933 279.288 50.68 273.955 46.84C268.622 43 262.008 41.08 254.115 41.08C248.355 41.08 242.915 42.04 237.795 43.96C232.888 45.6667 228.302 47.8 224.035 50.36C219.982 52.7067 216.462 55.16 213.475 57.72C210.488 60.0667 208.248 61.9867 206.755 63.48L183.075 30.2C192.462 21.4533 203.342 14.3067 215.715 8.75999C228.302 2.99998 241.742 0.119984 256.035 0.119984C269.048 0.119984 280.248 1.61332 289.635 4.59998C299.022 7.58665 306.702 11.8533 312.675 17.4C318.862 22.7333 323.342 29.3466 326.115 37.24C329.102 44.92 330.595 53.6667 330.595 63.48Z" fill="#FFEB9A" fill-opacity="0.1"/>
</svg>
