<svg width="334" height="232" viewBox="0 0 334 232" fill="none" xmlns="http://www.w3.org/2000/svg">
<path d="M160.88 115.64C160.88 152.973 153.733 181.667 139.44 201.72C125.36 221.56 105.84 231.48 80.88 231.48C55.92 231.48 36.2933 221.56 22 201.72C7.92 181.667 0.880001 152.973 0.880001 115.64C0.880001 97.08 2.69333 80.6533 6.32 66.36C10.16 52.0667 15.6 40.0133 22.64 30.2C29.68 20.3867 38.1067 12.92 47.92 7.79998C57.7333 2.67998 68.72 0.119984 80.88 0.119984C105.84 0.119984 125.36 10.1467 139.44 30.2C153.733 50.04 160.88 78.52 160.88 115.64ZM112.24 115.64C112.24 104.547 111.707 94.52 110.64 85.56C109.573 76.3867 107.867 68.4933 105.52 61.88C103.173 55.2667 99.9733 50.1467 95.92 46.52C91.8667 42.8933 86.8533 41.08 80.88 41.08C74.9067 41.08 69.8933 42.8933 65.84 46.52C62 50.1467 58.8 55.2667 56.24 61.88C53.8933 68.4933 52.1867 76.3867 51.12 85.56C50.0533 94.52 49.52 104.547 49.52 115.64C49.52 126.733 50.0533 136.867 51.12 146.04C52.1867 155.213 53.8933 163.107 56.24 169.72C58.8 176.333 62 181.453 65.84 185.08C69.8933 188.707 74.9067 190.52 80.88 190.52C86.8533 190.52 91.8667 188.707 95.92 185.08C99.9733 181.453 103.173 176.333 105.52 169.72C107.867 163.107 109.573 155.213 110.64 146.04C111.707 136.867 112.24 126.733 112.24 115.64ZM244.835 231.8C239.075 231.8 232.995 231.373 226.595 230.52C220.195 229.88 214.008 228.92 208.035 227.64C202.062 226.36 196.622 224.973 191.715 223.48C186.808 221.987 182.968 220.6 180.195 219.32L189.475 179.64C195.022 181.987 202.062 184.547 210.595 187.32C219.342 189.88 230.115 191.16 242.915 191.16C257.635 191.16 268.408 188.387 275.235 182.84C282.062 177.293 285.475 169.827 285.475 160.44C285.475 154.68 284.195 149.88 281.635 146.04C279.288 141.987 275.982 138.787 271.715 136.44C267.448 133.88 262.328 132.173 256.355 131.32C250.595 130.253 244.408 129.72 237.795 129.72H219.235V91.32H240.355C245.048 91.32 249.528 90.8933 253.795 90.04C258.275 89.1867 262.222 87.8 265.635 85.88C269.048 83.7467 271.715 80.9733 273.635 77.56C275.768 73.9333 276.835 69.4533 276.835 64.12C276.835 60.0667 275.982 56.5467 274.275 53.56C272.568 50.5733 270.328 48.12 267.555 46.2C264.995 44.28 261.902 42.8933 258.275 42.04C254.862 40.9733 251.342 40.44 247.715 40.44C238.542 40.44 230.008 41.8267 222.115 44.6C214.435 47.3733 207.395 50.7867 200.995 54.84L184.035 19.96C187.448 17.8267 191.395 15.5867 195.875 13.24C200.568 10.8933 205.688 8.75999 211.235 6.83999C216.782 4.91999 222.648 3.31999 228.835 2.04C235.235 0.759988 241.955 0.119984 248.995 0.119984C262.008 0.119984 273.208 1.71999 282.595 4.92C292.195 7.90666 300.088 12.28 306.275 18.04C312.462 23.5867 317.048 30.2 320.035 37.88C323.022 45.3467 324.515 53.56 324.515 62.52C324.515 71.2667 322.062 79.8 317.155 88.12C312.248 96.2267 305.635 102.413 297.315 106.68C308.835 111.373 317.688 118.413 323.875 127.8C330.275 136.973 333.475 148.067 333.475 161.08C333.475 171.32 331.768 180.813 328.355 189.56C324.942 198.093 319.608 205.56 312.355 211.96C305.102 218.147 295.822 223.053 284.515 226.68C273.422 230.093 260.195 231.8 244.835 231.8Z" fill="#FFEB9A" fill-opacity="0.1"/>
</svg>
