<svg width="165" height="165" viewBox="0 0 165 165" fill="none" xmlns="http://www.w3.org/2000/svg">
<path d="M132.134 147.107V150.328H128.272V147.107H132.134ZM109.068 150.328H112.843V147.107H109.068V150.328Z" fill="#F7EAD0"/>
<path d="M43.2454 23.2619C43.2454 23.2619 44.684 16.5441 52.3797 15.5653C60.3985 14.5624 63.2585 21.8637 63.2585 21.8637C70.6818 18.0008 74.3221 24.5423 74.3221 24.5423C81.0072 21.6952 83.9007 27.3886 83.9007 27.3886H34.9627C35.7594 22.9173 43.2454 23.2619 43.2454 23.2619ZM95.3923 129.31L99.5482 131.657L98.1638 137.636L93.3074 138.055C92.54 139.522 91.5895 140.859 90.4543 142.064C89.3199 143.268 88.0438 144.298 86.6266 145.151L86.698 150.081L80.8267 151.877L77.9117 147.734C76.2961 147.787 74.702 147.626 73.1293 147.252C71.5575 146.877 70.0613 146.301 68.6434 145.525L64.3654 147.859L59.9035 143.661L62.076 139.404C61.1977 138.025 60.518 136.554 60.0367 134.992C59.5555 133.429 59.2899 131.831 59.2409 130.196L54.8873 127.459L56.3431 121.497L61.3043 121.279C62.0631 119.82 63.0033 118.489 64.1248 117.287C65.2454 116.084 66.5078 115.054 67.9095 114.196L67.8553 109.279L73.7266 107.5L76.5659 111.564C78.2091 111.494 79.8324 111.646 81.4343 112.022C83.037 112.396 84.559 112.98 86.0019 113.772L90.1664 111.253L94.6747 115.409L92.5778 119.969C93.4587 121.367 94.1367 122.859 94.6111 124.443C95.0863 126.026 95.3407 127.645 95.3751 129.298L95.3923 129.31ZM86.8827 126.699C86.7873 126.383 86.6765 126.072 86.551 125.767C86.4247 125.462 86.2846 125.164 86.1299 124.873C85.9744 124.581 85.8051 124.298 85.6229 124.024C85.4398 123.749 85.2439 123.484 85.0351 123.228C84.8263 122.973 84.6054 122.728 84.3725 122.495C84.1396 122.261 83.8956 122.039 83.6412 121.83C83.3859 121.62 83.1221 121.423 82.848 121.239C82.5738 121.055 82.2911 120.885 82.0006 120.73C81.7102 120.574 81.4128 120.432 81.1077 120.306C80.8035 120.179 80.4933 120.068 80.1779 119.972C79.8625 119.875 79.5428 119.795 79.2197 119.73C78.8966 119.666 78.5709 119.617 78.2426 119.584C77.9143 119.551 77.5852 119.535 77.2552 119.535C76.926 119.534 76.5969 119.551 76.2686 119.582C75.9403 119.615 75.6146 119.663 75.2906 119.727C74.9675 119.791 74.6478 119.871 74.3324 119.966C74.017 120.062 73.7068 120.173 73.4017 120.299C73.0966 120.425 72.7993 120.566 72.508 120.721C72.2175 120.877 71.9348 121.046 71.6606 121.23C71.3856 121.413 71.1209 121.609 70.8666 121.818C70.6113 122.027 70.3673 122.249 70.1335 122.482C69.9006 122.716 69.6789 122.96 69.4701 123.215C69.2604 123.469 69.0636 123.734 68.8806 124.009C68.6975 124.283 68.5282 124.566 68.3718 124.857C68.2163 125.149 68.0753 125.446 67.949 125.751C67.8227 126.056 67.7118 126.366 67.6164 126.682C67.5202 126.998 67.4402 127.318 67.3758 127.642C67.3113 127.966 67.2623 128.292 67.2306 128.62C67.1979 128.949 67.1816 129.278 67.1816 129.608C67.1816 129.939 67.197 130.268 67.2297 130.596C67.2623 130.925 67.3105 131.251 67.3741 131.575C67.4385 131.899 67.5184 132.219 67.6147 132.534C67.7101 132.85 67.8209 133.16 67.9473 133.466C68.0736 133.771 68.2137 134.069 68.3692 134.36C68.5248 134.651 68.6941 134.934 68.8771 135.208C69.0602 135.483 69.257 135.748 69.4658 136.003C69.6755 136.259 69.8963 136.503 70.1292 136.736C70.363 136.969 70.607 137.191 70.8614 137.401C71.1166 137.61 71.3813 137.806 71.6555 137.989C71.9296 138.173 72.2123 138.342 72.5028 138.498C72.7941 138.654 73.0915 138.795 73.3966 138.921C73.7008 139.047 74.011 139.158 74.3264 139.254C74.6427 139.35 74.9615 139.43 75.2855 139.494C75.6086 139.559 75.9343 139.607 76.2626 139.639C76.5909 139.671 76.92 139.687 77.25 139.687C77.5791 139.687 77.9083 139.671 78.2366 139.638C78.5648 139.606 78.8906 139.558 79.2137 139.493C79.5377 139.429 79.8565 139.349 80.1727 139.253C80.4873 139.156 80.7966 139.045 81.1009 138.919C81.4051 138.793 81.7024 138.652 81.9929 138.497C82.2834 138.342 82.5652 138.172 82.8394 137.989C83.1127 137.805 83.3773 137.609 83.6317 137.401C83.8861 137.192 84.1302 136.97 84.3631 136.737C84.5959 136.504 84.8168 136.26 85.0256 136.006C85.2345 135.751 85.4304 135.486 85.6134 135.213C85.7965 134.939 85.9658 134.656 86.1213 134.365C86.2769 134.075 86.4178 133.778 86.5433 133.472C86.6696 133.168 86.7805 132.858 86.8767 132.543C86.9721 132.227 87.0529 131.908 87.1174 131.585C87.1818 131.261 87.2299 130.936 87.2626 130.608C87.2952 130.28 87.3116 129.951 87.3124 129.622C87.3124 129.292 87.297 128.962 87.2643 128.635C87.2325 128.307 87.1852 127.981 87.1208 127.658C87.0572 127.334 86.9773 127.014 86.8827 126.699ZM61.0525 41.3904H100.731C100.731 41.3904 97.4513 35.1556 88.9882 37.4519C88.9882 37.4519 86.8406 30.9275 79.1578 30.9275C78.6164 30.9223 78.0776 30.9559 77.5413 31.0272C77.0051 31.0994 76.4766 31.2085 75.9558 31.3555C75.435 31.5024 74.9271 31.6863 74.433 31.9055C73.938 32.1255 73.4619 32.379 73.003 32.666C72.5449 32.9539 72.1092 33.2727 71.6959 33.6225C71.2825 33.9723 70.8966 34.3495 70.5374 34.7543C70.1782 35.1599 69.8491 35.5879 69.5509 36.0399C69.2527 36.492 68.988 36.9629 68.7568 37.4519C68.7568 37.4519 61.7323 37.121 61.0525 41.3904Z" fill="#FFEB9A"/>
<path d="M111.748 54.0825V93.7203C111.748 93.8853 111.74 94.0494 111.724 94.2136C111.708 94.3777 111.684 94.541 111.651 94.7025C111.619 94.865 111.58 95.0248 111.531 95.1829C111.483 95.3402 111.428 95.4957 111.365 95.6479C111.302 95.8008 111.231 95.9495 111.154 96.0947C111.076 96.2408 110.992 96.3818 110.9 96.5193C110.809 96.6559 110.71 96.7891 110.606 96.9163C110.501 97.0435 110.39 97.1655 110.274 97.2824C110.157 97.3993 110.035 97.5101 109.908 97.615C109.781 97.7189 109.649 97.8178 109.511 97.9089C109.374 98.0008 109.233 98.0859 109.087 98.1632C108.942 98.2414 108.793 98.3119 108.641 98.3746C108.489 98.4382 108.334 98.4932 108.176 98.5414C108.018 98.5895 107.858 98.629 107.697 98.6617C107.535 98.6935 107.373 98.7175 107.209 98.7339C107.045 98.7502 106.88 98.7579 106.715 98.7579H41.4047C41.2397 98.7579 41.0747 98.7502 40.9114 98.7339C40.7472 98.7175 40.584 98.6935 40.4224 98.6617C40.2608 98.629 40.101 98.5895 39.9437 98.5414C39.7856 98.4932 39.6309 98.4382 39.4788 98.3746C39.3258 98.3119 39.1772 98.2414 39.0319 98.1632C38.8867 98.0859 38.7458 98.0008 38.6083 97.9089C38.4716 97.8178 38.3393 97.7189 38.2112 97.615C38.084 97.5101 37.962 97.3993 37.846 97.2824C37.7291 97.1655 37.6183 97.0435 37.5143 96.9163C37.4094 96.7891 37.3115 96.6559 37.2195 96.5193C37.1284 96.3818 37.0433 96.2408 36.966 96.0947C36.8887 95.9495 36.8182 95.8008 36.7546 95.6479C36.6919 95.4957 36.636 95.3402 36.5887 95.1829C36.5406 95.0248 36.5002 94.865 36.4684 94.7025C36.4366 94.541 36.4117 94.3777 36.3962 94.2136C36.3799 94.0494 36.3713 93.8853 36.3713 93.7203V54.0825C36.3713 53.9175 36.3799 53.7525 36.3962 53.5883C36.4117 53.4242 36.4366 53.2609 36.4684 53.0993C36.5002 52.9378 36.5406 52.7779 36.5887 52.6198C36.636 52.4617 36.6919 52.307 36.7546 52.154C36.8182 52.0019 36.8887 51.8532 36.966 51.7071C37.0433 51.5619 37.1284 51.4201 37.2195 51.2835C37.3115 51.146 37.4094 51.0136 37.5143 50.8864C37.6183 50.7584 37.7291 50.6364 37.846 50.5195C37.962 50.4035 38.084 50.2926 38.2112 50.1878C38.3393 50.0829 38.4716 49.985 38.6083 49.893C38.7458 49.8019 38.8867 49.7168 39.0319 49.6395C39.1772 49.5613 39.3258 49.4908 39.4788 49.4281C39.6309 49.3645 39.7856 49.3086 39.9437 49.2614C40.101 49.2132 40.2608 49.1729 40.4224 49.1411C40.584 49.1084 40.7472 49.0843 40.9114 49.0689C41.0747 49.0525 41.2397 49.0439 41.4047 49.0439H106.724C106.888 49.0448 107.052 49.0525 107.216 49.0689C107.381 49.0861 107.543 49.1101 107.705 49.1428C107.866 49.1746 108.025 49.215 108.182 49.2631C108.341 49.3112 108.495 49.3671 108.647 49.4298C108.799 49.4934 108.947 49.5639 109.092 49.6421C109.238 49.7194 109.379 49.8045 109.515 49.8964C109.653 49.9875 109.784 50.0864 109.911 50.1912C110.039 50.2952 110.161 50.4061 110.277 50.5229C110.394 50.6398 110.504 50.7618 110.608 50.889C110.712 51.0162 110.81 51.1486 110.901 51.2861C110.993 51.4227 111.078 51.5645 111.155 51.7097C111.232 51.855 111.303 52.0036 111.366 52.1566C111.428 52.3087 111.484 52.4634 111.531 52.6215C111.58 52.7788 111.619 52.9386 111.652 53.1002C111.684 53.2618 111.708 53.425 111.724 53.5892C111.74 53.7533 111.748 53.9175 111.748 54.0825Z" fill="#FFEB9A"/>
<path d="M87.0374 92.9386C86.8019 92.9386 86.5664 92.9325 86.331 92.9205C86.0964 92.9085 85.8609 92.8904 85.6271 92.8664C85.3925 92.8423 85.1588 92.8122 84.9259 92.7761C84.693 92.74 84.4618 92.6979 84.2307 92.6498C84.0003 92.6017 83.7709 92.5484 83.5432 92.4883C83.3154 92.4281 83.0894 92.3628 82.8651 92.2915C82.64 92.2201 82.4174 92.1428 82.1974 92.0594C81.9765 91.9769 81.7582 91.8875 81.5425 91.7939C81.3268 91.6993 81.1128 91.5997 80.9023 91.4948C80.6918 91.3891 80.4838 91.2791 80.2784 91.1631C80.073 91.0471 79.871 90.9259 79.6725 90.7996C79.4732 90.6733 79.2772 90.5418 79.0856 90.4051C78.8931 90.2693 78.7049 90.1275 78.5201 89.9815C78.3345 89.8354 78.154 89.685 77.977 89.5294C77.7991 89.3739 77.6264 89.214 77.4579 89.0499C77.2886 88.8849 77.1236 88.7165 76.9638 88.5437C76.8031 88.371 76.6475 88.194 76.4963 88.0135C76.345 87.8322 76.1989 87.6474 76.0571 87.4592C75.9153 87.271 75.7787 87.0785 75.6472 86.8834C75.5149 86.6883 75.3885 86.489 75.2665 86.287C75.1453 86.085 75.0285 85.8805 74.9176 85.6725C74.8068 85.4646 74.701 85.254 74.6005 85.04C74.5 84.8269 74.4054 84.6112 74.316 84.3929C74.2275 84.1747 74.1442 83.9538 74.066 83.7312C73.9878 83.5086 73.9164 83.2843 73.8494 83.0583C73.7832 82.8315 73.7231 82.6037 73.6681 82.3743C73.6139 82.1448 73.565 81.9145 73.5228 81.6825C73.4799 81.4504 73.4429 81.2176 73.412 80.9838C73.381 80.75 73.357 80.5154 73.3381 80.28C73.3192 80.0454 73.3063 79.8099 73.3003 79.5744C73.2934 79.3381 73.2925 79.1026 73.2985 78.8672C73.3037 78.6308 73.3157 78.3954 73.3329 78.1608C73.351 77.9253 73.3742 77.6907 73.4043 77.4569C73.4335 77.2223 73.4696 76.9894 73.5108 76.7574C73.5529 76.5254 73.6002 76.2942 73.6535 76.0647C73.7076 75.8353 73.7669 75.6067 73.8322 75.3807C73.8975 75.1538 73.968 74.9286 74.0453 74.7061C74.1218 74.4835 74.2043 74.2626 74.2928 74.0435C74.3805 73.8252 74.4742 73.6086 74.5739 73.3947C74.6727 73.1807 74.7775 72.9693 74.8875 72.7613C74.9975 72.5525 75.1135 72.3471 75.2339 72.1443C75.355 71.9423 75.4805 71.7429 75.6111 71.547C75.7426 71.3502 75.8784 71.1577 76.0193 70.9686C76.1594 70.7796 76.3055 70.5948 76.4559 70.4126C76.6063 70.2313 76.761 70.0543 76.9208 69.8807C77.0798 69.7071 77.2439 69.5378 77.4124 69.3719C77.58 69.2069 77.7527 69.0462 77.9289 68.8898C78.105 68.7343 78.2855 68.5822 78.4703 68.4352C78.6542 68.2883 78.8424 68.1465 79.034 68.009C79.2257 67.8715 79.4199 67.7391 79.6184 67.6119C79.8169 67.4847 80.018 67.3627 80.2225 67.2458C80.4279 67.129 80.635 67.0172 80.8456 66.9115C81.0561 66.805 81.2684 66.7044 81.4841 66.609C81.6998 66.5136 81.9172 66.4243 82.1381 66.3401C82.3581 66.2567 82.5798 66.1776 82.8041 66.1054C83.0284 66.0333 83.2544 65.9662 83.4821 65.9052C83.709 65.8442 83.9385 65.7892 84.1688 65.7402C84.3991 65.6912 84.6311 65.6483 84.8632 65.6104C85.096 65.5735 85.3298 65.5426 85.5635 65.5176C85.7982 65.4918 86.0328 65.4729 86.2682 65.4601C86.5028 65.4472 86.7383 65.4394 86.9738 65.4386C87.2093 65.4377 87.4447 65.4429 87.6802 65.454C87.9157 65.4652 88.1503 65.4824 88.3849 65.5056C88.6195 65.5288 88.8532 65.558 89.0861 65.5933C89.319 65.6293 89.551 65.6706 89.7814 65.7179C90.0125 65.7651 90.242 65.8176 90.4697 65.8768C90.6983 65.9361 90.9243 66.0006 91.1495 66.0719C91.3738 66.1424 91.5964 66.2189 91.8172 66.3014C92.0381 66.383 92.2572 66.4715 92.4729 66.5643C92.6895 66.658 92.9035 66.7568 93.114 66.8617C93.3254 66.9657 93.5343 67.0757 93.7396 67.1908C93.945 67.306 94.1478 67.4272 94.3472 67.5526C94.5466 67.6781 94.7425 67.8087 94.935 67.9445C95.1275 68.0803 95.3166 68.2212 95.5022 68.3665C95.6878 68.5117 95.8692 68.6621 96.0471 68.8168C96.2241 68.9715 96.3977 69.1313 96.5678 69.2946C96.7371 69.4587 96.9021 69.6263 97.0628 69.799C97.2244 69.9709 97.38 70.1471 97.5321 70.3276C97.6842 70.508 97.8311 70.6919 97.9738 70.8801C98.1156 71.0683 98.2531 71.2591 98.3854 71.4542C98.5186 71.6493 98.6458 71.8478 98.7678 72.0497C98.8899 72.2508 99.0076 72.4554 99.1193 72.6633C99.231 72.8704 99.3376 73.081 99.4382 73.2941C99.5396 73.5072 99.635 73.7229 99.7243 73.9404C99.8146 74.1586 99.8988 74.3786 99.9778 74.6012C100.056 74.8238 100.129 75.0472 100.196 75.2741C100.263 75.5001 100.324 75.727 100.38 75.9565C100.435 76.1859 100.485 76.4162 100.528 76.6483C100.572 76.8803 100.609 77.1123 100.64 77.3461C100.672 77.5798 100.698 77.8144 100.717 78.0499C100.737 78.2845 100.75 78.52 100.757 78.7554C100.765 78.9918 100.767 79.2272 100.762 79.4627C100.757 79.699 100.746 79.9345 100.73 80.1691C100.713 80.4046 100.69 80.6392 100.661 80.8738C100.632 81.1075 100.597 81.3404 100.556 81.5733C100.516 81.8054 100.469 82.0365 100.416 82.266L119.792 88.7818C119.832 88.7955 119.863 88.8204 119.884 88.8574C119.899 88.8986 119.899 88.939 119.884 88.9794L118.861 92.0233C118.847 92.0637 118.82 92.0938 118.782 92.1127C118.743 92.1316 118.704 92.1342 118.663 92.1196L99.1872 85.5703C98.8993 86.1237 98.5753 86.6548 98.2153 87.1644C97.8543 87.6732 97.4616 88.1561 97.0353 88.6108C96.6091 89.0662 96.1536 89.4908 95.6698 89.8835C95.1851 90.2762 94.6764 90.6346 94.1435 90.9577C93.6099 91.2817 93.0573 91.567 92.4858 91.8145C91.9135 92.062 91.3265 92.27 90.7267 92.4367C90.126 92.6043 89.5167 92.7297 88.8988 92.814C88.2818 92.8982 87.6613 92.9394 87.0374 92.9386ZM87.0374 65.766C86.6421 65.766 86.2476 65.7823 85.8532 65.8176C85.4587 65.8519 85.0677 65.9035 84.6775 65.9731C84.2882 66.0418 83.9024 66.1286 83.5208 66.2318C83.1384 66.3349 82.762 66.4552 82.3907 66.5918C82.0195 66.7285 81.6551 66.8815 81.2976 67.0499C80.9393 67.2192 80.5903 67.4031 80.2483 67.6033C79.9071 67.8036 79.5746 68.0176 79.2523 68.247C78.93 68.4765 78.6181 68.7197 78.3173 68.9766C78.0157 69.2336 77.7269 69.5026 77.4493 69.7853C77.1726 70.068 76.9079 70.3619 76.657 70.6679C76.4052 70.9738 76.168 71.2901 75.9446 71.6175C75.722 71.944 75.5132 72.2801 75.3198 72.6255C75.1256 72.971 74.9477 73.3242 74.7853 73.6851C74.6228 74.0461 74.4768 74.4139 74.347 74.7877C74.2172 75.1615 74.1038 75.5405 74.0075 75.9247C73.9113 76.3088 73.8314 76.6964 73.7695 77.0874C73.7068 77.4784 73.6621 77.872 73.6346 78.2673C73.6071 78.6618 73.5968 79.0571 73.6045 79.4533C73.6122 79.8494 73.6371 80.2439 73.6793 80.6383C73.7214 81.0319 73.7807 81.4229 73.858 81.8114C73.9345 82.1998 74.0282 82.584 74.139 82.9647C74.2499 83.3445 74.3779 83.7192 74.5214 84.0879C74.665 84.4565 74.8248 84.8183 75.001 85.1733C75.1771 85.5282 75.3679 85.8745 75.5742 86.2122C75.7804 86.55 76.0021 86.8783 76.2368 87.1962C76.4722 87.5142 76.7214 87.8218 76.9844 88.1183C77.2465 88.414 77.5215 88.6984 77.8094 88.97C78.0973 89.2424 78.3964 89.5002 78.7066 89.746C79.0168 89.9918 79.3374 90.2229 79.6682 90.4395C79.9991 90.6569 80.3394 90.8589 80.6883 91.0454C81.0372 91.2327 81.393 91.4037 81.7574 91.5593C82.1209 91.714 82.4904 91.8532 82.8668 91.9761C83.2432 92.099 83.6239 92.2047 84.0098 92.2932C84.3948 92.3825 84.7832 92.4539 85.1751 92.508C85.567 92.563 85.9606 92.6 86.3559 92.6197C86.7512 92.6395 87.1457 92.6412 87.541 92.6266C87.9363 92.6111 88.3307 92.5785 88.7226 92.5278C89.1153 92.4779 89.5046 92.41 89.8914 92.3258C90.2772 92.2408 90.6596 92.1393 91.0369 92.0208C91.4142 91.903 91.7863 91.7681 92.1515 91.6168C92.5168 91.4647 92.8751 91.298 93.2257 91.115C93.5772 90.9319 93.9193 90.7334 94.2518 90.5203C94.5853 90.3072 94.9084 90.0794 95.2221 89.8371C95.5349 89.5956 95.8365 89.3404 96.1278 89.0714C96.4183 88.8024 96.6959 88.5214 96.9623 88.2283C97.2278 87.9353 97.4805 87.6302 97.7194 87.3148C97.9583 86.9994 98.1826 86.6737 98.3923 86.3386C98.6028 86.0025 98.7979 85.6588 98.9775 85.3056C98.9964 85.2721 99.0239 85.248 99.0609 85.2334C99.097 85.2197 99.1331 85.2179 99.1709 85.23L118.622 91.7715L119.544 89.0301L100.182 82.535C100.143 82.5221 100.114 82.4972 100.095 82.4619C100.076 82.4267 100.071 82.3889 100.08 82.3502C100.325 81.319 100.448 80.274 100.45 79.2135C100.45 78.7735 100.429 78.3343 100.386 77.8969C100.343 77.4586 100.279 77.0238 100.194 76.5924C100.108 76.1601 100.003 75.7339 99.8747 75.3128C99.7475 74.8917 99.6006 74.4775 99.4321 74.0701C99.2646 73.6636 99.0772 73.2666 98.8701 72.8782C98.663 72.4897 98.4378 72.1125 98.1938 71.7464C97.9497 71.3803 97.6885 71.0271 97.41 70.6868C97.1316 70.3456 96.8368 70.0199 96.5266 69.7088C96.2155 69.3968 95.8907 69.1021 95.5512 68.8219C95.2109 68.5426 94.8585 68.2805 94.4933 68.0356C94.1281 67.7915 93.7517 67.5647 93.3641 67.3576C92.9765 67.1496 92.5795 66.9614 92.1739 66.7921C91.7674 66.6236 91.354 66.475 90.9338 66.3469C90.5135 66.2189 90.0873 66.1123 89.6559 66.0264C89.2253 65.9396 88.7905 65.8751 88.3531 65.8313C87.9157 65.7883 87.4774 65.7668 87.0374 65.766Z" fill="black"/>
<path d="M110.628 102.81H45.3045C45.1352 102.81 44.9659 102.801 44.7974 102.784C44.6281 102.768 44.4605 102.743 44.2947 102.709C44.128 102.676 43.9638 102.634 43.8014 102.585C43.639 102.536 43.48 102.479 43.3227 102.413C43.1663 102.349 43.0134 102.276 42.8638 102.196C42.7143 102.116 42.5691 102.028 42.4281 101.934C42.2872 101.84 42.1514 101.739 42.0199 101.631C41.8884 101.523 41.763 101.41 41.6435 101.289C41.5232 101.17 41.4098 101.044 41.3023 100.913C41.1949 100.782 41.0935 100.645 40.999 100.504C40.9053 100.363 40.8177 100.218 40.7377 100.068C40.6578 99.9179 40.5856 99.7649 40.5203 99.6076C40.4559 99.4512 40.3983 99.2914 40.3493 99.1289C40.2995 98.9665 40.2582 98.8024 40.2255 98.6357C40.192 98.4689 40.1671 98.3014 40.1508 98.1321C40.1336 97.9636 40.125 97.7943 40.125 97.6242V57.9864C40.125 57.8171 40.1336 57.6478 40.1508 57.4785C40.1671 57.31 40.192 57.1416 40.2255 56.9757C40.2582 56.809 40.2995 56.644 40.3493 56.4816C40.3983 56.3192 40.4559 56.1602 40.5203 56.0029C40.5856 55.8465 40.6578 55.6927 40.7377 55.5432C40.8177 55.3936 40.9053 55.2484 40.999 55.1066C41.0935 54.9657 41.1949 54.8299 41.3023 54.6984C41.4098 54.5669 41.5232 54.4414 41.6435 54.3211C41.763 54.2017 41.8884 54.0874 42.0199 53.98C42.1514 53.8725 42.2872 53.7711 42.4281 53.6766C42.5691 53.5821 42.7143 53.4953 42.8638 53.4154C43.0134 53.3346 43.1663 53.2624 43.3227 53.1971C43.48 53.1326 43.639 53.075 43.8014 53.0261C43.9638 52.9762 44.128 52.935 44.2947 52.9023C44.4605 52.8688 44.6281 52.8439 44.7974 52.8267C44.9659 52.8104 45.1352 52.8018 45.3045 52.8018H110.628C110.797 52.8018 110.967 52.8104 111.136 52.8267C111.304 52.8439 111.472 52.8688 111.638 52.9023C111.805 52.935 111.969 52.9762 112.131 53.0261C112.294 53.075 112.453 53.1326 112.61 53.1971C112.766 53.2624 112.919 53.3346 113.069 53.4154C113.218 53.4953 113.364 53.5821 113.504 53.6766C113.645 53.7711 113.782 53.8725 113.913 53.98C114.044 54.0874 114.17 54.2017 114.289 54.3211C114.409 54.4414 114.523 54.5669 114.63 54.6984C114.739 54.8299 114.839 54.9657 114.934 55.1066C115.027 55.2484 115.115 55.3936 115.195 55.5432C115.275 55.6927 115.347 55.8465 115.412 56.0029C115.478 56.1602 115.534 56.3192 115.583 56.4816C115.633 56.644 115.674 56.809 115.707 56.9757C115.741 57.1416 115.765 57.31 115.783 57.4785C115.799 57.6478 115.808 57.8171 115.808 57.9864V97.6242C115.808 97.7943 115.799 97.9636 115.783 98.1329C115.765 98.3014 115.741 98.4689 115.707 98.6357C115.674 98.8024 115.633 98.9665 115.583 99.1289C115.534 99.2914 115.478 99.4512 115.412 99.6076C115.347 99.7649 115.275 99.9179 115.195 100.068C115.115 100.218 115.027 100.363 114.934 100.504C114.839 100.645 114.739 100.782 114.63 100.913C114.523 101.044 114.409 101.17 114.289 101.289C114.17 101.41 114.044 101.523 113.913 101.631C113.782 101.739 113.645 101.84 113.504 101.934C113.364 102.028 113.218 102.116 113.069 102.196C112.919 102.276 112.766 102.349 112.61 102.413C112.453 102.479 112.294 102.536 112.131 102.585C111.969 102.634 111.805 102.676 111.638 102.709C111.472 102.743 111.304 102.768 111.136 102.784C110.967 102.801 110.797 102.81 110.628 102.81ZM45.3045 53.1163C45.1455 53.1163 44.9865 53.1249 44.8275 53.1404C44.6694 53.1558 44.5121 53.1799 44.3557 53.2108C44.1993 53.2418 44.0455 53.2804 43.8925 53.3268C43.7404 53.3732 43.5909 53.4274 43.4439 53.4884C43.2961 53.5494 43.1526 53.6173 43.0125 53.6929C42.8716 53.7677 42.7349 53.8502 42.6026 53.9387C42.4702 54.0272 42.3422 54.1218 42.2193 54.2232C42.0964 54.3246 41.9787 54.4311 41.8661 54.5446C41.7535 54.6571 41.6461 54.7749 41.5455 54.8978C41.4441 55.0215 41.3496 55.1496 41.2611 55.2819C41.1726 55.4143 41.0901 55.5509 41.0153 55.6918C40.9405 55.8319 40.8718 55.9763 40.8108 56.1232C40.7498 56.2711 40.6965 56.4206 40.6501 56.5736C40.6037 56.7257 40.565 56.8804 40.5341 57.0368C40.5023 57.1932 40.4791 57.3504 40.4636 57.5094C40.4481 57.6684 40.4395 57.8274 40.4395 57.9864V97.6242C40.4395 97.784 40.4481 97.943 40.4636 98.102C40.4791 98.2601 40.5023 98.4182 40.5341 98.5746C40.565 98.7302 40.6037 98.8849 40.6501 99.0378C40.6965 99.19 40.7498 99.3404 40.8108 99.4873C40.8718 99.6351 40.9405 99.7786 41.0153 99.9196C41.0901 100.06 41.1726 100.196 41.2611 100.329C41.3496 100.462 41.4441 100.59 41.5455 100.713C41.6461 100.837 41.7535 100.954 41.8661 101.067C41.9787 101.179 42.0964 101.287 42.2193 101.388C42.3422 101.489 42.4702 101.584 42.6026 101.673C42.7349 101.761 42.8716 101.843 43.0125 101.918C43.1526 101.993 43.2961 102.062 43.4439 102.123C43.5909 102.184 43.7404 102.237 43.8925 102.284C44.0455 102.33 44.1993 102.369 44.3557 102.401C44.5121 102.432 44.6694 102.455 44.8275 102.471C44.9865 102.487 45.1455 102.494 45.3045 102.494H110.628C110.787 102.494 110.946 102.487 111.105 102.471C111.263 102.455 111.42 102.432 111.577 102.401C111.733 102.369 111.887 102.33 112.04 102.284C112.192 102.237 112.342 102.184 112.49 102.123C112.636 102.062 112.78 101.993 112.921 101.918C113.061 101.843 113.198 101.761 113.33 101.673C113.462 101.584 113.59 101.489 113.713 101.388C113.836 101.287 113.954 101.179 114.066 101.067C114.18 100.954 114.286 100.837 114.387 100.713C114.488 100.59 114.583 100.462 114.671 100.329C114.76 100.196 114.842 100.06 114.917 99.9196C114.993 99.7786 115.061 99.6351 115.122 99.4873C115.183 99.3404 115.236 99.19 115.282 99.0378C115.329 98.8849 115.368 98.7311 115.399 98.5746C115.43 98.4182 115.454 98.2601 115.469 98.102C115.485 97.943 115.493 97.784 115.493 97.6242V57.9864C115.493 57.8274 115.484 57.6684 115.469 57.5094C115.453 57.3513 115.429 57.1932 115.399 57.0368C115.367 56.8812 115.328 56.7265 115.282 56.5736C115.235 56.4214 115.182 56.2711 115.12 56.1241C115.059 55.9771 114.991 55.8328 114.916 55.6927C114.841 55.5518 114.759 55.4151 114.671 55.2828C114.582 55.1504 114.488 55.0224 114.386 54.8995C114.285 54.7757 114.178 54.658 114.066 54.5454C113.953 54.4329 113.835 54.3254 113.712 54.2249C113.589 54.1235 113.461 54.0281 113.329 53.9396C113.197 53.8511 113.06 53.7694 112.92 53.6938C112.779 53.619 112.636 53.5503 112.489 53.4893C112.342 53.4282 112.192 53.3741 112.039 53.3277C111.887 53.2813 111.732 53.2426 111.577 53.2117C111.42 53.1799 111.263 53.1567 111.105 53.1404C110.946 53.1249 110.787 53.1171 110.628 53.1163H45.3045Z" fill="black"/>
<path d="M50.8028 80.3176H55.3282V88.2951H50.8028V80.3176ZM56.9507 74.8262V88.3115H61.4762V74.8262H56.9507Z" fill="white"/>
<path d="M132.78 151.948C132.791 151.98 132.797 152.012 132.798 152.047C132.801 152.08 132.799 152.114 132.793 152.147C132.787 152.18 132.778 152.213 132.764 152.243C132.75 152.274 132.733 152.303 132.712 152.33C132.692 152.357 132.669 152.381 132.642 152.402C132.616 152.423 132.587 152.44 132.557 152.455C132.526 152.469 132.494 152.479 132.461 152.486C132.428 152.493 132.394 152.494 132.361 152.494H123.336C123.28 152.493 123.231 152.476 123.187 152.441C123.144 152.406 123.116 152.362 123.102 152.308C123.089 152.255 123.093 152.202 123.116 152.152C123.138 152.101 123.173 152.062 123.222 152.036L128.33 149.374C130.054 150.927 132.105 149.374 132.105 149.374L132.78 151.948ZM112.85 149.374C112.85 149.374 110.8 150.927 109.076 149.374L103.968 152.036C103.92 152.062 103.885 152.1 103.862 152.151C103.839 152.201 103.835 152.253 103.848 152.306C103.861 152.36 103.888 152.404 103.931 152.439C103.973 152.474 104.022 152.492 104.077 152.494H113.102C113.137 152.494 113.169 152.493 113.203 152.486C113.236 152.479 113.268 152.469 113.298 152.455C113.329 152.44 113.358 152.423 113.384 152.402C113.41 152.381 113.434 152.357 113.455 152.329C113.475 152.303 113.492 152.274 113.505 152.243C113.519 152.213 113.529 152.18 113.535 152.147C113.541 152.114 113.542 152.08 113.541 152.047C113.538 152.012 113.532 151.98 113.522 151.948L112.85 149.374Z" fill="black"/>
<path d="M134.269 148.313H127.647L127.617 148.133L122.644 114.834V114.801L125.06 99.9629L126.213 100.245L131.765 100.358C131.765 100.358 131.74 100.824 131.694 101.592L131.849 101.63V101.806C131.534 107.781 131.086 116.832 131.148 117.282C131.212 117.731 133.95 144.971 134.257 148.078L134.269 148.313Z" fill="white"/>
<path d="M134.269 148.472H127.647C127.608 148.473 127.573 148.46 127.544 148.434C127.514 148.409 127.497 148.376 127.492 148.338L127.462 148.157L122.48 114.863V114.813L124.904 99.942C124.913 99.8973 124.935 99.8604 124.971 99.8329C125.011 99.8088 125.052 99.8019 125.097 99.8123L126.25 100.098L131.77 100.207C131.814 100.205 131.85 100.222 131.879 100.257C131.91 100.288 131.924 100.326 131.92 100.37L131.841 101.47H131.866C131.903 101.479 131.933 101.497 131.956 101.528C131.978 101.558 131.99 101.592 131.988 101.63V101.806C131.605 109.007 131.228 116.862 131.283 117.252C131.337 117.643 134.269 146.814 134.395 148.057L134.416 148.291C134.42 148.338 134.408 148.378 134.378 148.413C134.35 148.449 134.313 148.467 134.269 148.472ZM127.773 148.157H134.092V148.095C133.061 137.649 131.081 117.769 130.989 117.319C130.914 116.807 131.409 106.945 131.685 101.785V101.739H131.66C131.623 101.73 131.594 101.709 131.573 101.678C131.55 101.647 131.541 101.613 131.543 101.575L131.602 100.505L126.213 100.396L125.194 100.147L122.803 114.817L127.773 148.157Z" fill="black"/>
<path d="M131.337 100.097L122.329 116.471L114.117 148.312H107.097L107.135 148.064L112.221 116.312C112.353 115.492 112.597 114.708 112.955 113.961L119.737 99.6855L131.337 100.097Z" fill="white"/>
<path d="M114.117 148.471H107.097C107.048 148.471 107.008 148.453 106.975 148.417C106.945 148.38 106.934 148.338 106.941 148.291L112.067 116.286C112.202 115.451 112.45 114.652 112.813 113.889L119.599 99.614C119.629 99.553 119.678 99.5237 119.745 99.5255L131.362 99.9242C131.39 99.9259 131.415 99.9337 131.439 99.9474C131.463 99.962 131.481 99.9809 131.495 100.005C131.508 100.029 131.515 100.055 131.516 100.082C131.516 100.11 131.51 100.136 131.497 100.16L122.497 116.533L114.289 148.358C114.279 148.396 114.256 148.425 114.224 148.446C114.192 148.468 114.156 148.476 114.117 148.471ZM107.26 148.157H113.996L122.194 116.429C122.19 116.417 122.19 116.406 122.194 116.395L131.081 100.244L119.821 99.8529L113.073 114.023C112.724 114.759 112.485 115.528 112.356 116.332L107.26 148.157Z" fill="black"/>
<path d="M121.562 80.9107L117.514 82.4601L116.873 78.9203C116.683 78.9968 116.487 79.0484 116.285 79.0776C116.083 79.106 115.88 79.1103 115.676 79.0896C115.472 79.069 115.275 79.0243 115.082 78.9564C114.89 78.8877 114.708 78.7975 114.537 78.6857C112.507 77.2746 112.545 72.7277 112.549 72.5352V72.3839L118.668 70.2295L120.345 75.4863L121.562 80.9107Z" fill="#F7EAD0"/>
<path d="M120.459 71.1446C120.135 69.2221 118.001 68.5793 116.823 69.113C115.93 69.4696 115.005 69.6836 114.046 69.7549C111.694 68.9153 111.052 70.0789 111.052 70.0789C110.213 72.0014 110.632 73.1813 111.589 73.6092C112.545 74.0381 112.763 72.7696 113.832 73.2861C114.902 73.8026 114.902 75.2137 114.793 75.9605C114.684 76.7081 113.296 77.4592 113.832 78.2069C114.369 78.9537 115.757 79.5965 116.609 79.0465C117.46 78.4965 117.36 76.691 117.36 76.691L119.494 76.2716C121.846 75.6417 120.777 73.0721 120.459 71.1446ZM116.265 76.1831C116.228 76.2441 116.175 76.2681 116.105 76.2561C116.035 76.2432 115.993 76.2028 115.979 76.1324L115.598 74.4531C115.588 74.4102 115.588 74.3672 115.596 74.3242C115.605 74.2813 115.622 74.2417 115.648 74.2056C115.674 74.1704 115.705 74.1412 115.743 74.1188C115.782 74.0974 115.822 74.0836 115.866 74.0793C117.581 73.916 116.718 75.5033 116.281 76.1917L116.265 76.1831Z" fill="black"/>
<path d="M115.141 92.6532L111.915 97.4055C111.811 97.5611 111.676 97.6831 111.512 97.7734C111.347 97.8636 111.172 97.9117 110.985 97.9177H110.947C110.766 97.9186 110.596 97.8791 110.435 97.7991C110.273 97.7192 110.137 97.6084 110.028 97.4648L103.876 89.5087C103.225 88.572 102.648 87.5923 102.144 86.5697L101.964 86.0867L102.773 86.452L103.155 84.4238L103.423 84.6043C103.541 84.6963 103.645 84.802 103.734 84.9214C103.824 85.0409 103.897 85.1698 103.952 85.3081C104.007 85.4473 104.044 85.5909 104.06 85.7387C104.077 85.8873 104.075 86.0352 104.052 86.183V86.5697C104.313 86.7579 104.532 86.9873 104.706 87.258C104.971 87.3165 105.545 87.6027 105.852 88.9373L110.045 92.636L111.106 89.6677L115.141 92.6532Z" fill="#F7EAD0"/>
<path d="M119.745 92.0028L118.877 95.2349L110.418 89.7349C110.136 89.5828 109.833 89.5166 109.513 89.5381H109.471C108.46 89.6386 108.108 88.9709 108.061 88.6014L108.036 88.3917L108.246 88.3625C108.888 88.274 109.038 88.249 109.24 87.1447C109.306 86.844 109.314 86.5415 109.264 86.2381C109.215 85.9339 109.112 85.6503 108.955 85.3856L108.829 85.2051L109.009 85.0831C109.128 85.004 109.258 84.9602 109.401 84.9508C109.544 84.9422 109.678 84.9697 109.807 85.0333C109.929 85.0126 110.051 85.0204 110.172 85.0565C110.292 85.0926 110.398 85.1536 110.49 85.2386C110.701 85.2283 110.88 85.2997 111.027 85.4526C111.153 85.45 111.273 85.4784 111.386 85.5377C111.498 85.5961 111.59 85.6786 111.66 85.7843V85.8058C111.904 86.5217 112.044 87.2582 112.08 88.0136L119.745 92.0028Z" fill="#F7EAD0"/>
<path d="M115.594 105.328C115.594 105.328 117.409 94.3075 116.559 91.3134L114.902 94.0385L110.624 90.4025L114.151 83.555C114.467 83.0617 114.853 82.6311 115.311 82.2659C115.768 81.8998 116.272 81.6171 116.822 81.4177L122.165 79.3818C122.165 79.3818 125.906 80.1329 128.15 86.0154C130.394 91.8969 133.602 102.574 133.602 102.574C133.602 102.574 122.966 105.967 115.594 105.328Z" fill="#FFEB9A"/>
<path d="M97.8037 79.1973C97.8037 79.5505 97.7865 79.9029 97.7521 80.2544C97.7169 80.6059 97.6653 80.9548 97.5966 81.3011C97.5278 81.6474 97.4428 81.9903 97.3405 82.328C97.2382 82.6658 97.1196 82.9984 96.9847 83.3249C96.8498 83.6506 96.6985 83.9695 96.5327 84.2814C96.366 84.5934 96.1855 84.8959 95.9896 85.1889C95.7936 85.4828 95.5831 85.7664 95.3596 86.0397C95.1362 86.313 94.899 86.5742 94.6498 86.8234C94.4006 87.0735 94.1393 87.3107 93.8669 87.535C93.5945 87.7584 93.3109 87.969 93.0178 88.1649C92.7248 88.3617 92.4223 88.543 92.1112 88.7098C91.8001 88.8756 91.4813 89.0269 91.1556 89.1618C90.8299 89.2976 90.4981 89.4162 90.1604 89.5184C89.8227 89.6216 89.4806 89.7066 89.1352 89.7754C88.7889 89.845 88.4408 89.8966 88.0893 89.9309C87.7378 89.9662 87.3864 89.9834 87.0331 89.9834C86.6808 89.9834 86.3293 89.9662 85.9778 89.9318C85.6272 89.8966 85.2783 89.845 84.9328 89.7763C84.5865 89.7075 84.2445 89.6216 83.9076 89.5193C83.5699 89.417 83.2381 89.2984 82.9124 89.1635C82.5867 89.0277 82.2679 88.8773 81.9568 88.7106C81.6457 88.5448 81.3432 88.3634 81.0502 88.1666C80.7571 87.9707 80.4744 87.761 80.2011 87.5367C79.9287 87.3124 79.6674 87.0761 79.4182 86.826C79.169 86.5768 78.9318 86.3155 78.7084 86.0423C78.4849 85.769 78.2744 85.4863 78.0785 85.1923C77.8825 84.8984 77.7021 84.5959 77.5353 84.2848C77.3695 83.9729 77.2182 83.6541 77.0833 83.3284C76.9484 83.0018 76.8298 82.6692 76.7275 82.3315C76.6253 81.9938 76.5393 81.6517 76.4706 81.3054C76.4018 80.9591 76.3503 80.6102 76.3159 80.2587C76.2806 79.9072 76.2635 79.5548 76.2635 79.2016C76.2635 78.8484 76.2806 78.4961 76.3159 78.1446C76.3503 77.7931 76.4018 77.4442 76.4706 77.097C76.5402 76.7507 76.6253 76.4087 76.7284 76.0709C76.8306 75.7332 76.9492 75.4006 77.0842 75.0741C77.2191 74.7484 77.3703 74.4295 77.5362 74.1176C77.7029 73.8065 77.8842 73.504 78.0802 73.2101C78.2761 72.9162 78.4858 72.6334 78.7101 72.3602C78.9335 72.0869 79.1707 71.8256 79.4199 71.5764C79.6692 71.3263 79.9304 71.0891 80.2037 70.8657C80.4761 70.6414 80.7597 70.4317 81.0528 70.2349C81.3458 70.039 81.6483 69.8577 81.9594 69.6918C82.2705 69.5251 82.5893 69.3747 82.915 69.2389C83.2416 69.104 83.5733 68.9854 83.911 68.8831C84.2479 68.7809 84.5899 68.6949 84.9363 68.6262C85.2826 68.5574 85.6306 68.5059 85.9821 68.4715C86.3328 68.4371 86.6851 68.4199 87.0374 68.4199C87.3906 68.4199 87.7421 68.4371 88.0928 68.4715C88.4434 68.5059 88.7923 68.5583 89.1378 68.627C89.4841 68.6958 89.8253 68.7817 90.163 68.884C90.4999 68.9862 90.8316 69.1048 91.1573 69.2398C91.483 69.3755 91.8018 69.5259 92.1129 69.6927C92.4231 69.8585 92.7256 70.0398 93.0187 70.2358C93.3117 70.4326 93.5945 70.6423 93.8678 70.8666C94.1402 71.09 94.4006 71.3272 94.6498 71.5764C94.8999 71.8256 95.1362 72.0869 95.3596 72.3602C95.5831 72.6326 95.7928 72.9162 95.9887 73.2092C96.1846 73.5031 96.366 73.8056 96.5318 74.1167C96.6985 74.4278 96.8489 74.7466 96.9839 75.0732C97.1188 75.3989 97.2374 75.7306 97.3396 76.0684C97.4419 76.4061 97.5278 76.7481 97.5966 77.0945C97.6653 77.4408 97.7169 77.7897 97.7513 78.1412C97.7856 78.4918 97.8037 78.8441 97.8037 79.1973Z" fill="white"/>
<path d="M88.1993 78.1477C88.1993 77.8194 88.1555 77.4954 88.0695 77.1783L88.7321 76.4229L88.1073 75.3607L87.1594 75.6039C86.6902 75.1227 86.1316 74.7987 85.4819 74.6294L85.1717 73.6807H83.9428L83.6661 74.6294C83.0164 74.8013 82.4569 75.127 81.9886 75.6082L81.0192 75.3607L80.3944 76.4229L81.0785 77.1989C80.9934 77.51 80.9513 77.8263 80.9522 78.1477C80.9513 78.4846 80.996 78.8146 81.0862 79.1386L80.4237 79.8278L81.0364 80.8977L81.9963 80.7009C82.4604 81.1718 83.0112 81.4924 83.6489 81.6625L83.9677 82.6319H85.2009L85.4733 81.6789C86.1291 81.5113 86.6954 81.1864 87.1715 80.7052L88.128 80.902L88.745 79.8321L88.0781 79.1386C88.1641 78.8146 88.2044 78.4837 88.1993 78.1477ZM84.559 80.1638C84.4266 80.1638 84.2951 80.15 84.1645 80.1243C84.0348 80.0985 83.9084 80.0598 83.7855 80.0091C83.6626 79.9584 83.5466 79.8965 83.4358 79.8226C83.3258 79.7487 83.2235 79.6645 83.1298 79.5708C83.0362 79.4763 82.9519 79.3749 82.878 79.264C82.805 79.1532 82.7423 79.0371 82.6915 78.9143C82.6408 78.7914 82.6022 78.665 82.5764 78.5344C82.5506 78.4038 82.5377 78.2723 82.5377 78.14C82.5377 78.0068 82.5506 77.8753 82.5764 77.7446C82.6022 77.6149 82.6408 77.4877 82.6915 77.3657C82.7423 77.2428 82.805 77.1259 82.878 77.015C82.9519 76.905 83.0362 76.8028 83.1298 76.7091C83.2235 76.6146 83.3258 76.5312 83.4358 76.4573C83.5466 76.3834 83.6626 76.3207 83.7855 76.27C83.9084 76.2193 84.0348 76.1806 84.1645 76.1548C84.2951 76.129 84.4266 76.1161 84.559 76.1161C84.6922 76.1161 84.8237 76.129 84.9534 76.1548C85.0841 76.1806 85.2104 76.2193 85.3324 76.27C85.4553 76.3207 85.5722 76.3834 85.6822 76.4573C85.7922 76.5312 85.8944 76.6146 85.9881 76.7091C86.0826 76.8028 86.166 76.905 86.2399 77.015C86.3138 77.1259 86.3757 77.2428 86.4264 77.3657C86.4771 77.4877 86.5158 77.6149 86.5416 77.7446C86.5673 77.8753 86.5802 78.0068 86.5802 78.14C86.5802 78.2723 86.5673 78.4038 86.5416 78.5344C86.5158 78.665 86.4771 78.7914 86.4264 78.9143C86.3757 79.0371 86.3138 79.1532 86.2399 79.264C86.166 79.3749 86.0826 79.4763 85.9881 79.5708C85.8944 79.6645 85.7922 79.7487 85.6822 79.8226C85.5722 79.8965 85.4553 79.9584 85.3324 80.0091C85.2104 80.0598 85.0841 80.0985 84.9534 80.1243C84.8237 80.15 84.6922 80.1638 84.559 80.1638ZM93.0058 82.0106C93.0058 81.8301 92.9817 81.6522 92.9344 81.4778L93.2988 81.0575L92.9551 80.474L92.4308 80.6081C92.173 80.3417 91.8645 80.1638 91.5044 80.0753L91.336 79.5545H90.6614L90.5058 80.0753C90.1483 80.1689 89.8416 80.3477 89.5837 80.6124L89.063 80.4783L88.7192 81.0618L89.0965 81.4821C89.0492 81.6522 89.026 81.8258 89.0251 82.002C89.0269 82.1876 89.0526 82.3698 89.1008 82.5477L88.7364 82.9258L89.0716 83.5136L89.6001 83.4045C89.8544 83.6649 90.1578 83.8411 90.5101 83.9339L90.6863 84.4667H91.3618L91.5122 83.9459C91.8731 83.8539 92.1833 83.6743 92.4437 83.4088L92.9723 83.5179L93.3074 82.9301L92.943 82.5477C92.9894 82.3724 93.0101 82.1928 93.0058 82.0106ZM91.0051 83.1192C90.9321 83.1192 90.8599 83.1123 90.7877 83.0985C90.7164 83.0848 90.6468 83.0633 90.5789 83.0358C90.5119 83.0083 90.4474 82.9739 90.3864 82.9335C90.3254 82.8932 90.2695 82.8476 90.2171 82.7961C90.1655 82.7445 90.1191 82.6878 90.0787 82.6276C90.0375 82.5666 90.0031 82.503 89.9756 82.4351C89.9473 82.3681 89.9258 82.2985 89.9112 82.2263C89.8966 82.155 89.8897 82.0828 89.8897 82.0097C89.8897 81.9358 89.8966 81.8636 89.9103 81.7923C89.9241 81.7201 89.9455 81.6505 89.973 81.5826C90.0005 81.5156 90.0349 81.4511 90.0753 81.3901C90.1157 81.3291 90.1621 81.2732 90.2137 81.2217C90.2652 81.1693 90.3211 81.1228 90.3821 81.0825C90.4423 81.0421 90.5067 81.0077 90.5737 80.9793C90.6416 80.951 90.7112 80.9303 90.7826 80.9157C90.8539 80.9011 90.9261 80.8943 90.9991 80.8943C91.0722 80.8934 91.1452 80.9011 91.2166 80.9149C91.2879 80.9295 91.3575 80.9501 91.4254 80.9785C91.4924 81.006 91.5569 81.0403 91.6179 81.0807C91.678 81.1211 91.7348 81.1675 91.7863 81.2191C91.8379 81.2707 91.8843 81.3274 91.9247 81.3875C91.9651 81.4486 91.9994 81.513 92.0278 81.58C92.0553 81.6479 92.0768 81.7175 92.0905 81.7889C92.1051 81.8611 92.112 81.9332 92.112 82.0063C92.112 82.0793 92.1051 82.1515 92.0914 82.2228C92.0768 82.2942 92.0562 82.3638 92.0278 82.4317C92.0003 82.4987 91.9659 82.5623 91.9255 82.6233C91.8851 82.6843 91.8396 82.7402 91.788 82.7918C91.7365 82.8433 91.6806 82.8897 91.6205 82.9301C91.5603 82.9705 91.4958 83.0049 91.4288 83.0332C91.3618 83.0616 91.293 83.0822 91.2217 83.0968C91.1495 83.1114 91.0782 83.1192 91.0051 83.1192ZM92.5864 76.9729C92.5873 76.8294 92.5675 76.6902 92.5271 76.5527L92.8124 76.2296L92.5443 75.7801L92.1249 75.8807C91.9264 75.6736 91.6892 75.5335 91.4116 75.4613L91.2819 75.0411H90.7576L90.6399 75.4613C90.3632 75.5343 90.126 75.6744 89.9275 75.8807L89.5081 75.7758L89.2434 76.2253L89.533 76.557C89.4961 76.6945 89.4772 76.8346 89.4789 76.9764C89.478 77.1199 89.4978 77.2591 89.5373 77.3966L89.2563 77.6905L89.5158 78.1443L89.9352 78.06C90.132 78.2628 90.3649 78.4021 90.6356 78.4794L90.7705 78.8996H91.2948L91.4116 78.4794C91.6901 78.4064 91.929 78.2671 92.1292 78.06L92.5486 78.1443L92.8081 77.6905L92.5271 77.3966C92.5675 77.2582 92.5864 77.1164 92.5864 76.9729ZM91.0387 77.8125C90.9278 77.8125 90.8204 77.7911 90.7173 77.7481C90.615 77.706 90.5239 77.645 90.4457 77.5659C90.3666 77.4877 90.3065 77.3966 90.2635 77.2935C90.2214 77.1912 90.1999 77.0838 90.1999 76.9729C90.1999 76.8612 90.2214 76.7538 90.2635 76.6515C90.3065 76.5484 90.3666 76.4573 90.4457 76.3791C90.5239 76.3 90.615 76.239 90.7173 76.1969C90.8204 76.1539 90.9278 76.1325 91.0387 76.1325C91.1495 76.1325 91.2569 76.1539 91.3592 76.1969C91.4623 76.239 91.5534 76.3 91.6316 76.3791C91.7107 76.4573 91.7708 76.5484 91.8138 76.6515C91.8559 76.7538 91.8774 76.8612 91.8774 76.9729C91.8783 77.0279 91.874 77.0838 91.8637 77.1379C91.8533 77.1929 91.8379 77.2462 91.8173 77.2978C91.7966 77.3493 91.7708 77.3983 91.7408 77.4447C91.7098 77.492 91.6755 77.535 91.6359 77.5745C91.5973 77.614 91.5543 77.6493 91.5087 77.6811C91.4623 77.712 91.4142 77.7378 91.3626 77.7601C91.3111 77.7816 91.2587 77.7971 91.2037 77.8082C91.1495 77.8194 91.0945 77.8246 91.0387 77.8246V77.8125Z" fill="#FFEB9A"/>
<path d="M158.518 152.499H147.978C147.913 152.5 147.854 152.48 147.802 152.441C147.75 152.4 147.716 152.348 147.701 152.284C147.685 152.221 147.691 152.159 147.719 152.099C147.746 152.039 147.79 151.995 147.848 151.965L153.489 149.026L153.229 145.786H158.086L158.384 149.493L159.008 151.865C159.018 151.902 159.023 151.94 159.024 151.979C159.025 152.018 159.021 152.056 159.013 152.093C159.006 152.131 158.994 152.168 158.977 152.203C158.962 152.239 158.941 152.271 158.918 152.301C158.894 152.332 158.867 152.36 158.837 152.385C158.807 152.409 158.775 152.429 158.741 152.447C158.706 152.464 158.67 152.477 158.632 152.485C158.595 152.494 158.556 152.498 158.518 152.499ZM146.088 149.56L146.507 145.781H141.633L141.294 148.959L135.531 151.965C135.473 151.995 135.429 152.039 135.401 152.099C135.374 152.159 135.368 152.221 135.383 152.284C135.399 152.348 135.432 152.4 135.485 152.441C135.537 152.48 135.595 152.5 135.662 152.499H146.2C146.24 152.499 146.278 152.494 146.315 152.485C146.353 152.477 146.39 152.464 146.424 152.447C146.46 152.429 146.492 152.409 146.522 152.384C146.553 152.359 146.579 152.331 146.602 152.3C146.626 152.27 146.646 152.237 146.663 152.201C146.679 152.166 146.69 152.129 146.698 152.091C146.705 152.053 146.709 152.014 146.708 151.976C146.706 151.936 146.701 151.898 146.691 151.86L146.088 149.56Z" fill="black"/>
<path d="M160.518 98.0154L157.868 115.585L159.688 146.797H152.139L152.114 146.599L149.262 125.242L147.232 146.852H139.327L140.438 113.99C140.455 113.481 140.517 112.977 140.623 112.479L144.636 93.5441L148.83 94.1104L148.973 91.6758L155.133 94.9629L157.029 95.2233L156.828 95.8695L160.556 97.8555L160.518 98.0154Z" fill="#FFEB9A"/>
<path d="M151.716 60.8919C149.983 60.0273 150.293 58.6042 150.293 58.6042C150.621 56.1103 153.548 57.5205 153.548 57.5205C155.607 55.782 156.148 58.4985 156.148 58.4985C160.052 58.3894 158.753 61.9712 158.753 61.9712C161.462 66.3119 155.28 67.0725 155.28 67.0725L151.716 60.8919Z" fill="black"/>
<path d="M150.911 72.094L151.435 68.4202H151.406C150.705 68.3239 150.055 68.0893 149.455 67.7146C149.291 67.6279 149.153 67.5118 149.04 67.3649C148.926 67.2188 148.848 67.0555 148.805 66.875C148.259 64.8426 151.091 60.3214 151.212 60.1281L151.393 59.8428L151.589 60.1195C151.733 60.2896 151.892 60.4418 152.068 60.5775C152.243 60.7125 152.432 60.8276 152.632 60.9221C152.832 61.0175 153.041 61.0897 153.257 61.1396C153.472 61.1903 153.691 61.2169 153.913 61.2195C154.13 61.2255 154.336 61.2762 154.53 61.3733C154.724 61.4704 154.889 61.6036 155.024 61.7738C155.196 62.0376 155.32 62.3212 155.396 62.6263C155.472 62.9314 155.496 63.2407 155.469 63.5544C155.692 63.4504 155.928 63.3954 156.173 63.3903H156.236L156.287 63.4195C156.395 63.4685 156.495 63.5304 156.586 63.606C156.677 63.6816 156.756 63.7684 156.824 63.8655C156.892 63.9626 156.946 64.0675 156.985 64.1792C157.026 64.2909 157.05 64.4052 157.058 64.5238C157.058 65.3634 156.068 66.1575 155.674 66.4299L157.117 71.8628L150.911 72.094Z" fill="white"/>
<path d="M150.91 72.2485C150.865 72.2494 150.827 72.2322 150.797 72.1987C150.764 72.1626 150.75 72.1205 150.755 72.0724L151.259 68.567C150.586 68.4415 149.957 68.2034 149.371 67.8528C149.187 67.7557 149.031 67.6251 148.904 67.4601C148.777 67.2951 148.689 67.1112 148.642 66.9084C148.092 64.851 150.759 60.5224 151.065 60.0351L151.25 59.7498C151.278 59.7025 151.32 59.6767 151.375 59.6742C151.435 59.6707 151.479 59.6948 151.51 59.7455L151.703 60.0231C151.979 60.3462 152.31 60.5971 152.695 60.7767C153.08 60.9563 153.484 61.0483 153.909 61.0517C154.149 61.0586 154.375 61.1153 154.589 61.2236C154.804 61.3319 154.986 61.4797 155.133 61.6688C155.3 61.9102 155.424 62.1715 155.506 62.4525C155.589 62.7344 155.626 63.0214 155.616 63.3145C155.794 63.2577 155.977 63.2268 156.165 63.2225H156.228C156.255 63.2165 156.281 63.2165 156.307 63.2225L156.358 63.256C156.478 63.3127 156.589 63.3849 156.69 63.4717C156.79 63.5594 156.878 63.6582 156.952 63.7691C157.026 63.8799 157.083 63.9985 157.125 64.1257C157.167 64.252 157.191 64.3818 157.197 64.515C157.197 65.3804 156.312 66.1444 155.834 66.4847L157.247 71.8163C157.26 71.8644 157.253 71.9074 157.222 71.9469C157.192 71.9881 157.151 72.0105 157.101 72.0139L150.91 72.2485ZM151.388 60.1193L151.334 60.2035C151.212 60.3969 148.398 64.8682 148.943 66.8242C148.979 66.9857 149.047 67.1318 149.148 67.2633C149.248 67.3948 149.371 67.4988 149.517 67.5761C150.099 67.9362 150.728 68.1648 151.405 68.2602C151.457 68.2602 151.502 68.2782 151.54 68.3152C151.575 68.3495 151.593 68.3917 151.594 68.4406L151.094 71.9297L156.899 71.7028L155.511 66.4589C155.493 66.3884 155.513 66.3326 155.573 66.2913C155.885 66.0774 156.899 65.3134 156.891 64.5193C156.882 64.4145 156.859 64.3131 156.823 64.2142C156.787 64.1154 156.738 64.0234 156.676 63.9384C156.615 63.8533 156.544 63.7768 156.462 63.7115C156.38 63.6453 156.291 63.5912 156.195 63.5499H156.161C155.939 63.5577 155.726 63.6084 155.524 63.7012C155.473 63.7295 155.423 63.7295 155.372 63.7012C155.322 63.6702 155.298 63.6256 155.301 63.5663C155.328 63.2706 155.304 62.9793 155.233 62.6914C155.161 62.4035 155.044 62.1354 154.882 61.887C154.76 61.7349 154.612 61.6163 154.437 61.5295C154.263 61.4427 154.078 61.3972 153.884 61.392C153.651 61.3869 153.421 61.3568 153.194 61.3035C152.968 61.2494 152.749 61.172 152.539 61.0724C152.328 60.9718 152.131 60.8506 151.946 60.7088C151.761 60.5662 151.594 60.4063 151.442 60.2284L151.388 60.1193Z" fill="black"/>
<path d="M156.543 70.1748L162.326 73.6931C162.52 73.8125 162.703 73.9475 162.875 74.0979C163.046 74.2482 163.203 74.4124 163.346 74.5894C163.489 74.7664 163.616 74.9555 163.728 75.154C163.839 75.3534 163.933 75.5605 164.008 75.7754C164.084 75.9911 164.141 76.2111 164.179 76.4354C164.218 76.6605 164.237 76.8874 164.236 77.1151C164.236 77.3437 164.216 77.5697 164.177 77.7949C164.138 78.0192 164.08 78.2392 164.003 78.454L162.88 82.0814L161.294 83.673L160.456 101.705L142.967 98.3924L143.944 91.5578L144.053 88.1357L141.847 79.6546L144.125 73.5925C144.246 73.2677 144.407 72.9635 144.604 72.679C144.802 72.3946 145.032 72.1385 145.294 71.9116C145.556 71.6847 145.842 71.4939 146.151 71.3384C146.461 71.1829 146.785 71.0677 147.123 70.9938L150.898 70.1748C150.898 70.1748 153.07 73.3193 156.543 70.1748Z" fill="white"/>
<path d="M160.476 101.848H160.447L142.959 98.535C142.917 98.529 142.883 98.5084 142.858 98.474C142.834 98.4388 142.825 98.401 142.833 98.3588L143.81 91.5199L143.915 88.1606L141.717 79.701C141.708 79.6692 141.708 79.6365 141.717 79.6047L144.003 73.5375C144.128 73.2007 144.293 72.8835 144.499 72.5879C144.704 72.2923 144.942 72.0267 145.214 71.7913C145.486 71.5558 145.783 71.3573 146.105 71.1966C146.426 71.0359 146.763 70.9182 147.115 70.8425L150.889 70.0029C150.958 69.9875 151.012 70.0089 151.053 70.0657C151.318 70.4189 151.639 70.7085 152.017 70.9362C152.395 71.1631 152.802 71.3109 153.238 71.3796C154.265 71.4974 155.334 71.0479 156.454 70.0407C156.483 70.0201 156.514 70.0098 156.549 70.0098C156.584 70.0098 156.615 70.0201 156.643 70.0407L162.427 73.559C162.628 73.6828 162.818 73.8237 162.997 73.9801C163.175 74.1365 163.338 74.3067 163.487 74.4914C163.636 74.6753 163.769 74.8713 163.885 75.0775C164.001 75.2846 164.099 75.4995 164.179 75.7229C164.258 75.9464 164.318 76.1749 164.36 76.4087C164.401 76.6424 164.422 76.8771 164.423 77.1142C164.424 77.3514 164.405 77.5878 164.367 77.8215C164.328 78.0553 164.269 78.2847 164.192 78.509L163.047 82.1149C163.039 82.139 163.026 82.1596 163.01 82.1785L161.466 83.7228L160.627 101.697C160.626 101.745 160.606 101.784 160.569 101.814C160.541 101.835 160.511 101.846 160.476 101.848ZM143.164 98.2669L160.326 101.516L161.164 83.6644C161.165 83.6231 161.181 83.5879 161.21 83.5596L162.766 81.9972L163.882 78.4076C163.954 78.2005 164.009 77.9891 164.045 77.7725C164.082 77.556 164.1 77.3377 164.099 77.1185C164.099 76.8985 164.08 76.6811 164.043 76.4646C164.005 76.2489 163.95 76.0366 163.876 75.8303C163.803 75.6232 163.713 75.4239 163.605 75.2322C163.498 75.0414 163.375 74.8601 163.236 74.6899C163.099 74.5189 162.947 74.3617 162.782 74.2164C162.618 74.0721 162.442 73.9423 162.254 73.8271L156.559 70.3596C155.406 71.3753 154.27 71.8248 153.179 71.7028C152.718 71.6374 152.285 71.4888 151.88 71.2567C151.475 71.0247 151.128 70.7257 150.839 70.3596L147.177 71.1571C146.851 71.2284 146.537 71.3392 146.238 71.4896C145.939 71.64 145.664 71.8248 145.411 72.0457C145.159 72.2657 144.938 72.514 144.749 72.7899C144.559 73.0657 144.407 73.3614 144.292 73.6759L142.036 79.6924L144.225 88.1271C144.227 88.1426 144.227 88.1581 144.225 88.1735L144.116 91.5913L143.164 98.2669Z" fill="black"/>
<path d="M158.765 90.7093C158.649 90.9559 158.501 91.182 158.321 91.3865C158.14 91.591 157.934 91.7663 157.703 91.9116C157.473 92.0577 157.226 92.1677 156.964 92.2424C156.701 92.3163 156.434 92.3533 156.161 92.3507H155.977C155.833 92.3438 155.691 92.3266 155.55 92.2983C155.41 92.2699 155.272 92.2313 155.137 92.1823C155.003 92.1324 154.872 92.074 154.746 92.0044C154.62 91.9356 154.5 91.8583 154.387 91.7706C154.272 91.6838 154.165 91.5884 154.065 91.4853C153.966 91.3822 153.874 91.2722 153.791 91.1553C153.708 91.0384 153.634 90.9155 153.569 90.7875C153.505 90.6586 153.45 90.5263 153.405 90.3905L146.519 70.1453V70.0989C146.557 69.7165 146.893 66.3709 148.172 65.7874L148.297 65.7324L148.406 65.8209C148.868 66.1948 150.197 67.1813 150.868 67.2862C151.107 67.257 152.508 67.1057 153.276 67.6557L153.594 67.886L151.049 69.0281C150.775 69.1673 150.543 69.3581 150.354 69.6005C150.164 69.8428 150.035 70.1135 149.967 70.4134L156.454 84.4118L158.145 79.5959L158.807 79.9611C159.071 80.1166 161.294 81.1874 162.938 81.9256L158.765 90.7093Z" fill="white"/>
<path d="M156.165 92.5064H155.972C155.821 92.4987 155.671 92.4798 155.523 92.4497C155.374 92.4205 155.229 92.3792 155.087 92.3268C154.944 92.2753 154.807 92.2125 154.675 92.1403C154.541 92.0673 154.415 91.9848 154.295 91.8928C154.174 91.8009 154.061 91.7012 153.956 91.592C153.85 91.4829 153.754 91.3669 153.667 91.2431C153.579 91.1203 153.501 90.9905 153.432 90.8556C153.364 90.7198 153.306 90.5806 153.259 90.4362L146.352 70.1996C146.346 70.1773 146.346 70.1549 146.352 70.1326V70.0819C146.41 69.4485 146.771 66.2491 148.092 65.6449L148.218 65.5857C148.277 65.5607 148.333 65.5685 148.386 65.6071L148.495 65.6948C149.107 66.1984 150.286 67.0217 150.856 67.1265C151.183 67.0887 152.562 66.9632 153.351 67.5467L153.674 67.7728C153.723 67.808 153.745 67.8553 153.737 67.9163C153.733 67.9781 153.703 68.022 153.645 68.046L151.099 69.1924C150.855 69.3153 150.647 69.4838 150.476 69.6978C150.306 69.9117 150.187 70.1524 150.122 70.4179L156.412 84.0132L157.985 79.5625C158.002 79.517 158.033 79.4852 158.078 79.4663C158.121 79.4439 158.164 79.4439 158.207 79.4663L158.874 79.8272C159.126 79.9742 161.332 81.0406 162.992 81.7874C163.032 81.8063 163.059 81.8356 163.077 81.876C163.092 81.9181 163.092 81.9593 163.077 82.0014L158.883 90.7808C158.76 91.0378 158.604 91.2732 158.416 91.4863C158.227 91.7003 158.012 91.8825 157.773 92.0355C157.532 92.1885 157.275 92.3045 157.002 92.3844C156.728 92.4643 156.45 92.5047 156.165 92.5064ZM146.662 70.1283L153.557 90.3313C153.645 90.5892 153.769 90.8281 153.928 91.0489C154.088 91.2698 154.275 91.4631 154.492 91.6273C154.708 91.7923 154.944 91.922 155.2 92.0174C155.454 92.112 155.718 92.1678 155.989 92.1842C156.261 92.2005 156.529 92.1773 156.794 92.1137C157.058 92.0501 157.308 91.9495 157.542 91.812C157.778 91.6745 157.987 91.5053 158.172 91.3059C158.357 91.1056 158.508 90.8831 158.627 90.6381L162.729 82.0057C161.114 81.2753 159 80.2552 158.732 80.0953L158.232 79.8229L156.584 84.4661C156.559 84.5314 156.512 84.5667 156.442 84.571C156.374 84.5701 156.324 84.5392 156.291 84.479L149.803 70.4815C149.788 70.442 149.788 70.4024 149.803 70.3638C149.879 70.0415 150.019 69.751 150.225 69.4915C150.43 69.232 150.681 69.0292 150.978 68.8814L153.263 67.8527L153.166 67.7856C152.437 67.2606 151.027 67.4204 150.868 67.441H150.826C149.988 67.307 148.31 65.9552 148.31 65.9423L148.277 65.9131H148.239C147.27 66.3539 146.804 68.7473 146.683 70.112L146.662 70.1283Z" fill="black"/>
<path d="M158.354 92.0234C158.397 92.2314 158.367 92.4273 158.262 92.6112C158.087 92.8828 157.848 93.0727 157.545 93.1819C157.486 93.3262 157.405 93.4569 157.303 93.5746C157.2 93.6915 157.082 93.7895 156.948 93.8677C156.813 93.9459 156.669 94 156.516 94.0309C156.364 94.0619 156.21 94.067 156.056 94.0473H155.783C154.695 94.006 153.672 93.7259 152.713 93.2077L141.654 89.5759C141.476 89.5184 141.304 89.4445 141.141 89.3542C140.977 89.2631 140.823 89.1574 140.68 89.0371C140.536 88.9159 140.406 88.7827 140.289 88.6366C140.172 88.4905 140.069 88.3341 139.983 88.1674C139.897 88.0016 139.826 87.8288 139.774 87.6484C139.721 87.4687 139.686 87.2857 139.669 87.0984C139.652 86.9119 139.653 86.7254 139.672 86.5389C139.691 86.3524 139.729 86.1694 139.784 85.9906L142.015 79.1758L146.608 80.3179L145.043 85.3186L154.181 90.4241L156.06 90.8435L158.384 90.4955L158.439 90.6845C158.507 90.9045 158.535 91.1305 158.52 91.3617C158.506 91.5929 158.451 91.8129 158.354 92.0234Z" fill="white"/>
<path d="M155.779 94.2277C154.666 94.1925 153.617 93.9123 152.633 93.3881L141.6 89.7693C141.412 89.7083 141.231 89.6301 141.059 89.5347C140.887 89.4393 140.724 89.3276 140.574 89.2004C140.423 89.0732 140.286 88.9322 140.162 88.7784C140.038 88.6237 139.932 88.4596 139.84 88.2843C139.749 88.109 139.675 87.9268 139.619 87.7377C139.564 87.5478 139.526 87.3544 139.508 87.1585C139.49 86.9617 139.491 86.7649 139.512 86.5681C139.531 86.3722 139.571 86.1788 139.629 85.9906L141.864 79.1465C141.877 79.107 141.902 79.0778 141.938 79.0572C141.974 79.0374 142.012 79.0322 142.053 79.0417L146.645 80.1838C146.688 80.195 146.722 80.2208 146.746 80.2594C146.763 80.3015 146.763 80.3437 146.746 80.3849L145.219 85.2636L154.228 90.3021L156.056 90.7223L158.35 90.3734C158.389 90.3691 158.424 90.3769 158.457 90.3983C158.489 90.4198 158.511 90.449 158.522 90.4869L158.577 90.6802C158.648 90.9114 158.677 91.1477 158.665 91.3892C158.653 91.6315 158.599 91.8636 158.506 92.0862C158.54 92.3216 158.5 92.5425 158.384 92.7496C158.206 93.0332 157.961 93.236 157.65 93.3589C157.579 93.5101 157.487 93.6476 157.373 93.7697C157.259 93.8917 157.129 93.994 156.983 94.0748C156.837 94.1555 156.681 94.2123 156.517 94.244C156.353 94.2758 156.189 94.2819 156.023 94.2612C155.94 94.2544 155.86 94.2432 155.779 94.2277ZM142.12 79.3571L139.927 86.074C139.875 86.2441 139.841 86.4169 139.823 86.593C139.806 86.7701 139.805 86.9462 139.822 87.1233C139.838 87.2994 139.872 87.473 139.922 87.6423C139.972 87.8125 140.038 87.9766 140.121 88.133C140.203 88.2903 140.3 88.4381 140.411 88.5765C140.521 88.7148 140.644 88.8412 140.78 88.9555C140.915 89.0697 141.06 89.1694 141.215 89.2554C141.371 89.3422 141.532 89.4118 141.701 89.4668L152.76 93.0985C153.262 93.3752 153.791 93.584 154.346 93.7267C154.901 93.8685 155.466 93.939 156.039 93.9381C156.178 93.9596 156.316 93.957 156.454 93.9321C156.592 93.9072 156.722 93.8608 156.844 93.792C156.966 93.7241 157.075 93.6373 157.168 93.5333C157.261 93.4285 157.335 93.3116 157.389 93.1819C157.406 93.1363 157.437 93.1037 157.482 93.0856C157.753 92.9919 157.967 92.8261 158.123 92.5863C158.211 92.429 158.236 92.2623 158.199 92.0862C158.187 92.0526 158.187 92.0191 158.199 91.9856C158.287 91.7923 158.337 91.5894 158.351 91.3772C158.364 91.1658 158.338 90.9578 158.274 90.7558V90.7008L156.09 91.0283H156.031L154.152 90.6089H154.11L144.968 85.4741C144.935 85.4552 144.912 85.4294 144.898 85.3942C144.885 85.3598 144.884 85.3246 144.897 85.2894L146.406 80.4442L142.12 79.3571Z" fill="black"/>
<path d="M64.215 69.3517H68.3125V88.0981H64.215V69.3517ZM68.4422 63.9987L68.3915 61.3793H65.7747V62.0427H67.276L59.2495 70.2841L57.2652 68.3445L49.6408 76.1245L50.1152 76.5859L57.2867 69.2804L59.2701 71.22L67.7582 62.5042L67.7874 64.0116L68.4422 63.9987ZM98.2187 57.7012C98.1087 57.7012 97.9996 57.7123 97.8913 57.7338C97.783 57.7553 97.6782 57.7871 97.5768 57.8292C97.4745 57.8713 97.3782 57.9229 97.2863 57.9848C97.1952 58.0458 97.1101 58.1154 97.0319 58.1936C96.9546 58.2709 96.885 58.356 96.8239 58.448C96.7621 58.5391 96.7105 58.6362 96.6684 58.7384C96.6263 58.8398 96.5945 58.9447 96.573 59.053C96.5515 59.1613 96.5412 59.2704 96.5412 59.3804C96.5412 59.4913 96.5515 59.6004 96.573 59.7087C96.5945 59.8161 96.6263 59.9218 96.6684 60.0232C96.7105 60.1255 96.7621 60.2217 96.8239 60.3137C96.885 60.4056 96.9546 60.4898 97.0319 60.568C97.1101 60.6463 97.1952 60.7159 97.2863 60.7769C97.3782 60.8379 97.4745 60.8903 97.5768 60.9324C97.6782 60.9745 97.783 61.0063 97.8913 61.0278C97.9996 61.0493 98.1087 61.0605 98.2187 61.0605C98.3287 61.0605 98.4378 61.0493 98.5461 61.0278C98.6535 61.0063 98.7584 60.9745 98.8607 60.9324C98.9621 60.8903 99.0592 60.8379 99.1503 60.7769C99.2422 60.7159 99.3264 60.6463 99.4046 60.568C99.4828 60.4898 99.5525 60.4056 99.6135 60.3137C99.6745 60.2217 99.726 60.1255 99.7682 60.0232C99.8103 59.9218 99.8421 59.8161 99.8635 59.7087C99.885 59.6004 99.8962 59.4913 99.8962 59.3804C99.8953 59.2704 99.8833 59.1613 99.861 59.053C99.8386 58.9455 99.8068 58.8407 99.7639 58.7393C99.7209 58.637 99.6685 58.5408 99.6066 58.4497C99.5447 58.3586 99.4743 58.2744 99.396 58.197C99.317 58.1197 99.2319 58.0501 99.14 57.9899C99.048 57.9298 98.9509 57.8782 98.8486 57.837C98.7464 57.7957 98.6415 57.7648 98.5332 57.7433C98.425 57.7227 98.3158 57.7132 98.2058 57.7141L98.2187 57.7012ZM91.3489 57.7012C91.2389 57.7012 91.1297 57.7123 91.0214 57.7338C90.914 57.7553 90.8083 57.7871 90.7069 57.8292C90.6055 57.8713 90.5084 57.9229 90.4173 57.9848C90.3253 58.0458 90.2403 58.1154 90.1629 58.1936C90.0847 58.2709 90.0151 58.356 89.9541 58.448C89.8931 58.5391 89.8415 58.6362 89.7994 58.7384C89.7573 58.8398 89.7255 58.9447 89.704 59.053C89.6825 59.1613 89.6714 59.2704 89.6714 59.3804C89.6714 59.4913 89.6825 59.6004 89.704 59.7087C89.7255 59.8161 89.7573 59.9218 89.7994 60.0232C89.8415 60.1255 89.8931 60.2217 89.9541 60.3137C90.0151 60.4056 90.0847 60.4898 90.1629 60.568C90.2403 60.6463 90.3253 60.7159 90.4173 60.7769C90.5084 60.8379 90.6055 60.8903 90.7069 60.9324C90.8083 60.9745 90.914 61.0063 91.0214 61.0278C91.1297 61.0493 91.2389 61.0605 91.3489 61.0605C91.4589 61.0605 91.568 61.0493 91.6763 61.0278C91.7846 61.0063 91.8894 60.9745 91.9908 60.9324C92.0922 60.8903 92.1893 60.8379 92.2813 60.7769C92.3724 60.7159 92.4575 60.6463 92.5348 60.568C92.613 60.4898 92.6826 60.4056 92.7436 60.3137C92.8046 60.2217 92.8562 60.1255 92.8992 60.0232C92.9413 59.9218 92.9731 59.8161 92.9946 59.7087C93.016 59.6004 93.0264 59.4913 93.0264 59.3804C93.0255 59.2704 93.0143 59.1613 92.992 59.053C92.9696 58.9455 92.937 58.8407 92.894 58.7393C92.851 58.637 92.7986 58.5408 92.7368 58.4497C92.6749 58.3586 92.6044 58.2744 92.5262 58.197C92.448 58.1197 92.3629 58.0501 92.2701 57.9899C92.1782 57.9298 92.081 57.8782 91.9796 57.837C91.8774 57.7957 91.7717 57.7648 91.6642 57.7433C91.556 57.7227 91.4468 57.7132 91.336 57.7141L91.3489 57.7012ZM84.479 57.7012C84.369 57.7012 84.2599 57.7123 84.1525 57.7338C84.0442 57.7553 83.9393 57.7871 83.8371 57.8292C83.7357 57.8713 83.6385 57.9229 83.5475 57.9848C83.4555 58.0458 83.3713 58.1154 83.2931 58.1936C83.2149 58.2709 83.1461 58.356 83.0843 58.448C83.0232 58.5391 82.9717 58.6362 82.9296 58.7384C82.8875 58.8398 82.8557 58.9447 82.8342 59.053C82.8127 59.1613 82.8015 59.2704 82.8015 59.3804C82.8015 59.4913 82.8127 59.6004 82.8342 59.7087C82.8557 59.8161 82.8875 59.9218 82.9296 60.0232C82.9717 60.1255 83.0232 60.2217 83.0843 60.3137C83.1461 60.4056 83.2149 60.4898 83.2931 60.568C83.3713 60.6463 83.4555 60.7159 83.5475 60.7769C83.6385 60.8379 83.7357 60.8903 83.8371 60.9324C83.9393 60.9745 84.0442 61.0063 84.1525 61.0278C84.2599 61.0493 84.369 61.0605 84.479 61.0605C84.5899 61.0605 84.699 61.0493 84.8064 61.0278C84.9147 61.0063 85.0196 60.9745 85.121 60.9324C85.2232 60.8903 85.3195 60.8379 85.4114 60.7769C85.5025 60.7159 85.5876 60.6463 85.6658 60.568C85.7432 60.4898 85.8128 60.4056 85.8738 60.3137C85.9357 60.2217 85.9872 60.1255 86.0293 60.0232C86.0714 59.9218 86.1032 59.8161 86.1247 59.7087C86.1462 59.6004 86.1565 59.4913 86.1565 59.3804C86.1565 59.2695 86.1445 59.1595 86.1221 59.0513C86.0989 58.943 86.0663 58.8373 86.0225 58.735C85.9795 58.6327 85.9262 58.5365 85.8635 58.4445C85.8007 58.3526 85.7303 58.2684 85.6512 58.191C85.5713 58.1137 85.4853 58.0441 85.3925 57.9839C85.2989 57.9237 85.2009 57.873 85.0978 57.8318C84.9946 57.7914 84.8889 57.7605 84.7798 57.7407C84.6707 57.7209 84.5607 57.7123 84.4498 57.7141L84.479 57.7012Z" fill="white"/>
<path d="M22.4735 93.9847C22.2285 93.7209 22.0128 93.4364 21.8246 93.1305C21.6356 92.8245 21.4792 92.504 21.3545 92.1671C21.2299 91.8302 21.1388 91.4839 21.0821 91.129C21.0254 90.7749 21.0039 90.4174 21.0177 90.0591C21.3245 85.7424 27.3083 86.6998 28.4917 88.8706C29.3304 90.3942 29.5985 92.6999 28.9867 94.3284C28.4203 95.8487 26.2856 96.8473 24.8178 95.9363C25.1487 97.8596 25.367 99.8078 25.6566 101.739H20.808L22.4735 93.9847Z" fill="#C59A94"/>
<path fill-rule="evenodd" clip-rule="evenodd" d="M30.3496 87.1531C30.2199 87.3473 30.0634 87.5166 29.8795 87.661C30.0127 87.728 30.1245 87.82 30.2147 87.9377C30.2877 88.0597 30.3161 88.1912 30.2989 88.333C30.2757 88.5083 30.2267 88.6759 30.152 88.8366C30.0815 88.9836 29.9861 89.1116 29.8667 89.2225C29.9861 89.2543 30.0738 89.3239 30.1313 89.433C30.1537 89.4889 30.1717 89.5465 30.1855 89.6049C30.1855 89.6762 30.2276 89.7433 30.2448 89.8189C30.2706 89.9435 30.2551 90.0621 30.1984 90.1755C30.0944 90.3371 29.9552 90.4565 29.779 90.533C29.5238 90.5923 29.2754 90.5726 29.0322 90.4737C28.8981 90.2718 28.7984 90.0535 28.7349 89.8189C28.6163 89.5396 28.4676 89.2758 28.2897 89.03C28.1135 88.7627 27.8909 88.5419 27.6228 88.3665C27.5687 88.333 27.481 88.2359 27.4174 88.2737C27.3547 88.3115 27.3504 88.3665 27.3255 88.4044C27.2902 88.4499 27.2516 88.492 27.2077 88.5298C27.011 88.7026 26.7875 88.8254 26.5374 88.8994C26.2874 88.9741 26.0467 89.0721 25.8156 89.1933C25.6127 89.3273 25.4735 89.5087 25.3962 89.739C25.3128 89.9615 25.2707 90.197 25.208 90.4239C25.1212 90.7161 25.0052 90.9954 24.8591 91.2635C24.7946 91.3907 24.7095 91.5033 24.6038 91.5995C24.5411 91.6537 24.4027 91.7628 24.3142 91.7001C24.2266 91.6373 24.2807 91.6201 24.2678 91.578C24.2558 91.5359 23.8785 90.7762 23.5468 90.7049C23.0853 90.619 22.6299 90.643 22.1795 90.7762C22.0558 90.8579 21.9501 90.9576 21.8616 91.0762C21.7739 91.1947 21.7077 91.3245 21.6656 91.4663C21.6227 91.6081 21.6055 91.7525 21.6141 91.9003C21.6227 92.0481 21.6562 92.1899 21.7138 92.3257C21.7851 92.5921 21.9123 92.8284 22.0953 93.0347C22.177 93.1344 22.2775 93.2057 22.3978 93.2495C22.5242 93.2959 22.6539 93.3131 22.788 93.2994C22.7708 93.3655 22.7622 93.4326 22.7622 93.5013C22.7665 93.5778 22.7665 93.6551 22.7622 93.7316C22.7596 93.8777 22.7304 94.0178 22.6745 94.1519C22.6359 94.2189 22.6075 94.2902 22.5903 94.3658C22.5903 94.4251 22.5903 94.4836 22.5903 94.5377C22.5774 94.6503 22.5456 94.7569 22.4941 94.8574C22.4666 94.9073 22.4339 94.9528 22.3952 94.9949C22.3574 95.037 22.3145 95.074 22.2672 95.1058C22.2208 95.1376 22.1709 95.1633 22.1177 95.184C22.0644 95.2037 22.0094 95.2175 21.9535 95.2252C21.8968 95.2321 21.841 95.233 21.7842 95.2269C21.7275 95.2218 21.6725 95.2089 21.6192 95.19C21.5659 95.1711 21.5152 95.147 21.4671 95.1161C21.4199 95.0851 21.376 95.049 21.3365 95.0087C21.2282 95.2304 21.0795 95.4203 20.8888 95.5776C20.6988 95.7348 20.4849 95.8465 20.2459 95.911C20.1454 95.9497 20.0406 95.9737 19.9323 95.9823C19.8249 95.9918 19.7174 95.9858 19.6109 95.9643C19.5052 95.9419 19.4038 95.9067 19.3075 95.856C19.2121 95.8053 19.1245 95.7426 19.0471 95.6678C18.944 95.7649 18.8297 95.844 18.7025 95.9067C18.5831 95.972 18.4576 96.0201 18.3252 96.0519C18.1929 96.0837 18.0588 96.0975 17.9231 96.0932C17.7873 96.0889 17.6541 96.0674 17.5234 96.0279C17.3937 95.9883 17.2708 95.9325 17.1556 95.8603C16.9099 95.6979 16.7449 95.4753 16.6606 95.1934C16.5824 94.8926 16.5738 94.5901 16.6357 94.2859C16.6357 94.2481 16.6606 94.1897 16.6357 94.1605C16.6099 94.1312 16.5807 94.1226 16.5515 94.1098C16.4939 94.0814 16.4398 94.0479 16.3882 94.0092C16.2834 93.9301 16.2009 93.8322 16.1407 93.7153C16.0127 93.4317 15.9792 93.1378 16.0402 92.8336C16.0651 92.6797 16.1012 92.5285 16.1484 92.3798C16.1742 92.3085 16.1992 92.2329 16.2284 92.1615C16.2619 92.0937 16.292 92.024 16.3169 91.9519C16.3169 91.9012 16.3169 91.9269 16.3169 91.8934L16.2748 91.8556C16.2499 91.8333 16.2275 91.8101 16.2077 91.7843C16.1691 91.7362 16.1338 91.6855 16.1029 91.633C16.0462 91.5265 16.0075 91.4147 15.9852 91.297C15.9456 91.0375 15.9542 90.7805 16.0101 90.5244C16.0393 90.3689 16.0866 90.2185 16.1527 90.075C16.1777 90.0329 16.2 89.9899 16.2198 89.9452C16.2198 89.9074 16.2198 89.9031 16.2198 89.8653C16.1811 89.8043 16.1493 89.7398 16.1235 89.6719C16.0393 89.4588 15.9946 89.2371 15.9895 89.0068C15.9843 88.7773 16.0195 88.5539 16.0943 88.3373C16.1588 88.1302 16.261 87.9437 16.3994 87.777C16.5386 87.6103 16.7036 87.4762 16.8952 87.3757C16.9958 87.325 17.1006 87.2872 17.2098 87.2622C17.2691 87.2468 17.3292 87.2356 17.3902 87.2287C17.3902 87.2287 17.453 87.2287 17.4659 87.2287C17.4779 87.2287 17.4659 87.1617 17.4659 87.1488C17.5088 86.903 17.6111 86.6847 17.7718 86.494C17.9359 86.3101 18.1345 86.1786 18.3674 86.0995C18.4138 86.0995 18.4258 86.0995 18.4516 86.0445C18.4688 86.0136 18.4834 85.9809 18.4971 85.9483C18.5263 85.8829 18.5581 85.8202 18.5942 85.7592C18.669 85.6294 18.7584 85.51 18.8624 85.4026C19.0583 85.174 19.2955 85.0047 19.5756 84.8938C19.726 84.8465 19.8773 84.8465 20.0285 84.8938C20.142 84.9273 20.2494 84.9754 20.3508 85.0373C20.3508 85.0029 20.4101 84.978 20.4307 84.9531C20.4668 84.9084 20.5003 84.862 20.5313 84.8147C20.6086 84.7116 20.7023 84.6257 20.8123 84.5587C21.0443 84.4057 21.2978 84.306 21.5711 84.2604C21.8367 84.2158 22.0953 84.239 22.3471 84.3318C22.4073 84.367 22.47 84.3945 22.5362 84.416C22.5826 84.416 22.6788 84.3438 22.7209 84.3232C22.8456 84.2699 22.9762 84.2338 23.1102 84.214C23.3414 84.19 23.5554 84.239 23.7522 84.361C23.8029 84.3902 23.7986 84.361 23.8321 84.3318L23.8992 84.2562L24.0169 84.1384C24.0942 84.0671 24.175 83.9992 24.2601 83.9373C24.6726 83.6795 25.1212 83.5712 25.6059 83.6133C26.0467 83.597 26.4455 83.7182 26.8013 83.9786C26.8262 84.0001 26.8975 84.0843 26.931 84.0877C26.9645 84.092 27.0617 84.0164 27.0909 84.0044C27.194 83.9537 27.3006 83.9081 27.4097 83.8694C27.6177 83.7912 27.8334 83.762 28.0551 83.7818C28.4762 83.823 28.8363 83.9923 29.137 84.2897C29.296 84.4409 29.4146 84.6188 29.4937 84.8225C29.5177 84.8809 29.5358 84.9411 29.5478 85.0029C29.5435 85.0296 29.5435 85.0562 29.5478 85.0829C29.5478 85.1044 29.5736 85.0829 29.6071 85.0829C29.6974 85.0786 29.7867 85.0872 29.8752 85.1087C30.0549 85.1585 30.2104 85.2496 30.341 85.3819C30.4725 85.5143 30.5619 85.6707 30.6092 85.8512C30.6624 86.0772 30.6659 86.3032 30.6212 86.5309C30.5756 86.7578 30.4845 86.9649 30.3496 87.1531Z" fill="black"/>
<path fill-rule="evenodd" clip-rule="evenodd" d="M0.308472 130.188V148.741C0.309331 148.953 0.329956 149.163 0.371206 149.37C0.412456 149.578 0.474331 149.78 0.555112 149.975C0.636753 150.171 0.735581 150.356 0.853315 150.532C0.97105 150.709 1.10511 150.871 1.25464 151.021C1.40417 151.171 1.56746 151.304 1.74363 151.422C1.91894 151.54 2.10542 151.639 2.3005 151.72C2.49558 151.801 2.69753 151.862 2.90464 151.903C3.11261 151.944 3.3223 151.965 3.53371 151.965H26.7007C26.9121 151.966 27.1227 151.945 27.3298 151.905C27.5378 151.864 27.7397 151.803 27.9357 151.722C28.1316 151.641 28.3181 151.542 28.4943 151.425C28.6704 151.307 28.8337 151.174 28.9832 151.024C29.1336 150.874 29.2677 150.711 29.3854 150.535C29.5032 150.359 29.6028 150.172 29.6836 149.976C29.7653 149.781 29.8263 149.579 29.8675 149.371C29.9088 149.163 29.9303 148.953 29.9303 148.741V130.188C29.9303 129.976 29.9096 129.766 29.8684 129.558C29.828 129.351 29.767 129.149 29.6862 128.953C29.6054 128.757 29.5057 128.57 29.3889 128.394C29.2711 128.218 29.1379 128.055 28.9884 127.905C28.838 127.755 28.6756 127.622 28.4994 127.504C28.3241 127.385 28.1385 127.286 27.9425 127.205C27.7466 127.124 27.5455 127.063 27.3375 127.021C27.1304 126.98 26.9207 126.959 26.7093 126.959H3.53371C3.3223 126.959 3.11261 126.98 2.90464 127.021C2.69667 127.062 2.49558 127.124 2.29964 127.205C2.10371 127.286 1.91808 127.385 1.74191 127.503C1.56574 127.621 1.40332 127.755 1.25292 127.905C1.10339 128.055 0.97019 128.218 0.852456 128.394C0.734722 128.57 0.635034 128.756 0.554253 128.952C0.473472 129.148 0.411597 129.35 0.370347 129.558C0.329097 129.766 0.308472 129.975 0.308472 130.188Z" fill="white"/>
<path d="M26.7007 152.125H3.53367C3.31195 152.124 3.09195 152.103 2.87453 152.059C2.65711 152.016 2.4457 151.952 2.24117 151.867C2.03578 151.781 1.84156 151.677 1.65679 151.554C1.47203 151.43 1.30187 151.29 1.14461 151.133C0.988201 150.975 0.848123 150.804 0.724373 150.62C0.601482 150.436 0.496638 150.241 0.41156 150.035C0.326482 149.83 0.262888 149.618 0.21906 149.401C0.175232 149.183 0.153748 148.964 0.153748 148.741V130.188C0.153748 129.966 0.175232 129.746 0.21906 129.528C0.262888 129.311 0.326482 129.099 0.41156 128.894C0.496638 128.688 0.601482 128.493 0.724373 128.309C0.848123 128.125 0.988201 127.954 1.14461 127.796C1.30187 127.639 1.47203 127.499 1.65679 127.376C1.84156 127.252 2.03578 127.147 2.24117 127.062C2.4457 126.977 2.65711 126.914 2.87453 126.87C3.09195 126.826 3.31195 126.805 3.53367 126.804H26.7007C26.9224 126.805 27.1424 126.826 27.3598 126.87C27.5773 126.914 27.7887 126.977 27.9932 127.062C28.1986 127.147 28.3928 127.252 28.5776 127.376C28.7623 127.499 28.9325 127.639 29.0898 127.796C29.2462 127.954 29.3862 128.125 29.51 128.309C29.6329 128.493 29.7377 128.688 29.8228 128.894C29.907 129.099 29.9715 129.311 30.0153 129.528C30.0583 129.746 30.0806 129.966 30.0806 130.188V148.741C30.0806 148.964 30.0583 149.183 30.0153 149.401C29.9715 149.618 29.907 149.83 29.8228 150.035C29.7377 150.241 29.6329 150.436 29.51 150.62C29.3862 150.804 29.2462 150.975 29.0898 151.133C28.9325 151.29 28.7623 151.43 28.5776 151.554C28.3928 151.677 28.1986 151.781 27.9932 151.867C27.7887 151.952 27.5773 152.016 27.3598 152.059C27.1424 152.103 26.9224 152.124 26.7007 152.125ZM3.53367 127.119C3.33258 127.119 3.1332 127.139 2.93554 127.178C2.73875 127.218 2.54711 127.276 2.36148 127.354C2.175 127.431 1.99883 127.526 1.83125 127.637C1.66453 127.749 1.50898 127.876 1.36718 128.019C1.22453 128.162 1.0982 128.316 0.985623 128.484C0.873904 128.651 0.779373 128.828 0.702029 129.014C0.625544 129.201 0.567107 129.392 0.527576 129.59C0.488044 129.787 0.468279 129.987 0.468279 130.188V148.741C0.468279 148.942 0.488044 149.142 0.527576 149.339C0.567107 149.537 0.625544 149.728 0.702029 149.915C0.779373 150.1 0.873904 150.278 0.985623 150.445C1.0982 150.613 1.22453 150.767 1.36718 150.91C1.50898 151.053 1.66453 151.18 1.83125 151.292C1.99883 151.403 2.175 151.498 2.36148 151.575C2.54711 151.653 2.73875 151.711 2.93554 151.75C3.1332 151.79 3.33258 151.81 3.53367 151.81H26.7007C26.9018 151.81 27.1012 151.79 27.298 151.75C27.4956 151.711 27.6873 151.653 27.8729 151.575C28.0594 151.498 28.2355 151.403 28.4031 151.292C28.5698 151.18 28.7245 151.053 28.8672 150.91C29.0098 150.767 29.1362 150.613 29.2487 150.445C29.3605 150.278 29.455 150.1 29.5315 149.915C29.6088 149.728 29.6673 149.537 29.7068 149.339C29.7463 149.142 29.7661 148.942 29.7661 148.741V130.188C29.7661 129.987 29.7463 129.787 29.7068 129.59C29.6673 129.392 29.6088 129.201 29.5315 129.014C29.455 128.828 29.3605 128.651 29.2487 128.484C29.1362 128.316 29.0098 128.162 28.8672 128.019C28.7245 127.876 28.5698 127.749 28.4031 127.637C28.2355 127.526 28.0594 127.431 27.8729 127.354C27.6873 127.276 27.4956 127.218 27.298 127.178C27.1012 127.139 26.9018 127.119 26.7007 127.119H3.53367Z" fill="black"/>
<path fill-rule="evenodd" clip-rule="evenodd" d="M50.5552 150.576C48.4119 137.418 46.6253 128.706 45.6026 126.053C44.9271 124.302 39.8147 124.507 40.4017 128.03C40.6492 129.508 41.622 133.467 42.9179 137.968C43.669 140.591 45.5356 145.575 48.1189 151.293L50.5552 150.576ZM18.9087 135.755C19.8145 135.634 30.3994 134.521 37.8648 133.446C40.8632 133.026 39.2484 127.391 36.1366 127.988C35.0882 128.19 33.977 128.408 32.828 128.651C28.8268 129.491 20.5355 132.43 18.149 133.349C16.6769 133.933 17.6377 135.931 18.9087 135.755Z" fill="#C59A94"/>
<path fill-rule="evenodd" clip-rule="evenodd" d="M38.0487 126.439L25.2372 119.902V118.482H26.7634C39.1522 121.646 45.4832 123.67 45.7573 124.558C45.759 124.568 45.759 124.577 45.7573 124.587V124.612C48.2108 127.992 49.6829 144.501 50.165 145.739L45.46 146.44C43.6604 139.756 37.9104 135.104 38.053 127.098C38.0238 126.879 38.0221 126.659 38.0487 126.439Z" fill="white"/>
<path d="M45.4892 146.604C45.454 146.604 45.4222 146.594 45.3947 146.573C45.3664 146.552 45.3474 146.525 45.338 146.49C44.629 143.867 43.2789 141.502 41.983 139.219C39.9489 135.667 37.8477 131.993 37.9362 127.119C37.9027 126.924 37.8898 126.728 37.8984 126.531L25.1659 120.053C25.1109 120.021 25.0825 119.973 25.0817 119.91V118.491C25.0817 118.448 25.0971 118.411 25.1272 118.38C25.1573 118.348 25.1934 118.333 25.2372 118.331H26.7635C43.5393 122.606 45.7239 123.911 45.9086 124.52C47.6953 126.981 48.9491 136.149 49.683 141.624C49.9683 143.724 50.1943 145.357 50.3249 145.688C50.3439 145.733 50.3439 145.779 50.3249 145.823C50.2992 145.866 50.2614 145.893 50.2115 145.902L45.5056 146.604H45.4892ZM25.3962 119.813L38.1201 126.3C38.182 126.332 38.2103 126.383 38.2043 126.451C38.1889 126.663 38.2 126.872 38.2378 127.081V127.11C38.1502 131.905 40.2299 135.545 42.2434 139.063C43.5393 141.326 44.8765 143.682 45.5984 146.272L49.9889 145.617C49.8463 145.055 49.6581 143.657 49.3848 141.667C48.6389 136.209 47.3893 127.102 45.6525 124.713C45.6371 124.689 45.6233 124.664 45.6104 124.637C45.46 124.146 42.8174 122.748 26.7171 118.642H25.3962V119.813Z" fill="black"/>
<path fill-rule="evenodd" clip-rule="evenodd" d="M26.302 130.314C25.1324 130.078 24.0505 129.873 23.1275 129.709C17.1634 128.659 15.4232 125.464 16.451 118.49H27.4433C29.2376 119.007 38.5696 122.924 43.4087 125.006C46.6133 126.384 45.6027 131.354 43.7903 132.652C43.7869 132.723 43.7533 132.775 43.6898 132.807C33.9264 136.859 26.2058 134.734 23.6268 135.41L22.4357 131.632L26.302 130.314Z" fill="white"/>
<path d="M23.6388 135.57C23.6044 135.57 23.5734 135.561 23.5459 135.54C23.5184 135.52 23.4987 135.494 23.4884 135.461L22.2973 131.682C22.2844 131.642 22.287 131.602 22.3059 131.564C22.3248 131.527 22.354 131.5 22.3935 131.485L25.715 130.348C24.6494 130.137 23.8106 129.978 23.1145 129.856C17.1599 128.811 15.2555 125.616 16.3083 118.457C16.3143 118.419 16.3323 118.387 16.3616 118.362C16.3908 118.336 16.4243 118.323 16.463 118.323H27.4845C29.3716 118.865 39.068 122.942 43.4714 124.843C43.7765 124.979 44.0566 125.154 44.3136 125.368C44.5697 125.582 44.7923 125.826 44.9813 126.101C45.1704 126.376 45.3191 126.672 45.4265 126.988C45.5339 127.305 45.5966 127.629 45.6147 127.963C45.808 129.764 45.0527 131.88 43.9372 132.724C43.9123 132.824 43.8521 132.896 43.7567 132.938C36.8456 135.806 31.0285 135.592 27.1785 135.457C25.6351 135.402 24.4148 135.356 23.6766 135.549L23.6388 135.57ZM22.641 131.742L23.7436 135.226C24.8917 135.081 26.0424 135.057 27.1957 135.155C31.0165 135.293 36.7949 135.503 43.6398 132.661C43.6493 132.608 43.6734 132.561 43.7112 132.522C44.7802 131.762 45.4978 129.738 45.3173 128.013C45.301 127.707 45.2434 127.409 45.1455 127.118C45.0466 126.828 44.9109 126.556 44.7373 126.303C44.5637 126.051 44.3591 125.826 44.1237 125.631C43.8882 125.435 43.6304 125.275 43.3502 125.15C37.9362 122.84 29.1585 119.159 27.4131 118.642H16.5893C15.595 125.574 17.3816 128.533 23.1566 129.558C23.9954 129.701 24.9897 129.894 26.3312 130.167C26.3664 130.173 26.3965 130.189 26.4205 130.216C26.4446 130.243 26.4584 130.274 26.4618 130.31C26.4627 130.345 26.4532 130.378 26.4334 130.407C26.4128 130.437 26.3862 130.458 26.3527 130.469L22.641 131.742Z" fill="black"/>
<path fill-rule="evenodd" clip-rule="evenodd" d="M19.0256 132.744C19.0789 132.744 19.1313 132.754 19.1803 132.774C19.2301 132.793 19.2748 132.821 19.3135 132.858C19.353 132.895 19.3839 132.937 19.4063 132.986C19.4286 133.035 19.4415 133.085 19.445 133.139C19.4338 133.573 19.506 133.994 19.6632 134.398C19.9193 134.838 20.2519 135.209 20.661 135.511L21.5504 135.452C21.6063 135.451 21.6536 135.47 21.694 135.509C21.7343 135.547 21.755 135.594 21.7558 135.65L21.9569 141.431C22.0832 141.851 22.2551 142.346 22.4605 142.951C22.6659 143.555 22.2715 143.942 21.2651 144.105L16.2618 133.895C16.689 133.572 17.1393 133.285 17.6128 133.034C18.0511 132.865 18.5057 132.768 18.9757 132.744H19.0256ZM46.9484 150.231C46.7645 150.664 46.6528 151.114 46.6132 151.583C46.6304 152.118 46.6906 152.649 46.7937 153.174H58.1547C58.4511 152.2 58.2801 151.673 57.6425 151.591C57.01 151.515 56.4814 151.444 56.0578 151.381L50.7778 149.026C50.7271 149.004 50.6764 149.003 50.6248 149.022C50.5732 149.042 50.5363 149.077 50.5131 149.127L50.1736 149.967C49.725 150.207 49.2464 150.347 48.7393 150.386C48.295 150.351 47.8757 150.229 47.4812 150.021C47.4322 150.001 47.3815 149.991 47.3282 149.99C47.2758 149.99 47.2251 149.999 47.1753 150.018C47.1263 150.036 47.0816 150.063 47.0429 150.098C47.0034 150.134 46.9725 150.176 46.9484 150.223V150.231Z" fill="black"/>
<path fill-rule="evenodd" clip-rule="evenodd" d="M35.0384 118.57L40.9681 122.071C42.4582 124.418 43.3331 125.432 43.5935 125.115C43.9793 124.637 43.3589 124.075 43.5935 123.709C43.8281 123.344 44.9943 123.554 46.1097 123.801C47.2252 124.05 46.9734 123.495 46.7345 123.209C45.4815 122.239 44.122 121.455 42.6542 120.859L36.929 115.283L35.0384 118.57ZM9.00277 128.958C8.71316 129.545 6.57847 131.325 5.09347 132.341C4.50222 132.761 4.74543 133.273 4.9723 133.412C6.80105 134.541 8.00418 133.206 9.58543 132.467C11.3179 131.661 11.171 133.941 12.546 133.307C12.1266 132.362 11.1375 130.599 11.6024 129.444C11.8069 128.932 13.2051 124.475 15.797 116.072H11.6024C10.2609 123.865 9.39379 128.159 9.00277 128.958Z" fill="#C59A94"/>
<path fill-rule="evenodd" clip-rule="evenodd" d="M23.5674 98.3882L25.3085 98.0908C28.3086 105.591 33.5439 112.407 41.0144 118.537L35.3821 125.402C27.8961 116.677 23.2907 107.671 23.5674 98.3882Z" fill="white"/>
<path d="M35.3821 125.561C35.3331 125.561 35.2927 125.543 35.2601 125.507C27.0402 115.901 23.1652 107.034 23.4213 98.3853C23.423 98.3483 23.4368 98.3166 23.4609 98.2891C23.4849 98.2616 23.515 98.2444 23.5511 98.2383L25.2956 97.9358C25.3317 97.9298 25.3661 97.9358 25.3979 97.9539C25.4305 97.9719 25.4537 97.9986 25.4675 98.0321C28.428 105.472 33.7046 112.345 41.115 118.416C41.1502 118.442 41.17 118.477 41.1734 118.52C41.1794 118.564 41.1666 118.602 41.1356 118.634L35.4912 125.503C35.4612 125.536 35.4251 125.555 35.3821 125.561ZM23.7316 98.5237C23.5219 107.004 27.3341 115.737 35.3778 125.158L40.7919 118.558C33.4356 112.496 28.2106 105.674 25.208 98.2676L23.7316 98.5237Z" fill="black"/>
<path fill-rule="evenodd" clip-rule="evenodd" d="M21.4121 97.3135L26.0923 98.0147C26.0923 104.127 27.8892 111.558 31.4814 120.304H15.9645C16.6984 110.526 17.7383 103.233 21.4121 97.3135Z" fill="#FFEB9A"/>
<path fill-rule="evenodd" clip-rule="evenodd" d="M24.4234 100.618C24.5411 104.561 25.2398 112.509 26.5203 124.46H16.3504C16.3754 125.3 16.4218 126.119 16.4802 126.958H8.93146C10.0495 114.187 14.1788 104.305 21.3202 97.3135L24.0169 97.4561L24.4234 100.618Z" fill="white"/>
<path d="M16.4802 127.119H8.93142C8.8833 127.119 8.84462 127.1 8.81369 127.064C8.78275 127.031 8.77072 126.992 8.77587 126.946C9.90423 114.196 14.0851 104.187 21.211 97.2051C21.2411 97.1707 21.2789 97.1552 21.3245 97.1587L24.0203 97.3013C24.059 97.303 24.0917 97.3177 24.12 97.3434C24.1475 97.3701 24.1638 97.4019 24.1673 97.4397L24.5867 100.597C24.7087 104.536 25.4254 112.554 26.6835 124.445C26.687 124.491 26.6724 124.531 26.6423 124.566C26.6113 124.6 26.5735 124.617 26.5288 124.617H16.5094C16.5343 125.381 16.5764 126.162 16.6357 126.946C16.6392 126.994 16.6254 127.034 16.5936 127.068C16.5627 127.1 16.5249 127.117 16.4802 127.119ZM9.0947 126.804H16.3126C16.2576 126.015 16.2163 125.229 16.1949 124.465C16.1914 124.421 16.2052 124.384 16.237 124.352C16.267 124.318 16.3049 124.301 16.3504 124.302H26.3441C25.086 112.5 24.3856 104.536 24.2472 100.623L23.857 97.6081L21.3408 97.4775C14.3661 104.367 10.2188 114.238 9.0947 126.804Z" fill="black"/>
<path d="M149.254 125.397C149.212 125.397 149.177 125.382 149.147 125.354C149.117 125.326 149.101 125.291 149.098 125.25C148.881 120.712 148.528 113.843 148.444 113.494C148.323 113.012 150.084 106.608 150.436 105.332C150.448 105.29 150.472 105.259 150.51 105.238C150.548 105.216 150.587 105.211 150.629 105.223C150.671 105.234 150.702 105.259 150.724 105.297C150.745 105.335 150.75 105.374 150.739 105.417C149.941 108.305 148.692 113.032 148.75 113.422C148.868 113.889 149.354 124.062 149.413 125.221C149.415 125.264 149.401 125.302 149.372 125.334C149.342 125.366 149.306 125.383 149.262 125.384L149.254 125.397Z" fill="black"/>
<path d="M55.3282 88.4471H50.8027C50.7589 88.4471 50.722 88.4307 50.6919 88.3998C50.6609 88.368 50.6463 88.3311 50.6472 88.2872V80.3105C50.6463 80.2667 50.6609 80.2289 50.6919 80.1979C50.722 80.1661 50.7589 80.1507 50.8027 80.1507H55.3282C55.372 80.1507 55.4098 80.1661 55.4408 80.1971C55.4717 80.228 55.4872 80.2658 55.4872 80.3105V88.2872C55.4872 88.3311 55.4717 88.3689 55.4408 88.3998C55.4098 88.4307 55.372 88.4471 55.3282 88.4471ZM50.9617 88.1317H55.1563V80.4738H50.9617V88.1317ZM61.4762 88.4677H56.9507C56.9077 88.4677 56.8708 88.4522 56.8398 88.4222C56.8089 88.3921 56.7926 88.356 56.7917 88.3122V74.8268C56.7917 74.783 56.8072 74.7452 56.8381 74.7143C56.8691 74.6833 56.9069 74.667 56.9507 74.667H61.4762C61.5191 74.6687 61.5561 74.6842 61.5862 74.7151C61.6163 74.7469 61.6309 74.7839 61.6309 74.8268V88.3122C61.63 88.3551 61.6145 88.3912 61.5845 88.4213C61.5544 88.4514 61.5183 88.4668 61.4762 88.4677ZM57.1063 88.1532H61.3V74.9781H57.1063V88.1532Z" fill="black"/>
<path d="M30.9702 44.4546C30.7476 43.7834 30.4399 43.1535 30.0472 42.5657L30.8859 40.5754L28.8982 38.8291L27.1288 39.9627C26.4963 39.6387 25.8328 39.4049 25.1367 39.2623C24.4415 39.1205 23.7394 39.0732 23.0313 39.123L21.7731 37.4017L19.2569 38.2413L19.3316 40.3657C18.7344 40.7498 18.1998 41.207 17.7272 41.7373C17.2537 42.2675 16.8609 42.8519 16.5473 43.4895L14.4083 43.6408L13.8463 46.2309L15.7627 47.3559C15.803 48.0434 15.9311 48.7137 16.1485 49.3668C16.3745 50.0509 16.6873 50.6919 17.0887 51.2901L16.1992 53.1455L18.1706 54.9132L19.9951 53.8553C20.6155 54.1733 21.2678 54.4036 21.951 54.5462C22.6342 54.6889 23.3243 54.7379 24.0204 54.6949L25.3163 56.4669L27.8326 55.6273L27.7492 53.4987C28.3525 53.1145 28.8922 52.6565 29.3691 52.1237C29.847 51.5909 30.2431 51.0039 30.5594 50.3619L32.6563 50.123L33.1848 47.5286L31.3603 46.5627C31.3277 45.8416 31.1979 45.1395 30.9702 44.4546ZM24.897 51.0211C24.762 51.0666 24.6254 51.1044 24.4862 51.1354C24.3478 51.1672 24.2077 51.1912 24.0659 51.2093C23.925 51.2265 23.7832 51.2368 23.6405 51.2411C23.4988 51.2445 23.3561 51.2411 23.2143 51.2308C23.0725 51.2205 22.9316 51.2033 22.7915 51.1784C22.6505 51.1543 22.5122 51.1234 22.3747 51.0855C22.238 51.0477 22.1031 51.003 21.9699 50.9515C21.8367 50.9008 21.707 50.8432 21.5798 50.7787C21.4526 50.7152 21.3288 50.6447 21.2085 50.5691C21.0882 50.4926 20.9722 50.4109 20.8596 50.3233C20.7479 50.2356 20.6396 50.1428 20.5365 50.0448C20.4334 49.946 20.3354 49.8429 20.2426 49.7355C20.1498 49.6272 20.0621 49.5155 19.9796 49.3986C19.898 49.2826 19.8215 49.1623 19.7519 49.0385C19.6814 48.9148 19.617 48.7876 19.5594 48.6569C19.5018 48.5272 19.4502 48.394 19.4055 48.2591C19.3609 48.1233 19.323 47.9866 19.2921 47.8474C19.2603 47.7082 19.2363 47.5681 19.2191 47.4263C19.201 47.2854 19.1907 47.1436 19.1873 47.0009C19.1838 46.8583 19.1873 46.7165 19.1976 46.5738C19.2079 46.432 19.2251 46.2911 19.25 46.1502C19.2741 46.0101 19.305 45.8709 19.3428 45.7334C19.3806 45.5967 19.4253 45.4609 19.4769 45.3286C19.5276 45.1954 19.5852 45.0648 19.6496 44.9376C19.7132 44.8104 19.7837 44.6866 19.8593 44.5663C19.9358 44.446 20.0174 44.3291 20.1051 44.2174C20.1927 44.1048 20.2855 43.9974 20.3835 43.8934C20.4815 43.7903 20.5846 43.6923 20.692 43.5995C20.8003 43.5059 20.912 43.4191 21.0289 43.3366C21.1449 43.2549 21.2652 43.1784 21.389 43.108C21.5127 43.0375 21.6399 42.9739 21.7697 42.9163C21.9003 42.8587 22.0327 42.8072 22.1676 42.7625C22.3025 42.7178 22.44 42.68 22.5792 42.6482C22.7176 42.6173 22.8577 42.5932 22.9995 42.576C23.1404 42.558 23.2822 42.5477 23.424 42.5442C23.5666 42.5408 23.7084 42.5442 23.8511 42.5545C23.9929 42.5648 24.1338 42.5829 24.2739 42.6069C24.414 42.631 24.5532 42.6628 24.6898 42.7006C24.8273 42.7384 24.9623 42.7831 25.0955 42.8347C25.2278 42.8862 25.3576 42.9438 25.4848 43.0074C25.612 43.0719 25.7357 43.1423 25.856 43.218C25.9763 43.2944 26.0923 43.3761 26.2049 43.4637C26.3166 43.5523 26.4249 43.6451 26.5272 43.743C26.6303 43.841 26.7283 43.9441 26.822 44.0524C26.9148 44.1607 27.0016 44.2724 27.0841 44.3893C27.1657 44.5053 27.2422 44.6256 27.3118 44.7502C27.3823 44.874 27.4459 45.0012 27.5034 45.1318C27.561 45.2616 27.6126 45.3948 27.6573 45.5297C27.7011 45.6646 27.7389 45.8021 27.7707 45.9413C27.8016 46.0797 27.8257 46.2198 27.8429 46.3616C27.8601 46.5025 27.8713 46.6443 27.8747 46.7861C27.8781 46.9287 27.8747 47.0705 27.8635 47.2132C27.8532 47.355 27.836 47.4959 27.812 47.636C27.787 47.7761 27.7561 47.9153 27.7183 48.0519C27.6805 48.1894 27.6358 48.3244 27.5851 48.4576C27.5335 48.5899 27.4759 48.7197 27.4123 48.8469C27.3479 48.9741 27.2783 49.0978 27.2027 49.2181C27.1262 49.3384 27.0445 49.4553 26.9569 49.567C26.8692 49.6796 26.7773 49.787 26.6793 49.8902C26.5813 49.9933 26.4782 50.0912 26.3708 50.1849C26.2625 50.2777 26.1508 50.3654 26.0348 50.447C25.9188 50.5295 25.7984 50.6052 25.6747 50.6756C25.5518 50.7461 25.4246 50.8097 25.2948 50.8673C25.1651 50.9257 25.0319 50.9764 24.897 51.0211ZM82.5421 25.0542H33.5955C33.5457 25.0559 33.5053 25.0379 33.4735 24.9992C33.4426 24.9614 33.4314 24.9176 33.44 24.8694C33.7803 22.9883 35.3822 21.6571 38.0033 21.0272C39.2451 20.7419 40.5032 20.6087 41.7777 20.6284C41.9255 20.1171 42.1094 19.6187 42.3311 19.1348C42.5528 18.6502 42.8098 18.1852 43.1002 17.7392C43.3916 17.2932 43.7138 16.8712 44.0679 16.4734C44.422 16.0763 44.8035 15.7068 45.2117 15.3656C45.6208 15.0244 46.053 14.7159 46.5077 14.4401C46.9623 14.1634 47.4349 13.9227 47.9265 13.7165C48.4172 13.5111 48.9199 13.3427 49.4364 13.212C49.952 13.0814 50.4745 12.9894 51.0039 12.937C58.3851 12.0132 61.4891 18.089 61.9798 19.1589C68.7861 15.7162 72.4642 20.973 73.0305 21.8548C79.6821 19.1048 82.6762 24.768 82.6762 24.8273C82.7063 24.8789 82.7054 24.9305 82.6745 24.982C82.6435 25.0327 82.598 25.0568 82.5378 25.0542H82.5421ZM33.788 24.7388H82.2731C81.6484 23.7059 78.8055 19.7347 73.022 22.1951C72.985 22.2114 72.948 22.214 72.9102 22.2002C72.8716 22.1873 72.8432 22.1633 72.8252 22.1272C72.1325 21.0074 71.231 20.0948 70.1198 19.3901C67.7334 17.8999 64.9945 17.942 61.9713 19.5164C61.9274 19.531 61.8845 19.531 61.8406 19.5164C61.7985 19.4984 61.7693 19.4674 61.753 19.4236C61.7238 19.3523 58.838 12.2865 51.0374 13.2395C47.1247 13.7268 44.8895 15.7584 43.7027 17.3748C42.9232 18.413 42.3638 19.5594 42.0252 20.8132C42.0183 20.8519 42.0002 20.8819 41.9693 20.906C41.9384 20.9292 41.904 20.9387 41.8653 20.9352C41.8069 20.9395 34.7359 20.6834 33.788 24.7388ZM130.503 57.8351H130.452L126.389 56.5048C126.319 56.479 126.283 56.4283 126.284 56.3535V52.898C125.36 52.2809 124.529 51.5556 123.794 50.722C123.059 49.8876 122.444 48.9732 121.947 47.9772L118.659 47.5956C118.626 47.5913 118.596 47.5776 118.571 47.5544C118.547 47.5312 118.532 47.5028 118.525 47.4693L117.686 43.2712C117.679 43.236 117.685 43.2025 117.7 43.1707C117.715 43.1389 117.739 43.1148 117.77 43.0985L120.635 41.592C120.696 40.4705 120.899 39.3757 121.248 38.3084C121.595 37.2401 122.074 36.2355 122.685 35.2937L121.318 32.065C121.291 31.9954 121.305 31.9352 121.36 31.8845L124.581 29.0761C124.609 29.0546 124.639 29.0443 124.674 29.0443C124.708 29.0443 124.738 29.0546 124.766 29.0761L127.592 30.8937C128.599 30.3823 129.654 30.0111 130.758 29.7808C131.863 29.5505 132.979 29.4697 134.105 29.5376L135.997 26.7876C136.018 26.7592 136.044 26.7394 136.078 26.7283C136.11 26.718 136.144 26.718 136.177 26.7291L140.229 28.0723C140.261 28.0818 140.288 28.1007 140.308 28.1273C140.328 28.1548 140.338 28.1858 140.338 28.2193V31.5786C141.284 32.1982 142.133 32.9304 142.884 33.7769C143.635 34.6225 144.262 35.5523 144.766 36.5664L148.058 36.801C148.093 36.8036 148.124 36.8165 148.149 36.8388C148.176 36.8612 148.193 36.8895 148.201 36.923L149.102 41.1005C149.118 41.1752 149.093 41.2328 149.027 41.2723L146.091 42.9894C146.023 44.128 145.808 45.2384 145.446 46.3203C145.084 47.4014 144.587 48.4172 143.956 49.3668L145.354 52.3059C145.368 52.3377 145.373 52.3703 145.366 52.4047C145.359 52.4391 145.342 52.4683 145.316 52.4906L142.133 55.3377C142.105 55.3566 142.074 55.3669 142.04 55.3669C142.007 55.3669 141.976 55.3566 141.948 55.3377L139.084 53.6576C138.069 54.1716 137.004 54.5419 135.89 54.7688C134.775 54.9966 133.651 55.0722 132.516 54.9974L130.633 57.7637C130.602 57.811 130.559 57.8342 130.503 57.8351ZM126.602 56.2315L130.44 57.4913L132.31 54.7542C132.342 54.7018 132.388 54.6794 132.449 54.6863C133.584 54.7688 134.71 54.6966 135.825 54.4689C136.94 54.242 138.004 53.8682 139.017 53.3474C139.067 53.3225 139.117 53.3225 139.167 53.3474L142.007 54.9974L145.018 52.3059L143.634 49.4046C143.605 49.353 143.605 49.3015 143.634 49.2499C144.274 48.2986 144.775 47.2785 145.136 46.1888C145.49 45.118 145.698 44.0198 145.756 42.8931C145.76 42.8364 145.787 42.7926 145.836 42.7634L148.747 41.0833L147.908 37.1284L144.645 36.8981C144.585 36.893 144.542 36.8637 144.514 36.8096C144.018 35.7912 143.394 34.8588 142.642 34.0123C141.89 33.165 141.038 32.4354 140.086 31.8218C140.037 31.79 140.014 31.7453 140.015 31.6877V28.3284L136.182 27.0694L134.307 29.7937C134.273 29.8452 134.226 29.8676 134.164 29.8607C133.036 29.7851 131.92 29.8616 130.813 30.091C129.707 30.3205 128.651 30.6952 127.647 31.2134C127.595 31.2417 127.543 31.2417 127.492 31.2134L124.677 29.4078L121.632 32.065L122.988 35.2644C123.014 35.3134 123.014 35.3624 122.988 35.4114C122.383 36.3284 121.906 37.308 121.558 38.3505C121.196 39.441 120.989 40.5608 120.936 41.7089C120.932 41.7673 120.904 41.8112 120.853 41.8395L118.001 43.334L118.81 47.2974L122.069 47.6755C122.126 47.6798 122.166 47.7073 122.191 47.7589C122.681 48.7584 123.295 49.6753 124.03 50.5098C124.766 51.3451 125.598 52.0678 126.528 52.6797C126.575 52.7106 126.598 52.7536 126.599 52.8103L126.602 56.2315ZM133.313 49.3969C132.544 49.3969 131.795 49.2748 131.065 49.0316C130.924 48.9844 130.785 48.9337 130.647 48.8778C130.51 48.8228 130.374 48.7626 130.24 48.6991C130.107 48.6355 129.974 48.5667 129.846 48.4954C129.716 48.4232 129.589 48.3467 129.463 48.2668C129.339 48.1869 129.216 48.1026 129.096 48.0159C128.977 47.9282 128.86 47.8362 128.746 47.7417C128.631 47.6472 128.52 47.5484 128.413 47.4469C128.305 47.3447 128.2 47.2398 128.098 47.1316C127.997 47.0233 127.899 46.9116 127.805 46.7973C127.71 46.683 127.62 46.5661 127.532 46.4458C127.445 46.3255 127.361 46.2034 127.282 46.078C127.202 45.9525 127.126 45.8253 127.055 45.6955C126.983 45.5649 126.916 45.4334 126.852 45.2994C126.789 45.1653 126.729 45.0287 126.674 44.8912C126.619 44.7528 126.569 44.6136 126.522 44.4727C126.476 44.3317 126.434 44.1899 126.396 44.0455C126.358 43.902 126.326 43.7577 126.296 43.6124C126.268 43.4663 126.244 43.3202 126.224 43.1724C126.205 43.0255 126.19 42.8777 126.179 42.7298C126.169 42.582 126.164 42.4334 126.162 42.2847C126.161 42.1369 126.165 41.9882 126.173 41.8404C126.181 41.6917 126.194 41.5439 126.211 41.3969C126.228 41.2491 126.25 41.1022 126.277 40.9561C126.302 40.81 126.333 40.6648 126.369 40.5212C126.405 40.3769 126.444 40.2334 126.488 40.0924C126.533 39.9506 126.581 39.8105 126.634 39.6713C126.687 39.533 126.744 39.3963 126.806 39.2605C126.867 39.1256 126.932 38.9924 127.002 38.8618C127.072 38.7303 127.145 38.6014 127.224 38.4751C127.301 38.3487 127.383 38.225 127.468 38.1038C127.554 37.9818 127.642 37.8632 127.735 37.748C127.828 37.632 127.924 37.5194 128.024 37.4094C128.123 37.2994 128.226 37.1929 128.333 37.0889C128.44 36.9858 128.549 36.8861 128.661 36.789C128.774 36.6927 128.889 36.5999 129.008 36.5097C129.126 36.4203 129.247 36.3352 129.371 36.2527C129.494 36.1711 129.62 36.0929 129.749 36.019C129.877 35.9451 130.008 35.8746 130.141 35.8093C130.274 35.7431 130.408 35.6812 130.545 35.6237C130.682 35.5661 130.82 35.5128 130.96 35.4638C131.1 35.4148 131.242 35.3701 131.385 35.3306C131.527 35.2902 131.671 35.2541 131.816 35.2232C131.961 35.1923 132.107 35.1656 132.254 35.1433C132.4 35.1209 132.547 35.1037 132.695 35.0909C132.843 35.0771 132.991 35.0694 133.139 35.0651C133.287 35.0616 133.435 35.0625 133.584 35.0676C133.732 35.0737 133.879 35.0831 134.027 35.0977C134.175 35.1123 134.322 35.1321 134.468 35.1553C134.614 35.1794 134.76 35.2077 134.905 35.2404C135.049 35.273 135.193 35.3109 135.335 35.3521C135.477 35.3942 135.618 35.4406 135.758 35.4905C135.897 35.5412 136.035 35.5962 136.171 35.6555C136.307 35.7148 136.441 35.7775 136.573 35.8454C136.705 35.9124 136.835 35.9837 136.963 36.0594C137.09 36.135 137.216 36.2141 137.338 36.2974C137.461 36.3808 137.582 36.4684 137.699 36.5587C137.816 36.6498 137.931 36.7443 138.041 36.8423C138.153 36.9394 138.261 37.0408 138.367 37.1456C138.472 37.2505 138.574 37.3579 138.672 37.4687C138.771 37.5796 138.866 37.6939 138.958 37.8108C139.049 37.9277 139.136 38.0471 139.22 38.1691C139.305 38.292 139.385 38.4166 139.461 38.5438C139.538 38.671 139.61 38.8008 139.678 38.9331C139.746 39.0646 139.81 39.1987 139.87 39.3344C139.929 39.4702 139.985 39.6077 140.037 39.7469C140.088 39.8862 140.135 40.0271 140.178 40.1689C140.221 40.3107 140.259 40.4542 140.292 40.5986C140.326 40.7438 140.356 40.8891 140.38 41.0352C140.405 41.1821 140.425 41.3291 140.441 41.476C140.456 41.6238 140.467 41.7716 140.473 41.9203C140.48 42.069 140.482 42.2168 140.479 42.3655C140.476 42.5141 140.468 42.6619 140.457 42.8098C140.445 42.9576 140.428 43.1054 140.407 43.2523C140.386 43.3993 140.36 43.5454 140.33 43.6906C140.3 43.8359 140.265 43.9802 140.226 44.1237C140.186 44.2664 140.143 44.4082 140.095 44.5491C140.047 44.6892 139.995 44.8284 139.938 44.9659C139.881 45.1026 139.82 45.2384 139.756 45.3716C139.691 45.5048 139.622 45.6362 139.549 45.7652C139.476 45.8941 139.398 46.0212 139.318 46.1459C139.236 46.2696 139.152 46.3916 139.062 46.5102C138.974 46.6297 138.882 46.7457 138.786 46.8591C138.69 46.9726 138.591 47.0826 138.488 47.19C138.386 47.2974 138.28 47.4005 138.171 47.5011C138.062 47.6016 137.949 47.6987 137.835 47.7924C137.72 47.8861 137.601 47.9763 137.481 48.0623C137.361 48.1491 137.237 48.2316 137.112 48.3098C136.985 48.3888 136.857 48.4627 136.727 48.5341C136.597 48.6045 136.464 48.6707 136.33 48.7334C136.195 48.7953 136.059 48.8537 135.92 48.9079C135.782 48.9612 135.643 49.011 135.501 49.0566C135.36 49.1012 135.217 49.1425 135.074 49.1786C134.93 49.2147 134.785 49.2465 134.639 49.274C134.494 49.3015 134.347 49.3238 134.2 49.3427C134.053 49.3608 133.905 49.3745 133.757 49.3831C133.61 49.3926 133.461 49.3969 133.313 49.3969ZM131.161 48.7334C131.374 48.803 131.59 48.8632 131.808 48.9113C132.028 48.9603 132.248 48.999 132.47 49.0256C132.692 49.0531 132.915 49.0694 133.14 49.0746C133.363 49.0806 133.587 49.0746 133.811 49.0583C134.033 49.0419 134.256 49.0144 134.477 48.9758C134.698 48.938 134.916 48.889 135.132 48.8288C135.347 48.7687 135.56 48.6991 135.768 48.6183C135.978 48.5375 136.183 48.4473 136.383 48.3467C136.583 48.2453 136.777 48.1353 136.967 48.0159C137.156 47.8955 137.339 47.7675 137.516 47.6291C137.693 47.4916 137.863 47.3455 138.025 47.1909C138.188 47.037 138.342 46.8746 138.488 46.7053C138.635 46.536 138.773 46.359 138.903 46.1759C139.031 45.9929 139.152 45.8038 139.263 45.6096C139.373 45.4145 139.475 45.2143 139.566 45.0098C139.657 44.8052 139.739 44.5964 139.809 44.3833C139.88 44.1702 139.94 43.9544 139.989 43.7353C140.039 43.5162 140.077 43.2953 140.105 43.0727C140.132 42.8502 140.149 42.6267 140.155 42.4024C140.161 42.1773 140.155 41.9538 140.139 41.7295C140.123 41.5061 140.096 41.2835 140.058 41.0618C140.02 40.8409 139.971 40.6218 139.911 40.4052C139.852 40.1887 139.782 39.9764 139.701 39.7667C139.621 39.557 139.53 39.3516 139.429 39.1514C139.329 38.9503 139.219 38.7552 139.099 38.5653C138.979 38.3762 138.85 38.1923 138.713 38.0153C138.575 37.8383 138.428 37.6681 138.274 37.5057C138.12 37.3424 137.957 37.1877 137.788 37.0416C137.618 36.8947 137.442 36.7563 137.259 36.6274C137.075 36.4977 136.886 36.3773 136.691 36.2665C136.496 36.1556 136.296 36.0551 136.091 35.964C135.886 35.8729 135.677 35.7921 135.464 35.7216C135.251 35.6503 135.035 35.591 134.817 35.5412C134.598 35.4922 134.377 35.4535 134.154 35.426C133.932 35.3985 133.709 35.3822 133.485 35.3762C133.261 35.3701 133.036 35.3762 132.813 35.3925C132.59 35.4088 132.367 35.4363 132.146 35.4741C131.925 35.5128 131.706 35.5618 131.49 35.6211C131.274 35.6812 131.062 35.7517 130.852 35.8325C130.643 35.9133 130.439 36.0035 130.237 36.1049C130.037 36.2055 129.843 36.3155 129.653 36.4358C129.464 36.5561 129.28 36.685 129.104 36.8234C128.927 36.9609 128.757 37.1078 128.594 37.2625C128.432 37.4172 128.278 37.5796 128.131 37.7498C127.985 37.9191 127.847 38.0961 127.718 38.28C127.589 38.463 127.469 38.653 127.359 38.848C127.248 39.0431 127.147 39.2434 127.056 39.4487C126.965 39.6541 126.884 39.863 126.815 40.0761C126.744 40.2892 126.684 40.5058 126.635 40.7249C126.586 40.9441 126.547 41.1649 126.52 41.3875C126.492 41.6101 126.476 41.8335 126.471 42.0587C126.465 42.283 126.471 42.5073 126.487 42.7307C126.503 42.955 126.531 43.1776 126.57 43.3984C126.608 43.6193 126.657 43.8384 126.717 44.055C126.777 44.2707 126.847 44.4838 126.928 44.6935C127.009 44.9032 127.099 45.1077 127.2 45.308C127.301 45.5091 127.412 45.7041 127.531 45.8932C127.652 46.0831 127.78 46.2662 127.919 46.4432C128.056 46.6202 128.203 46.7895 128.358 46.9528C128.513 47.1152 128.675 47.2699 128.844 47.416C129.015 47.563 129.191 47.7005 129.375 47.8294C129.558 47.9591 129.748 48.0786 129.943 48.1894C130.138 48.3003 130.338 48.4009 130.543 48.4911C130.748 48.5822 130.957 48.663 131.17 48.7334H131.161Z" fill="black"/>
</svg>
