<svg width="165" height="165" viewBox="0 0 165 165" fill="none" xmlns="http://www.w3.org/2000/svg">
<path d="M39.5458 126.104L38.9408 128.104C37.7678 128.972 34.7866 128.404 34.7866 128.404L35.5987 125.991L39.5458 126.104ZM19.696 128.388L20.5081 125.926L16.7234 125.658L15.9113 127.905C16.622 128.969 19.696 128.388 19.696 128.388Z" fill="white"/>
<path d="M147.464 124.945C147.464 124.945 146.332 130.218 146.247 130.453C146.161 130.689 137.937 130.831 138.088 130.303C138.238 129.776 141.792 128.417 141.792 128.417L142.397 124.567L147.464 124.945ZM158.714 125.022L158.864 128.567C158.864 128.567 155.465 129.699 155.31 130.303C155.157 130.908 164.152 130.453 164.152 130.453L164.001 124.868L158.714 125.022Z" fill="black"/>
<path d="M57.7929 43.3179V51.8927C57.7921 51.9597 57.7783 52.0233 57.7525 52.0843C57.7259 52.1462 57.6881 52.1995 57.64 52.2459C57.5918 52.2923 57.5368 52.3275 57.4741 52.3507C57.4122 52.3748 57.3478 52.386 57.2807 52.3834H41.7553C41.6564 52.3834 41.5662 52.4109 41.4837 52.465L33.727 57.5671C33.6359 57.6273 33.5362 57.6548 33.4279 57.6488C33.3188 57.6428 33.2225 57.605 33.1392 57.5353C33.0558 57.4649 33.0008 57.3772 32.9759 57.2715C32.951 57.1658 32.9604 57.0627 33.0043 56.963L34.6568 53.0692C34.6723 53.0314 34.6835 52.9927 34.6895 52.9523C34.6955 52.9119 34.6964 52.8724 34.6929 52.8311C34.6886 52.7907 34.68 52.7521 34.6663 52.7134C34.6534 52.6747 34.6353 52.6386 34.6121 52.6051C34.5898 52.5707 34.564 52.5407 34.5339 52.5132C34.5039 52.4857 34.4703 52.4625 34.4351 52.4427C34.399 52.4238 34.3612 52.4092 34.3217 52.3989C34.283 52.3886 34.2426 52.3834 34.2022 52.3834H30.4983C30.433 52.3834 30.3703 52.3714 30.3093 52.3464C30.2491 52.3215 30.1958 52.2863 30.1494 52.2399C30.103 52.1943 30.0669 52.1411 30.042 52.0809C30.0162 52.0207 30.0033 51.958 30.0025 51.8927V43.3179C30.0033 43.2525 30.0162 43.1898 30.042 43.1296C30.0669 43.0695 30.103 43.0171 30.1494 42.9707C30.1958 42.9251 30.2491 42.889 30.3093 42.865C30.3703 42.84 30.433 42.8271 30.4983 42.8271H57.3014C57.3658 42.828 57.4285 42.8409 57.4887 42.8658C57.5489 42.8907 57.6013 42.926 57.6477 42.9724C57.6932 43.0179 57.7293 43.0712 57.7543 43.1305C57.7792 43.1907 57.7921 43.2534 57.7929 43.3179Z" fill="#FFEB9A"/>
<path d="M133.223 77.8446C131.35 77.5077 127.102 75.5243 126.42 75.074C126.328 75.0258 126.245 74.9657 126.171 74.8926C126.097 74.8205 126.034 74.7388 125.984 74.6477C125.934 74.5566 125.898 74.4612 125.876 74.3598C125.855 74.2576 125.848 74.1553 125.855 74.0522C125.287 73.772 125.742 73.1472 125.742 73.1472C125.693 73.1094 125.649 73.0656 125.611 73.0166C125.573 72.9676 125.541 72.9144 125.516 72.8568C125.491 72.8001 125.474 72.7408 125.464 72.6789C125.454 72.6179 125.452 72.556 125.458 72.4941C125.464 72.4322 125.476 72.3712 125.498 72.3128C125.519 72.2544 125.546 72.1985 125.581 72.1469C125.616 72.0954 125.656 72.049 125.703 72.0077C125.75 71.9656 125.8 71.9312 125.855 71.902C127.234 72.617 128.688 73.1077 130.218 73.375C130.218 73.375 128.008 70.6568 128.463 70.4299C128.917 70.203 131.919 73.0338 132.484 73.5451C133.048 74.0565 135.034 74.1656 135.034 74.1656L133.223 77.8446Z" fill="#F2DCD1"/>
<path d="M156.691 125.351L154.088 110.343C150.941 118.586 148.155 125.59 148.155 125.59L141.884 124.97L145.946 89.2757L162.868 84.8662C162.734 86.0057 161.995 88.4928 160.919 91.6965L161.093 91.2428L164.72 125.274L156.691 125.351Z" fill="#FFEB9A"/>
<path d="M147.095 64.4874C147.095 64.4874 145.398 63.7535 146.53 61.9402C147.664 60.1269 149.816 59.5632 150.043 57.5273C150.271 55.4914 145.678 52.2542 145.678 52.2542C145.678 52.2542 145.848 49.0865 150.551 49.3134C155.254 49.5411 155.367 54.0675 154.974 57.1217C154.579 60.1759 154.291 60.9708 155.936 62.8408C157.581 64.7108 157.861 67.197 156.899 68.3288C155.936 69.4606 152.651 69.8052 152.651 69.8052L148.796 68.5599L147.095 64.4874Z" fill="#FFEB9A"/>
<path d="M127.224 125.216C127.458 125.638 127.655 126.078 127.815 126.534C127.974 126.99 128.093 127.456 128.173 127.933C128.253 128.409 128.292 128.889 128.29 129.372C128.288 129.855 128.246 130.334 128.163 130.809L128.13 130.955H123.634V130.996H107.613L107.593 130.834C107.483 129.531 107.553 128.239 107.804 126.956C108.071 125.465 108.529 124.034 109.178 122.665C109.828 121.295 110.647 120.035 111.634 118.885C111.853 118.315 111.962 117.725 111.962 117.116C111.962 116.507 111.853 115.917 111.634 115.347C111.085 113.859 110.639 110.074 112.117 108.111C112.29 107.881 112.49 107.677 112.718 107.5C112.945 107.323 113.192 107.178 113.458 107.067C113.724 106.956 113.999 106.881 114.285 106.842C114.571 106.804 114.857 106.803 115.142 106.842C115.45 106.855 115.753 106.901 116.051 106.98C116.349 107.058 116.635 107.167 116.909 107.307C117.183 107.447 117.44 107.615 117.678 107.81C117.917 108.005 118.131 108.223 118.322 108.464C120 110.537 120.166 114.199 119.797 116.703C119.542 118.28 119.604 119.844 119.983 121.395C121.242 120.523 121.393 119.663 121.583 118.556C121.64 118.227 121.697 117.887 121.791 117.522C122.274 115.583 124.296 114.196 126.031 114.609C126.258 114.681 126.473 114.778 126.678 114.9C126.882 115.021 127.071 115.163 127.243 115.328C127.416 115.492 127.568 115.673 127.699 115.872C127.83 116.07 127.937 116.281 128.02 116.503C128.153 116.812 128.248 117.132 128.305 117.463C128.362 117.794 128.38 118.127 128.358 118.463C128.336 118.798 128.275 119.126 128.176 119.447C128.076 119.767 127.94 120.072 127.768 120.361C126.477 122.564 127.156 124.993 127.224 125.216Z" fill="#FFEB9A"/>
<path d="M116.926 102.636H68.6924C68.5128 102.636 68.334 102.618 68.1579 102.583C67.9808 102.548 67.8098 102.496 67.6431 102.427C67.4772 102.358 67.3191 102.274 67.1696 102.174C67.0201 102.074 66.8817 101.961 66.7536 101.834C66.6265 101.707 66.513 101.568 66.4133 101.419C66.3128 101.269 66.2286 101.112 66.1598 100.945C66.0911 100.779 66.0386 100.608 66.0043 100.432C65.969 100.255 65.951 100.077 65.951 99.8977V53.9864C65.951 53.8059 65.969 53.628 66.0034 53.4519C66.0386 53.2748 66.0911 53.1038 66.1598 52.938C66.2286 52.7713 66.3128 52.6131 66.4133 52.4636C66.513 52.3141 66.6265 52.1757 66.7536 52.0485C66.8808 51.9213 67.0192 51.8079 67.1696 51.7073C67.3191 51.6077 67.4764 51.5226 67.6431 51.4538C67.809 51.3851 67.9808 51.3327 68.157 51.2974C68.334 51.2622 68.5119 51.2441 68.6924 51.2441H116.926C117.106 51.2441 117.284 51.2613 117.461 51.2966C117.638 51.3318 117.809 51.3842 117.976 51.453C118.143 51.5217 118.301 51.6059 118.451 51.7065C118.601 51.8062 118.739 51.9196 118.867 52.0468C118.994 52.1748 119.108 52.3132 119.208 52.4627C119.308 52.6123 119.393 52.7704 119.462 52.9371C119.53 53.103 119.583 53.2748 119.618 53.451C119.653 53.628 119.671 53.8059 119.671 53.9864V99.8977C119.671 100.077 119.652 100.256 119.617 100.432C119.582 100.608 119.53 100.779 119.461 100.946C119.391 101.112 119.307 101.269 119.206 101.419C119.107 101.568 118.992 101.707 118.865 101.834C118.738 101.961 118.599 102.074 118.449 102.174C118.3 102.274 118.142 102.359 117.975 102.428C117.809 102.496 117.637 102.548 117.46 102.583C117.284 102.618 117.105 102.636 116.926 102.636Z" fill="#FFEB9A"/>
<path d="M114.208 100.522H65.9759C65.786 100.522 65.5978 100.504 65.4113 100.467C65.2248 100.43 65.0443 100.376 64.8682 100.302C64.6929 100.23 64.5261 100.141 64.368 100.036C64.2099 99.9304 64.0638 99.8109 63.9297 99.6768C63.7948 99.5428 63.6754 99.3967 63.5696 99.2394C63.4639 99.0813 63.3746 98.9154 63.3015 98.7401C63.2285 98.5648 63.1735 98.3843 63.1365 98.1979C63.0987 98.0122 63.0807 97.824 63.0798 97.6341V51.7186C63.0807 51.5286 63.0987 51.3413 63.1365 51.1548C63.1735 50.9692 63.2285 50.7887 63.3015 50.6134C63.3746 50.4381 63.4639 50.2714 63.5696 50.1141C63.6754 49.956 63.7948 49.8107 63.9297 49.6767C64.0638 49.5426 64.2099 49.4223 64.368 49.3175C64.5261 49.2118 64.6929 49.1232 64.8682 49.0502C65.0443 48.978 65.2248 48.923 65.4113 48.8861C65.5978 48.8491 65.786 48.8311 65.9759 48.8311H114.208C114.398 48.8311 114.586 48.8491 114.773 48.8861C114.959 48.923 115.14 48.978 115.316 49.0502C115.491 49.1232 115.658 49.2118 115.816 49.3175C115.974 49.4223 116.12 49.5426 116.254 49.6767C116.389 49.8107 116.509 49.956 116.615 50.1141C116.72 50.2714 116.81 50.4381 116.883 50.6134C116.956 50.7887 117.011 50.9692 117.048 51.1548C117.086 51.3413 117.104 51.5286 117.104 51.7186V97.6341C117.104 97.824 117.086 98.0122 117.048 98.1979C117.011 98.3843 116.956 98.5648 116.883 98.7401C116.81 98.9154 116.72 99.0813 116.615 99.2394C116.509 99.3967 116.389 99.5428 116.254 99.6768C116.12 99.8109 115.974 99.9304 115.816 100.036C115.658 100.141 115.491 100.23 115.316 100.302C115.14 100.376 114.959 100.43 114.773 100.467C114.586 100.504 114.398 100.522 114.208 100.522ZM65.9759 49.1189C65.804 49.1181 65.6347 49.1336 65.4671 49.1662C65.2987 49.1997 65.1354 49.2479 64.9773 49.3132C64.8192 49.3785 64.6688 49.4584 64.5261 49.5529C64.3843 49.6475 64.252 49.7557 64.1317 49.8769C64.0105 49.9972 63.9022 50.1287 63.8077 50.2714C63.7123 50.4132 63.6324 50.5636 63.5671 50.7217C63.5018 50.8798 63.4528 51.0431 63.4201 51.2107C63.3875 51.3782 63.372 51.5475 63.372 51.7186V97.6341C63.3729 97.8043 63.3892 97.9718 63.4227 98.1386C63.4562 98.3053 63.5052 98.4668 63.5705 98.6232C63.6358 98.7805 63.7157 98.9292 63.8103 99.0701C63.9048 99.2111 64.0122 99.3417 64.1325 99.462C64.2529 99.5814 64.3835 99.6889 64.5253 99.7825C64.6662 99.8771 64.8157 99.957 64.973 100.021C65.1294 100.087 65.2918 100.136 65.4586 100.168C65.6253 100.202 65.7937 100.218 65.963 100.218H114.208C114.378 100.218 114.547 100.201 114.714 100.168C114.879 100.135 115.042 100.086 115.198 100.021C115.356 99.9553 115.504 99.8762 115.646 99.7817C115.787 99.6871 115.918 99.5806 116.038 99.4603C116.158 99.3408 116.266 99.2102 116.36 99.0693C116.455 98.9283 116.535 98.7796 116.6 98.6232C116.665 98.466 116.715 98.3044 116.749 98.1386C116.782 97.9718 116.799 97.8043 116.799 97.6341V51.7186C116.8 51.5484 116.784 51.38 116.751 51.2124C116.719 51.0448 116.67 50.8824 116.605 50.7251C116.54 50.5679 116.461 50.4183 116.366 50.2757C116.272 50.1339 116.164 50.0032 116.044 49.8821C115.924 49.7618 115.792 49.6535 115.651 49.5589C115.509 49.4636 115.36 49.3836 115.203 49.3183C115.044 49.2521 114.883 49.2032 114.715 49.1696C114.548 49.1361 114.379 49.1189 114.208 49.1189H65.9759Z" fill="black"/>
<path d="M8.07293 107.759L4.26762 108.975C4.17738 109.005 4.08543 109.024 3.99176 109.036C3.89722 109.046 3.80355 109.048 3.70902 109.04C3.61449 109.032 3.52168 109.015 3.43058 108.989C3.33949 108.963 3.25269 108.928 3.16847 108.885C3.08426 108.841 3.00519 108.791 2.93129 108.731C2.85652 108.673 2.78949 108.607 2.72847 108.535C2.66746 108.462 2.61418 108.385 2.56777 108.302C2.52222 108.219 2.48527 108.132 2.45691 108.043L0.64535 102.336C0.618709 102.251 0.599803 102.165 0.58949 102.076C0.579178 101.988 0.5766 101.9 0.581756 101.811C0.587772 101.722 0.601522 101.636 0.623006 101.55C0.64535 101.463 0.674568 101.379 0.711522 101.3C0.749334 101.219 0.793162 101.142 0.844725 101.069C0.896287 100.997 0.953865 100.93 1.01746 100.868C1.08105 100.806 1.1498 100.75 1.22371 100.701C1.29762 100.652 1.37582 100.61 1.45746 100.575L4.99894 99.0703L8.07293 107.759Z" fill="white"/>
<path d="M3.82503 109.203C3.56722 109.202 3.32402 109.142 3.09456 109.025C2.9055 108.928 2.74308 108.798 2.60644 108.636C2.4698 108.472 2.36925 108.29 2.30652 108.088L0.503548 102.381C0.47347 102.287 0.451986 102.192 0.439095 102.094C0.427064 101.997 0.423626 101.899 0.429642 101.801C0.435658 101.703 0.450267 101.606 0.474329 101.51C0.497533 101.415 0.530189 101.323 0.571439 101.234C0.611829 101.144 0.660814 101.06 0.717533 100.979C0.774251 100.899 0.838704 100.825 0.909173 100.757C0.979642 100.688 1.05613 100.627 1.13777 100.573C1.21941 100.518 1.3062 100.472 1.39644 100.434L4.93792 98.9289C4.97831 98.9117 5.01956 98.9117 5.05995 98.9289C5.09863 98.9478 5.12613 98.9779 5.14074 99.0183L8.21558 107.707C8.23449 107.745 8.23449 107.785 8.21558 107.824C8.19753 107.863 8.16745 107.889 8.1262 107.901L4.32433 109.118C4.16277 109.174 3.99605 109.202 3.82503 109.203ZM4.89324 99.2735L1.51847 100.714C1.44542 100.745 1.37495 100.782 1.30878 100.826C1.24261 100.869 1.18074 100.919 1.12402 100.974C1.06644 101.029 1.01488 101.089 0.96847 101.155C0.922923 101.219 0.883392 101.288 0.849876 101.36C0.816361 101.432 0.78972 101.506 0.770814 101.584C0.751048 101.661 0.739017 101.739 0.733861 101.818C0.728704 101.897 0.731283 101.976 0.740736 102.055C0.751048 102.134 0.767376 102.212 0.791439 102.287L2.59441 107.999C2.64769 108.16 2.73019 108.306 2.84105 108.435C2.95191 108.565 3.08425 108.668 3.23636 108.745C3.38847 108.825 3.55003 108.872 3.72105 108.886C3.89292 108.9 4.05964 108.88 4.22292 108.826L7.87785 107.653L4.89324 99.2735Z" fill="black"/>
<path d="M87.4826 71.168L98.8169 72.6444L90.6589 80.793L83.856 81.6042L84.1972 73.5691L87.4826 71.168Z" fill="white"/>
<path d="M83.8561 81.7341C83.8174 81.7333 83.7839 81.7195 83.7546 81.6937C83.7194 81.6628 83.7031 81.6233 83.7065 81.576L84.0434 73.5366C84.0477 73.4893 84.0692 73.4515 84.1078 73.4231L87.3932 71.0427C87.4276 71.0212 87.4637 71.0134 87.5032 71.0177L98.8375 72.4864C98.9003 72.4959 98.9415 72.5311 98.9596 72.5921C98.9836 72.6514 98.9707 72.703 98.9226 72.7459L90.7646 80.8945C90.7396 80.9195 90.7096 80.9341 90.6752 80.9392L83.8767 81.7505L83.8561 81.7341ZM84.3476 73.6225L84.0185 81.4059L90.5815 80.6436L98.4886 72.7502L87.5239 71.3263L84.3476 73.6225Z" fill="black"/>
<path d="M21.2996 75.3541C21.2996 75.3541 20.2769 72.9204 22.1125 71.1681C23.9473 69.4159 25.3979 69.1847 26.3071 66.7509C27.2172 64.3172 27.2129 60.6949 32.37 60.7516C37.528 60.8084 37.1301 65.2135 36.7322 66.8644C36.3343 68.5152 35.8831 70.8278 36.8456 72.6969C37.8081 74.5669 37.4103 77.8446 35.9966 78.0715C34.5838 78.2992 21.2996 75.3541 21.2996 75.3541Z" fill="black"/>
<path d="M36.9754 128.519C36.245 128.519 35.5463 128.37 34.8803 128.072C34.8459 128.054 34.821 128.027 34.8072 127.991C34.7935 127.954 34.7935 127.918 34.8072 127.882L35.6554 125.562C35.6657 125.529 35.6847 125.503 35.713 125.485C35.7414 125.467 35.7723 125.459 35.8058 125.464L39.5458 125.691C39.5957 125.691 39.6352 125.712 39.6636 125.752C39.6825 125.797 39.6825 125.841 39.6636 125.886L39.0422 127.979C39.0293 128.022 39.0018 128.053 38.9615 128.072C38.3324 128.367 37.6707 128.516 36.9754 128.519ZM35.1398 127.854C35.4303 127.971 35.7293 128.061 36.0379 128.119C36.3455 128.178 36.6566 128.207 36.9703 128.204C37.284 128.202 37.5942 128.169 37.9018 128.104C38.2086 128.041 38.506 127.947 38.7947 127.825L39.343 125.984L35.9115 125.781L35.1398 127.854Z" fill="black"/>
<path d="M27.6349 92.6172C27.6349 92.6172 37.9138 105.353 38.5996 107.767C39.2863 110.18 41.0935 125.955 41.0935 125.955L34.5391 126.104C34.5391 126.104 32.1019 111.539 31.0663 110.03C30.0308 108.522 29.3287 108.144 29.3287 108.144L23.6431 95.8459L27.6349 92.6172Z" fill="white"/>
<path d="M34.5391 126.255C34.5021 126.255 34.4695 126.243 34.4411 126.219C34.4128 126.195 34.3956 126.165 34.3887 126.129C34.3646 125.983 31.9524 111.584 30.9409 110.119C29.9294 108.655 29.26 108.282 29.2514 108.277C29.2247 108.26 29.2041 108.238 29.1903 108.209L23.5047 95.9068C23.491 95.8741 23.4884 95.8415 23.4961 95.8079C23.5047 95.7736 23.5228 95.7461 23.5494 95.7237L27.5541 92.4787C27.5859 92.4538 27.6228 92.4435 27.6632 92.4469C27.7062 92.4512 27.7414 92.4701 27.7689 92.5037C28.1754 93.0227 38.072 105.289 38.7337 107.706C39.3963 110.123 41.1709 125.273 41.2319 125.914C41.2388 125.959 41.2268 125.999 41.195 126.031C41.1666 126.066 41.1296 126.083 41.085 126.085L34.5391 126.255ZM29.4258 108.039C30.1245 108.573 30.7054 109.213 31.1686 109.961C32.1913 111.421 34.3887 124.422 34.6482 125.967L40.9225 125.821C40.7283 124.13 39.0869 110.067 38.4536 107.824C37.8202 105.581 28.6627 94.1425 27.6349 92.8319L23.8425 95.8862L29.4258 108.039Z" fill="black"/>
<path d="M32.4027 72.187C32.4027 72.187 36.086 75.5815 37.7875 76.6489C39.4891 77.7154 39.4891 78.121 41.3007 78.8592C43.1122 79.5974 49.8575 82.4815 49.8575 82.4815C49.8575 82.4815 48.0459 84.8018 46.0599 84.9719C46.0599 84.9719 38.6933 82.9438 37.3329 82.3113C36.214 81.7312 35.157 81.0549 34.161 80.2832C33.6445 81.4433 32.9458 82.4815 32.0658 83.3984C30.5344 85.02 27.6435 92.6221 27.6435 92.6221L17.673 89.17L19.8257 85.3208C19.8257 85.3208 15.18 83.0572 15.9714 81.1915C16.7638 79.3258 20.5038 75.4157 21.3571 74.5108C22.2096 73.6067 24.3014 69.9277 29.0039 70.1546C29.0039 70.1503 30.0231 72.3004 32.4027 72.187Z" fill="#FFEB9A"/>
<path d="M27.6349 92.6171C27.6349 92.6171 28.9222 103.845 29.3004 108.144C29.6776 112.444 21.1372 125.878 21.1372 125.878L14.5664 125.5L21.9699 108.464C21.9699 108.464 17.2958 101.037 16.1588 97.1271C15.0218 93.217 17.673 89.165 17.673 89.165L27.6349 92.6171Z" fill="white"/>
<path d="M21.1371 126.031L14.5663 125.654C14.5131 125.651 14.4727 125.626 14.4452 125.581C14.422 125.534 14.422 125.486 14.4452 125.439L21.8074 108.46C21.3322 107.702 17.0843 100.867 16.0127 97.1683C14.8757 93.2255 17.5192 89.1245 17.5432 89.0842C17.5621 89.0541 17.5888 89.0334 17.6223 89.0223C17.6558 89.0102 17.6884 89.0111 17.722 89.0231L27.6959 92.4752C27.7543 92.4976 27.7878 92.5397 27.7973 92.6007C27.7973 92.7142 29.0846 103.877 29.4584 108.131C29.8323 112.387 21.6244 125.411 21.2755 125.958C21.2437 126.01 21.1981 126.034 21.1371 126.031ZM14.8018 125.375L21.0641 125.736C21.7507 124.644 29.5117 112.204 29.1542 108.168C28.7967 104.133 27.6314 93.8417 27.5051 92.7545L17.7383 89.372C17.3318 90.0166 15.302 93.6354 16.3092 97.1073C17.4212 100.968 22.0592 108.314 22.1082 108.392C22.1314 108.439 22.1314 108.486 22.1082 108.534L14.8018 125.375Z" fill="black"/>
<path d="M35.01 64.3174C35.01 64.3174 36.7683 70.7137 32.4594 70.211L32.4027 72.1901C32.4027 72.1901 30.592 72.5313 29.0039 70.162L30.1365 67.956C30.0171 67.8975 29.9079 67.8219 29.8108 67.7308C29.7137 67.6389 29.6321 67.5349 29.5668 67.4189C29.5006 67.3029 29.4542 67.1791 29.4258 67.0485C29.3975 66.9187 29.3897 66.7864 29.4018 66.654C29.5152 65.7457 30.2139 65.8428 30.2139 65.8428C30.2139 65.8428 32.6304 66.7511 35.01 64.3174Z" fill="white"/>
<path d="M32.1466 72.3563C31.5536 72.3563 30.1451 72.1328 28.8982 70.231C28.8698 70.1812 28.8698 70.1305 28.8982 70.0806L29.9621 68.0044C29.8435 67.9348 29.7369 67.8497 29.6424 67.75C29.5478 67.6495 29.4696 67.5386 29.4069 67.4157C29.345 67.2928 29.3012 67.1639 29.2763 67.029C29.2505 66.8932 29.2453 66.7574 29.26 66.6208C29.2703 66.4695 29.3107 66.3269 29.3811 66.1928C29.4516 66.0588 29.547 65.9445 29.6656 65.8499C29.8392 65.7219 30.0325 65.6703 30.2465 65.6961C30.372 65.7408 32.6545 66.5434 34.9327 64.2111C34.9739 64.1716 35.0229 64.1578 35.0788 64.1707C35.1346 64.1879 35.1716 64.2248 35.1888 64.2807C35.2292 64.4302 36.1917 68.0078 34.7823 69.6226C34.6474 69.7695 34.497 69.8976 34.3303 70.0067C34.1636 70.1167 33.9857 70.2044 33.7975 70.2697C33.6084 70.335 33.415 70.3763 33.2157 70.3943C33.0171 70.4115 32.8195 70.4046 32.6218 70.3728L32.5694 72.1895C32.5686 72.2265 32.5565 72.2583 32.5333 72.2858C32.5093 72.3133 32.4792 72.3305 32.4431 72.3356C32.3451 72.352 32.2463 72.3588 32.1466 72.3563ZM29.1826 70.1374C30.4614 72.0031 31.8467 72.0727 32.2566 72.0477L32.309 70.2104C32.3099 70.1649 32.3271 70.127 32.3623 70.097C32.3958 70.0677 32.4354 70.0557 32.48 70.0609C33.3936 70.17 34.1043 69.9595 34.5391 69.4318C35.6236 68.178 35.12 65.4692 34.9447 64.6253C32.6184 66.8279 30.2508 66.0287 30.1614 66.0003C30.0403 65.9977 29.9311 66.0321 29.8323 66.1017C29.6664 66.253 29.5779 66.4412 29.5685 66.6655C29.5582 66.7823 29.565 66.8992 29.59 67.0135C29.6149 67.1287 29.657 67.2378 29.7146 67.3401C29.773 67.4424 29.8443 67.5343 29.9303 67.6151C30.0162 67.6959 30.1125 67.762 30.2182 67.8136C30.2568 67.8299 30.2843 67.8583 30.2989 67.8987C30.3136 67.9391 30.3136 67.9795 30.2989 68.0199L29.1826 70.1374Z" fill="black"/>
<path d="M17.8887 128.518C17.1582 128.518 16.4596 128.369 15.7927 128.071C15.7583 128.053 15.7342 128.027 15.7205 127.991C15.7067 127.954 15.7067 127.918 15.7196 127.881L16.5687 125.561C16.5781 125.528 16.5979 125.502 16.6271 125.483C16.6572 125.465 16.689 125.458 16.7234 125.464L20.4591 125.691C20.5089 125.691 20.5485 125.712 20.5768 125.752C20.5983 125.797 20.5983 125.84 20.5768 125.885L19.9555 127.979C19.9435 128.022 19.9168 128.053 19.8747 128.071C19.2456 128.368 18.5839 128.517 17.8887 128.518ZM16.0531 127.853C16.3435 127.971 16.6426 128.06 16.9511 128.119C17.2588 128.178 17.5699 128.206 17.8835 128.204C18.1972 128.201 18.5074 128.168 18.8142 128.104C19.1219 128.04 19.4192 127.947 19.708 127.825L20.2563 125.983L16.8128 125.78L16.0531 127.853Z" fill="black"/>
<path d="M38.8394 127.935C38.8394 127.935 43.676 130.121 44.0214 130.583C44.3669 131.046 33.7674 130.697 33.7674 130.697L34.8029 127.935C35.1183 128.084 35.4466 128.198 35.7869 128.274C36.1272 128.351 36.4718 128.388 36.8216 128.388C37.1705 128.388 37.5151 128.351 37.8554 128.274C38.1966 128.198 38.524 128.084 38.8394 127.935ZM15.6913 127.935L14.6523 130.697C14.6523 130.697 25.2553 131.041 24.9098 130.583C24.5652 130.125 19.7243 127.935 19.7243 127.935C19.4107 128.082 19.0841 128.195 18.7455 128.271C18.406 128.347 18.0632 128.385 17.716 128.385C17.3688 128.385 17.0259 128.347 16.6873 128.271C16.3478 128.195 16.0221 128.082 15.7076 127.935H15.6913Z" fill="black"/>
<path d="M87.4826 71.168C87.1878 71.3794 86.9515 71.6441 86.7728 71.9603C86.5949 72.2766 86.4917 72.6152 86.4634 72.977C86.3499 74.2222 88.4941 74.5634 88.4941 74.5634C88.4941 74.5634 87.3614 75.2448 87.5883 76.2623C87.816 77.2807 89.5176 77.731 89.5176 77.731C89.5176 77.731 88.3807 78.2991 88.6075 79.43C88.8353 80.5618 90.6382 80.7895 90.6382 80.7895L7.24448 108.407L4.18683 99.0091L87.4826 71.168Z" fill="white"/>
<path d="M7.24448 108.563C7.22127 108.566 7.19893 108.566 7.17573 108.563C7.13963 108.542 7.11557 108.513 7.10268 108.473L4.04073 99.063C4.02698 99.0227 4.02956 98.9831 4.04846 98.9453C4.06823 98.9075 4.09745 98.8817 4.13784 98.868L87.4345 71.0225C87.4706 71.0113 87.5067 71.0139 87.541 71.0294C87.5763 71.0448 87.6021 71.0698 87.6175 71.105C87.6339 71.1394 87.6373 71.1746 87.627 71.2116C87.6167 71.2485 87.596 71.2769 87.5642 71.2984C87.2901 71.4986 87.0692 71.7469 86.9034 72.0426C86.7375 72.3391 86.6413 72.6553 86.6138 72.9939C86.5167 74.081 88.5061 74.4093 88.5267 74.4136C88.5585 74.4179 88.586 74.4308 88.6101 74.4531C88.6333 74.4763 88.647 74.503 88.6522 74.5356C88.6651 74.6035 88.6419 74.6559 88.5835 74.6937C88.5835 74.6937 87.5479 75.3305 87.7464 76.2303C87.9458 77.1309 89.546 77.5812 89.5623 77.5855C89.5941 77.5924 89.6207 77.6079 89.6422 77.6319C89.6637 77.6569 89.6766 77.6852 89.6792 77.717C89.6826 77.7497 89.6757 77.7798 89.6594 77.8073C89.6431 77.8356 89.6207 77.8562 89.5906 77.8691C89.5503 77.8898 88.5671 78.4011 88.7785 79.4023C88.9899 80.4043 90.6709 80.6191 90.6872 80.6191C90.7224 80.6234 90.7525 80.6372 90.7774 80.663C90.8032 80.6879 90.817 80.718 90.8213 80.7532C90.8256 80.7893 90.8178 80.8219 90.7972 80.852C90.7774 80.8821 90.7499 80.9019 90.7156 80.9113L7.29346 108.554L7.24448 108.563ZM4.3776 99.1112L7.32956 108.218L90.0659 80.8219C89.4806 80.6518 88.6196 80.2702 88.4417 79.459C88.4142 79.3 88.409 79.1401 88.4279 78.9794C88.446 78.8196 88.4872 78.6649 88.5499 78.5154C88.6127 78.3667 88.696 78.2301 88.7983 78.1046C88.9006 77.98 89.0183 77.8717 89.1524 77.7798C88.6281 77.5898 87.6089 77.1189 87.4216 76.2956C87.3992 76.1392 87.3975 75.9828 87.4173 75.8255C87.437 75.6691 87.4774 75.517 87.5385 75.3718C87.5995 75.2257 87.6794 75.0908 87.7774 74.967C87.8753 74.8424 87.9888 74.7341 88.116 74.6405C87.4826 74.4823 86.1918 74.0243 86.2889 72.9655C86.3319 72.4293 86.5218 71.9506 86.8578 71.5295L4.3776 99.1112Z" fill="black"/>
<path d="M31.1197 86.4111C31.1197 86.4111 34.4454 88.1479 35.0874 88.6386C35.7285 89.1293 36.1066 91.6559 35.7654 91.8836C35.4243 92.1105 35.2378 91.3921 35.2378 91.3921C35.2378 91.3921 35.2739 92.3743 34.937 92.4474C34.6001 92.5204 34.5305 91.429 34.5305 91.429C34.5305 91.429 34.5305 92.4474 34.3071 92.4474C34.0845 92.4474 33.9659 91.2786 33.9659 91.2786C33.9659 91.2786 33.9659 91.8467 33.739 91.9558C33.5113 92.0658 33.3325 91.1454 33.0971 90.2242C32.8616 89.3038 30.2259 88.3748 30.2259 88.3748L31.1197 86.4111Z" fill="white"/>
<path d="M34.9 92.6056C34.833 92.6056 34.7737 92.5841 34.7213 92.5403C34.6551 92.4879 34.6036 92.4226 34.5675 92.3461C34.4781 92.6013 34.3483 92.6013 34.295 92.6013C34.2426 92.6013 34.0432 92.6013 33.8894 92.0049C33.8576 92.0427 33.8198 92.0728 33.7751 92.0943C33.7064 92.1261 33.6376 92.1261 33.568 92.0943C33.3368 91.9852 33.2071 91.4781 32.9793 90.5165L32.9149 90.2527C32.7482 89.5471 30.8593 88.7556 30.1451 88.5124C30.1013 88.4978 30.0703 88.4695 30.0514 88.4273C30.0325 88.387 30.0325 88.3466 30.0514 88.3062L30.9572 86.3425C30.9753 86.303 31.0045 86.278 31.0466 86.2652C31.087 86.2463 31.1274 86.2463 31.1686 86.2652C31.3027 86.3348 34.5107 88.014 35.1561 88.5047C35.7371 88.9464 36.0456 90.6385 36.0215 91.4085C36.0215 91.7291 35.9485 91.9155 35.8264 91.9972C35.7225 92.0737 35.6107 92.09 35.4896 92.0453C35.4337 92.0204 35.383 91.9869 35.3392 91.9439C35.2945 92.2361 35.1888 92.5326 34.9327 92.585L34.9 92.6056ZM34.5391 91.2787C34.5795 91.2787 34.6139 91.2925 34.6439 91.32C34.674 91.3466 34.6904 91.381 34.6929 91.4205C34.6861 91.7377 34.7643 92.0307 34.9284 92.3014C35.0341 92.2765 35.1235 91.8391 35.1071 91.3965C35.1046 91.357 35.1149 91.3226 35.1398 91.2916C35.1639 91.2607 35.1957 91.2418 35.2352 91.2358C35.2739 91.2306 35.31 91.2384 35.3426 91.2607C35.3744 91.283 35.395 91.3131 35.4036 91.3518C35.4449 91.5065 35.5497 91.7377 35.6434 91.7574C35.664 91.7669 35.6838 91.7669 35.7044 91.7574C35.7818 91.4996 35.7955 91.2392 35.7448 90.9745C35.6718 90.1186 35.3718 89.0315 35.0143 88.7599C34.4661 88.3543 31.8501 86.9595 31.2133 86.6227L30.4416 88.2855C31.0629 88.5124 33.0404 89.2996 33.2518 90.1882L33.3162 90.4512C33.4056 90.9118 33.5414 91.3578 33.7227 91.7901C33.8026 91.6294 33.8387 91.4584 33.8327 91.2787C33.8327 91.2384 33.8464 91.2031 33.8748 91.1739C33.9032 91.1455 33.9375 91.1301 33.9788 91.1292C34.0192 91.1258 34.0544 91.137 34.0854 91.1627C34.1163 91.1894 34.1335 91.222 34.1369 91.2624C34.1618 91.589 34.2229 91.9078 34.32 92.2198C34.3767 91.9594 34.4042 91.6955 34.4007 91.4291C34.4007 91.3887 34.4154 91.3535 34.4437 91.3243C34.4721 91.2951 34.5064 91.2805 34.5468 91.2787H34.5391Z" fill="black"/>
<path d="M49.5644 82.9026C50.6172 82.876 51.6622 82.9525 52.7003 83.1295C53.6825 83.3933 54.8161 84.4478 54.4379 84.5612C54.0607 84.6747 52.8868 84.2613 52.2818 84.0344C51.6768 83.8067 50.6575 84.0344 49.8454 84.1479C49.2533 84.2115 48.6621 84.2115 48.07 84.1479L49.5644 82.9026Z" fill="white"/>
<path d="M54.2712 84.7358C54.0194 84.7358 53.4591 84.6464 52.2414 84.1763C51.7739 84.0019 50.9987 84.123 50.3121 84.233L49.9056 84.2975C49.3023 84.3628 48.6982 84.3628 48.0949 84.2975C48.0261 84.2923 47.9823 84.2571 47.9625 84.1918C47.9428 84.1265 47.96 84.0723 48.0132 84.0302L49.4879 82.785C49.5154 82.7635 49.5464 82.7515 49.5807 82.748C50.6489 82.7223 51.7085 82.7987 52.7613 82.9792C53.5734 83.2026 54.6777 84.0465 54.6854 84.4642C54.6871 84.5218 54.6708 84.5733 54.6356 84.6189C54.6003 84.6644 54.5548 84.6937 54.4989 84.7074C54.425 84.7332 54.3494 84.7426 54.2712 84.7358ZM51.5951 83.787C51.8409 83.7793 52.0807 83.8145 52.3144 83.8919C53.6782 84.4032 54.1578 84.4436 54.3202 84.4238C54.1062 84.1488 53.8553 83.9133 53.5682 83.7174C53.2803 83.5215 52.9693 83.3745 52.635 83.2757C51.6295 83.1038 50.6171 83.0291 49.5971 83.0523L48.4438 84.0259C48.9036 84.0577 49.3625 84.0483 49.8205 83.9976L50.227 83.9331C50.679 83.8506 51.1353 83.8025 51.5951 83.787Z" fill="black"/>
<path d="M88.5018 74.5635L5.46214 102.863L88.5018 74.5635Z" fill="white"/>
<path d="M89.4119 77.7314L6.48134 105.946L89.4119 77.7314Z" fill="white"/>
<path d="M5.46214 103.013C5.42862 103.014 5.3994 103.005 5.3719 102.986C5.34526 102.968 5.32636 102.943 5.31519 102.912C5.30229 102.871 5.30487 102.832 5.32378 102.794C5.34269 102.756 5.37276 102.73 5.41315 102.717L88.4537 74.4209C88.4932 74.4063 88.5328 74.408 88.5706 74.4269C88.6093 74.4449 88.635 74.4741 88.6488 74.5145C88.6634 74.5541 88.6608 74.5936 88.6411 74.6314C88.6221 74.6692 88.5921 74.6933 88.5508 74.7053L5.51026 103.005C5.49479 103.011 5.47847 103.015 5.46214 103.013ZM6.51745 106.091L89.4609 77.8773C89.5004 77.8627 89.5288 77.8369 89.5468 77.7991C89.5649 77.7613 89.5675 77.7217 89.5537 77.6822C89.5408 77.6435 89.515 77.6143 89.4781 77.5963C89.4403 77.5782 89.4025 77.5756 89.3629 77.5894L6.43237 105.804C6.39198 105.816 6.36276 105.841 6.34386 105.878C6.32495 105.916 6.32151 105.955 6.33526 105.994C6.34558 106.026 6.36448 106.051 6.39112 106.071C6.41776 106.09 6.44784 106.1 6.48136 106.1L6.51745 106.091Z" fill="black"/>
<path d="M10.2291 97.1357L13.5557 106.145L8.68222 107.767L5.58331 98.6929L10.2291 97.1357Z" fill="#FFEB9A"/>
<path d="M98.8169 72.6443L95.1336 76.2666C93.7165 75.5284 93.5464 72.0195 93.5464 72.0195L98.8169 72.6443Z" fill="black"/>
<path d="M112.889 67.5103C109.392 73.4803 107.155 72.8195 103.447 71.7281L103.195 71.655C101.741 71.2253 100.604 71.2494 99.8164 71.6834C99.617 71.7908 99.4443 71.93 99.2973 72.101C99.1504 72.2729 99.0386 72.4646 98.9639 72.6777C98.9561 72.7112 98.9381 72.7387 98.9106 72.7602C98.8831 72.7817 98.8521 72.792 98.8169 72.7911H98.7808C98.7404 72.7808 98.7086 72.7585 98.6871 72.7232C98.6648 72.6871 98.6579 72.6493 98.6674 72.6089C98.749 72.3554 98.8754 72.1277 99.0464 71.9232C99.2165 71.7195 99.4193 71.5545 99.6539 71.4282C100.518 70.9332 101.741 70.9134 103.281 71.3671L103.532 71.4402C107.232 72.523 109.263 73.1194 112.624 67.3719C112.646 67.3358 112.677 67.3126 112.717 67.3023C112.758 67.292 112.796 67.298 112.832 67.3195C112.864 67.3392 112.886 67.3676 112.897 67.4037C112.907 67.4407 112.905 67.4759 112.889 67.5103ZM113.469 58.7936C113.46 58.7532 113.437 58.7223 113.401 58.7008C113.365 58.6793 113.327 58.6733 113.287 58.6836C108.82 59.8111 104.954 63.3569 102.634 65.4735C101.672 66.3501 100.681 67.2585 100.458 67.1777C100.235 67.096 100.238 66.65 100.353 66.0175C100.45 65.4701 100.551 64.9021 100.292 64.5411C100.157 64.3564 99.9754 64.2507 99.7476 64.2249C98.9639 64.0985 98.358 64.5772 97.8304 65.0078C97.38 65.3644 96.9942 65.6764 96.5834 65.587C96.2998 65.5225 96.2998 65.275 96.3686 64.7233C96.4227 64.5231 96.4364 64.3194 96.4089 64.1132C96.3814 63.9069 96.3153 63.7144 96.2104 63.5348C96.109 63.4265 95.9896 63.344 95.8529 63.2873C95.7171 63.2297 95.5745 63.2031 95.4267 63.2065C94.4229 63.1335 93.2903 64.0582 92.2951 64.8737C91.5646 65.4701 90.8737 66.0373 90.4311 66.0373C90.371 66.0433 90.3194 66.0244 90.2764 65.9806C90.1269 65.8104 90.1836 65.2707 90.2361 64.7637C90.3177 64.0341 90.4028 63.2065 90.0212 62.7356C89.931 62.6333 89.8236 62.5534 89.6989 62.4967C89.5743 62.44 89.4429 62.4116 89.3062 62.4116C88.3678 62.3669 87.3125 63.6689 86.1953 65.0645C85.0136 66.5409 83.8036 68.074 82.7397 67.9563C82.689 67.958 82.6418 67.946 82.5979 67.9219C82.5541 67.897 82.5206 67.8626 82.4957 67.8179C82.2155 67.2911 83.1823 65.4615 84.0391 63.8476C85.0867 61.8676 86.0698 59.9942 85.72 59.1743C85.6779 59.0781 85.6161 58.9956 85.5344 58.9285C85.4528 58.8615 85.3608 58.816 85.2577 58.7936C83.0362 58.205 72.7409 68.3619 72.3026 68.7916C72.2734 68.8217 72.2588 68.8578 72.2588 68.899C72.2588 68.9411 72.2734 68.9772 72.3026 69.0064C72.3327 69.0382 72.3688 69.0528 72.4126 69.0511C72.4539 69.0528 72.4891 69.0374 72.5183 69.0064C75.4625 66.0983 83.4831 58.6432 85.1804 59.085C85.305 59.1116 85.3918 59.1829 85.4399 59.3007C85.7407 59.9821 84.6931 61.9613 83.771 63.705C82.7518 65.6282 81.8709 67.2911 82.2275 67.964C82.2765 68.0517 82.3436 68.1213 82.4295 68.1746C82.5146 68.227 82.6074 68.2553 82.7071 68.2605C83.9257 68.386 85.1967 66.7918 86.4307 65.2544C87.4345 64.0057 88.4614 62.7115 89.2452 62.7115H89.2856C89.485 62.7098 89.6517 62.7828 89.7857 62.9307C90.0857 63.2873 90.0049 64.0461 89.9361 64.7156C89.8665 65.3842 89.8055 65.9075 90.0539 66.18C90.1544 66.2917 90.2807 66.3441 90.4311 66.3381C90.9837 66.3381 91.6824 65.7657 92.4902 65.1212C93.4407 64.3417 94.5209 63.466 95.4061 63.5228C95.6278 63.5125 95.8168 63.5855 95.9741 63.7419C96.1271 64.0496 96.1571 64.3684 96.0635 64.6992C96.0068 65.1736 95.9337 65.7657 96.5189 65.9161C97.1033 66.0657 97.5296 65.6686 98.0211 65.275C98.5127 64.8814 99.0489 64.4638 99.6986 64.5575C99.8413 64.5703 99.9564 64.6339 100.044 64.7474C100.226 65.0078 100.137 65.5105 100.044 65.9969C99.9298 66.6337 99.8121 67.2954 100.34 67.4939C100.722 67.6357 101.343 67.0883 102.834 65.7296C105.132 63.6319 108.974 60.1196 113.352 59.0085C113.376 59.0059 113.398 58.9973 113.419 58.9835C113.438 58.9698 113.455 58.9526 113.467 58.9311C113.478 58.9096 113.484 58.8873 113.485 58.8624C113.486 58.8383 113.48 58.8151 113.469 58.7936ZM105.644 85.0364C103.739 83.9982 100.365 83.2196 95.0202 85.4016C94.9858 85.4205 94.9626 85.448 94.9497 85.485C94.9368 85.521 94.9377 85.558 94.9514 85.5941C94.9661 85.6293 94.991 85.6568 95.0254 85.674C95.0597 85.6912 95.0967 85.6955 95.1336 85.686C100.353 83.5479 103.662 84.2982 105.498 85.3045C105.89 85.5039 106.256 85.7428 106.595 86.0221C106.935 86.3014 107.241 86.6142 107.511 86.9596C107.783 87.3051 108.014 87.6764 108.205 88.0725C108.395 88.4678 108.541 88.8803 108.641 89.3075C109.157 92.0781 106.83 94.0375 101.737 95.128C98.2489 95.8748 92.1447 96.0492 89.6104 93.4651C88.5465 92.3866 88.226 90.9136 88.6565 89.0892C90.3014 82.0715 98.5935 83.5282 98.6794 83.5436C98.7207 83.5514 98.7585 83.5436 98.7937 83.5196C98.8281 83.4964 98.8496 83.4637 98.8582 83.4225C98.865 83.3812 98.8573 83.3425 98.8332 83.3082C98.81 83.2738 98.7774 83.2523 98.7361 83.2437C98.6511 83.2437 90.0736 81.7183 88.36 89.0196C87.9054 90.9506 88.2543 92.5207 89.3913 93.68C91.0164 95.3514 94.0904 95.9109 97.0182 95.9109C98.6279 95.9126 100.221 95.7519 101.798 95.4288C107.016 94.3133 109.486 92.1838 108.946 89.2507C108.84 88.8013 108.687 88.3682 108.487 87.9514C108.287 87.5346 108.045 87.1444 107.76 86.7809C107.474 86.4165 107.154 86.0874 106.797 85.7935C106.44 85.4996 106.055 85.2469 105.644 85.0364ZM95.26 93.3886H95.3046C95.3579 93.3886 95.3992 93.3663 95.4301 93.3233C95.4671 93.2709 99.183 87.929 103.268 87.0482C103.309 87.0387 103.341 87.0155 103.363 86.9803C103.386 86.945 103.394 86.9072 103.386 86.866C103.377 86.8247 103.354 86.7929 103.319 86.7697C103.283 86.7465 103.244 86.7396 103.203 86.7482C99.5929 87.5311 96.3806 91.5264 95.4464 92.7802L95.3407 88.4807C95.3407 88.4378 95.3261 88.4025 95.2952 88.3725C95.2651 88.3432 95.229 88.3295 95.1869 88.3303C95.1448 88.3321 95.1087 88.3484 95.0795 88.3793C95.0511 88.4103 95.0365 88.4464 95.0365 88.4885L95.15 93.2425C95.1534 93.3156 95.1904 93.3646 95.26 93.3886Z" fill="white"/>
<path d="M98.8702 126.904H102.525L102.379 130.555L98.7567 130.705L98.8702 126.904Z" fill="white"/>
<path d="M98.7602 130.859C98.7189 130.859 98.6837 130.844 98.6545 130.814C98.6201 130.784 98.6055 130.746 98.6098 130.701L98.7198 126.9C98.7198 126.858 98.7344 126.823 98.7636 126.794C98.7928 126.765 98.8289 126.75 98.8702 126.75H102.525C102.568 126.752 102.604 126.768 102.634 126.798C102.664 126.829 102.679 126.865 102.679 126.908L102.533 130.559C102.531 130.598 102.517 130.632 102.488 130.659C102.46 130.688 102.426 130.702 102.387 130.705L98.7645 130.854L98.7602 130.859ZM99.0206 127.054L98.9192 130.547L102.236 130.413L102.37 127.062L99.0206 127.054Z" fill="black"/>
<path d="M101.226 130.583C101.226 130.583 102.85 128.555 101.339 126.778L104.182 121.704C104.209 121.653 104.248 121.616 104.301 121.594C104.355 121.571 104.409 121.567 104.464 121.583C104.52 121.598 104.564 121.63 104.597 121.677C104.631 121.724 104.645 121.776 104.641 121.834L104.389 130.932C104.386 131 104.368 131.063 104.336 131.123C104.304 131.182 104.26 131.232 104.205 131.271C104.15 131.311 104.089 131.337 104.022 131.348C103.956 131.36 103.89 131.356 103.824 131.337L101.226 130.583Z" fill="black"/>
<path d="M66.012 123.387L83.2313 124.125L98.9673 126.66V131.406H66.073L66.012 123.387Z" fill="white"/>
<path d="M98.9673 131.56H66.073C66.03 131.56 65.994 131.545 65.9639 131.515C65.9338 131.485 65.9183 131.449 65.9183 131.406L65.8659 123.391C65.8642 123.346 65.8805 123.308 65.9149 123.278C65.9458 123.248 65.9819 123.236 66.024 123.236L83.2433 123.975L99 126.51C99.0369 126.516 99.0679 126.533 99.0928 126.561C99.1168 126.59 99.1297 126.622 99.1297 126.66V131.406C99.1297 131.45 99.1143 131.487 99.0816 131.517C99.0498 131.548 99.012 131.562 98.9673 131.56ZM66.2148 131.256H98.8169V126.794L83.2064 124.279L66.1504 123.549L66.2148 131.256Z" fill="black"/>
<path d="M91.8199 125.646L93.3839 129.297L89.729 129.26L88.0111 125.646H91.8199Z" fill="white"/>
<path d="M93.3839 129.45L89.729 129.41C89.6654 129.411 89.6207 129.383 89.595 129.325L87.8728 125.71C87.8444 125.662 87.8444 125.613 87.8728 125.565C87.9028 125.516 87.9458 125.492 88.0025 125.492H91.8121C91.8783 125.492 91.9247 125.523 91.9496 125.585L93.5137 129.236C93.5395 129.283 93.5395 129.33 93.5137 129.377C93.4845 129.426 93.4407 129.451 93.3839 129.45ZM89.8261 129.106L93.1519 129.142L91.7185 125.78H88.25L89.8261 129.106Z" fill="black"/>
<path d="M89.1807 128.104C89.1807 128.104 91.2518 129.675 92.9938 128.104L98.1509 130.79C98.2033 130.815 98.2411 130.854 98.2661 130.905C98.2901 130.958 98.2953 131.011 98.2815 131.067C98.2678 131.123 98.2386 131.168 98.1922 131.203C98.1466 131.238 98.095 131.254 98.0375 131.252H88.9247C88.8576 131.25 88.7949 131.233 88.7365 131.202C88.6772 131.17 88.6282 131.128 88.5886 131.074C88.5491 131.02 88.5233 130.961 88.5113 130.895C88.4984 130.83 88.501 130.765 88.5182 130.701L89.1807 128.104Z" fill="black"/>
<path d="M66.6453 121.279L80.3515 113.065C80.4555 113.002 80.562 112.944 80.672 112.893C80.7812 112.841 80.8938 112.795 81.0081 112.754C81.1224 112.713 81.2384 112.678 81.3561 112.649C81.4738 112.619 81.5924 112.596 81.7128 112.579C81.8322 112.561 81.9534 112.55 82.0745 112.545C82.1957 112.54 82.3169 112.54 82.4381 112.546C82.5592 112.553 82.6795 112.565 82.799 112.584C82.9193 112.603 83.0379 112.627 83.1556 112.658C83.2725 112.688 83.3885 112.724 83.502 112.766C83.6163 112.809 83.728 112.856 83.8363 112.909C83.9454 112.961 84.052 113.02 84.1551 113.084C84.2582 113.147 84.3588 113.216 84.455 113.29C84.5513 113.363 84.6441 113.441 84.7326 113.524C84.8211 113.607 84.9053 113.694 84.9853 113.785C85.0652 113.876 85.1408 113.97 85.2113 114.069C85.2817 114.168 85.347 114.269 85.4081 114.374L93.3994 126.377L88.5267 128.04L82.7397 122.503L68.6683 131.427H56.1884C51.4327 129.529 55.1323 122.036 55.1323 122.036L66.6453 121.279Z" fill="white"/>
<path d="M68.652 131.561H56.1885C56.1696 131.565 56.1507 131.565 56.1318 131.561C55.8817 131.468 55.6445 131.351 55.4202 131.207C55.195 131.064 54.9888 130.899 54.7989 130.711C54.6098 130.524 54.4431 130.318 54.2979 130.095C54.1526 129.872 54.0332 129.635 53.9386 129.387C52.8094 126.446 54.9054 122.142 54.9948 121.964C55.0206 121.912 55.0627 121.884 55.1203 121.879L66.5972 121.14L80.2708 112.947C80.379 112.882 80.4899 112.822 80.605 112.767C80.7193 112.713 80.8362 112.665 80.9548 112.622C81.0743 112.58 81.1954 112.543 81.3183 112.512C81.4412 112.482 81.565 112.457 81.6904 112.439C81.8159 112.421 81.9422 112.409 82.0686 112.403C82.1949 112.398 82.3212 112.398 82.4475 112.405C82.5739 112.412 82.7002 112.425 82.8248 112.444C82.9503 112.463 83.074 112.489 83.1969 112.521C83.3198 112.553 83.4401 112.59 83.5587 112.633C83.6782 112.677 83.7942 112.727 83.9085 112.782C84.0219 112.837 84.1328 112.898 84.2411 112.964C84.3485 113.03 84.4533 113.102 84.5539 113.178C84.6544 113.255 84.7515 113.336 84.8435 113.423C84.9363 113.509 85.0248 113.599 85.1082 113.695C85.1915 113.789 85.2706 113.888 85.3445 113.991C85.4184 114.094 85.4863 114.2 85.5499 114.31L93.5378 126.308C93.5593 126.352 93.5593 126.397 93.5378 126.442C93.5197 126.488 93.4879 126.519 93.4407 126.536L88.5672 128.194C88.5096 128.212 88.458 128.201 88.4125 128.161L82.7277 122.71L68.7577 131.548C68.7233 131.566 68.689 131.571 68.652 131.561ZM56.2168 131.257H68.6073L82.6418 122.378C82.6693 122.356 82.7002 122.344 82.7354 122.344C82.7707 122.344 82.8016 122.356 82.8291 122.378L88.5508 127.866L93.1683 126.3L85.3024 114.46C85.244 114.359 85.1812 114.26 85.1133 114.166C85.0446 114.07 84.9724 113.979 84.895 113.891C84.8186 113.803 84.7369 113.72 84.651 113.64C84.5659 113.56 84.4765 113.485 84.3837 113.414C84.2909 113.343 84.1947 113.277 84.095 113.216C83.9953 113.155 83.8922 113.098 83.7873 113.048C83.6825 112.997 83.5742 112.951 83.465 112.911C83.355 112.871 83.2433 112.835 83.1299 112.807C83.0173 112.778 82.9022 112.754 82.787 112.737C82.671 112.718 82.555 112.706 82.4381 112.7C82.3212 112.694 82.2043 112.694 82.0875 112.7C81.9706 112.706 81.8546 112.717 81.7394 112.734C81.6234 112.751 81.5091 112.773 81.3957 112.802C81.2822 112.831 81.1705 112.865 81.0605 112.905C80.9505 112.944 80.8422 112.989 80.7374 113.04C80.6317 113.091 80.5286 113.146 80.4289 113.207L66.7227 121.421C66.7012 121.433 66.6789 121.44 66.654 121.44L55.25 122.163C54.9699 122.763 53.2443 126.661 54.2429 129.265C54.3279 129.491 54.4354 129.706 54.566 129.909C54.6957 130.113 54.8461 130.3 55.0163 130.472C55.1865 130.643 55.3729 130.795 55.5749 130.928C55.7777 131.06 55.9917 131.169 56.2168 131.257Z" fill="black"/>
<path d="M59.2504 106.951C59.2504 106.951 58.6171 100.624 59.9371 97.5084C61.196 94.5436 65.2729 96.6121 65.2729 96.6121C66.9624 104.209 63.372 102.733 63.372 102.733C63.372 102.733 63.5834 106.846 63.5834 106.951H59.2504Z" fill="#E5BFA7"/>
<path d="M53.496 110.963C51.1689 111.174 48.265 111.121 48.265 111.121C45.4222 110.911 45.9954 109.065 45.9954 109.065L48.4764 95.294C48.3707 94.7663 48.265 94.0281 48.265 94.0281L48.424 91.8668C48.3982 91.7619 48.3914 91.6554 48.4034 91.5479C48.4154 91.4414 48.4455 91.3391 48.4945 91.2429C48.5426 91.1458 48.6062 91.0607 48.6844 90.9868C48.7635 90.9129 48.852 90.8544 48.9517 90.8115L49.2688 92.183L49.4269 90.5605C49.4252 90.3749 49.4604 90.1961 49.53 90.0251C49.6005 89.8533 49.7019 89.702 49.8325 89.5705C49.8454 89.5611 49.8592 89.5559 49.8738 89.5533C49.8892 89.5508 49.9039 89.5516 49.9185 89.5568C49.9331 89.5611 49.946 89.5697 49.9563 89.5808C49.9674 89.592 49.9752 89.6049 49.9786 89.6195L50.1617 90.4548L50.3731 91.5093L50.4255 90.9292V90.0861C50.4255 89.6805 50.8844 89.4494 51.0795 89.3763C51.1018 89.3677 51.1224 89.3703 51.1431 89.3815C51.1637 89.3926 51.1766 89.4098 51.1809 89.433L51.5341 91.2987L51.3235 92.4589L51.9036 91.5626C51.9036 90.5072 52.5413 90.4024 52.5413 90.4024L52.647 91.8788L52.2414 92.8396C52.2096 92.9178 52.201 92.9986 52.2164 93.0811C52.2319 93.1644 52.268 93.2366 52.3256 93.2985C52.3831 93.3604 52.4528 93.4016 52.5344 93.4231C52.616 93.4437 52.6968 93.442 52.7767 93.4162L54.3202 92.9126L50.8397 95.6755L50.5235 107.28L53.5897 106.647L53.496 110.963ZM72.0835 108.168L77.1392 106.181C77.2354 106.143 77.3274 106.097 77.415 106.043C77.5027 105.989 77.5852 105.928 77.6617 105.859C77.739 105.79 77.8086 105.716 77.8722 105.635C77.9358 105.554 77.9917 105.467 78.0407 105.377C78.0888 105.286 78.1292 105.191 78.1601 105.093C78.1919 104.995 78.2151 104.896 78.2289 104.793C78.2426 104.691 78.2478 104.589 78.2435 104.486C78.2392 104.384 78.2254 104.281 78.2031 104.181L74.8859 89.4408L74.6745 88.2806L73.3021 85.7454L72.1359 84.0585C72.007 83.8299 71.8265 83.6529 71.5962 83.5274C71.5584 83.5025 71.5206 83.5042 71.4845 83.5308C71.4484 83.5583 71.4372 83.5936 71.4501 83.6365L71.6082 84.269L72.1359 85.4292L70.8692 83.8471C70.7935 83.6752 70.6844 83.5274 70.5417 83.4036C70.3999 83.2799 70.2384 83.1931 70.0571 83.1415C69.9763 83.1209 69.9067 83.1415 69.8499 83.2026C69.7932 83.2644 69.7786 83.334 69.8053 83.4131L70.1258 84.3747L71.6039 86.6951L69.3867 84.3747C69.3017 84.1908 69.1796 84.0361 69.0206 83.9107C68.8625 83.7852 68.6838 83.7018 68.4853 83.6606C68.4002 83.6408 68.3297 83.664 68.2713 83.7285C68.2137 83.7938 68.1999 83.8668 68.2292 83.9485L68.6356 85.1129L70.2195 87.2219L68.6356 85.9569C68.5849 85.8623 68.5231 85.7755 68.4492 85.6982C68.3753 85.62 68.2928 85.5538 68.2008 85.4979C68.1089 85.4429 68.0109 85.4008 67.9078 85.3716C67.8046 85.3433 67.6989 85.3286 67.5915 85.3278C67.5563 85.3252 67.5219 85.3312 67.4892 85.3458C67.4566 85.3613 67.4299 85.3828 67.4093 85.412C67.3887 85.4412 67.3758 85.4739 67.3724 85.5091C67.3689 85.5452 67.3741 85.5787 67.3887 85.6122L68.0023 87.0113L69.5328 87.948L67.0965 88.7593L71.8437 89.5705L74.28 102.862L71.2146 103.496L72.0835 108.168Z" fill="#E5BFA7"/>
<path d="M62.5281 101.995C62.5281 101.995 60.0909 103.999 58.4056 101.995C58.4056 101.995 55.6608 96.9294 60.2009 95.5587C61.4745 95.1608 62.7051 94.658 63.8919 94.0496C64.1927 93.8794 64.5141 93.7703 64.857 93.7239C65.1999 93.6766 65.5385 93.6947 65.8736 93.778C66.9014 94.0419 68.0384 94.707 67.1739 96.4017C65.6957 99.2987 63.2671 99.3588 63.2671 99.3588C63.2671 99.3588 61.8904 98.7263 61.8904 99.6751C61.8947 99.8169 61.9179 99.9552 61.9592 100.09C61.9996 100.226 62.0571 100.353 62.1319 100.473C62.2067 100.594 62.2952 100.703 62.3983 100.8C62.5006 100.897 62.6149 100.979 62.7386 101.047L62.5281 101.995Z" fill="black"/>
<path d="M63.6891 105.053L68.1235 103.999L72.8792 102.839L73.8297 107.799L69.2321 109.751L67.0278 121.988C67.0278 121.988 61.6017 122.438 60.1235 123.399C54.9819 126.734 53.0818 124.835 53.0818 124.835L54.7714 112.07H52.0016L52.1073 106.582L58.9746 105.528C58.9746 105.528 60.53 107.799 63.6891 105.053Z" fill="#FFEB9A"/>
<path d="M126.229 120.406C126.407 120.107 126.547 119.791 126.65 119.458C126.753 119.127 126.816 118.786 126.839 118.439C126.861 118.093 126.843 117.747 126.784 117.405C126.725 117.062 126.626 116.731 126.49 116.411C126.401 116.177 126.287 115.956 126.148 115.748C126.01 115.541 125.85 115.351 125.669 115.18C125.488 115.008 125.289 114.858 125.074 114.732C124.859 114.605 124.632 114.503 124.394 114.428C122.875 114.07 121.145 115.027 120.333 116.541C120.172 116.829 120.052 117.133 119.971 117.453C119.878 117.831 119.817 118.183 119.764 118.496C119.585 119.546 119.451 120.317 118.408 121.108C118.083 119.645 118.039 118.174 118.277 116.695C118.647 114.16 118.477 110.452 116.771 108.343C116.51 108.023 116.21 107.743 115.873 107.503C115.535 107.262 115.173 107.071 114.784 106.929C114.396 106.786 113.995 106.697 113.583 106.661C113.17 106.626 112.76 106.646 112.353 106.721H112.308C111.91 106.797 111.54 106.944 111.197 107.16C110.854 107.376 110.563 107.648 110.322 107.974C108.811 110.002 109.263 113.839 109.823 115.357C110.033 115.903 110.139 116.47 110.144 117.056C110.149 117.641 110.052 118.209 109.851 118.76C108.86 119.917 108.039 121.184 107.386 122.56C106.733 123.936 106.271 125.373 106.001 126.871C105.748 128.169 105.676 129.477 105.786 130.794L105.806 130.956C105.81 130.995 105.827 131.026 105.856 131.052C105.884 131.078 105.918 131.09 105.957 131.09L120.795 131.054C120.816 131.06 120.837 131.06 120.856 131.054C120.878 131.06 120.9 131.06 120.922 131.054H126.469C126.505 131.053 126.538 131.042 126.565 131.02C126.594 130.996 126.612 130.967 126.619 130.932L126.652 130.786C126.738 130.304 126.783 129.817 126.786 129.327C126.79 128.837 126.752 128.35 126.672 127.866C126.592 127.383 126.472 126.909 126.31 126.446C126.149 125.983 125.951 125.537 125.714 125.107C125.605 124.717 125.534 124.32 125.501 123.917C125.469 123.513 125.475 123.11 125.519 122.707C125.563 122.305 125.645 121.91 125.764 121.523C125.884 121.136 126.038 120.764 126.229 120.406ZM126.229 116.532C126.357 116.83 126.448 117.138 126.503 117.458C126.558 117.777 126.576 118.098 126.555 118.421C126.534 118.744 126.476 119.061 126.38 119.37C126.285 119.679 126.154 119.973 125.989 120.252C125.793 120.618 125.632 120.998 125.507 121.395C125.381 121.79 125.293 122.194 125.243 122.606C125.193 123.019 125.182 123.432 125.209 123.846C125.236 124.261 125.301 124.669 125.405 125.071C123.407 125.578 121.803 127.208 121.169 127.939C121.433 124.012 122.205 117.336 124.419 114.752C124.622 114.828 124.816 114.924 124.999 115.042C125.183 115.16 125.352 115.295 125.507 115.449C125.661 115.602 125.798 115.77 125.916 115.953C126.034 116.136 126.132 116.329 126.209 116.532H126.229ZM120.633 116.654C120.768 116.406 120.928 116.175 121.113 115.961C121.113 117.068 121.77 118.224 122.205 118.881C122.099 119.287 121.998 119.668 121.908 120.078C121.445 119.489 120.454 117.956 120.633 116.654ZM124.097 114.683C123.262 115.839 122.668 117.106 122.315 118.487C121.868 117.77 121.308 116.638 121.429 115.648C121.602 115.477 121.791 115.327 121.996 115.196C122.201 115.065 122.419 114.959 122.647 114.875C122.876 114.792 123.111 114.734 123.351 114.702C123.593 114.669 123.834 114.663 124.077 114.683H124.097ZM118.006 116.65C117.748 118.248 117.811 119.832 118.192 121.404C118.205 121.456 118.236 121.491 118.286 121.51C118.336 121.529 118.381 121.522 118.424 121.489C119.744 120.581 119.898 119.684 120.093 118.548C120.146 118.24 120.202 117.891 120.296 117.527C120.296 117.466 120.333 117.405 120.349 117.348C120.524 118.687 121.478 120.02 121.815 120.447C121.156 123.851 120.793 127.286 120.727 130.753H113.977C114.054 130.319 114.262 129.131 114.473 127.435C114.5 127.385 114.5 127.335 114.473 127.286C114.554 126.632 114.631 125.914 114.704 125.144C114.714 125.114 114.714 125.084 114.704 125.055C115.013 121.753 115.179 117.534 114.659 113.697C114.708 113.695 114.75 113.674 114.782 113.636L117.425 110.164C118.221 112.192 118.253 114.756 117.978 116.65H118.006ZM108.45 121.222L114.391 125.176C114.326 125.862 114.257 126.503 114.184 127.095L107.597 122.843C107.852 122.287 108.136 121.747 108.45 121.222ZM117.312 109.864C117.296 109.874 117.282 109.887 117.27 109.9L114.615 113.385C114.558 112.98 114.493 112.61 114.42 112.233C114.456 112.226 114.486 112.209 114.509 112.18L116.885 109.053C117.049 109.313 117.196 109.583 117.324 109.864H117.312ZM113.137 106.956H113.449C113.747 106.968 114.039 107.013 114.326 107.089C114.614 107.164 114.891 107.269 115.155 107.404C115.42 107.54 115.668 107.701 115.898 107.89C116.127 108.078 116.335 108.288 116.519 108.522C116.584 108.603 116.645 108.688 116.707 108.773L114.351 111.872C114.034 110.146 113.448 108.517 112.593 106.985C112.777 106.961 112.962 106.952 113.149 106.956H113.137ZM110.082 118.963C110.094 118.951 110.102 118.937 110.107 118.921C110.329 118.333 110.441 117.725 110.441 117.096C110.441 116.468 110.329 115.859 110.107 115.271C109.567 113.807 109.124 110.108 110.57 108.177C110.779 107.891 111.03 107.652 111.327 107.459C111.622 107.266 111.943 107.13 112.288 107.053C115.017 111.556 114.928 119.376 114.436 124.831L108.621 120.961C109.062 120.259 109.554 119.592 110.094 118.963H110.082ZM106.074 130.774C105.969 129.487 106.042 128.211 106.29 126.944C106.528 125.626 106.918 124.354 107.459 123.128L114.144 127.427C113.925 129.175 113.705 130.404 113.636 130.782H106.079L106.074 130.774ZM126.347 130.737V130.765H121.015C121.015 130.425 121.047 129.585 121.117 128.453C121.315 128.202 123.147 125.939 125.49 125.355C125.709 125.764 125.894 126.187 126.043 126.627C126.191 127.066 126.303 127.515 126.377 127.973C126.451 128.431 126.486 128.892 126.484 129.356C126.48 129.82 126.439 130.281 126.359 130.737H126.347Z" fill="black"/>
<path d="M31.924 56.5208C31.7711 56.5182 31.6353 56.4684 31.5175 56.3713C31.4617 56.3266 31.4144 56.275 31.3766 56.2148C31.3379 56.1555 31.3104 56.0911 31.2932 56.0215C31.2769 55.9527 31.2718 55.8831 31.2778 55.8118C31.2838 55.7413 31.3018 55.6734 31.3311 55.609L32.9879 51.7186C33.0352 51.606 33.024 51.4995 32.9553 51.398C32.8891 51.2932 32.7946 51.2425 32.6708 51.2442H28.9592C28.8732 51.2442 28.7907 51.2279 28.7117 51.1952C28.6326 51.1626 28.563 51.1153 28.5028 51.0552C28.4418 50.995 28.3954 50.9254 28.3628 50.8463C28.3301 50.7673 28.3129 50.6848 28.3129 50.5988V42.0403C28.3155 41.957 28.3336 41.8762 28.3671 41.7988C28.4006 41.7215 28.4478 41.6536 28.508 41.5952C28.5682 41.5367 28.6378 41.4912 28.716 41.4594C28.7933 41.4276 28.875 41.4121 28.9592 41.4121H55.7622C55.8473 41.4121 55.9298 41.4284 56.0089 41.4611C56.0879 41.4937 56.1584 41.5402 56.2186 41.6012C56.2787 41.6613 56.326 41.7309 56.3586 41.81C56.3913 41.8891 56.4076 41.9716 56.4076 42.0566V50.6117C56.4076 50.6968 56.3913 50.7793 56.3586 50.8584C56.326 50.9374 56.2787 51.007 56.2186 51.0672C56.1584 51.1282 56.0879 51.1746 56.0089 51.2073C55.9298 51.2399 55.8473 51.2563 55.7622 51.2563H40.2247C40.1568 51.2571 40.0941 51.276 40.0374 51.313L32.2807 56.4194C32.1724 56.4898 32.0529 56.5234 31.924 56.5208ZM28.9592 41.7C28.9136 41.7 28.8707 41.7086 28.8286 41.7258C28.7864 41.743 28.7495 41.7679 28.7177 41.7997C28.6859 41.8315 28.661 41.8684 28.6438 41.9105C28.6266 41.9518 28.618 41.9956 28.618 42.0403V50.6117C28.6189 50.6564 28.6275 50.6994 28.6446 50.7415C28.6627 50.7827 28.6868 50.8197 28.7194 50.8515C28.7512 50.8833 28.7873 50.9073 28.8294 50.9254C28.8707 50.9426 28.9136 50.9512 28.9592 50.952H32.6708C32.7791 50.952 32.8814 50.9778 32.9768 51.0294C33.0721 51.0801 33.1503 51.1505 33.2114 51.2399C33.2715 51.3302 33.3068 51.429 33.3171 51.5373C33.3274 51.6447 33.3111 51.7487 33.2681 51.8484L31.6112 55.7422C31.5854 55.8109 31.582 55.8805 31.6018 55.951C31.6215 56.0223 31.6593 56.0799 31.7169 56.1263C31.7736 56.1719 31.8389 56.1968 31.912 56.2011C31.985 56.2054 32.0529 56.1873 32.1148 56.1478L39.8629 51.0577C39.9703 50.9873 40.0881 50.952 40.2161 50.952H55.7579C55.8035 50.952 55.8464 50.9434 55.8886 50.9263C55.9307 50.9091 55.9668 50.8841 55.9994 50.8523C56.0312 50.8205 56.0561 50.7836 56.0733 50.7415C56.0905 50.7002 56.0991 50.6564 56.0991 50.6117V42.0403C56.1 41.9956 56.0914 41.9518 56.0742 41.9097C56.057 41.8676 56.0321 41.8306 56.0003 41.7988C55.9685 41.7662 55.9315 41.7421 55.8894 41.7249C55.8473 41.7077 55.8035 41.6991 55.7579 41.7H28.9592Z" fill="black"/>
<path d="M150.1 58.0953C149.288 59.5631 147.607 60.6949 147.607 60.6949C143.298 60.2446 145.678 52.2627 145.678 52.2627C148.512 53.5079 150.892 56.6223 150.1 58.0953Z" fill="#F2DCD1"/>
<path d="M152.764 63.0762C153.047 64.5629 153.572 65.9577 154.34 67.2622C155.359 68.8847 156.89 68.3373 156.89 68.3373L162.868 84.8656L145.962 89.2751L147.209 78.1247C147.038 78.4641 146.839 78.7855 146.609 79.0889C146.38 79.3923 146.125 79.6716 145.844 79.9285C145.563 80.1846 145.261 80.4141 144.939 80.6152C144.616 80.8162 144.277 80.9864 143.924 81.1256C141.6 81.9738 132.025 80.1605 132.025 80.1605L135.026 74.1613L141.828 74.5669C141.828 74.5669 145.621 68.0004 146.645 65.4566C147.457 63.4285 149.893 62.4798 150.884 62.1755C151.227 62.0587 151.569 62.0587 151.912 62.1755C152.122 62.2417 152.303 62.3552 152.455 62.5159C152.606 62.6757 152.709 62.8622 152.764 63.0762Z" fill="white"/>
<path d="M145.962 89.4291C145.92 89.4282 145.885 89.4128 145.856 89.3827C145.826 89.3526 145.812 89.3165 145.812 89.2753L146.977 78.8545C146.619 79.4088 146.183 79.8943 145.671 80.3103C145.158 80.7262 144.593 81.0519 143.976 81.2882C141.641 82.1399 132.386 80.4082 131.996 80.3309C131.945 80.324 131.908 80.2974 131.886 80.2501C131.865 80.2054 131.865 80.1607 131.886 80.116L134.892 74.1167C134.919 74.0557 134.966 74.0274 135.034 74.0317L141.743 74.4373C142.181 73.675 145.56 67.7814 146.502 65.4285C147.314 63.3522 149.812 62.3785 150.835 62.058C151.216 61.9368 151.594 61.9446 151.968 62.0821C152.2 62.1551 152.4 62.2797 152.567 62.4559C152.735 62.6312 152.849 62.8374 152.91 63.0721L152.943 63.2104C153.226 64.6327 153.737 65.9664 154.478 67.2134C155.42 68.7267 156.789 68.2481 156.845 68.2274C156.885 68.2128 156.924 68.2128 156.963 68.2274C157.001 68.2455 157.028 68.2739 157.045 68.3125L162.994 84.8134C163.009 84.8538 163.009 84.8942 162.994 84.9346C162.972 84.9732 162.939 84.999 162.896 85.0119L146.01 89.4248L145.962 89.4291ZM147.209 77.9788H147.25C147.286 77.9882 147.314 78.008 147.335 78.0389C147.357 78.0699 147.366 78.1034 147.363 78.1412L146.144 89.0724L162.653 84.7567L156.809 68.5317C156.685 68.5609 156.559 68.5789 156.432 68.5867C156.304 68.5953 156.177 68.5927 156.05 68.5798C155.923 68.5669 155.798 68.5446 155.675 68.511C155.552 68.4775 155.432 68.4346 155.316 68.3821C155.2 68.3289 155.089 68.267 154.983 68.1965C154.876 68.1252 154.777 68.0461 154.684 67.9585C154.591 67.8717 154.506 67.7771 154.429 67.6757C154.351 67.5752 154.282 67.4678 154.222 67.3552C153.464 66.0799 152.94 64.7143 152.651 63.2585L152.618 63.121C152.568 62.9346 152.476 62.773 152.342 62.6346C152.207 62.4971 152.047 62.4009 151.863 62.3459C151.552 62.2393 151.243 62.2393 150.933 62.3459C149.946 62.6544 147.57 63.5628 146.791 65.5385C145.775 68.065 141.999 74.604 141.962 74.6685C141.93 74.7226 141.883 74.7475 141.82 74.7415L135.123 74.3359L132.256 80.0671C133.637 80.3189 141.799 81.7592 143.875 80.996C144.219 80.8603 144.548 80.6944 144.862 80.4993C145.176 80.3034 145.47 80.0808 145.743 79.8316C146.016 79.5824 146.265 79.3108 146.489 79.0169C146.712 78.7221 146.907 78.4102 147.075 78.0802C147.097 78.0157 147.141 77.9822 147.209 77.9788Z" fill="black"/>
<path d="M147.095 64.6415C147.059 64.6415 147.027 64.6303 146.999 64.6071C146.972 64.5848 146.955 64.5547 146.949 64.5195C146.921 64.3433 146.908 64.1654 146.908 63.9867C146.909 63.8079 146.924 63.6309 146.952 63.4539C146.981 63.2777 147.024 63.105 147.079 62.9348C147.135 62.7655 147.204 62.6005 147.286 62.4415C147.367 62.2825 147.461 62.1313 147.567 61.9869C147.672 61.8425 147.788 61.7076 147.916 61.5821C148.043 61.4558 148.179 61.3407 148.324 61.2358C148.468 61.1318 148.621 61.039 148.78 60.9582C149.309 60.685 149.85 60.44 150.405 60.2243C152.216 59.4861 153.926 58.7883 154.811 56.1681C154.826 56.1285 154.852 56.0993 154.889 56.0813C154.927 56.0632 154.966 56.0615 155.006 56.0744C155.045 56.0882 155.074 56.1131 155.092 56.1509C155.11 56.1878 155.113 56.2265 155.099 56.2652C154.169 59.0118 152.314 59.7654 150.519 60.4959C149.964 60.7082 149.423 60.9488 148.894 61.2178C148.748 61.2908 148.608 61.375 148.476 61.4696C148.343 61.565 148.218 61.6689 148.102 61.7841C147.986 61.8984 147.879 62.0213 147.782 62.1528C147.685 62.2843 147.599 62.4218 147.525 62.567C147.45 62.7122 147.386 62.8618 147.335 63.0164C147.284 63.1711 147.244 63.3293 147.218 63.49C147.192 63.6515 147.178 63.8131 147.177 63.9764C147.176 64.1396 147.188 64.3012 147.213 64.4628C147.22 64.5032 147.213 64.541 147.19 64.5753C147.167 64.6106 147.135 64.6321 147.095 64.6415ZM147.688 60.8242C147.822 60.7391 150.937 58.7075 151.855 57.7459C151.94 57.6522 152.041 57.5508 152.155 57.4374C153.227 56.3709 155.461 54.1477 154.035 50.6758C154.021 50.6371 153.994 50.6096 153.955 50.5942C153.917 50.5778 153.879 50.5778 153.84 50.595C153.801 50.6096 153.772 50.6371 153.756 50.6758C153.739 50.7153 153.739 50.754 153.755 50.7935C155.099 54.0746 153.044 56.1234 151.944 57.2225C151.827 57.336 151.721 57.4417 151.632 57.5345C150.75 58.4721 147.57 60.5483 147.521 60.5689C147.487 60.5921 147.464 60.6239 147.456 60.6652C147.447 60.7064 147.454 60.7443 147.476 60.7795C147.508 60.825 147.552 60.8474 147.607 60.8491C147.636 60.8491 147.664 60.8405 147.688 60.8242Z" fill="black"/>
<path d="M25.2269 78.4131L23.2615 80.0717L31.2898 86.1114L29.7593 89.2756C27.7973 89.2756 19.8257 85.3122 19.8257 85.3122" fill="#FFEB9A"/>
<path d="M154.047 110.485H153.995C153.955 110.47 153.927 110.444 153.909 110.406C153.892 110.368 153.891 110.329 153.905 110.29L160.931 91.1979C160.945 91.1584 160.972 91.13 161.01 91.1128C161.048 91.0956 161.086 91.0939 161.126 91.1085C161.165 91.1231 161.194 91.1498 161.211 91.1876C161.228 91.2254 161.23 91.2641 161.215 91.3036L154.19 110.395C154.161 110.456 154.114 110.486 154.047 110.485Z" fill="black"/>
<path d="M29.7593 89.4292C27.781 89.4292 20.0853 85.6161 19.757 85.4537C19.7355 85.4468 19.7166 85.4357 19.7003 85.4211C19.6831 85.4056 19.6711 85.3875 19.6625 85.3669C19.6539 85.3454 19.6496 85.324 19.6504 85.3016C19.6513 85.2793 19.6573 85.2578 19.6676 85.238C19.6779 85.2182 19.6917 85.2011 19.7089 85.1873C19.7269 85.1727 19.7467 85.1632 19.7682 85.1581C19.7905 85.1529 19.812 85.1521 19.8343 85.1564C19.8567 85.1607 19.8765 85.1693 19.8945 85.1822C19.9718 85.2191 27.6108 89.0029 29.6656 89.125L31.0793 86.1558L23.1679 80.1935C23.1275 80.1643 23.1077 80.1256 23.1068 80.0757C23.1034 80.0207 23.1232 79.9778 23.1679 79.946L25.1332 78.2831C25.1633 78.2539 25.1994 78.2393 25.2415 78.2393C25.2828 78.2393 25.3189 78.2539 25.349 78.2831C25.3773 78.3123 25.3919 78.3475 25.3919 78.3879C25.3919 78.4292 25.3773 78.4644 25.349 78.4936L23.5297 80.0354L31.3878 85.9573C31.4161 85.9788 31.435 86.0072 31.4436 86.0424C31.4522 86.0776 31.4479 86.1111 31.4325 86.1438L29.9217 89.3115C29.9131 89.3493 29.8942 89.3793 29.8632 89.4017C29.8315 89.424 29.7971 89.4335 29.7593 89.4292Z" fill="black"/>
<path d="M121.941 47.8576C121.705 47.8525 121.472 47.8361 121.238 47.8078C121.004 47.7803 120.773 47.7416 120.543 47.6909C120.313 47.6411 120.086 47.58 119.863 47.5079C119.639 47.4357 119.42 47.3532 119.204 47.2595C118.987 47.1658 118.777 47.0627 118.571 46.9493C118.365 46.835 118.166 46.7121 117.971 46.5789C117.778 46.4457 117.591 46.3039 117.411 46.1526C117.231 46.0014 117.059 45.8424 116.894 45.6748C116.73 45.5064 116.573 45.3311 116.425 45.1489C116.278 44.9658 116.139 44.7759 116.01 44.58C115.881 44.384 115.762 44.1821 115.652 43.9741C115.542 43.7661 115.443 43.5539 115.354 43.3364C115.264 43.119 115.186 42.8973 115.119 42.673C115.051 42.4479 114.995 42.2201 114.949 41.9898C114.904 41.7595 114.869 41.5275 114.846 41.2937C114.823 41.06 114.811 40.8254 114.811 40.5907C114.811 40.3553 114.821 40.1215 114.843 39.8878C114.866 39.654 114.899 39.4211 114.944 39.1908C114.989 38.9605 115.045 38.7328 115.111 38.5076C115.179 38.2825 115.257 38.0607 115.344 37.8433C115.433 37.625 115.532 37.4128 115.641 37.2039C115.75 36.996 115.869 36.794 115.997 36.5972C116.126 36.4004 116.263 36.2105 116.41 36.0275C116.558 35.8436 116.713 35.6682 116.877 35.4998C117.041 35.3314 117.213 35.1715 117.392 35.0194C117.572 34.8682 117.758 34.7255 117.952 34.5914C118.145 34.4582 118.344 34.3336 118.55 34.2193C118.755 34.105 118.966 34.0011 119.181 33.9065C119.396 33.8129 119.616 33.7295 119.84 33.6564C120.063 33.5834 120.29 33.5215 120.52 33.4708C120.749 33.4201 120.98 33.3806 121.214 33.3514C121.447 33.323 121.681 33.3058 121.917 33.2998H121.941C122.176 33.305 122.41 33.3213 122.644 33.3496C122.878 33.3771 123.109 33.4158 123.338 33.4665C123.569 33.5164 123.795 33.5774 124.019 33.6496C124.242 33.7218 124.462 33.8043 124.678 33.8979C124.894 33.9907 125.105 34.0947 125.311 34.2082C125.517 34.3225 125.716 34.4454 125.91 34.5786C126.104 34.7118 126.291 34.8536 126.471 35.0048C126.651 35.1561 126.823 35.315 126.988 35.4826C127.152 35.6511 127.309 35.8264 127.456 36.0086C127.603 36.1916 127.742 36.3815 127.872 36.5775C128 36.7734 128.12 36.9754 128.23 37.1833C128.339 37.3913 128.439 37.6036 128.528 37.821C128.617 38.0384 128.696 38.2593 128.763 38.4844C128.831 38.7096 128.887 38.9373 128.933 39.1676C128.978 39.3979 129.013 39.63 129.036 39.8637C129.059 40.0975 129.07 40.3321 129.071 40.5667C129.071 40.8013 129.06 41.0359 129.039 41.2696C129.016 41.5034 128.983 41.7354 128.937 41.9666C128.892 42.1969 128.837 42.4246 128.77 42.6498C128.703 42.875 128.625 43.0967 128.537 43.3141C128.449 43.5315 128.35 43.7446 128.241 43.9526C128.132 44.1614 128.013 44.3634 127.884 44.5602C127.756 44.757 127.618 44.9469 127.471 45.13C127.324 45.3139 127.169 45.4892 127.004 45.6576C126.841 45.8261 126.669 45.9859 126.49 46.1371C126.31 46.2893 126.124 46.4319 125.93 46.566C125.737 46.6992 125.537 46.8229 125.332 46.9381C125.127 47.0524 124.916 47.1564 124.7 47.25C124.486 47.3446 124.266 47.4279 124.042 47.501C123.819 47.574 123.592 47.6359 123.362 47.6866C123.133 47.7373 122.902 47.7768 122.668 47.8061C122.434 47.8344 122.2 47.8516 121.965 47.8576H121.941ZM121.941 33.604H121.917C121.692 33.61 121.467 33.6264 121.243 33.6539C121.02 33.6814 120.798 33.72 120.578 33.769C120.358 33.8171 120.141 33.8773 119.927 33.9469C119.713 34.0165 119.503 34.0964 119.297 34.1867C119.09 34.2769 118.888 34.3775 118.692 34.4866C118.495 34.5966 118.304 34.7152 118.119 34.8432C117.934 34.9713 117.756 35.1079 117.584 35.254C117.411 35.3993 117.247 35.5522 117.09 35.7138C116.933 35.8745 116.784 36.0429 116.643 36.2191C116.503 36.3944 116.37 36.5766 116.248 36.7648C116.125 36.9539 116.01 37.1472 115.906 37.3466C115.802 37.546 115.707 37.7505 115.623 37.9585C115.539 38.1673 115.464 38.3796 115.4 38.5953C115.336 38.811 115.283 39.0293 115.24 39.2501C115.197 39.471 115.165 39.6936 115.143 39.917C115.122 40.1413 115.111 40.3656 115.111 40.5907C115.112 40.8159 115.124 41.0402 115.146 41.2636C115.167 41.4879 115.201 41.7105 115.244 41.9305C115.288 42.1514 115.342 42.3696 115.407 42.5854C115.472 42.8002 115.546 43.0125 115.632 43.2204C115.717 43.4293 115.813 43.6329 115.918 43.8314C116.022 44.0308 116.137 44.2242 116.26 44.4124C116.384 44.5997 116.517 44.7819 116.658 44.9564C116.8 45.1317 116.95 45.3001 117.107 45.4608C117.264 45.6215 117.43 45.7736 117.602 45.9189C117.775 46.0632 117.953 46.1999 118.139 46.3271C118.325 46.4543 118.516 46.5729 118.713 46.682C118.91 46.7911 119.112 46.89 119.319 46.9793C119.525 47.0687 119.736 47.1486 119.951 47.2174C120.165 47.287 120.382 47.3454 120.602 47.3936C120.822 47.4417 121.044 47.4786 121.267 47.5053C121.491 47.5328 121.716 47.5482 121.941 47.5534H121.965C122.19 47.5474 122.414 47.5311 122.639 47.5036C122.862 47.4761 123.084 47.4374 123.304 47.3884C123.523 47.3394 123.74 47.2801 123.954 47.2105C124.168 47.1409 124.379 47.061 124.585 46.9707C124.792 46.8805 124.993 46.78 125.19 46.6708C125.386 46.5608 125.578 46.4422 125.763 46.3142C125.948 46.1861 126.126 46.0495 126.298 45.9034C126.47 45.7582 126.635 45.6052 126.792 45.4436C126.949 45.2821 127.098 45.1136 127.238 44.9383C127.379 44.763 127.511 44.5808 127.634 44.3926C127.757 44.2036 127.872 44.0102 127.975 43.8108C128.079 43.6114 128.174 43.4069 128.259 43.1989C128.343 42.9901 128.418 42.7779 128.482 42.5621C128.546 42.3464 128.599 42.1282 128.642 41.9073C128.685 41.6864 128.717 41.4639 128.739 41.2404C128.76 41.0161 128.77 40.7918 128.77 40.5667C128.77 40.3415 128.758 40.1172 128.736 39.8938C128.715 39.6695 128.681 39.4469 128.637 39.2269C128.594 39.0061 128.54 38.7878 128.475 38.5721C128.41 38.3564 128.335 38.145 128.25 37.937C128.165 37.7282 128.069 37.5245 127.964 37.326C127.859 37.1266 127.745 36.9332 127.621 36.745C127.497 36.5577 127.364 36.3755 127.224 36.2002C127.082 36.0257 126.932 35.8573 126.775 35.6966C126.617 35.5359 126.452 35.3829 126.28 35.2386C126.107 35.0933 125.928 34.9575 125.743 34.8304C125.557 34.7023 125.366 34.5846 125.169 34.4754C124.971 34.3663 124.77 34.2675 124.563 34.1781C124.357 34.0887 124.146 34.0088 123.931 33.94C123.717 33.8704 123.5 33.812 123.28 33.7639C123.06 33.7157 122.838 33.6788 122.614 33.6513C122.39 33.6246 122.166 33.6092 121.941 33.604Z" fill="black"/>
<path d="M131.635 64.3377C131.435 64.3377 131.236 64.3274 131.037 64.3085C130.839 64.2887 130.642 64.2595 130.446 64.2208C130.25 64.1813 130.057 64.1332 129.866 64.0756C129.675 64.018 129.488 63.951 129.303 63.8745C129.119 63.798 128.939 63.7129 128.763 63.6193C128.587 63.5247 128.416 63.4225 128.25 63.3125C128.085 63.2016 127.925 63.083 127.77 62.9567C127.616 62.8303 127.468 62.6963 127.328 62.5553C127.186 62.4144 127.053 62.2675 126.925 62.1128C126.799 61.9589 126.68 61.7991 126.57 61.6332C126.459 61.4674 126.356 61.2972 126.262 61.1211C126.168 60.9457 126.083 60.7653 126.007 60.5814C125.93 60.3975 125.863 60.2101 125.806 60.0193C125.747 59.8286 125.699 59.6361 125.66 59.4401C125.621 59.245 125.592 59.0482 125.573 58.8497C125.553 58.6512 125.543 58.4527 125.543 58.2533C125.543 58.0539 125.553 57.8554 125.573 57.6569C125.592 57.4584 125.621 57.2616 125.66 57.0665C125.699 56.8706 125.747 56.6781 125.806 56.4873C125.863 56.2965 125.93 56.1092 126.007 55.9253C126.083 55.7405 126.168 55.5609 126.262 55.3847C126.356 55.2094 126.459 55.0384 126.57 54.8734C126.68 54.7075 126.799 54.5477 126.925 54.393C127.053 54.2392 127.186 54.0922 127.328 53.9513C127.468 53.8104 127.616 53.6763 127.77 53.55C127.925 53.4236 128.085 53.305 128.25 53.1942C128.416 53.0833 128.587 52.9811 128.763 52.8874C128.939 52.7937 129.119 52.7086 129.303 52.6321C129.488 52.5557 129.675 52.4886 129.866 52.4311C130.057 52.3735 130.25 52.3245 130.446 52.2858C130.642 52.2471 130.839 52.2179 131.037 52.1982C131.236 52.1784 131.435 52.1689 131.635 52.1689C131.834 52.1689 132.033 52.1784 132.232 52.1982C132.43 52.2179 132.627 52.2471 132.823 52.2858C133.018 52.3245 133.212 52.3735 133.403 52.4311C133.594 52.4886 133.781 52.5557 133.965 52.6321C134.15 52.7086 134.331 52.7937 134.506 52.8874C134.682 52.9811 134.853 53.0833 135.019 53.1942C135.185 53.305 135.345 53.4236 135.499 53.55C135.653 53.6763 135.801 53.8104 135.942 53.9513C136.083 54.0922 136.217 54.2392 136.343 54.393C136.47 54.5477 136.589 54.7075 136.7 54.8734C136.811 55.0384 136.913 55.2094 137.007 55.3847C137.101 55.5609 137.186 55.7405 137.263 55.9253C137.339 56.1092 137.406 56.2965 137.464 56.4873C137.521 56.6781 137.57 56.8706 137.609 57.0665C137.648 57.2616 137.677 57.4584 137.697 57.6569C137.717 57.8554 137.726 58.0539 137.726 58.2533C137.726 58.4527 137.717 58.6512 137.697 58.8497C137.677 59.0482 137.648 59.245 137.609 59.4401C137.57 59.6361 137.521 59.8286 137.464 60.0193C137.406 60.2101 137.339 60.3975 137.263 60.5814C137.186 60.7653 137.101 60.9457 137.007 61.1211C136.913 61.2972 136.811 61.4674 136.7 61.6332C136.589 61.7991 136.47 61.9589 136.343 62.1128C136.217 62.2675 136.083 62.4144 135.942 62.5553C135.801 62.6963 135.653 62.8303 135.499 62.9567C135.345 63.083 135.185 63.2016 135.019 63.3125C134.853 63.4225 134.682 63.5247 134.506 63.6193C134.331 63.7129 134.15 63.798 133.965 63.8745C133.781 63.951 133.594 64.018 133.402 64.0756C133.212 64.1332 133.018 64.1813 132.823 64.2208C132.627 64.2595 132.43 64.2887 132.232 64.3085C132.033 64.3274 131.834 64.3377 131.635 64.3377ZM131.635 52.4689C131.445 52.4689 131.256 52.4783 131.067 52.4972C130.878 52.5153 130.691 52.5436 130.505 52.5806C130.319 52.6175 130.135 52.6631 129.954 52.7181C129.772 52.7731 129.594 52.8367 129.418 52.9097C129.243 52.9819 129.072 53.0627 128.904 53.1521C128.738 53.2414 128.575 53.3386 128.417 53.4443C128.26 53.5491 128.108 53.6617 127.961 53.782C127.814 53.9023 127.674 54.0295 127.54 54.1636C127.406 54.2976 127.279 54.4377 127.158 54.5838C127.038 54.7299 126.924 54.882 126.82 55.0401C126.714 55.1974 126.617 55.3598 126.527 55.5265C126.438 55.6941 126.357 55.8651 126.284 56.0396C126.212 56.2149 126.148 56.3928 126.093 56.5741C126.038 56.7554 125.992 56.9393 125.955 57.125C125.918 57.3106 125.89 57.4979 125.872 57.6861C125.853 57.8752 125.843 58.0634 125.843 58.2533C125.843 58.4424 125.853 58.6314 125.872 58.8205C125.89 59.0087 125.918 59.1961 125.955 59.3817C125.992 59.5673 126.038 59.7512 126.093 59.9325C126.148 60.1139 126.212 60.2918 126.284 60.4671C126.357 60.6415 126.438 60.8125 126.527 60.9801C126.617 61.1468 126.714 61.3093 126.82 61.4665C126.924 61.6238 127.038 61.7759 127.158 61.9228C127.279 62.0689 127.406 62.209 127.54 62.3431C127.674 62.4771 127.814 62.6043 127.961 62.7246C128.108 62.845 128.26 62.9575 128.417 63.0624C128.575 63.1681 128.738 63.2652 128.904 63.3546C129.072 63.4439 129.243 63.5247 129.418 63.5969C129.594 63.6691 129.772 63.7336 129.954 63.7886C130.135 63.8436 130.319 63.8891 130.505 63.9261C130.691 63.963 130.878 63.9905 131.067 64.0094C131.256 64.0283 131.445 64.0369 131.635 64.0369C131.825 64.0369 132.014 64.0283 132.202 64.0094C132.391 63.9905 132.578 63.963 132.765 63.9261C132.95 63.8891 133.134 63.8436 133.316 63.7886C133.497 63.7336 133.676 63.6691 133.851 63.5969C134.026 63.5247 134.197 63.4439 134.364 63.3546C134.532 63.2652 134.694 63.1681 134.852 63.0624C135.009 62.9575 135.162 62.845 135.309 62.7246C135.455 62.6043 135.596 62.4771 135.73 62.3431C135.864 62.209 135.991 62.0689 136.111 61.9228C136.232 61.7759 136.344 61.6238 136.45 61.4665C136.555 61.3093 136.653 61.1468 136.742 60.9801C136.831 60.8125 136.912 60.6415 136.985 60.4671C137.057 60.2918 137.121 60.1139 137.176 59.9325C137.231 59.7512 137.277 59.5673 137.314 59.3817C137.351 59.1961 137.38 59.0087 137.398 58.8205C137.417 58.6314 137.426 58.4424 137.426 58.2533C137.425 58.0643 137.416 57.8752 137.397 57.6861C137.378 57.4979 137.35 57.3114 137.313 57.125C137.276 56.9393 137.23 56.7563 137.174 56.575C137.119 56.3936 137.056 56.2157 136.983 56.0413C136.91 55.866 136.829 55.695 136.739 55.5282C136.65 55.3615 136.553 55.1991 136.447 55.0418C136.342 54.8846 136.229 54.7325 136.109 54.5864C135.988 54.4394 135.861 54.2993 135.727 54.1653C135.593 54.0321 135.453 53.9049 135.306 53.7846C135.16 53.6643 135.008 53.5517 134.85 53.4468C134.692 53.3411 134.53 53.244 134.363 53.1546C134.196 53.0653 134.025 52.9845 133.849 52.9114C133.674 52.8393 133.496 52.7748 133.315 52.7198C133.133 52.6648 132.95 52.6184 132.764 52.5814C132.578 52.5445 132.391 52.5161 132.202 52.4981C132.014 52.4792 131.825 52.4697 131.635 52.4689Z" fill="black"/>
<path d="M131.635 56.7036L133.665 55.6328L133.259 57.8964L134.904 59.518L132.63 59.8515L131.611 61.908L130.595 59.8515L128.321 59.518L129.966 57.8964L129.559 55.6328L131.635 56.7036Z" fill="#FFEB9A"/>
<path d="M121.953 44.5721C118.846 42.9694 116.982 39.299 119.061 38.1346C120.905 37.1205 121.937 39.6677 121.937 39.6677C121.937 39.6677 122.952 37.1128 124.804 38.1148C126.891 39.2457 125.052 42.9496 121.953 44.5721Z" fill="black"/>
</svg>
