<svg width="165" height="165" viewBox="0 0 165 165" fill="none" xmlns="http://www.w3.org/2000/svg">
<path d="M127.44 91.3519H100.267C100.17 91.3519 100.079 91.333 99.9891 91.296C99.9006 91.2591 99.8216 91.2066 99.7537 91.1388C99.6858 91.0709 99.6334 90.9918 99.5964 90.9033C99.5595 90.8139 99.5414 90.7211 99.5414 90.6248V77.3501C99.5414 77.2538 99.5595 77.161 99.5964 77.0716C99.6334 76.9831 99.6858 76.9041 99.7537 76.8362C99.8216 76.7683 99.9006 76.7159 99.9891 76.6789C100.079 76.642 100.17 76.623 100.267 76.623H127.44C127.536 76.623 127.629 76.642 127.718 76.6789C127.806 76.7159 127.885 76.7683 127.953 76.8362C128.021 76.9041 128.074 76.9831 128.11 77.0716C128.147 77.161 128.165 77.2538 128.165 77.3501V90.6248C128.165 90.7211 128.147 90.8139 128.11 90.9033C128.074 90.9918 128.021 91.0709 127.953 91.1388C127.885 91.2066 127.806 91.2591 127.718 91.296C127.629 91.333 127.536 91.3519 127.44 91.3519ZM96.2139 90.6248V77.3501C96.2139 77.2538 96.195 77.161 96.1581 77.0716C96.1211 76.9831 96.0687 76.9041 96.0008 76.8362C95.9329 76.7683 95.8547 76.7159 95.7653 76.6789C95.6768 76.642 95.584 76.623 95.4877 76.623H68.3143C68.2181 76.623 68.1261 76.642 68.0367 76.6789C67.9482 76.7159 67.87 76.7683 67.8013 76.8362C67.7334 76.9041 67.6809 76.9831 67.644 77.0716C67.607 77.161 67.589 77.2538 67.589 77.3501V90.6248C67.589 90.7211 67.607 90.8139 67.644 90.9033C67.6809 90.9918 67.7334 91.0709 67.8013 91.1388C67.8691 91.2066 67.9482 91.2591 68.0367 91.296C68.1261 91.333 68.2181 91.3519 68.3143 91.3519H95.4877C95.584 91.3519 95.6768 91.333 95.7653 91.296C95.8547 91.2591 95.9329 91.2066 96.0008 91.1388C96.0687 91.0709 96.1211 90.9918 96.1581 90.9033C96.195 90.8139 96.2139 90.7211 96.2139 90.6248ZM96.348 107.944V94.6656C96.348 94.5694 96.3291 94.4766 96.2921 94.3872C96.256 94.2987 96.2036 94.2196 96.1348 94.1517C96.067 94.0838 95.9888 94.0314 95.8994 93.9945C95.8109 93.9575 95.7181 93.9386 95.6218 93.9386H68.4492C68.353 93.9386 68.2602 93.9575 68.1716 93.9945C68.0823 94.0314 68.0041 94.0838 67.9362 94.1517C67.8674 94.2196 67.815 94.2987 67.7781 94.3872C67.742 94.4766 67.7231 94.5694 67.7231 94.6656V107.952C67.7231 108.048 67.742 108.141 67.7781 108.229C67.815 108.319 67.8674 108.397 67.9362 108.465C68.0041 108.533 68.0823 108.586 68.1716 108.623C68.2602 108.66 68.353 108.678 68.4492 108.678H95.6218C95.7181 108.678 95.8109 108.66 95.8994 108.623C95.9888 108.586 96.067 108.533 96.1348 108.465C96.2036 108.397 96.256 108.319 96.2921 108.229C96.3291 108.141 96.348 108.048 96.348 107.952V107.944ZM96.348 125.024V111.756C96.348 111.66 96.3291 111.567 96.2921 111.478C96.256 111.389 96.2036 111.31 96.1348 111.242C96.067 111.174 95.9888 111.122 95.8994 111.085C95.8109 111.048 95.7181 111.029 95.6218 111.029H68.4492C68.353 111.029 68.2602 111.048 68.1716 111.085C68.0823 111.122 68.0041 111.174 67.9362 111.242C67.8674 111.31 67.815 111.389 67.7781 111.478C67.742 111.567 67.7231 111.66 67.7231 111.756V125.042C67.7231 125.138 67.742 125.231 67.7781 125.32C67.815 125.409 67.8674 125.487 67.9362 125.556C68.0041 125.624 68.0823 125.676 68.1716 125.713C68.2602 125.75 68.353 125.768 68.4492 125.768H95.6218C95.7181 125.768 95.8109 125.75 95.8994 125.713C95.9888 125.676 96.067 125.624 96.1348 125.556C96.2036 125.487 96.256 125.409 96.2921 125.32C96.3291 125.231 96.348 125.138 96.348 125.042V125.024Z" fill="white"/>
<path d="M73.431 35.781C73.431 35.781 70.7025 32.8454 74.6582 30.3308C74.6582 30.3308 73.7722 27.256 76.5669 27.0601C79.3607 26.8641 78.2031 30.2036 78.2031 30.2036C78.2031 30.2036 79.909 31.5004 79.9777 33.4117L78.3415 37.1697L73.431 35.781Z" fill="black"/>
<path d="M34.9113 63.4139V130.885V63.4139ZM35.0488 130.885V63.4139C35.0488 63.3761 35.035 63.3434 35.0084 63.3168C34.9817 63.2893 34.9491 63.2764 34.9113 63.2764C34.8735 63.2764 34.8408 63.2901 34.815 63.3168C34.7884 63.3443 34.7755 63.3761 34.7763 63.4139V130.885C34.7755 130.923 34.7884 130.956 34.815 130.983C34.8408 131.01 34.8735 131.023 34.9113 131.023C34.9491 131.023 34.9817 131.01 35.0084 130.983C35.035 130.956 35.0488 130.924 35.0488 130.885Z" fill="black"/>
<path d="M25.6755 54.4893H137.938V63.6175H25.6755V54.4893Z" fill="#FFEB9A"/>
<path d="M132.669 45.2188H127.589C127.924 45.2188 128.258 45.2351 128.592 45.2677C128.925 45.3013 129.256 45.3502 129.584 45.4155C129.913 45.4809 130.237 45.5625 130.558 45.6596C130.879 45.7576 131.194 45.8702 131.503 45.9982C131.814 46.1271 132.116 46.2706 132.411 46.4288C132.706 46.5869 132.993 46.7588 133.272 46.9452C133.55 47.1317 133.819 47.3311 134.079 47.5442C134.338 47.7565 134.586 47.9816 134.822 48.2188C135.059 48.456 135.284 48.7044 135.497 48.9639C135.709 49.2234 135.908 49.4924 136.095 49.7717C136.281 50.0502 136.452 50.338 136.611 50.6337C136.769 50.9293 136.911 51.2327 137.04 51.5429C137.168 51.8523 137.281 52.1677 137.378 52.4891C137.475 52.8105 137.557 53.1353 137.622 53.4645C137.687 53.7936 137.736 54.1245 137.769 54.4587C137.803 54.7922 137.819 55.1273 137.819 55.4625V124.82C137.819 125.024 137.809 125.227 137.789 125.431C137.769 125.634 137.739 125.836 137.699 126.036C137.66 126.236 137.611 126.434 137.552 126.63C137.492 126.825 137.424 127.018 137.346 127.206C137.268 127.395 137.181 127.579 137.085 127.759C136.989 127.94 136.884 128.114 136.771 128.284C136.658 128.454 136.537 128.618 136.407 128.776C136.278 128.933 136.141 129.084 135.997 129.229C135.853 129.373 135.702 129.511 135.544 129.64C135.387 129.769 135.224 129.891 135.054 130.005C134.884 130.118 134.71 130.223 134.53 130.319C134.35 130.415 134.166 130.503 133.977 130.581C133.789 130.659 133.598 130.727 133.403 130.787C133.207 130.846 133.01 130.896 132.81 130.935C132.609 130.976 132.408 131.006 132.205 131.026C132.003 131.045 131.799 131.056 131.595 131.056H136.676C136.88 131.056 137.083 131.045 137.286 131.026C137.489 131.006 137.69 130.976 137.89 130.935C138.09 130.896 138.288 130.846 138.483 130.787C138.678 130.727 138.87 130.659 139.058 130.581C139.246 130.503 139.43 130.415 139.611 130.319C139.79 130.223 139.965 130.118 140.134 130.005C140.304 129.891 140.467 129.769 140.625 129.64C140.783 129.511 140.933 129.373 141.078 129.229C141.222 129.084 141.359 128.933 141.488 128.776C141.617 128.618 141.738 128.454 141.851 128.284C141.964 128.114 142.069 127.94 142.166 127.759C142.262 127.579 142.349 127.395 142.426 127.206C142.504 127.018 142.573 126.825 142.632 126.63C142.691 126.434 142.74 126.236 142.78 126.036C142.82 125.836 142.85 125.634 142.869 125.431C142.889 125.227 142.899 125.024 142.899 124.82V55.4625C142.899 55.1273 142.882 54.7922 142.85 54.4587C142.817 54.1245 142.768 53.7936 142.703 53.4645C142.637 53.1353 142.556 52.8105 142.459 52.4891C142.361 52.1677 142.249 51.8523 142.12 51.5429C141.992 51.2327 141.849 50.9293 141.691 50.6337C141.533 50.338 141.361 50.0502 141.175 49.7717C140.989 49.4924 140.79 49.2234 140.577 48.9639C140.364 48.7044 140.14 48.456 139.903 48.2188C139.666 47.9816 139.418 47.7565 139.159 47.5442C138.9 47.3311 138.631 47.1317 138.353 46.9452C138.074 46.7588 137.787 46.5869 137.491 46.4288C137.196 46.2706 136.893 46.1271 136.584 45.9982C136.275 45.8702 135.959 45.7576 135.639 45.6596C135.318 45.5625 134.993 45.4809 134.665 45.4155C134.337 45.3502 134.005 45.3013 133.672 45.2677C133.339 45.2351 133.005 45.2188 132.669 45.2188Z" fill="black"/>
<path d="M132.669 45.0801H35.8583C35.5188 45.0809 35.1802 45.0981 34.8425 45.1316C34.5048 45.1652 34.1688 45.215 33.8362 45.282C33.5036 45.3482 33.1745 45.4307 32.8496 45.5295C32.5248 45.6284 32.2059 45.7435 31.8923 45.8733C31.5786 46.0039 31.2718 46.1491 30.9727 46.3098C30.6737 46.4697 30.3832 46.6441 30.1005 46.8332C29.8186 47.0223 29.5462 47.2251 29.2841 47.4399C29.0211 47.6556 28.7702 47.8842 28.5304 48.124C28.2898 48.3646 28.062 48.6164 27.8472 48.8794C27.6315 49.1415 27.4295 49.4148 27.2413 49.6966C27.0523 49.9794 26.8778 50.2707 26.718 50.5706C26.5573 50.8705 26.4129 51.1773 26.2823 51.491C26.1525 51.8047 26.0382 52.1244 25.9394 52.4501C25.8406 52.7749 25.7581 53.1041 25.691 53.4375C25.6249 53.7709 25.575 54.107 25.5415 54.4455C25.508 54.7833 25.4908 55.1227 25.4899 55.4622V124.82C25.4908 125.028 25.5011 125.237 25.5217 125.444C25.5424 125.652 25.5733 125.858 25.6137 126.062C25.6549 126.267 25.7056 126.469 25.7658 126.668C25.8268 126.868 25.8964 127.064 25.9763 127.257C26.0563 127.449 26.1456 127.638 26.2436 127.822C26.3416 128.005 26.449 128.184 26.5641 128.358C26.6802 128.531 26.8039 128.699 26.9363 128.86C27.0686 129.021 27.2078 129.176 27.3556 129.323C27.5026 129.471 27.6573 129.611 27.818 129.743C27.9787 129.875 28.1463 130 28.319 130.116C28.4917 130.232 28.6705 130.339 28.8544 130.438C29.0374 130.536 29.2256 130.625 29.4181 130.706C29.6106 130.786 29.8066 130.856 30.0059 130.916C30.2053 130.977 30.4064 131.028 30.6109 131.069C30.8155 131.11 31.0209 131.141 31.228 131.162C31.4359 131.183 31.6431 131.193 31.8519 131.194H136.676C136.884 131.193 137.092 131.183 137.299 131.162C137.506 131.141 137.712 131.11 137.917 131.07C138.12 131.029 138.322 130.978 138.522 130.917C138.721 130.857 138.917 130.786 139.11 130.706C139.302 130.627 139.49 130.537 139.674 130.438C139.857 130.34 140.036 130.233 140.209 130.117C140.382 130.001 140.549 129.876 140.711 129.744C140.871 129.612 141.025 129.472 141.173 129.325C141.32 129.177 141.46 129.022 141.592 128.861C141.724 128.7 141.848 128.532 141.964 128.359C142.08 128.185 142.186 128.006 142.285 127.822C142.383 127.639 142.472 127.45 142.551 127.257C142.631 127.064 142.702 126.869 142.762 126.669C142.823 126.469 142.874 126.267 142.914 126.062C142.954 125.858 142.985 125.652 143.006 125.444C143.027 125.237 143.037 125.029 143.037 124.82V55.4622C143.037 55.1227 143.02 54.7833 142.986 54.4447C142.953 54.107 142.903 53.7709 142.837 53.4375C142.77 53.1041 142.687 52.7749 142.589 52.4492C142.49 52.1244 142.376 51.8047 142.245 51.4902C142.116 51.1765 141.97 50.8697 141.811 50.5698C141.651 50.2698 141.476 49.9785 141.287 49.6966C141.099 49.4139 140.897 49.1406 140.681 48.8785C140.466 48.6155 140.238 48.3637 139.998 48.1231C139.758 47.8834 139.507 47.6548 139.245 47.4391C138.982 47.2234 138.71 47.0214 138.427 46.8323C138.145 46.6433 137.854 46.4688 137.555 46.3081C137.256 46.1483 136.949 46.003 136.635 45.8724C136.322 45.7427 136.003 45.6275 135.678 45.5287C135.353 45.4298 135.024 45.3473 134.692 45.2812C134.358 45.2141 134.023 45.1643 133.685 45.1308C133.348 45.0973 133.009 45.0809 132.669 45.0801ZM142.761 124.82C142.761 125.019 142.751 125.219 142.732 125.417C142.712 125.616 142.683 125.812 142.643 126.008C142.605 126.204 142.557 126.398 142.498 126.588C142.441 126.779 142.374 126.967 142.297 127.151C142.221 127.336 142.135 127.516 142.042 127.693C141.947 127.868 141.845 128.039 141.734 128.205C141.624 128.372 141.506 128.531 141.379 128.686C141.252 128.84 141.119 128.988 140.978 129.129C140.837 129.27 140.689 129.404 140.535 129.531C140.381 129.657 140.222 129.777 140.056 129.887C139.89 129.998 139.72 130.101 139.544 130.195C139.368 130.289 139.188 130.375 139.004 130.451C138.82 130.528 138.633 130.595 138.442 130.653C138.251 130.711 138.058 130.76 137.863 130.798C137.668 130.838 137.47 130.867 137.272 130.887C137.074 130.907 136.875 130.917 136.676 130.917H31.8519C31.6525 130.917 31.454 130.907 31.2555 130.887C31.057 130.867 30.8602 130.837 30.6651 130.798C30.4691 130.759 30.2766 130.711 30.0859 130.652C29.8951 130.594 29.7077 130.527 29.5238 130.45C29.3399 130.374 29.1595 130.288 28.9841 130.194C28.8088 130.1 28.6378 129.997 28.472 129.886C28.307 129.775 28.1471 129.656 27.9924 129.53C27.8386 129.403 27.6916 129.269 27.5507 129.128C27.4098 128.987 27.2757 128.839 27.1494 128.684C27.0231 128.531 26.9045 128.371 26.7936 128.204C26.6827 128.038 26.5805 127.867 26.4868 127.692C26.3931 127.516 26.3072 127.335 26.2316 127.151C26.1551 126.966 26.0881 126.779 26.0296 126.588C25.972 126.398 25.9231 126.204 25.8844 126.008C25.8449 125.812 25.8156 125.616 25.7959 125.417C25.7761 125.219 25.7666 125.019 25.7658 124.82V55.4622C25.7666 55.1313 25.783 54.8013 25.8156 54.4722C25.8483 54.143 25.8973 53.8165 25.9617 53.4916C26.0262 53.1668 26.107 52.8463 26.2032 52.53C26.2995 52.2137 26.4103 51.9027 26.5375 51.5967C26.6638 51.2908 26.8048 50.9926 26.9612 50.7004C27.1167 50.4091 27.2869 50.1255 27.4699 49.8505C27.6538 49.5755 27.8506 49.3099 28.0603 49.0547C28.27 48.7986 28.4917 48.5537 28.7255 48.3199C28.9592 48.0853 29.2033 47.8636 29.4585 47.6539C29.7138 47.4442 29.9793 47.2466 30.2534 47.0627C30.5284 46.8788 30.8112 46.7095 31.1025 46.553C31.3938 46.3966 31.6929 46.2557 31.998 46.1285C32.3031 46.0022 32.6133 45.8905 32.9295 45.7942C33.2458 45.698 33.5663 45.6172 33.8903 45.5527C34.2143 45.4874 34.54 45.4393 34.8691 45.4058C35.1983 45.3731 35.5274 45.3568 35.8583 45.3568H132.669C132.999 45.3568 133.329 45.3731 133.659 45.4058C133.987 45.4384 134.313 45.4874 134.637 45.5519C134.961 45.6163 135.282 45.6971 135.598 45.7934C135.914 45.8896 136.225 46.0013 136.53 46.1277C136.836 46.2548 137.134 46.3958 137.425 46.5522C137.717 46.7077 137.999 46.8779 138.274 47.0618C138.549 47.2457 138.814 47.4425 139.069 47.653C139.325 47.8627 139.569 48.0845 139.803 48.3191C140.037 48.5528 140.259 48.7977 140.468 49.053C140.678 49.3091 140.875 49.5746 141.058 49.8496C141.242 50.1246 141.412 50.4082 141.567 50.7004C141.723 50.9917 141.865 51.2908 141.991 51.5959C142.117 51.9018 142.229 52.2129 142.325 52.53C142.421 52.8463 142.502 53.1668 142.566 53.4916C142.63 53.8156 142.679 54.143 142.712 54.4722C142.745 54.8013 142.761 55.1313 142.761 55.4622V124.82Z" fill="black"/>
<path d="M147.468 130.598L150.556 130.344C150.556 130.344 155.215 137.19 154.203 137.75C153.19 138.309 149.645 136.075 149.645 136.075L147.468 136.023V130.598Z" fill="black"/>
<path d="M121.547 133.588C121.547 133.588 121.7 136.496 121.293 137.037C120.887 137.578 116.528 137.502 115.414 137.502C114.299 137.502 111.872 137.655 112.325 137.045C112.779 136.434 115.871 134.559 115.871 134.559L116.125 132.531C117.693 133.185 121.547 133.588 121.547 133.588Z" fill="black"/>
<path d="M135.365 115.131C145.341 116.044 148.632 113.205 148.632 113.205C151.111 117.061 149.086 120.001 147.569 122.131C146.053 124.26 141.897 129.533 141.897 129.533L147.675 129.94C149.489 132.07 148.281 137.342 148.281 137.342C148.281 137.342 133.403 138.051 130.761 137.749C128.118 137.447 127.132 135.416 128.129 132.981C129.127 130.547 135.623 123.043 135.623 123.043L124.987 119.408L122.255 133.606C118.103 135.129 115.359 132.593 115.359 132.593C115.359 132.593 115.668 126.6 116.376 121.513C117.083 116.425 118.1 112.49 122.048 111.578C125.996 110.665 134.908 114.415 134.908 114.415L135.365 115.131Z" fill="#FFEB9A"/>
<path d="M21.9484 76.1581H22.0069C21.1174 74.7702 19.5714 73.6143 17.1549 74.0939C17.1549 74.0939 17.1549 73.8249 16.4287 73.6212L13.3882 73.1494C13.1553 73.2886 12.9525 73.4631 12.7789 73.6719C12.6053 73.8807 12.4704 74.1119 12.3759 74.3663C12.3759 74.3663 9.54165 74.4316 8.5293 76.9358C7.5161 79.4392 6.84149 83.1534 6.84149 83.1534C7.17579 83.4447 7.54962 83.6699 7.96298 83.8297L8.09704 88.6989C8.09704 88.6989 13.4312 90.4572 17.5502 89.3057C17.5502 89.3057 18.4938 86.6021 19.5757 85.3843C20.6568 84.1675 21.4766 83.3571 21.7525 82.4118C21.8109 82.2218 21.8788 82.0354 21.9562 81.8523L21.9484 76.1581Z" fill="#FFEB9A"/>
<path d="M54.572 96.2975H25.0766C25.0052 96.2975 24.9348 96.2906 24.8643 96.276C24.7938 96.2623 24.7259 96.2416 24.6598 96.2141C24.5936 96.1866 24.5309 96.1531 24.4716 96.1136C24.4123 96.0741 24.3573 96.0285 24.3066 95.9778C24.2567 95.9271 24.2112 95.8721 24.1716 95.8128C24.1321 95.7535 24.0986 95.6908 24.0711 95.6246C24.0436 95.5584 24.023 95.4897 24.0092 95.4201C23.9946 95.3496 23.9877 95.2783 23.9877 95.207V79.3592C23.9877 79.2879 23.9946 79.2174 24.0092 79.147C24.023 79.0765 24.0436 79.0086 24.0711 78.9424C24.0986 78.8763 24.1321 78.8135 24.1716 78.7542C24.2112 78.6941 24.2567 78.6391 24.3066 78.5884C24.3573 78.5377 24.4123 78.493 24.4716 78.4534C24.5309 78.413 24.5936 78.3795 24.6598 78.352C24.7259 78.3254 24.7938 78.3039 24.8643 78.2902C24.9348 78.2764 25.0052 78.2695 25.0766 78.2695H54.572C54.6434 78.2695 54.7147 78.2764 54.7843 78.2902C54.8548 78.3039 54.9227 78.3254 54.9888 78.352C55.055 78.3795 55.1177 78.413 55.177 78.4534C55.2363 78.493 55.2913 78.5377 55.342 78.5884C55.3927 78.6391 55.4374 78.6941 55.4769 78.7542C55.5173 78.8135 55.5509 78.8763 55.5784 78.9424C55.605 79.0086 55.6256 79.0765 55.6402 79.147C55.654 79.2174 55.6609 79.2879 55.6609 79.3592V95.2035C55.6609 95.2748 55.654 95.3462 55.6402 95.4166C55.6265 95.4871 55.6059 95.555 55.5792 95.622C55.5517 95.6882 55.5182 95.7509 55.4787 95.8111C55.4391 95.8704 55.3936 95.9263 55.3429 95.977C55.293 96.0277 55.238 96.0732 55.1779 96.1127C55.1186 96.1531 55.0559 96.1866 54.9897 96.2141C54.9235 96.2416 54.8556 96.2623 54.7852 96.276C54.7147 96.2906 54.6442 96.2975 54.572 96.2975Z" fill="#FFEB9A"/>
<path d="M13.7474 72.0008C13.7474 72.0008 11.5698 69.867 12.4953 66.8256C12.4953 66.8256 11.0112 65.9138 9.99883 67.2656C8.98649 68.6174 9.49438 69.769 9.25462 70.8991C9.01485 72.0291 7.22993 73.1962 6.11618 72.8576C6.11618 72.8576 5.44071 77.3899 1.96454 75.4959C0.0739138 74.6855 0.581804 72.2835 1.72821 71.3391C1.72821 71.3391 0.581804 69.4785 1.76087 67.923C2.94079 66.3676 5.44071 67.3816 6.75813 66.5386C8.07555 65.6955 7.66907 63.2678 10.0238 62.3818C12.3793 61.4949 14.8182 63.9691 14.9557 64.1366C14.9557 64.1366 16.8429 62.5812 18.5849 64.275C18.5849 64.275 19.9349 63.6966 21.1827 65.4231C22.4314 67.1487 20.5769 67.789 20.5769 67.789L15.1078 71.6768L13.7474 72.0008Z" fill="black"/>
<path d="M9.32336 115.742C9.32336 115.742 11.4177 127.774 14.9952 134.602C14.9952 134.602 20.7333 135.143 20.7333 134.537C20.7333 133.93 17.4926 132.981 17.4926 132.981L14.7237 115.807C14.7237 115.807 11.6205 116.214 9.32336 115.742Z" fill="#F7EAD0"/>
<path d="M17.9644 115.267C17.9644 115.267 9.59233 127.575 9.18929 128.25C8.78624 128.926 10.0676 131.292 9.79515 131.695C9.52358 132.099 6.48913 129.399 6.08351 128.788C5.67702 128.178 11.6205 115.267 11.6205 115.267H17.9644Z" fill="#F7EAD0"/>
<path d="M8.10822 88.6992C8.10822 88.6992 5.13994 94.3788 4.47908 98.3655C3.81908 102.352 4.95432 106.887 6.70744 109.725C7.83752 111.62 8.7158 113.626 9.34228 115.743C9.34228 115.743 12.7858 116.146 14.7417 115.808C16.6977 115.47 17.9824 115.267 17.9824 115.267C17.9824 115.267 19.6737 111.956 18.9295 106.952C18.1853 101.948 17.4273 97.4855 17.7607 95.6619C18.095 93.8374 17.826 90.8614 17.826 90.8614L8.10822 88.6992Z" fill="white"/>
<path d="M12.7274 116.08C11.5844 116.07 10.4449 116.002 9.30962 115.876C9.24861 115.869 9.20994 115.837 9.19275 115.778C8.56798 113.676 7.69658 111.682 6.57681 109.797C4.9397 107.151 3.60853 102.583 4.33384 98.3422C5.00501 94.3779 7.96298 88.6906 7.99564 88.633C8.0283 88.5729 8.07814 88.5497 8.14431 88.5634L17.8664 90.7436C17.8948 90.7497 17.9197 90.7634 17.9395 90.7858C17.9584 90.8081 17.9695 90.8347 17.9713 90.864C17.9713 90.9877 18.2402 93.8761 17.906 95.7005C17.6052 97.3101 18.1672 101.046 18.8169 105.375L19.0524 106.948C19.7785 111.933 18.1131 115.305 18.095 115.342C18.0744 115.385 18.04 115.409 17.9928 115.415C17.9928 115.415 16.6899 115.622 14.7563 115.956C14.0835 116.053 13.4071 116.094 12.7274 116.08ZM9.41447 115.615C9.96962 115.677 12.9456 115.978 14.6876 115.672C16.3677 115.382 17.5648 115.189 17.8587 115.142C18.0804 114.67 19.4339 111.508 18.7627 106.973L18.5264 105.404C17.8733 101.042 17.307 97.2921 17.6155 95.6352C17.9094 94.0368 17.7315 91.5033 17.6885 90.9731L8.18041 88.8547C7.79627 89.6033 5.21556 94.7415 4.59509 98.3895C3.89126 102.558 5.19751 107.049 6.80541 109.655C7.9183 111.535 8.78798 113.521 9.41447 115.615Z" fill="black"/>
<path d="M8.0575 130.547C8.0575 130.547 8.66679 129.736 9.32335 129.686C9.32335 129.686 10.2669 131.274 9.79515 131.695C9.32335 132.117 8.1589 130.961 8.0575 130.547Z" fill="black"/>
<path d="M6.14884 128.214L8.54392 130.616L8.72868 131.394L6.09728 128.886C6.02853 128.822 6.00704 128.744 6.03196 128.654L6.14884 128.214Z" fill="black"/>
<path d="M19.0781 133.523C18.987 133.603 18.9088 133.695 18.8444 133.798C18.7799 133.902 18.7309 134.012 18.6992 134.128C18.6665 134.246 18.6519 134.366 18.6545 134.487C18.6579 134.608 18.6777 134.727 18.7155 134.843C18.7155 134.843 20.6061 135.01 20.7402 134.538C20.5356 134.271 20.2899 134.05 20.0037 133.875C19.7167 133.7 19.4081 133.584 19.0781 133.523Z" fill="black"/>
<path d="M14.7091 134.014L19.7201 134.468L19.1288 134.857L15.137 134.614C15.0305 134.607 14.9557 134.554 14.9119 134.457L14.7091 134.014Z" fill="black"/>
<path d="M13.3736 73.1493L14.2519 70.6382C14.1659 70.5582 14.0946 70.4654 14.0396 70.3623C13.9846 70.2583 13.9477 70.1483 13.9296 70.0314C13.9107 69.9154 13.9116 69.7994 13.9322 69.6834C13.9528 69.5674 13.9915 69.4582 14.0482 69.3551C14.4547 68.6281 15.1989 69.2211 15.9388 69.0174C16.6796 68.8137 18.3709 68.2904 18.7773 66.9893L20.5915 67.7996C20.5915 67.7996 20.998 73.4105 16.8102 72.735L16.4072 73.6142L13.3736 73.1493Z" fill="#F7EAD0"/>
<path d="M42.0742 80.7367H26.5899C26.5521 80.7375 26.5203 80.7247 26.4937 80.698C26.467 80.6722 26.4542 80.6396 26.4559 80.6026C26.455 80.5648 26.467 80.5322 26.4937 80.5047C26.5203 80.478 26.5521 80.4643 26.5899 80.4643H42.0742C42.1128 80.4643 42.1446 80.478 42.1721 80.5047C42.1988 80.5313 42.2125 80.5639 42.2125 80.6026C42.2125 80.6404 42.1988 80.6722 42.1713 80.6989C42.1446 80.7247 42.112 80.7375 42.0742 80.7367ZM42.2125 86.4197C42.2125 86.3819 42.1988 86.3493 42.1721 86.3226C42.1446 86.2951 42.1128 86.2822 42.0742 86.2822H26.5899C26.5521 86.2822 26.5203 86.296 26.4937 86.3226C26.467 86.3501 26.455 86.3819 26.4559 86.4197C26.4542 86.4575 26.467 86.4893 26.4937 86.516C26.5203 86.5426 26.5521 86.5555 26.5899 86.5547H42.0742C42.1102 86.5529 42.1403 86.5383 42.1644 86.5125C42.1893 86.4868 42.2013 86.4558 42.2013 86.4197H42.2125ZM48.0184 83.5133C48.0176 83.4755 48.0038 83.4437 47.9772 83.4179C47.9497 83.3913 47.9179 83.3784 47.8809 83.3784H45.9388C45.9061 83.3844 45.8777 83.3999 45.8563 83.4257C45.8348 83.4514 45.8236 83.4807 45.8236 83.515C45.8236 83.5486 45.8348 83.5786 45.8563 83.6044C45.8777 83.6302 45.9061 83.6457 45.9388 83.6508H47.8809C47.9179 83.6491 47.9488 83.6345 47.9746 83.607C48.0004 83.5795 48.0124 83.5468 48.0116 83.509L48.0184 83.5133ZM44.8104 83.5133C44.8095 83.4764 44.7958 83.4446 44.77 83.4188C44.7442 83.393 44.7133 83.3793 44.6763 83.3784H37.2221C37.1895 83.3844 37.162 83.3999 37.1396 83.4257C37.1181 83.4514 37.107 83.4807 37.107 83.515C37.107 83.5486 37.1181 83.5786 37.1396 83.6044C37.162 83.6302 37.1895 83.6457 37.2221 83.6508H44.6686C44.7073 83.65 44.7391 83.6354 44.7657 83.6079C44.7915 83.5804 44.8044 83.5477 44.8035 83.509L44.8104 83.5133ZM35.6443 83.5133C35.6443 83.4755 35.6306 83.4446 35.6048 83.4179C35.5781 83.3913 35.5463 83.3784 35.5094 83.3784H26.5899C26.5564 83.3844 26.5289 83.3999 26.5074 83.4257C26.4851 83.4514 26.4739 83.4807 26.4739 83.515C26.4739 83.5486 26.4851 83.5786 26.5074 83.6044C26.5289 83.6302 26.5564 83.6457 26.5899 83.6508H35.5025C35.5412 83.6508 35.5738 83.6371 35.5996 83.6096C35.6263 83.5812 35.6392 83.5477 35.6366 83.509L35.6443 83.5133ZM49.5713 80.6061C49.5713 80.5674 49.5584 80.5356 49.5309 80.5081C49.5043 80.4814 49.4717 80.4677 49.4338 80.4677H48.2178C48.1809 80.4686 48.1491 80.4823 48.1224 80.5098C48.0967 80.5364 48.0838 80.5682 48.0838 80.6061C48.0838 80.643 48.0967 80.6748 48.1233 80.7006C48.1491 80.7272 48.1809 80.7401 48.2178 80.7401H49.4338C49.4708 80.7393 49.5017 80.7255 49.5275 80.698C49.5533 80.6714 49.5653 80.6396 49.5645 80.6026L49.5713 80.6061ZM46.9374 80.6061C46.9399 80.5854 46.9382 80.5657 46.9322 80.5459C46.9253 80.5261 46.915 80.5081 46.9013 80.4935C46.8875 80.478 46.8703 80.4668 46.8514 80.4591C46.8325 80.4514 46.8127 80.4479 46.7921 80.4497H43.6528C43.615 80.4497 43.5824 80.4634 43.5557 80.49C43.5282 80.5167 43.5153 80.5493 43.5153 80.588C43.5153 80.6258 43.5282 80.6576 43.5557 80.6843C43.5824 80.7109 43.615 80.7229 43.6528 80.7221H46.7921C46.8274 80.7229 46.8574 80.7126 46.8841 80.6894C46.9107 80.6662 46.9262 80.637 46.9296 80.6026L46.9374 80.6061Z" fill="black"/>
<path d="M63.5207 72.3781H40.938C40.8512 72.3781 40.767 72.3617 40.6854 72.3282C40.6046 72.2947 40.5333 72.2466 40.4714 72.1847C40.4095 72.1228 40.3614 72.0515 40.3279 71.9699C40.2944 71.8891 40.278 71.8048 40.278 71.7172V67.367C40.2789 67.2785 40.2961 67.1934 40.3305 67.1118C40.3648 67.0302 40.413 66.9588 40.4766 66.897C40.5393 66.8342 40.6115 66.787 40.694 66.7543C40.7756 66.7208 40.8607 66.7045 40.9492 66.7062L63.5319 67.0688C63.6187 67.0697 63.7012 67.0877 63.7811 67.1213C63.8602 67.1548 63.9306 67.2029 63.9916 67.2648C64.0527 67.3258 64.0991 67.3971 64.1317 67.477C64.1652 67.557 64.1816 67.6403 64.1816 67.7271V71.7241C64.1807 71.8109 64.1627 71.8951 64.1291 71.975C64.0948 72.0549 64.0475 72.1263 63.9856 72.1873C63.9237 72.2483 63.8524 72.2956 63.7716 72.3291C63.6917 72.3617 63.6084 72.3781 63.5207 72.3781ZM94.6713 71.7859V67.789C94.6705 67.7022 94.6541 67.6188 94.6215 67.5389C94.588 67.4581 94.5416 67.3877 94.4805 67.3258C94.4204 67.2639 94.3499 67.2158 94.2709 67.1814C94.1909 67.147 94.1084 67.129 94.0216 67.1273L71.439 66.7861C71.3513 66.7844 71.2662 66.7998 71.1846 66.8325C71.103 66.8652 71.0308 66.9124 70.968 66.9743C70.9053 67.0362 70.8563 67.1075 70.8228 67.1891C70.7884 67.2708 70.7712 67.355 70.7712 67.4435V71.804C70.7712 71.8916 70.7884 71.9759 70.8211 72.0566C70.8546 72.1374 70.9019 72.2088 70.9637 72.2706C71.0248 72.3325 71.0961 72.3806 71.1769 72.4141C71.2568 72.4477 71.341 72.4648 71.4287 72.4657H94.0105C94.0998 72.4648 94.1849 72.4477 94.2674 72.4124C94.3491 72.3781 94.4212 72.3282 94.4831 72.2646C94.545 72.2002 94.5923 72.1271 94.6249 72.0438C94.6576 71.9613 94.673 71.8753 94.6713 71.7859ZM126.511 71.8547V67.8577C126.511 67.7709 126.496 67.6867 126.463 67.6068C126.43 67.526 126.383 67.4547 126.322 67.3928C126.262 67.3309 126.191 67.2828 126.112 67.2484C126.032 67.2149 125.948 67.1977 125.861 67.196L103.282 66.8334C103.195 66.8316 103.109 66.848 103.027 66.8815C102.945 66.9141 102.872 66.9614 102.81 67.0241C102.747 67.086 102.698 67.1573 102.664 67.239C102.629 67.3206 102.612 67.4057 102.611 67.4942V71.8547C102.611 71.9423 102.628 72.0266 102.662 72.1073C102.695 72.1881 102.743 72.2595 102.804 72.3213C102.867 72.3832 102.939 72.4305 103.019 72.464C103.1 72.4966 103.184 72.513 103.272 72.513H125.85C125.938 72.513 126.022 72.4966 126.103 72.464C126.184 72.4305 126.255 72.3832 126.317 72.3213C126.38 72.2595 126.427 72.1881 126.46 72.1073C126.494 72.0266 126.511 71.9423 126.511 71.8547Z" fill="black"/>
<path d="M35.2301 49.9244C35.2301 50.0026 35.2232 50.0808 35.2077 50.1581C35.1931 50.2355 35.1708 50.3102 35.1407 50.3824C35.1106 50.4555 35.0737 50.5242 35.0307 50.5904C34.9869 50.6557 34.9379 50.7159 34.882 50.7717C34.827 50.8276 34.7669 50.8774 34.7016 50.9212C34.6363 50.9651 34.5675 51.002 34.4953 51.0321C34.4223 51.0622 34.3475 51.0845 34.271 51.1C34.1937 51.1155 34.1163 51.1232 34.0373 51.1232C33.9591 51.1241 33.8817 51.1163 33.8044 51.1009C33.727 51.0854 33.6523 51.063 33.5801 51.033C33.5079 51.0029 33.4383 50.9659 33.373 50.9221C33.3077 50.8783 33.2475 50.8293 33.1925 50.7734C33.1366 50.7176 33.0868 50.6574 33.0438 50.5921C33 50.5268 32.9631 50.458 32.933 50.385C32.9029 50.312 32.8806 50.2372 32.8651 50.1607C32.8496 50.0834 32.8427 50.0052 32.8427 49.927C32.8427 49.8479 32.8505 49.7705 32.8659 49.6932C32.8814 49.6159 32.9038 49.5411 32.9338 49.4689C32.9639 49.3959 33.0009 49.3271 33.0447 49.2618C33.0885 49.1965 33.1384 49.1363 33.1942 49.0813C33.2492 49.0255 33.3102 48.9756 33.3756 48.9327C33.4409 48.8888 33.5096 48.8519 33.5827 48.8227C33.6549 48.7926 33.7296 48.7702 33.807 48.7548C33.8834 48.7393 33.9616 48.7324 34.0399 48.7324C34.1181 48.7324 34.1954 48.7402 34.2719 48.7556C34.3492 48.7702 34.4231 48.7934 34.4953 48.8235C34.5675 48.8527 34.6363 48.8897 34.7016 48.9335C34.766 48.9765 34.8262 49.0263 34.882 49.0813C34.937 49.1372 34.986 49.1973 35.0299 49.2618C35.0728 49.3271 35.1098 49.3959 35.1399 49.468C35.1699 49.5402 35.1923 49.615 35.2077 49.6915C35.2224 49.7688 35.2301 49.8462 35.2301 49.9244ZM37.5384 48.7324C37.4593 48.7324 37.382 48.7393 37.3046 48.7548C37.2281 48.7702 37.1534 48.7926 37.0803 48.8227C37.0081 48.8519 36.9385 48.8888 36.8732 48.9327C36.8079 48.9756 36.7477 49.0255 36.6919 49.0813C36.6369 49.1363 36.587 49.1965 36.5432 49.2618C36.4994 49.3271 36.4624 49.3959 36.4324 49.4689C36.4023 49.5411 36.3791 49.6159 36.3636 49.6932C36.3481 49.7705 36.3404 49.8479 36.3404 49.927C36.3404 50.0052 36.3481 50.0834 36.3636 50.1607C36.3791 50.2372 36.4014 50.312 36.4315 50.385C36.4616 50.458 36.4985 50.5268 36.5415 50.5921C36.5853 50.6574 36.6352 50.7176 36.6902 50.7734C36.746 50.8293 36.8062 50.8783 36.8715 50.9221C36.9368 50.9659 37.0056 51.0029 37.0786 51.033C37.1508 51.063 37.2256 51.0854 37.3029 51.1009C37.3794 51.1163 37.4576 51.1241 37.5358 51.1232C37.614 51.1232 37.6922 51.1155 37.7687 51.1C37.846 51.0845 37.9208 51.0622 37.993 51.0321C38.066 51.002 38.1348 50.9651 38.1992 50.9212C38.2645 50.8774 38.3256 50.8276 38.3806 50.7717C38.4356 50.7159 38.4854 50.6557 38.5292 50.5904C38.5722 50.5242 38.6091 50.4555 38.6384 50.3824C38.6684 50.3102 38.6908 50.2355 38.7063 50.1581C38.7217 50.0808 38.7286 50.0026 38.7286 49.9244C38.7277 49.8462 38.72 49.7697 38.7045 49.6932C38.6891 49.6167 38.6659 49.5428 38.6358 49.4706C38.6057 49.3984 38.5688 49.3305 38.5258 49.2661C38.482 49.2008 38.4321 49.1415 38.3771 49.0865C38.3221 49.0315 38.262 48.9825 38.1975 48.9387C38.1322 48.8957 38.0643 48.8596 37.9921 48.8295C37.9199 48.8003 37.846 48.778 37.7695 48.7625C37.6931 48.747 37.6157 48.7402 37.5384 48.7402V48.7324ZM41.0369 48.7324C40.9578 48.7324 40.8805 48.7393 40.8031 48.7548C40.7258 48.7702 40.651 48.7926 40.5788 48.8227C40.5058 48.8519 40.437 48.8888 40.3717 48.9327C40.3064 48.9756 40.2463 49.0255 40.1904 49.0813C40.1345 49.1363 40.0847 49.1965 40.0417 49.2618C39.9979 49.3271 39.9609 49.3959 39.9309 49.4689C39.9008 49.5411 39.8776 49.6159 39.8621 49.6932C39.8466 49.7705 39.8389 49.8479 39.8389 49.927C39.8389 50.0052 39.8466 50.0834 39.8621 50.1607C39.8767 50.2372 39.8999 50.312 39.93 50.385C39.9592 50.458 39.9962 50.5268 40.04 50.5921C40.0838 50.6574 40.1328 50.7176 40.1887 50.7734C40.2445 50.8293 40.3047 50.8783 40.37 50.9221C40.4353 50.9659 40.5041 51.0029 40.5763 51.033C40.6493 51.063 40.7241 51.0854 40.8006 51.1009C40.8779 51.1163 40.9552 51.1241 41.0343 51.1232C41.1125 51.1232 41.1899 51.1155 41.2672 51.1C41.3445 51.0845 41.4193 51.0622 41.4915 51.0321C41.5637 51.002 41.6324 50.9651 41.6977 50.9212C41.7631 50.8774 41.8232 50.8276 41.8791 50.7717C41.9341 50.7159 41.9839 50.6557 42.0269 50.5904C42.0707 50.5242 42.1068 50.4555 42.1369 50.3824C42.167 50.3102 42.1893 50.2355 42.2048 50.1581C42.2194 50.0808 42.2271 50.0026 42.2271 49.9244C42.2263 49.8462 42.2185 49.7697 42.2031 49.6932C42.1867 49.6167 42.1644 49.5428 42.1343 49.4706C42.1042 49.3984 42.0673 49.3305 42.0234 49.2661C41.9805 49.2008 41.9306 49.1415 41.8756 49.0865C41.8206 49.0315 41.7605 48.9825 41.6952 48.9387C41.6307 48.8957 41.562 48.8596 41.4906 48.8295C41.4184 48.8003 41.3445 48.778 41.2681 48.7625C41.1916 48.747 41.1142 48.7402 41.0369 48.7402V48.7324Z" fill="white"/>
<path d="M34.0399 51.2614C33.9531 51.2614 33.8663 51.2528 33.7812 51.2356C33.6961 51.2193 33.6128 51.1935 33.532 51.1608C33.452 51.1273 33.3756 51.0861 33.3025 51.0379C33.2303 50.9898 33.1633 50.9348 33.1014 50.8729C33.0404 50.8111 32.9854 50.744 32.9364 50.6719C32.8883 50.5988 32.847 50.5223 32.8135 50.4424C32.78 50.3616 32.7551 50.2783 32.7379 50.1932C32.7207 50.1072 32.7121 50.0213 32.7121 49.9337C32.7113 49.8469 32.7199 49.7601 32.737 49.675C32.7534 49.589 32.7783 49.5057 32.8118 49.4249C32.8453 49.345 32.8857 49.2676 32.9338 49.1954C32.982 49.1224 33.037 49.0554 33.098 48.9935C33.1599 48.9316 33.2269 48.8766 33.2991 48.8276C33.3713 48.7795 33.4478 48.7383 33.5277 48.7047C33.6085 48.6704 33.691 48.6454 33.776 48.6283C33.862 48.6102 33.9479 48.6016 34.0356 48.6016C34.1224 48.6008 34.2083 48.6094 34.2942 48.6257C34.3793 48.6429 34.4627 48.6678 34.5435 48.7004C34.6242 48.734 34.7007 48.7744 34.7729 48.8225C34.846 48.8706 34.913 48.9256 34.9749 48.9866C35.0367 49.0485 35.0917 49.1147 35.1407 49.1877C35.1897 49.2599 35.231 49.3355 35.2645 49.4163C35.298 49.4971 35.3238 49.5796 35.341 49.6655C35.359 49.7506 35.3676 49.8374 35.3685 49.9242C35.3685 50.0119 35.3607 50.0987 35.3435 50.1846C35.3272 50.2705 35.3023 50.3547 35.2688 50.4355C35.2361 50.5163 35.1949 50.5937 35.1467 50.6667C35.0986 50.7397 35.0436 50.8076 34.9817 50.8695C34.9199 50.9314 34.8528 50.9872 34.7798 51.0362C34.7076 51.0844 34.6311 51.1256 34.5503 51.16C34.4695 51.1935 34.3862 51.2184 34.3003 51.2356C34.2143 51.2528 34.1275 51.2614 34.0399 51.2614ZM34.0399 48.874C33.9703 48.874 33.9015 48.8809 33.8336 48.8947C33.7657 48.9076 33.6995 48.9282 33.6351 48.9548C33.5715 48.9815 33.5105 49.0141 33.4529 49.0528C33.3945 49.0915 33.3412 49.1353 33.2922 49.1843C33.2432 49.2341 33.1994 49.2874 33.1607 49.345C33.1229 49.4034 33.0903 49.4644 33.0636 49.5289C33.037 49.5925 33.0172 49.6587 33.0043 49.7274C32.9906 49.7953 32.9837 49.864 32.9837 49.9337C32.9845 50.0033 32.9914 50.072 33.0052 50.1408C33.0189 50.2087 33.0387 50.2748 33.0653 50.3393C33.092 50.4029 33.1255 50.4639 33.1642 50.5215C33.2028 50.579 33.2467 50.6332 33.2956 50.6822C33.3455 50.7312 33.3988 50.7741 33.4563 50.8128C33.5148 50.8515 33.5758 50.8841 33.6403 50.9099C33.7038 50.9365 33.77 50.9563 33.8388 50.9692C33.9067 50.9829 33.9754 50.989 34.045 50.989C34.1146 50.989 34.1834 50.9812 34.2513 50.9675C34.3192 50.9537 34.3853 50.9331 34.4489 50.9065C34.5134 50.8798 34.5735 50.8463 34.6311 50.8076C34.6887 50.769 34.742 50.7243 34.791 50.6753C34.8399 50.6254 34.8829 50.5713 34.9216 50.5137C34.9594 50.4553 34.992 50.3943 35.0178 50.3298C35.0445 50.2654 35.0642 50.1992 35.0771 50.1313C35.09 50.0626 35.0969 49.9938 35.096 49.9242C35.0952 49.8554 35.0883 49.7867 35.0737 49.7188C35.0599 49.6518 35.0393 49.5856 35.0127 49.522C34.986 49.4584 34.9534 49.3983 34.9147 49.3407C34.876 49.284 34.8322 49.2307 34.7832 49.1826C34.7342 49.1336 34.681 49.0897 34.6234 49.0519C34.5658 49.0133 34.5056 48.9815 34.442 48.9548C34.3785 48.9282 34.3123 48.9084 34.2453 48.8947C34.1774 48.8809 34.1086 48.874 34.0399 48.874ZM37.5384 51.2614C37.4507 51.2614 37.3648 51.2528 37.2797 51.2356C37.1938 51.2193 37.1113 51.1935 37.0305 51.1608C36.9497 51.1273 36.8732 51.0861 36.801 51.0379C36.7288 50.9898 36.6618 50.9348 36.5999 50.8729C36.5381 50.8111 36.4831 50.744 36.4349 50.6719C36.386 50.5988 36.3456 50.5223 36.312 50.4424C36.2785 50.3616 36.2527 50.2783 36.2364 50.1932C36.2192 50.1072 36.2106 50.0213 36.2098 49.9337C36.2098 49.8469 36.2184 49.7601 36.2347 49.675C36.2519 49.589 36.2768 49.5057 36.3103 49.4249C36.343 49.345 36.3842 49.2676 36.4324 49.1954C36.4805 49.1224 36.5355 49.0554 36.5965 48.9935C36.6584 48.9316 36.7245 48.8766 36.7967 48.8276C36.8698 48.7795 36.9454 48.7383 37.0262 48.7047C37.1061 48.6704 37.1895 48.6454 37.2745 48.6283C37.3605 48.6102 37.4464 48.6016 37.5332 48.6016C37.6209 48.6008 37.7068 48.6094 37.7919 48.6257C37.8778 48.6429 37.9612 48.6678 38.0411 48.7004C38.1219 48.734 38.1984 48.7744 38.2714 48.8225C38.3436 48.8706 38.4115 48.9256 38.4734 48.9866C38.5353 49.0485 38.5903 49.1147 38.6392 49.1877C38.6874 49.2599 38.7286 49.3355 38.763 49.4163C38.7965 49.4971 38.8223 49.5796 38.8395 49.6655C38.8567 49.7506 38.8661 49.8374 38.8661 49.9242C38.867 50.0119 38.8584 50.0987 38.842 50.1846C38.8257 50.2705 38.8008 50.3547 38.7673 50.4355C38.7346 50.5163 38.6934 50.5937 38.6452 50.6667C38.5971 50.7397 38.5413 50.8076 38.4802 50.8695C38.4184 50.9314 38.3513 50.9872 38.2783 51.0362C38.2061 51.0844 38.1288 51.1256 38.048 51.16C37.9672 51.1935 37.8838 51.2184 37.7979 51.2356C37.7128 51.2528 37.626 51.2614 37.5384 51.2614ZM37.5384 48.874C37.4688 48.874 37.4 48.8809 37.3321 48.8947C37.2642 48.9076 37.1981 48.9282 37.1336 48.9548C37.0692 48.9815 37.0081 49.0141 36.9506 49.0528C36.893 49.0915 36.8397 49.1353 36.7907 49.1843C36.7417 49.2341 36.6979 49.2874 36.6592 49.345C36.6206 49.4034 36.5888 49.4644 36.5621 49.5289C36.5355 49.5925 36.5157 49.6587 36.502 49.7274C36.4891 49.7953 36.4822 49.864 36.4822 49.9337C36.4822 50.0033 36.4891 50.072 36.5028 50.1408C36.5166 50.2087 36.5372 50.2748 36.5638 50.3393C36.5905 50.4029 36.6231 50.4639 36.6618 50.5215C36.7005 50.579 36.7452 50.6332 36.7942 50.6822C36.8431 50.7312 36.8973 50.7741 36.9549 50.8128C37.0124 50.8515 37.0735 50.8841 37.1379 50.9099C37.2024 50.9365 37.2685 50.9563 37.3364 50.9692C37.4052 50.9829 37.4739 50.989 37.5427 50.989C37.6123 50.989 37.681 50.9812 37.7489 50.9675C37.8177 50.9537 37.883 50.9331 37.9474 50.9065C38.011 50.8798 38.072 50.8463 38.1296 50.8076C38.1872 50.769 38.2405 50.7243 38.2895 50.6753C38.3385 50.6254 38.3814 50.5713 38.4201 50.5137C38.4579 50.4553 38.4906 50.3943 38.5163 50.3298C38.543 50.2654 38.5619 50.1992 38.5756 50.1313C38.5885 50.0626 38.5945 49.9938 38.5945 49.9242C38.5937 49.8554 38.5868 49.7867 38.5731 49.7188C38.5585 49.6509 38.5387 49.5856 38.512 49.522C38.4854 49.4584 38.4527 49.3974 38.4141 49.3398C38.3754 49.2831 38.3316 49.2298 38.2826 49.1808C38.2336 49.1327 38.1803 49.0889 38.1227 49.0511C38.0652 49.0124 38.0042 48.9797 37.9406 48.954C37.877 48.9273 37.8108 48.9076 37.7438 48.8938C37.6759 48.8809 37.6071 48.874 37.5384 48.874ZM41.0326 51.2614C40.9458 51.2614 40.8599 51.2528 40.7739 51.2356C40.6888 51.2184 40.6063 51.1926 40.5256 51.1591C40.4456 51.1256 40.3692 51.0844 40.297 51.0362C40.2248 50.9872 40.1577 50.9322 40.0959 50.8704C40.0349 50.8094 39.9799 50.7415 39.9317 50.6693C39.8828 50.5971 39.8424 50.5206 39.8088 50.4398C39.7762 50.359 39.7504 50.2757 39.7341 50.1906C39.7169 50.1047 39.7083 50.0187 39.7083 49.9311C39.7083 49.8443 39.7169 49.7583 39.7341 49.6724C39.7504 49.5873 39.7762 49.504 39.8088 49.4232C39.8424 49.3424 39.8828 49.2659 39.9317 49.1937C39.9799 49.1215 40.0349 49.0537 40.0959 48.9926C40.1577 48.9308 40.2248 48.8758 40.297 48.8268C40.3692 48.7787 40.4456 48.7374 40.5256 48.7039C40.6063 48.6704 40.6888 48.6446 40.7739 48.6274C40.8599 48.6102 40.9458 48.6016 41.0326 48.6016C41.1202 48.6016 41.2062 48.6094 41.2913 48.6265C41.3772 48.6429 41.4597 48.6678 41.5405 48.7013C41.6213 48.734 41.6978 48.7744 41.7699 48.8225C41.843 48.8706 41.91 48.9256 41.9719 48.9875C42.0338 49.0485 42.0888 49.1155 42.1377 49.1877C42.1859 49.2599 42.2271 49.3364 42.2615 49.4163C42.295 49.4971 42.3208 49.5796 42.338 49.6655C42.3552 49.7506 42.3638 49.8374 42.3646 49.9242C42.3646 50.0119 42.3569 50.0987 42.3397 50.1846C42.3225 50.2714 42.2976 50.3547 42.2641 50.4355C42.2306 50.5172 42.1902 50.5937 42.1412 50.6667C42.0931 50.7397 42.0381 50.8076 41.9762 50.8695C41.9143 50.9314 41.8464 50.9872 41.7742 51.0362C41.7012 51.0852 41.6238 51.1256 41.5431 51.16C41.4623 51.1935 41.3789 51.2184 41.293 51.2356C41.207 51.2528 41.1202 51.2614 41.0326 51.2614ZM41.0326 48.874C40.9638 48.874 40.8951 48.8809 40.8263 48.8947C40.7585 48.9093 40.6931 48.929 40.6287 48.9557C40.5651 48.9832 40.5041 49.0158 40.4465 49.0545C40.3889 49.0932 40.3356 49.137 40.2867 49.1869C40.2377 49.2358 40.1947 49.29 40.156 49.3476C40.1174 49.406 40.0856 49.467 40.0589 49.5306C40.0331 49.5951 40.0134 49.6612 39.9996 49.73C39.9867 49.7979 39.9799 49.8666 39.9807 49.9362C39.9807 50.0058 39.9876 50.0746 40.0013 50.1425C40.016 50.2104 40.0357 50.2765 40.0632 50.341C40.0899 50.4046 40.1225 50.4656 40.1612 50.5232C40.1999 50.5808 40.2445 50.634 40.2935 50.683C40.3434 50.732 40.3967 50.7758 40.4542 50.8137C40.5127 50.8523 40.5737 50.8841 40.6373 50.9108C40.7017 50.9365 40.7679 50.9563 40.8367 50.9701C40.9045 50.9829 40.9733 50.989 41.0429 50.989C41.1117 50.9881 41.1804 50.9812 41.2483 50.9675C41.3162 50.9537 41.3824 50.9331 41.4468 50.9056C41.5104 50.879 41.5714 50.8463 41.629 50.8068C41.6857 50.7681 41.739 50.7243 41.788 50.6744C41.837 50.6254 41.8799 50.5713 41.9186 50.5137C41.9564 50.4553 41.9882 50.3943 42.0149 50.3298C42.0406 50.2654 42.0604 50.1992 42.0733 50.1304C42.087 50.0626 42.0931 49.9938 42.0922 49.9242C42.0913 49.8546 42.0845 49.7867 42.0699 49.7188C42.0561 49.6509 42.0355 49.5856 42.0088 49.5212C41.9822 49.4576 41.9487 49.3974 41.91 49.3398C41.8713 49.2822 41.8275 49.2298 41.7785 49.1808C41.7295 49.1319 41.6754 49.0889 41.6178 49.0502C41.5602 49.0124 41.5001 48.9797 41.4356 48.954C41.372 48.9273 41.3059 48.9076 41.238 48.8938C41.1701 48.8809 41.1022 48.874 41.0326 48.874Z" fill="black"/>
<path d="M127.44 91.4969H100.267C100.152 91.4961 100.042 91.4729 99.9367 91.4282C99.8319 91.3835 99.7391 91.3199 99.6583 91.2382C99.5784 91.1566 99.5165 91.0621 99.4735 90.9564C99.4305 90.8498 99.4099 90.7389 99.4108 90.6246V77.3499C99.4108 77.2356 99.4323 77.1256 99.4761 77.0199C99.5199 76.9142 99.5818 76.8205 99.6626 76.7397C99.7425 76.6589 99.8362 76.5962 99.941 76.5515C100.047 76.5077 100.157 76.4854 100.271 76.4854H127.444C127.558 76.4854 127.668 76.5077 127.774 76.5515C127.879 76.5962 127.972 76.6581 128.053 76.7397C128.135 76.8205 128.196 76.9133 128.24 77.0199C128.285 77.1256 128.306 77.2356 128.307 77.3499V90.6246C128.307 90.6814 128.302 90.7381 128.291 90.7948C128.281 90.8507 128.264 90.9048 128.242 90.9581C128.22 91.0114 128.194 91.0612 128.162 91.1085C128.131 91.1566 128.095 91.2004 128.055 91.2408C128.014 91.2812 127.97 91.3182 127.923 91.35C127.876 91.3818 127.825 91.4084 127.773 91.4299C127.72 91.4522 127.665 91.4686 127.609 91.4797C127.554 91.4909 127.497 91.4969 127.44 91.4969ZM100.267 76.7578C100.189 76.7578 100.114 76.7724 100.042 76.8025C99.9685 76.8325 99.9049 76.8755 99.8499 76.9314C99.7949 76.9872 99.7528 77.0508 99.7227 77.1239C99.6935 77.1961 99.6789 77.2717 99.6789 77.3499V90.6246C99.6789 90.7029 99.6935 90.7785 99.7227 90.8507C99.7528 90.9237 99.7949 90.9873 99.8499 91.0432C99.9049 91.099 99.9685 91.142 100.042 91.1721C100.114 91.2021 100.189 91.2168 100.267 91.2168H127.44C127.518 91.2168 127.594 91.2021 127.666 91.1721C127.739 91.142 127.803 91.099 127.859 91.0432C127.914 90.9882 127.957 90.9237 127.987 90.8515C128.017 90.7785 128.031 90.7029 128.031 90.6246V77.3499C128.031 77.2717 128.017 77.1961 127.987 77.123C127.957 77.0508 127.914 76.9864 127.859 76.9314C127.803 76.8755 127.739 76.8325 127.666 76.8025C127.594 76.7724 127.518 76.7578 127.44 76.7578H100.267ZM95.4877 91.4969H68.3143C68.2 91.4961 68.09 91.4737 67.9852 91.4299C67.8795 91.3861 67.7858 91.3233 67.705 91.2425C67.6242 91.1618 67.5615 91.0681 67.5177 90.9624C67.4738 90.8567 67.4515 90.7467 67.4506 90.6315V77.3499C67.4515 77.2356 67.4738 77.1256 67.5177 77.0199C67.5615 76.9133 67.6242 76.8205 67.705 76.7397C67.7858 76.6581 67.8795 76.5962 67.9852 76.5515C68.09 76.5077 68.2 76.4854 68.3143 76.4854H95.4877C95.602 76.4854 95.712 76.5077 95.8177 76.5515C95.9234 76.5962 96.0162 76.6581 96.097 76.7397C96.1787 76.8205 96.2405 76.9133 96.2844 77.0199C96.3291 77.1256 96.3505 77.2356 96.3514 77.3499V90.6246C96.3523 90.7398 96.3308 90.8507 96.287 90.9572C96.2431 91.0638 96.1812 91.1583 96.0996 91.24C96.0188 91.3216 95.9252 91.3843 95.8195 91.429C95.7129 91.4737 95.6029 91.4961 95.4877 91.4969ZM68.3143 76.7578C68.2361 76.7578 68.1605 76.7724 68.0883 76.8025C68.0161 76.8325 67.9516 76.8755 67.8966 76.9314C67.8408 76.9864 67.7978 77.0508 67.7686 77.123C67.7385 77.1961 67.723 77.2717 67.723 77.3499V90.6246C67.723 90.7029 67.7385 90.7785 67.7686 90.8515C67.7978 90.9237 67.8408 90.9882 67.8966 91.0432C67.9516 91.099 68.0161 91.142 68.0883 91.1721C68.1605 91.2021 68.2361 91.2168 68.3143 91.2168H95.4877C95.5659 91.2168 95.6416 91.2021 95.7137 91.1721C95.7868 91.142 95.8504 91.099 95.9062 91.0432C95.9612 90.9882 96.0042 90.9237 96.0343 90.8515C96.0644 90.7785 96.079 90.7029 96.079 90.6246V77.3499C96.079 77.2717 96.0644 77.1961 96.0343 77.123C96.0042 77.0508 95.9612 76.9864 95.9062 76.9314C95.8504 76.8755 95.7868 76.8325 95.7137 76.8025C95.6416 76.7724 95.5659 76.7578 95.4877 76.7578H68.3143ZM95.6218 108.812H68.4492C68.3349 108.812 68.2249 108.79 68.1192 108.747C68.0135 108.703 67.9207 108.641 67.8399 108.561C67.7583 108.48 67.6964 108.386 67.6517 108.281C67.6079 108.176 67.5855 108.066 67.5855 107.951V94.6654C67.5855 94.5511 67.6079 94.4411 67.6517 94.3354C67.6964 94.2297 67.7583 94.1361 67.8391 94.0553C67.9198 93.9736 68.0135 93.9118 68.1192 93.8671C68.2249 93.8232 68.3349 93.8009 68.4492 93.8009H95.6218C95.7361 93.8009 95.8461 93.8232 95.9518 93.8671C96.0575 93.9118 96.1512 93.9736 96.232 94.0553C96.3127 94.1361 96.3746 94.2297 96.4193 94.3354C96.4631 94.4411 96.4855 94.5511 96.4855 94.6654V107.951C96.4855 108.066 96.4631 108.176 96.4193 108.281C96.3746 108.386 96.3127 108.48 96.2311 108.561C96.1503 108.641 96.0575 108.703 95.9518 108.747C95.8461 108.79 95.7361 108.812 95.6218 108.812ZM68.4492 94.0733C68.3702 94.0733 68.2954 94.0879 68.2223 94.118C68.1502 94.1481 68.0866 94.1911 68.0307 94.2469C67.9748 94.3019 67.9327 94.3664 67.9027 94.4386C67.8726 94.5116 67.8571 94.5872 67.8571 94.6654V107.951C67.858 108.03 67.8734 108.104 67.9035 108.177C67.9336 108.249 67.9766 108.312 68.0324 108.367C68.0874 108.423 68.151 108.465 68.2232 108.495C68.2954 108.525 68.371 108.54 68.4492 108.54H95.6218C95.7 108.54 95.7756 108.525 95.8478 108.495C95.92 108.465 95.9836 108.423 96.0386 108.367C96.0944 108.312 96.1374 108.249 96.1675 108.177C96.1976 108.104 96.213 108.03 96.2139 107.951V94.6654C96.2139 94.5872 96.1984 94.5116 96.1684 94.4386C96.1383 94.3664 96.0953 94.3019 96.0403 94.2469C95.9845 94.1911 95.9209 94.1481 95.8487 94.118C95.7756 94.0879 95.7009 94.0733 95.6218 94.0733H68.4492ZM95.6218 125.903H68.4492C68.3349 125.903 68.2249 125.881 68.1192 125.838C68.0135 125.794 67.9207 125.731 67.8399 125.651C67.7583 125.57 67.6964 125.477 67.6517 125.372C67.6079 125.266 67.5855 125.156 67.5855 125.042V111.756C67.5855 111.642 67.6079 111.532 67.6517 111.426C67.6964 111.32 67.7583 111.226 67.8391 111.146C67.9198 111.064 68.0135 111.002 68.1192 110.957C68.2249 110.914 68.3349 110.891 68.4492 110.891H95.6218C95.7361 110.891 95.8461 110.914 95.9518 110.957C96.0575 111.002 96.1512 111.064 96.232 111.146C96.3127 111.226 96.3746 111.32 96.4193 111.426C96.4631 111.532 96.4855 111.642 96.4855 111.756V125.042C96.4855 125.156 96.4631 125.266 96.4193 125.372C96.3746 125.477 96.3127 125.57 96.2311 125.651C96.1503 125.731 96.0575 125.794 95.9518 125.838C95.8461 125.881 95.7361 125.903 95.6218 125.903ZM68.4492 111.164C68.3702 111.164 68.2954 111.178 68.2223 111.208C68.1502 111.238 68.0866 111.281 68.0307 111.337C67.9748 111.392 67.9327 111.457 67.9027 111.529C67.8726 111.602 67.8571 111.678 67.8571 111.756V125.042C67.858 125.12 67.8734 125.195 67.9035 125.267C67.9336 125.339 67.9766 125.403 68.0324 125.458C68.0874 125.513 68.151 125.556 68.2232 125.586C68.2954 125.615 68.371 125.63 68.4492 125.63H95.6218C95.7 125.63 95.7756 125.615 95.8478 125.586C95.92 125.556 95.9836 125.513 96.0386 125.458C96.0944 125.403 96.1374 125.339 96.1675 125.267C96.1976 125.195 96.213 125.12 96.2139 125.042V111.756C96.2139 111.678 96.1984 111.602 96.1684 111.529C96.1383 111.457 96.0953 111.392 96.0403 111.337C95.9845 111.281 95.9209 111.238 95.8487 111.208C95.7756 111.178 95.7009 111.164 95.6218 111.164H68.4492Z" fill="black"/>
<path d="M123.165 82.6706H120.317C120.279 82.6706 120.246 82.6569 120.221 82.6294C120.194 82.6027 120.181 82.5701 120.182 82.5323C120.181 82.4945 120.194 82.4627 120.221 82.436C120.247 82.4094 120.279 82.3965 120.317 82.3973H123.165C123.203 82.3965 123.235 82.4094 123.263 82.436C123.289 82.4618 123.303 82.4945 123.303 82.5323C123.303 82.5701 123.289 82.6027 123.263 82.6302C123.236 82.6569 123.203 82.6706 123.165 82.6706ZM118.833 82.5323C118.833 82.4945 118.819 82.4618 118.791 82.436C118.765 82.4094 118.732 82.3965 118.694 82.3973H103.217C103.18 82.3973 103.148 82.4111 103.122 82.4369C103.096 82.4635 103.083 82.4953 103.083 82.5323C103.083 82.5692 103.096 82.6019 103.122 82.6285C103.148 82.6552 103.18 82.6689 103.217 82.6706H118.694C118.732 82.6706 118.765 82.6569 118.792 82.6302C118.819 82.6027 118.833 82.5701 118.833 82.5323ZM86.7599 79.8287C86.7599 79.79 86.747 79.7582 86.7195 79.7307C86.6929 79.7041 86.6603 79.6903 86.6224 79.6903H71.1485C71.1116 79.6912 71.0798 79.7058 71.054 79.7324C71.0274 79.7591 71.0145 79.7909 71.0145 79.8287C71.0145 79.8656 71.0274 79.8974 71.054 79.9232C71.0798 79.9498 71.1116 79.9627 71.1485 79.9627H86.6224C86.6603 79.9645 86.6929 79.9516 86.7195 79.9249C86.747 79.8983 86.7599 79.8665 86.7599 79.8287ZM124.113 79.7599C124.113 79.7221 124.099 79.6903 124.073 79.6645C124.047 79.6379 124.016 79.625 123.978 79.625H121.329C121.296 79.6302 121.268 79.6465 121.246 79.6723C121.224 79.698 121.213 79.7273 121.213 79.7616C121.213 79.7952 121.224 79.8252 121.246 79.851C121.268 79.8768 121.296 79.8923 121.329 79.8974H123.978C124.016 79.8974 124.048 79.8837 124.074 79.857C124.101 79.8295 124.114 79.7977 124.113 79.7599ZM119.17 79.7599C119.169 79.723 119.156 79.6912 119.129 79.6654C119.103 79.6396 119.072 79.6259 119.035 79.625H115.86C115.827 79.6302 115.799 79.6465 115.778 79.6723C115.755 79.698 115.745 79.7273 115.745 79.7616C115.745 79.7952 115.755 79.8252 115.778 79.851C115.799 79.8768 115.827 79.8923 115.86 79.8974H119.035C119.073 79.8966 119.104 79.8828 119.131 79.8562C119.157 79.8287 119.17 79.7969 119.17 79.7599ZM113.701 79.7599C113.7 79.723 113.687 79.6912 113.661 79.6654C113.635 79.6396 113.603 79.6259 113.566 79.625H103.406C103.373 79.6302 103.345 79.6465 103.324 79.6723C103.301 79.698 103.29 79.7273 103.29 79.7616C103.29 79.7952 103.301 79.8252 103.324 79.851C103.345 79.8768 103.373 79.8923 103.406 79.8974H113.566C113.604 79.8966 113.636 79.8828 113.662 79.8562C113.688 79.8287 113.701 79.7969 113.701 79.7599ZM91.6154 96.1886C91.6145 96.1508 91.6008 96.119 91.5742 96.0932C91.5475 96.0674 91.5149 96.0537 91.4779 96.0537H78.2538C78.2212 96.0597 78.1937 96.0752 78.1713 96.1009C78.1499 96.1267 78.1387 96.1568 78.1387 96.1903C78.1387 96.2238 78.1499 96.2539 78.1713 96.2797C78.1937 96.3055 78.2212 96.3209 78.2538 96.327H91.4779C91.5157 96.327 91.5484 96.3132 91.575 96.2857C91.6025 96.2591 91.6154 96.2264 91.6154 96.1886ZM83.3671 99.0959C83.3671 99.0589 83.3542 99.0271 83.3276 99.0005C83.3018 98.9747 83.27 98.9609 83.2331 98.9609H71.1056C71.072 98.967 71.0445 98.9824 71.0222 99.0082C71.0007 99.034 70.9895 99.0632 70.9895 99.0976C70.9895 99.1311 71.0007 99.1612 71.0222 99.187C71.0445 99.2127 71.072 99.2282 71.1056 99.2334H83.2399C83.2769 99.2316 83.307 99.217 83.3319 99.1904C83.3568 99.1637 83.368 99.132 83.3671 99.0959ZM87.1664 99.0959C87.1664 99.0589 87.1535 99.0271 87.1278 99.0005C87.1011 98.9747 87.0693 98.9609 87.0324 98.9609H85.6213C85.6006 98.9575 85.5809 98.9592 85.562 98.9644C85.5422 98.9695 85.525 98.979 85.5095 98.9919C85.4941 99.0056 85.482 99.0211 85.4735 99.0391C85.4649 99.058 85.4606 99.077 85.4606 99.0976C85.4606 99.1173 85.4649 99.1371 85.4735 99.1552C85.482 99.1741 85.4941 99.1895 85.5095 99.2024C85.525 99.2162 85.5422 99.2248 85.562 99.2308C85.5809 99.2359 85.6006 99.2368 85.6213 99.2334H87.0289C87.0676 99.2351 87.1003 99.2213 87.1278 99.1947C87.1544 99.1672 87.1681 99.1345 87.1664 99.0959ZM76.2326 96.1886C76.2317 96.1508 76.218 96.119 76.1913 96.0932C76.1647 96.0674 76.132 96.0537 76.0951 96.0537H71.2835C71.2499 96.0597 71.2224 96.0752 71.2001 96.1009C71.1786 96.1267 71.1674 96.1568 71.1674 96.1903C71.1674 96.2238 71.1786 96.2539 71.2001 96.2797C71.2224 96.3055 71.2499 96.3209 71.2835 96.327H76.0951C76.1329 96.327 76.1656 96.3132 76.1922 96.2857C76.2197 96.2591 76.2326 96.2264 76.2326 96.1886ZM91.6154 113.268C91.6154 113.23 91.6025 113.198 91.575 113.172C91.5484 113.145 91.5157 113.132 91.4779 113.134H78.2538C78.2169 113.134 78.1851 113.147 78.1593 113.172C78.1327 113.199 78.1198 113.231 78.1198 113.268C78.1198 113.306 78.1327 113.337 78.1593 113.364C78.1851 113.391 78.2169 113.405 78.2538 113.406H91.4779C91.514 113.406 91.5449 113.394 91.5716 113.369C91.5982 113.345 91.6128 113.315 91.6154 113.279V113.268ZM84.5324 118.97C84.5324 118.932 84.5195 118.9 84.4929 118.874C84.4671 118.846 84.4353 118.832 84.3975 118.831H71.1674C71.1288 118.831 71.0961 118.845 71.0695 118.872C71.0428 118.898 71.0291 118.931 71.0291 118.97C71.0291 119.008 71.0428 119.039 71.0695 119.066C71.097 119.093 71.1296 119.105 71.1674 119.104H84.3906C84.4293 119.106 84.462 119.094 84.4903 119.067C84.5187 119.041 84.5324 119.008 84.5324 118.97ZM83.3749 116.197C83.3757 116.16 83.3628 116.127 83.3362 116.1C83.3095 116.074 83.2778 116.062 83.2399 116.062H71.1056C71.0686 116.062 71.0368 116.075 71.0102 116.102C70.9844 116.128 70.9706 116.16 70.9706 116.197C70.9706 116.234 70.9844 116.266 71.0102 116.293C71.036 116.32 71.0678 116.334 71.1056 116.335H83.2399C83.2786 116.333 83.3113 116.318 83.3362 116.288C83.3611 116.258 83.3714 116.224 83.3671 116.186L83.3749 116.197ZM87.1742 116.197C87.175 116.16 87.1621 116.127 87.1355 116.1C87.1088 116.074 87.077 116.062 87.0401 116.062H85.6213C85.5835 116.062 85.5508 116.074 85.5233 116.1C85.4967 116.127 85.4829 116.159 85.4829 116.197C85.4829 116.235 85.4967 116.268 85.5233 116.295C85.5499 116.321 85.5826 116.335 85.6213 116.335H87.0289C87.0693 116.337 87.1037 116.322 87.132 116.292C87.1595 116.262 87.1716 116.227 87.1664 116.186L87.1742 116.197ZM76.2403 113.289C76.2403 113.251 76.2266 113.22 76.1999 113.193C76.1724 113.167 76.1398 113.154 76.102 113.155H71.2835C71.2465 113.155 71.2147 113.168 71.1881 113.195C71.1623 113.221 71.1485 113.252 71.1485 113.289C71.1485 113.327 71.1623 113.359 71.1881 113.386C71.2138 113.413 71.2456 113.427 71.2835 113.428H76.0951C76.1355 113.428 76.169 113.413 76.1965 113.384C76.224 113.354 76.236 113.319 76.2326 113.279L76.2403 113.289ZM89.8081 121.742C89.809 121.704 89.7953 121.672 89.7686 121.645C89.7411 121.618 89.7085 121.604 89.6706 121.604H84.8556C84.8349 121.601 84.8152 121.602 84.7963 121.607C84.7765 121.612 84.7593 121.622 84.7438 121.636C84.7284 121.648 84.7163 121.664 84.7078 121.683C84.6992 121.701 84.6949 121.72 84.6949 121.74C84.6949 121.761 84.6992 121.78 84.7078 121.798C84.7163 121.817 84.7284 121.832 84.7438 121.845C84.7593 121.859 84.7765 121.868 84.7963 121.874C84.8152 121.879 84.8349 121.88 84.8556 121.877H89.6638C89.7033 121.877 89.736 121.862 89.7635 121.834C89.791 121.805 89.803 121.77 89.8013 121.731L89.8081 121.742ZM90.5928 82.2667C90.5928 82.2298 90.579 82.1971 90.5532 82.1705C90.5274 82.1438 90.4956 82.1301 90.4578 82.1292H80.2141C80.1935 82.1258 80.1745 82.1266 80.1548 82.1318C80.135 82.1378 80.1178 82.1464 80.1024 82.1602C80.0869 82.173 80.0749 82.1885 80.0663 82.2074C80.0577 82.2255 80.0534 82.2452 80.0534 82.265C80.0534 82.2856 80.0577 82.3045 80.0663 82.3234C80.0749 82.3415 80.0869 82.357 80.1024 82.3707C80.1178 82.3836 80.135 82.393 80.1548 82.3982C80.1745 82.4034 80.1935 82.4051 80.2141 82.4016H90.4578C90.4948 82.4008 90.5257 82.387 90.5524 82.3612C90.5781 82.3346 90.591 82.3037 90.5928 82.2667ZM78.2212 82.2667C78.2229 82.2289 78.21 82.1962 78.1834 82.1696C78.1576 82.1421 78.1249 82.1292 78.0871 82.1292H71.3522C71.3324 82.1258 71.3127 82.1266 71.2929 82.1318C71.2731 82.1378 71.256 82.1464 71.2405 82.1602C71.225 82.173 71.213 82.1885 71.2044 82.2074C71.1958 82.2255 71.1915 82.2452 71.1915 82.265C71.1915 82.2856 71.1958 82.3045 71.2044 82.3234C71.213 82.3415 71.225 82.357 71.2405 82.3707C71.256 82.3836 71.2731 82.393 71.2929 82.3982C71.3127 82.4034 71.3324 82.4051 71.3522 82.4016H78.0871C78.1241 82.4016 78.1559 82.3879 78.1825 82.3621C78.2083 82.3355 78.2212 82.3037 78.2212 82.2667ZM90.6795 79.8321C90.6795 79.7943 90.6658 79.7616 90.6392 79.7341C90.6125 79.7075 90.5799 79.6938 90.5412 79.6938H88.2157C88.1779 79.6938 88.1453 79.7075 88.1195 79.735C88.0928 79.7616 88.0799 79.7943 88.0808 79.8321C88.0799 79.8699 88.0928 79.9017 88.1195 79.9284C88.1461 79.955 88.1779 79.9679 88.2157 79.967H90.5412C90.5799 79.9679 90.6134 79.955 90.64 79.9275C90.6675 79.9 90.6804 79.8673 90.6795 79.8287V79.8321Z" fill="black"/>
<path d="M28.4118 66.9715H32.1097H28.4118ZM32.2472 66.9715C32.2472 66.9337 32.2335 66.901 32.2068 66.8744C32.1802 66.8469 32.1475 66.834 32.1097 66.834H28.4118C28.3783 66.8391 28.3508 66.8546 28.3285 66.8804C28.307 66.9062 28.2958 66.9362 28.2958 66.9698C28.2958 67.0033 28.307 67.0334 28.3285 67.0591C28.3508 67.0849 28.3783 67.1004 28.4118 67.1064H32.1097C32.1467 67.1064 32.1793 67.0927 32.206 67.0669C32.2326 67.0411 32.2463 67.0093 32.2472 66.9715ZM28.4118 68.062H32.1097H28.4118ZM32.2472 68.062C32.2472 68.0234 32.2335 67.9916 32.2068 67.9641C32.1802 67.9374 32.1475 67.9237 32.1097 67.9237H28.4118C28.3783 67.9288 28.3508 67.9452 28.3285 67.9709C28.307 67.9967 28.2958 68.0259 28.2958 68.0603C28.2958 68.0938 28.307 68.1239 28.3285 68.1497C28.3508 68.1755 28.3783 68.1909 28.4118 68.1961H32.1097C32.1484 68.1961 32.181 68.1823 32.2085 68.1548C32.2352 68.1265 32.2481 68.0938 32.2472 68.0543V68.062ZM28.4118 69.1517H32.1097H28.4118ZM32.2472 69.1517C32.2472 69.1139 32.2335 69.0812 32.2068 69.0546C32.1802 69.0271 32.1475 69.0142 32.1097 69.0142H28.4118C28.374 69.0151 28.3422 69.0288 28.3164 69.0555C28.2906 69.0821 28.2769 69.1148 28.2777 69.1517C28.2777 69.1895 28.2906 69.2205 28.3164 69.2471C28.3431 69.2737 28.3749 69.2866 28.4118 69.2866H32.1097C32.1501 69.2875 32.1845 69.2737 32.212 69.2437C32.2403 69.2136 32.2515 69.1784 32.2472 69.1371V69.1517Z" fill="black"/>
<path d="M23.9731 94.2915H21.9304V76.2412H53.6284V78.2436H23.9731V94.2915Z" fill="white"/>
<path d="M132.662 58.9515C132.662 59.0469 132.652 59.1414 132.634 59.2351C132.615 59.3287 132.588 59.419 132.552 59.5075C132.515 59.596 132.47 59.6794 132.418 59.7584C132.364 59.8383 132.304 59.9114 132.237 59.9793C132.169 60.0463 132.096 60.1065 132.017 60.1598C131.937 60.213 131.854 60.2577 131.766 60.2938C131.678 60.3308 131.587 60.3583 131.494 60.3772C131.4 60.3952 131.306 60.4047 131.21 60.4047C131.115 60.4047 131.02 60.3952 130.928 60.3772C130.834 60.3583 130.743 60.3308 130.655 60.2938C130.567 60.2577 130.483 60.213 130.404 60.1598C130.325 60.1065 130.251 60.0463 130.184 59.9793C130.116 59.9114 130.056 59.8383 130.004 59.7584C129.95 59.6794 129.906 59.596 129.87 59.5075C129.833 59.419 129.805 59.3287 129.787 59.2351C129.768 59.1414 129.759 59.0469 129.759 58.9515C129.759 58.8561 129.768 58.7615 129.787 58.6679C129.805 58.5742 129.833 58.4831 129.87 58.3946C129.906 58.3069 129.95 58.2227 130.004 58.1437C130.056 58.0646 130.116 57.9907 130.184 57.9237C130.251 57.8558 130.325 57.7956 130.404 57.7423C130.483 57.6899 130.567 57.6452 130.655 57.6083C130.743 57.5722 130.834 57.5447 130.928 57.5258C131.02 57.5069 131.115 57.4974 131.21 57.4974C131.306 57.4974 131.4 57.5069 131.494 57.5258C131.587 57.5447 131.678 57.5722 131.766 57.6083C131.854 57.6452 131.937 57.6899 132.017 57.7423C132.096 57.7956 132.169 57.8558 132.237 57.9237C132.304 57.9907 132.364 58.0646 132.418 58.1437C132.47 58.2227 132.515 58.3069 132.552 58.3946C132.588 58.4831 132.615 58.5742 132.634 58.6679C132.652 58.7615 132.662 58.8561 132.662 58.9515ZM81.8288 57.4974C81.7335 57.4974 81.6389 57.5069 81.5452 57.5258C81.4516 57.5447 81.3613 57.5722 81.2728 57.6083C81.1852 57.6452 81.1018 57.6899 81.0219 57.7423C80.9428 57.7956 80.8698 57.8558 80.8019 57.9237C80.7349 57.9907 80.6747 58.0646 80.6214 58.1437C80.569 58.2227 80.5243 58.3069 80.4874 58.3946C80.4513 58.4831 80.4238 58.5742 80.4049 58.6679C80.3868 58.7615 80.3774 58.8561 80.3774 58.9515C80.3774 59.0469 80.3868 59.1414 80.4049 59.2351C80.4238 59.3287 80.4513 59.419 80.4874 59.5075C80.5243 59.596 80.569 59.6794 80.6214 59.7584C80.6747 59.8383 80.7349 59.9114 80.8019 59.9793C80.8698 60.0463 80.9428 60.1065 81.0219 60.1598C81.1018 60.213 81.1852 60.2577 81.2728 60.2938C81.3613 60.3308 81.4516 60.3583 81.5452 60.3772C81.6389 60.3952 81.7335 60.4047 81.8288 60.4047C81.9242 60.4047 82.0188 60.3952 82.1116 60.3772C82.2052 60.3583 82.2963 60.3308 82.384 60.2938C82.4725 60.2577 82.5559 60.213 82.6349 60.1598C82.714 60.1065 82.7879 60.0463 82.8549 59.9793C82.9228 59.9114 82.983 59.8383 83.0354 59.7584C83.0887 59.6794 83.1334 59.596 83.1695 59.5075C83.2064 59.419 83.2339 59.3287 83.252 59.2351C83.2709 59.1414 83.2803 59.0469 83.2803 58.9515C83.2803 58.8561 83.2709 58.7615 83.252 58.6679C83.2339 58.5742 83.2064 58.4831 83.1695 58.3946C83.1334 58.3069 83.0887 58.2227 83.0354 58.1437C82.983 58.0646 82.9228 57.9907 82.8549 57.9237C82.7879 57.8558 82.714 57.7956 82.6349 57.7423C82.5559 57.6899 82.4725 57.6452 82.384 57.6083C82.2963 57.5722 82.2052 57.5447 82.1116 57.5258C82.0188 57.5069 81.9242 57.4974 81.8288 57.4974ZM126.776 59.1551C126.776 59.1044 126.758 59.0615 126.723 59.0262C126.687 58.991 126.644 58.973 126.595 58.973H116.267C116.217 58.973 116.174 58.991 116.139 59.0262C116.103 59.0615 116.085 59.1044 116.085 59.1551C116.085 59.205 116.103 59.248 116.139 59.2832C116.174 59.3184 116.217 59.3365 116.267 59.3365H126.595C126.644 59.3365 126.687 59.3184 126.723 59.2832C126.758 59.248 126.776 59.205 126.776 59.1551ZM96.6385 59.1551C96.6385 59.1044 96.6204 59.0615 96.5852 59.0262C96.5499 58.991 96.507 58.973 96.4563 58.973H86.1292C86.0785 58.973 86.0363 58.991 86.0002 59.0262C85.965 59.0615 85.9478 59.1044 85.9478 59.1551C85.9478 59.205 85.965 59.248 86.0002 59.2832C86.0363 59.3184 86.0785 59.3365 86.1292 59.3365H96.4563C96.507 59.3365 96.5499 59.3184 96.5852 59.2832C96.6204 59.248 96.6385 59.205 96.6385 59.1551ZM55.0292 58.6464C55.0292 58.5957 55.012 58.5527 54.976 58.5175C54.9407 58.4823 54.8977 58.4642 54.8479 58.4642H40.6699C40.6201 58.4642 40.5771 58.4823 40.5419 58.5175C40.5058 58.5527 40.4886 58.5957 40.4886 58.6464C40.4886 58.6962 40.5058 58.7392 40.5419 58.7744C40.5771 58.8097 40.6201 58.8277 40.6699 58.8277H54.8479C54.8977 58.8277 54.9407 58.8097 54.976 58.7744C55.012 58.7392 55.0292 58.6962 55.0292 58.6464ZM35.3461 59.1036C35.5524 59.0847 35.756 59.0933 35.9597 59.1294C37.4327 59.3983 37.883 59.4379 38.5 58.5845C38.5292 58.5433 38.5404 58.4986 38.5327 58.4487C38.5249 58.3989 38.5009 58.3594 38.4605 58.3293C38.4192 58.3001 38.3745 58.2889 38.3247 58.2966C38.2749 58.3044 38.2353 58.3293 38.2061 58.3697C37.7412 59.009 37.5384 59.0494 36.0285 58.7736C35.8317 58.7383 35.6331 58.7263 35.4338 58.7366C35.5644 57.8936 35.2198 57.2362 34.552 57.0832C32.9553 56.7197 31.3148 59.6269 31.2495 59.7395C31.228 59.7833 31.2245 59.828 31.2392 59.8736C31.2529 59.92 31.2813 59.9552 31.3234 59.9784C31.3655 60.0025 31.4093 60.0085 31.4557 59.9965C31.503 59.9844 31.5391 59.9587 31.5649 59.9183C31.9937 59.144 33.3652 57.1923 34.4541 57.4355C35.0565 57.5739 35.1467 58.2425 35.0376 58.777C34.0476 58.9257 33.0533 59.4602 32.9691 59.9183C32.9562 59.9913 32.9631 60.0626 32.9906 60.1323C33.0181 60.2019 33.0619 60.2586 33.122 60.3033C33.2613 60.4004 33.4142 60.4597 33.5827 60.4812C33.6583 60.4958 33.7348 60.5026 33.8113 60.5026C34.5555 60.5026 35.1175 59.8452 35.3461 59.1036ZM33.6626 60.1254C33.5552 60.1116 33.4563 60.0773 33.3652 60.0197C33.3395 59.9982 33.3395 59.9905 33.3395 59.9836C33.3799 59.7619 34.1163 59.3219 34.9396 59.1586C34.7042 59.7541 34.2212 60.2233 33.6626 60.1254Z" fill="#434343"/>
<path d="M52.9031 94.4288H22.6566C22.5423 94.4288 22.4323 94.4064 22.3266 94.3618C22.2217 94.3179 22.1281 94.2552 22.0481 94.1744C21.9674 94.0936 21.9055 94 21.8617 93.8943C21.8178 93.7886 21.7963 93.6786 21.7963 93.5643V76.968C21.7955 76.9104 21.7998 76.8537 21.8101 76.7979C21.8204 76.7411 21.8359 76.687 21.8574 76.6337C21.8788 76.5804 21.9046 76.5297 21.9356 76.4816C21.9674 76.4335 22.0026 76.3896 22.043 76.3484C22.0825 76.3071 22.1263 76.2711 22.1736 76.2384C22.2209 76.2066 22.2707 76.1791 22.3231 76.1568C22.3764 76.1344 22.4306 76.1181 22.4864 76.1061C22.5423 76.0949 22.599 76.0889 22.6566 76.0889H52.9031C53.0174 76.0889 53.1274 76.1112 53.2331 76.155C53.3388 76.1997 53.4317 76.2616 53.5124 76.3432C53.5932 76.424 53.656 76.5177 53.6998 76.6234C53.7436 76.7291 53.766 76.8391 53.7668 76.9534V93.5496C53.7677 93.6072 53.7625 93.6639 53.7522 93.7198C53.741 93.7765 53.7256 93.8315 53.7041 93.8848C53.6826 93.9381 53.656 93.9879 53.625 94.0361C53.5932 94.0842 53.558 94.1289 53.5176 94.1693C53.4772 94.2105 53.4334 94.2466 53.3861 94.2793C53.3388 94.3111 53.289 94.3386 53.2366 94.3609C53.1833 94.3832 53.1292 94.3996 53.0733 94.4116C53.0166 94.4228 52.9599 94.4288 52.9031 94.4288ZM22.6566 76.3759C22.5784 76.3759 22.5027 76.3914 22.4306 76.4214C22.3592 76.4524 22.2956 76.4954 22.2406 76.5504C22.1856 76.6062 22.1427 76.6698 22.1126 76.742C22.0834 76.8142 22.0679 76.8898 22.0679 76.968V93.5643C22.0679 93.6425 22.0834 93.7172 22.1126 93.7903C22.1427 93.8625 22.1856 93.9261 22.2406 93.9819C22.2956 94.0369 22.3592 94.0799 22.4306 94.11C22.5027 94.1409 22.5784 94.1564 22.6566 94.1564H52.9031C52.9813 94.1564 53.057 94.1418 53.1292 94.1117C53.2013 94.0816 53.2658 94.0386 53.3208 93.9828C53.3767 93.9278 53.4196 93.8633 53.4497 93.7911C53.4798 93.7181 53.4944 93.6425 53.4944 93.5643V76.968C53.4944 76.8898 53.4798 76.8142 53.4497 76.7411C53.4196 76.6689 53.3767 76.6045 53.3208 76.5495C53.2658 76.4936 53.2013 76.4507 53.1292 76.4206C53.057 76.3905 52.9813 76.3759 52.9031 76.3759H22.6566Z" fill="black"/>
<path d="M8.66681 84.0503L12.6148 83.9995L14.3859 87.8521C14.3859 87.8521 18.7404 85.824 21.3245 85.977C21.3245 85.977 23.6036 83.3387 24.4123 83.3894C25.2218 83.4401 24.6667 83.8474 24.6667 83.8474C24.6667 83.8474 25.2725 83.5931 25.5776 83.8981C25.8827 84.2032 25.4762 84.4542 25.4762 84.4542C25.4762 84.4542 25.8388 84.2539 26.0348 84.8177C26.2307 85.3806 23.1318 87.6553 21.731 88.5207C20.3302 89.3853 16.5636 92.2702 14.0852 91.7657C11.098 91.1478 8.66681 84.0503 8.66681 84.0503Z" fill="#F7EAD0"/>
<path d="M8.32564 84.2363C8.29212 84.2312 8.26462 84.2157 8.24314 84.1899C8.22079 84.1641 8.21048 84.1341 8.21048 84.1005C8.21048 84.0662 8.22079 84.037 8.24314 84.0112C8.26462 83.9854 8.29212 83.9691 8.32564 83.9639L13.5438 83.6691L12.858 78.5421C12.852 78.5043 12.8597 78.4708 12.8829 78.4407C12.9061 78.4098 12.9362 78.3934 12.974 78.3891C13.0118 78.384 13.0453 78.3926 13.0745 78.4158C13.1046 78.4381 13.1218 78.4682 13.127 78.506L13.8342 83.7783C13.842 83.8187 13.8325 83.8539 13.805 83.884C13.7801 83.9141 13.7474 83.9312 13.707 83.9347L8.32564 84.2363Z" fill="black"/>
<path d="M50.0363 112.9L56.027 102.507C56.5005 102.78 56.9534 103.084 57.3856 103.419C57.817 103.755 58.2244 104.118 58.6068 104.509C58.9884 104.9 59.3424 105.315 59.6681 105.755C59.9938 106.194 60.2877 106.654 60.5498 107.135C60.8128 107.614 61.0414 108.11 61.2365 108.621C61.4316 109.132 61.5906 109.654 61.7134 110.187C61.8372 110.721 61.924 111.26 61.9738 111.804C62.0237 112.349 62.0366 112.895 62.0116 113.442L50.0363 112.9Z" fill="#FFEB9A"/>
<path d="M50.0363 122.774C49.72 122.774 49.4046 122.758 49.0892 122.728C48.7747 122.697 48.4619 122.65 48.1517 122.589C47.8414 122.527 47.5355 122.451 47.233 122.359C46.9296 122.267 46.6323 122.16 46.3401 122.039C46.0479 121.918 45.7626 121.783 45.4833 121.634C45.204 121.485 44.9333 121.322 44.6703 121.146C44.4074 120.97 44.1539 120.782 43.9089 120.581C43.664 120.38 43.4303 120.167 43.2068 119.944C42.9825 119.72 42.7703 119.486 42.57 119.241C42.3689 118.996 42.1807 118.742 42.0054 118.479C41.8292 118.216 41.6668 117.944 41.5173 117.665C41.3686 117.386 41.2328 117.099 41.1125 116.807C40.9914 116.514 40.8848 116.217 40.7928 115.914C40.7009 115.61 40.6235 115.303 40.5617 114.993C40.5006 114.683 40.4542 114.369 40.4224 114.055C40.3915 113.739 40.376 113.423 40.376 113.107C40.376 112.79 40.3915 112.473 40.4224 112.159C40.4534 111.844 40.4998 111.53 40.5617 111.22C40.6227 110.909 40.7 110.602 40.7911 110.299C40.8831 109.996 40.9896 109.698 41.1108 109.406C41.232 109.112 41.3669 108.826 41.5156 108.547C41.6651 108.268 41.8275 107.996 42.0028 107.733C42.179 107.469 42.3672 107.216 42.5674 106.971C42.7685 106.726 42.9799 106.491 43.2042 106.267C43.4277 106.044 43.6614 105.831 43.9064 105.629C44.1504 105.429 44.4039 105.24 44.6669 105.064C44.9299 104.889 45.2014 104.725 45.4799 104.577C45.7592 104.427 46.0445 104.291 46.3367 104.17C46.6288 104.049 46.9262 103.942 47.2296 103.851C47.5321 103.759 47.838 103.682 48.1482 103.62C48.4585 103.558 48.7713 103.512 49.0858 103.481C49.4003 103.45 49.7166 103.435 50.0328 103.435C50.3491 103.435 50.6645 103.45 50.979 103.481C51.2935 103.512 51.6063 103.558 51.9166 103.62C52.2268 103.681 52.5328 103.759 52.8353 103.851C53.1378 103.942 53.436 104.049 53.7281 104.17C54.0203 104.291 54.3056 104.426 54.5841 104.576C54.8634 104.725 55.1341 104.888 55.3971 105.063C55.66 105.239 55.9135 105.427 56.1585 105.629C56.4025 105.83 56.6371 106.042 56.8606 106.266C57.084 106.49 57.2963 106.724 57.4965 106.969C57.6976 107.214 57.8858 107.468 58.0611 107.731C58.2373 107.994 58.3997 108.266 58.5484 108.545C58.6979 108.825 58.8328 109.111 58.954 109.403C59.0752 109.696 59.1809 109.994 59.2728 110.297C59.3648 110.6 59.4413 110.907 59.5031 111.217C59.565 111.528 59.6114 111.841 59.6424 112.156C59.6733 112.472 59.6888 112.787 59.6888 113.104C59.6888 113.421 59.6724 113.737 59.6415 114.051C59.6106 114.367 59.5633 114.679 59.5014 114.99C59.4396 115.3 59.3631 115.607 59.2711 115.909C59.1792 116.212 59.0726 116.51 58.9514 116.802C58.8303 117.094 58.6953 117.381 58.5458 117.659C58.3971 117.938 58.2347 118.21 58.0585 118.473C57.8832 118.736 57.695 118.99 57.4948 119.234C57.2946 119.479 57.0823 119.714 56.8589 119.937C56.6354 120.161 56.4017 120.374 56.1567 120.575C55.9127 120.775 55.6592 120.964 55.3962 121.139C55.1341 121.316 54.8634 121.478 54.5849 121.628C54.3056 121.777 54.0203 121.913 53.729 122.034C53.4368 122.155 53.1395 122.262 52.837 122.355C52.5345 122.447 52.2285 122.524 51.9183 122.586C51.6089 122.648 51.2961 122.695 50.9816 122.726C50.6671 122.758 50.3525 122.773 50.0363 122.774ZM50.0363 103.707C49.7286 103.707 49.4218 103.722 49.1159 103.752C48.8099 103.782 48.5066 103.826 48.2049 103.887C47.9033 103.947 47.606 104.022 47.3112 104.11C47.0173 104.199 46.7285 104.303 46.4441 104.421C46.1605 104.539 45.8829 104.669 45.6114 104.815C45.3406 104.96 45.0768 105.118 44.8216 105.289C44.5655 105.459 44.3189 105.642 44.0817 105.838C43.8436 106.033 43.6167 106.24 43.3993 106.457C43.1819 106.674 42.9756 106.902 42.7806 107.14C42.5855 107.378 42.4024 107.625 42.2314 107.881C42.0604 108.137 41.9023 108.4 41.7579 108.672C41.6127 108.943 41.4812 109.221 41.3635 109.505C41.2457 109.79 41.1426 110.079 41.0532 110.374C40.9639 110.668 40.8891 110.966 40.8289 111.269C40.7688 111.57 40.7241 111.874 40.694 112.18C40.6631 112.487 40.6485 112.794 40.6485 113.102C40.6485 113.409 40.6631 113.717 40.6931 114.023C40.7232 114.33 40.7688 114.633 40.8281 114.936C40.8882 115.237 40.963 115.535 41.0524 115.83C41.1409 116.125 41.2449 116.415 41.3626 116.699C41.4795 116.983 41.611 117.261 41.7562 117.533C41.9006 117.804 42.0587 118.068 42.2297 118.324C42.3999 118.58 42.5829 118.827 42.778 119.065C42.9731 119.303 43.1793 119.531 43.3967 119.748C43.6133 119.966 43.841 120.173 44.0791 120.368C44.3163 120.563 44.5629 120.746 44.8181 120.917C45.0742 121.088 45.3372 121.246 45.6088 121.391C45.8795 121.536 46.1571 121.668 46.4406 121.786C46.7251 121.903 47.0139 122.007 47.3078 122.097C47.6025 122.186 47.8999 122.261 48.2015 122.321C48.5031 122.381 48.8065 122.426 49.1124 122.456C49.4184 122.486 49.7252 122.502 50.0328 122.502C50.3396 122.502 50.6464 122.486 50.9524 122.456C51.2583 122.426 51.5617 122.381 51.8633 122.321C52.1649 122.261 52.4623 122.186 52.7562 122.097C53.051 122.007 53.3397 121.904 53.6233 121.787C53.9078 121.669 54.1853 121.537 54.456 121.392C54.7267 121.247 54.9906 121.089 55.2458 120.918C55.5019 120.748 55.7485 120.564 55.9857 120.369C56.2229 120.173 56.4506 119.967 56.6681 119.75C56.8855 119.532 57.0917 119.304 57.2868 119.066C57.4819 118.829 57.6641 118.581 57.8351 118.325C58.0061 118.07 58.1634 117.806 58.3086 117.534C58.4538 117.263 58.5845 116.985 58.7022 116.701C58.8199 116.416 58.9231 116.127 59.0124 115.832C59.1018 115.538 59.1766 115.24 59.2367 114.937C59.296 114.636 59.3416 114.331 59.3717 114.026C59.4017 113.719 59.4163 113.412 59.4163 113.104C59.4163 112.797 59.4009 112.49 59.3708 112.184C59.3399 111.877 59.2952 111.574 59.235 111.272C59.1749 110.97 59.1001 110.672 59.0107 110.378C58.9214 110.084 58.8174 109.795 58.6996 109.51C58.5819 109.226 58.4513 108.948 58.306 108.678C58.1608 108.406 58.0035 108.143 57.8325 107.887C57.6615 107.631 57.4793 107.384 57.2842 107.147C57.0892 106.909 56.8838 106.681 56.6663 106.464C56.4489 106.246 56.2221 106.039 55.984 105.844C55.7468 105.649 55.501 105.466 55.2458 105.295C54.9897 105.124 54.7267 104.966 54.456 104.821C54.1853 104.676 53.9078 104.544 53.6242 104.426C53.3406 104.308 53.0518 104.205 52.7579 104.114C52.464 104.025 52.1667 103.95 51.8659 103.89C51.5642 103.829 51.2609 103.784 50.9549 103.753C50.6499 103.722 50.3431 103.707 50.0363 103.707Z" fill="black"/>
<path d="M74.3059 36.8422C74.3059 36.8422 72.4917 37.4532 71.8747 38.4664C71.2577 39.4805 68.0281 44.0085 68.0281 44.0085L72.0199 47.3876L74.1967 45.0913H78.363C78.4885 44.898 78.6345 44.7218 78.8013 44.562C78.968 44.403 79.1502 44.2646 79.3495 44.1478C79.5481 44.0317 79.7577 43.9389 79.9777 43.871C80.1977 43.804 80.4229 43.7619 80.6532 43.7464C81.5874 43.651 82.4871 43.786 83.3525 44.1503L88.8216 43.0598L88.6179 42.1119L91.9093 40.4911C91.9093 40.4911 88.4151 36.5698 86.662 36.1624C84.9097 35.756 80.7873 35.8247 80.7873 35.8247L74.3059 36.8422Z" fill="#FFEB9A"/>
<path d="M68.7354 44.5498C68.7354 44.5498 67.3166 46.5118 67.0484 47.6607C66.7795 48.8089 72.0449 58.6135 72.0449 58.6135C72.2356 59.6782 72.5278 60.7155 72.9197 61.7236C73.4568 62.9413 74.1314 63.1407 74.8103 63.279C75.4892 63.4174 76.1604 64.1547 76.6975 64.0061C77.2346 63.8565 76.3598 62.5846 75.6087 61.5714C74.8576 60.5574 74.4726 60.0993 74.4726 60.0993C74.4726 60.0993 76.4328 61.3858 76.9734 61.0481C77.5139 60.7095 74.9487 58.9512 74.6109 58.7475C74.5422 58.4098 71.9108 50.9057 71.4356 49.4843C71.3634 49.2953 71.3221 49.1002 71.3127 48.8974C71.3032 48.6954 71.3264 48.4969 71.3814 48.3018C71.4364 48.1068 71.5206 47.9263 71.6341 47.7587C71.7475 47.5911 71.885 47.4459 72.0449 47.3221L68.7354 44.5498Z" fill="white"/>
<path d="M76.5488 64.1764C76.1965 64.13 75.8768 64.002 75.5906 63.7914C75.3363 63.6273 75.063 63.5061 74.7708 63.4279C74.0446 63.2827 73.3374 63.0464 72.7822 61.7934C72.3886 60.7725 72.0981 59.7232 71.9108 58.6464C71.323 57.5558 66.642 48.773 66.9144 47.6137C67.1859 46.4544 68.5652 44.55 68.6228 44.4736C68.6469 44.4409 68.6778 44.422 68.7174 44.416C68.7586 44.4117 68.7947 44.422 68.8265 44.4486L72.1325 47.221C72.1669 47.2502 72.1841 47.288 72.1832 47.3336C72.1789 47.3782 72.1583 47.4135 72.1213 47.4393C71.9727 47.5536 71.8463 47.6885 71.7415 47.844C71.6367 48.0004 71.5593 48.168 71.5095 48.3493C71.4596 48.5298 71.439 48.7146 71.4493 48.9019C71.4588 49.0893 71.4974 49.2706 71.5662 49.445C71.7475 49.9899 72.2597 51.4654 72.8037 53.0278C73.8452 56.0407 74.6178 58.239 74.7304 58.6644C75.0931 58.893 77.1805 60.2921 77.1839 60.9134C77.1865 60.9658 77.1753 61.014 77.1504 61.0604C77.1255 61.1059 77.0902 61.142 77.0456 61.1678C76.6468 61.4153 75.7247 60.9933 75.0681 60.6264C75.246 60.8558 75.4712 61.1463 75.7324 61.5098C76.7594 62.9089 77.1109 63.5921 76.9845 63.9444C76.9407 64.0604 76.8582 64.1318 76.737 64.1584C76.6752 64.173 76.6124 64.179 76.5488 64.1764ZM68.7466 44.7537C68.4381 45.1929 67.3896 46.7449 67.1679 47.6936C66.9797 48.4963 70.0459 54.6271 72.1506 58.5475C72.1523 58.5613 72.1523 58.5742 72.1506 58.5879C72.3413 59.6415 72.6301 60.6676 73.0177 61.6662C73.5221 62.7997 74.128 63.0068 74.8103 63.1409C75.136 63.2294 75.4385 63.3669 75.7178 63.5551C76.0805 63.7588 76.389 63.9513 76.6391 63.886C76.6829 63.886 76.6898 63.8568 76.6941 63.8464C76.7774 63.6136 76.3709 62.8831 75.4815 61.6662C74.7562 60.6702 74.3463 60.1907 74.342 60.1864C74.3188 60.1614 74.3067 60.1305 74.3067 60.0961C74.3067 60.0609 74.3188 60.0308 74.342 60.005C74.3643 59.9793 74.3927 59.9647 74.4262 59.9595C74.4606 59.9543 74.4915 59.9612 74.5199 59.9793C75.3036 60.4957 76.5523 61.1282 76.872 60.9246C76.9837 60.6522 75.2314 59.2961 74.5095 58.8638C74.4743 58.8423 74.452 58.8105 74.4442 58.7693C74.4038 58.5733 73.3554 55.5466 72.5132 53.1111C71.9692 51.5488 71.457 50.0732 71.2757 49.525C71.207 49.3342 71.1674 49.1382 71.1571 48.9363C71.1468 48.7343 71.1666 48.535 71.2156 48.3382C71.2654 48.1422 71.3427 47.9575 71.4476 47.7847C71.5524 47.6111 71.6805 47.4573 71.8309 47.3224L68.7466 44.7537Z" fill="black"/>
<path d="M78.363 45.0914C78.363 45.0914 78.8348 44.0008 80.6601 43.7396C82.4854 43.4783 83.3602 44.1426 83.3602 44.1426L88.8284 43.0529L88.6256 42.1042L91.3258 40.0107C91.3258 40.0107 94.2288 42.6456 94.7693 43.3907C94.8295 43.4646 94.8784 43.5462 94.9163 43.6347C94.9532 43.7224 94.9773 43.8143 94.9884 43.9097C94.9988 44.0051 94.9962 44.0996 94.9799 44.1942C94.9635 44.2887 94.9343 44.3789 94.8922 44.4649C94.8501 44.5508 94.7968 44.629 94.7315 44.6995C94.667 44.77 94.5931 44.8301 94.5115 44.88C94.4299 44.9289 94.3422 44.9659 94.2494 44.99C94.1574 45.0149 94.0629 45.0252 93.9675 45.0226L78.363 45.0914Z" fill="white"/>
<path d="M78.363 45.2301C78.314 45.2293 78.2753 45.2086 78.247 45.1682C78.2246 45.1244 78.2246 45.0806 78.247 45.0376C78.2684 44.9904 78.7729 43.8818 80.6489 43.6016C82.2783 43.3618 83.1892 43.8525 83.3998 43.9978L88.6763 42.9554L88.5019 42.145C88.4898 42.0882 88.507 42.0418 88.5526 42.0066L91.2527 39.9097C91.2785 39.8891 91.3086 39.8779 91.3421 39.8779C91.3748 39.8779 91.4048 39.8891 91.4306 39.9097C91.5501 40.0189 94.3336 42.5661 94.8922 43.3111C94.9609 43.3962 95.0159 43.489 95.0572 43.5896C95.0984 43.6901 95.1251 43.795 95.1371 43.9032C95.1483 44.0115 95.1448 44.1189 95.1251 44.2264C95.1062 44.3338 95.0718 44.4361 95.0228 44.5332C94.9747 44.6311 94.9128 44.7196 94.8389 44.7996C94.765 44.8795 94.6808 44.9465 94.5871 45.0024C94.4934 45.0582 94.3937 45.0995 94.2889 45.1261C94.1832 45.1528 94.0758 45.1648 93.9675 45.1605L78.363 45.2301ZM81.4842 43.813C81.2135 43.813 80.9454 43.8336 80.6781 43.874C79.4114 44.0631 78.8348 44.6449 78.6096 44.9646L93.9598 44.8958C94.1273 44.8984 94.2829 44.8563 94.4264 44.7712C94.5699 44.6853 94.6808 44.5684 94.7581 44.4197C94.8329 44.2685 94.8604 44.1086 94.8423 43.9411C94.8234 43.7735 94.7624 43.6239 94.6567 43.4925C94.1849 42.8428 91.8045 40.6548 91.318 40.2225L88.7777 42.1957L88.9634 43.0568C88.972 43.0946 88.9659 43.1298 88.9445 43.1625C88.9221 43.1943 88.8929 43.214 88.8542 43.22L83.3852 44.3106C83.3456 44.3166 83.3095 44.308 83.2769 44.2848C83.007 44.1172 82.7191 43.9926 82.4123 43.9118C82.1055 43.8311 81.7936 43.7984 81.4765 43.813H81.4842Z" fill="black"/>
<path d="M73.4963 35.6945C73.4963 35.6945 75.6559 35.5604 76.0624 33.394C76.0624 33.394 77.9531 35.0843 78.3561 34.9494C78.7583 34.8154 78.3561 32.5836 79.3684 32.8526C80.3808 33.1215 80.1771 35.1531 80.1771 35.1531L81.9302 36.7773C81.9019 36.9208 81.8624 37.0609 81.8117 37.1984C81.7601 37.3351 81.6991 37.4674 81.626 37.5946C81.5538 37.7218 81.4722 37.8421 81.3802 37.9564C81.2892 38.0698 81.1886 38.1755 81.0795 38.2735C80.9712 38.3706 80.8552 38.4591 80.7323 38.5382C80.6094 38.6172 80.4805 38.686 80.3464 38.7436C80.2124 38.802 80.0749 38.8493 79.9331 38.8845C79.7913 38.9206 79.6477 38.9447 79.5025 38.9576L78.8236 37.8679C78.8236 37.8679 78.4214 39.3572 76.9373 39.1543C75.4531 38.9507 73.4963 35.6945 73.4963 35.6945Z" fill="white"/>
<path d="M77.2088 39.2989C77.1117 39.2981 77.0155 39.2912 76.9184 39.2766C75.3878 39.0695 73.4602 35.901 73.3769 35.7669C73.3511 35.7205 73.3511 35.6741 73.3769 35.6285C73.4009 35.583 73.4379 35.5581 73.4895 35.5555C73.6356 35.5443 73.7799 35.522 73.9226 35.4868C74.0652 35.4524 74.2045 35.406 74.3394 35.3484C74.4743 35.2908 74.6041 35.2229 74.7278 35.1439C74.8516 35.0657 74.9684 34.9771 75.0776 34.8792C75.1867 34.7812 75.2881 34.6755 75.3801 34.5612C75.472 34.4469 75.5545 34.3257 75.6267 34.1977C75.6989 34.0696 75.7608 33.9364 75.8106 33.7989C75.8613 33.6606 75.9009 33.5196 75.9284 33.3753C75.9378 33.322 75.9688 33.2868 76.0203 33.2696C76.071 33.2532 76.1166 33.2627 76.157 33.2988C77.0309 34.08 78.1017 34.88 78.3338 34.825C78.4248 34.6033 78.4721 34.3713 78.4756 34.1315C78.5297 33.6116 78.5916 33.0229 78.9216 32.7943C78.9963 32.7445 79.078 32.7135 79.1665 32.7024C79.255 32.6903 79.3418 32.6998 79.426 32.7282C80.4392 32.9971 80.3739 34.7271 80.3447 35.1052L82.0497 36.6821C82.0884 36.7148 82.103 36.756 82.0935 36.8059C82.0626 36.9554 82.0196 37.1015 81.9655 37.2442C81.9105 37.386 81.846 37.5235 81.7695 37.6558C81.6931 37.7882 81.6071 37.9136 81.5109 38.0322C81.4155 38.1508 81.3106 38.2608 81.1972 38.3622C81.0829 38.4645 80.9626 38.5564 80.8345 38.6389C80.7065 38.7214 80.5724 38.7936 80.4323 38.8546C80.2931 38.9165 80.1496 38.9664 80.0018 39.0042C79.8548 39.0428 79.7053 39.0695 79.5532 39.0841C79.4965 39.0884 79.4535 39.0669 79.4226 39.0188L78.8932 38.1689C78.8245 38.3356 78.7334 38.4894 78.6191 38.6295C78.5056 38.7696 78.3733 38.8907 78.2229 38.9913C78.0734 39.0918 77.9118 39.1683 77.7391 39.2207C77.5663 39.2732 77.3893 39.2989 77.2088 39.2989ZM73.7258 35.7996C74.1572 36.475 75.7505 38.8409 76.9588 39.0042C78.2977 39.1864 78.6827 37.8775 78.6973 37.82C78.7127 37.7615 78.7506 37.728 78.8098 37.7194C78.87 37.7108 78.9156 37.7323 78.9473 37.783L79.5756 38.7902C79.7053 38.7764 79.8342 38.7524 79.9606 38.7189C80.0877 38.6853 80.2106 38.6424 80.3309 38.59C80.4513 38.5375 80.5664 38.4757 80.6773 38.4052C80.7881 38.3347 80.8921 38.2557 80.9909 38.1697C81.0889 38.0829 81.18 37.9884 81.2642 37.8878C81.3484 37.7873 81.4241 37.6807 81.4911 37.5673C81.5581 37.4547 81.6166 37.3378 81.6664 37.2167C81.7154 37.0946 81.7549 36.97 81.785 36.842L80.0869 35.2719C80.0525 35.241 80.0379 35.2023 80.0431 35.1559C80.0431 35.1559 80.2209 33.2412 79.3358 33.0049C79.2378 32.9696 79.145 32.98 79.0565 33.0341C78.8313 33.1896 78.7729 33.7353 78.7256 34.171C78.6749 34.6652 78.6388 35.0175 78.3991 35.0975C78.0115 35.2324 76.7989 34.2441 76.1458 33.67C76.0684 33.945 75.9533 34.2037 75.8012 34.446C75.6482 34.6884 75.4652 34.9041 75.2503 35.0932C75.0355 35.2822 74.7983 35.436 74.5388 35.5564C74.2792 35.6767 74.0085 35.7575 73.7258 35.7996Z" fill="black"/>
<path d="M64.5296 86.2638L63.7209 87.0777C63.6934 87.1034 63.6608 87.1172 63.623 87.1172C63.586 87.1172 63.5542 87.1034 63.5284 87.0777C63.5009 87.051 63.488 87.0192 63.488 86.9814C63.488 86.9436 63.5009 86.9109 63.5284 86.8852L64.1309 86.2784H58.7675C58.7297 86.2793 58.6979 86.2664 58.6713 86.2398C58.6446 86.2131 58.6317 86.1813 58.6326 86.1435C58.6317 86.1057 58.6446 86.073 58.6713 86.0464C58.697 86.0189 58.7297 86.0052 58.7675 86.0052H64.1377L63.641 85.3658C63.6187 85.3357 63.6101 85.3022 63.6152 85.2644C63.6204 85.2274 63.6367 85.1973 63.6659 85.1733C63.696 85.1492 63.7295 85.1398 63.7673 85.1449C63.806 85.1501 63.8361 85.1681 63.8584 85.1991L64.5408 86.0851C64.5614 86.1126 64.5709 86.1427 64.5691 86.1762C64.5666 86.2105 64.5537 86.2398 64.5296 86.2638Z" fill="black"/>
<path d="M32.7121 98.9829L32.3486 99.8835C32.3392 99.9136 32.3194 99.9307 32.2884 99.9359C32.2575 99.9411 32.2334 99.9307 32.2145 99.9058L31.9859 99.6291L30.7596 100.599C30.7338 100.619 30.7046 100.629 30.672 100.629C30.6359 100.628 30.6041 100.615 30.5783 100.589L29.7361 99.709L28.9309 100.226V101.581H32.1707C32.2042 101.586 32.2317 101.602 32.2541 101.628C32.2756 101.654 32.2867 101.683 32.2867 101.717C32.2867 101.751 32.2756 101.781 32.2541 101.807C32.2317 101.833 32.2042 101.848 32.1707 101.853H28.7959C28.7581 101.853 28.7255 101.84 28.6988 101.813C28.6722 101.786 28.6584 101.753 28.6584 101.716V98.3357C28.6636 98.3022 28.6791 98.2747 28.7049 98.2524C28.7306 98.2309 28.7607 98.2197 28.7942 98.2197C28.8286 98.2197 28.8578 98.2309 28.8836 98.2524C28.9094 98.2747 28.9249 98.3022 28.9309 98.3357V99.9015L29.682 99.422C29.706 99.4014 29.7344 99.3902 29.767 99.3902C29.7997 99.3902 29.8281 99.4014 29.8521 99.422L30.6943 100.265L31.8227 99.3747L31.5872 99.0877C31.5666 99.0636 31.5623 99.037 31.5734 99.0078C31.5846 98.9777 31.6061 98.9614 31.6379 98.9571L32.621 98.8333C32.6417 98.8213 32.664 98.8179 32.6872 98.823C32.7104 98.829 32.7284 98.8419 32.7405 98.8625C32.7534 98.8832 32.7568 98.9055 32.7508 98.9287C32.7456 98.9519 32.7327 98.97 32.7121 98.9829Z" fill="black"/>
<path d="M115.189 93.4442C114.939 93.8095 114.608 94.075 114.198 94.24C112.747 94.851 112.224 93.5319 112.224 93.5319L110.504 91.148L112.833 88.7383L113.491 90.4897" fill="#C59A94"/>
<path d="M114.402 86.9395C114.402 87.0839 114.394 87.2282 114.38 87.3718C114.366 87.5161 114.345 87.6588 114.317 87.8006C114.288 87.9424 114.254 88.0816 114.212 88.22C114.17 88.3583 114.122 88.4941 114.066 88.6282C114.011 88.7614 113.95 88.892 113.881 89.0192C113.813 89.1464 113.739 89.2701 113.659 89.3904C113.578 89.5107 113.493 89.6268 113.401 89.7385C113.31 89.8502 113.213 89.9568 113.111 90.059C113.009 90.1613 112.902 90.2584 112.79 90.3495C112.68 90.4414 112.564 90.5274 112.443 90.6073C112.324 90.6881 112.2 90.762 112.073 90.8299C111.946 90.8986 111.815 90.9605 111.682 91.0155C111.549 91.0705 111.413 91.1195 111.274 91.1616C111.137 91.2029 110.997 91.2381 110.855 91.2664C110.714 91.2948 110.571 91.3154 110.428 91.33C110.284 91.3438 110.14 91.3515 109.996 91.3515C109.851 91.3515 109.708 91.3438 109.564 91.33C109.421 91.3154 109.278 91.2948 109.136 91.2664C108.995 91.2381 108.855 91.2029 108.717 91.1616C108.579 91.1195 108.444 91.0705 108.31 91.0155C108.176 90.9605 108.047 90.8986 107.919 90.8299C107.792 90.762 107.669 90.6881 107.548 90.6073C107.429 90.5274 107.313 90.4414 107.201 90.3495C107.089 90.2584 106.983 90.1613 106.88 90.059C106.779 89.9568 106.682 89.8502 106.591 89.7385C106.499 89.6268 106.413 89.5107 106.333 89.3904C106.253 89.2701 106.178 89.1464 106.11 89.0192C106.043 88.892 105.981 88.7614 105.926 88.6282C105.871 88.4941 105.822 88.3583 105.78 88.22C105.738 88.0816 105.703 87.9424 105.675 87.8006C105.647 87.6588 105.626 87.5161 105.612 87.3718C105.597 87.2282 105.591 87.0839 105.591 86.9395C105.591 86.7951 105.597 86.6507 105.612 86.5072C105.626 86.3637 105.647 86.2211 105.675 86.0793C105.703 85.9375 105.738 85.7974 105.78 85.659C105.822 85.5207 105.871 85.3849 105.926 85.2517C105.981 85.1176 106.043 84.9879 106.11 84.8598C106.178 84.7326 106.253 84.6089 106.333 84.4886C106.413 84.3682 106.499 84.2522 106.591 84.1414C106.682 84.0296 106.779 83.9222 106.88 83.82C106.983 83.7177 107.089 83.6214 107.201 83.5295C107.313 83.4375 107.429 83.3516 107.548 83.2717C107.669 83.1909 107.792 83.117 107.919 83.0491C108.047 82.9812 108.176 82.9193 108.31 82.8635C108.444 82.8085 108.579 82.7604 108.717 82.7182C108.855 82.6761 108.995 82.6409 109.136 82.6125C109.278 82.585 109.421 82.5636 109.564 82.5489C109.708 82.5352 109.851 82.5283 109.996 82.5283C110.14 82.5283 110.284 82.5352 110.428 82.5489C110.571 82.5627 110.714 82.5842 110.856 82.6125C110.997 82.64 111.137 82.6753 111.275 82.7174C111.414 82.7595 111.549 82.8076 111.683 82.8626C111.816 82.9185 111.946 82.9795 112.074 83.0482C112.201 83.1161 112.325 83.19 112.444 83.2708C112.564 83.3507 112.68 83.4367 112.792 83.5286C112.903 83.6197 113.01 83.7168 113.112 83.8191C113.214 83.9214 113.311 84.0279 113.402 84.1396C113.494 84.2514 113.58 84.3674 113.66 84.4877C113.74 84.608 113.815 84.7318 113.883 84.8589C113.951 84.987 114.012 85.1176 114.067 85.2508C114.122 85.384 114.171 85.5207 114.213 85.659C114.255 85.7965 114.289 85.9366 114.317 86.0784C114.346 86.2202 114.366 86.3637 114.38 86.5072C114.395 86.6507 114.402 86.7951 114.402 86.9395Z" fill="#FFEB9A"/>
<path d="M113.491 90.4898C113.491 90.4898 112.91 88.0337 114.514 87.1872C114.564 87.1606 114.617 87.1443 114.672 87.1365C114.728 87.1296 114.784 87.1322 114.839 87.1451C114.894 87.158 114.945 87.1795 114.992 87.2104C115.039 87.2414 115.079 87.28 115.112 87.3247C115.301 87.5937 115.265 87.8189 115.112 88.5132C114.91 89.4259 115.062 91.1988 115.668 91.9619C115.647 92.5007 115.487 92.9949 115.189 93.4443L113.491 90.4898Z" fill="#C59A94"/>
<path d="M109.288 88.6992C109.248 88.7001 109.214 88.6855 109.187 88.6554L108.022 87.3869C107.995 87.3612 107.981 87.3285 107.981 87.2907C107.981 87.2529 107.995 87.2211 108.022 87.1944C108.048 87.1687 108.081 87.1558 108.118 87.1558C108.156 87.1558 108.188 87.1687 108.214 87.1944L109.277 88.3537L112.18 85.2179C112.207 85.1973 112.238 85.1869 112.271 85.1887C112.305 85.1904 112.334 85.2024 112.359 85.2256C112.384 85.2488 112.399 85.2772 112.402 85.3107C112.406 85.3442 112.399 85.3751 112.38 85.4026L109.39 88.6485C109.364 88.6812 109.331 88.6983 109.288 88.6992Z" fill="white"/>
<path d="M131.566 92.2636C131.566 92.2636 129.693 90.8104 130.252 89.4767C130.811 88.1429 131.972 88.4119 132.833 88.717C133.693 89.0221 135.01 88.3097 136.733 88.5133C138.457 88.717 138.86 90.4899 138.86 90.4899C138.86 90.4899 139.669 90.2871 140.428 91.2496C141.186 92.2129 139.365 96.2211 139.365 96.2211L134.647 96.6748L131.566 92.2636Z" fill="black"/>
<path d="M161.062 120.99C163.239 122.585 164.911 124.464 164.48 124.765C164.425 124.807 164.365 124.837 164.299 124.854C164.232 124.872 164.165 124.876 164.097 124.867C164.029 124.857 163.965 124.836 163.906 124.801C163.847 124.766 163.796 124.722 163.754 124.667C163.754 124.667 164.157 125.453 163.78 125.732C163.402 126.012 163.021 125.427 163.021 125.427C163.021 125.427 163.602 126.288 163.094 126.568C162.586 126.847 160.64 124.751 160.64 124.751C160.64 124.751 161.221 125.641 160.666 125.815C160.111 125.99 158.387 123.436 158.387 123.436L161.062 120.99ZM131.566 92.2637C131.566 92.2637 129.643 99.3131 134.302 98.4013L134.665 100.684L137.205 102.962L138.657 99.7677L137.797 97.5291C137.797 97.5291 139.365 97.4311 139.365 96.2134C139.365 94.9965 138.047 95.3995 138.047 95.3995C138.047 95.3995 136.022 95.8576 134.908 93.4737C134.908 93.4814 132.883 93.1248 131.566 92.2637Z" fill="#C59A94"/>
<path d="M137.187 102.98L138.639 99.7857C145.625 96.1883 161.272 120.423 161.272 120.423C159.904 123.77 157.643 123.519 157.643 123.519L148.632 113.224C143.871 116.266 135.365 115.15 135.365 115.15L128.986 105.804C128.986 105.804 120.73 105.346 118.302 103.929C115.875 102.512 112.224 93.532 112.224 93.532C113.236 92.1106 115.668 91.9619 115.668 91.9619L121.086 99.6189C121.086 99.6189 128.325 98.8558 130.706 98.8919C131.076 98.9117 131.441 98.965 131.801 99.0518C132.161 99.1386 132.51 99.2589 132.848 99.4101C133.186 99.5622 133.506 99.7444 133.811 99.9558C134.115 100.167 134.398 100.405 134.658 100.669L137.187 102.98Z" fill="white"/>
<path d="M157.77 123.643C157.69 123.643 157.643 123.643 157.628 123.643C157.594 123.638 157.565 123.622 157.542 123.596L148.607 113.391C143.839 116.349 135.431 115.285 135.347 115.273C135.307 115.268 135.276 115.249 135.253 115.216L128.91 105.942C128.064 105.894 120.563 105.418 118.234 104.052C115.791 102.624 112.25 93.961 112.097 93.5897C112.081 93.5433 112.087 93.4995 112.115 93.4591C113.153 92.0059 115.559 91.8383 115.661 91.8315C115.711 91.828 115.752 91.8469 115.78 91.889L121.151 99.4807C121.946 99.3974 128.489 98.7245 130.709 98.7795C131.088 98.7967 131.462 98.85 131.831 98.9376C132.2 99.0261 132.557 99.1482 132.903 99.3037C133.25 99.4584 133.578 99.6449 133.888 99.8623C134.199 100.08 134.487 100.325 134.753 100.596L137.14 102.752L138.534 99.724C138.545 99.6939 138.566 99.6724 138.595 99.6586C141.556 98.1324 146.299 101.163 152.697 108.66C155.824 112.387 158.727 116.281 161.406 120.343C161.426 120.385 161.426 120.428 161.406 120.47C160.206 123.421 158.304 123.643 157.77 123.643ZM157.713 123.366C158.046 123.366 159.925 123.323 161.138 120.419C160.267 119.089 145.411 96.5666 138.758 99.8692L137.307 103.021C137.289 103.063 137.258 103.088 137.213 103.096C137.167 103.105 137.127 103.094 137.093 103.063L134.552 100.782C134.298 100.525 134.022 100.295 133.726 100.088C133.428 99.8829 133.115 99.7068 132.786 99.5581C132.456 99.4103 132.117 99.2943 131.765 99.2092C131.415 99.1241 131.059 99.0717 130.699 99.0519C128.358 98.9978 121.169 99.7532 121.097 99.779C121.045 99.7824 121.003 99.7635 120.973 99.7205L115.599 92.1297C115.196 92.1692 113.262 92.4167 112.376 93.5829C112.74 94.4293 116.114 102.526 118.368 103.841C120.741 105.23 128.892 105.695 128.99 105.698C129.034 105.703 129.07 105.723 129.094 105.76L135.438 115.037C136.208 115.128 144.1 115.971 148.557 113.122C148.585 113.105 148.615 113.099 148.648 113.104C148.681 113.109 148.709 113.123 148.73 113.148L157.713 123.366Z" fill="black"/>
<path d="M137.187 102.979L134.335 104.03L134.658 100.701L137.187 102.979ZM137.187 102.979L139.771 103.016L138.657 99.7852L137.187 102.979Z" fill="white"/>
<path d="M139.898 102.951L138.784 99.7094C138.763 99.6535 138.724 99.6234 138.664 99.6191C138.605 99.62 138.561 99.6466 138.534 99.6991L137.151 102.737L134.759 100.582C134.717 100.543 134.67 100.535 134.618 100.557C134.567 100.577 134.538 100.614 134.531 100.669L134.211 103.998C134.206 104.047 134.223 104.087 134.262 104.118C134.287 104.138 134.314 104.148 134.346 104.146C134.362 104.151 134.377 104.151 134.393 104.146L137.223 103.107L139.764 103.14C139.809 103.14 139.845 103.122 139.873 103.086C139.905 103.045 139.914 103.001 139.898 102.951ZM134.491 103.809L134.766 100.963L136.944 102.915L134.491 103.809ZM137.394 102.831L138.635 100.135L139.575 102.861L137.394 102.831Z" fill="black"/>
</svg>
