<svg width="17" height="28" viewBox="0 0 17 28" fill="none" xmlns="http://www.w3.org/2000/svg">
<path fill-rule="evenodd" clip-rule="evenodd" d="M15.4162 0.587446C15.2305 0.401234 15.0098 0.253494 14.7669 0.15269C14.524 0.0518862 14.2635 0 14.0005 0C13.7375 0 13.4771 0.0518862 13.2342 0.15269C12.9912 0.253494 12.7706 0.401234 12.5848 0.587446L0.587444 12.5848C0.401232 12.7706 0.253493 12.9912 0.15269 13.2342C0.0518856 13.4771 -1.90735e-06 13.7375 -1.90735e-06 14.0005C-1.90735e-06 14.2635 0.0518856 14.524 0.15269 14.7669C0.253493 15.0098 0.401232 15.2305 0.587444 15.4162L12.5848 27.4136C12.9603 27.7891 13.4695 28 14.0005 28C14.5315 28 15.0408 27.7891 15.4162 27.4136C15.7917 27.0381 16.0026 26.5289 16.0026 25.9979C16.0026 25.4669 15.7917 24.9577 15.4162 24.5822L4.83052 14.0005L15.4162 3.41883C15.6024 3.23309 15.7502 3.01243 15.851 2.76951C15.9518 2.52658 16.0037 2.26615 16.0037 2.00314C16.0037 1.74013 15.9518 1.4797 15.851 1.23677C15.7502 0.993842 15.6024 0.773188 15.4162 0.587446Z" fill="#FFEB9A"/>
</svg>
