<svg width="17" height="28" viewBox="0 0 17 28" fill="none" xmlns="http://www.w3.org/2000/svg">
<path fill-rule="evenodd" clip-rule="evenodd" d="M0.587446 0.587446C0.773188 0.401234 0.993845 0.253494 1.23677 0.15269C1.4797 0.0518862 1.74013 0 2.00314 0C2.26615 0 2.52658 0.0518862 2.7695 0.15269C3.01243 0.253494 3.23309 0.401234 3.41883 0.587446L15.4162 12.5848C15.6024 12.7706 15.7502 12.9912 15.851 13.2342C15.9518 13.4771 16.0037 13.7375 16.0037 14.0005C16.0037 14.2635 15.9518 14.524 15.851 14.7669C15.7502 15.0098 15.6024 15.2305 15.4162 15.4162L3.41883 27.4136C3.04337 27.7891 2.53413 28 2.00314 28C1.47215 28 0.962911 27.7891 0.587446 27.4136C0.211981 27.0381 0.00104882 26.5289 0.00104881 25.9979C0.0010488 25.4669 0.211981 24.9577 0.587446 24.5822L11.1731 14.0005L0.587446 3.41883C0.401234 3.23309 0.253496 3.01243 0.152692 2.76951C0.0518881 2.52658 0 2.26615 0 2.00314C0 1.74013 0.0518881 1.4797 0.152692 1.23677C0.253496 0.993842 0.401234 0.773188 0.587446 0.587446Z" fill="#FFEB9A"/>
</svg>
