<svg width="75" height="75" viewBox="0 0 75 75" fill="none" xmlns="http://www.w3.org/2000/svg">
<path d="M26.5274 29.8438C26.5234 29.8438 26.5234 29.8438 26.5274 29.8438C23.3555 29.8438 20.4727 31.1289 18.3945 33.1992C16.3164 35.2695 15.0234 38.1484 15.0274 41.3086C15.0274 44.4688 16.3164 47.3438 18.3945 49.4141C20.4688 51.4844 23.3516 52.7695 26.5234 52.7695C29.6953 52.7695 32.582 51.4844 34.6563 49.4141C36.7344 47.3438 38.0274 44.4688 38.0234 41.3086H35.1953C35.1953 43.6992 34.2266 45.8516 32.6563 47.4219C31.082 48.9883 28.9258 49.9531 26.5234 49.9531C24.125 49.9531 21.9649 48.9844 20.3906 47.4219C18.8203 45.8516 17.8516 43.6992 17.8516 41.3086C17.8516 38.9141 18.8242 36.7656 20.3906 35.1953C21.9649 33.625 24.125 32.6641 26.5234 32.6641C28.9258 32.6641 31.082 33.625 32.6563 35.1953C34.2305 36.7656 35.1953 38.9141 35.1953 41.3086H38.0234C38.0234 38.1445 36.7344 35.2695 34.6563 33.1992C32.582 31.1289 29.6953 29.8438 26.5274 29.8438Z" fill="#434343"/>
<path d="M38 22.3984C36.1055 21.2539 34.0273 20.3906 31.8242 19.8516L31.4844 21.2227H32.8984V18.7031C32.8984 17.6523 32.4688 16.6914 31.7812 16.0039C31.0938 15.3164 30.125 14.8867 29.0742 14.8867H23.9766C22.9258 14.8867 21.9609 15.3164 21.2695 16.0039C20.582 16.6914 20.1484 17.6523 20.1523 18.7031V21.2227H21.5664L21.2305 19.8516C19.0234 20.3906 16.9414 21.2539 15.0508 22.3984L15.7852 23.6055L16.7852 22.6094L14.9961 20.832C14.6289 20.4609 14.1914 20.1797 13.7305 19.9922C13.2695 19.8086 12.7812 19.7148 12.293 19.7148C11.8008 19.7148 11.3125 19.8086 10.8516 19.9922C10.3906 20.1797 9.95703 20.4609 9.58594 20.832L5.98047 24.4219C5.60938 24.793 5.32812 25.2266 5.14062 25.6875C4.95312 26.1445 4.86328 26.6328 4.86328 27.1211C4.86328 27.6094 4.95312 28.0977 5.14062 28.5547C5.32812 29.0156 5.60938 29.4492 5.98047 29.8203L7.76953 31.6016L8.76562 30.6016L7.55469 29.8711C6.40625 31.7617 5.53906 33.832 5 36.0312L6.375 36.3672V34.957H3.84766C2.79297 34.957 1.83203 35.3867 1.14062 36.0742C0.449219 36.7578 0.0195312 37.7227 0.0195312 38.7695V43.8516C0.0195312 44.9023 0.449219 45.8633 1.14062 46.5508C1.82812 47.2383 2.79297 47.668 3.84766 47.668H6.375V46.2578L5 46.5938C5.53906 48.7891 6.40625 50.8633 7.55469 52.75L8.76562 52.0195L7.76953 51.0234L5.98047 52.8047C5.60938 53.1719 5.32812 53.6094 5.14062 54.0664C4.95312 54.5273 4.86328 55.0156 4.86328 55.5C4.86328 55.9883 4.95312 56.4766 5.14062 56.9375C5.32812 57.3945 5.60938 57.8281 5.98047 58.1992L9.58594 61.793C9.95703 62.1641 10.3906 62.4453 10.8516 62.6289C11.3125 62.8164 11.8008 62.9102 12.293 62.9102C12.7812 62.9102 13.2695 62.8164 13.7305 62.6289C14.1914 62.4453 14.6289 62.1641 14.9961 61.793L16.7852 60.0117L15.7852 59.0156L15.0508 60.2188C16.9453 61.3633 19.0234 62.2305 21.2305 62.7695L21.5664 61.3984H20.1523V63.918C20.1523 64.9648 20.582 65.9297 21.2695 66.6172C21.957 67.3047 22.9258 67.7344 23.9766 67.7305H29.0742C30.125 67.7305 31.0898 67.3047 31.7812 66.6172C32.4688 65.9297 32.9023 64.9648 32.8984 63.918V61.3984H31.4844L31.8242 62.7695C34.0273 62.2305 36.1055 61.3633 38 60.2188L37.2695 59.0156L36.2695 60.0117L38.0547 61.793C38.4258 62.1641 38.8594 62.4453 39.3203 62.6289C39.7812 62.8164 40.2695 62.9102 40.7617 62.9102C41.25 62.9102 41.7383 62.8164 42.1992 62.6289C42.6602 62.4453 43.0938 62.1641 43.4648 61.793L47.0703 58.1992C47.4414 57.8281 47.7227 57.3945 47.9102 56.9375C48.0977 56.4766 48.1914 55.9883 48.1914 55.5C48.1914 55.0156 48.0977 54.5273 47.9102 54.0664C47.7227 53.6094 47.4414 53.1719 47.0703 52.8047L45.2852 51.0234L44.2852 52.0195L45.4961 52.75C46.6445 50.8633 47.5117 48.7891 48.0508 46.5938L46.6758 46.2578V47.668H49.2031C50.2578 47.668 51.2227 47.2383 51.9102 46.5508C52.6016 45.8633 53.0352 44.9023 53.0312 43.8516C53.0312 43.0742 52.3984 42.4414 51.6172 42.4414C50.8359 42.4414 50.2031 43.0742 50.2031 43.8516C50.2031 44.1328 50.0938 44.3711 49.9102 44.5586C49.7266 44.7422 49.4844 44.8477 49.2031 44.8516H45.5703L45.3047 45.9258C44.8359 47.8438 44.0781 49.6484 43.0781 51.293L42.5039 52.2383L45.0742 54.8008C45.1719 54.9023 45.2422 55.0078 45.293 55.125C45.3438 55.2461 45.3672 55.375 45.3672 55.5C45.3672 55.6289 45.3438 55.7578 45.293 55.875C45.2461 55.9961 45.1758 56.1055 45.0742 56.2031L41.4688 59.7969C41.3711 59.8984 41.2617 59.9648 41.1406 60.0156C41.0234 60.0664 40.8945 60.0898 40.7656 60.0898C40.6367 60.0898 40.5078 60.0664 40.3906 60.0156C40.2695 59.9688 40.1602 59.8984 40.0586 59.7969L37.4883 57.2344L36.543 57.8086C34.8945 58.8047 33.082 59.5586 31.1562 60.0273L30.0781 60.2891V63.9141C30.0781 64.1953 29.9688 64.4336 29.7852 64.6211C29.6016 64.8047 29.3594 64.9102 29.082 64.9141H23.9844C23.7031 64.9141 23.4609 64.8047 23.2773 64.6211C23.0938 64.4375 22.9844 64.1953 22.9805 63.9141V60.2891L21.9062 60.0273C19.9805 59.5586 18.168 58.8008 16.5195 57.8086L15.5703 57.2344L13 59.7969C12.8984 59.8984 12.793 59.9648 12.6719 60.0156C12.5547 60.0664 12.4258 60.0898 12.2969 60.0898C12.168 60.0898 12.0391 60.0664 11.9219 60.0156C11.8008 59.9688 11.6914 59.8984 11.5898 59.7969L7.98438 56.2031C7.88672 56.1016 7.81641 55.9961 7.76562 55.875C7.71875 55.7578 7.69141 55.6289 7.69141 55.5C7.69141 55.375 7.71875 55.2461 7.76562 55.125C7.8125 55.0078 7.88281 54.8984 7.98438 54.8008L10.5547 52.2383L9.98047 51.293C8.98047 49.6484 8.22656 47.8438 7.75391 45.9258L7.48828 44.8516H3.84766C3.56641 44.8516 3.32812 44.7422 3.14062 44.5586C2.95703 44.375 2.84766 44.1328 2.84375 43.8516V38.7695C2.84375 38.4922 2.95703 38.25 3.14062 38.0664C3.32422 37.8828 3.5625 37.7773 3.84766 37.7773H7.48438L7.75 36.7031C8.21875 34.7812 8.97656 32.9766 9.97656 31.332L10.5508 30.3867L7.98047 27.8242C7.88281 27.7227 7.80859 27.6172 7.75781 27.4961C7.71094 27.3789 7.6875 27.25 7.6875 27.1211C7.6875 26.9922 7.71094 26.8633 7.75781 26.7461C7.80859 26.6289 7.87891 26.5195 7.98047 26.418L11.5859 22.8242C11.6875 22.7266 11.793 22.6562 11.9141 22.6055C12.0312 22.5586 12.1602 22.5312 12.2891 22.5312C12.418 22.5312 12.5469 22.5586 12.6641 22.6055C12.7852 22.6523 12.8945 22.7227 12.9961 22.8242L15.5664 25.3867L16.5117 24.8164C18.1602 23.8203 19.9727 23.0664 21.8984 22.5938L22.9766 22.332V18.707C22.9766 18.4297 23.0859 18.1875 23.2695 18.0039C23.4531 17.8203 23.6953 17.7109 23.9766 17.7109H29.0742C29.3555 17.7109 29.5938 17.8242 29.7812 18.0039C29.9648 18.1875 30.0742 18.4297 30.0742 18.707V22.332L31.1484 22.5938C33.0742 23.0664 34.8867 23.8203 36.5352 24.8164C37.2031 25.2188 38.0742 25.0078 38.4766 24.3438C38.8789 23.6719 38.668 22.8047 38 22.3984Z" fill="#434343"/>
<path d="M55.3594 17.9336H55.3555C52.9531 17.9336 50.7578 18.9141 49.1836 20.4844C47.6055 22.0547 46.625 24.2422 46.625 26.6406C46.625 29.0391 47.6055 31.2266 49.1836 32.7969C50.7578 34.3711 52.9492 35.3477 55.3555 35.3477C57.7617 35.3477 59.957 34.3711 61.5312 32.7969C63.1094 31.2266 64.0898 29.0391 64.0898 26.6406H61.2617C61.2617 28.2695 60.6055 29.7383 59.5352 30.8047C58.457 31.875 56.9922 32.5312 55.3555 32.5312C53.7227 32.5312 52.2539 31.875 51.1797 30.8047C50.1094 29.7344 49.4492 28.2695 49.4492 26.6406C49.4492 25.0117 50.1094 23.5469 51.1797 22.4805C52.2539 21.4102 53.7227 20.7539 55.3555 20.7539C56.9922 20.7539 58.4609 21.4102 59.5352 22.4805C60.6055 23.5508 61.2617 25.0117 61.2617 26.6406H64.0898C64.0898 24.2422 63.1094 22.0547 61.5312 20.4844C59.957 18.9141 57.7656 17.9336 55.3594 17.9336Z" fill="#434343"/>
<path d="M47.3477 15.5742L48.293 15C49.457 14.3008 50.7344 13.7656 52.0938 13.4336L53.1719 13.1719V10.2344C53.1719 10.1406 53.207 10.0625 53.2695 10C53.3359 9.9375 53.4102 9.89844 53.5078 9.89844H57.207C57.3047 9.89844 57.3789 9.9375 57.4453 10C57.5078 10.0625 57.543 10.1406 57.543 10.2344V13.168L58.6211 13.4297C59.9805 13.7656 61.2578 14.2969 62.418 15L63.3672 15.5703L65.4492 13.4961C65.4844 13.4609 65.5195 13.4414 65.5586 13.4219C65.5977 13.4063 65.6406 13.3984 65.6836 13.3984C65.7266 13.3984 65.7734 13.4063 65.8125 13.4219C65.8516 13.4414 65.8867 13.4609 65.9219 13.4961L68.5391 16.1016C68.5703 16.1406 68.5938 16.1719 68.6133 16.2148C68.6289 16.2539 68.6367 16.2969 68.6367 16.3398C68.6367 16.3867 68.6289 16.4258 68.6133 16.4688C68.5938 16.5078 68.5703 16.5391 68.5391 16.5781L66.457 18.6523L67.0312 19.5938C67.7344 20.7539 68.2695 22.0273 68.6016 23.3828L68.8672 24.457H71.8086C71.9062 24.457 71.9805 24.4961 72.0469 24.5547C72.1094 24.6211 72.1445 24.6953 72.1445 24.793V28.4805C72.1445 28.5781 72.1094 28.6523 72.0469 28.7148C71.9805 28.7773 71.9062 28.8164 71.8086 28.8164H68.8672L68.6016 29.8906C68.2695 31.2461 67.7344 32.5195 67.0312 33.6758L66.457 34.6211L68.5391 36.6953C68.5703 36.7344 68.5938 36.7656 68.6133 36.8047C68.6289 36.8438 68.6367 36.8867 68.6367 36.9336C68.6367 36.9766 68.6289 37.0195 68.6133 37.0586C68.5938 37.0977 68.5703 37.1328 68.5391 37.168L65.9219 39.7773C65.8867 39.8125 65.8516 39.8359 65.8125 39.8516C65.7734 39.8672 65.7305 39.875 65.6836 39.875C65.6406 39.875 65.5977 39.8672 65.5586 39.8516C65.5195 39.832 65.4844 39.8125 65.4492 39.7773L63.3672 37.7031L62.418 38.2734C61.2578 38.9766 59.9805 39.5078 58.6211 39.8398L57.543 40.1055V43.0391C57.543 43.1406 57.5078 43.2109 57.4453 43.2773C57.3789 43.3398 57.3008 43.375 57.207 43.375H53.5078C53.4102 43.375 53.3359 43.3438 53.2695 43.2773C53.207 43.2109 53.1719 43.1367 53.1719 43.0391V40.1055L52.0938 39.8398C50.7344 39.5078 49.457 38.9766 48.293 38.2734L47.3477 37.7031L45.2656 39.7773C45.2305 39.8125 45.1953 39.8359 45.1562 39.8516C45.1172 39.8672 45.0742 39.875 45.0273 39.875C44.9844 39.875 44.9414 39.8672 44.9023 39.8516C44.8633 39.832 44.8281 39.8125 44.793 39.7773L42.1758 37.168C42.1406 37.1328 42.1172 37.0977 42.1016 37.0586C42.0859 37.0195 42.0781 36.9766 42.0781 36.9336C42.0781 36.8867 42.0859 36.8438 42.1016 36.8047C42.1211 36.7656 42.1406 36.7344 42.1758 36.6953L44.2578 34.6211L43.6836 33.6758C42.9805 32.5195 42.4453 31.2461 42.1133 29.8906L41.8438 28.8164H38.9023C38.8047 28.8164 38.7305 28.7773 38.6641 28.7148C38.6016 28.6523 38.5664 28.5742 38.5664 28.4805V24.793C38.5664 24.6953 38.6016 24.6211 38.6641 24.5547C38.7305 24.4961 38.8047 24.457 38.9023 24.457H41.8438L42.1133 23.3828C42.4453 22.0273 42.9805 20.7539 43.6836 19.5938L44.2578 18.6523L42.1758 16.5781C42.1406 16.5391 42.1172 16.5078 42.1016 16.4688C42.0859 16.4258 42.0781 16.3867 42.0781 16.3398C42.0781 16.2969 42.0859 16.2539 42.1016 16.2148C42.1211 16.1719 42.1406 16.1406 42.1758 16.1016L44.793 13.4961C44.8281 13.4609 44.8633 13.4414 44.9023 13.4219C44.9414 13.4063 44.9844 13.3984 45.0273 13.3984C45.0742 13.3984 45.1172 13.4063 45.1562 13.4219C45.1953 13.4414 45.2305 13.4609 45.2656 13.4961L47.3477 15.5742ZM57.2109 7.08203H53.5117H53.5078C52.6406 7.08203 51.8438 7.4375 51.2734 8.00391C50.7031 8.57031 50.3477 9.37109 50.3477 10.2344V11C49.4688 11.2773 48.6211 11.6289 47.8086 12.043L47.2695 11.5078C46.9648 11.2031 46.6055 10.9688 46.2227 10.8125C45.8398 10.6563 45.4375 10.582 45.0312 10.582C44.6289 10.582 44.2227 10.6563 43.8398 10.8125C43.4609 10.9688 43.1016 11.1992 42.7969 11.5078L40.1797 14.1133C39.875 14.418 39.6406 14.7773 39.4844 15.1562C39.3281 15.5352 39.2539 15.9414 39.2539 16.3438C39.2539 16.7461 39.3281 17.1484 39.4844 17.5312C39.6406 17.9102 39.875 18.2695 40.1797 18.5742L40.7188 19.1094C40.3008 19.918 39.9531 20.7656 39.6719 21.6406H38.9062C38.3555 21.6406 37.832 21.7852 37.3828 22.0352C37.5938 22.1523 37.8008 22.2734 38.0078 22.3984C38.6758 22.8008 38.8906 23.668 38.4844 24.332C38.2188 24.7695 37.75 25.0117 37.2734 25.0117C37.0234 25.0117 36.7695 24.9492 36.543 24.8086C36.2891 24.6562 36.0312 24.5078 35.7734 24.3672C35.7539 24.5078 35.7461 24.6523 35.7461 24.7969V28.4844C35.7461 29.3477 36.1016 30.1445 36.6719 30.7109C37.2383 31.2812 38.0391 31.6367 38.9062 31.6367C38.9062 31.6367 38.9063 31.6367 38.9102 31.6367H39.6758C39.9531 32.5117 40.3086 33.3594 40.7227 34.168L40.1836 34.707C39.8789 35.0117 39.6445 35.3672 39.4883 35.75C39.332 36.1289 39.2539 36.5312 39.2539 36.9375C39.2539 37.3398 39.332 37.7422 39.4883 38.1211C39.6445 38.5039 39.8789 38.8594 40.1836 39.1641L42.7969 41.7734C43.1055 42.0781 43.4609 42.3125 43.8438 42.4648C44.2266 42.6211 44.6289 42.6953 45.0352 42.6953C45.4375 42.6953 45.8438 42.6211 46.2266 42.4648C46.6055 42.3125 46.9648 42.0781 47.2695 41.7734L47.8125 41.2344C48.6211 41.6523 49.4688 42 50.3516 42.2812V43.0391C50.3516 43.1016 50.3516 43.1562 50.3555 43.2109C50.5859 42.75 51.0664 42.4336 51.6211 42.4336C52.4023 42.4336 53.0352 43.0625 53.0352 43.8398C53.0352 44.6289 52.793 45.3711 52.3789 45.9844C52.7305 46.1172 53.1172 46.1953 53.5156 46.1953H57.2148H57.2188C58.0859 46.1953 58.8828 45.8398 59.4531 45.2695C60.0234 44.7031 60.3789 43.9062 60.3789 43.0391V42.2812C61.2578 42 62.1094 41.6484 62.918 41.2344L63.457 41.7734C63.7617 42.0781 64.1211 42.3125 64.5039 42.4648C64.8867 42.6211 65.2891 42.6953 65.6953 42.6953C66.0977 42.6953 66.5039 42.6211 66.8828 42.4648C67.2656 42.3125 67.625 42.0781 67.9297 41.7734L70.5469 39.1641C70.8516 38.8594 71.0859 38.5039 71.2422 38.1211C71.3984 37.7422 71.4727 37.3398 71.4727 36.9375C71.4727 36.5312 71.3984 36.1289 71.2422 35.75C71.0859 35.3672 70.8555 35.0117 70.5469 34.707L70.0039 34.168C70.4258 33.3633 70.7734 32.5156 71.0547 31.6367H71.8203C72.6875 31.6367 73.4883 31.2812 74.0586 30.7109C74.6289 30.1445 74.9844 29.3477 74.9844 28.4844V24.7969C74.9844 23.9297 74.6289 23.1328 74.0586 22.5664C73.4883 22 72.6914 21.6406 71.8242 21.6406H71.8203H71.0547C70.7734 20.7656 70.4219 19.918 70.0039 19.1094L70.5469 18.5742C70.8516 18.2695 71.0859 17.9102 71.2422 17.5312C71.3984 17.1484 71.4727 16.7461 71.4727 16.3438C71.4727 15.9414 71.3984 15.5352 71.2422 15.1562C71.0859 14.7773 70.8516 14.418 70.5469 14.1133L67.9297 11.5078C67.625 11.2031 67.2656 10.9688 66.8828 10.8125C66.5039 10.6563 66.0977 10.582 65.6953 10.582C65.2891 10.582 64.8867 10.6563 64.5039 10.8125C64.1211 10.9688 63.7617 11.1992 63.457 11.5078L62.918 12.043C62.1094 11.6289 61.2578 11.2773 60.3789 11V10.2383C60.3789 9.37109 60.0234 8.57422 59.4531 8.00781C58.8789 7.4375 58.0781 7.08203 57.2109 7.08203Z" fill="#434343"/>
<path d="M51.6133 42.4414C51.0586 42.4414 50.5781 42.7578 50.3477 43.2227C50.3906 44.0234 50.7383 44.75 51.2695 45.2773C51.5742 45.5859 51.9492 45.832 52.3672 45.9922C52.7812 45.3789 53.0273 44.6406 53.0234 43.8516C53.0273 43.0703 52.3945 42.4414 51.6133 42.4414ZM37.3711 22.0352C37.1094 22.1797 36.8711 22.3594 36.6641 22.5703C36.1875 23.0391 35.8594 23.6758 35.7656 24.3711C36.0273 24.5117 36.2852 24.6562 36.5352 24.8086C36.7656 24.9492 37.0156 25.0156 37.2695 25.0156C37.7461 25.0156 38.2109 24.7734 38.4766 24.3359C38.8828 23.6719 38.6719 22.8047 38.0039 22.3984C37.793 22.2773 37.5859 22.1563 37.3711 22.0352Z" fill="#434343"/>
</svg>
