<svg width="119" height="119" viewBox="0 0 119 119" fill="none" xmlns="http://www.w3.org/2000/svg">
<g clip-path="url(#clip0_1_403)">
<path d="M89.321 40.0379C85.9623 45.64 82.3033 51.804 78.94 57.4075C78.9462 57.4107 78.9462 57.4107 78.9477 57.4153C79.0202 57.4637 79.0896 57.5183 79.1527 57.5852C79.2251 57.649 79.2867 57.7113 79.3405 57.7812C79.9362 58.4208 80.4091 59.1726 80.733 59.9733C84.3853 53.899 88.3255 47.2566 91.9732 41.1839C91.0205 40.9806 90.1092 40.5887 89.321 40.0379Z" fill="#434343"/>
<path d="M50.9521 52.625C51.2067 53.6543 51.2071 54.7257 50.9787 55.7432C56.4549 58.0407 62.5023 60.6199 67.9785 62.9174C67.9017 61.9277 68.031 60.9221 68.3998 59.9874C62.7707 57.6318 56.5781 54.9867 50.9521 52.625Z" fill="#434343"/>
<path d="M27.3208 76.4595C25.9855 76.0158 24.484 75.9613 22.9305 76.3772C19.1536 77.3973 17.5489 81.5751 18.4672 84.9939C19.4599 88.7025 23.6814 90.2362 27.1607 89.2981C30.7872 88.322 32.3996 84.4353 31.7146 81.0999C31.7029 80.9698 31.6788 80.8334 31.6254 80.686C31.5813 80.5356 31.5216 80.4161 31.4541 80.3042C31.0334 79.3653 30.4664 78.5618 29.7839 77.925C33.3598 71.9633 37.0857 65.7208 40.6677 59.7623C39.8362 59.2051 39.1326 58.4721 38.6389 57.5777C34.9147 63.7785 31.045 70.2587 27.3208 76.4595ZM21.2217 84.0921C19.3708 79.3353 27.0276 76.8543 28.871 81.5878C30.19 86.5136 23.0711 88.8442 21.2217 84.0921Z" fill="#434343"/>
<path d="M50.8046 51.5604C50.7832 51.5108 50.7572 51.4626 50.7326 51.4191C50.7051 51.3509 50.6776 51.2826 50.6408 51.2174C48.9526 48.1692 45.1369 46.8838 41.8721 48.2566C38.5498 49.6585 36.999 53.3242 37.9844 56.6488C38.1106 57.0815 38.2834 57.4834 38.495 57.8623C38.9888 58.7567 39.6877 59.4912 40.5192 60.0484C42.3535 61.2767 44.8117 61.6258 46.9865 60.8417C49.2544 60.0271 50.7821 58.069 51.2676 55.8855C51.4945 54.8634 51.4909 53.7982 51.2363 52.7688C51.1332 52.3595 50.9945 51.9516 50.8046 51.5604ZM46.1015 58.1384C43.8871 59.0849 41.5481 57.857 40.7389 55.747C40.0044 53.8496 41.1514 51.8617 42.8347 50.9294C44.8037 49.8314 47.1 50.9445 48.1388 52.6701C49.0164 54.7526 48.3516 57.1751 46.1015 58.1384Z" fill="#434343"/>
<path d="M79.3013 57.2987C79.2336 57.2333 79.1642 57.1788 79.0979 57.1335C79.0917 57.1304 79.0902 57.1257 79.084 57.1226C76.206 54.7833 72.097 55.0725 69.463 57.7584C68.8528 58.3806 68.4062 59.0935 68.1111 59.8444C67.7484 60.7822 67.613 61.7847 67.6944 62.7729C67.8366 64.5449 68.6495 66.2724 70.0209 67.4873C72.7298 69.8923 76.8117 69.442 79.4083 67.098C81.5677 65.1495 81.898 62.1617 80.8832 59.6914C80.5531 58.8877 80.0818 58.1405 79.4892 57.4948C79.4322 57.431 79.3738 57.3626 79.3013 57.2987ZM77.4672 65.0083C76.1401 66.4937 73.7458 66.6388 72.1742 65.5203C70.3542 64.2255 70.0459 61.6631 71.3946 59.8976C72.8727 57.9609 75.638 57.9262 77.3716 59.445C78.9378 61.0032 78.9236 63.3673 77.4672 65.0083Z" fill="#434343"/>
<path d="M99.8294 32.4194C98.6212 29.0594 94.8645 27.4508 91.4723 28.3399C91.3948 28.355 91.3188 28.3747 91.2397 28.4006C91.1606 28.4265 91.0877 28.4555 91.0163 28.4892C87.6232 29.8164 85.8678 33.2347 86.6851 36.7226C87.0454 38.248 87.9678 39.476 89.1771 40.3217C89.9652 40.8724 90.8704 41.2612 91.8277 41.463C93.2179 41.7599 94.7001 41.6611 96.0454 41.097C99.4499 39.663 101.039 35.7839 99.8294 32.4194ZM95.0844 38.4289C92.7877 39.7062 90.1027 38.0507 89.4443 35.8193C88.8527 33.8236 90.2385 31.7781 92.1247 31.1039C94.1298 30.5093 96.2615 31.4032 97.0749 33.3211C97.9219 35.3105 96.9183 37.4061 95.0844 38.4289Z" fill="#434343"/>
</g>
<defs>
<clipPath id="clip0_1_403">
<rect width="94" height="94" fill="white" transform="translate(0 29.2471) rotate(-18.1278)"/>
</clipPath>
</defs>
</svg>
