<svg width="96" height="96" viewBox="0 0 96 96" fill="none" xmlns="http://www.w3.org/2000/svg">
<g clip-path="url(#clip0_1_415)">
<path d="M87.8933 45.9685L91.2719 36.1838C92.4524 32.7647 90.7832 28.9939 87.5228 27.8681L28.5636 7.5102C25.3032 6.38444 21.6629 8.32195 20.4823 11.7411L3.92368 59.6972C2.7431 63.1163 4.457 66.7579 7.71734 67.8836L33.2129 76.687C33.2905 76.7137 33.3157 76.8919 33.397 76.9199L40.8924 79.508C40.9737 79.5361 41.1035 79.4115 41.181 79.4382L66.6766 88.2416C69.9369 89.3673 73.5326 87.559 74.7132 84.1399L87.8933 45.9685ZM27.7272 9.93237L86.6865 30.2903C88.625 30.9596 89.5922 33.269 88.8718 35.3551L85.9179 43.9103L19.9284 21.1249L22.8824 12.5698C23.6027 10.4836 25.7887 9.26304 27.7272 9.93237ZM41.8288 56.4618L46.8799 58.2059L42.2451 71.6769L37.1644 69.9226L41.8288 56.4618ZM43.7876 54.4272L45.8792 52.9178L46.5938 55.3961L43.7876 54.4272ZM36.3244 72.3435L41.4124 74.1004L40.5798 76.5238L35.4843 74.7644L36.3244 72.3435ZM67.5117 85.8231L42.9798 77.3525L49.693 57.8382C49.7748 57.5896 49.7838 57.3241 49.7086 57.075L47.81 50.4974C47.6957 50.0984 47.3952 49.7839 47.0075 49.65C46.6148 49.5186 46.188 49.582 45.8518 49.8254L40.2954 53.8412C40.0851 53.9835 39.9297 54.1943 39.8419 54.4367L33.0843 73.9357L8.55241 65.4651C6.61393 64.7958 5.60464 62.6083 6.3237 60.5259L19.092 23.5471L85.0815 46.3325L72.3132 83.3112C71.5941 85.3937 69.4502 86.4924 67.5117 85.8231Z" fill="#434343"/>
<path d="M36.5449 25.16C38.9412 25.9875 41.5932 24.6261 42.4576 22.1227C43.322 19.6193 42.0749 16.9117 39.6786 16.0843C37.286 15.2581 34.6339 16.6194 33.7695 19.1228C32.9052 21.6262 34.1522 24.3339 36.5449 25.16ZM38.8423 18.5064C39.9167 18.8774 40.4605 20.1273 40.0576 21.294C39.6547 22.4608 38.4544 23.1126 37.3799 22.7416C36.3092 22.3718 35.7667 21.1183 36.1696 19.9515C36.5724 18.7848 37.7715 18.1367 38.8423 18.5064Z" fill="#434343"/>
<path d="M46.7653 28.6884C49.1616 29.5158 51.8136 28.1545 52.678 25.6511C53.5424 23.1476 52.2953 20.44 49.899 19.6126C47.5064 18.7864 44.8543 20.1478 43.9899 22.6512C43.1256 25.1546 44.3726 27.8622 46.7653 28.6884ZM49.0627 22.0348C50.1371 22.4058 50.6809 23.6556 50.278 24.8224C49.8751 25.9891 48.6748 26.6409 47.6003 26.2699C46.5296 25.9001 45.9871 24.6466 46.39 23.4799C46.7928 22.3131 47.9919 21.665 49.0627 22.0348Z" fill="#434343"/>
<path d="M26.3282 21.632C28.7245 22.4594 31.3728 21.0968 32.2372 18.5934C33.1016 16.09 31.8582 13.3837 29.4619 12.5562C27.0656 11.7288 24.4135 13.0901 23.5492 15.5935C22.6848 18.097 23.9318 20.8046 26.3282 21.632ZM28.6256 14.9784C29.6963 15.3481 30.2401 16.598 29.8372 17.7647C29.4343 18.9315 28.234 19.5833 27.1632 19.2135C26.0888 18.8425 25.5463 17.589 25.9492 16.4222C26.352 15.2555 27.5511 14.6074 28.6256 14.9784Z" fill="#434343"/>
<path d="M69.9028 48.8816L65.4646 47.3492C64.7713 47.1428 64.0385 47.5179 63.789 48.2046L63.3427 49.4969L53.0079 45.9284C53.4422 43.6773 52.1713 41.4574 50.0224 40.7154C47.8771 39.9747 45.5073 40.9375 44.4601 42.977L34.2471 39.4505L34.6933 38.1582C34.9207 37.4639 34.5754 36.7165 33.9025 36.4511L29.4643 34.9187C28.7747 34.7136 28.0406 35.0924 27.7924 35.7754L26.2472 40.2505C26.0299 40.9276 26.3939 41.6566 27.0611 41.8787L31.4993 43.4112C32.165 43.6493 32.8964 43.3026 33.1481 42.6333L33.412 41.869L38.7585 43.7151C35.0764 44.8282 31.8996 47.2067 29.7797 50.4379L27.6825 49.7137C27.0103 49.494 26.285 49.8593 26.0566 50.5326L24.1136 56.1597C24.0053 56.4736 24.03 56.821 24.18 57.1166C24.33 57.4122 24.5957 57.6362 24.9133 57.7335L30.4851 59.6573C30.7951 59.7768 31.135 59.7619 31.433 59.6169C31.7298 59.4755 31.9598 59.2161 32.0632 58.9047L34.0062 53.2775C34.2468 52.6167 33.9137 51.8818 33.2542 51.6376L32.272 51.2985C35.0209 47.5861 39.3874 45.4365 43.9743 45.545C44.1479 47.3282 45.3348 48.8455 47.0198 49.4232C48.7035 50.0046 50.5701 49.5416 51.807 48.2454C55.4823 50.9939 57.5935 55.376 57.4649 59.9972L56.4827 59.6581C55.8106 59.4384 55.0852 59.8037 54.8532 60.4757L52.9102 66.1029C52.8055 66.418 52.8302 66.7654 52.9802 67.061C53.129 67.3603 53.3959 67.5806 53.7136 67.6779L59.2853 69.6017C59.5916 69.7199 59.9352 69.7063 60.2332 69.5612C60.53 69.4199 60.7564 69.1592 60.8598 68.8478L62.8028 63.2206C62.9198 62.9056 62.9051 62.5534 62.7675 62.2456C62.6263 61.9365 62.3694 61.699 62.0544 61.582L59.9572 60.8578C60.2863 57.0083 59.2551 53.1727 57.043 50.0285L62.5077 51.9154L62.2438 52.6797C62.0289 53.3618 62.3905 54.0858 63.0614 54.3092L67.4996 55.8417C68.1616 56.0785 68.8979 55.7294 69.1447 55.0625L70.6899 50.5874C70.916 49.8968 70.572 49.1457 69.9028 48.8816ZM31.1688 40.5862L29.0679 39.8607L29.7984 37.745L31.8994 38.4704L31.1688 40.5862ZM30.0993 56.8132L26.9497 55.7257L28.0461 52.5503L31.1957 53.6378L30.0993 56.8132ZM58.8958 66.7563L55.7462 65.6688L56.8427 62.4934L59.9922 63.5809L58.8958 66.7563ZM47.8536 47.0084C46.7939 46.6425 46.2332 45.4778 46.6016 44.4107C46.9714 43.3399 48.13 42.7729 49.1873 43.1339C50.2507 43.5011 50.8077 44.6645 50.438 45.7353C50.0695 46.8024 48.9133 47.3743 47.8536 47.0084ZM67.1654 53.0154L65.0645 52.2899L65.795 50.1742L67.896 50.8996L67.1654 53.0154Z" fill="#434343"/>
</g>
<defs>
<clipPath id="clip0_1_415">
<rect width="75" height="75" fill="white" transform="translate(24.4785) rotate(19.0492)"/>
</clipPath>
</defs>
</svg>
