<svg width="112" height="112" viewBox="0 0 112 112" fill="none" xmlns="http://www.w3.org/2000/svg">
<g clip-path="url(#clip0_1_412)">
<path d="M78.0246 90.3028L84.8383 72.6907C88.392 73.5923 92.1661 71.6868 93.5291 68.1678C94.8921 64.6489 93.3682 60.731 90.1193 59.0508L96.9361 41.4414C97.3415 40.3898 97.0496 39.1914 96.2028 38.4559C95.9693 38.2531 95.7006 38.0907 95.4092 37.9797L94.3643 37.5855C92.9886 37.0626 91.4302 37.7628 90.8934 39.1482L90.8888 39.166C81.589 42.5537 72.6032 42.6365 66.672 42.0952C60.2996 41.5147 56.0066 40.1185 55.7643 40.0391L36.7378 32.8162C30.1422 30.3105 22.6877 33.6677 20.1231 40.2996C18.8789 43.512 18.955 47.0027 20.3329 50.1329C21.1012 51.8707 22.2159 53.3795 23.6076 54.5882C24.5136 55.3751 25.539 56.0308 26.6593 56.5395L20.2782 73.0309C20.2609 73.0759 20.2467 73.1237 20.2294 73.1688C20.198 73.2616 20.1634 73.3517 20.135 73.4472C19.7982 74.5584 19.8292 75.705 20.1623 76.7426C20.1694 76.7597 20.1706 76.7771 20.1777 76.7942C20.2075 76.8856 20.2431 76.9767 20.2756 77.065C20.2933 77.1076 20.3082 77.1533 20.3258 77.1959C20.3536 77.2583 20.384 77.3175 20.4087 77.3772C20.44 77.448 20.4713 77.5189 20.5053 77.5867C20.5252 77.6204 20.5451 77.654 20.5619 77.685C20.6123 77.7779 20.6596 77.8681 20.7158 77.9606C20.7193 77.9692 20.7286 77.9773 20.7322 77.9858C21.019 78.4479 21.3732 78.8703 21.7966 79.238C21.9647 79.384 22.141 79.5207 22.328 79.6449C22.3405 79.6557 22.3556 79.6634 22.3681 79.6742C22.4019 79.6982 22.4416 79.7217 22.4781 79.7425C22.5089 79.7637 22.5396 79.785 22.573 79.8031C22.5975 79.8189 22.6216 79.8289 22.643 79.842C22.6889 79.8709 22.7406 79.8994 22.7892 79.9252C22.7923 79.9279 22.8012 79.9302 22.8074 79.9356C23.0138 80.0439 23.2283 80.1428 23.4505 80.2265C23.4536 80.2292 23.4536 80.2292 23.4536 80.2292L31.8389 83.41C32.2686 83.5756 32.7531 83.3573 32.9241 82.9214L38.5336 68.4254L43.9941 70.5024C44.4264 70.6648 44.9109 70.4466 45.0792 70.0138L47.2334 64.4456C48.6919 65.1497 52.0353 66.8846 55.9603 69.78C60.7364 73.3054 67.362 79.3109 71.9891 87.9886L71.9845 88.0064C71.5764 89.0612 71.8683 90.2596 72.712 90.9924C72.9487 91.1979 73.2169 91.3544 73.5083 91.4654L74.5564 91.8623C75.2203 92.1166 75.9495 92.0946 76.6041 91.8C77.2613 91.5024 77.7648 90.9729 78.0246 90.3028ZM91.9675 67.5762C90.938 70.2269 88.1355 71.6927 85.452 71.1099L89.5056 60.6316C91.8948 61.9747 92.9938 64.9228 91.9675 67.5762ZM28.0272 55.2915C25.2577 54.2353 23.0683 52.1591 21.8685 49.4402C20.6686 46.7213 20.6039 43.6829 21.6848 40.8912C23.9158 35.1276 30.3956 32.2074 36.1291 34.385L54.3899 41.3197L46.2996 62.2254L40.8485 60.1565C40.8427 60.157 40.8427 60.157 40.8396 60.1543L28.0361 55.2938C28.033 55.2911 28.033 55.2911 28.0272 55.2915ZM31.6637 81.5427L24.0592 78.6578C23.9602 78.6209 23.8634 78.5751 23.7697 78.532C23.7577 78.527 23.7457 78.522 23.7336 78.517C23.6427 78.4708 23.5575 78.4242 23.4693 78.3749C23.4568 78.3641 23.4386 78.3536 23.4203 78.3432C23.3379 78.2935 23.2582 78.2406 23.1811 78.1847C23.166 78.177 23.1504 78.1635 23.1348 78.1499C23.0641 78.0994 22.996 78.0457 22.9306 77.9889C22.9119 77.9727 22.8932 77.9565 22.8745 77.9403C22.8216 77.8943 22.7714 77.8452 22.7212 77.7961C22.6963 77.7745 22.6709 77.747 22.6487 77.7223C22.5954 77.6705 22.5479 77.6183 22.4999 77.5603C22.4746 77.5329 22.4551 77.505 22.4325 77.4744C22.4006 77.4358 22.3717 77.3998 22.3425 77.358C22.3199 77.3274 22.2972 77.2969 22.2746 77.2663C22.2356 77.2106 22.1962 77.149 22.1568 77.0875C22.1373 77.0597 22.1205 77.0287 22.1037 76.9977C22.0741 76.9501 22.044 76.8967 22.0197 76.8428C22.0096 76.8231 21.9963 76.8006 21.9862 76.7809C21.9459 76.7077 21.9142 76.631 21.8829 76.5602C21.8755 76.5373 21.8653 76.5176 21.8583 76.5005C21.7905 76.327 21.7313 76.1499 21.6895 75.9716L21.6864 75.9689C21.571 75.4918 21.5447 74.9938 21.6123 74.5009C21.6399 74.3118 21.6792 74.122 21.7336 73.9398C21.7382 73.922 21.7428 73.9041 21.7474 73.8863C21.7734 73.7996 21.8053 73.7126 21.8372 73.6256L28.2114 57.1611L39.45 61.4272L37.2786 67.0404C37.2759 67.0435 37.2759 67.0435 37.2732 67.0467C37.2736 67.0525 37.2709 67.0556 37.2686 67.0645L31.6637 81.5427ZM43.8215 68.632L39.1423 66.8566L41.0148 62.0215L45.6913 63.8L43.8215 68.632ZM56.9211 68.397C52.7589 65.3283 49.299 63.5578 47.8444 62.868L55.9716 41.8632C57.5176 42.3156 61.2869 43.2897 66.4532 43.7622C72.2788 44.2992 80.9691 44.2547 90.0918 41.2157L72.7861 85.9389C68.0482 77.6403 61.6136 71.8551 56.9211 68.397ZM75.9292 90.269C75.6856 90.3797 75.4114 90.3873 75.162 90.2909L74.117 89.8967C74.0059 89.8548 73.9052 89.7947 73.818 89.719C73.5035 89.4459 73.3928 88.9947 73.5462 88.5981L92.4582 39.7425C92.6584 39.2227 93.242 38.9595 93.7556 39.1543L94.801 39.5542C94.909 39.5934 95.0097 39.6536 95.0968 39.7293C95.4144 40.0051 95.522 40.4535 95.3714 40.847L88.2728 59.1895C88.2728 59.1895 88.2701 59.1927 88.2674 59.1958C88.2705 59.1985 88.2705 59.1985 88.2678 59.2016L83.5633 71.3539C83.5633 71.3539 83.5606 71.357 83.5637 71.3597C83.561 71.3628 83.561 71.3628 83.5583 71.3659L76.4598 89.7084C76.3633 89.9578 76.1728 90.1583 75.9292 90.269Z" fill="#434343"/>
</g>
<defs>
<clipPath id="clip0_1_412">
<rect width="79.1761" height="79.1761" fill="white" transform="translate(51.9174) rotate(40.9742)"/>
</clipPath>
</defs>
</svg>
