<svg width="184" height="139" viewBox="0 0 184 139" fill="none" xmlns="http://www.w3.org/2000/svg">
<path d="M154.655 26.9859C152.195 26.9859 149.81 27.2929 147.528 27.8654C143.639 11.8724 129.24 0 112.069 0C99.7666 0 88.8855 6.0937 82.2754 15.4317C74.5043 6.77646 63.2363 1.33035 50.6972 1.33035C27.2562 1.33035 8.25392 20.3534 8.25392 43.82C8.25392 50.4237 9.75696 56.6741 12.4416 62.2498C4.73297 70.3534 0 81.3208 0 93.3962C0 118.343 20.2031 138.569 45.1231 138.569C62.8254 138.569 78.1452 128.361 85.5357 113.505C89.6147 116.658 94.725 118.539 100.278 118.539C110.032 118.539 118.43 112.747 122.242 104.413C123.062 104.501 123.895 104.548 124.738 104.548C136.445 104.548 146.145 95.9386 147.862 84.6994C150.042 85.2191 152.315 85.5021 154.655 85.5021C170.795 85.5021 183.879 72.4033 183.879 56.244C183.879 40.0848 170.795 26.9859 154.655 26.9859Z" fill="#FFEB9A"/>
</svg>
