<svg width="30" height="52" viewBox="0 0 30 52" fill="none" xmlns="http://www.w3.org/2000/svg">
<path fill-rule="evenodd" clip-rule="evenodd" d="M1.09097 1.09097C1.43592 0.745148 1.84571 0.470774 2.29686 0.283567C2.74801 0.0963601 3.23166 0 3.72011 0C4.20856 0 4.69221 0.0963601 5.14336 0.283567C5.59452 0.470774 6.00431 0.745148 6.34926 1.09097L28.6301 23.3718C28.9759 23.7168 29.2503 24.1266 29.4375 24.5777C29.6247 25.0289 29.7211 25.5125 29.7211 26.001C29.7211 26.4894 29.6247 26.9731 29.4375 27.4242C29.2503 27.8754 28.9759 28.2852 28.6301 28.6301L6.34926 50.911C5.65196 51.6083 4.70623 52 3.72011 52C2.73399 52 1.78826 51.6083 1.09097 50.911C0.39368 50.2137 0.00194782 49.268 0.0019478 48.2818C0.00194778 47.2957 0.39368 46.35 1.09097 45.6527L20.7501 26.001L1.09097 6.34926C0.745148 6.00431 0.470778 5.59452 0.283571 5.14337C0.0963637 4.69222 0 4.20856 0 3.72011C0 3.23166 0.0963637 2.74801 0.283571 2.29686C0.470778 1.84571 0.745148 1.43592 1.09097 1.09097Z" fill="#FFEB9A"/>
</svg>
