<svg width="134" height="134" viewBox="0 0 134 134" fill="none" xmlns="http://www.w3.org/2000/svg">
<path d="M117.899 73.8602C117.899 105.943 91.9436 131.899 59.8604 131.899C27.7771 131.899 1.8146 105.943 1.8146 73.8602C1.70294 41.777 27.7771 15.8145 59.7417 15.8145C91.825 15.8145 117.899 41.777 117.899 73.8602Z" fill="#FFEB9A" stroke="#37474F" stroke-width="3.40102" stroke-miterlimit="10" stroke-linecap="round" stroke-linejoin="round"/>
<path d="M99.9905 73.8602C99.9905 96.0749 81.9634 114.102 59.7417 114.102C37.527 114.102 19.4998 96.0749 19.4998 73.8602C19.4998 51.6385 37.527 33.6113 59.7417 33.6113C81.9634 33.6113 99.9905 51.6385 99.9905 73.8602Z" fill="#F2F2F2" stroke="#37474F" stroke-width="3.40102" stroke-miterlimit="10" stroke-linecap="round" stroke-linejoin="round"/>
<path d="M84.3432 73.859C84.3432 87.4614 73.351 98.342 59.8603 98.342C46.3696 98.342 35.3704 87.3498 35.3704 73.859C35.3704 60.3683 46.3696 49.3691 59.8603 49.3691C73.351 49.3691 84.3432 60.2566 84.3432 73.859Z" fill="#FFECB3" stroke="#37474F" stroke-width="3.40102" stroke-miterlimit="10" stroke-linecap="round" stroke-linejoin="round"/>
<path d="M70.8525 73.8585C70.8525 79.9793 65.8694 84.8507 59.8603 84.8507C53.8512 84.8507 48.8611 79.8676 48.8611 73.8585C48.8611 67.8495 53.8512 62.8594 59.8603 62.8594C65.8694 62.8594 70.8525 67.7378 70.8525 73.8585Z" fill="#FFEB9A" stroke="#37474F" stroke-width="3.40102" stroke-miterlimit="10" stroke-linecap="round" stroke-linejoin="round"/>
<path d="M61.4446 72.8405L118.925 15.1367H132.297" fill="#F2F2F2"/>
<path d="M61.4446 72.8405L118.925 15.1367H132.297" stroke="#37474F" stroke-width="3.40102" stroke-miterlimit="10" stroke-linecap="round" stroke-linejoin="round"/>
<path d="M124.362 23.0723H111.89" stroke="#37474F" stroke-width="3.40102" stroke-miterlimit="10" stroke-linecap="round" stroke-linejoin="round"/>
<path d="M115.296 32.1387H102.824" stroke="#37474F" stroke-width="3.40102" stroke-miterlimit="10" stroke-linecap="round" stroke-linejoin="round"/>
<path d="M110.194 11.166V23.6378" stroke="#37474F" stroke-width="3.40102" stroke-miterlimit="10" stroke-linecap="round" stroke-linejoin="round"/>
<path d="M102.259 19.1016V31.5733" stroke="#37474F" stroke-width="3.40102" stroke-miterlimit="10" stroke-linecap="round" stroke-linejoin="round"/>
<path d="M118.129 2.09961V14.5644" stroke="#37474F" stroke-width="3.40102" stroke-miterlimit="10" stroke-linecap="round" stroke-linejoin="round"/>
<path d="M69.9453 54.8137C70.7409 55.6094 70.7409 56.8517 69.9453 57.6473C69.1567 58.4429 67.9074 58.4429 67.1118 57.6473C66.3231 56.8517 66.3231 55.6094 67.1118 54.8137C67.9074 54.1298 69.1567 54.1298 69.9453 54.8137Z" fill="#37474F" stroke="#37474F" stroke-width="1.13367" stroke-miterlimit="10"/>
<path d="M79.8137 45.0635C80.6024 45.8591 80.6024 47.1014 79.8137 47.8971C79.0181 48.6927 77.7688 48.6927 76.9732 47.8971C76.1846 47.1014 76.1846 45.8591 76.9732 45.0635C77.7688 44.2679 79.0181 44.2679 79.8137 45.0635Z" fill="#37474F" stroke="#37474F" stroke-width="1.13367" stroke-miterlimit="10"/>
<path d="M89.5568 35.2022C90.3524 35.9908 90.3524 37.2401 89.5568 38.0357C88.7681 38.8244 87.5189 38.8244 86.7232 38.0357C85.9346 37.2401 85.9346 35.9908 86.7232 35.2022C87.5189 34.4066 88.7681 34.4066 89.5568 35.2022Z" fill="#37474F" stroke="#37474F" stroke-width="1.13367" stroke-miterlimit="10"/>
</svg>
