<svg width="131" height="131" viewBox="0 0 131 131" fill="none" xmlns="http://www.w3.org/2000/svg">
<g clip-path="url(#clip0_40_2)">
<path d="M40.502 12.7715H90.4969V46.7849H40.502V12.7715Z" fill="#FFDF60" stroke="#434343" stroke-width="3.91551" stroke-miterlimit="10" stroke-linecap="round" stroke-linejoin="round"/>
<path d="M90.498 51.4039H40.5031C37.9502 51.4039 35.8817 49.3366 35.8817 46.7848V12.7715C35.8817 10.2208 37.9502 8.15234 40.5031 8.15234H90.498C93.0498 8.15234 95.1194 10.2208 95.1194 12.7715V46.7848C95.1194 49.3366 93.0498 51.4039 90.498 51.4039ZM45.1245 42.1657H85.8766V17.3906H45.1245V42.1657Z" fill="#FFDF60"/>
<path d="M90.498 51.4039H40.5031C37.9502 51.4039 35.8817 49.3366 35.8817 46.7848V12.7715C35.8817 10.2208 37.9502 8.15234 40.5031 8.15234H90.498C93.0498 8.15234 95.1194 10.2208 95.1194 12.7715V46.7848C95.1194 49.3366 93.0498 51.4039 90.498 51.4039ZM45.1245 42.1657H85.8766V17.3906H45.1245V42.1657Z" stroke="#434343" stroke-width="3.91551" stroke-miterlimit="10" stroke-linecap="round" stroke-linejoin="round"/>
<path d="M123.34 28.7266C126.418 28.7266 128.938 31.2454 128.938 34.3225V117.192C128.938 120.271 126.418 122.788 123.34 122.788H7.65986C4.58159 122.788 2.06166 120.271 2.06166 117.192V34.3225C2.06166 31.2454 4.58159 28.7266 7.65986 28.7266H123.34Z" fill="#FFDF60"/>
<path d="M123.34 28.7266C126.418 28.7266 128.938 31.2454 128.938 34.3225V117.192C128.938 120.271 126.418 122.788 123.34 122.788H7.65986C4.58159 122.788 2.06166 120.271 2.06166 117.192V34.3225C2.06166 31.2454 4.58159 28.7266 7.65986 28.7266H123.34Z" stroke="#434343" stroke-width="3.91551" stroke-miterlimit="10" stroke-linecap="round" stroke-linejoin="round"/>
<path d="M115.862 35.8555C118.942 35.8555 121.46 38.3743 121.46 41.4514V109.591C121.46 112.669 118.942 115.187 115.862 115.187H15.1378C12.0584 115.187 9.53958 112.669 9.53958 109.591V41.4514C9.53958 38.3743 12.0584 35.8555 15.1378 35.8555H115.862Z" fill="#FFEB9A"/>
<path d="M123.34 69.4594C126.418 69.4594 128.938 66.9406 128.938 63.8634V34.3225C128.938 31.2454 126.418 28.7266 123.34 28.7266H7.65986C4.58159 28.7266 2.06166 31.2454 2.06166 34.3225V63.8634C2.06166 66.9406 4.58159 69.4594 7.65986 69.4594H123.34Z" fill="#FFDF60" stroke="#434343" stroke-width="3.91551" stroke-miterlimit="10" stroke-linecap="round" stroke-linejoin="round"/>
<path d="M46.8041 61.4805H84.1959V79.5362H46.8041V61.4805Z" fill="#FFDF60" stroke="#434343" stroke-width="3.91551" stroke-miterlimit="10" stroke-linecap="round" stroke-linejoin="round"/>
</g>
<defs>
<clipPath id="clip0_40_2">
<rect width="131" height="131" fill="white"/>
</clipPath>
</defs>
</svg>
