<svg width="137" height="137" viewBox="0 0 137 137" fill="none" xmlns="http://www.w3.org/2000/svg">
<path d="M3.30371 93.7742H133.711V15.5059H3.30371V93.7742Z" fill="white"/>
<path fill-rule="evenodd" clip-rule="evenodd" d="M136.786 98.3984L136.75 104.663C136.75 106.618 135.18 108.203 133.247 108.203H3.71756C1.77673 108.203 0.20694 106.618 0.20694 104.663L0.235481 98.3984H136.786Z" fill="#F1F0EF"/>
<path d="M3.30373 93.774H133.711V15.5057H3.30373V93.774ZM0.235498 98.3978L0.228363 13.9573C0.228363 13.1082 0.920498 12.416 1.76248 12.416H135.245C136.094 12.416 136.786 13.1082 136.786 13.9573V98.3978H0.235498Z" fill="#242121"/>
<path fill-rule="evenodd" clip-rule="evenodd" d="M85.5394 123.649H51.4678C51.4678 123.649 56.2271 117.163 57.3616 114.866C58.1537 113.26 59.3809 108.201 59.3809 108.201H77.5263C77.5263 108.201 78.7821 113.018 79.5456 114.552C80.7301 116.914 85.5394 123.649 85.5394 123.649Z" fill="#E4E4E3"/>
<path fill-rule="evenodd" clip-rule="evenodd" d="M106.589 124.92H30.4254V123.65H106.589V124.92Z" fill="#F1F0EF"/>
<path fill-rule="evenodd" clip-rule="evenodd" d="M10.1466 69.5488H7.33524V91.269H10.1466V69.5488Z" fill="#FFF0B3"/>
<path fill-rule="evenodd" clip-rule="evenodd" d="M17.2535 62.9199H14.4421V91.2689H17.2535V62.9199Z" fill="#3981A6"/>
<path fill-rule="evenodd" clip-rule="evenodd" d="M24.3532 55.8281H21.5418V91.2697H24.3532V55.8281Z" fill="#FFF0B3"/>
<path fill-rule="evenodd" clip-rule="evenodd" d="M31.4529 49.7988H28.6416V91.2699H31.4529V49.7988Z" fill="#3981A6"/>
<path fill-rule="evenodd" clip-rule="evenodd" d="M38.5598 59.2461H35.7484V91.2698H38.5598V59.2461Z" fill="#FFF0B3"/>
<path fill-rule="evenodd" clip-rule="evenodd" d="M45.6596 62.9199H42.8482V91.2689H45.6596V62.9199Z" fill="#3981A6"/>
<path fill-rule="evenodd" clip-rule="evenodd" d="M52.7664 54.9434H49.9551V91.2698H52.7664V54.9434Z" fill="#FFF0B3"/>
<path fill-rule="evenodd" clip-rule="evenodd" d="M59.8662 44.9961H57.0548V91.2693H59.8662V44.9961Z" fill="#3981A6"/>
<path fill-rule="evenodd" clip-rule="evenodd" d="M66.973 37.9473H64.1545V91.2702H66.973V37.9473Z" fill="#FFF0B3"/>
<path d="M28.7272 40.9439L28.3062 40.4943L29.2053 39.6523L29.6263 40.1019L28.7272 40.9439ZM26.9291 42.6278L26.5081 42.1783L27.4071 41.3363L27.8281 41.7858L26.9291 42.6278ZM25.1309 44.3189L24.71 43.8622L25.609 43.0203L26.03 43.4698L25.1309 44.3189ZM23.3328 46.0029L22.9118 45.5533L23.8109 44.7042L24.2319 45.1537L23.3328 46.0029ZM21.5347 47.6868L21.1137 47.2373L22.0128 46.3882L22.4338 46.8448L21.5347 47.6868ZM19.7366 49.3636L19.3156 48.9213L20.2146 48.0721L20.6356 48.5288L19.7366 49.3636ZM17.9384 51.0547L17.5175 50.5981L18.4165 49.7561L18.8375 50.2128L17.9384 51.0547ZM16.1403 52.7387L15.7193 52.2892L16.6184 51.4401L17.0394 51.8967L16.1403 52.7387ZM14.3422 54.4227L13.9283 53.9731L14.8203 53.1311L15.2413 53.5807L14.3422 54.4227ZM12.5441 56.1066L12.1302 55.6571L13.0293 54.8151L13.4503 55.2646L12.5441 56.1066ZM10.7459 57.7906L10.3321 57.341L11.224 56.4991L11.645 56.9486L10.7459 57.7906ZM8.95496 59.4745L8.53397 59.025L9.43303 58.183L9.85402 58.6326L8.95496 59.4745Z" fill="#E16525"/>
<path d="M31.3102 40.8L30.404 39.9652L30.825 39.5156L31.7312 40.3505L31.3102 40.8ZM33.1226 42.4697L32.2164 41.6348L32.6303 41.1853L33.5436 42.013L33.1226 42.4697ZM34.935 44.1394L34.0288 43.3045L34.4498 42.8479L35.356 43.6827L34.935 44.1394ZM36.7474 45.8019L35.8483 44.9671L36.2622 44.5176L37.1684 45.3524L36.7474 45.8019ZM38.5669 47.4716L37.6607 46.6368L38.0746 46.1872L38.9808 47.0221L38.5669 47.4716ZM40.3793 49.1413L39.4731 48.3065L39.887 47.8498L40.7932 48.6846L40.3793 49.1413ZM42.1917 50.8039L41.2855 49.9761L41.6994 49.5195L42.6056 50.3543L42.1917 50.8039ZM43.4832 51.9955L43.0979 51.6387L43.5118 51.1892L43.9042 51.5459L43.4832 51.9955Z" fill="#E16525"/>
<path d="M66.1881 25.1377L65.7101 24.7452L66.4807 23.7891L66.9588 24.1744L66.1881 25.1377ZM64.6398 27.0499L64.1617 26.6646L64.9323 25.7085L65.4104 26.0938L64.6398 27.0499ZM63.0842 28.9694L62.6133 28.5769L63.3839 27.6208L63.862 28.0132L63.0842 28.9694ZM61.5359 30.8817L61.0578 30.4964L61.8355 29.5402L62.3136 29.9255L61.5359 30.8817ZM59.9875 32.8011L59.5094 32.4086L60.2872 31.4525L60.7652 31.8449L59.9875 32.8011ZM58.4391 34.7205L57.961 34.3281L58.7388 33.3719L59.2168 33.7572L58.4391 34.7205ZM56.8907 36.6328L56.4126 36.2475L57.1904 35.2842L57.6613 35.6767L56.8907 36.6328ZM55.3423 38.5522L54.8642 38.1598L55.642 37.2036L56.1129 37.589L55.3423 38.5522ZM53.7939 40.4645L53.3159 40.0792L54.0865 39.1231L54.5645 39.5084L53.7939 40.4645ZM52.2455 42.384L51.7675 41.9915L52.5381 41.0354L53.0162 41.4207L52.2455 42.384ZM50.69 44.2962L50.2119 43.9109L50.9897 42.9477L51.4678 43.3401L50.69 44.2962ZM49.1416 46.2157L48.6636 45.8304L49.4413 44.8671L49.9194 45.2595L49.1416 46.2157ZM47.5932 48.1351L47.1152 47.7427L47.8929 46.7865L48.371 47.1718L47.5932 48.1351ZM46.0449 50.0474L45.5668 49.6621L46.3445 48.6988L46.8155 49.0912L46.0449 50.0474ZM44.4965 51.9668L44.0184 51.5744L44.7962 50.6182L45.2671 51.0035L44.4965 51.9668Z" fill="#E16525"/>
<path d="M84.7688 77.2337L77.2052 70.1696C79.2174 68.0076 81.8218 66.873 84.7688 66.873V77.2337Z" fill="#FFDF60"/>
<path d="M84.7688 77.234L94.7869 79.7457C93.4098 85.297 87.8013 88.6792 82.2642 87.2949C76.7271 85.9035 73.3592 80.2808 74.7435 74.7295C75.1859 72.9385 75.9565 71.5185 77.2052 70.1699L84.7688 77.234Z" fill="#FFF0B3"/>
<path d="M84.7688 77.2337V66.873C90.47 66.873 95.1009 71.5111 95.1009 77.2337C95.1009 78.1541 95.0081 78.8463 94.7869 79.7453L84.7688 77.2337Z" fill="#FFDF60"/>
<path d="M113.924 77.2414L104.077 80.4523C102.315 74.9938 105.29 69.1427 110.72 67.3731C111.812 67.0164 112.775 66.8594 113.924 66.8594V77.2414Z" fill="#FFDF60"/>
<path d="M113.924 77.2422L107.838 85.6406C105.99 84.292 104.784 82.6366 104.077 80.4531L113.924 77.2422Z" fill="#FFF0B3"/>
<path d="M113.924 77.2422L120.003 85.6406C116.307 88.3378 111.534 88.3378 107.838 85.6406L113.924 77.2422Z" fill="#B4E6F5"/>
<path d="M113.924 77.2414V66.8594C119.632 66.8594 124.27 71.5117 124.27 77.2414C124.27 80.6807 122.779 83.6205 120.003 85.6398L113.924 77.2414Z" fill="#FFDF60"/>
<path d="M99.7246 40.2231L87.7442 50.6694C81.9931 44.0334 82.6995 33.9725 89.314 28.2071C92.318 25.5884 95.7502 24.2969 99.7246 24.2969V40.2231Z" fill="#FFF0B3"/>
<path d="M99.7246 40.2231V24.2969C108.494 24.2969 115.601 31.4252 115.601 40.2231C115.601 49.014 108.494 56.1422 99.7246 56.1422C94.951 56.1422 90.8838 54.287 87.7442 50.6694L99.7246 40.2231Z" fill="#FFDF60"/>
</svg>
