<svg width="115" height="108" viewBox="0 0 115 108" fill="none" xmlns="http://www.w3.org/2000/svg">
<path d="M111.041 33.0453C115.08 42.1192 110.931 52.727 101.771 56.7293C92.5993 60.7377 81.8938 56.6254 77.8487 47.5453C73.8036 38.4713 77.9526 27.8636 87.1182 23.8613C96.2839 19.8528 106.989 23.9652 111.041 33.0453Z" fill="#CECECE"/>
<path d="M101.771 56.7289C110.93 52.7265 115.079 42.1188 111.04 33.0448C110.295 31.3828 109.33 29.8858 108.193 28.5781C108.908 40.2246 90.876 45.7668 90.876 45.7668L92.9353 58.2015C95.8621 58.4459 98.8868 57.9876 101.771 56.7289Z" fill="#F2F2F2"/>
<path d="M34.6235 73.3867C38.0331 71.8957 41.6566 73.5822 42.6831 77.1385L48.323 96.8263C49.3435 100.383 47.382 104.507 43.9663 105.998L41.4977 107.08C38.082 108.577 34.3974 106.902 33.3097 103.371L27.2971 83.8783C26.2094 80.3404 28.1158 76.228 31.5255 74.7371L34.6235 73.3867Z" fill="#CECECE"/>
<path d="M41.4976 107.08L43.9662 105.998C47.382 104.507 49.3434 100.383 48.323 96.8264L42.6831 77.1386C41.9498 74.5845 39.8661 73.0019 37.4831 72.8613C37.6603 73.8818 37.868 74.9511 38.1552 76.0632C41.9254 91.1865 37.6908 98.0852 32.6436 101.214L33.3097 103.371C34.3973 106.903 38.0819 108.577 41.4976 107.08Z" fill="#F2F2F2"/>
<path d="M16.2616 56.3008L9.24679 59.3621C1.41322 62.7901 -2.13083 71.8518 1.32157 79.606C4.78007 87.3601 13.9274 90.8675 21.761 87.4456L28.7757 84.3782L16.2616 56.3008Z" fill="#FFEB9A"/>
<path d="M16.2616 56.3008L9.24679 59.3621C1.41322 62.7901 -2.13083 71.8518 1.32157 79.606C4.78007 87.3601 13.9274 90.8675 21.761 87.4456L28.7757 84.3782L16.2616 56.3008Z" fill="#FFEB9A"/>
<path d="M24.8834 75.6354C14.0252 79.21 5.87384 77.4135 0.02005 74.0039C0.0933752 75.8859 0.508884 77.7802 1.32157 79.6072C4.78008 87.3613 13.9274 90.8687 21.761 87.4469L28.7757 84.3794L24.8834 75.6354Z" fill="#FFDF60"/>
<path d="M110.723 76.8197L38.0208 78.5061L27.0709 53.93L77.317 1.86914L110.723 76.8197Z" fill="#FFEB9A"/>
<path d="M110.723 76.8198L99.4979 51.6387C75.8688 66.212 33.6885 65.4605 33.6885 65.4605L39.1696 78.4757L110.723 76.8198Z" fill="#FFDF60"/>
<path d="M115 74.9505L110.723 76.8203L77.317 1.86979L81.6004 0L115 74.9505Z" fill="#CECECE"/>
<path d="M24.4984 88.0879L48.7691 77.4802L35.0206 46.6348L10.75 57.2425L24.4984 88.0879Z" fill="#CECECE"/>
<path d="M19.9828 77.9453L24.4984 88.0887L48.7691 77.481L44.2473 67.3438L19.9828 77.9453Z" fill="#CECECE"/>
</svg>
