<svg width="502" height="102" viewBox="0 0 502 102" fill="none" xmlns="http://www.w3.org/2000/svg">
<path d="M120.903 100H0.502735V2.98H22.3427V81.52H49.7827V2.98H71.6227V81.52H99.0627V2.98H120.903V100ZM208.197 100C207.17 96.64 206.004 93.1867 204.697 89.64C203.484 86.0933 202.27 82.5467 201.057 79H163.257C162.044 82.5467 160.784 86.0933 159.477 89.64C158.264 93.1867 157.144 96.64 156.117 100H133.437C137.077 89.5467 140.53 79.8867 143.797 71.02C147.064 62.1533 150.237 53.8 153.317 45.96C156.49 38.12 159.57 30.7 162.557 23.7C165.637 16.6067 168.81 9.69999 172.077 2.98H192.937C196.11 9.69999 199.237 16.6067 202.317 23.7C205.397 30.7 208.477 38.12 211.557 45.96C214.73 53.8 217.95 62.1533 221.217 71.02C224.484 79.8867 227.937 89.5467 231.577 100H208.197ZM182.017 24.96C181.55 26.36 180.85 28.2733 179.917 30.7C178.984 33.1267 177.91 35.9267 176.697 39.1C175.484 42.2733 174.13 45.7733 172.637 49.6C171.237 53.4267 169.79 57.44 168.297 61.64H195.877C194.384 57.44 192.937 53.4267 191.537 49.6C190.137 45.7733 188.784 42.2733 187.477 39.1C186.264 35.9267 185.19 33.1267 184.257 30.7C183.324 28.2733 182.577 26.36 182.017 24.96ZM265.976 100H244.136V2.98H310.356V21.46H265.976V100ZM424.317 51.28C424.317 67.6133 421.19 80.1667 414.937 88.94C408.777 97.62 400.237 101.96 389.317 101.96C378.397 101.96 369.81 97.62 363.557 88.94C357.397 80.1667 354.317 67.6133 354.317 51.28C354.317 43.16 355.11 35.9733 356.697 29.72C358.377 23.4667 360.757 18.1933 363.837 13.9C366.917 9.60666 370.603 6.34 374.897 4.09999C379.19 1.85999 383.997 0.739993 389.317 0.739993C400.237 0.739993 408.777 5.12666 414.937 13.9C421.19 22.58 424.317 35.04 424.317 51.28ZM403.037 51.28C403.037 46.4267 402.803 42.04 402.337 38.12C401.87 34.1067 401.123 30.6533 400.097 27.76C399.07 24.8667 397.67 22.6267 395.897 21.04C394.123 19.4533 391.93 18.66 389.317 18.66C386.703 18.66 384.51 19.4533 382.737 21.04C381.057 22.6267 379.657 24.8667 378.537 27.76C377.51 30.6533 376.763 34.1067 376.297 38.12C375.83 42.04 375.597 46.4267 375.597 51.28C375.597 56.1333 375.83 60.5667 376.297 64.58C376.763 68.5933 377.51 72.0467 378.537 74.94C379.657 77.8333 381.057 80.0733 382.737 81.66C384.51 83.2467 386.703 84.04 389.317 84.04C391.93 84.04 394.123 83.2467 395.897 81.66C397.67 80.0733 399.07 77.8333 400.097 74.94C401.123 72.0467 401.87 68.5933 402.337 64.58C402.803 60.5667 403.037 56.1333 403.037 51.28ZM498.567 28.46C498.567 32.0067 497.867 35.4133 496.467 38.68C495.067 41.9467 493.247 45.12 491.007 48.2C488.767 51.1867 486.247 54.08 483.447 56.88C480.647 59.68 477.894 62.34 475.187 64.86C473.787 66.1667 472.247 67.66 470.567 69.34C468.98 70.9267 467.44 72.56 465.947 74.24C464.454 75.92 463.1 77.5067 461.887 79C460.767 80.4 460.067 81.5667 459.787 82.5H501.507V100H436.827C436.64 98.9733 436.547 97.6667 436.547 96.08C436.547 94.4933 436.547 93.3733 436.547 92.72C436.547 88.24 437.247 84.1333 438.647 80.4C440.14 76.6667 442.054 73.2133 444.387 70.04C446.72 66.7733 449.334 63.74 452.227 60.94C455.214 58.14 458.154 55.34 461.047 52.54C463.287 50.3933 465.387 48.3867 467.347 46.52C469.307 44.56 471.034 42.6933 472.527 40.92C474.02 39.0533 475.187 37.2333 476.027 35.46C476.867 33.5933 477.287 31.7267 477.287 29.86C477.287 25.7533 476.12 22.86 473.787 21.18C471.454 19.5 468.56 18.66 465.107 18.66C462.587 18.66 460.207 19.08 457.967 19.92C455.82 20.6667 453.814 21.6 451.947 22.72C450.174 23.7467 448.634 24.82 447.327 25.94C446.02 26.9667 445.04 27.8067 444.387 28.46L434.027 13.9C438.134 10.0733 442.894 6.94666 448.307 4.51999C453.814 1.99999 459.694 0.739993 465.947 0.739993C471.64 0.739993 476.54 1.39333 480.647 2.69999C484.754 4.00666 488.114 5.87333 490.727 8.3C493.434 10.6333 495.394 13.5267 496.607 16.98C497.914 20.34 498.567 24.1667 498.567 28.46Z" fill="white" fill-opacity="0.8"/>
</svg>
