<svg width="500" height="103" viewBox="0 0 500 103" fill="none" xmlns="http://www.w3.org/2000/svg">
<path d="M120.903 100H0.502735V2.98H22.3427V81.52H49.7827V2.98H71.6227V81.52H99.0627V2.98H120.903V100ZM208.197 100C207.17 96.64 206.004 93.1867 204.697 89.64C203.484 86.0933 202.27 82.5467 201.057 79H163.257C162.044 82.5467 160.784 86.0933 159.477 89.64C158.264 93.1867 157.144 96.64 156.117 100H133.437C137.077 89.5467 140.53 79.8867 143.797 71.02C147.064 62.1533 150.237 53.8 153.317 45.96C156.49 38.12 159.57 30.7 162.557 23.7C165.637 16.6067 168.81 9.69999 172.077 2.98H192.937C196.11 9.69999 199.237 16.6067 202.317 23.7C205.397 30.7 208.477 38.12 211.557 45.96C214.73 53.8 217.95 62.1533 221.217 71.02C224.484 79.8867 227.937 89.5467 231.577 100H208.197ZM182.017 24.96C181.55 26.36 180.85 28.2733 179.917 30.7C178.984 33.1267 177.91 35.9267 176.697 39.1C175.484 42.2733 174.13 45.7733 172.637 49.6C171.237 53.4267 169.79 57.44 168.297 61.64H195.877C194.384 57.44 192.937 53.4267 191.537 49.6C190.137 45.7733 188.784 42.2733 187.477 39.1C186.264 35.9267 185.19 33.1267 184.257 30.7C183.324 28.2733 182.577 26.36 182.017 24.96ZM265.976 100H244.136V2.98H310.356V21.46H265.976V100ZM424.317 51.28C424.317 67.6133 421.19 80.1667 414.937 88.94C408.777 97.62 400.237 101.96 389.317 101.96C378.397 101.96 369.81 97.62 363.557 88.94C357.397 80.1667 354.317 67.6133 354.317 51.28C354.317 43.16 355.11 35.9733 356.697 29.72C358.377 23.4667 360.757 18.1933 363.837 13.9C366.917 9.60666 370.603 6.34 374.897 4.09999C379.19 1.85999 383.997 0.739993 389.317 0.739993C400.237 0.739993 408.777 5.12666 414.937 13.9C421.19 22.58 424.317 35.04 424.317 51.28ZM403.037 51.28C403.037 46.4267 402.803 42.04 402.337 38.12C401.87 34.1067 401.123 30.6533 400.097 27.76C399.07 24.8667 397.67 22.6267 395.897 21.04C394.123 19.4533 391.93 18.66 389.317 18.66C386.703 18.66 384.51 19.4533 382.737 21.04C381.057 22.6267 379.657 24.8667 378.537 27.76C377.51 30.6533 376.763 34.1067 376.297 38.12C375.83 42.04 375.597 46.4267 375.597 51.28C375.597 56.1333 375.83 60.5667 376.297 64.58C376.763 68.5933 377.51 72.0467 378.537 74.94C379.657 77.8333 381.057 80.0733 382.737 81.66C384.51 83.2467 386.703 84.04 389.317 84.04C391.93 84.04 394.123 83.2467 395.897 81.66C397.67 80.0733 399.07 77.8333 400.097 74.94C401.123 72.0467 401.87 68.5933 402.337 64.58C402.803 60.5667 403.037 56.1333 403.037 51.28ZM461.047 102.1C458.527 102.1 455.867 101.913 453.067 101.54C450.267 101.26 447.56 100.84 444.947 100.28C442.334 99.72 439.954 99.1133 437.807 98.46C435.66 97.8067 433.98 97.2 432.767 96.64L436.827 79.28C439.254 80.3067 442.334 81.4267 446.067 82.64C449.894 83.76 454.607 84.32 460.207 84.32C466.647 84.32 471.36 83.1067 474.347 80.68C477.334 78.2533 478.827 74.9867 478.827 70.88C478.827 68.36 478.267 66.26 477.147 64.58C476.12 62.8067 474.674 61.4067 472.807 60.38C470.94 59.26 468.7 58.5133 466.087 58.14C463.567 57.6733 460.86 57.44 457.967 57.44H449.847V40.64H459.087C461.14 40.64 463.1 40.4533 464.967 40.08C466.927 39.7067 468.654 39.1 470.147 38.26C471.64 37.3267 472.807 36.1133 473.647 34.62C474.58 33.0333 475.047 31.0733 475.047 28.74C475.047 26.9667 474.674 25.4267 473.927 24.12C473.18 22.8133 472.2 21.74 470.987 20.9C469.867 20.06 468.514 19.4533 466.927 19.08C465.434 18.6133 463.894 18.38 462.307 18.38C458.294 18.38 454.56 18.9867 451.107 20.2C447.747 21.4133 444.667 22.9067 441.867 24.68L434.447 9.42C435.94 8.48667 437.667 7.50666 439.627 6.47999C441.68 5.45333 443.92 4.52 446.347 3.68C448.774 2.84 451.34 2.14 454.047 1.58C456.847 1.01999 459.787 0.739993 462.867 0.739993C468.56 0.739993 473.46 1.43999 477.567 2.84C481.767 4.14667 485.22 6.06 487.927 8.57999C490.634 11.0067 492.64 13.9 493.947 17.26C495.254 20.5267 495.907 24.12 495.907 28.04C495.907 31.8667 494.834 35.6 492.687 39.24C490.54 42.7867 487.647 45.4933 484.007 47.36C489.047 49.4133 492.92 52.4933 495.627 56.6C498.427 60.6133 499.827 65.4667 499.827 71.16C499.827 75.64 499.08 79.7933 497.587 83.62C496.094 87.3533 493.76 90.62 490.587 93.42C487.414 96.1267 483.354 98.2733 478.407 99.86C473.554 101.353 467.767 102.1 461.047 102.1Z" fill="white" fill-opacity="0.8"/>
</svg>
