<svg width="505" height="102" viewBox="0 0 505 102" fill="none" xmlns="http://www.w3.org/2000/svg">
<path d="M120.903 100H0.502735V2.98H22.3427V81.52H49.7827V2.98H71.6227V81.52H99.0627V2.98H120.903V100ZM208.197 100C207.17 96.64 206.004 93.1867 204.697 89.64C203.484 86.0933 202.27 82.5467 201.057 79H163.257C162.044 82.5467 160.784 86.0933 159.477 89.64C158.264 93.1867 157.144 96.64 156.117 100H133.437C137.077 89.5467 140.53 79.8867 143.797 71.02C147.064 62.1533 150.237 53.8 153.317 45.96C156.49 38.12 159.57 30.7 162.557 23.7C165.637 16.6067 168.81 9.69999 172.077 2.98H192.937C196.11 9.69999 199.237 16.6067 202.317 23.7C205.397 30.7 208.477 38.12 211.557 45.96C214.73 53.8 217.95 62.1533 221.217 71.02C224.484 79.8867 227.937 89.5467 231.577 100H208.197ZM182.017 24.96C181.55 26.36 180.85 28.2733 179.917 30.7C178.984 33.1267 177.91 35.9267 176.697 39.1C175.484 42.2733 174.13 45.7733 172.637 49.6C171.237 53.4267 169.79 57.44 168.297 61.64H195.877C194.384 57.44 192.937 53.4267 191.537 49.6C190.137 45.7733 188.784 42.2733 187.477 39.1C186.264 35.9267 185.19 33.1267 184.257 30.7C183.324 28.2733 182.577 26.36 182.017 24.96ZM265.976 100H244.136V2.98H310.356V21.46H265.976V100ZM424.317 51.28C424.317 67.6133 421.19 80.1667 414.937 88.94C408.777 97.62 400.237 101.96 389.317 101.96C378.397 101.96 369.81 97.62 363.557 88.94C357.397 80.1667 354.317 67.6133 354.317 51.28C354.317 43.16 355.11 35.9733 356.697 29.72C358.377 23.4667 360.757 18.1933 363.837 13.9C366.917 9.60666 370.603 6.34 374.897 4.09999C379.19 1.85999 383.997 0.739993 389.317 0.739993C400.237 0.739993 408.777 5.12666 414.937 13.9C421.19 22.58 424.317 35.04 424.317 51.28ZM403.037 51.28C403.037 46.4267 402.803 42.04 402.337 38.12C401.87 34.1067 401.123 30.6533 400.097 27.76C399.07 24.8667 397.67 22.6267 395.897 21.04C394.123 19.4533 391.93 18.66 389.317 18.66C386.703 18.66 384.51 19.4533 382.737 21.04C381.057 22.6267 379.657 24.8667 378.537 27.76C377.51 30.6533 376.763 34.1067 376.297 38.12C375.83 42.04 375.597 46.4267 375.597 51.28C375.597 56.1333 375.83 60.5667 376.297 64.58C376.763 68.5933 377.51 72.0467 378.537 74.94C379.657 77.8333 381.057 80.0733 382.737 81.66C384.51 83.2467 386.703 84.04 389.317 84.04C391.93 84.04 394.123 83.2467 395.897 81.66C397.67 80.0733 399.07 77.8333 400.097 74.94C401.123 72.0467 401.87 68.5933 402.337 64.58C402.803 60.5667 403.037 56.1333 403.037 51.28ZM473.787 28.46C470.147 33.22 466.274 38.4 462.167 44C458.06 49.6 454.607 55.34 451.807 61.22H473.787V28.46ZM494.227 2.98V61.22H504.587V78.3H494.227V100H473.787V78.3H431.927V63.04C433.98 58.9333 436.547 54.3133 439.627 49.18C442.707 43.9533 446.114 38.6333 449.847 33.22C453.674 27.7133 457.687 22.3467 461.887 17.12C466.087 11.8933 470.287 7.18 474.487 2.98H494.227Z" fill="white" fill-opacity="0.8"/>
</svg>
