<svg width="504" height="102" viewBox="0 0 504 102" fill="none" xmlns="http://www.w3.org/2000/svg">
<path d="M120.903 100H0.502735V2.98H22.3427V81.52H49.7827V2.98H71.6227V81.52H99.0627V2.98H120.903V100ZM208.197 100C207.17 96.64 206.004 93.1867 204.697 89.64C203.484 86.0933 202.27 82.5467 201.057 79H163.257C162.044 82.5467 160.784 86.0933 159.477 89.64C158.264 93.1867 157.144 96.64 156.117 100H133.437C137.077 89.5467 140.53 79.8867 143.797 71.02C147.064 62.1533 150.237 53.8 153.317 45.96C156.49 38.12 159.57 30.7 162.557 23.7C165.637 16.6067 168.81 9.69999 172.077 2.98H192.937C196.11 9.69999 199.237 16.6067 202.317 23.7C205.397 30.7 208.477 38.12 211.557 45.96C214.73 53.8 217.95 62.1533 221.217 71.02C224.484 79.8867 227.937 89.5467 231.577 100H208.197ZM182.017 24.96C181.55 26.36 180.85 28.2733 179.917 30.7C178.984 33.1267 177.91 35.9267 176.697 39.1C175.484 42.2733 174.13 45.7733 172.637 49.6C171.237 53.4267 169.79 57.44 168.297 61.64H195.877C194.384 57.44 192.937 53.4267 191.537 49.6C190.137 45.7733 188.784 42.2733 187.477 39.1C186.264 35.9267 185.19 33.1267 184.257 30.7C183.324 28.2733 182.577 26.36 182.017 24.96ZM265.976 100H244.136V2.98H310.356V21.46H265.976V100ZM424.317 51.28C424.317 67.6133 421.19 80.1667 414.937 88.94C408.777 97.62 400.237 101.96 389.317 101.96C378.397 101.96 369.81 97.62 363.557 88.94C357.397 80.1667 354.317 67.6133 354.317 51.28C354.317 43.16 355.11 35.9733 356.697 29.72C358.377 23.4667 360.757 18.1933 363.837 13.9C366.917 9.60666 370.603 6.34 374.897 4.09999C379.19 1.85999 383.997 0.739993 389.317 0.739993C400.237 0.739993 408.777 5.12666 414.937 13.9C421.19 22.58 424.317 35.04 424.317 51.28ZM403.037 51.28C403.037 46.4267 402.803 42.04 402.337 38.12C401.87 34.1067 401.123 30.6533 400.097 27.76C399.07 24.8667 397.67 22.6267 395.897 21.04C394.123 19.4533 391.93 18.66 389.317 18.66C386.703 18.66 384.51 19.4533 382.737 21.04C381.057 22.6267 379.657 24.8667 378.537 27.76C377.51 30.6533 376.763 34.1067 376.297 38.12C375.83 42.04 375.597 46.4267 375.597 51.28C375.597 56.1333 375.83 60.5667 376.297 64.58C376.763 68.5933 377.51 72.0467 378.537 74.94C379.657 77.8333 381.057 80.0733 382.737 81.66C384.51 83.2467 386.703 84.04 389.317 84.04C391.93 84.04 394.123 83.2467 395.897 81.66C397.67 80.0733 399.07 77.8333 400.097 74.94C401.123 72.0467 401.87 68.5933 402.337 64.58C402.803 60.5667 403.037 56.1333 403.037 51.28ZM467.487 54.36C465.434 54.36 463.24 54.5467 460.907 54.92C458.574 55.2933 456.754 55.8067 455.447 56.46C455.447 56.8333 455.4 57.3933 455.307 58.14C455.307 58.8867 455.307 59.54 455.307 60.1C455.307 63.46 455.54 66.6333 456.007 69.62C456.474 72.6067 457.267 75.22 458.387 77.46C459.507 79.7 461 81.4733 462.867 82.78C464.734 83.9933 467.067 84.6 469.867 84.6C472.2 84.6 474.16 84.1333 475.747 83.2C477.427 82.1733 478.78 80.9133 479.807 79.42C480.927 77.9267 481.72 76.2933 482.187 74.52C482.747 72.6533 483.027 70.88 483.027 69.2C483.027 64.44 481.814 60.8 479.387 58.28C477.054 55.6667 473.087 54.36 467.487 54.36ZM470.147 38.12C476.214 38.12 481.347 38.96 485.547 40.64C489.84 42.2267 493.34 44.42 496.047 47.22C498.754 50.02 500.714 53.2867 501.927 57.02C503.14 60.7533 503.747 64.72 503.747 68.92C503.747 72.6533 503.047 76.48 501.647 80.4C500.34 84.32 498.287 87.8667 495.487 91.04C492.78 94.2133 489.28 96.8267 484.987 98.88C480.787 100.933 475.794 101.96 470.007 101.96C458.34 101.96 449.474 98.2733 443.407 90.9C437.34 83.5267 434.307 73.3533 434.307 60.38C434.307 51.0467 435.754 42.7867 438.647 35.6C441.54 28.4133 445.647 22.3933 450.967 17.54C456.38 12.5933 462.867 8.86 470.427 6.34C478.08 3.72666 486.667 2.37333 496.187 2.28C496.374 5.17333 496.56 8.01999 496.747 10.82C496.934 13.5267 497.12 16.3733 497.307 19.36C492.547 19.4533 488.067 19.92 483.867 20.76C479.76 21.5067 475.98 22.72 472.527 24.4C469.167 26.08 466.227 28.2733 463.707 30.98C461.187 33.5933 459.227 36.8133 457.827 40.64C459.88 39.7067 461.98 39.0533 464.127 38.68C466.274 38.3067 468.28 38.12 470.147 38.12Z" fill="white" fill-opacity="0.8"/>
</svg>
