<svg width="75" height="75" viewBox="0 0 75 75" fill="none" xmlns="http://www.w3.org/2000/svg">
<path d="M14.6758 48.9141H1.62891C0.730469 48.9141 0 49.6406 0 50.543L0 73.3711C0 74.2695 0.730469 75 1.62891 75H14.6758C15.5742 75 16.3047 74.2695 16.3047 73.3711V50.543C16.3047 49.6406 15.5742 48.9141 14.6758 48.9141ZM13.043 71.7383H3.26172V52.1758H13.043V71.7383Z" fill="#434334"/>
<path d="M34.2383 42.3906H21.1953C20.2969 42.3906 19.5664 43.1211 19.5664 44.0234V73.3711C19.5664 74.2695 20.2969 75 21.1953 75H34.2383C35.1406 75 35.8711 74.2695 35.8711 73.3711V44.0234C35.8711 43.1211 35.1406 42.3906 34.2383 42.3906ZM32.6094 71.7383H22.8242V45.6523H32.6094V71.7383Z" fill="#434334"/>
<path d="M53.8047 32.6094H40.7617C39.8594 32.6094 39.1289 33.3398 39.1289 34.2383V73.3711C39.1289 74.2695 39.8594 75 40.7617 75H53.8047C54.707 75 55.4336 74.2695 55.4336 73.3711V34.2383C55.4336 33.3398 54.707 32.6094 53.8047 32.6094ZM52.1758 71.7383H42.3906V35.8711H52.1758V71.7383Z" fill="#434334"/>
<path d="M73.3711 19.5664H60.3242C59.4258 19.5664 58.6953 20.2969 58.6953 21.1953V73.3711C58.6953 74.2695 59.4258 75 60.3242 75H73.3711C74.2695 75 75 74.2695 75 73.3711V21.1953C75 20.2969 74.2695 19.5664 73.3711 19.5664ZM71.7383 71.7383H61.957V22.8242H71.7383V71.7383Z" fill="#434334"/>
<path d="M63.1445 13.043C64.0469 13.043 64.7773 12.3125 64.7773 11.4141V1.62891C64.7773 1.59766 64.7578 1.57031 64.7578 1.53906C64.75 1.42188 64.7188 1.31641 64.6875 1.20703C64.6602 1.10938 64.6406 1.01172 64.5977 0.921875C64.5547 0.835938 64.4922 0.761719 64.4336 0.679688C64.3633 0.585938 64.2969 0.496094 64.2109 0.421875C64.1836 0.398438 64.1758 0.367188 64.1484 0.347656C64.0938 0.304688 64.0273 0.292969 63.9727 0.257812C63.8711 0.199219 63.7812 0.144531 63.668 0.109375C63.5625 0.0703125 63.4531 0.0546875 63.3438 0.0429688C63.2773 0.03125 63.2148 0 63.1445 0L53.8047 0C52.9023 0 52.1758 0.730469 52.1758 1.62891C52.1758 2.53125 52.9023 3.26172 53.8047 3.26172H59.6602C49.6055 14.7031 27.3555 32.6094 1.62891 32.6094C0.730469 32.6094 0 33.3398 0 34.2383C0 35.1406 0.730469 35.8711 1.62891 35.8711C27.9883 35.8711 50.7773 17.9883 61.5156 6.08203V11.4141C61.5156 12.3125 62.2422 13.043 63.1445 13.043Z" fill="#434334"/>
</svg>
