<svg width="75" height="75" viewBox="0 0 75 75" fill="none" xmlns="http://www.w3.org/2000/svg">
<path d="M67.3555 8.99609C63.5664 8.03516 58.5547 7.50781 53.2422 7.50781C47.9336 7.50781 42.9219 8.03516 39.1289 8.99609C34.4688 10.1797 32.2031 11.8398 32.2031 14.0781V26.0977C28.9805 25.6094 25.2188 25.3477 21.2969 25.3477C15.9961 25.3477 11 25.8242 7.21875 26.6914C2.53125 27.7656 0.253906 29.3242 0.253906 31.4492V38.2656C0.253906 40.2695 2.27734 41.7695 6.4375 42.8359V49.2031C6.4375 49.457 6.47266 49.7031 6.53516 49.9414C2.16406 51.0117 0.0351562 52.5352 0.0351562 54.5898V61.4062C0.0351562 63.5352 2.3125 65.0898 7 66.168C10.7773 67.0312 15.7773 67.5117 21.0781 67.5117C26.375 67.5117 31.375 67.0312 35.1523 66.168C39.8398 65.0898 42.1172 63.5352 42.1172 61.4062V56.5117C45.3906 57.0742 49.2305 57.375 53.2422 57.375C58.5547 57.375 63.5664 56.8477 67.3555 55.8867C72.0195 54.707 74.2852 53.043 74.2852 50.8047V14.0781C74.2852 11.8398 72.0195 10.1797 67.3555 8.99609ZM40.7109 12.0313C44.1445 11.2539 48.5977 10.8242 53.2422 10.8242C57.8906 10.8242 62.3438 11.2539 65.7773 12.0313C69.4688 12.8633 70.5938 13.7617 70.8867 14.0781C70.5938 14.3945 69.4688 15.2891 65.7773 16.125C62.3438 16.9023 57.8906 17.332 53.2422 17.332C48.5977 17.332 44.1445 16.9023 40.7109 16.125C37.0195 15.2891 35.8945 14.3945 35.5977 14.0781C35.8945 13.7617 37.0195 12.8633 40.7109 12.0313ZM8.90234 29.7227C12.3242 29.0391 16.7227 28.6641 21.2969 28.6641C25.8672 28.6641 30.2656 29.0391 33.6875 29.7227C36.7812 30.3398 38.25 31.0469 38.8086 31.4492C38.25 31.8555 36.7812 32.5586 33.6875 33.1758C30.2656 33.8594 25.8672 34.2344 21.2969 34.2344C16.7227 34.2344 12.3242 33.8594 8.90234 33.1758C5.8125 32.5586 4.34375 31.8555 3.78125 31.4492C4.34375 31.0469 5.8125 30.3398 8.90234 29.7227ZM3.57812 38.0898V35.0781C4.56641 35.5039 5.77734 35.8789 7.21875 36.207C11 37.0742 15.9961 37.5547 21.2969 37.5547C26.5938 37.5547 31.5938 37.0742 35.3711 36.207C36.8125 35.8789 38.0234 35.5039 39.0117 35.0781V38.0898C38.6875 38.4336 37.293 39.2734 33.6875 39.9922C30.2656 40.6758 25.8672 41.0508 21.2969 41.0508C16.7227 41.0508 12.3242 40.6758 8.90234 39.9922C5.30078 39.2734 3.90234 38.4336 3.57812 38.0898ZM44.9922 42.3867C44.4336 42.7891 42.9648 43.4961 39.8711 44.1133C36.4531 44.793 32.0508 45.1719 27.4805 45.1719C23.0117 45.1719 18.7109 44.8125 15.3242 44.1562C15.3164 44.1562 15.3047 44.1562 15.293 44.1562C17.2148 44.293 19.2305 44.3672 21.2969 44.3672C26.5938 44.3672 31.5938 43.8906 35.3711 43.0234C37.8828 42.4492 39.7031 41.7344 40.8516 40.8672C40.8516 40.8672 40.8516 40.8672 40.8477 40.8672C43.2812 41.4297 44.4961 42.0273 44.9922 42.3867ZM8.68359 52.8633C8.94922 52.8125 9.22266 52.7617 9.49609 52.7109C10.5312 53.1836 11.832 53.6016 13.4023 53.9609C17.1836 54.8281 22.1797 55.3047 27.4805 55.3047C31.4531 55.3047 35.2578 55.0352 38.5078 54.5352C38.5352 54.5547 38.5625 54.5742 38.5898 54.5898C38.0273 54.9961 36.5625 55.6992 33.4688 56.3164C30.0469 57 25.6484 57.375 21.0781 57.375C16.5039 57.375 12.1055 57 8.68359 56.3164C5.58984 55.6992 4.125 54.9961 3.5625 54.5898C4.125 54.1875 5.59375 53.4805 8.68359 52.8633ZM38.793 61.2344C38.4688 61.5742 37.0742 62.4141 33.4688 63.1328C30.0469 63.8164 25.6484 64.1914 21.0781 64.1914C16.5039 64.1914 12.1055 63.8164 8.68359 63.1328C5.08203 62.4141 3.68359 61.5742 3.35938 61.2344V58.2188C4.34766 58.6445 5.55859 59.0195 7 59.3516C10.7773 60.2188 15.7773 60.6953 21.0781 60.6953C26.375 60.6953 31.375 60.2188 35.1523 59.3516C36.5938 59.0195 37.8047 58.6445 38.793 58.2188V61.2344ZM39.8711 50.9297C36.4531 51.6094 32.0508 51.9883 27.4805 51.9883C22.9102 51.9883 18.5078 51.6094 15.0898 50.9297C11.4844 50.207 10.0859 49.3711 9.76172 49.0273V46.0156C10.75 46.4375 11.9609 46.8125 13.4023 47.1445C17.1836 48.0117 22.1797 48.4883 27.4805 48.4883C32.7773 48.4883 37.7773 48.0117 41.5547 47.1445C42.9961 46.8125 44.207 46.4375 45.1992 46.0156V49.0273C44.875 49.3711 43.4766 50.207 39.8711 50.9297ZM70.9609 50.7188C70.8242 50.9062 69.9102 51.918 65.7773 52.8516C62.3438 53.6328 57.8906 54.0586 53.2461 54.0586C49.832 54.0586 46.5273 53.8281 43.6523 53.3984C46.5078 52.4961 48.0859 51.3281 48.4414 49.8594C49.9961 49.957 51.6055 50.0078 53.2461 50.0078C58.5547 50.0078 63.5664 49.4805 67.3555 48.5195C68.7812 48.1562 69.9805 47.7539 70.9609 47.2969V50.7188ZM70.9609 43.2734V43.3516C70.8242 43.5391 69.9102 44.5508 65.7773 45.4844C62.3438 46.2617 57.8906 46.6914 53.2461 46.6914C51.6328 46.6914 50.0508 46.6406 48.5234 46.5391V42.4961C50.0508 42.5898 51.6328 42.6406 53.2461 42.6406C58.5547 42.6406 63.5664 42.1133 67.3555 41.1523C68.7812 40.7891 69.9805 40.3828 70.9609 39.9297V43.2734ZM70.9609 35.9062V35.9844C70.8242 36.168 69.9102 37.1836 65.7773 38.1172C62.3438 38.8945 57.8906 39.3242 53.2461 39.3242C50.5547 39.3242 47.9336 39.1797 45.5352 38.9062C44.6641 38.5039 43.5977 38.1406 42.3359 37.8164V34.8867C45.5625 35.4258 49.3203 35.7148 53.2461 35.7148C58.5547 35.7148 63.5664 35.1875 67.3555 34.2266C68.7812 33.8633 69.9805 33.457 70.9609 33.0039V35.9062ZM70.9609 28.5352V29.0586C70.8242 29.2422 69.9102 30.2578 65.7773 31.1914C62.3438 31.9688 57.8906 32.3984 53.2461 32.3984C49.3008 32.3984 45.5 32.0859 42.3359 31.5195V31.4492C42.3359 29.3477 40.1094 27.8008 35.5273 26.7266V25.4727C36.5078 25.9258 37.707 26.332 39.1328 26.6914C42.9219 27.6523 47.9336 28.1797 53.2461 28.1797C58.5547 28.1797 63.5664 27.6523 67.3555 26.6914C68.7812 26.332 69.9805 25.9258 70.9609 25.4727V28.5352ZM70.9609 21.5234C70.8242 21.7109 69.9102 22.7227 65.7773 23.6602C62.3438 24.4375 57.8906 24.8633 53.2461 24.8633C48.5977 24.8633 44.1445 24.4375 40.7109 23.6602C36.5781 22.7227 35.6641 21.7109 35.5273 21.5234V17.9375C36.5078 18.3906 37.707 18.7969 39.1328 19.1602C42.9219 20.1172 47.9336 20.6484 53.2461 20.6484C58.5547 20.6484 63.5664 20.1172 67.3555 19.1602C68.7812 18.7969 69.9805 18.3906 70.9609 17.9375V21.5234Z" fill="#434343"/>
</svg>
