<svg width="89" height="63" viewBox="0 0 89 63" fill="none" xmlns="http://www.w3.org/2000/svg">
<path d="M85.2095 54.2919H83.4253V6.57271C83.4253 2.94894 80.481 0.00462186 76.8572 0H76.8526H11.7726C11.768 0 11.768 0 11.7634 0C8.13962 0.00462186 5.19993 2.95356 5.19993 6.57271C5.19993 6.57733 5.19993 6.57733 5.19993 6.57733V54.2919H3.41577C1.53456 54.2919 0 55.8218 0 57.7076V59.5842C0 61.4701 1.53456 63 3.41577 63H85.2095C87.0907 63 88.6252 61.4701 88.6252 59.5842V57.7076C88.6252 55.8218 87.0907 54.2919 85.2095 54.2919ZM11.7726 1.83962C11.7773 1.83962 11.7773 1.83962 11.7819 1.83962H76.848C76.848 1.83962 76.848 1.83962 76.8526 1.83962C79.4595 1.83962 81.5857 3.96581 81.5857 6.57271V54.2919H55.0545C54.9898 54.2919 54.9297 54.2965 54.8696 54.3103C54.8419 54.315 54.8234 54.3242 54.8003 54.3288C54.7633 54.3381 54.731 54.3473 54.6986 54.3612C54.6662 54.3751 54.6385 54.3935 54.6062 54.4074C54.583 54.4213 54.5599 54.4305 54.5368 54.4444C54.486 54.4767 54.4398 54.5183 54.3982 54.5599L51.2366 57.7215H37.3932L34.2271 54.5599C34.204 54.5368 34.1809 54.5183 34.1531 54.4999C34.1346 54.4814 34.1115 54.4629 34.0884 54.4444C34.056 54.4259 34.0191 54.4074 33.9821 54.3889C33.9636 54.3797 33.9497 54.3704 33.9313 54.3612C33.8897 54.3427 33.8434 54.3335 33.8018 54.3196C33.788 54.3196 33.7741 54.3103 33.7602 54.3103C33.6955 54.2965 33.6354 54.2919 33.5707 54.2919H7.03954V6.57271C7.03954 6.57271 7.03954 6.57271 7.03954 6.56809C7.04417 3.96119 9.16574 1.83962 11.7726 1.83962ZM86.781 59.5842C86.781 60.4532 86.0738 61.1604 85.2095 61.1604H3.41577C2.54681 61.1604 1.84424 60.4532 1.84424 59.5842V57.7076C1.84424 56.8387 2.54681 56.1315 3.41577 56.1315H33.1963L36.3579 59.2977C36.3995 59.3393 36.4503 59.3762 36.5012 59.4132C36.5197 59.4271 36.5474 59.4363 36.5705 59.4502C36.5982 59.4641 36.626 59.4825 36.6583 59.4964C36.6861 59.5103 36.7184 59.5149 36.7508 59.5241C36.7785 59.5334 36.8016 59.5426 36.8293 59.5473C36.8894 59.5611 36.9495 59.5657 37.0096 59.5657H51.6156C51.6757 59.5657 51.7358 59.5611 51.7959 59.5473C51.8236 59.5426 51.8514 59.5334 51.8745 59.5241C51.9068 59.5149 51.9392 59.5103 51.9669 59.4964C51.9993 59.4825 52.027 59.4641 52.0547 59.4502C52.0825 59.4363 52.1056 59.4271 52.1287 59.4132C52.1749 59.3762 52.2257 59.3393 52.2673 59.2977L55.4289 56.1315H85.2095C86.0738 56.1315 86.781 56.8387 86.781 57.7076V59.5842Z" fill="black"/>
<path d="M11.9529 50.4834H76.6723C77.1808 50.4834 77.5967 50.072 77.5967 49.5636V6.57287C77.5967 6.06443 77.1808 5.64844 76.6723 5.64844H11.9529C11.4444 5.64844 11.0284 6.06443 11.0284 6.57287V49.5636C11.0284 50.072 11.4444 50.4834 11.9529 50.4834ZM12.8727 7.49268H75.7525V48.6391H12.8727V7.49268Z" fill="black"/>
<path d="M44.8349 28.8784H31.7403V15.7792C31.7403 15.2707 31.329 14.8594 30.8205 14.8594C22.5838 14.8594 15.8817 21.5615 15.8817 29.7982C15.8817 38.0349 22.5838 44.737 30.8205 44.737C39.0572 44.737 45.7593 38.0349 45.7593 29.7982C45.7593 29.2897 45.3433 28.8784 44.8349 28.8784ZM30.8205 42.8928C23.6007 42.8928 17.726 37.018 17.726 29.7982C17.726 22.8881 23.1061 17.2074 29.9007 16.736V29.7982C29.9007 30.3066 30.3121 30.718 30.8205 30.718H43.8827C43.4067 37.5126 37.7306 42.8928 30.8205 42.8928Z" fill="black"/>
<path d="M33.8018 11.8789C33.2934 11.8789 32.882 12.2903 32.882 12.7987V26.8177C32.882 27.3262 33.2934 27.7375 33.8018 27.7375H47.8162C48.3293 27.7375 48.7406 27.3262 48.7406 26.8177C48.7406 22.8242 47.1876 19.0756 44.3635 16.2515C41.5439 13.432 37.7907 11.8789 33.8018 11.8789ZM34.7216 25.8933V13.7509C37.8739 13.9681 40.809 15.2993 43.06 17.5549C45.3156 19.8105 46.6468 22.7456 46.864 25.8933H34.7216Z" fill="black"/>
<path d="M52.2488 17.0877H61.1373C61.6457 17.0877 62.0571 16.6763 62.0571 16.1679C62.0571 15.6594 61.6457 15.248 61.1373 15.248H52.2488C51.7404 15.248 51.329 15.6594 51.329 16.1679C51.329 16.6763 51.7404 17.0877 52.2488 17.0877Z" fill="black"/>
<path d="M52.2488 21.2674H72.4662C72.9746 21.2674 73.386 20.856 73.386 20.3475C73.386 19.8391 72.9746 19.4277 72.4662 19.4277H52.2488C51.7404 19.4277 51.329 19.8391 51.329 20.3475C51.329 20.856 51.7404 21.2674 52.2488 21.2674Z" fill="black"/>
<path d="M52.2488 25.4458H72.4662C72.9746 25.4458 73.386 25.0344 73.386 24.526C73.386 24.0176 72.9746 23.6016 72.4662 23.6016H52.2488C51.7404 23.6016 51.329 24.0176 51.329 24.526C51.329 25.0344 51.7404 25.4458 52.2488 25.4458Z" fill="black"/>
<path d="M52.2488 29.8267H72.4662C72.9746 29.8267 73.386 29.4153 73.386 28.9069C73.386 28.3984 72.9746 27.9824 72.4662 27.9824H52.2488C51.7404 27.9824 51.329 28.3984 51.329 28.9069C51.329 29.4153 51.7404 29.8267 52.2488 29.8267Z" fill="black"/>
<path d="M68.8979 35.752H55.8218C53.3443 35.752 51.329 37.7672 51.329 40.2447C51.329 42.7222 53.3443 44.7374 55.8218 44.7374H68.8979C71.3753 44.7374 73.386 42.7222 73.386 40.2447C73.386 37.7672 71.3753 35.752 68.8979 35.752ZM68.8979 42.8932H55.8218C54.3566 42.8932 53.1687 41.7053 53.1687 40.2447C53.1687 38.7841 54.3566 37.5962 55.8218 37.5962H68.8979C70.3585 37.5962 71.5464 38.7841 71.5464 40.2447C71.5464 41.7053 70.3585 42.8932 68.8979 42.8932Z" fill="black"/>
</svg>
