<svg width="75" height="75" viewBox="0 0 75 75" fill="none" xmlns="http://www.w3.org/2000/svg">
<path d="M39.2944 74.8815C39.146 74.8815 38.9975 74.8542 38.8569 74.7917C38.4311 74.6159 38.1577 74.1979 38.1577 73.7331L38.3882 54.8854C38.396 54.2565 38.9038 53.7526 39.5327 53.7604C40.1616 53.7682 40.6655 54.2838 40.6577 54.9088L40.4663 70.9713L54.1264 57.3112C54.2553 57.1471 58.8921 51.319 55.4467 40.9792C55.2475 40.3854 55.5717 39.7448 56.1616 39.5456C56.7632 39.3503 57.3999 39.6706 57.5952 40.2604C61.4624 51.8581 56.0366 58.5573 55.8022 58.8385L40.0991 74.5495C39.8803 74.7682 39.5913 74.8815 39.2944 74.8815Z" fill="#434343"/>
<path d="M21.4702 35.2379L39.6499 53.4176C40.9311 52.4176 44.7983 49.277 55.7788 39.7653C69.1225 28.2028 71.9741 7.71448 72.5053 2.37855C67.1655 2.9098 46.6694 5.77308 35.1186 19.1012C25.6889 29.984 22.521 33.8825 21.4702 35.2379ZM39.5249 56.0309C39.228 56.0309 38.9389 55.9176 38.7202 55.6989L19.185 36.1598C18.8491 35.8278 18.7593 35.3239 18.9507 34.8981C19.3022 34.1129 24.7046 27.6559 33.4038 17.6168C47.3374 1.5387 72.6186 0.0582344 73.685 0.00354636C74.0405 -0.0237974 74.3218 0.109015 74.5483 0.331671C74.7749 0.56214 74.896 0.87464 74.8803 1.19495C74.8257 2.26136 73.3452 27.5426 57.2632 41.4801C47.228 50.1793 40.771 55.5778 39.9897 55.9293C39.8413 55.9996 39.6811 56.0309 39.5249 56.0309Z" fill="#434343"/>
<path d="M28.5014 60.3787C28.2085 60.3787 27.9155 60.2654 27.7007 60.0506L14.8335 47.1834C14.5132 46.8631 14.4155 46.3826 14.5796 45.9646L18.31 36.5115L1.14598 36.7224C0.622542 36.6873 0.267072 36.4529 0.0873845 36.0271C-0.0883963 35.6014 0.00535369 35.1131 0.329572 34.7849L15.9663 19.1482C16.3218 18.8474 23.021 13.4178 34.6186 17.2849C35.2163 17.4842 35.5327 18.1248 35.3374 18.7185C35.1382 19.3162 34.4975 19.6287 33.8999 19.4373C23.5679 15.992 17.7358 20.6287 17.4936 20.824L3.90379 34.4178L19.9741 34.2224C20.4038 34.2654 20.7046 34.406 20.9194 34.7146C21.1343 35.0271 21.1811 35.4256 21.0405 35.7771L16.9624 46.1053L28.7788 57.9178L39.1069 53.8435C39.6889 53.6092 40.3491 53.8982 40.5796 54.4803C40.81 55.0623 40.521 55.7224 39.9429 55.949L28.9194 60.3006C28.7827 60.3553 28.6421 60.3787 28.5014 60.3787Z" fill="#434343"/>
<path d="M3.89597 60.9248C3.6069 60.9248 3.31393 60.8154 3.09518 60.5928C2.65378 60.1475 2.65378 59.4287 3.09518 58.9873L9.50143 52.5811C9.94284 52.1396 10.6616 52.1396 11.103 52.5811C11.5483 53.0264 11.5483 53.7412 11.103 54.1865L4.70065 60.5928C4.478 60.8154 4.18893 60.9248 3.89597 60.9248Z" fill="#434343"/>
<path d="M3.853 72.1641C3.56003 72.1641 3.27097 72.0547 3.04831 71.832C2.6069 71.3867 2.6069 70.6719 3.04831 70.2266L15.0991 58.1797C15.5405 57.7344 16.2632 57.7344 16.7007 58.1797C17.146 58.625 17.146 59.3398 16.7007 59.7852L4.65378 71.832C4.43112 72.0547 4.14206 72.1641 3.853 72.1641Z" fill="#434343"/>
<path d="M15.0913 72.1211C14.8022 72.1211 14.5092 72.0117 14.2866 71.7891C13.8491 71.3438 13.8491 70.6289 14.2866 70.1836L20.6967 63.7773C21.1382 63.332 21.8569 63.332 22.2983 63.7773C22.7436 64.2227 22.7436 64.9375 22.2983 65.3789L15.896 71.7891C15.6733 72.0117 15.3803 72.1211 15.0913 72.1211Z" fill="#434343"/>
<path d="M70.4702 18.9212H70.4663C56.1811 18.8665 55.9624 4.56185 55.9624 4.41732C55.9585 3.79232 56.4624 3.28451 57.0913 3.2806C57.6577 3.24935 58.228 3.78451 58.2319 4.4056C58.2358 4.9056 58.4585 16.6087 70.4741 16.6517C71.0991 16.6556 71.6069 17.1634 71.6069 17.7923C71.603 18.4173 71.0952 18.9212 70.4702 18.9212Z" fill="#434343"/>
<path d="M48.6108 19.4766C46.7905 19.4766 45.0874 20.1836 43.8022 21.4648C42.521 22.75 41.81 24.457 41.81 26.2695C41.81 28.0898 42.521 29.7969 43.8022 31.0781C45.0874 32.3633 46.7905 33.0703 48.6108 33.0703C50.4272 33.0703 52.1303 32.3633 53.4155 31.0781C54.7007 29.7969 55.4077 28.0898 55.4077 26.2695C55.4077 24.457 54.7007 22.75 53.4155 21.4648C52.1303 20.1836 50.4272 19.4766 48.6108 19.4766ZM48.6108 35.3398C46.1889 35.3398 43.9116 34.3945 42.2007 32.6836C40.4858 30.9688 39.5405 28.6953 39.5405 26.2695C39.5405 23.8516 40.4858 21.5742 42.2007 19.8633C43.9116 18.1484 46.1889 17.207 48.6108 17.207C51.0327 17.207 53.3061 18.1484 55.021 19.8633C56.7319 21.5742 57.6772 23.8516 57.6772 26.2695C57.6772 28.6953 56.7319 30.9688 55.021 32.6836C53.3061 34.3945 51.0327 35.3398 48.6108 35.3398Z" fill="#434343"/>
</svg>
