<svg width="223" height="223" viewBox="0 0 223 223" fill="none" xmlns="http://www.w3.org/2000/svg">
<path d="M102.434 216.939C115.56 215.12 171.084 214.206 194.754 168.996C217.596 125.364 215.943 52.5754 173.964 26.4852C131.35 8.2016e-05 6.02511 26.0439 7.475 86.9449C7.75956 98.8809 27.8818 110.352 29.9221 126.574C33.149 152.221 5.22371 163.636 7.84667 182.721C10.8723 204.744 58.6856 223.002 102.434 216.939Z" fill="white"/>
<path d="M172.246 70.0259C166.048 71.7255 159.644 68.0727 157.947 61.8667C156.249 55.6587 159.898 49.2513 166.098 47.5517C172.3 45.8521 178.702 49.5068 180.4 55.7129C182.097 61.9189 178.448 68.3263 172.246 70.0259ZM192.332 54.7876L191.137 50.4244L186.203 50.647C185.746 49.6868 185.218 48.7751 184.618 47.9234L187.231 43.7363L184.016 40.552L179.854 43.2175C178.988 42.6213 178.073 42.1006 177.12 41.6554L177.291 36.7153L172.918 35.5674L170.647 39.9519C169.61 39.8706 168.557 39.8783 167.496 39.9732L165.177 35.61L160.816 36.8043L161.04 41.7444C160.08 42.2012 159.168 42.7316 158.316 43.3298L154.133 40.7146L150.951 43.9338L153.615 48.0976C153.02 48.9667 152.5 49.8804 152.054 50.8348L147.118 50.6644L145.972 55.0431L150.353 57.3138C150.27 58.3533 150.279 59.4063 150.374 60.4671L146.015 62.79L147.209 67.1552L152.141 66.9306C152.6 67.8908 153.131 68.8025 153.729 69.6562L151.115 73.8432L154.331 77.0256L158.493 74.362C159.36 74.9563 160.274 75.479 161.226 75.9223L161.056 80.8643L165.43 82.0102L167.701 77.6277C168.737 77.709 169.792 77.6993 170.849 77.6044L173.172 81.9676L177.531 80.7713L177.308 75.8351C178.268 75.3764 179.178 74.8479 180.03 74.2478L184.213 76.863L187.394 73.6458L184.734 69.48C185.326 68.6128 185.847 67.6972 186.29 66.7429L191.228 66.9132L192.374 62.5364L187.996 60.2639C188.077 59.2263 188.067 58.1713 187.972 57.1105L192.332 54.7876Z" fill="#FFDF60"/>
<path d="M201.534 154.028L83.8999 137.653C80.9459 137.278 78.7333 134.761 78.7333 131.782L77.1189 49.6593C77.1189 49.6593 79.7999 47.7235 81.3214 46.9821C82.0938 46.6046 82.9843 46.4401 83.9115 46.5582L201.196 61.5274C204.15 61.9049 206.364 64.4214 206.364 67.4005V148.06C206.364 149.504 205.704 150.776 204.684 151.616C203.745 152.388 201.534 154.028 201.534 154.028Z" fill="#5479F7"/>
<path d="M197.945 155.12L80.6594 140.148C77.7074 139.771 75.4929 137.254 75.4929 134.275V53.6158C75.4929 50.8419 77.9242 48.7009 80.671 49.0513L197.957 64.0206C200.909 64.398 203.124 66.9145 203.124 69.8937V150.555C203.124 153.327 200.692 155.47 197.945 155.12Z" fill="#99B9FF"/>
<path d="M203.046 146.286C202.843 146.286 202.678 146.121 202.678 145.92L202.756 69.8945C202.756 67.1089 200.673 64.7395 197.909 64.3853L185.979 62.6199C185.777 62.5909 185.64 62.405 185.669 62.2037C185.698 62.0043 185.882 61.8649 186.083 61.8959L198.009 63.6613C201.13 64.0582 203.489 66.7392 203.489 69.8945L203.412 145.92C203.412 146.121 203.247 146.286 203.046 146.286Z" fill="black"/>
<path d="M195.452 151.795L83.4643 137.501C81.3156 137.226 79.7051 135.397 79.7051 133.229V55.4246C79.7051 53.574 81.3292 52.1415 83.1643 52.3757L195.154 66.6713C197.303 66.9443 198.911 68.7755 198.911 70.9416V148.746C198.911 150.598 197.289 152.029 195.452 151.795Z" fill="white"/>
<path d="M129.522 202.624L8.89676 187.053C7.95404 186.933 7.42171 186.141 7.43332 185.349C7.44107 184.805 7.48559 180.963 7.48559 180.963L71.2651 144.468C74.4611 142.642 78.5959 141.936 82.2467 142.404L201.347 157.782C202.063 157.875 202.678 158.339 202.961 159.003L203.153 159.454C203.153 159.454 203.052 162.658 203.091 163.407C203.126 163.994 202.862 164.596 202.249 164.946L140.07 200.529C136.874 202.355 133.171 203.09 129.522 202.624Z" fill="#5479F7"/>
<path d="M23.7344 184.667L9.32847 182.805C7.7334 182.602 7.31334 180.484 8.71096 179.685L70.5567 144.332C73.7526 142.505 77.4557 141.771 81.1047 142.237L201.296 157.778C202.893 157.983 203.313 160.101 201.916 160.898L140.07 196.253C136.876 198.078 133.171 198.814 129.522 198.346L23.7344 184.667Z" fill="white"/>
<path d="M153.051 178.723L48.8316 165.15C47.3894 164.964 47.012 163.051 48.2721 162.331L72.7789 148.463C75.6651 146.814 79.0082 146.15 82.3048 146.572L186.528 160.146C187.97 160.329 188.348 162.244 187.088 162.966L162.581 176.832C159.695 178.481 156.35 179.145 153.051 178.723Z" fill="#FFEFAF"/>
<path d="M131.646 198.849C130.92 198.849 130.196 198.803 129.474 198.71L70.6147 191.155C70.4154 191.129 70.2721 190.946 70.2992 190.744C70.3244 190.545 70.5063 190.402 70.7077 190.429L129.568 197.984C133.117 198.439 136.781 197.711 139.888 195.934L201.734 160.581C202.338 160.237 202.458 159.636 202.369 159.187C202.28 158.74 201.939 158.231 201.25 158.142L81.0562 142.602C77.5099 142.147 73.8436 142.875 70.7367 144.65L62.0722 149.605C61.8961 149.706 61.6734 149.644 61.5728 149.468C61.4721 149.292 61.5321 149.069 61.7083 148.968L70.3728 144.015C73.6171 142.16 77.446 141.4 81.1511 141.876L201.345 157.416C202.229 157.528 202.915 158.169 203.087 159.046C203.261 159.921 202.872 160.775 202.098 161.218L140.252 196.571C137.639 198.065 134.646 198.849 131.646 198.849Z" fill="black"/>
<path d="M198.815 75.8643V70.9436C198.815 68.7756 197.252 66.9463 195.104 66.6714L83.1333 52.3777C81.2982 52.1435 79.6935 53.574 79.6935 55.4246V60.9996L198.815 75.8643Z" fill="#CADDFF"/>
<path d="M87.5565 57.2247C87.4849 58.2584 86.6274 59.0385 85.6421 58.9708C84.6548 58.9011 83.9134 58.0087 83.9831 56.977C84.0547 55.9452 84.9142 55.1631 85.8995 55.2328C86.8868 55.3006 87.6282 56.193 87.5565 57.2247Z" fill="#99B9FF"/>
<path d="M92.9554 58.171C92.8838 59.2047 92.0262 59.9848 91.039 59.9151C90.0518 59.8474 89.3104 58.955 89.382 57.9232C89.4536 56.8915 90.3111 56.1094 91.2984 56.1791C92.2856 56.2469 93.027 57.1393 92.9554 58.171Z" fill="#99B9FF"/>
<path d="M98.3485 59.1991C98.2749 60.2309 97.4193 61.0129 96.4321 60.9432C95.4448 60.8755 94.7015 59.9831 94.775 58.9513C94.8467 57.9196 95.7042 57.1375 96.6895 57.2053C97.6768 57.2749 98.4181 58.1673 98.3485 59.1991Z" fill="#99B9FF"/>
<path d="M114.872 59.1662L182.908 67.5907C183.874 67.7087 184.596 68.4927 184.596 69.4199V70.0394C184.596 71.1525 183.569 72.0119 182.411 71.8648L114.367 63.2971C113.397 63.1771 112.675 62.3834 112.683 61.4523L112.689 60.9761C112.698 59.8708 113.72 59.023 114.872 59.1662Z" fill="#99B9FF"/>
<path d="M82.3242 131.574L82.4519 67.5911C82.4578 65.6805 84.1341 64.2074 86.0273 64.4513L192.007 78.079C193.108 78.2204 193.931 79.1573 193.929 80.2684L193.776 145.376C193.772 146.702 192.609 147.724 191.296 147.554L84.2445 133.79C83.1353 133.647 82.3087 132.695 82.3242 131.574Z" fill="#99B9FF"/>
<path d="M85.8666 95.7616L85.5666 70.4844C85.5589 69.8088 86.1493 69.2823 86.819 69.3675L121.043 73.8023C121.593 73.8739 122.007 74.3424 122.009 74.8979L122.16 100.024C122.164 100.694 121.578 101.217 120.912 101.133L86.8365 96.8514C86.2867 96.7817 85.8725 96.3172 85.8666 95.7616Z" fill="#CADDFF"/>
<path d="M124.919 100.763L124.63 75.8609C124.619 74.9259 125.438 74.1981 126.363 74.32L154.34 77.9844C155.111 78.087 155.684 78.749 155.674 79.5253L155.386 104.137C155.374 105.052 154.573 105.755 153.665 105.641L126.264 102.271C125.503 102.176 124.926 101.533 124.919 100.763Z" fill="#CADDFF"/>
<path d="M150.237 90.7837C150.027 96.8814 145.14 101.663 139.323 101.461C133.504 101.258 128.957 96.1535 129.168 90.0559C129.377 83.9563 134.265 79.1769 140.082 79.3782C145.902 79.5795 150.448 84.6861 150.237 90.7837Z" fill="#99B9FF"/>
<path d="M146.926 90.9144C146.783 95.1015 143.429 98.3826 139.433 98.2451C135.438 98.1058 132.317 94.602 132.46 90.415C132.606 86.2279 135.96 82.9468 139.956 83.0842C143.951 83.2236 147.072 86.7293 146.926 90.9144Z" fill="#FFDF60"/>
<path d="M158.605 78.9047L190.93 82.9079C191.391 82.964 191.737 83.3434 191.737 83.7925V87.5092C191.737 88.0512 191.24 88.4655 190.684 88.3919L158.359 84.0558C157.902 83.9939 157.562 83.6183 157.562 83.1731V79.7894C157.562 79.2512 158.051 78.837 158.605 78.9047Z" fill="#CADDFF"/>
<path d="M158.154 86.1799L190.862 90.6806C191.224 90.729 191.492 91.0271 191.492 91.3794V95.0109C191.492 95.4387 191.099 95.7697 190.659 95.7097L157.951 91.3213C157.589 91.2729 157.318 90.9748 157.318 90.6225V86.8787C157.318 86.449 157.714 86.1199 158.154 86.1799Z" fill="#CADDFF"/>
<path d="M158.154 92.9973L190.862 97.498C191.224 97.5464 191.492 97.8445 191.492 98.1968V101.828C191.492 102.256 191.099 102.587 190.659 102.527L157.951 98.1387C157.589 98.0903 157.318 97.7922 157.318 97.4399V93.6961C157.318 93.2664 157.714 92.9373 158.154 92.9973Z" fill="#CADDFF"/>
<path d="M158.274 100.535L190.771 105.009C191.186 105.065 191.492 105.406 191.492 105.806V109.235C191.492 109.724 191.043 110.102 190.539 110.034L158.04 105.675C157.625 105.619 157.318 105.278 157.318 104.875V101.337C157.318 100.843 157.769 100.468 158.274 100.535Z" fill="#CADDFF"/>
<path d="M86.5828 114.509L118.531 118.197C118.9 118.239 119.179 118.526 119.179 118.868L119.2 122.742C119.2 123.154 118.802 123.474 118.355 123.418L86.4047 119.41C86.0389 119.364 85.7659 119.079 85.764 118.741L85.7466 115.189C85.7447 114.778 86.1376 114.459 86.5828 114.509Z" fill="#CADDFF"/>
<path d="M87.0281 121.283L118.293 125.309C118.827 125.379 119.224 125.795 119.226 126.289L119.239 129.09C119.243 129.694 118.66 130.162 118.006 130.079L86.7436 126.159C86.2073 126.091 85.8086 125.673 85.8047 125.18L85.7912 122.274C85.7873 121.668 86.3738 121.2 87.0281 121.283Z" fill="#CADDFF"/>
<path d="M86.3622 127.928L118.415 132.057C118.755 132.1 119.007 132.365 119.009 132.681L119.026 136.209C119.028 136.593 118.658 136.891 118.24 136.839L86.188 132.82C85.8473 132.775 85.5918 132.51 85.5918 132.195L85.5743 128.559C85.5724 128.172 85.9441 127.874 86.3622 127.928Z" fill="#CADDFF"/>
<path d="M121.744 119.119L153.992 122.841C154.288 122.874 154.509 123.104 154.511 123.377L154.532 127.527C154.532 127.858 154.215 128.112 153.856 128.068L121.607 124.024C121.314 123.985 121.098 123.759 121.096 123.489L121.076 119.661C121.074 119.333 121.39 119.078 121.744 119.119Z" fill="#CADDFF"/>
<path d="M121.438 125.838L153.673 129.988C153.969 130.027 154.188 130.257 154.189 130.528L154.207 134.227C154.209 134.56 153.887 134.82 153.525 134.773L121.291 130.731C120.995 130.693 120.774 130.462 120.772 130.189L120.753 126.384C120.751 126.049 121.076 125.789 121.438 125.838Z" fill="#CADDFF"/>
<path d="M121.64 132.551L153.785 136.691C154.102 136.732 154.337 136.978 154.34 137.27L154.358 140.888C154.358 141.246 154.013 141.525 153.624 141.475L121.479 137.442C121.161 137.404 120.923 137.156 120.921 136.862L120.904 133.139C120.902 132.779 121.25 132.5 121.64 132.551Z" fill="#CADDFF"/>
<path d="M86.7358 99.6352L152.155 108.354C152.594 108.412 152.923 108.789 152.923 109.235V118.685C152.923 119.221 152.455 119.636 151.925 119.566L86.6777 111.12C86.2422 111.064 85.9131 110.696 85.9053 110.255L85.7331 100.53C85.7234 99.9875 86.1996 99.5617 86.7358 99.6352Z" fill="#CADDFF"/>
<path d="M158.535 108.961L190.499 113.33C191.066 113.407 191.484 113.899 191.47 114.47L191.275 123.336C191.261 124.002 190.673 124.511 190.011 124.425L158.405 120.428C157.852 120.358 157.432 119.892 157.422 119.334L157.261 110.095C157.248 109.406 157.852 108.868 158.535 108.961Z" fill="#CADDFF"/>
<path d="M157.087 140.401L157.3 123.927C157.31 123.234 157.92 122.7 158.609 122.785L189.982 126.653C190.566 126.727 191.006 127.222 191.006 127.811V144.51C191.006 145.213 190.386 145.757 189.691 145.666L158.103 141.572C157.515 141.496 157.081 140.993 157.087 140.401Z" fill="#CADDFF"/>
<path d="M144.664 59.122C144.849 67.1961 138.463 73.8899 130.399 74.0758C122.333 74.2636 115.644 67.8717 115.457 59.7995C115.271 51.7293 121.657 45.0335 129.721 44.8457C137.788 44.6599 144.476 51.0518 144.664 59.122Z" fill="white"/>
<path d="M130.068 45.2095C129.956 45.2095 129.843 45.2095 129.731 45.2134C125.929 45.3005 122.389 46.8665 119.76 49.6192C117.135 52.3738 115.735 55.9859 115.825 59.7916C115.912 63.5973 117.476 67.1417 120.226 69.7705C122.977 72.3993 126.587 73.7988 130.389 73.7098C134.191 73.6227 137.734 72.0566 140.36 69.304C142.985 66.5513 144.385 62.9372 144.296 59.1315C144.209 55.3258 142.645 51.7814 139.892 49.1546C137.224 46.6033 133.746 45.2095 130.068 45.2095ZM130.05 74.4473C126.183 74.4473 122.528 72.9819 119.719 70.3009C116.829 67.5366 115.184 63.8103 115.091 59.809C114.998 55.8059 116.469 52.0079 119.231 49.1139C121.992 46.218 125.714 44.5726 129.714 44.4797C133.711 44.3868 137.507 45.8599 140.401 48.6223C143.291 51.3865 144.935 55.1129 145.029 59.1141C145.122 63.1153 143.651 66.9152 140.889 69.8111C138.128 72.7051 134.406 74.3505 130.407 74.4434C130.289 74.4454 130.169 74.4473 130.05 74.4473Z" fill="black"/>
<path d="M143.256 59.1545C143.425 66.4484 137.654 72.4977 130.366 72.6661C123.08 72.8345 117.034 67.0601 116.866 59.7662C116.698 52.4722 122.468 46.423 129.756 46.2526C137.042 46.0842 143.088 51.8605 143.256 59.1545Z" fill="#FFEB9A"/>
<path d="M141.733 59.1919C141.882 65.6438 136.777 70.9942 130.329 71.1433C123.885 71.2923 118.537 66.1838 118.387 59.7319C118.238 53.28 123.345 47.9296 129.791 47.7805C136.237 47.6315 141.584 52.74 141.733 59.1919Z" fill="white"/>
<path d="M130.054 71.8822C126.849 71.8822 123.817 70.6666 121.491 68.4443C119.092 66.1543 117.729 63.0648 117.654 59.7469C117.497 52.9001 122.933 47.2012 129.774 47.0425C133.905 46.9457 137.795 48.9028 140.19 52.2787C140.306 52.4433 140.267 52.6736 140.101 52.7898C139.938 52.9079 139.708 52.8691 139.592 52.7027C137.339 49.5261 133.678 47.6852 129.791 47.7761C123.353 47.9233 118.236 53.2873 118.386 59.7314C118.459 62.8519 119.741 65.7594 121.998 67.9139C124.251 70.0703 127.211 71.2182 130.329 71.1466C136.769 70.9956 141.886 65.6336 141.737 59.1894C141.733 58.9881 141.892 58.8197 142.093 58.8158C142.298 58.8119 142.463 58.9707 142.468 59.1739C142.625 66.0207 137.19 71.7196 130.349 71.8783C130.25 71.8803 130.151 71.8822 130.054 71.8822Z" fill="black"/>
<path d="M129.319 66.4432L129.28 64.8229C128.136 64.7978 127.021 64.5171 126.367 64.157L126.831 62.1496C127.555 62.5232 128.57 62.8581 129.677 62.833C130.649 62.8117 131.305 62.4206 131.289 61.7373C131.276 61.0908 130.718 60.6939 129.448 60.2952C127.609 59.7241 126.345 58.8995 126.309 57.2444C126.274 55.7442 127.304 54.5421 129.119 54.1414L129.081 52.5211L130.751 52.4824L130.786 53.9826C131.928 54.0078 132.702 54.2285 133.27 54.4879L132.821 56.4275C132.373 56.2494 131.58 55.8758 130.352 55.9049C129.245 55.93 128.899 56.4159 128.91 56.894C128.922 57.4573 129.526 57.8 130.987 58.3149C133.033 58.9827 133.874 59.9022 133.908 61.4373C133.943 62.9568 132.9 64.279 130.949 64.6642L130.987 66.4044L129.319 66.4432Z" fill="#FFDF60"/>
<path d="M116.457 40.9688C116.694 51.1354 108.649 59.5695 98.4897 59.8057C88.3308 60.0419 79.9045 51.9891 79.6683 41.8205C79.4341 31.6539 87.4791 23.2198 97.638 22.9855C107.797 22.7494 116.223 30.8002 116.457 40.9688Z" fill="white"/>
<path d="M98.0736 23.3452C97.9323 23.3452 97.789 23.3471 97.6458 23.351C87.7056 23.5813 79.8058 31.8625 80.0342 41.8123C80.2626 51.6189 88.3057 59.4433 98.0581 59.4433C98.1994 59.4433 98.3388 59.4433 98.482 59.4375C103.296 59.3271 107.779 57.3449 111.107 53.8586C114.433 50.3723 116.204 45.7962 116.092 40.9761C115.981 36.156 114.001 31.6689 110.517 28.3394C107.135 25.1086 102.731 23.3452 98.0736 23.3452ZM98.0581 60.1769C87.9089 60.1769 79.5386 52.0351 79.3025 41.8278C79.0644 31.4754 87.2856 22.8573 97.6303 22.6173C102.642 22.5031 107.398 24.3459 111.022 27.811C114.65 31.274 116.707 35.9431 116.823 40.9606C116.94 45.9742 115.099 50.7362 111.636 54.3638C108.174 57.9934 103.507 60.055 98.4975 60.1711C98.3504 60.175 98.2033 60.1769 98.0581 60.1769Z" fill="black"/>
<path d="M114.684 41.0111C114.897 50.2001 107.628 57.8193 98.4472 58.0322C89.2678 58.2452 81.6525 50.9686 81.4415 41.7815C81.2285 32.5924 88.4973 24.9713 97.6787 24.7584C106.858 24.5474 114.471 31.822 114.684 41.0111Z" fill="#FFEB9A"/>
<path d="M112.766 41.0558C112.954 49.1822 106.523 55.9225 98.4027 56.1103C90.2841 56.3 83.5476 49.8636 83.3598 41.7353C83.1721 33.6089 89.6027 26.8686 97.7232 26.6808C105.844 26.4911 112.578 32.9276 112.766 41.0558Z" fill="white"/>
<path d="M98.0581 56.9479C89.6549 56.9479 82.7249 50.2076 82.5294 41.7561C82.4326 37.6019 83.958 33.6607 86.8249 30.6564C89.6898 27.6502 93.5536 25.9448 97.7038 25.848C102.867 25.7279 107.747 28.1786 110.743 32.4044C110.859 32.5689 110.821 32.7974 110.656 32.9135C110.492 33.0316 110.263 32.9929 110.147 32.8283C107.292 28.8019 102.652 26.4674 97.7213 26.5797C93.7665 26.6707 90.0847 28.2986 87.3533 31.1616C84.6239 34.0246 83.1701 37.7819 83.2611 41.7386C83.4469 49.7914 90.0518 56.2143 98.0581 56.2143C98.1742 56.2143 98.2884 56.2124 98.4046 56.2104C106.568 56.0207 113.054 49.2223 112.865 41.0534C112.861 40.8501 113.02 40.6817 113.221 40.6779C113.426 40.674 113.593 40.8327 113.598 41.036C113.796 49.6095 106.988 56.7447 98.422 56.9441C98.3001 56.946 98.18 56.9479 98.0581 56.9479Z" fill="black"/>
<path d="M97.127 50.188L97.0805 48.1477C95.6403 48.1167 94.2349 47.7625 93.4084 47.3076L93.9949 44.7795C94.9086 45.2537 96.1862 45.6738 97.5819 45.6409C98.8053 45.6138 99.6318 45.1221 99.6125 44.2607C99.5931 43.4457 98.8943 42.9444 97.2934 42.4449C94.9763 41.7229 93.3851 40.6853 93.3367 38.6024C93.2922 36.7112 94.5892 35.1974 96.8773 34.6922L96.8289 32.6519L98.935 32.6016L98.9776 34.4928C100.418 34.5238 101.391 34.8025 102.108 35.1297L101.541 37.5726C100.977 37.35 99.9783 36.8777 98.4317 36.9125C97.036 36.9454 96.5985 37.5591 96.614 38.1611C96.6295 38.8676 97.3922 39.3032 99.2331 39.9478C101.81 40.7918 102.867 41.9513 102.911 43.8851C102.956 45.7977 101.641 47.4605 99.1808 47.9483L99.2311 50.1396L97.127 50.188Z" fill="#FFDF60"/>
<path d="M78.9695 62.9144C79.3102 77.7036 67.6104 89.9686 52.8367 90.3093C38.061 90.6519 25.8076 78.9425 25.465 64.1552C25.1223 49.366 36.8221 37.101 51.5978 36.7603C66.3735 36.4176 78.6269 48.1271 78.9695 62.9144Z" fill="white"/>
<path d="M52.225 37.118C52.0178 37.118 51.8146 37.1199 51.6055 37.1257C37.0563 37.4625 25.494 49.5843 25.8308 64.1451C26.1676 78.7079 38.272 90.276 52.827 89.943C67.3762 89.6082 78.9404 77.4864 78.6036 62.9237C78.2707 48.57 66.4954 37.118 52.225 37.118ZM52.2075 90.6844C37.5402 90.6844 25.4398 78.9169 25.0991 64.1625C24.7526 49.1971 36.6362 36.7405 51.59 36.3921C66.5477 36.0475 78.9888 47.9408 79.3353 62.9062C79.6818 77.8736 67.7982 90.3302 52.8444 90.6767C52.6315 90.6806 52.4185 90.6844 52.2075 90.6844Z" fill="black"/>
<path d="M76.3911 62.9743C76.7008 76.3369 66.1277 87.4211 52.7767 87.7308C39.4257 88.0405 28.3512 77.4577 28.0415 64.0951C27.7337 50.7326 38.3069 39.6484 51.6578 39.3387C65.0088 39.0289 76.0833 49.6118 76.3911 62.9743Z" fill="#FFEB9A"/>
<path d="M73.5997 63.0391C73.8726 74.8589 64.521 84.6635 52.7109 84.9365C40.9027 85.2094 31.1077 75.85 30.8329 64.0302C30.5599 52.2104 39.9116 42.4058 51.7217 42.1329C63.5318 41.858 73.3267 51.2193 73.5997 63.0391Z" fill="white"/>
<path d="M52.2095 85.9862C40.08 85.9862 30.0721 76.2551 29.7914 64.052C29.652 58.0589 31.8549 52.3677 35.9916 48.0297C40.1303 43.6916 45.7072 41.2274 51.6984 41.088C59.1569 40.9158 66.1973 44.4543 70.5237 50.5539C70.6399 50.7185 70.6012 50.9469 70.4366 51.065C70.2721 51.1811 70.0437 51.1424 69.9256 50.9779C65.7405 45.0777 58.9363 41.6533 51.7139 41.8198C45.9202 41.9553 40.5252 44.3401 36.522 48.5349C32.5189 52.7317 30.3895 58.237 30.5231 64.0365C30.796 75.8389 40.4768 85.2525 52.2095 85.2544C52.3798 85.2544 52.5482 85.2506 52.7186 85.2467C58.5143 85.1131 63.9092 82.7283 67.9124 78.5315C71.9156 74.3367 74.0449 68.8314 73.9113 63.0319C73.9055 62.8286 74.0662 62.6621 74.2675 62.6563C74.4708 62.6544 74.6392 62.8112 74.643 63.0144C74.7824 69.0114 72.5795 74.7007 68.4428 79.0387C64.3041 83.3767 58.7253 85.841 52.736 85.9804C52.5598 85.9842 52.3837 85.9862 52.2095 85.9862Z" fill="black"/>
<path d="M50.8564 76.3243L50.7867 73.3549C48.6922 73.3103 46.65 72.7954 45.4479 72.1353L46.2996 68.4554C47.6276 69.1446 49.4859 69.7582 51.5165 69.7118C53.2955 69.6711 54.4976 68.9549 54.4686 67.7044C54.4415 66.5158 53.4252 65.7899 51.0965 65.062C47.7282 64.0148 45.4131 62.5049 45.3434 59.4716C45.2795 56.7208 47.1649 54.5199 50.4906 53.7862L50.4228 50.8168L53.4833 50.7471L53.5471 53.4978C55.6416 53.5423 57.0567 53.9469 58.0981 54.4231L57.2754 57.9771C56.4547 57.65 55.0009 56.9647 52.7535 57.017C50.7229 57.0635 50.0879 57.9539 50.1073 58.8308C50.1324 59.8606 51.2397 60.4917 53.9169 61.4325C57.6645 62.6578 59.2034 64.3419 59.2673 67.1546C59.3331 69.9363 57.4206 72.3579 53.8433 73.0645L53.9169 76.2546L50.8564 76.3243Z" fill="#FFDF60"/>
<path d="M137.906 87.0293L138.605 117.609C138.614 118.042 139.073 118.319 139.46 118.123L145.662 115.009C145.951 114.866 146.301 114.978 146.452 115.262L158.04 137.131C158.198 137.431 158.576 137.535 158.868 137.361L175.342 127.462C175.653 127.274 175.723 126.852 175.491 126.573L159.925 107.974C159.691 107.697 159.761 107.279 160.068 107.09L164.84 104.153C165.214 103.923 165.217 103.385 164.85 103.148L138.816 86.5144C138.417 86.2608 137.896 86.5531 137.906 87.0293Z" fill="black"/>
<path d="M139.476 86.7802L140.174 117.359C140.184 117.795 140.643 118.072 141.03 117.876L147.232 114.764C147.521 114.618 147.869 114.731 148.02 115.015L159.608 136.884C159.768 137.184 160.146 137.288 160.438 137.114L176.909 127.212C177.221 127.025 177.293 126.605 177.06 126.324L161.493 107.729C161.261 107.45 161.328 107.032 161.636 106.841L166.41 103.906C166.782 103.677 166.785 103.135 166.418 102.901L140.385 86.2672C139.985 86.0117 139.464 86.3059 139.476 86.7802Z" fill="white"/>
<path d="M147.494 114.336C147.836 114.336 148.173 114.522 148.343 114.843L159.931 136.712C159.972 136.787 160.035 136.814 160.072 136.824C160.107 136.835 160.175 136.845 160.248 136.801L176.72 126.901C176.799 126.853 176.82 126.783 176.828 126.744C176.836 126.706 176.838 126.63 176.778 126.56L161.212 107.964C161.032 107.751 160.955 107.47 160.999 107.193C161.046 106.92 161.209 106.676 161.445 106.531L166.218 103.593C166.313 103.534 166.325 103.442 166.327 103.403C166.327 103.366 166.317 103.271 166.22 103.211L140.188 86.5772C140.085 86.5114 139.991 86.5501 139.956 86.5714C139.919 86.5907 139.838 86.6508 139.84 86.7727L140.538 117.354C140.54 117.464 140.618 117.522 140.649 117.542C140.68 117.561 140.765 117.6 140.866 117.549L147.068 114.435C147.203 114.367 147.348 114.336 147.494 114.336ZM160.13 137.565C160.045 137.565 159.958 137.554 159.875 137.532C159.623 137.461 159.408 137.286 159.286 137.056L147.697 115.188C147.641 115.079 147.505 115.037 147.397 115.091L141.195 118.206C140.898 118.353 140.554 118.339 140.271 118.169C139.987 117.999 139.814 117.698 139.807 117.369L139.108 86.7901C139.1 86.4359 139.288 86.1068 139.596 85.9326C139.905 85.7584 140.283 85.768 140.583 85.9597L166.615 102.594C166.896 102.772 167.06 103.076 167.058 103.409C167.055 103.742 166.884 104.046 166.602 104.218L161.828 107.156C161.751 107.203 161.729 107.272 161.723 107.311C161.718 107.35 161.716 107.423 161.772 107.493L177.341 126.09C177.519 126.305 177.597 126.588 177.552 126.864C177.504 127.143 177.339 127.385 177.097 127.53L160.626 137.43C160.475 137.519 160.303 137.565 160.13 137.565Z" fill="black"/>
<path d="M154.569 86.3985L157.782 87.1941L159.05 83.3071L154.569 86.3985ZM158.026 87.9975C157.995 87.9975 157.966 87.9936 157.937 87.9878L153.601 86.9135C153.462 86.8786 153.355 86.7663 153.33 86.625C153.305 86.4818 153.363 86.3385 153.483 86.2572L159.526 82.0876C159.656 81.9986 159.828 82.0005 159.954 82.0953C160.08 82.1902 160.13 82.3547 160.082 82.5038L158.373 87.7458C158.324 87.8988 158.181 87.9975 158.026 87.9975Z" fill="black"/>
<path d="M151.926 83.3765C151.808 83.3765 151.692 83.3184 151.623 83.2139C151.508 83.0455 151.555 82.819 151.723 82.7048L174.379 67.4974C174.546 67.3852 174.774 67.4297 174.887 67.5981C174.999 67.7646 174.954 67.9949 174.786 68.1072L152.13 83.3146C152.068 83.3552 151.998 83.3765 151.926 83.3765Z" fill="black"/>
<path d="M149.174 79.2193C149.104 79.2193 149.033 79.2 148.973 79.1574C148.802 79.0471 148.756 78.8186 148.866 78.6502L159.91 61.9368C160.02 61.7684 160.248 61.722 160.417 61.8323C160.585 61.9446 160.632 62.173 160.519 62.3414L149.48 79.0548C149.408 79.1613 149.29 79.2193 149.174 79.2193Z" fill="black"/>
<path d="M15.4261 50.6591C15.3351 50.6591 15.2461 50.6261 15.1745 50.5584C15.0273 50.419 15.0215 50.1887 15.1609 50.0415C18.6433 46.3636 26.0593 39.5962 30.0469 36.7061C36.462 32.0622 43.4773 28.4191 50.9009 25.8793C51.0926 25.8155 51.2997 25.9181 51.3655 26.1078C51.4313 26.2994 51.3287 26.5085 51.1371 26.5743C43.7831 29.0888 36.8318 32.699 30.4747 37.3023C26.52 40.1653 19.1524 46.8901 15.6932 50.5448C15.6197 50.6203 15.5229 50.6591 15.4261 50.6591Z" fill="black"/>
<path d="M15.6604 43.0993C15.5674 43.0993 15.4745 43.0645 15.4029 42.9948C15.2597 42.8535 15.2577 42.6192 15.399 42.476C19.5416 38.2696 24.1622 34.4832 29.1352 31.2215C37.8345 25.5187 47.3779 21.5349 57.5019 19.3862C57.6993 19.3436 57.8929 19.4694 57.9355 19.6688C57.9781 19.8663 57.8503 20.0618 57.6529 20.1024C47.6179 22.2337 38.1597 26.1827 29.5359 31.8351C24.6055 35.0678 20.0255 38.8213 15.9217 42.9909C15.8501 43.0625 15.7552 43.0993 15.6604 43.0993Z" fill="black"/>
<path d="M195.398 31.3007C195.195 31.3007 195.032 31.1361 195.032 30.9348V29.0397C195.032 28.8384 195.195 28.6738 195.398 28.6738C195.599 28.6738 195.764 28.8384 195.764 29.0397V30.9348C195.764 31.1361 195.599 31.3007 195.398 31.3007Z" fill="black"/>
<path d="M195.398 35.7147C195.197 35.7147 195.032 35.5521 195.032 35.3489V33.4557C195.032 33.2524 195.197 33.0879 195.398 33.0879C195.601 33.0879 195.764 33.2524 195.764 33.4557V35.3489C195.764 35.5521 195.601 35.7147 195.398 35.7147Z" fill="black"/>
<path d="M194.138 32.5618H192.247C192.045 32.5618 191.881 32.3972 191.881 32.1959C191.881 31.9946 192.045 31.8281 192.247 31.8281H194.138C194.341 31.8281 194.506 31.9946 194.506 32.1959C194.506 32.3972 194.341 32.5618 194.138 32.5618Z" fill="black"/>
<path d="M198.549 32.5608H196.654C196.453 32.5608 196.288 32.3982 196.288 32.195C196.288 31.9936 196.453 31.8291 196.654 31.8291H198.549C198.751 31.8291 198.915 31.9936 198.915 32.195C198.915 32.3982 198.751 32.5608 198.549 32.5608Z" fill="black"/>
<path d="M184.171 22.2596C183.967 22.2596 183.805 22.097 183.805 21.8938V19.9987C183.805 19.7954 183.967 19.6328 184.171 19.6328C184.372 19.6328 184.536 19.7954 184.536 19.9987V21.8938C184.536 22.097 184.372 22.2596 184.171 22.2596Z" fill="black"/>
<path d="M184.171 26.6747C183.967 26.6747 183.805 26.5101 183.805 26.3069V24.4118C183.805 24.2104 183.967 24.0459 184.171 24.0459C184.372 24.0459 184.536 24.2104 184.536 24.4118V26.3069C184.536 26.5101 184.372 26.6747 184.171 26.6747Z" fill="black"/>
<path d="M182.91 23.5188H181.017C180.816 23.5188 180.651 23.3543 180.651 23.153C180.651 22.9497 180.816 22.7852 181.017 22.7852H182.91C183.114 22.7852 183.278 22.9497 183.278 23.153C183.278 23.3543 183.114 23.5188 182.91 23.5188Z" fill="black"/>
<path d="M187.322 23.5188H185.429C185.226 23.5188 185.063 23.3543 185.063 23.153C185.063 22.9497 185.226 22.7852 185.429 22.7852H187.322C187.523 22.7852 187.686 22.9497 187.686 23.153C187.686 23.3543 187.523 23.5188 187.322 23.5188Z" fill="black"/>
<path d="M145.593 215.2C145.438 215.2 145.293 215.099 145.244 214.943C145.182 214.749 145.291 214.544 145.484 214.484C145.809 214.383 178.259 204.139 195.301 185.335C195.439 185.184 195.671 185.172 195.82 185.31C195.969 185.445 195.981 185.678 195.845 185.827C186.861 195.738 173.706 203.192 164.25 207.701C154.011 212.581 145.782 215.157 145.701 215.183C145.666 215.194 145.628 215.2 145.593 215.2Z" fill="black"/>
<path d="M160.314 214.333C160.171 214.333 160.035 214.248 159.977 214.109C159.898 213.921 159.985 213.706 160.173 213.629C160.452 213.513 188.168 201.755 200.22 186.17C200.342 186.009 200.572 185.98 200.731 186.104C200.892 186.228 200.921 186.458 200.799 186.619C188.629 202.359 160.736 214.186 160.455 214.304C160.409 214.324 160.363 214.333 160.314 214.333Z" fill="black"/>
<path d="M51.4623 205.363L51.4429 214.583L55.2003 214.45L56.3172 205.644L51.4623 205.363Z" fill="white"/>
<path d="M51.8281 205.75L51.8107 214.204L54.877 214.095L55.9049 205.987L51.8281 205.75ZM51.4429 214.949C51.3481 214.949 51.2571 214.912 51.1893 214.847C51.1177 214.777 51.0771 214.682 51.0771 214.581L51.0964 205.361C51.0964 205.261 51.139 205.166 51.2126 205.096C51.2842 205.026 51.3848 204.992 51.4836 204.995L56.3385 205.278C56.4411 205.284 56.534 205.33 56.5998 205.41C56.6637 205.487 56.6946 205.59 56.6811 205.69L55.5642 214.496C55.5409 214.674 55.3919 214.81 55.2138 214.816L51.4565 214.949C51.4526 214.949 51.4487 214.949 51.4429 214.949Z" fill="black"/>
<path d="M50.2622 216.88C50.2447 216.021 50.568 214.687 50.657 213.005C50.6764 212.647 51.0016 212.389 51.3404 212.502L53.8569 213.108C53.9788 213.137 54.0795 213.009 54.0195 212.897L53.6536 212.217C53.4929 211.917 53.6188 211.542 53.9304 211.402L55.6881 210.614C55.9475 210.496 56.2417 210.488 56.5089 210.591C58.0865 211.199 63.8086 213.682 66.5342 215.791C67.444 216.493 66.9349 218.065 66.0773 218.22C63.495 218.685 57.2174 218.572 51.6501 218.102C50.9765 218.046 50.2776 217.556 50.2622 216.88Z" fill="#5479F7"/>
<path d="M51.1796 212.84C51.1525 212.84 51.1274 212.848 51.1042 212.866C51.0558 212.899 51.0248 212.959 51.0229 213.024C50.9764 213.89 50.8719 214.648 50.7789 215.318C50.6938 215.94 50.6202 216.476 50.628 216.873C50.6396 217.337 51.1816 217.695 51.681 217.738C57.6025 218.237 63.6285 218.288 66.0134 217.858C66.2728 217.811 66.5186 217.511 66.6116 217.128C66.6522 216.967 66.7451 216.418 66.3096 216.081C63.5163 213.919 57.6741 211.433 56.3772 210.934C56.201 210.866 56.0094 210.87 55.8371 210.947L54.0814 211.737C54.0039 211.772 53.973 211.834 53.9613 211.867C53.9497 211.902 53.9362 211.969 53.9768 212.045L54.3427 212.722C54.4375 212.9 54.4201 213.119 54.2962 213.278C54.1743 213.439 53.9671 213.512 53.7697 213.464L51.2261 212.85C51.2106 212.844 51.1932 212.84 51.1796 212.84ZM60.9398 218.88C58.0168 218.88 54.5692 218.715 51.6191 218.468C50.7886 218.398 49.9175 217.788 49.8962 216.89C49.8866 216.433 49.964 215.87 50.055 215.219C50.144 214.563 50.2466 213.82 50.2911 212.986C50.3066 212.691 50.4557 212.422 50.6899 212.262C50.9106 212.111 51.1835 212.07 51.439 212.147L53.4638 212.635L53.3322 212.391C53.2064 212.159 53.1832 211.882 53.2683 211.633C53.3535 211.383 53.5393 211.178 53.7813 211.069L55.5371 210.279C55.8874 210.121 56.2804 210.111 56.6404 210.248C57.9568 210.756 63.8957 213.286 66.7567 215.5C67.2794 215.903 67.4962 216.594 67.3239 217.304C67.1574 217.978 66.6948 218.481 66.1431 218.58C64.97 218.791 63.0981 218.88 60.9398 218.88Z" fill="black"/>
<path d="M58.9828 217.426C55.2661 217.426 52.254 217.113 52.2095 217.107C52.0082 217.085 51.8611 216.905 51.8843 216.704C51.9056 216.503 52.0856 216.356 52.2869 216.377C52.3566 216.385 59.3099 217.111 65.0765 216.338C65.2779 216.311 65.4618 216.453 65.4889 216.654C65.516 216.853 65.3747 217.039 65.1753 217.064C63.1388 217.337 60.9611 217.426 58.9828 217.426Z" fill="black"/>
<path d="M60.0919 215.288C60.0687 215.288 60.0474 215.286 60.0242 215.282C59.8248 215.245 59.6951 215.054 59.7319 214.854L60.1965 212.359C60.2332 212.16 60.4249 212.028 60.6243 212.065C60.8217 212.102 60.9533 212.293 60.9166 212.493L60.452 214.988C60.4171 215.164 60.2642 215.288 60.0919 215.288Z" fill="black"/>
<path d="M58.5782 214.881C58.5549 214.881 58.5337 214.877 58.5124 214.873C58.313 214.838 58.1813 214.647 58.2162 214.447L58.7021 211.79C58.7369 211.59 58.9286 211.459 59.1279 211.495C59.3254 211.53 59.459 211.722 59.4222 211.921L58.9363 214.579C58.9053 214.755 58.7505 214.881 58.5782 214.881Z" fill="black"/>
<path d="M26.065 201.818L23.1537 210.566L26.76 211.621L30.8173 202.877L26.065 201.818Z" fill="white"/>
<path d="M23.6202 210.322L26.5606 211.182L30.2928 203.137L26.309 202.25L23.6202 210.322ZM26.76 211.989C26.7271 211.989 26.6922 211.983 26.6574 211.973L23.0511 210.918C22.9543 210.891 22.8749 210.825 22.8285 210.736C22.782 210.649 22.7743 210.545 22.8052 210.452L25.7186 201.704C25.7766 201.526 25.9605 201.421 26.1444 201.46L30.8967 202.519C31.0051 202.542 31.0961 202.614 31.1445 202.715C31.1948 202.815 31.1948 202.929 31.1484 203.03L27.093 211.776C27.031 211.907 26.8994 211.989 26.76 211.989Z" fill="black"/>
<path d="M21.4909 212.352C21.7444 211.532 22.1316 210.291 22.6271 208.717C22.7336 208.376 23.1459 208.241 23.4344 208.456L25.5482 209.718C25.7979 209.867 26.1057 209.654 26.0554 209.368L25.9934 209.017C25.9334 208.68 26.1715 208.365 26.5122 208.33L28.4267 208.133C28.7093 208.103 28.9919 208.189 29.2126 208.369C30.5193 209.441 35.1593 213.365 36.8782 216.352C37.3157 217.107 36.7021 218.036 35.8387 217.912C33.2409 217.542 27.3775 216.168 22.2361 213.971C21.6109 213.702 21.2895 213.003 21.4909 212.352Z" fill="#5479F7"/>
<path d="M21.8412 212.461C21.6941 212.936 21.9264 213.441 22.3813 213.635C27.5033 215.824 33.2661 217.175 35.891 217.549C36.1504 217.587 36.3924 217.481 36.5375 217.264C36.6885 217.042 36.6963 216.769 36.5627 216.536C34.8805 213.617 30.3334 209.765 28.9803 208.654C28.8351 208.534 28.6532 208.48 28.4654 208.497L26.549 208.696C26.4658 208.704 26.4174 208.753 26.3961 208.782C26.3728 208.811 26.3399 208.871 26.3535 208.954L26.4154 209.304C26.4638 209.579 26.3516 209.848 26.1212 210.009C25.8928 210.168 25.6005 210.177 25.3604 210.034L23.2156 208.749C23.1595 208.708 23.1033 208.718 23.0762 208.727C23.0472 208.735 22.9969 208.762 22.9756 208.828C22.48 210.402 22.0948 211.641 21.8412 212.461ZM35.9897 218.29C35.9239 218.29 35.8562 218.284 35.7884 218.277C33.1248 217.897 27.2807 216.527 22.0929 214.308C21.2915 213.966 20.883 213.077 21.1405 212.245C21.396 211.422 21.7812 210.183 22.2768 208.607C22.3639 208.336 22.5768 208.12 22.8498 208.031C23.115 207.943 23.4073 207.988 23.6357 208.149L25.6856 209.374L25.6334 209.082C25.5869 208.822 25.6527 208.551 25.8115 208.34C25.9702 208.129 26.2122 207.994 26.4754 207.967L28.3899 207.769C28.7732 207.73 29.1487 207.843 29.4449 208.087C30.8232 209.217 35.4535 213.143 37.1976 216.17C37.4706 216.647 37.4512 217.222 37.1454 217.675C36.8821 218.064 36.4504 218.29 35.9897 218.29Z" fill="black"/>
<path d="M35.649 216.822C35.6335 216.822 35.6181 216.822 35.6026 216.82C29.8088 216.089 22.8323 213.156 22.7626 213.127C22.5768 213.046 22.4897 212.833 22.5691 212.645C22.6465 212.459 22.8614 212.372 23.0472 212.451C23.1169 212.48 30.0005 215.374 35.6936 216.092C35.8949 216.118 36.0362 216.301 36.011 216.501C35.9878 216.687 35.831 216.822 35.649 216.822Z" fill="black"/>
<path d="M31.2568 213.975C31.1968 213.975 31.1348 213.96 31.0787 213.929C30.9025 213.83 30.8387 213.607 30.9354 213.429L32.1608 211.207C32.2576 211.031 32.4821 210.967 32.6583 211.064C32.8344 211.16 32.9002 211.385 32.8015 211.561L31.5762 213.783C31.5104 213.905 31.3845 213.975 31.2568 213.975Z" fill="black"/>
<path d="M29.9463 213.112C29.8863 213.112 29.8282 213.096 29.772 213.065C29.594 212.969 29.5281 212.746 29.6249 212.57L30.92 210.199C31.0167 210.021 31.2394 209.955 31.4174 210.051C31.5936 210.148 31.6594 210.373 31.5626 210.549L30.2676 212.92C30.2018 213.042 30.076 213.112 29.9463 213.112Z" fill="black"/>
<path d="M35.8794 140.091C35.8794 140.091 33.3919 146.314 32.9118 152.693C32.4298 159.069 25.8831 199.672 25.3043 203.595C25.3043 203.595 28.537 205.533 31.0671 205.123C31.0671 205.123 44.0928 182.718 46.1757 159.677C48.0979 138.409 47.8172 140.143 47.8172 140.143L35.8794 140.091Z" fill="black"/>
<path d="M38.6863 142.25C38.6863 142.25 37.8887 153.748 41.8764 161.876C45.7111 169.691 50.3609 194.14 50.386 206.052C50.386 206.869 50.9745 207.566 51.7798 207.698C52.889 207.878 54.4685 208.046 55.8274 207.854C56.5379 207.754 57.0954 207.194 57.2154 206.486C58.3633 199.715 64.1435 162.397 55.7636 142.087L38.6863 142.25Z" fill="black"/>
<path d="M44.6697 171.603C44.4974 171.603 44.3445 171.479 44.3116 171.303C44.3 171.241 43.1288 165.05 40.7633 160.77C38.4791 156.637 38.2623 151.208 38.2546 150.979C38.2468 150.776 38.4056 150.608 38.6069 150.6C38.8101 150.594 38.9805 150.751 38.9863 150.952C38.9882 151.006 39.207 156.44 41.4041 160.416C43.8276 164.801 44.9833 170.91 45.0297 171.169C45.0685 171.367 44.9368 171.558 44.7374 171.595C44.7162 171.601 44.6929 171.603 44.6697 171.603Z" fill="#CADDFF"/>
<path d="M81.8228 92.2964L84.3296 88.299C84.5619 87.9254 84.6878 87.4957 84.6916 87.0543L84.7052 84.865C84.7071 84.5417 84.2658 84.4449 84.1361 84.7411L82.9649 87.4028C82.8004 87.7764 82.5526 88.1093 82.239 88.3726L79.709 90.5735L78.352 89.5631C77.9532 89.265 77.4151 89.2321 76.9815 89.4798L79.407 92.3602L80.0903 95.8737L82.6959 95.4459L81.8228 92.2964Z" fill="white"/>
<path d="M77.63 89.6815L79.6857 92.1244C79.7264 92.1728 79.7535 92.2289 79.7651 92.2909L80.3826 95.4539L82.2351 95.15L81.4686 92.3973C81.4415 92.2967 81.457 92.1902 81.5112 92.1031L84.018 88.1057C84.2174 87.7902 84.3238 87.4263 84.3258 87.0527L84.3374 85.1924L83.2998 87.5502C83.114 87.9741 82.8294 88.3555 82.4752 88.6536L79.949 90.8507C79.8193 90.9629 79.6277 90.9707 79.4902 90.8681L78.1333 89.8576C77.9842 89.7453 77.808 89.6873 77.63 89.6815ZM80.0903 96.2398C79.918 96.2398 79.7651 96.1179 79.7322 95.9436L79.0663 92.5251L76.7027 89.7163C76.633 89.635 76.6021 89.5247 76.6214 89.4163C76.6408 89.3098 76.7066 89.2169 76.7995 89.1627C77.3589 88.8433 78.0539 88.8839 78.5707 89.2691L79.6915 90.1034L81.999 88.0961C82.2719 87.8676 82.4887 87.5773 82.63 87.254L83.8012 84.5943C83.9289 84.302 84.2348 84.1452 84.5464 84.2129C84.8581 84.2787 85.073 84.5478 85.071 84.8672L85.0575 87.0566C85.0536 87.5676 84.9104 88.0632 84.6394 88.4948L82.2177 92.3547L83.0501 95.3474C83.0791 95.4481 83.0617 95.5546 83.0056 95.6417C82.9494 95.7307 82.8585 95.7888 82.7559 95.8062L80.1503 96.2359C80.131 96.2398 80.1097 96.2398 80.0903 96.2398Z" fill="black"/>
<path d="M20.2404 81.8769C20.2404 81.8769 20.6508 80.0747 21.8509 79.6004C23.0511 79.1261 23.9745 78.5783 23.9745 78.5783C23.9745 78.5783 23.4402 77.6821 22.8304 78.0382C22.2187 78.3964 22.2187 78.3964 22.2187 78.3964L21.4909 78.4854L21.3941 72.3936L19.9597 73.466C19.6693 73.6828 19.4738 74.0002 19.408 74.3564L18.0781 81.5517L20.2404 81.8769Z" fill="white"/>
<path d="M18.5079 81.2443L19.9771 81.465C20.1687 80.8765 20.6778 79.6686 21.7173 79.2582C22.4258 78.9794 23.0414 78.6697 23.4131 78.4723C23.2931 78.36 23.1459 78.2787 23.0143 78.3561L22.4045 78.7123C22.362 78.7375 22.3136 78.753 22.2652 78.7588L21.5373 78.8498C21.4328 78.8614 21.3302 78.8304 21.2508 78.7626C21.1734 78.6949 21.1269 78.5942 21.125 78.4916L21.0379 73.116L20.1784 73.7587C19.9616 73.9194 19.8164 74.1555 19.768 74.4207L18.5079 81.2443ZM20.2404 82.2431C20.2229 82.2431 20.2036 82.2412 20.1862 82.2393L18.0239 81.9141C17.9252 81.8986 17.8381 81.8444 17.78 81.765C17.7219 81.6837 17.7006 81.583 17.7181 81.4843L19.0479 74.2891C19.1292 73.84 19.377 73.4451 19.7409 73.1722L21.1734 72.0997C21.2837 72.0165 21.4309 72.003 21.5547 72.0649C21.6786 72.1249 21.758 72.2507 21.7599 72.3862L21.8509 78.0716L22.1006 78.0406L22.6465 77.7212C23.3763 77.2953 24.0403 77.9728 24.29 78.391C24.3384 78.4742 24.3539 78.5749 24.3306 78.6697C24.3055 78.7646 24.2455 78.8459 24.1622 78.8943C24.1235 78.9175 23.2001 79.4615 21.9864 79.9396C21.1482 80.2706 20.6991 81.5076 20.5965 81.9586C20.5578 82.127 20.4088 82.2431 20.2404 82.2431Z" fill="black"/>
<path d="M64.4449 125.25L64.4449 125.25C66.2796 123.759 68.3751 122.821 70.4116 121.91C70.6544 121.801 70.8963 121.693 71.1368 121.584C73.4142 120.554 75.5891 119.471 77.3781 117.591C80.6478 114.155 84.2205 107.763 83.4325 94.8498L79.0539 94.2284C78.0034 97.1261 74.7235 104.774 66.507 109.619C55.2729 116.244 43.632 112.434 40.5501 111.278L40.55 111.278C38.2937 110.43 31.1101 107.619 25.9 99.9095C20.7884 92.3471 20.6787 84.6627 20.809 81.7158C19.63 81.5257 18.45 81.3358 17.2711 81.1471C16.2482 84.4988 13.6909 94.718 18.4761 105.95L18.4761 105.95C20.5066 110.718 23.6069 114.999 27.4548 118.468L27.4549 118.468C28.0396 118.996 28.6097 119.479 29.1661 119.951C29.4872 120.224 29.8038 120.492 30.1161 120.763C30.9598 121.495 31.7536 122.23 32.4379 123.046C33.8215 124.696 34.7393 126.658 34.8115 129.592M64.4449 125.25L34.3811 129.603M64.4449 125.25C62.4773 126.85 61.0224 128.654 60.1587 130.716C59.2941 132.779 59.0326 135.077 59.4144 137.644C59.594 138.851 59.8635 140.065 60.1288 141.259C60.2651 141.873 60.4002 142.481 60.5214 143.081C60.8831 144.871 61.1329 146.63 60.9888 148.397L61.4179 148.432L60.9888 148.397C60.9468 148.913 60.8699 149.357 60.6472 149.704M64.4449 125.25L60.6472 149.704M34.8115 129.592L34.3811 129.603M34.8115 129.592C34.8115 129.592 34.8115 129.592 34.8115 129.592L34.3811 129.603M34.8115 129.592C34.8792 132.301 34.2849 134.97 33.7066 137.568C33.594 138.074 33.4819 138.577 33.3755 139.077L33.3755 139.077C33.3388 139.25 33.3009 139.425 33.2625 139.604C32.8752 141.399 32.4271 143.476 32.5107 145.329C32.5564 146.34 32.7603 147.249 33.1959 147.991C33.6259 148.724 34.2968 149.321 35.3316 149.692L35.1864 150.097M34.3811 129.603C34.4474 132.254 33.8671 134.863 33.2893 137.46C33.1759 137.97 33.0627 138.479 32.9544 138.988C32.9177 139.16 32.8795 139.337 32.8405 139.518C32.0306 143.268 30.8886 148.557 35.1864 150.097M35.1864 150.097L35.3317 149.692C42.6762 152.325 51.1688 152.61 58.7365 150.746L58.7367 150.746C59.5662 150.542 60.2873 150.263 60.6472 149.704M35.1864 150.097C42.6158 152.761 51.1951 153.047 58.8395 151.164C59.666 150.96 60.5487 150.653 61.0095 149.936L60.6472 149.704" fill="#FFDF60" stroke="black" stroke-width="0.861004"/>
<path d="M44.4297 111.933L45.7963 104.27L51.021 105.617L50.0066 112.365C49.9137 112.899 49.3872 113.871 48.8452 113.884L45.3376 113.927C44.6174 113.944 44.2961 112.644 44.4297 111.933Z" fill="white"/>
<path d="M44.4297 111.934H44.4316H44.4297ZM46.0867 104.725L44.7897 111.999C44.7897 111.999 44.7897 111.999 44.7897 112.001C44.7123 112.414 44.8304 113.112 45.1014 113.43C45.2136 113.563 45.2988 113.562 45.3298 113.562L48.8393 113.517C49.089 113.511 49.5594 112.809 49.6465 112.303L50.6086 105.888L46.0867 104.725ZM45.3201 114.293C45.0297 114.293 44.7607 114.16 44.5439 113.906C44.1044 113.389 43.9573 112.464 44.0696 111.868L45.4362 104.206C45.4537 104.105 45.5137 104.018 45.5989 103.962C45.684 103.908 45.7886 103.89 45.8873 103.916L51.1119 105.261C51.2939 105.307 51.41 105.486 51.3829 105.669L50.3686 112.419C50.2602 113.054 49.6446 114.231 48.8529 114.249L45.3433 114.293C45.3356 114.293 45.3278 114.293 45.3201 114.293Z" fill="black"/>
<path d="M50.1014 95.628C48.2334 95.8797 47.9798 97.9916 45.7479 98.2374C44.7258 98.3516 44.2128 97.9722 43.3069 98.4078C42.7068 98.6962 41.8338 99.3912 41.7447 100.311C41.6305 101.48 42.912 101.733 44.2225 103.987C45.142 105.568 45.1981 106.627 45.9299 106.743C46.6713 106.859 47.0003 105.837 47.8192 105.901C48.8761 105.986 49.0155 107.756 50.1324 108.282C50.8351 108.613 52.3101 108.545 54.3911 106.985C54.7279 106.732 54.8363 106.273 54.6485 105.895C54.4085 105.413 54.1027 104.804 53.76 104.246C52.1282 101.588 50.9764 101.139 51.2029 100.324C51.5513 99.0756 53.8413 99.306 54.0175 98.3033C54.2014 97.2579 52.0198 95.3667 50.1014 95.628Z" fill="black"/>
<path d="M47.07 101.056L47.5656 100.797C47.5656 100.797 49.1761 104.161 49.8072 105.025C50.4383 105.886 53.2529 104.134 53.2529 104.134L53.3226 103.513L53.6594 103.294C53.7639 103.226 53.8317 103.114 53.8433 102.99C53.8568 102.866 53.8123 102.742 53.7233 102.655C53.0438 101.982 51.6017 100.452 50.9029 98.9637C50.9029 98.9637 48.5315 98.8224 47.07 101.056Z" fill="white"/>
<path d="M47.8831 100.615C47.8889 100.623 47.8927 100.63 47.8966 100.638C47.9121 100.671 49.4994 103.983 50.1034 104.808C50.3376 105.131 51.743 104.612 52.9083 103.915L52.9586 103.474C52.9702 103.364 53.0303 103.265 53.1212 103.207L53.4581 102.986C53.4697 102.978 53.4774 102.967 53.4793 102.953C53.4813 102.94 53.4755 102.926 53.4658 102.917C52.7263 102.181 51.41 100.768 50.6744 99.3295C50.1847 99.3528 48.9245 99.5192 47.8831 100.615ZM50.4054 105.627C50.0318 105.627 49.7143 105.518 49.513 105.241C48.9845 104.517 47.8308 102.183 47.401 101.296L47.2384 101.38C47.0913 101.457 46.9094 101.426 46.7971 101.302C46.6868 101.178 46.6713 100.994 46.7642 100.855C48.3244 98.472 50.8177 98.5901 50.9241 98.5978C51.0577 98.6056 51.1758 98.6849 51.2339 98.8069C51.9211 100.266 53.3845 101.802 53.9807 102.396C54.1491 102.562 54.2324 102.793 54.2072 103.027C54.184 103.263 54.0562 103.472 53.8588 103.602L53.6671 103.726L53.6168 104.175C53.6052 104.287 53.5413 104.388 53.4464 104.446C52.9102 104.781 51.4449 105.627 50.4054 105.627Z" fill="black"/>
<path d="M48.1289 103.517C48.1289 103.517 46.8339 101.929 46.2377 102.673C45.6414 103.416 47.1107 105.125 48.1289 103.517Z" fill="white"/>
</svg>
