<svg width="334" height="334" viewBox="0 0 334 334" fill="none" xmlns="http://www.w3.org/2000/svg">
<path d="M67.0436 118.923C67.3336 121.182 66.1158 123.383 63.9733 124.307H37.9578C36.1051 123.554 34.7715 122.165 34.2525 120.66H7.48319C4.52879 119.271 2.67324 116.201 2.90518 112.96C3.07914 110.179 4.75784 107.747 7.30923 106.474C7.71513 102.073 10.9015 98.4253 14.8967 97.7295C19.0717 97.0366 22.1392 99.6981 23.1278 100.684C26.9491 95.4709 33.0348 92.6354 38.7696 93.5603C42.8837 94.1981 46.7659 96.7466 49.3173 100.568C50.5321 102.363 51.3439 104.331 51.8078 106.358C56.6728 106.358 61.1319 109.715 62.5816 114.58C64.8402 114.87 66.6957 116.665 67.0436 118.923ZM333.797 73.5841C333.449 70.9196 331.246 68.8379 328.581 68.49C326.787 62.5232 321.165 58.47 315.14 58.8179C314.908 58.8179 314.676 58.8759 314.444 58.8759C313.98 56.4434 312.937 53.9529 311.49 51.7552C308.535 47.3541 304.189 44.4606 299.437 43.7067C292.891 42.721 285.88 45.9073 281.534 51.9263C280.491 50.8883 276.956 47.702 272.149 48.5138C267.513 49.3227 263.921 53.4919 263.457 58.47C260.561 59.9197 258.592 62.7001 258.36 65.8835C258.128 69.5309 260.213 73.0622 263.631 74.6278H295.149C295.381 76.7095 297.179 78.7361 299.669 79.7799H330.263C332.695 78.797 334.145 76.1906 333.797 73.5841ZM144.971 239.071C144.391 233.571 142.887 225.522 138.714 216.662C135.296 209.425 131.182 203.983 127.88 200.275C104.935 172.54 103.082 134.325 121.855 108.326C143.292 78.6231 181.183 79.316 184.428 79.432C211.487 79.548 236.227 94.0822 248.276 117.245C255.693 131.489 257.026 148.163 253.898 163.741C251.869 173.758 248.102 183.891 242.078 192.401C235.531 201.725 225.45 207.399 218.845 216.662C212.818 225.116 210.095 233.687 208.704 239.592C201.229 241.561 191.438 243.414 179.85 243.588C165.423 243.878 153.431 241.503 144.971 239.071Z" fill="#FFEB9A"/>
<path d="M88.597 177.116C88.3071 176.71 88.1911 176.246 88.3071 175.843C88.4811 175.089 89.3508 174.625 90.2757 174.683C90.9716 174.103 91.5514 173.41 91.9573 172.657C92.3052 171.961 92.5952 171.21 92.7111 170.398C92.7111 170.282 92.8271 170.166 92.8851 170.166C93.0011 170.108 93.117 170.108 93.175 170.166C93.868 170.572 94.6218 170.862 95.4336 171.036C96.4773 171.21 97.5182 171.21 98.5619 170.92C98.7359 170.862 98.9099 170.978 98.9678 171.094C99.4897 172.367 99.7797 173.642 99.8956 174.973C100.07 176.942 100.36 179.954 98.446 181.401C97.9821 181.749 96.9963 182.268 95.3176 182.094V186.553C95.3176 186.669 95.2596 186.785 95.2016 186.843C94.7957 187.133 93.868 187.713 92.5372 187.713C92.3632 187.713 92.1313 187.713 91.9573 187.655C90.1018 187.423 89.1189 186.092 88.829 185.686C88.771 185.57 88.771 185.454 88.771 185.338C89.1769 184.468 89.4668 183.544 89.6408 182.558C89.9858 181.053 90.0438 179.432 89.9278 177.87C89.3508 177.812 88.887 177.522 88.597 177.116ZM130.95 206.529C130.892 206.587 130.776 206.645 130.66 206.587L127.416 205.372C127.648 206.355 127.59 206.819 127.242 206.993C127.184 207.051 127.068 207.051 127.01 207.051C126.778 207.051 126.546 206.877 126.198 206.645C125.908 206.471 125.618 206.242 125.157 206.01C124.693 205.778 124.114 205.546 123.592 205.43C123.534 205.43 123.418 205.372 123.418 205.256C123.36 205.198 123.36 205.083 123.418 205.025L124.751 202.418C124.809 202.36 124.867 202.302 124.983 202.247C125.618 202.189 127.358 202.131 128.923 203.288C130.254 204.274 130.776 205.546 130.95 206.242C131.066 206.355 131.008 206.471 130.95 206.529ZM57.5397 206.819C56.7308 206.993 55.9769 207.225 55.2811 207.573C54.6433 207.863 54.1794 208.211 53.8344 208.498C53.4256 208.788 53.0805 209.02 52.7906 209.02C52.6746 209.02 52.6167 209.02 52.5007 208.962C52.0948 208.73 52.0948 208.095 52.3847 206.877L46.7079 207.863C46.5919 207.863 46.4179 207.805 46.3571 207.689C46.302 207.573 46.302 207.457 46.3571 207.341C47.4008 205.836 48.8505 204.561 50.4741 203.694C52.5558 202.534 54.5853 202.247 55.919 202.247C56.0929 202.247 56.2089 202.302 56.2669 202.476L57.8296 206.471C57.8905 206.587 57.8905 206.645 57.8296 206.761C57.7165 206.761 57.6006 206.819 57.5397 206.819ZM102.847 238.262C100.821 231.197 98.733 224.018 96.5324 216.836C96.0106 215.042 95.4307 213.247 94.9088 211.452C94.7928 211.452 94.6798 211.394 94.6218 211.394L80.9458 207.805C80.8298 207.805 80.7138 207.747 80.5978 207.747C78.1653 211.278 75.6748 214.868 73.2394 218.402C73.2394 218.457 73.1814 218.457 73.1814 218.515L70.0531 230.098L59.5083 218.979C59.3923 218.863 59.1604 218.863 59.0444 218.979L55.687 222.107C55.571 222.223 55.571 222.339 55.629 222.51C57.7165 227.143 60.2621 231.602 63.1005 235.772C66.8667 241.272 68.9542 244.342 71.4447 244.458H71.6767C78.1653 244.458 83.6131 230.04 84.7699 226.679L95.1987 242.776L104.587 267.386C104.645 267.444 104.703 267.56 104.761 267.56H104.993L109.8 265.649C109.974 265.591 110.032 265.417 109.974 265.243C107.657 256.328 105.283 247.294 102.847 238.262ZM260.5 216.662L260.442 216.546C259.575 215.795 258.763 214.926 258.183 213.943C257.719 213.189 257.313 212.38 257.023 211.51C257.371 210.409 256.908 209.252 256.041 208.846C255.229 208.498 254.475 208.846 254.185 209.02C253.489 208.962 252.796 208.846 252.158 208.614C251.347 208.269 250.593 207.805 249.897 207.167L249.433 206.761L249.32 207.341C249.146 208.211 248.798 209.02 248.276 209.774C247.87 210.351 247.348 210.872 246.769 211.336L246.653 211.394V211.51C246.479 212.493 246.479 213.943 247.233 215.39C248.102 217.126 250.071 218.921 252.274 218.631C252.854 218.573 253.431 218.344 253.953 217.996L255.403 219.327C255.751 219.965 256.331 220.484 257.081 220.716C257.371 220.832 257.661 220.832 258.009 220.832C258.473 220.832 258.937 220.716 259.343 220.484C260.674 219.849 261.254 218.112 260.5 216.662ZM301.522 227.897C303.723 228.535 305.984 228.938 308.243 229.054C309.054 229.112 309.75 229.112 310.33 229.112C312.357 229.112 313.169 228.88 313.342 228.303C313.458 227.723 313.111 226.969 307.257 224.711C308.938 223.612 309.17 223.148 308.996 222.742C308.822 222.339 308.591 221.817 301.522 223.902C301.406 223.96 301.29 224.076 301.29 224.25V227.607C301.29 227.723 301.406 227.897 301.522 227.897ZM232.458 242.315C231.472 242.083 230.605 241.909 229.909 241.736L229.387 241.62C228.054 241.272 227.535 241.156 226.897 241.33C226.143 241.504 225.447 242.025 224.867 242.834C224.809 242.892 224.809 243.008 224.809 243.124C224.809 243.24 224.867 243.298 224.983 243.356L228.286 245.035C227.764 246.195 227.651 246.888 228.054 247.294C228.17 247.409 228.344 247.467 228.576 247.467C228.865 247.467 229.329 247.351 230.083 247.178C230.373 247.12 230.663 247.004 231.069 246.946C231.646 246.772 232.168 246.659 232.516 246.601C232.69 246.543 232.748 246.427 232.748 246.253V242.718C232.748 242.489 232.632 242.373 232.458 242.315ZM320.933 239.709C320.875 239.129 320.759 238.204 305.752 238.839H305.52L305.462 239.071C304.302 243.182 303.433 247.409 302.798 251.637C302.392 254.475 302.044 257.311 301.87 260.207L297.002 257.832C297.408 257.079 297.756 256.27 298.162 255.4C298.51 254.591 298.22 253.605 297.524 253.083L277.536 238.897L277.362 239.071C275.275 240.808 273.074 242.373 270.815 243.762C268.902 244.919 266.875 246.021 264.788 246.946L264.614 247.062L264.962 270.572C264.962 271.207 265.31 271.787 265.832 272.135C266.179 272.367 266.527 272.483 266.875 272.483C267.107 272.483 267.339 272.425 267.568 272.367C267.742 272.309 267.916 272.251 268.09 272.193L267.107 278.794L270.12 307.454C261.254 309.945 260.674 310.814 260.732 311.507C260.79 311.913 260.906 312.493 265.368 312.493C267.452 312.493 270.468 312.377 274.927 312.029H275.217L276.666 278.389L277.304 269.296C279.331 268.835 281.012 268.487 282.459 268.255C285.184 267.792 287.153 267.444 289.354 266.229C289.934 265.939 290.455 265.591 290.977 265.243C292.714 267.212 294.801 268.777 297.118 269.876C299.09 270.804 301.116 271.787 303.03 271.787C303.607 271.787 304.186 271.671 304.766 271.439C308.707 269.876 309.228 263.043 309.808 255.168C310.098 251.347 310.098 247.525 309.808 243.762C321.107 241.04 320.991 240.231 320.933 239.709ZM163.799 41.6806C164.437 42.8983 164.785 44.229 164.901 45.5598C164.959 46.6007 164.843 47.6444 164.611 48.6273V48.8621C165.075 49.903 166.119 50.6539 167.275 50.6539H167.391C168.493 50.5988 169.479 49.903 169.943 48.8621C170.001 48.8041 170.001 48.6882 169.943 48.6273C169.479 47.4125 169.479 46.4876 169.885 45.9077C170.175 45.5018 170.52 45.4439 170.984 45.3279C171.448 45.2119 171.969 45.0988 172.491 44.69C174.286 43.1853 173.767 39.8859 173.361 37.2214C173.187 36.1806 172.955 35.1948 172.665 34.2119C172.665 34.096 172.549 34.038 172.491 34.038C172.433 33.98 172.317 33.98 172.201 34.038C171.042 34.5019 169.769 34.6758 168.493 34.6758C167.333 34.6758 166.119 34.4439 165.017 34.038C164.901 33.98 164.785 34.038 164.669 34.096C164.553 34.154 164.553 34.3279 164.611 34.4439C164.785 34.9658 165.075 35.9486 164.727 37.0475C164.611 37.5114 164.379 37.9752 164.089 38.3811C163.335 38.4971 162.7 39.0741 162.584 39.8859C162.526 40.6368 163.045 41.3906 163.799 41.6806ZM221.275 112.554L204.3 90.4353L204.184 90.3193L178.748 78.0436C178.69 78.0436 178.632 77.9857 178.574 77.9857L159.398 80.0123C159.224 80.0123 159.108 80.1862 159.108 80.3602V91.94C159.108 92.056 159.166 92.114 159.224 92.172L182.398 111.281L192.363 133.11C192.421 133.226 192.537 133.284 192.653 133.284H192.711L198.739 132.182C198.855 132.182 198.913 132.124 198.971 132.008C199.026 131.95 199.026 131.834 199.026 131.718L192.421 105.488C192.421 105.43 192.363 105.372 192.363 105.315L179.85 92.2299L198.565 97.7299L216.584 118.576C216.642 118.634 216.758 118.692 216.874 118.692C216.99 118.692 217.045 118.634 217.103 118.576L221.449 112.786C221.333 112.786 221.333 112.67 221.275 112.554ZM183.964 50.8858L187.846 47.6444C187.904 47.5835 187.904 47.5835 187.962 47.5285L195.607 28.5931C197.405 28.3061 199.026 27.5522 200.301 26.4505C200.881 25.9286 202.792 24.1919 202.215 23.2642C201.867 22.6872 200.823 22.4553 195.55 24.4819C195.607 21.9363 195.378 21.7014 195.031 21.6464C194.567 21.5884 194.219 21.8174 193.059 25.9895L183.384 43.0113L179.908 45.9657C179.792 46.0208 179.792 46.1977 179.792 46.3107C180.14 47.4705 180.662 48.4533 181.412 49.3811C181.992 50.074 182.63 50.6539 183.442 51.1178C183.5 51.1758 183.558 51.1758 183.616 51.1758C183.674 51.1758 183.79 51.1758 183.848 51.1178L183.964 50.8858ZM151.75 48.3953C150.822 48.2823 149.894 48.1083 148.966 47.9923L133.209 34.7309C129.326 29.5209 128.921 29.8079 128.515 30.0427C128.225 30.2138 128.109 30.6197 128.573 32.0694C123.589 30.0978 123.128 30.8516 122.896 31.1996C122.78 31.4315 122.722 31.7214 122.838 32.0694C123.244 33.2262 124.98 35.0208 127.065 35.8877C127.993 36.2936 129.037 36.4676 130.08 36.4676L143.637 52.3906C143.695 52.4486 143.695 52.4486 143.753 52.5066C145.548 53.0864 147.346 53.6634 149.082 54.2432L149.43 54.0142L149.662 53.5503C149.952 52.9704 150.764 51.3497 150.822 51.2918C151.17 50.6539 151.518 49.729 151.75 48.3953ZM191.957 162.118C193.929 163.97 197.927 162.466 202.85 160.671C205.749 159.627 224.116 152.912 224 139.825C223.942 133.223 219.19 125.12 213.569 124.656C201.751 123.67 186.106 156.618 191.957 162.118ZM154.762 160.555C152.791 162.408 148.792 160.903 143.869 159.108C140.973 158.064 122.606 151.35 122.722 138.262C122.78 131.66 127.529 123.554 133.151 123.093C145.029 122.107 160.613 155.055 154.762 160.555Z" fill="white"/>
<path d="M225.74 197.15C224.58 198.307 218.556 204.503 214.094 214.81C211.487 220.89 209.921 227.375 209.342 234.267C197.292 237.16 184.892 238.552 172.491 238.436C161.08 238.378 149.665 236.986 138.541 234.383C138.251 232.182 137.787 230.04 137.323 227.897L157.951 183.66C158.18 183.138 157.951 182.558 157.487 182.326C156.966 182.094 156.386 182.326 156.154 182.79L152.793 190.029H125.676L129.558 181.459C129.79 180.937 129.558 180.357 129.039 180.125C128.518 179.896 127.938 180.125 127.706 180.647L123.128 190.664L120.927 195.471L120.695 195.239C98.0401 167.853 95.5496 130.214 114.671 103.694C135.876 74.3963 172.781 74.7993 176.953 74.9733C204.129 75.0893 228.52 89.5075 240.515 112.554C254.884 139.883 248.74 174.625 225.74 197.15ZM202.447 250.132C193.41 251.811 184.138 252.68 174.927 252.68H174.347C165.365 252.622 156.27 251.811 147.404 250.19C147.059 250.132 146.827 249.784 146.885 249.436C146.943 249.088 147.288 248.856 147.636 248.914C156.444 250.538 165.423 251.405 174.347 251.405C183.674 251.463 193.004 250.596 202.157 248.914C202.505 248.856 202.853 249.088 202.911 249.436C203.027 249.726 202.795 250.074 202.447 250.132ZM201.751 261.538C192.714 263.216 183.442 264.086 174.231 264.086H173.651C164.672 264.028 155.574 263.216 146.711 261.596C146.363 261.538 146.131 261.19 146.189 260.845C146.247 260.497 146.595 260.265 146.943 260.323C155.748 261.944 164.73 262.813 173.651 262.813C182.981 262.871 192.308 262.002 201.461 260.323C201.809 260.265 202.157 260.497 202.215 260.845C202.389 261.132 202.157 261.48 201.751 261.538ZM201.461 272.889C192.424 274.567 183.152 275.434 173.941 275.434H173.361C164.382 275.376 155.284 274.567 146.421 272.947C146.073 272.889 145.841 272.541 145.899 272.193C145.957 271.845 146.305 271.613 146.653 271.671C155.458 273.292 164.44 274.161 173.361 274.161C182.633 274.161 192.018 273.35 201.171 271.671C201.519 271.613 201.867 271.845 201.925 272.193C202.041 272.483 201.809 272.831 201.461 272.889ZM134.31 229.692H107.602L113.105 217.648H133.557C134.6 220.313 135.47 222.974 136.166 225.755L134.31 229.692ZM128.692 241.678H102.096L106.674 231.66H133.383L128.692 241.678ZM122.316 255.342H95.8975L101.226 243.704H127.764L122.316 255.342ZM116.523 267.85H90.2178L94.9697 257.369H121.391L116.523 267.85ZM110.093 281.63H83.9031L89.2929 269.876H115.595L110.093 281.63ZM104.355 293.906H78.3422L83.0333 283.599H109.165L104.355 293.906ZM118.608 205.43H127.416C128.576 207.341 129.848 209.542 131.008 211.974C131.588 213.189 132.11 214.407 132.632 215.621H113.975L118.608 205.43ZM122.084 197.846C123.186 199.235 124.635 201.087 126.14 203.404H119.536L122.084 197.846ZM126.952 203.404C125.215 200.739 123.592 198.597 122.374 197.15L124.693 192.056H151.808L146.537 203.404H126.952ZM139.932 217.648L136.569 224.827C135.934 222.397 135.122 219.965 134.252 217.648H139.932ZM133.441 215.621C132.861 214.291 132.284 212.957 131.646 211.626C130.544 209.31 129.385 207.225 128.228 205.372H145.609L140.857 215.564L133.441 215.621ZM241.208 112.264C229.042 88.9885 204.477 74.4543 177.069 74.2803C172.897 74.1064 135.586 73.7005 114.207 103.288C104.993 116.027 100.473 132.182 101.516 148.801C102.56 165.594 109.165 182.21 120.231 195.645L120.637 196.109L117.045 203.984L111.481 216.201L105.109 230.272L93.4041 255.922L81.4126 282.21L75.7908 294.486L72.4885 301.664C72.2566 302.186 72.4885 302.766 73.0104 302.998C73.1264 303.056 73.3003 303.114 73.4163 303.114C73.8222 303.114 74.1701 302.882 74.3441 302.534L77.3565 295.874H103.372L100.647 301.664C100.418 302.186 100.647 302.766 101.11 302.998C101.226 303.056 101.4 303.114 101.516 303.114C101.922 303.114 102.27 302.882 102.444 302.534L136.801 228.88C137.207 230.675 137.555 232.472 137.787 234.325C137.671 234.325 137.555 234.267 137.439 234.267V281.224C143.176 284.526 154.762 290.2 170.407 290.838C189.528 291.647 203.665 284.526 209.4 281.224C209.516 274.567 209.631 267.85 209.747 261.19C209.052 262.292 208.243 263.159 207.605 263.043C206.039 262.64 205.807 255.632 207.315 255.11C207.953 254.936 208.82 255.806 209.805 257.079C209.921 249.494 210.095 241.91 210.211 234.267C210.095 234.267 209.979 234.325 209.863 234.325C210.385 227.549 211.951 221.063 214.557 215.042C218.961 204.793 224.87 198.713 226.03 197.556C249.436 174.915 255.577 139.825 241.208 112.264Z" fill="#0F0E0C"/>
<path d="M277.13 213.711C277.13 215.331 275.857 217.01 274.06 217.648C272.497 218.228 270.41 217.938 269.427 216.662C267.919 214.752 269.83 211.684 268.557 210.814C267.745 210.295 266.701 211.452 264.965 211.336C263.051 211.22 261.546 209.483 260.619 207.979C260.793 208.73 261.025 210.295 260.561 212.148C260.155 213.769 259.343 214.925 258.821 215.505C258.476 215.099 258.186 214.694 257.838 214.175C257.2 213.189 256.852 212.322 256.621 211.568C257.026 210.582 256.563 209.541 255.809 209.194C255.058 208.846 254.246 209.368 254.188 209.368C253.666 209.368 252.854 209.252 251.985 208.904C250.828 208.44 250.074 207.805 249.61 207.399C249.494 207.979 249.204 208.962 248.508 209.947C247.928 210.756 247.351 211.278 246.888 211.568C246.83 212.09 246.714 212.957 246.946 214.001C246.192 213.711 243.933 212.609 243.237 210.466C242.31 207.515 244.51 203.346 249.262 201.493C249.204 198.078 250.712 195.239 253.086 194.253C254.942 193.503 256.794 194.082 257.258 194.253C260.677 195.413 260.329 198.423 263.341 199.988C267.049 201.899 270.41 198.887 272.149 200.797C273.596 202.36 271.337 204.502 272.671 207.863C274.06 211.104 277.13 211.278 277.13 213.711ZM172.955 35.4845C172.897 35.6005 172.781 35.7136 172.723 35.8325C172.607 35.1946 172.433 34.6756 172.32 34.3277C171.508 34.6147 170.175 35.0207 168.496 34.9627C166.93 34.9627 165.713 34.6147 164.904 34.3277C165.078 34.7887 165.423 35.8325 165.02 37.1632C164.846 37.8591 164.498 38.3809 164.208 38.7289C163.512 38.7289 162.99 39.2478 162.874 39.9437C162.816 40.6366 163.28 41.2745 163.976 41.4484C164.44 42.2573 165.078 43.707 165.194 45.6176V46.1366C159.688 44.3448 156.966 39.4218 158.009 35.8904C158.934 32.9361 162.295 31.6604 162.874 31.4313C163.918 29.0568 166.061 27.4941 168.496 27.3781C170.929 27.3201 173.941 28.8248 174.347 31.4313C174.753 33.4579 173.187 35.1946 172.955 35.4845ZM102.966 200.739C102.85 201.435 102.676 202.073 102.502 202.708C101.052 206.819 97.5762 208.962 95.5496 209.831C96.8804 206.3 98.2141 202.824 99.4898 199.292L102.966 200.739ZM100.937 168.835C100.418 170.63 99.8377 172.425 99.3158 174.219C99.1418 172.888 98.7939 171.848 98.504 171.094C97.8661 171.268 96.6513 171.5 95.2597 171.21C94.2159 171.036 93.4041 170.63 92.8851 170.282C92.7692 170.862 92.5952 171.732 92.0733 172.656C91.4935 173.758 90.6817 174.509 90.2178 174.857C89.3509 174.741 88.5971 175.205 88.4811 175.785C88.3071 176.478 88.945 177.464 90.0438 177.522C90.2178 178.794 90.2178 180.531 89.8119 182.558C89.5828 183.659 89.2349 184.584 88.887 185.396L82.7434 184.352L74.1701 192.227C73.6482 191.07 73.3583 189.855 73.8222 188.406C74.9239 185.048 78.2262 185.57 79.9629 181.691C81.5286 178.098 79.2671 176.478 80.6588 172.772C82.0504 169.125 85.8166 166.751 89.2349 165.939C95.6076 164.376 100.473 168.371 100.937 168.835ZM76.2547 199.814C75.2719 205.198 69.0123 206.877 69.7081 210.408C70.172 212.609 72.9524 214.059 75.8488 214.867L80.5428 207.689L81.0067 196.338L76.2547 199.814ZM99.3738 174.799C99.3738 174.567 99.3158 174.335 99.3158 174.161C99.8377 174.973 101.168 177 101.052 179.838C100.937 183.659 98.446 186.205 97.2283 187.191L94.7958 186.321V181.517C96.7093 181.807 97.6922 181.169 98.0401 180.937C99.7797 179.606 99.5477 176.71 99.3738 174.799Z" fill="#0F0E0C"/>
<path d="M35.8152 119.675H61.6538C63.6833 118.808 64.8401 116.723 64.5502 114.581C64.2632 112.438 62.5236 110.759 60.381 110.469H60.2071L60.1491 110.295C58.7574 105.604 54.4142 102.305 49.6623 102.305H49.4303L49.3724 102.073C48.9114 100.104 48.0416 98.1357 46.8819 96.399C44.3334 92.6357 40.5672 90.1452 36.569 89.5073C31.0053 88.6404 24.9805 91.418 21.2143 96.5149L21.0403 96.8049L20.8084 96.5729C19.9415 95.7031 16.9262 93.0416 12.8701 93.7345C8.98793 94.3724 5.86248 97.9617 5.51167 102.189V102.363L5.33771 102.421C2.90519 103.636 1.28158 106.01 1.05253 108.675C0.82059 111.742 2.61526 114.696 5.45658 116.027H32.3389L32.3969 116.201C32.8608 117.706 34.1365 118.982 35.8152 119.675ZM61.7698 120.312L35.6412 120.254C33.8466 119.501 32.4549 118.17 31.875 116.665H5.16665C2.09628 115.218 0.182742 112.032 0.414687 108.733C0.588645 105.952 2.32533 103.404 4.87672 102.073C5.33771 97.6718 8.64292 93.9665 12.699 93.2706C16.6943 92.5777 19.7676 95.0102 20.9244 96.0511C24.8065 90.899 30.9502 88.1765 36.627 89.0463C40.8571 89.6813 44.7364 92.2878 47.3457 96.167C48.5026 97.9037 49.3724 99.8144 49.8362 101.841C54.7042 101.957 59.1053 105.314 60.613 110.063C62.9295 110.469 64.7822 112.322 65.1301 114.639C65.478 117.013 64.1472 119.388 61.8858 120.312H61.7698ZM297.527 75.263H327.943C330.321 74.2802 331.71 71.7897 331.362 69.2992C331.014 66.7536 328.987 64.7849 326.381 64.495H326.207L326.149 64.3211C324.409 58.4703 318.906 54.4779 312.995 54.8809C312.821 54.8809 312.592 54.9418 312.418 54.9418L312.07 54.9969L312.012 54.707C311.548 52.2773 310.504 49.8448 309.057 47.7022C306.158 43.4171 301.873 40.5207 297.237 39.8277C290.806 38.842 283.912 42.0283 279.624 47.9342L279.45 48.2241L279.218 47.9922C278.232 47.0064 274.756 43.881 270.062 44.6319C265.603 45.3857 262.01 49.4969 261.604 54.3619V54.533L261.43 54.5939C258.592 55.9798 256.736 58.7051 256.505 61.7726C256.273 65.2459 258.302 68.6642 261.546 70.2269H293.239L293.297 70.456C293.471 72.3695 295.149 74.2802 297.527 75.263ZM328.059 75.8429L297.353 75.7849C294.859 74.7441 293.065 72.7725 292.717 70.6908H261.314C257.838 69.0672 255.635 65.4199 255.925 61.6566C256.157 58.4703 258.07 55.5768 261.025 54.072C261.546 49.033 265.255 44.8087 269.946 43.9969C274.582 43.2431 278.116 46.0235 279.392 47.2384C283.854 41.3325 290.864 38.149 297.353 39.1899C302.16 39.9437 306.622 42.8952 309.576 47.3543C311.026 49.4969 312.012 51.8714 312.534 54.3619C312.647 54.3619 312.821 54.304 312.937 54.304C319.022 53.8981 324.757 57.9513 326.613 63.9731C329.335 64.3761 331.478 66.5216 331.884 69.2992C332.289 72.0796 330.724 74.7991 328.059 75.8429Z" fill="#0F0E0C"/>
<path d="M216.642 118.518L220.234 121.528C224 117.648 227.709 113.769 231.475 109.832C230.721 109.31 229.622 108.733 228.346 108.849C226.839 109.023 226.088 110.122 223.884 111.627C222.899 112.322 221.684 113.018 220.234 113.711L216.642 118.518ZM192.54 132.936C192.946 134.499 193.352 136.062 193.758 137.625C199.319 136.584 204.822 135.543 210.385 134.499C210.037 133.571 209.342 132.241 208.127 131.719C206.677 131.142 205.459 132.009 203.085 132.299C201.867 132.473 200.072 132.531 197.695 132.009L192.54 132.936ZM227.941 249.32C229.216 246.83 229.042 244.052 227.535 242.548C226.433 241.446 224.174 240.463 222.899 241.504C222.09 242.2 221.8 243.646 222.206 245.035C222.264 245.151 222.206 245.267 222.148 245.325C224.058 246.717 226.03 247.99 227.941 249.32ZM232.055 252.101C231.243 253.722 230.199 255.458 228.926 257.253C227.593 259.221 226.204 260.845 224.928 262.234C223.826 261.48 222.67 260.729 221.568 260.033L209.921 259.801C209.4 260.958 208.878 261.712 208.53 261.654C207.663 261.48 207.489 256.734 208.359 256.502C208.762 256.386 209.342 257.137 209.979 258.239C212.18 257.659 214.383 257.021 216.526 256.444C215.427 255.4 214.267 254.359 213.166 253.316C213.746 251.695 214.789 249.494 216.584 247.236C217.744 245.789 218.961 244.748 219.944 243.936C220.466 244.284 220.988 244.632 221.452 244.977C221.046 243.356 221.452 241.852 222.438 241.04C224.058 239.709 226.723 240.808 227.999 242.084C229.738 243.878 229.967 246.888 228.52 249.668C229.68 250.48 230.895 251.289 232.055 252.101ZM222.148 141.333C221.046 138.958 218.556 136.584 216.236 136.584H215.946C212.18 136.874 209.631 143.417 207.141 149.671C204.822 155.461 202.853 160.439 201.171 164.724C206.851 164.029 212.122 161.657 215.83 158.181C219.77 154.533 224.696 146.949 222.148 141.333ZM149.607 163.394C144.391 145.673 138.483 135.137 133.615 135.137H133.499C129.964 135.253 126.024 141.159 126.024 146.427C126.024 154.533 136.05 160.497 142.423 162.292C142.423 162.292 145.609 163.22 149.607 163.394ZM217.222 159.688C212.934 163.684 206.851 166.287 200.362 166.867C196.77 176.072 194.451 182.21 193.932 184.701C191.206 197.382 190.395 210.525 191.554 223.612L189.528 223.786C188.368 210.467 189.18 197.15 191.96 184.237C192.482 181.749 194.625 176.014 198.159 166.983V166.925C192.076 167.041 186.86 165.246 184.022 161.944C181.647 159.282 180.952 155.806 180.372 152.739C179.734 149.439 179.157 146.543 176.721 145.618C175.681 145.212 174.405 145.212 173.071 145.618C170.465 146.485 169.595 149.033 168.554 152.275C167.626 155.055 166.583 158.239 164.092 160.787C161.312 163.568 157.371 165.13 152.33 165.362V165.42C154.185 172.077 155.806 179.259 156.908 185.686C158.934 197.73 159.572 210.006 158.818 222.281L156.792 222.165C157.545 210.064 156.908 197.904 154.878 186.034C153.779 179.491 152.098 172.193 150.187 165.42C145.609 165.304 142.017 164.261 141.843 164.203C134.658 162.118 123.998 155.693 123.998 146.369C123.998 140.521 128.344 133.284 133.383 133.11C141.147 132.82 147.578 149.265 151.634 163.394C156.386 163.278 160.094 161.944 162.526 159.398C164.73 157.198 165.655 154.359 166.525 151.698C167.684 148.222 168.728 144.98 172.32 143.762C174.115 143.185 175.855 143.185 177.359 143.762C180.778 145.096 181.473 148.627 182.227 152.333C182.807 155.287 183.442 158.355 185.414 160.613C188.02 163.568 193.004 165.13 198.855 164.84C200.594 160.381 202.679 155.055 205.169 148.859C208.011 141.678 210.675 134.905 215.656 134.499C219.135 134.209 222.496 137.338 223.884 140.405C227.187 147.645 220.988 156.154 217.222 159.688ZM104.877 267.386C105.225 268.314 105.515 269.181 105.862 270.108C114.207 267.966 118.263 266.577 118.147 265.823C118.031 265.243 115.247 265.127 109.687 265.475L104.877 267.386ZM55.919 222.339C49.0824 224.885 45.4902 225.755 45.0872 225.001C44.6813 224.192 48.2735 221.296 55.919 216.318L59.2793 219.153L55.919 222.339Z" fill="#0F0E0C"/>
<path d="M89.0609 184.99C86.9734 184.758 84.8308 184.468 82.7433 184.236L70.4619 195.587C65.362 197.787 60.265 200.046 55.226 202.246C55.6899 203.867 56.2089 205.43 56.6728 207.051C61.9437 205.546 67.1596 204.041 72.4305 202.533L81.1226 196.28L80.6587 207.688C81.9344 208.613 83.9031 209.889 86.5675 210.698C90.1598 211.8 93.233 211.626 94.9697 211.394C96.4773 207.34 98.0401 203.287 99.5477 199.234L108.063 202.591C113.453 203.577 118.84 204.56 124.172 205.488C124.867 204.386 125.505 203.287 126.198 202.188C121.217 200.739 116.175 199.234 111.194 197.787L99.4897 187.944C97.9821 187.306 96.5353 186.668 95.0277 186.033C94.8537 186.205 93.694 187.19 91.9573 186.958C90.1018 186.784 89.1769 185.164 89.0609 184.99ZM164.614 48.6296C162.468 48.5716 160.268 48.4527 158.122 48.3976C155.574 48.2817 152.967 48.2237 150.419 48.1077C150.245 48.8615 150.013 49.7864 149.607 50.7693C149.027 52.2189 148.273 53.3758 147.694 54.1876C149.375 54.9965 151.112 55.8083 152.967 56.5592C154.646 57.2579 156.27 57.9509 157.835 58.5858C157.951 63.1638 158.122 67.852 158.412 72.601C158.586 75.5525 158.818 78.5069 159.05 81.3453C161.37 81.7484 164.382 82.0963 167.974 81.8063C173.187 81.3453 177.301 79.7797 179.85 78.5069C179.389 75.2626 178.983 71.8472 178.693 68.2579C178.345 64.3786 178.171 60.7313 178.055 57.197C178.867 56.3301 179.676 55.4604 180.546 54.5326C182.111 52.9148 183.616 51.4071 185.124 49.9024C184.428 49.5545 183.384 48.9166 182.401 47.8178C181.531 46.8349 181.01 45.7912 180.778 45.1533C178.577 45.7912 176.316 46.487 174.057 47.2379C172.549 47.7018 171.103 48.2237 169.653 48.6876C169.537 48.8615 168.728 49.8444 167.278 49.8444C165.597 49.9024 164.672 48.7427 164.614 48.6296ZM255.925 219.616C253.26 221.991 251.926 224.307 251.234 225.986C250.654 227.375 250.48 228.302 249.668 231.138C248.856 233.86 248.102 236.003 247.641 237.392C245.96 238.436 243.527 239.708 240.399 240.636C237.384 241.503 234.719 241.735 232.75 241.793V247.003C234.139 247.119 236.169 247.119 238.543 246.887C241.614 246.6 245.438 246.194 249.378 243.878C253.55 241.445 255.867 237.972 257.142 235.713C258.244 237.044 259.343 238.665 260.503 240.52C262.01 243.066 262.993 245.44 263.689 247.409C265.948 246.484 268.499 245.208 271.279 243.472C273.886 241.793 276.031 240.056 277.768 238.493C276.666 237.16 275.162 235.017 274.118 232.066C273.248 229.691 272.961 227.549 272.845 225.986C276.031 227.259 280.548 228.647 286.054 229.169C292.369 229.807 297.701 229.111 301.351 228.302V223.611H285.59C283.796 222.455 281.302 220.889 278.232 219.152C271.917 215.563 270.12 215.157 268.905 215.041C267.223 214.867 264.153 214.809 260.271 216.778C260.851 218.111 260.329 219.616 259.169 220.254C258.07 220.831 256.736 220.541 255.925 219.616ZM300.249 293.441L324.989 293.847C327.019 293.789 328.697 292.168 328.871 290.2C329.103 288.173 327.711 286.262 325.685 285.799C325.859 285.509 326.845 283.714 326.091 281.745C325.279 279.603 322.846 278.446 320.643 278.852C317.921 279.313 316.819 282.035 316.761 282.151C316.184 279.603 313.864 278.214 311.954 278.736C310.62 279.084 309.576 280.415 309.344 282.035C308.014 279.893 305.349 279.084 303.088 280.009C300.945 280.936 299.669 283.308 300.191 285.683C298.223 285.799 296.715 287.245 296.483 288.985C296.251 291.127 297.933 293.212 300.249 293.441ZM22.5451 291.936L47.2848 292.342C49.3143 292.284 50.993 290.664 51.167 288.695C51.3989 286.668 50.0073 284.758 47.9807 284.294C48.1546 284.004 49.1404 282.209 48.3866 280.241C47.5748 278.098 45.1422 276.941 42.9388 277.344C40.2163 277.808 39.1146 280.531 39.0595 280.646C38.4796 278.098 36.1602 276.709 34.2496 277.228C32.9159 277.576 31.8721 278.91 31.6431 280.531C30.3094 278.388 27.642 277.576 25.3835 278.504C23.2409 279.429 21.9652 281.803 22.4871 284.178C20.5184 284.294 19.0108 285.741 18.7789 287.477C18.5469 289.62 20.1705 291.762 22.5451 291.936ZM222.67 287.593C222.438 285.857 220.872 284.41 218.961 284.294C219.48 281.919 218.208 279.545 216.062 278.62C213.804 277.634 211.139 278.504 209.805 280.646C209.573 279.026 208.53 277.692 207.199 277.344C205.343 276.825 202.969 278.214 202.389 280.762C202.331 280.589 201.229 277.924 198.507 277.46C196.306 277.057 193.874 278.272 193.062 280.357C192.308 282.325 193.294 284.12 193.468 284.41C191.438 284.874 190.108 286.784 190.281 288.811C190.511 290.78 192.134 292.4 194.161 292.458L218.903 292.052C221.278 291.762 222.899 289.62 222.67 287.593ZM125.908 287.593C126.14 285.857 127.706 284.41 129.616 284.294C129.097 281.919 130.37 279.545 132.516 278.62C134.774 277.634 137.439 278.504 138.772 280.646C139.004 279.026 140.045 277.692 141.379 277.344C143.234 276.825 145.609 278.214 146.189 280.762C146.247 280.589 147.346 277.924 150.071 277.46C152.272 277.057 154.704 278.272 155.516 280.357C156.27 282.325 155.284 284.12 155.11 284.41C157.14 284.874 158.47 286.784 158.296 288.811C158.064 290.78 156.444 292.4 154.414 292.458L129.674 292.052C127.242 291.762 125.621 289.62 125.908 287.593Z" fill="#FFEB9A"/>
<path d="M260.677 216.488C260.793 216.375 260.793 216.201 260.619 216.085C259.749 215.331 258.995 214.52 258.418 213.537C257.954 212.841 257.606 212.09 257.316 211.278C257.664 210.063 257.142 208.788 256.099 208.327C255.229 207.921 254.42 208.269 254.072 208.44C253.434 208.382 252.796 208.269 252.217 208.037C251.408 207.747 250.712 207.283 250.074 206.645L249.61 206.242C249.552 206.184 249.436 206.126 249.32 206.184C249.204 206.242 249.146 206.3 249.146 206.413L249.03 206.993C248.856 207.805 248.508 208.614 248.044 209.31C247.641 209.889 247.178 210.353 246.598 210.814L246.482 210.872C246.424 210.93 246.366 210.988 246.366 211.046V211.162C246.192 212.148 246.192 213.711 246.946 215.215C247.873 217.068 249.958 218.863 252.274 218.631C252.854 218.573 253.376 218.402 253.898 218.054L255.171 219.269C255.229 219.327 255.287 219.327 255.345 219.327C255.403 219.327 255.519 219.269 255.577 219.211C255.693 219.095 255.693 218.921 255.577 218.805L254.13 217.474C254.014 217.358 253.898 217.358 253.782 217.416C253.26 217.764 252.738 217.938 252.217 217.996C250.19 218.228 248.334 216.546 247.467 214.867C246.772 213.479 246.772 212.09 246.946 211.162V211.104C247.583 210.64 248.102 210.121 248.566 209.483C249.088 208.73 249.436 207.863 249.668 206.993V206.935L249.726 206.993C250.422 207.631 251.176 208.153 252.043 208.498C252.738 208.73 253.434 208.904 254.13 208.962C254.188 208.962 254.246 208.962 254.304 208.904C254.536 208.73 255.229 208.44 255.925 208.73C256.679 209.078 257.084 210.121 256.795 211.046V211.22C257.084 212.09 257.49 212.899 258.012 213.711C258.647 214.694 259.459 215.621 260.387 216.375C260.387 216.604 260.561 216.604 260.677 216.488ZM301.641 223.902C308.478 221.875 308.709 222.397 308.767 222.568C308.825 222.742 308.767 223.09 307.144 224.192C307.028 224.25 307.028 224.366 307.028 224.482C307.028 224.595 307.086 224.653 307.202 224.711C311.316 226.334 313.285 227.375 313.111 228.013C312.995 228.419 312.128 228.59 310.388 228.59C309.808 228.59 309.17 228.59 308.304 228.535C306.042 228.419 303.784 228.071 301.641 227.433C301.467 227.375 301.351 227.491 301.293 227.607C301.235 227.781 301.351 227.897 301.467 227.955C303.668 228.59 305.984 228.996 308.304 229.112C309.17 229.17 309.808 229.17 310.388 229.17C312.244 229.17 313.459 228.996 313.632 228.129C313.806 227.375 313.459 226.563 307.84 224.366C309.112 223.438 309.46 222.916 309.228 222.339C308.996 221.701 308.709 221.121 301.409 223.322C301.235 223.38 301.177 223.554 301.235 223.67C301.293 223.786 301.467 223.96 301.641 223.902ZM232.403 245.963C232.055 246.021 231.533 246.194 230.953 246.31C230.605 246.368 230.373 246.484 230.083 246.542L229.967 246.6C229.274 246.771 228.81 246.887 228.52 246.887C228.347 246.887 228.289 246.829 228.231 246.771C227.941 246.484 228.057 245.847 228.52 244.861C228.578 244.745 228.52 244.574 228.405 244.458L225.102 242.776V242.718C225.624 241.967 226.262 241.503 227.013 241.329C227.593 241.155 228.057 241.271 229.39 241.619L229.909 241.735C230.605 241.909 231.475 242.083 232.461 242.315C232.635 242.373 232.751 242.257 232.809 242.083C232.867 241.909 232.751 241.793 232.577 241.735C231.591 241.503 230.721 241.329 230.025 241.155L229.506 241.04C228.173 240.695 227.593 240.579 226.839 240.75C225.972 240.982 225.276 241.503 224.638 242.373C224.522 242.547 224.522 242.718 224.522 242.892C224.58 243.066 224.696 243.24 224.87 243.298L227.941 244.861C227.593 245.615 227.303 246.6 227.883 247.177C228.057 247.351 228.289 247.467 228.578 247.467C228.926 247.467 229.39 247.351 230.141 247.119L230.257 247.061C230.489 247.003 230.779 246.945 231.127 246.829C231.707 246.658 232.229 246.542 232.577 246.484C232.751 246.426 232.809 246.31 232.809 246.137C232.751 246.021 232.577 245.905 232.403 245.963ZM320.643 239.477C320.527 238.668 315.662 238.436 305.81 238.839H305.752V238.897C304.653 243.008 303.726 247.235 303.088 251.405C302.682 254.243 302.334 257.078 302.16 259.917C302.16 260.033 302.102 260.091 301.986 260.149C301.928 260.207 301.815 260.207 301.699 260.149L297.063 257.832L291.325 264.724C293.007 266.577 294.975 268.081 297.179 269.122C299.148 270.05 301.119 270.978 302.914 270.978C303.494 270.978 304.016 270.862 304.537 270.688C308.304 269.18 308.825 262.465 309.402 254.649C309.692 250.883 309.692 247.003 309.402 243.24C309.402 243.124 309.518 242.95 309.634 242.95C319.66 240.75 320.701 239.941 320.643 239.477ZM276.956 269.18L268.267 271.903L267.339 278.272L270.294 306.877C270.294 306.993 270.236 307.167 270.062 307.167C263.805 308.962 260.793 310.118 260.909 310.872C260.967 311.104 261.025 311.623 265.255 311.623C267.513 311.623 270.7 311.452 274.756 311.162H274.814L276.263 277.809L276.956 269.18ZM310.098 243.414C310.33 247.119 310.33 250.883 310.04 254.649C309.46 262.639 308.941 269.528 304.827 271.207C304.247 271.439 303.668 271.555 302.972 271.555C301.061 271.555 298.974 270.572 296.947 269.644C294.686 268.545 292.601 267.038 290.864 265.127C290.4 265.475 289.878 265.765 289.415 265.997C287.156 267.212 285.127 267.559 282.404 268.023C281.07 268.255 279.45 268.545 277.478 269.009L276.84 277.866L275.394 311.507C275.394 311.681 275.278 311.797 275.104 311.797H274.814C270.758 312.087 267.513 312.261 265.255 312.261C260.851 312.261 260.445 311.739 260.329 311.046C260.155 310.176 260.793 309.251 269.656 306.761L266.701 278.388V278.33L267.571 272.251C266.875 272.54 266.122 272.424 265.545 272.019C264.965 271.613 264.559 270.92 264.559 270.224L264.211 247.061C264.211 246.887 264.327 246.771 264.501 246.771C264.675 246.771 264.791 246.887 264.791 247.061L265.139 270.224C265.139 270.746 265.429 271.265 265.89 271.555C266.354 271.845 266.933 271.903 267.397 271.729L267.919 271.555L277.188 268.603C279.276 268.081 281.012 267.791 282.346 267.559C285.011 267.096 286.982 266.751 289.183 265.591C289.705 265.301 290.226 265.011 290.748 264.608L296.773 257.426C297.179 256.675 297.527 255.864 297.875 255.052C298.165 254.359 297.933 253.489 297.295 253.083L277.652 239.013C277.536 238.897 277.478 238.723 277.594 238.61C277.71 238.494 277.884 238.436 278 238.552L297.643 252.506C298.51 253.083 298.8 254.243 298.394 255.168C298.107 255.922 297.759 256.617 297.411 257.31L301.641 259.395C301.812 256.675 302.16 253.953 302.566 251.231C303.204 247.003 304.073 242.776 305.233 238.668L305.291 238.436C305.346 238.32 305.404 238.204 305.578 238.204H305.81C321.049 237.624 321.165 238.552 321.281 239.361C321.339 240.173 321.455 240.982 310.098 243.414ZM129.155 203.056C128.344 202.476 127.474 202.131 126.488 201.957C126.314 201.957 126.198 202.073 126.14 202.189C126.14 202.36 126.256 202.476 126.372 202.534C127.242 202.65 128.054 202.998 128.808 203.52C130.022 204.444 130.544 205.662 130.718 206.3L127.474 205.082C127.358 205.024 127.242 205.082 127.184 205.14C127.126 205.198 127.068 205.314 127.068 205.43C127.242 206.184 127.242 206.645 127.068 206.761H126.952C126.836 206.761 126.604 206.587 126.314 206.413C126.082 206.242 125.734 205.952 125.273 205.72C125.041 205.604 124.751 205.488 124.462 205.372C124.288 205.314 124.172 205.372 124.114 205.546C124.056 205.72 124.114 205.836 124.288 205.894C124.519 206.01 124.809 206.126 125.041 206.242C125.447 206.471 125.792 206.703 126.024 206.877C126.372 207.109 126.662 207.341 126.952 207.341C127.068 207.341 127.184 207.283 127.3 207.225C127.764 206.993 127.822 206.413 127.706 205.778L130.428 206.819C130.66 206.877 130.834 206.877 131.008 206.703C131.182 206.529 131.24 206.355 131.182 206.126C131.066 205.43 130.544 204.099 129.155 203.056ZM103.14 238.146L95.6656 211.858C95.6076 211.684 95.4916 211.626 95.3177 211.684C95.1437 211.742 95.0857 211.916 95.1437 212.032L102.618 238.32L109.803 265.417V265.475L104.993 267.386H104.935L95.5496 242.776V242.718L85.1208 226.621C85.0628 226.508 84.9469 226.508 84.8309 226.508C84.7149 226.508 84.6569 226.621 84.599 226.679C83.5552 229.634 78.1103 244.226 71.7347 244.226H71.5057C69.1283 244.11 67.1016 241.098 63.3934 235.656C60.555 231.486 58.0065 227.027 55.919 222.339L59.2793 219.211H59.3373L69.8241 230.271C69.8821 230.329 69.9981 230.387 70.114 230.329C70.23 230.329 70.288 230.214 70.346 230.098L73.4743 218.515L80.2529 208.211C80.3689 208.095 80.3109 207.921 80.1949 207.805C80.0789 207.689 79.905 207.747 79.789 207.863L73.0104 218.17C72.9524 218.228 72.9524 218.286 72.9524 218.344L69.9401 229.402L59.7432 218.747C59.5113 218.515 59.1054 218.515 58.8734 218.747L55.516 221.933C55.3392 222.107 55.2841 222.397 55.4001 222.626C57.5426 227.259 60.0331 231.718 62.9295 235.945C66.7537 241.561 68.8383 244.632 71.5057 244.745H71.7347C78.1683 244.745 83.4972 231.312 84.9469 227.375L95.0857 242.95L104.413 267.559C104.471 267.733 104.587 267.849 104.761 267.907C104.819 267.965 104.935 267.965 104.993 267.965C105.051 267.965 105.167 267.965 105.225 267.907L110.035 265.997C110.324 265.881 110.498 265.533 110.382 265.243L103.14 238.146ZM56.3249 207.457C56.4989 207.399 56.5598 207.225 56.4989 207.109C56.4438 206.935 56.2698 206.877 56.1539 206.935C55.806 207.051 55.4551 207.225 55.1101 207.399C54.4723 207.689 54.0084 208.037 53.6025 208.327C53.1386 208.614 52.7936 208.904 52.5587 208.73C52.3268 208.556 52.3268 207.979 52.6167 206.993C52.6167 206.877 52.6167 206.819 52.5587 206.703C52.5036 206.587 52.3877 206.587 52.2688 206.587L46.592 207.573L46.534 207.515C47.5777 206.01 48.9665 204.792 50.5321 203.926C51.9238 203.172 53.3705 202.708 54.9362 202.534C55.1101 202.534 55.2261 202.36 55.1652 202.247C55.1652 202.073 54.9941 201.957 54.8753 202.015C53.2546 202.189 51.6889 202.65 50.2422 203.462C48.5635 204.387 47.1138 205.662 46.0701 207.225C45.9541 207.457 45.8961 207.689 46.0701 207.921C46.1861 208.153 46.476 208.269 46.7079 208.211L51.9238 207.341C51.7498 208.211 51.6889 208.962 52.2688 209.31C52.3877 209.368 52.5587 209.426 52.7327 209.426C53.1386 209.426 53.4865 209.194 53.9504 208.846C54.2983 208.614 54.7622 208.269 55.4001 207.979C55.69 207.747 56.035 207.573 56.3249 207.457ZM89.6409 178.156C89.7539 179.664 89.6959 181.111 89.3509 182.558C89.177 183.485 88.887 184.41 88.4811 185.28C88.4231 185.454 88.4811 185.57 88.6551 185.686C88.829 185.744 88.945 185.686 89.061 185.512C89.4669 184.584 89.7539 183.659 89.9859 182.674C90.3338 181.111 90.3918 179.49 90.2758 177.869C90.2758 177.753 90.1598 177.638 90.0439 177.638C89.5829 177.522 89.177 177.29 88.945 176.884C88.7131 176.536 88.5971 176.188 88.7131 175.843C88.887 175.263 89.6409 174.857 90.3918 174.915C90.4498 174.915 90.5657 174.915 90.6237 174.857C91.3195 174.277 91.9574 173.526 92.3633 172.714C92.7692 171.964 93.0011 171.21 93.1171 170.398L92.8272 170.34H93.1751C93.868 170.804 94.6798 171.094 95.4916 171.21C96.5354 171.442 97.6922 171.384 98.736 171.094H98.794C99.2578 172.309 99.6058 173.584 99.7217 174.915C99.8957 176.826 100.186 179.722 98.3881 181.111C97.9821 181.401 97.0544 181.923 95.4916 181.749C95.4337 181.749 95.3177 181.749 95.2597 181.807C95.2017 181.865 95.1437 181.923 95.1437 182.039V186.495C95.1437 186.669 95.2597 186.785 95.4337 186.785C95.6076 186.785 95.7236 186.669 95.7236 186.495V182.384C97.2863 182.442 98.2721 181.923 98.736 181.575C100.763 180.012 100.473 176.942 100.302 174.857C100.186 173.526 99.8377 172.193 99.3738 170.92C99.2578 170.63 98.9679 170.456 98.62 170.572C97.6342 170.804 96.5934 170.862 95.6656 170.688C94.9118 170.514 94.158 170.282 93.5201 169.879C93.3462 169.763 93.1171 169.763 92.9432 169.879C92.7692 169.992 92.5952 170.166 92.5952 170.34C92.4793 171.094 92.2473 171.79 91.8994 172.483C91.4935 173.178 91.0296 173.816 90.3918 174.335H90.3338C89.3509 174.335 88.4811 174.915 88.2492 175.727C88.1332 176.188 88.2492 176.768 88.5971 177.232C88.6551 177.695 89.119 178.043 89.6409 178.156ZM163.57 41.9123C164.15 43.0691 164.498 44.3419 164.556 45.5567C164.614 46.4845 164.556 47.4123 164.324 48.2821C164.266 48.4531 164.382 48.572 164.556 48.6271H164.614C164.73 48.6271 164.846 48.5111 164.904 48.3952C165.136 47.4703 165.191 46.4845 165.136 45.5017C165.078 44.11 164.672 42.7212 163.976 41.5035C163.918 41.4484 163.86 41.3904 163.802 41.3904C163.164 41.1585 162.758 40.5206 162.816 39.8857C162.874 39.2479 163.396 38.726 164.034 38.668C164.092 38.668 164.208 38.61 164.208 38.552C164.498 38.091 164.73 37.6271 164.904 37.1053C165.249 35.8876 164.962 34.8467 164.788 34.3248L164.846 34.2668C166.003 34.6727 167.162 34.9047 168.38 34.9047C169.653 34.9047 170.987 34.6727 172.204 34.2668H172.262C172.549 35.2526 172.781 36.2355 172.955 37.2212C173.361 39.8277 173.825 43.0112 172.204 44.3999C171.74 44.8058 171.277 44.9218 170.813 44.9798C170.291 45.0958 169.885 45.2117 169.537 45.6756C169.131 46.2555 169.073 47.1224 169.421 48.2821C169.479 48.4531 169.653 48.5111 169.769 48.4531C169.943 48.3952 170.001 48.2212 169.943 48.1081C169.653 47.1804 169.653 46.4845 170.001 46.0206C170.175 45.7336 170.407 45.6756 170.929 45.5567C171.393 45.4437 171.972 45.3277 172.549 44.8638C174.463 43.2431 173.941 39.8857 173.535 37.1633C173.361 36.1224 173.129 35.0787 172.839 34.0958C172.781 33.9218 172.665 33.8059 172.491 33.687C172.32 33.6319 172.146 33.6319 172.03 33.687C170.871 34.0958 169.653 34.3248 168.438 34.3248C167.278 34.3248 166.177 34.0958 165.078 33.687C164.846 33.6319 164.614 33.687 164.44 33.8059C164.266 33.9769 164.208 34.2089 164.266 34.4408C164.44 34.9047 164.672 35.8325 164.382 36.8733C164.266 37.2792 164.092 37.6851 163.86 38.0301C162.99 38.2041 162.353 38.8999 162.237 39.7668C162.237 40.6946 162.758 41.5644 163.57 41.9123ZM204.419 90.2031C204.361 90.1452 204.303 90.0872 204.187 90.0292L178.751 77.7535C178.635 77.6955 178.461 77.7535 178.345 77.8695C178.287 77.9826 178.345 78.1565 178.461 78.2725L203.897 90.5511L220.872 112.728L216.526 118.518H216.468L198.449 97.6718L198.333 97.5558L179.618 92.0558C179.505 91.9978 179.331 92.0558 179.273 92.1718C179.215 92.2878 179.215 92.4037 179.331 92.5197L191.902 105.604L198.507 131.834L198.449 131.892L192.366 132.936L182.401 111.104C182.401 111.046 182.343 111.046 182.343 110.988L159.166 91.8818V80.302C159.166 80.1281 159.05 80.0121 158.876 80.0121C158.702 80.0121 158.586 80.1281 158.586 80.302V91.8818C158.586 92.0558 158.644 92.2298 158.818 92.3457L181.937 111.394L191.844 133.165C191.96 133.397 192.192 133.513 192.424 133.513H192.54L198.565 132.414C198.739 132.356 198.913 132.298 198.971 132.124C199.087 131.95 199.087 131.776 199.029 131.66L192.424 105.43C192.424 105.314 192.366 105.198 192.25 105.14L180.488 92.8647L198.101 98.0777L216.062 118.866C216.178 119.037 216.41 119.095 216.584 119.095C216.758 119.095 216.932 118.982 217.048 118.866L221.394 113.073C221.568 112.844 221.568 112.554 221.394 112.322L204.419 90.2031ZM179.908 46.1366L183.384 43.1851L183.442 43.1271L193.178 26.1053V26.0444C193.987 23.1509 194.509 21.8172 194.857 21.8752C194.973 21.8752 195.205 21.9361 195.147 24.4237C195.147 24.5397 195.205 24.5977 195.263 24.6556C195.321 24.7136 195.437 24.7136 195.552 24.7136C199.435 23.2089 201.519 22.745 201.867 23.3829C202.157 23.8438 201.403 25.0036 200.015 26.2184C198.797 27.3172 197.234 28.0159 195.494 28.3059C195.379 28.3059 195.321 28.361 195.263 28.4769L187.556 47.4123L183.442 50.8277C183.326 50.9437 183.326 51.1176 183.384 51.2336C183.442 51.2916 183.5 51.3496 183.616 51.3496C183.674 51.3496 183.732 51.3496 183.79 51.2916L187.904 47.8733C187.962 47.8182 188.02 47.7022 188.078 47.6442L195.668 28.8249C197.466 28.5349 199.029 27.726 200.304 26.6243C201.287 25.7545 202.911 24.0787 202.273 23.0929C201.809 22.2811 200.536 22.1651 195.668 24.0787C195.726 22.1072 195.494 21.4722 194.857 21.3562C194.161 21.2374 193.758 21.6462 192.54 25.8705L182.923 42.7792L179.505 45.7336C179.389 45.8467 179.389 46.0206 179.447 46.1366C179.618 46.2555 179.792 46.2555 179.908 46.1366ZM150.651 48.4531C150.593 48.6271 150.477 48.6851 150.303 48.6851L148.795 48.2821C148.737 48.2821 148.737 48.2212 148.679 48.2212L132.919 34.9627L132.861 34.9047C129.558 30.4456 128.808 30.0976 128.576 30.2716C128.46 30.3325 128.344 30.6195 128.808 31.9503C128.866 32.0692 128.808 32.1822 128.75 32.2402C128.692 32.2982 128.576 32.3591 128.46 32.2982C125.273 31.0834 123.534 30.7355 123.128 31.3154C123.012 31.4893 123.012 31.6604 123.128 31.9503C123.476 33.052 125.215 34.7887 127.184 35.6005C128.112 35.9484 129.097 36.1775 130.08 36.1775C130.138 36.1775 130.254 36.2355 130.312 36.2935L143.869 52.2164L147.404 53.3762C147.578 53.4342 147.636 53.6081 147.578 53.7241C147.52 53.8401 147.404 53.898 147.288 53.898H147.175L143.638 52.7383C143.524 52.6803 143.466 52.6253 143.408 52.5644L129.964 36.7574C128.924 36.7574 127.88 36.5254 126.952 36.1224C124.751 35.1946 122.954 33.342 122.606 32.1243C122.49 31.7213 122.49 31.3154 122.664 31.0254C122.954 30.6195 123.418 29.8077 128.112 31.5473C127.822 30.6195 127.822 30.0426 128.344 29.7526C128.924 29.4047 129.385 29.1148 133.383 34.4988L149.085 47.7022L150.535 48.0472C150.593 48.1632 150.651 48.3372 150.651 48.4531Z" fill="#0F0E0C"/>
<path d="M208.414 278.098C208.82 277.228 207.605 275.898 207.489 275.782C207.373 276.014 206.735 277.228 207.257 278.04C207.315 278.156 207.547 278.504 207.837 278.504C208.127 278.562 208.356 278.156 208.414 278.098ZM201.693 276.825C202.563 275.956 201.635 273.813 201.577 273.639C201.287 273.871 200.073 275.086 200.304 276.304C200.362 276.478 200.42 276.999 200.826 277.113C201.229 277.286 201.693 276.825 201.693 276.825ZM207.431 269.296C207.837 268.429 206.619 267.095 206.503 266.979C206.387 267.211 205.749 268.429 206.271 269.238C206.329 269.354 206.561 269.702 206.851 269.702C207.141 269.76 207.373 269.354 207.431 269.296ZM202.621 267.559C202.273 267.443 202.157 266.924 202.099 266.75C201.867 265.533 203.085 264.318 203.375 264.086C203.433 264.26 204.361 266.402 203.491 267.269C203.491 267.269 203.027 267.675 202.621 267.559Z" fill="white"/>
</svg>
