<svg width="365" height="413" viewBox="0 0 365 413" fill="none" xmlns="http://www.w3.org/2000/svg">
<path d="M145.928 305.427C131.767 334.636 98.774 348.772 98.774 348.772C98.774 348.772 88.7459 315.515 102.91 286.322C117.072 257.129 138.186 237.71 150.062 242.977C161.941 248.244 160.093 276.221 145.928 305.427Z" fill="#FF8700"/>
<path d="M146.561 294.579C134.8 318.834 107.407 330.562 107.407 330.562C107.407 330.562 99.091 302.968 110.844 278.719C122.597 254.468 140.132 238.355 149.992 242.734C159.855 247.116 158.319 270.325 146.561 294.579Z" fill="#FFA800"/>
<path d="M147.239 282.906C138.081 301.827 116.698 310.978 116.698 310.978C116.698 310.978 110.202 289.453 119.377 270.532C128.549 251.611 142.225 239.045 149.917 242.463C157.612 245.883 156.416 263.985 147.239 282.906Z" fill="#FFCC5A"/>
<path d="M182.9 211.935C182.9 211.935 194.47 215.802 209.196 213.091C209.196 213.091 221.533 246.829 160.061 282.071C160.061 282.071 191.312 246.885 165.648 238.523L182.9 211.935Z" fill="#FFDF60"/>
<path d="M148.294 196.911C148.294 196.911 137.98 190.337 130.501 177.042C130.501 177.042 97.5564 189.101 111.038 259.984C111.038 259.984 116.983 212.822 139.707 227.553L148.294 196.911Z" fill="#FFEB9A"/>
<path d="M159.673 255.088C158.347 258.032 154.922 259.295 152.017 257.913L135.211 249.887C132.315 248.507 131.044 244.999 132.367 242.058L137.049 231.682C138.38 228.74 141.808 227.475 144.7 228.863L161.512 236.888C164.408 238.268 165.684 241.777 164.354 244.719L159.673 255.088Z" fill="white"/>
<path d="M167.574 255.229C166.91 256.699 165.195 257.332 163.742 256.639L128.724 239.921C127.28 239.228 126.644 237.48 127.308 236.008L135.648 217.521C136.314 216.049 138.023 215.42 139.475 216.112L174.486 232.829C175.94 233.518 176.581 235.27 175.914 236.743L167.574 255.229Z" fill="#434343"/>
<path d="M176.335 122.479C165.07 135.79 156.465 147.845 146.663 169.553C137.007 190.963 130.68 211.81 127.999 229.108L173.223 250.701C184.341 237.426 195.738 219.004 205.398 197.59C215.202 175.884 218.596 161.342 221.212 143.902C221.228 143.757 221.259 143.607 221.271 143.461L176.618 122.143C176.526 122.257 176.427 122.365 176.335 122.479Z" fill="white"/>
<path d="M170.254 195C170.254 195 158.701 205.453 151.326 200.218L130.435 283.216L170.254 195Z" fill="#FFEB9A"/>
<path d="M170.28 194.981C170.28 194.981 169.973 210.809 178.618 213.227L130.447 283.224L170.28 194.981Z" fill="#FFDF60"/>
<path d="M176.382 122.838L198.761 133.517L215.732 95.9073C211.203 93.746 190.45 106.371 176.382 122.838Z" fill="#FFEB9A"/>
<path d="M215.775 95.9056L198.884 133.341L221.155 143.979C224.288 122.398 220.13 97.9824 215.775 95.9056Z" fill="#FFDF60"/>
<rect x="154.204" y="184.762" width="60.063" height="37.3562" rx="7.32475" transform="rotate(-65.2593 154.204 184.762)" fill="#434343"/>
<rect x="156.913" y="183.66" width="55.9956" height="33.0838" rx="6.48703" transform="rotate(-65.2593 156.913 183.66)" fill="white"/>
<path d="M168.952 176.291C168.856 176.499 168.781 176.709 168.726 176.919C168.667 177.12 168.642 177.311 168.651 177.492C168.654 177.67 168.7 177.834 168.79 177.986C168.874 178.134 169.013 178.253 169.208 178.342C169.576 178.512 169.889 178.5 170.146 178.307C170.407 178.107 170.656 177.75 170.893 177.236L171.205 176.558L169.256 175.659C169.21 175.74 169.165 175.828 169.12 175.926C169.075 176.023 169.019 176.145 168.952 176.291ZM167.589 175.574C167.723 175.282 167.897 174.949 168.112 174.576C168.329 174.196 168.567 173.834 168.827 173.49L175.896 176.747L175.146 178.374L172.55 177.178L172.32 177.678C172.278 177.768 172.238 177.855 172.2 177.939C172.161 178.022 172.108 178.12 172.039 178.231C172.246 178.605 172.522 179.04 172.867 179.535C173.208 180.021 173.57 180.496 173.955 180.96L173.162 182.68C172.935 182.423 172.714 182.162 172.5 181.895C172.289 181.62 172.093 181.353 171.91 181.092C171.727 180.83 171.563 180.582 171.418 180.347C171.267 180.109 171.139 179.894 171.033 179.702C170.893 179.823 170.732 179.934 170.551 180.036C170.365 180.127 170.165 180.195 169.951 180.24C169.737 180.284 169.504 180.295 169.254 180.272C168.999 180.239 168.729 180.157 168.444 180.026C168.048 179.843 167.736 179.606 167.507 179.316C167.282 179.018 167.135 178.68 167.064 178.303C166.997 177.918 167.01 177.498 167.101 177.043C167.189 176.578 167.352 176.088 167.589 175.574Z" fill="#FF0000"/>
<path d="M178.795 170.456L178.079 172.009L175.911 171.01L175.166 172.626L177.335 173.625L176.619 175.179L171.135 172.652L171.85 171.098L173.894 172.04L174.639 170.424L172.595 169.482L173.311 167.929L178.795 170.456ZM177.954 168.934L178.267 168.256C178.12 167.952 177.897 167.668 177.598 167.404C177.294 167.13 176.958 166.882 176.588 166.661C176.214 166.429 175.834 166.221 175.448 166.034C175.062 165.848 174.716 165.684 174.41 165.543L176.38 161.269L180.592 163.21L181.02 162.282L183.856 163.589L183.245 164.913L181.682 164.192L179.837 168.196L181.401 168.916L180.79 170.24L177.954 168.934ZM179.876 164.763L176.936 163.408L176.35 164.68C176.587 164.806 176.833 164.941 177.087 165.083C177.338 165.216 177.581 165.365 177.815 165.533C178.046 165.69 178.266 165.862 178.474 166.051C178.682 166.239 178.858 166.443 179.002 166.661L179.876 164.763ZM179.902 160.949C179.416 160.724 179.025 160.456 178.731 160.144C178.433 159.821 178.219 159.482 178.088 159.126C177.956 158.771 177.9 158.408 177.919 158.038C177.942 157.66 178.03 157.305 178.183 156.971C178.542 156.193 179.065 155.688 179.753 155.457C180.434 155.223 181.237 155.319 182.161 155.745C182.251 155.787 182.351 155.837 182.459 155.895C182.56 155.95 182.65 156 182.731 156.046L181.107 159.57C181.442 159.682 181.765 159.65 182.074 159.472C182.384 159.294 182.641 158.983 182.846 158.538C182.977 158.253 183.081 157.964 183.157 157.671C183.23 157.367 183.268 157.111 183.272 156.902L184.629 157.274C184.632 157.377 184.623 157.508 184.601 157.666C184.578 157.824 184.541 157.996 184.489 158.183C184.446 158.366 184.391 158.559 184.322 158.764C184.253 158.968 184.174 159.167 184.084 159.362C183.857 159.855 183.585 160.253 183.27 160.554C182.957 160.848 182.62 161.059 182.257 161.187C181.891 161.305 181.507 161.343 181.105 161.301C180.707 161.252 180.306 161.134 179.902 160.949ZM180.99 157.026C180.854 156.972 180.715 156.937 180.57 156.921C180.429 156.898 180.291 156.906 180.155 156.944C180.022 156.976 179.896 157.04 179.776 157.136C179.659 157.226 179.559 157.361 179.475 157.541C179.395 157.715 179.358 157.879 179.363 158.033C179.361 158.184 179.389 158.323 179.448 158.451C179.507 158.58 179.591 158.699 179.701 158.808C179.807 158.907 179.921 158.998 180.043 159.08L180.99 157.026ZM182.679 152.647C182.603 152.427 182.517 152.193 182.42 151.946C182.326 151.693 182.233 151.447 182.14 151.211C182.04 150.971 181.943 150.741 181.851 150.521C181.758 150.302 181.675 150.107 181.601 149.938L182.471 148.051C182.553 148.258 182.653 148.515 182.773 148.822C182.895 149.123 183.022 149.443 183.153 149.781C183.276 150.116 183.398 150.455 183.519 150.797C183.642 151.132 183.747 151.445 183.831 151.737C184.087 151.602 184.388 151.471 184.733 151.344C185.078 151.216 185.438 151.104 185.811 151.006C186.188 150.902 186.562 150.813 186.933 150.739C187.307 150.659 187.649 150.602 187.96 150.568L187.143 152.341C186.898 152.379 186.637 152.432 186.362 152.499C186.08 152.563 185.801 152.637 185.527 152.721C185.245 152.802 184.976 152.892 184.719 152.993C184.465 153.087 184.24 153.181 184.045 153.276L186.244 154.29L185.529 155.844L180.044 153.317L180.76 151.763L182.679 152.647ZM185.397 148.915C185.001 148.732 184.658 148.499 184.368 148.213C184.074 147.918 183.855 147.589 183.71 147.227C183.558 146.862 183.486 146.471 183.493 146.053C183.5 145.635 183.606 145.204 183.811 144.759C183.946 144.467 184.097 144.212 184.264 143.994C184.425 143.773 184.607 143.571 184.81 143.386L185.902 144.281C185.779 144.402 185.657 144.539 185.535 144.693C185.413 144.848 185.303 145.033 185.203 145.249C184.992 145.707 184.976 146.117 185.155 146.478C185.338 146.831 185.662 147.116 186.127 147.33C186.621 147.558 187.051 147.63 187.418 147.546C187.789 147.455 188.096 147.146 188.339 146.618C188.426 146.43 188.501 146.22 188.566 145.989C188.63 145.757 188.666 145.534 188.673 145.318L190.046 145.685C190.039 145.901 190.001 146.157 189.931 146.454C189.862 146.751 189.752 147.062 189.602 147.389C189.371 147.89 189.099 148.287 188.787 148.581C188.467 148.872 188.125 149.076 187.759 149.194C187.396 149.305 187.015 149.336 186.616 149.287C186.214 149.228 185.807 149.104 185.397 148.915ZM183.829 185.816L185.757 186.705L185.315 187.664L182.521 186.377L182.872 185.615C182.632 185.075 182.312 184.599 181.912 184.187C181.508 183.765 181.055 183.388 180.551 183.054C180.043 182.711 179.501 182.398 178.924 182.115C178.349 181.825 177.765 181.539 177.17 181.256L179.054 177.169L185.414 180.1L185.832 179.193L188.626 180.481L188.184 181.44L186.255 180.551L183.829 185.816ZM178.492 180.665C178.941 180.897 179.399 181.137 179.866 181.386C180.329 181.625 180.778 181.895 181.212 182.196C181.642 182.487 182.048 182.813 182.43 183.174C182.811 183.535 183.143 183.949 183.425 184.416L184.948 181.111L179.453 178.579L178.492 180.665ZM183.844 171.519L189.266 174.017L188.833 174.956L184.705 173.053C184.873 173.383 185.076 173.755 185.315 174.169C185.555 174.582 185.808 175.002 186.075 175.429C186.335 175.852 186.596 176.263 186.859 176.662C187.121 177.061 187.357 177.41 187.565 177.708L187.166 178.574L181.745 176.075L182.177 175.137L186.076 176.934C185.861 176.615 185.629 176.26 185.38 175.867C185.124 175.471 184.878 175.071 184.643 174.668C184.404 174.254 184.18 173.852 183.973 173.462C183.761 173.061 183.587 172.698 183.45 172.374L183.844 171.519ZM189.067 167.344C188.434 167.053 187.876 166.985 187.391 167.141C186.906 167.297 186.544 167.635 186.304 168.157C186.169 168.448 186.074 168.683 186.018 168.859C185.965 169.029 185.93 169.168 185.913 169.278L189.333 170.854C189.485 170.781 189.657 170.654 189.85 170.473C190.043 170.292 190.2 170.07 190.322 169.806C190.45 169.528 190.51 169.269 190.502 169.03C190.491 168.78 190.427 168.553 190.311 168.347C190.188 168.139 190.021 167.953 189.81 167.788C189.593 167.62 189.345 167.472 189.067 167.344ZM189.533 166.333C189.943 166.522 190.296 166.752 190.593 167.023C190.892 167.288 191.119 167.582 191.273 167.906C191.427 168.23 191.503 168.577 191.501 168.946C191.503 169.309 191.414 169.685 191.234 170.075C191.09 170.387 190.92 170.646 190.725 170.851C190.532 171.049 190.371 171.189 190.24 171.272L192.409 172.272L191.962 173.241L184.778 169.931C184.828 169.676 184.9 169.364 184.995 168.994C185.085 168.615 185.235 168.199 185.443 167.747C185.635 167.33 185.874 166.985 186.16 166.713C186.446 166.44 186.765 166.241 187.117 166.117C187.469 165.993 187.851 165.95 188.264 165.988C188.672 166.016 189.095 166.131 189.533 166.333ZM190.022 165.271C189.543 165.05 189.158 164.788 188.867 164.486C188.57 164.18 188.356 163.858 188.225 163.52C188.095 163.182 188.039 162.836 188.059 162.483C188.078 162.129 188.16 161.796 188.304 161.483C188.641 160.754 189.128 160.3 189.766 160.122C190.397 159.941 191.178 160.065 192.11 160.494C192.152 160.513 192.207 160.539 192.277 160.571C192.339 160.6 192.397 160.631 192.449 160.663L190.739 164.375C191.321 164.593 191.824 164.626 192.247 164.476C192.67 164.325 193.021 163.948 193.3 163.343C193.457 163.002 193.56 162.705 193.61 162.45C193.657 162.185 193.679 161.98 193.678 161.836L194.554 162.075C194.562 162.222 194.532 162.461 194.464 162.792C194.399 163.116 194.28 163.466 194.107 163.841C193.889 164.314 193.63 164.692 193.331 164.975C193.028 165.249 192.7 165.439 192.348 165.546C191.995 165.653 191.623 165.684 191.231 165.638C190.835 165.582 190.433 165.46 190.022 165.271ZM191.206 161.304C190.771 161.095 190.362 161.041 189.978 161.143C189.591 161.234 189.306 161.477 189.123 161.873C189.021 162.096 188.975 162.315 188.985 162.53C188.991 162.735 189.037 162.929 189.122 163.111C189.206 163.294 189.323 163.461 189.471 163.614C189.623 163.76 189.788 163.886 189.966 163.994L191.206 161.304ZM193.508 157.048C193.76 156.903 194.062 156.76 194.414 156.619C194.759 156.474 195.121 156.346 195.501 156.235C195.884 156.117 196.266 156.019 196.647 155.942C197.021 155.861 197.364 155.804 197.674 155.77L197.146 156.917C196.839 156.961 196.516 157.031 196.177 157.128C195.833 157.214 195.496 157.315 195.164 157.432C194.832 157.549 194.516 157.677 194.216 157.817C193.915 157.956 193.653 158.097 193.428 158.237L195.993 159.419L195.546 160.389L190.124 157.891L190.571 156.921L192.896 157.992C192.813 157.752 192.717 157.476 192.608 157.164C192.492 156.85 192.375 156.535 192.259 156.22C192.139 155.895 192.025 155.594 191.917 155.317C191.802 155.036 191.706 154.806 191.628 154.627L192.147 153.501C192.243 153.731 192.351 154 192.471 154.308C192.586 154.605 192.704 154.917 192.824 155.241C192.947 155.559 193.07 155.877 193.193 156.195C193.309 156.51 193.414 156.794 193.508 157.048ZM194.468 148.464L195.281 148.839L194.469 150.601L199.078 152.725L198.631 153.694L194.023 151.571L193.211 153.333L192.397 152.958L194.468 148.464Z" fill="#434343"/>
</svg>
