<svg width="569" height="569" viewBox="0 0 569 569" fill="none" xmlns="http://www.w3.org/2000/svg">
<path d="M263.401 560.964C299.881 556.504 453.885 556.448 521.538 432.14C586.824 312.171 585.488 110.259 470.247 36.04C353.263 -39.3025 4.58334 27.3237 5.88671 196.263C6.14326 229.373 61.4291 262.08 66.363 307.152C74.1667 378.414 -3.77749 408.821 2.64434 461.859C10.0516 523.062 141.82 575.824 263.401 560.964Z" fill="white"/>
<g clip-path="url(#clip0_296_7)">
<path d="M371.603 71.7519C345.008 72.8163 337.205 84.1438 336.671 89.6365C336.14 95.1223 355.288 133.896 355.288 133.896L381.531 132.301C381.531 132.301 386.496 122.387 391.993 111.056C397.485 99.7252 398.197 70.6911 371.603 71.7519ZM262.941 223.12L241.057 138.14C240.251 135.016 237.432 132.828 234.2 132.818L117.341 132.504C112.578 132.49 109.155 137.068 110.519 141.626L136.05 226.917C136.95 229.918 139.714 231.973 142.854 231.973H256.063C260.704 231.973 264.096 227.604 262.941 223.12ZM312.292 458.764L294.913 468.109C294.973 469.205 295.008 470.283 295.008 471.334H238.625C238.625 471.334 245.72 460.711 260.257 460.711C274.795 460.711 273.735 450.797 273.735 450.797L291.745 444.955C291.745 444.955 292.457 445.852 292.781 447.227L304.58 443.099C304.58 443.099 310.432 449.471 312.292 458.764Z" fill="#100F0D"/>
<path d="M314.511 267.734H240.045V265.256H210.16C203.268 265.256 198.281 258.682 200.151 252.058L205.864 231.794H255.532C260.121 231.794 263.482 227.473 262.337 223.038L259.361 211.484H132.246L136.828 226.789C137.718 229.763 140.453 231.794 143.559 231.794H166.769L160.746 254.1C158.889 260.974 164.079 267.734 171.208 267.734H104.625V297.48H314.511V267.734ZM432.236 298.893L359.542 288.982C359.542 288.982 276.212 310.58 256 315.183C235.791 319.786 224.443 333.95 232.242 360.151C240.045 386.355 263.447 453.629 263.447 453.629L292 445.302L293.012 447.63L312.027 441.237L293.312 352.718C304.178 352.718 320.269 352.718 343.943 352.718C407.061 352.718 432.769 361.568 432.236 298.893ZM224.056 178.161C222.311 174.165 220.367 170.32 218.322 166.648L224.087 178.332C224.087 178.332 224.073 178.259 224.056 178.161ZM190.398 129.466H243.238C243.238 129.466 257.86 136.187 268.413 156.905C279.053 177.798 284.015 202.938 284.015 202.938H231.356C231.202 201.845 231.014 200.753 230.815 199.664L222.667 209.491C222.667 209.491 221.602 208.427 213.272 194.793C205.072 181.378 217.635 166.607 218.039 166.135C205.937 144.604 190.398 129.466 190.398 129.466ZM334.8 125.62L330.114 125.749L335.17 118.446L336.671 89.6348L347.841 94.7681C347.841 94.7681 347.489 107.868 357.417 113.002L360.607 102.909C360.607 102.909 369.474 101.849 369.121 109.994C369.045 111.735 368.608 113.302 367.977 114.687C364.058 123.212 370.186 133.172 379.562 132.554C380.212 132.512 380.864 132.429 381.531 132.3L382.417 145.047L359.368 149.65L359.542 140.619L351.917 143.624C343.291 147.022 334.029 140.378 334.511 131.124L334.8 125.62Z" fill="white"/>
<path d="M345.008 292.787L332.242 213.917C332.242 213.917 292.17 251.805 282.595 260.302C273.023 268.799 259.901 270.572 249.621 257.116C239.333 243.66 213.45 204.003 213.45 204.003L234.727 195.15L265.22 234.098C265.22 234.098 309.901 188.069 321.25 177.091C332.595 166.116 354.224 157.971 354.224 157.971L356 148.765L383.303 136.726L387.205 150.89C387.205 150.89 404.936 161.16 412.735 165.76C420.535 170.363 422.663 180.28 424.44 194.089C426.209 207.894 434.72 283.316 435.785 297.833C436.849 312.35 397.133 335.012 353.159 291.461L345.008 292.787Z" fill="#FFEB9A"/>
<path d="M217.205 166.065C215.195 168.588 204.95 182.501 212.683 195.155C213.852 197.067 214.874 198.512 215.774 199.782C216.399 200.662 216.961 201.454 217.464 202.26C217.596 202.466 217.823 202.584 218.053 202.584C218.179 202.584 218.305 202.546 218.423 202.476C218.744 202.274 218.842 201.848 218.64 201.524C218.116 200.697 217.54 199.883 216.905 198.983C216.015 197.73 215.007 196.307 213.862 194.433C206.981 183.175 215.412 170.685 217.921 167.395L223.466 178.635C223.619 178.945 223.975 179.092 224.303 178.987C224.631 178.879 224.83 178.548 224.767 178.209C224.757 178.136 223.511 171.226 222.45 167.178C222.063 165.685 222.356 164.844 222.82 164.676C223.368 164.484 224.31 165.018 224.879 166.229C225.734 168.044 225.902 168.351 226.976 170.357C227.706 171.708 228.854 173.851 230.92 177.766C235.809 187.024 230.435 195.912 230.382 195.999C230.176 196.327 230.281 196.75 230.606 196.952C230.927 197.151 231.356 197.053 231.555 196.725C231.799 196.338 237.41 187.097 232.148 177.124C230.075 173.201 228.924 171.055 228.194 169.701C227.109 167.684 226.969 167.426 226.132 165.643C225.172 163.605 223.497 162.963 222.349 163.378C221.327 163.751 220.461 165.036 221.11 167.527C221.505 169.028 221.923 170.93 222.293 172.727C221.208 170.514 220.07 168.347 218.894 166.243L218.681 165.807C218.657 165.765 218.619 165.741 218.591 165.702C208.471 147.755 195.897 134.131 192.052 130.156H243.078C244.543 130.886 257.996 137.98 267.795 157.219C277.193 175.676 282.2 197.744 283.164 202.246H241.117C240.733 202.246 240.422 202.557 240.422 202.937C240.422 203.321 240.733 203.628 241.117 203.628H284.015C284.221 203.628 284.42 203.537 284.552 203.377C284.682 203.216 284.734 203.007 284.692 202.804C284.647 202.553 279.587 177.33 269.027 156.598C258.488 135.893 244.132 129.116 243.524 128.837C243.434 128.795 243.336 128.774 243.238 128.774H190.398C190.118 128.774 189.864 128.945 189.759 129.204C189.651 129.465 189.717 129.765 189.916 129.961C190.087 130.128 205.305 145.071 217.205 166.065ZM261.632 229.504C263.105 227.609 263.607 225.187 263.004 222.863L260.034 211.309C259.936 210.939 259.563 210.719 259.19 210.813C258.82 210.911 258.596 211.284 258.691 211.651L261.667 223.208C262.159 225.114 261.747 227.096 260.537 228.656L261.632 229.504ZM433.251 449.043L402.127 353.276C402.039 353 402.13 352.714 402.336 352.536C392.903 354.061 381.143 353.932 366.797 353.68C367.097 353.823 367.265 354.155 367.167 354.483L339.529 449.043H383.677V356.256C383.677 355.872 383.984 355.565 384.368 355.565C384.752 355.565 385.059 355.872 385.059 356.256V449.043H433.251ZM292.345 353.408H272.496L295.678 444.255C295.772 444.611 295.559 444.981 295.203 445.085L293.137 445.689L293.619 446.767L311.224 440.779L292.345 353.408ZM181.872 268.445V296.788H313.82V268.424H181.869C181.869 268.431 181.872 268.438 181.872 268.445ZM180.49 296.788V268.445C180.49 268.438 180.49 268.431 180.49 268.424H105.316V296.788H180.49ZM171.208 267.042H239.354V265.947H210.16C206.656 265.947 203.435 264.348 201.317 261.56C199.202 258.768 198.532 255.24 199.485 251.873L204.95 232.484H167.449L161.416 254.284C160.589 257.348 161.22 260.555 163.157 263.074C165.09 265.598 168.029 267.042 171.208 267.042ZM441.494 472.169C441.427 472.19 441.351 472.2 441.281 472.2C440.988 472.2 440.719 472.015 440.625 471.722L433.701 450.425H385.059V472.043C385.059 472.424 384.752 472.734 384.368 472.734C383.984 472.734 383.677 472.424 383.677 472.043V450.425H339.124L332.905 471.705C332.818 472.005 332.539 472.2 332.242 472.2C332.176 472.2 332.113 472.19 332.047 472.172C331.681 472.064 331.468 471.684 331.576 471.314L337.756 450.184C337.648 450.062 337.578 449.908 337.578 449.734C337.578 449.42 337.791 449.165 338.077 449.081L365.841 354.099C365.897 353.897 366.04 353.754 366.218 353.67C365.729 353.663 365.244 353.652 364.749 353.642C358.181 353.53 351.394 353.408 343.943 353.408H315.202V471.509C315.202 471.89 314.892 472.2 314.511 472.2C314.127 472.2 313.82 471.89 313.82 471.509V353.408H293.762L312.704 441.09C312.777 441.432 312.585 441.777 312.25 441.892L293.465 448.282C293.392 448.306 293.315 448.32 293.242 448.32C292.977 448.32 292.725 448.163 292.61 447.909L291.797 446.077L263.642 454.291C263.576 454.312 263.513 454.319 263.447 454.319C263.161 454.319 262.896 454.141 262.794 453.855C262.557 453.181 239.295 386.267 231.579 360.349C227.828 347.741 228.281 337.314 232.94 329.354C237.253 321.984 244.959 316.99 255.846 314.509C266.207 312.15 291.633 305.792 313.82 300.191V298.17H181.872V471.509C181.872 471.89 181.562 472.2 181.181 472.2C180.801 472.2 180.49 471.89 180.49 471.509V298.17H105.316V471.509C105.316 471.89 105.005 472.2 104.625 472.2C104.241 472.2 103.93 471.89 103.93 471.509V267.733C103.93 267.353 104.241 267.042 104.625 267.042H165.75C164.337 266.285 163.073 265.235 162.058 263.916C159.859 261.047 159.141 257.407 160.079 253.921L166.015 232.484H143.559C140.174 232.484 137.135 230.226 136.165 226.988L131.583 211.682C131.474 211.316 131.68 210.928 132.047 210.82C132.41 210.712 132.797 210.918 132.909 211.284L137.491 226.593C138.286 229.249 140.781 231.102 143.559 231.102H231.321L232.357 232.484H206.387L200.818 252.246C199.984 255.191 200.57 258.283 202.42 260.726C204.273 263.165 207.092 264.565 210.16 264.565H240.045C240.426 264.565 240.736 264.875 240.736 265.256V267.042H314.511C314.892 267.042 315.202 267.353 315.202 267.733V299.842C335.202 294.789 352.217 290.444 352.577 290.35C352.95 290.252 353.324 290.479 353.418 290.849C353.512 291.219 353.289 291.592 352.919 291.69C352.154 291.889 276.146 311.302 256.154 315.856C245.657 318.246 238.248 323.024 234.13 330.052C229.681 337.666 229.266 347.727 232.905 359.955C240.216 384.505 261.503 445.923 263.883 452.78L294.174 443.948L270.932 352.888C270.88 352.679 270.925 352.459 271.054 352.292C271.187 352.121 271.389 352.026 271.602 352.026H343.943C351.404 352.026 358.202 352.145 364.773 352.26C392.296 352.756 410.477 353.077 420.761 342.904C428.414 335.332 431.74 321.764 431.548 298.899C431.545 298.519 431.852 298.205 432.232 298.202C432.232 298.202 432.236 298.202 432.239 298.202C432.619 298.202 432.93 298.509 432.933 298.889C433.129 322.155 429.678 336.033 421.735 343.885C417.038 348.533 410.847 351.077 403.023 352.424C403.215 352.501 403.372 352.64 403.442 352.85L441.94 471.296C442.055 471.659 441.86 472.05 441.494 472.169ZM242.579 206.566L222.363 216.48C222.021 216.651 221.878 217.063 222.045 217.405C222.168 217.649 222.415 217.792 222.67 217.792C222.771 217.792 222.872 217.772 222.974 217.723L243.186 207.809C243.528 207.638 243.671 207.226 243.503 206.884C243.336 206.542 242.921 206.399 242.579 206.566ZM353.561 158.164C353.648 158.465 353.927 158.66 354.224 158.66C354.29 158.66 354.356 158.653 354.423 158.632L384.563 149.782C384.93 149.674 385.139 149.29 385.031 148.92C384.926 148.557 384.535 148.344 384.172 148.456L354.032 157.306C353.666 157.414 353.456 157.798 353.561 158.164ZM330.135 126.44L334.067 126.328L333.82 131.088C333.579 135.67 335.666 140.001 339.393 142.677C343.12 145.357 347.897 145.951 352.172 144.265L358.834 141.644L358.719 147.479C358.712 147.859 359.012 148.177 359.399 148.184C359.403 148.184 359.406 148.184 359.41 148.184C359.786 148.184 360.093 147.884 360.104 147.503L360.24 140.636C360.244 140.402 360.132 140.186 359.94 140.053C359.751 139.92 359.507 139.896 359.291 139.976L351.662 142.981C347.834 144.492 343.545 143.958 340.202 141.557C336.859 139.156 334.985 135.269 335.202 131.158L335.488 125.655C335.498 125.459 335.425 125.274 335.292 125.135C335.16 124.995 334.94 124.922 334.779 124.929L331.461 125.019L335.739 118.839C335.816 118.731 335.858 118.609 335.865 118.48L336.489 106.482C336.5 106.552 336.514 106.618 336.545 106.685C336.727 107.02 337.145 107.152 337.48 106.974C337.575 106.929 339.735 105.84 341.497 108.594C341.63 108.796 341.853 108.911 342.08 108.911C342.209 108.911 342.335 108.876 342.457 108.803C342.774 108.597 342.868 108.171 342.663 107.847C340.708 104.8 338 105.142 336.838 105.75C336.674 105.837 336.563 105.98 336.507 106.144L337.313 90.6846L347.15 95.2072C347.182 97.657 347.848 108.831 357.099 113.615C357.281 113.709 357.494 113.716 357.682 113.64C357.871 113.559 358.014 113.406 358.076 113.207L361.126 103.568C362.212 103.52 365.038 103.579 366.825 105.24C367.98 106.311 368.514 107.899 368.427 109.962C368.361 111.483 367.998 112.98 367.345 114.4C365.338 118.766 365.771 123.913 368.472 127.829C371.055 131.566 375.117 133.538 379.608 133.245C380.037 133.217 380.466 133.171 380.892 133.109L381.189 137.338C381.213 137.718 381.545 137.984 381.925 137.98C382.309 137.952 382.595 137.621 382.567 137.24L382.222 132.25C382.208 132.051 382.11 131.873 381.953 131.751C381.796 131.629 381.6 131.58 381.398 131.618C380.78 131.741 380.145 131.824 379.517 131.863C375.532 132.131 371.906 130.369 369.613 127.047C367.188 123.529 366.797 118.906 368.601 114.973C369.331 113.388 369.739 111.724 369.809 110.021C369.92 107.533 369.226 105.582 367.76 104.221C365.049 101.715 360.715 102.204 360.526 102.225C360.254 102.256 360.031 102.445 359.947 102.703L357.012 111.989C348.326 106.863 348.532 94.9071 348.536 94.7815C348.539 94.5093 348.386 94.2545 348.134 94.1359L336.964 89.0026C336.755 88.9083 336.514 88.9223 336.315 89.0375C336.119 89.1596 335.997 89.369 335.983 89.5993L334.493 118.215L329.545 125.355C329.398 125.571 329.381 125.847 329.503 126.077C329.629 126.307 329.855 126.44 330.135 126.44ZM341.919 127.996C340.045 130.572 337.536 130.631 337.425 130.631C337.044 130.634 336.737 130.941 336.737 131.322C336.737 131.706 337.044 132.013 337.425 132.013C337.561 132.013 340.733 131.978 343.039 128.809C343.263 128.502 343.196 128.069 342.886 127.846C342.579 127.623 342.146 127.689 341.919 127.996ZM345.503 201.039C345.768 201.314 345.765 201.75 345.489 202.019L332.724 214.408C332.588 214.54 332.417 214.606 332.242 214.606C332.061 214.606 331.879 214.537 331.743 214.397C331.478 214.121 331.485 213.685 331.757 213.42L344.526 201.028C344.798 200.763 345.238 200.77 345.503 201.039Z" fill="#100F0D"/>
<path d="M339.333 116.366C339.92 116.366 340.398 115.891 340.398 115.305C340.398 114.715 339.92 114.241 339.333 114.241C338.744 114.241 338.269 114.715 338.269 115.305C338.269 115.891 338.744 116.366 339.333 116.366ZM414.86 357.321C378.613 357.321 342.813 356.874 329.51 356.689C326.467 356.647 324.338 353.577 325.479 350.757C327.168 346.594 330.874 341.74 338.977 341.74C353.159 341.74 357.064 341.74 367.701 341.74C389.33 341.74 395.36 287.566 413.444 287.566C420.89 287.566 429.758 287.566 437.557 287.566C445.357 287.566 460.606 357.321 414.86 357.321Z" fill="#100F0D"/>
</g>
<defs>
<clipPath id="clip0_296_7">
<rect width="402.011" height="402.01" fill="white" transform="translate(103.494 70.6509)"/>
</clipPath>
</defs>
</svg>
