<svg width="220" height="55" viewBox="0 0 220 55" fill="none" xmlns="http://www.w3.org/2000/svg">
<path d="M0 11.4768C1.29559 11.4768 2.34286 10.4187 2.34286 9.12311C2.34286 7.81673 1.29559 6.76946 0 6.76946V2.35366C1.29559 2.35366 2.34286 1.30639 2.34286 0H217.668C217.668 1.30639 218.715 2.35366 220 2.35366V6.76946C218.715 6.76946 217.668 7.81673 217.668 9.12311C217.668 10.4187 218.715 11.4768 220 11.4768V15.8926C218.715 15.8926 217.668 16.9398 217.668 18.2462C217.668 19.5418 218.715 20.5999 220 20.5999V25.0049C218.715 25.0049 217.668 26.063 217.668 27.3585C217.668 28.6649 218.715 29.723 220 29.723V34.128C218.715 34.128 217.668 35.1861 217.668 36.4817C217.668 37.788 218.715 38.8353 220 38.8353V43.2511C218.715 43.2511 217.668 44.3092 217.668 45.6048C217.668 46.9004 218.715 47.9584 220 47.9584V52.3742C218.715 52.3742 217.668 53.4215 217.668 54.7279H2.34286C2.34286 53.4215 1.29559 52.3742 0 52.3742V47.9584C1.29559 47.9584 2.34286 46.9004 2.34286 45.6048C2.34286 44.3092 1.29559 43.2511 0 43.2511V38.8353C1.29559 38.8353 2.34286 37.788 2.34286 36.4817C2.34286 35.1861 1.29559 34.128 0 34.128V29.723C1.29559 29.723 2.34286 28.6649 2.34286 27.3585C2.34286 26.063 1.29559 25.0049 0 25.0049V20.5999C1.29559 20.5999 2.34286 19.5418 2.34286 18.2462C2.34286 16.9398 1.29559 15.8926 0 15.8926V11.4768Z" fill="#FFEB9A"/>
</svg>
