<svg width="623" height="586" viewBox="0 0 623 586" fill="none" xmlns="http://www.w3.org/2000/svg">
<path d="M132.209 137.585C205.585 120.377 269.967 152.532 290.285 163.019C371.237 204.876 364.985 251.271 424.37 264.732C489.931 279.674 527.203 229.758 564.085 254.873C599.713 279.204 593.229 346.257 590.806 372.156C584.322 439.68 549.473 486.627 532.438 506.815H101.346C64.3821 479.818 25.0065 442.108 29.149 401.814C32.5831 368.56 62.5109 364.098 72.9051 324.117C88.453 264.186 32.2695 228.033 51.7274 184.218C65.5556 153.235 106.267 143.69 132.209 137.585Z" fill="white"/>
<path d="M495.788 495.55H501.574L510.714 431.546C510.795 431.232 511.028 431 511.341 431L514.229 431.157C514.543 431.157 514.775 431.465 514.775 431.779V459.165L518.918 494.922L524.78 495.55L526.343 453.924L528.063 410.731C523.217 411.904 518.296 412.299 513.294 411.904C508.529 411.515 503.84 410.417 499.465 408.541L495.009 454.546L495.788 495.55ZM525.402 496.723L518.296 496.015C517.982 496.015 517.75 495.782 517.75 495.469L513.526 459.165V432.33L511.806 432.249L502.667 496.253C502.586 496.566 502.353 496.799 502.04 496.799H495.166C494.852 496.799 494.539 496.566 494.539 496.172L493.836 454.471L498.368 407.524C498.368 407.367 498.524 407.134 498.681 407.053C498.838 406.978 499.071 406.978 499.227 407.053C503.759 409.011 508.529 410.266 513.45 410.655C518.529 411.044 523.607 410.655 528.609 409.325C528.766 409.244 528.998 409.325 529.155 409.4C529.312 409.557 529.388 409.714 529.388 409.871L527.673 453.843L526.029 496.172C526.029 496.328 525.954 496.485 525.797 496.642C525.716 496.723 525.559 496.723 525.407 496.723" fill="#0F0E0C"/>
<path d="M233.793 382.02L240.747 374.27L234.182 359.642L226.838 366.526L229.18 375.368L231.37 371.766L231.446 377.872L231.759 383.269L233.793 382.02ZM374.049 247.285C364.514 247.285 356.705 255.03 356.705 264.656C356.705 274.201 364.439 282.026 374.049 282.026C383.583 282.026 391.398 274.277 391.398 264.656C391.398 255.111 383.659 247.285 374.049 247.285ZM403.901 264.656C403.901 248.145 390.538 234.766 374.049 234.766C357.565 234.766 344.202 248.145 344.202 264.656C344.202 281.161 357.565 294.54 374.049 294.54C390.538 294.54 403.901 281.161 403.901 264.656ZM416.793 264.656C416.793 288.283 397.649 307.455 374.049 307.455C350.454 307.455 331.309 288.283 331.309 264.656C331.309 241.023 350.454 221.857 374.049 221.857C397.649 221.857 416.793 241.023 416.793 264.656ZM432.417 264.656C432.417 232.419 406.324 206.206 374.049 206.206C341.779 206.206 315.68 232.338 315.68 264.656C315.68 296.969 341.779 323.1 374.049 323.1C406.324 323.1 432.417 296.893 432.417 264.656ZM472.896 307.92L457.656 330.769L438.669 318.406C435.392 322.478 431.638 326.231 427.653 329.595H427.734L438.669 351.973L415.463 365.585L404.058 343.759L404.133 343.677C398.666 345.792 392.879 347.436 386.866 348.372H386.941V371.301H361.545V348.61H361.627C355.375 347.75 349.356 346.181 343.656 343.991L343.732 344.072L332.088 365.666L309.742 351.584L320.915 330.925L320.996 331.007C316.854 327.718 313.101 324.041 309.661 320.05L309.742 320.126L289.506 331.007L275.515 308.158L295.054 295.638L295.13 295.714C293.178 290.555 291.615 285.152 290.674 279.598V279.679H266.765V251.12H290.674V251.195C291.615 245.485 293.178 239.931 295.287 234.609L295.206 234.766L275.515 223.891L289.506 200.025L308.023 212.701L307.947 212.777C311.695 208.083 315.994 203.784 320.683 199.949H320.602L309.742 181.173L333.419 166.306L343.813 186.413L343.732 186.489C349.437 184.299 355.451 182.736 361.702 181.876H361.627V158.167H387.022V181.795H385.616C392.101 182.736 398.352 184.374 404.209 186.721L404.058 186.646L415.074 166.144L438.75 181.011L426.636 199.793H426.56C431.011 203.389 435.154 207.537 438.75 211.998V211.917L443.595 209.1L443.439 207.775C443.439 207.775 460.706 154.176 501.964 140.094C501.964 140.094 509.54 187.197 484.458 219.743C484.458 219.743 539.155 215.362 555.8 227.335C555.8 227.335 535.877 253.391 488.833 262.779L481.332 262.076V279.441H456.564C455.942 283.043 455.001 286.877 453.676 291.025C453.205 292.588 452.659 294.075 452.113 295.563L452.189 295.481L472.896 307.92ZM254.262 211.917C255.906 208.791 257.231 205.422 258.091 201.902H282.394V176.554H257.626C256.685 173.423 255.435 170.373 253.948 167.556L269.967 148.698L252.937 130.316L235.431 148.698C232.543 147.054 229.418 145.729 226.211 144.707V120.69H200.815V144.004C197.3 144.864 193.941 146.118 190.734 147.757L174.013 130.311L154.717 149.168L171.904 165.133C169.719 168.653 167.999 172.482 166.826 176.554H142.29V177.961C144.399 178.507 145.729 179.68 146.356 180.389C148.622 179.291 150.575 178.588 152.056 178.198C152.451 178.664 153.462 179.918 155.339 180.464C156.588 180.778 157.686 180.702 158.232 180.546C159.871 181.092 162.218 182.108 164.641 183.909C167.529 186.175 168.778 188.447 170.032 190.091C172.06 192.746 175.576 196.115 182.373 198.619C183.936 198.305 185.737 197.759 187.69 196.975C189.642 196.191 191.286 195.331 192.692 194.39C192.297 192.827 192.065 191.183 192.065 189.544C192.065 178.355 201.128 169.356 212.226 169.356C223.323 169.356 232.387 178.431 232.387 189.544C232.387 200.652 223.323 209.727 212.226 209.727C207.769 209.727 203.708 208.321 200.425 205.893C199.252 206.834 197.927 208.007 196.364 209.257C191.908 212.858 189.642 214.659 188.468 215.281C186.516 216.222 181.362 217.866 171.357 212.074C170.887 222.403 170.341 232.651 169.876 242.981H169.719L173.78 247.285L189.252 231.559C192.849 233.511 196.753 235.08 200.815 236.096V258.55H226.211V236.096H223.555C227.774 235.08 231.759 233.436 235.431 231.321L252.699 247.285L271.611 229.526L254.262 211.917ZM544.86 343.602C546.109 340.708 546.423 338.205 546.423 337.031H548.689V329.125H534.547C534.001 327.329 533.298 325.604 532.438 323.96L541.658 313.166L531.892 302.604L521.887 313.166C520.248 312.225 518.453 311.446 516.576 310.894V297.125H502.04V310.505C500.012 310.975 498.135 311.754 496.258 312.619L486.724 302.679L475.708 313.479L485.475 322.63C484.226 324.668 483.209 326.859 482.587 329.206H468.597V343.677H482.349C482.976 346.024 483.836 348.215 485.004 350.254L477.974 356.278C479.066 356.981 480.24 357.527 481.57 357.922C486.881 359.561 491.808 357.841 497.508 355.808C499.384 355.104 501.104 354.396 502.586 353.617C495.636 351.113 490.634 344.462 490.634 336.636C490.634 326.702 498.681 318.644 508.605 318.644C518.528 318.644 526.576 326.702 526.576 336.636C526.576 343.212 523.06 348.923 517.901 352.049C523.136 352.757 528.376 353.46 533.611 354.164C534.233 353.931 535.093 353.617 536.186 352.99L532.595 349.394C533.53 347.593 534.314 345.635 534.779 343.602H544.86ZM614.25 411.986C612.06 407.762 606.906 404.393 601.903 404.003C591.899 403.3 584.555 414.646 583.776 415.977C585.339 406.664 586.355 394.145 584.793 379.516C583.619 368.56 581.272 359.171 578.773 351.741C574.474 354.164 550.49 368.17 531.735 393.599C531.967 386.401 532.281 379.202 532.514 372.004C543.14 367.072 546.969 361.518 548.299 356.981C548.299 356.981 548.927 354.867 549.316 340.708H546.19C546.109 342.428 545.563 347.041 542.129 351.427C538.922 355.494 534.936 357.214 533.298 357.765C524.699 356.592 516.03 355.418 507.431 354.245C505.09 355.808 501.65 357.765 497.194 359.328C491.494 361.362 486.567 363.081 481.257 361.443C474.691 359.404 471.333 353.46 470.241 351.27L467.428 354.791C467.661 357.057 468.753 363.865 474.459 369.501C476.022 371.063 480.867 375.914 488.525 376.228C492.586 376.385 495.869 375.211 497.589 374.352L497.664 407.054C501.731 408.936 508.918 411.672 518.139 411.439C518.999 411.439 519.859 411.358 520.719 411.283C514.624 423.175 510.168 436.711 508.762 452.124C506.653 475.205 512.358 494.452 517.436 506.815C525.716 504.078 537.202 499.617 549.862 492.186C587.837 469.884 623 429.042 614.25 411.986ZM59.7745 400.094C49.4614 368.246 50.3213 354.71 39.8514 351.032C33.1293 348.685 24.4603 351.27 20.0041 356.278C9.37744 368.089 18.2844 397.433 42.8204 432.639C38.2885 428.805 32.118 424.348 24.3792 420.357C17.192 416.599 10.551 414.252 5.07809 412.77C5.46747 422.704 7.57658 442.341 19.6905 462.842C36.0983 490.461 60.4018 502.353 69.3899 506.187C70.7959 503.683 72.1966 500.715 73.4513 497.189C75.171 492.262 76.0309 487.8 76.496 484.123C77.5127 478.023 78.5294 468.867 77.7506 457.835C76.2634 436.316 69.6224 430.373 59.7745 400.094ZM412.262 429.042C408.195 427.788 402.96 430.373 399.212 435.456C403.82 428.496 409.525 417.621 408.119 406.589C407.805 404.085 407.183 399.623 404.366 398.449C401.089 397.119 396.708 401.029 395.616 401.97C388.818 408.07 386.941 417.929 387.098 416.912C388.899 408.227 387.255 400.64 383.583 397.352C380.533 394.615 377.331 394.145 377.331 394.145C377.099 394.145 374.676 393.755 373.27 394.383C369.831 395.789 368.895 404.474 371.55 415.425C366.705 407.054 360.767 402.516 356.781 403.771C354.358 404.55 353.266 407.135 352.876 408.151C348.188 419.027 361.545 434.283 363.265 436.159C362.719 435.537 353.812 426.457 349.594 428.886C348.188 429.67 347.874 431.39 347.717 432.017C345.922 440.307 364.514 453.925 367.878 456.347H394.21C397.806 451.967 401.321 449.387 403.977 447.819C409.839 444.298 413.743 444.298 416.009 440.15C416.399 439.529 418.275 435.77 416.637 432.482C415.306 430.135 412.808 429.275 412.262 429.042ZM358.576 458.462H407.492V464.8H403.117L397.882 506.89H368.5L362.173 464.8H358.658V458.462H358.576Z" fill="#FFEB9A"/>
<path d="M474.929 283.357H450.783C450.469 283.357 450.237 283.589 450.155 283.822C449.452 287.737 448.517 291.572 447.343 295.325C446.873 296.812 446.327 298.299 445.78 299.786C445.705 300.1 445.861 300.333 446.094 300.489C446.17 300.489 446.251 300.565 446.251 300.565L466.331 312.695L451.799 334.527L433.515 322.554C433.515 322.478 433.434 322.478 433.358 322.397C433.126 322.24 432.731 322.24 432.574 322.478C429.297 326.464 425.619 330.223 421.639 333.586C421.401 333.819 421.401 334.133 421.558 334.37C421.558 334.37 421.558 334.446 421.639 334.446L432.266 356.121L410.071 369.106L399.131 348.139C399.131 347.982 399.131 347.907 399.055 347.75C398.898 347.436 398.585 347.355 398.271 347.436C392.723 349.626 386.941 351.189 381.16 352.13C380.847 352.206 380.614 352.444 380.69 352.758V375.13H356.549V353.38C356.624 353.304 356.624 353.223 356.624 353.071C356.624 352.758 356.392 352.444 356.078 352.444C349.983 351.584 343.964 350.016 338.183 347.826C337.869 347.669 337.561 347.907 337.48 348.139C337.48 348.215 337.404 348.296 337.404 348.296L326.231 369.187L304.897 355.808L315.68 335.933C315.756 335.858 315.837 335.858 315.913 335.777C316.07 335.544 316.07 335.149 315.756 334.992C311.695 331.71 307.947 328.032 304.507 324.117C304.27 323.884 303.961 323.884 303.723 324.041C303.648 324.041 303.648 324.117 303.567 324.198L284.033 334.684L270.675 312.852L289.425 300.803C289.506 300.803 289.581 300.803 289.738 300.722C290.052 300.571 290.128 300.257 290.052 299.943C288.019 294.779 286.537 289.381 285.677 283.903C285.596 283.589 285.363 283.433 285.05 283.433H261.763V256.047H284.736C284.817 256.128 284.893 256.128 285.05 256.128C285.363 256.203 285.677 255.971 285.677 255.657C286.612 250.022 288.175 244.468 290.284 239.228C290.366 238.914 290.284 238.6 289.971 238.444C289.814 238.363 289.738 238.363 289.581 238.363L275.283 230.461L275.44 230.305C275.05 230.072 274.737 229.834 274.499 229.526L274.19 229.834L270.751 227.958L274.58 221.463L274.737 221.619C274.893 221.23 275.126 220.916 275.358 220.684V220.603L275.126 220.37L283.957 205.19L301.614 217.32C301.695 217.396 301.695 217.553 301.852 217.553C302.085 217.709 302.474 217.709 302.712 217.396C306.46 212.702 310.678 208.397 315.367 204.644C315.605 204.406 315.605 204.098 315.448 203.86C315.448 203.784 315.367 203.784 315.367 203.703L304.897 185.548L327.481 171.39L337.323 190.794C337.323 190.87 337.323 191.026 337.404 191.108C337.561 191.421 337.869 191.497 338.183 191.421C343.964 189.226 349.908 187.663 356.002 186.803C356.311 186.722 356.467 186.489 356.467 186.175V163.408H380.614V185.786H379.83C379.522 185.786 379.284 186.024 379.208 186.332C379.127 186.646 379.441 186.96 379.754 186.96C386.082 187.819 392.257 189.463 398.271 191.811C398.585 191.892 398.898 191.811 399.055 191.497C399.131 191.345 399.131 191.264 399.131 191.108L409.601 171.466L432.185 185.629L420.466 203.784C420.384 203.86 420.309 203.86 420.309 203.941C420.152 204.173 420.152 204.563 420.466 204.719C424.916 208.321 428.983 212.388 432.574 216.85C432.812 217.082 433.126 217.163 433.358 216.925L433.434 216.85L453.827 205.114L466.412 226.627L446.483 240.088C446.251 240.244 446.17 240.558 446.251 240.791C447.971 245.409 449.22 250.336 450.155 255.419C450.237 255.733 450.469 255.89 450.783 255.89H475.005L474.929 283.357ZM475.551 254.797H451.253C450.393 250.022 449.139 245.328 447.581 240.948L467.58 227.411C467.818 227.255 467.894 226.865 467.737 226.627L454.612 204.098C454.455 203.784 454.065 203.703 453.752 203.86L433.12 215.752C429.686 211.604 425.857 207.775 421.639 204.33L433.515 185.943C433.591 185.786 433.672 185.629 433.591 185.472C433.591 185.316 433.434 185.159 433.358 185.083L409.682 170.216C409.525 170.135 409.368 170.135 409.212 170.135C409.055 170.216 408.898 170.292 408.822 170.449L398.039 190.48C392.804 188.447 387.412 187.041 381.863 186.1V162.786C381.863 162.467 381.631 162.159 381.241 162.159H355.846C355.532 162.159 355.218 162.391 355.218 162.786V185.867C349.437 186.722 343.813 188.214 338.34 190.248L328.259 170.449C328.184 170.292 328.027 170.216 327.87 170.135C327.713 170.06 327.556 170.135 327.4 170.216L303.723 185.083C303.415 185.24 303.334 185.629 303.491 185.943L314.117 204.33C309.742 207.926 305.757 211.999 302.16 216.379L284.114 204.016C283.957 203.941 283.8 203.86 283.643 203.941C283.487 203.941 283.33 204.098 283.254 204.249L274.266 219.51L262.861 207.926C264.424 204.957 265.592 201.826 266.452 198.619H290.284C290.598 198.619 290.912 198.381 290.912 197.992V172.72C290.912 172.407 290.674 172.093 290.284 172.093H265.986C265.127 169.2 263.953 166.463 262.547 163.797L278.333 145.253C278.565 145.021 278.484 144.707 278.333 144.474L261.298 126.087C261.217 125.93 261.06 125.849 260.827 125.849C260.67 125.849 260.514 125.93 260.357 126.012L243.17 144.08C240.434 142.598 237.622 141.343 234.653 140.408V116.775C234.653 116.461 234.415 116.153 234.025 116.153H208.629C208.472 116.153 208.316 116.229 208.164 116.304C208.083 116.385 208.007 116.542 208.007 116.775V139.623C204.8 140.483 201.675 141.581 198.706 143.063L182.298 125.93C182.222 125.849 182.065 125.774 181.908 125.774C181.752 125.774 181.595 125.849 181.438 125.93L162.137 144.788C161.98 144.864 161.98 145.102 161.98 145.253C161.98 145.41 162.061 145.572 162.137 145.729L178.858 161.374C176.83 164.738 175.267 168.334 174.094 172.093H166.982C166.982 172.482 166.982 172.877 166.907 173.348H174.408C174.716 173.423 174.954 173.185 175.111 172.877C176.279 168.886 177.998 165.133 180.108 161.612C180.264 161.374 180.189 161.061 180.032 160.828L163.386 145.253L181.752 127.261L198.003 144.161C198.159 144.399 198.473 144.474 198.787 144.318C201.913 142.674 205.271 141.5 208.71 140.64C208.943 140.559 209.176 140.327 209.176 140.013V117.402H233.398V140.797C233.398 141.105 233.555 141.343 233.793 141.424C236.918 142.36 239.963 143.69 242.932 145.334C243.17 145.491 243.478 145.41 243.635 145.253L260.67 127.342L276.846 144.864L261.217 163.251C260.984 163.408 260.984 163.721 261.06 163.959C262.547 166.772 263.796 169.746 264.732 172.796C264.813 173.029 265.045 173.267 265.283 173.267H289.425V197.365H265.748C265.435 197.365 265.202 197.521 265.127 197.835C264.267 201.28 262.936 204.563 261.298 207.77C261.141 208.007 261.217 208.397 261.455 208.554L273.33 220.603L269.031 227.958C268.955 228.114 268.955 228.271 268.955 228.428C269.031 228.585 269.112 228.742 269.264 228.817L272.86 230.775L260.281 242.592L243.559 227.098C243.403 226.865 243.013 226.784 242.775 226.941C239.103 229.055 235.118 230.618 231.056 231.635C230.743 231.716 230.586 232.024 230.586 232.338C230.586 232.652 230.899 232.89 231.213 232.89H233.246V254.089H209.019V232.338C209.019 232.024 208.867 231.716 208.554 231.635C204.568 230.618 200.739 229.131 197.143 227.173C196.91 227.022 196.521 227.098 196.364 227.33L181.438 242.592L163.229 223.345L178.783 210.041L178.858 209.965C179.096 209.808 179.172 209.414 179.015 209.181C176.982 205.579 175.5 201.826 174.483 197.911C174.408 197.678 174.17 197.446 173.861 197.446H150.418V182.574C149.947 182.265 149.558 181.952 149.169 181.562V197.992C149.169 198.306 149.401 198.619 149.79 198.619H173.391C174.408 202.297 175.814 205.893 177.685 209.257L161.904 222.793C161.747 222.874 161.672 223.031 161.672 223.263C161.672 223.42 161.747 223.577 161.823 223.734L180.892 243.922C180.967 244.079 181.124 244.079 181.362 244.079C181.595 244.079 181.67 243.998 181.827 243.922L196.986 228.504C200.425 230.386 204.022 231.792 207.769 232.733V254.641C207.769 254.954 208.007 255.262 208.397 255.262H233.793C234.106 255.262 234.415 255.03 234.415 254.641V232.181C234.415 232.105 234.415 232.024 234.339 231.873C237.308 230.932 240.201 229.677 242.932 228.195L259.892 243.841C260.124 244.079 260.514 244.079 260.751 243.841L274.033 231.321L288.565 239.303C286.694 244.311 285.206 249.476 284.271 254.716H260.827C260.514 254.716 260.2 254.954 260.2 255.344V283.903C260.2 284.217 260.438 284.525 260.827 284.525H284.271C285.206 289.69 286.612 294.779 288.408 299.63L269.577 311.992C269.264 312.149 269.188 312.538 269.42 312.852L283.411 335.701C283.568 336.009 283.957 336.09 284.19 335.933L304.037 325.29C307.244 328.968 310.759 332.413 314.588 335.544L303.648 355.727C303.491 356.04 303.567 356.354 303.88 356.511L326.231 370.593C326.383 370.674 326.54 370.674 326.696 370.674C326.853 370.593 327.01 370.517 327.091 370.361L338.421 349.232C343.888 351.27 349.594 352.758 355.299 353.618V375.839C355.299 376.147 355.532 376.461 355.921 376.461H381.317C381.631 376.461 381.944 376.228 381.944 375.839V353.461C387.412 352.52 392.879 351.032 398.114 349.08L409.293 370.436C409.368 370.593 409.525 370.674 409.682 370.75C409.839 370.831 409.996 370.75 410.153 370.674L433.358 357.057C433.672 356.9 433.748 356.586 433.591 356.278L422.888 334.37C426.636 331.158 430.076 327.638 433.201 323.884L451.718 336.009C452.032 336.166 452.346 336.09 452.578 335.852L467.818 313.009C467.894 312.852 467.975 312.695 467.894 312.538C467.894 312.382 467.737 312.225 467.58 312.149L447.186 299.862C447.657 298.532 448.127 297.201 448.592 295.952C449.766 292.35 450.702 288.597 451.405 284.763H475.708C476.022 284.763 476.335 284.525 476.335 284.136V255.419C476.179 255.03 475.865 254.797 475.551 254.797Z" fill="#0F0E0C"/>
<path d="M251.607 364.65C244.809 359.485 240.98 357.295 240.277 357.998C239.731 358.544 240.98 360.734 243.949 364.65C241.369 364.725 240.044 365.039 239.963 365.428C239.887 366.212 243.246 367.386 250.119 369.106L251.607 364.65ZM231.37 378.889C231.916 374.27 231.916 371.848 231.37 371.691C230.98 371.61 230.196 372.783 229.18 375.287C228.087 369.344 227.303 366.369 226.838 366.45C226.211 366.526 226.135 371.691 226.524 381.939C228.163 381.003 229.807 379.905 231.37 378.889ZM255.046 335.544C253.245 337.577 252.391 339.611 251.996 340.784C251.374 342.661 250.433 345.478 251.763 348.215C252.699 350.097 254.186 351.032 255.046 351.503V356.121C256.063 356.121 257.312 356.04 258.794 355.651C262.158 354.791 264.342 352.757 265.359 351.66C264.813 349.702 264.186 347.668 263.639 345.716C264.97 345.165 265.905 343.834 265.83 342.428C265.748 341.098 264.889 339.843 263.639 339.378C262.861 339.454 260.827 339.611 258.561 338.513C256.609 337.653 255.511 336.247 255.046 335.544ZM198.944 199.398C200.112 198.224 201.988 196.034 202.616 192.746C203.238 189.387 202.378 185.548 201.442 185.472C201.053 185.472 200.193 186.099 198.862 191.735C198.862 188.679 198.63 187.197 198.316 187.116C197.846 187.04 196.986 190.009 195.818 195.877L198.944 199.398ZM141.586 174.753C142.76 175.305 143.539 176.084 144.09 176.554L149.477 174.521L146.665 171.547C146.043 171.233 144.793 170.838 143.23 171C140.413 171.309 138.774 173.423 138.542 173.812C139.245 173.894 140.413 174.132 141.586 174.753ZM163.386 169.043C161.747 169.589 160.26 169.589 159.4 169.513C160.812 173.58 159.638 177.571 156.902 179.134C155.025 180.307 152.916 179.918 152.056 179.68C152.294 180.232 152.916 181.719 154.56 182.579C156.513 183.596 159.011 183.282 160.963 181.719C163.229 181.876 164.56 181.092 165.106 180.702C167.61 178.826 167.61 175.143 167.61 172.331C167.61 170.059 167.215 168.258 166.907 167.085C166.204 167.712 165.03 168.491 163.386 169.043ZM166.593 238.676L144.009 229.369L136.584 235.864L137.839 286.953L138.542 325.447L147.762 326.621L153.462 261.757V263.088L157.291 275.688L163.154 326.621H171.747L172.298 288.44L166.593 238.676ZM245.825 414.96L236.68 447.743L240.044 495.469H249.265L250.433 452.124L258.485 426.382V452.437L260.751 495.469H270.827L273.249 426.695L271.686 411.672C270.205 413.078 266.062 416.366 259.81 417.307C252.856 418.324 247.545 415.82 245.825 414.96ZM549.316 340.395C549.938 338.751 550.641 336.09 550.333 332.959C550.019 329.984 548.77 326.859 548.143 326.934C547.753 327.015 547.364 328.032 547.596 333.662C546.661 332.488 545.958 332.023 545.563 332.256C544.784 332.569 545.017 335.306 546.266 340.395H549.316ZM470.241 350.956C471.722 347.279 472.35 345.321 471.96 345.165C471.722 345.008 471.1 345.635 470.084 346.89C470.316 340.708 469.846 339.378 469.381 339.297C468.597 339.14 467.19 342.19 466.569 344.851C465.709 348.923 466.644 352.519 467.423 354.477L470.241 350.956ZM508.291 350.172C507.826 348.609 507.118 348.296 505.95 346.495C505.95 346.495 505.09 345.165 504.387 343.521C503.916 342.347 503.213 339.843 504.306 336.009C501.18 341.017 501.18 346.576 503.997 349.859C504.619 350.567 505.95 351.892 508.529 352.519C508.529 351.27 508.372 350.567 508.291 350.172Z" fill="white"/>
<path d="M357.252 463.47H396.865L391.868 503.684H363.346L357.252 463.47ZM353.655 457.132H401.321V462.296H353.655V457.132ZM342.093 429.827C342.796 428.415 345.608 427.323 348.107 427.555C352.563 427.869 355.142 432.25 355.608 433.109L355.689 433.191C359.907 440.935 364.909 448.76 369.203 455.098C366.315 452.513 363.422 449.934 360.691 447.192C356.235 442.736 352.017 437.96 348.107 433.034C347.874 432.796 347.485 432.72 347.247 432.953C347.014 433.191 346.939 433.58 347.171 433.812C351.076 438.82 355.375 443.596 359.831 448.057C362.562 450.794 365.374 453.373 368.268 455.958H366.158C344.121 438.745 340.919 432.25 342.093 429.827ZM349.751 404.16C350.216 403.614 352.639 400.954 355.608 401.11C359.204 401.267 362.643 405.334 364.596 411.748C365.299 421.06 367.332 433.266 370.609 448.446C368.738 441.795 366.548 435.224 364.125 428.805C361.313 421.45 358.111 414.095 354.591 407.054C354.439 406.746 354.045 406.664 353.812 406.821C353.498 406.978 353.423 407.367 353.58 407.605C357.095 414.647 360.296 421.845 363.033 429.199C366.315 437.885 369.127 446.884 371.469 455.877H371.393C352.639 428.805 344.824 409.952 349.751 404.16ZM369.441 390.624C370.923 389.921 374.287 389.683 376.942 391.171C381.241 393.674 382.096 400.251 382.334 405.723C383.113 421.92 379.127 441.876 375.612 455.877H375.298C376.628 443.514 377.018 431.076 376.553 418.713C376.239 411.045 375.536 403.301 374.595 395.713C374.519 395.4 374.206 395.162 373.892 395.162C373.584 395.243 373.346 395.475 373.346 395.865C374.362 403.457 374.99 411.202 375.298 418.794C375.768 431.157 375.379 443.596 374.049 455.877H373.503C362.016 405.648 364.985 392.658 369.441 390.624ZM253.013 499.931C251.374 500.715 250.276 502.196 249.573 503.684H247.464V496.015H249.184C249.497 496.015 249.811 495.783 249.811 495.393L250.979 452.124L257.858 430.216V452.281L260.124 495.312C260.124 495.626 260.438 495.864 260.751 495.864H263.25C260.595 498.054 258.248 498.833 256.528 499.146C255.046 499.541 254.186 499.384 253.013 499.931ZM237.227 447.743L246.139 415.739C248.87 417.069 253.797 418.713 259.81 417.772C265.045 416.994 268.955 414.565 271.14 412.77L272.546 426.539L270.123 494.766H261.217L259.032 452.356V426.301C259.032 425.993 258.794 425.755 258.485 425.679C258.172 425.598 257.934 425.836 257.777 426.068L249.73 451.81V451.967L248.562 494.685H240.509L237.227 447.743ZM3.28265 415.663C35.5521 422.472 60.6397 441.248 69.3087 464.249C69.6981 465.503 70.1686 466.677 70.5634 467.926C71.1853 470.122 71.7315 472.388 72.1263 474.659C73.5324 483.966 72.3588 493.668 68.53 503.527C66.5723 501.104 64.5443 498.676 62.592 496.253L64.0738 466.677C64.0738 466.363 63.8413 466.049 63.5276 466.049C63.2139 466.049 62.9003 466.287 62.9003 466.596L61.4942 494.766C58.1358 490.618 54.8532 486.394 51.4948 482.171V450.794C51.4948 450.48 51.2623 450.166 50.8729 450.166C50.4781 450.166 50.2456 450.404 50.2456 450.794V480.759C46.1842 475.519 42.1174 470.197 38.2074 464.957C36.5688 462.767 35.0059 460.571 33.3673 458.462L31.5664 435.143C31.5664 434.835 31.2582 434.521 30.9445 434.597C30.6308 434.597 30.3172 434.91 30.3929 435.224L32.0369 456.504C23.9141 445.396 16.0185 434.126 8.44187 422.78C8.28503 422.472 7.89566 422.391 7.582 422.629C7.26833 422.78 7.18721 423.175 7.42516 423.489C13.0495 431.936 18.9117 440.307 24.8497 448.603L12.4221 446.332C12.1139 446.256 11.8002 446.489 11.7191 446.802C11.6434 447.116 11.8759 447.43 12.1896 447.505L25.8664 450.009C27.9755 452.984 30.1657 455.958 32.2749 458.851C32.2749 458.933 32.3506 459.008 32.4263 459.089C33.7566 460.885 35.0816 462.686 36.4174 464.487L24.9254 463.313C24.6172 463.232 24.3035 463.546 24.2224 463.859C24.2224 464.173 24.4603 464.487 24.7686 464.562L37.353 465.817C41.5712 471.528 45.9462 477.163 50.3213 482.793C50.3213 482.874 50.4024 482.874 50.4781 482.949C51.9653 484.831 53.4471 486.708 54.9343 488.66H46.022C45.7137 488.66 45.4 488.898 45.4 489.288C45.4 489.601 45.6326 489.915 46.022 489.915H55.8699C57.7411 492.262 59.623 494.609 61.4942 496.956C61.4942 496.956 61.4942 497.037 61.5753 497.037C63.3708 499.227 65.0905 501.418 66.8914 503.608C54.3881 499.303 43.2098 492.732 33.7566 483.966C8.36075 460.263 3.98569 428.886 3.28265 415.663ZM40.5545 429.275C35.9469 422.315 13.2063 386.633 18.2844 365.98C19.1443 362.378 21.0208 354.948 26.8777 352.363C31.4096 350.411 36.2551 352.287 37.818 352.914C47.428 356.668 50.8729 369.344 56.4972 390.392C59.2283 400.564 62.6677 413.235 67.589 427.788C68.8437 431.465 70.0172 434.753 71.1096 437.804C75.9498 451.421 78.843 459.636 77.8263 472.388C77.2801 479.586 75.5604 486.627 72.8239 493.592C74.1543 487.178 74.3111 480.84 73.3701 474.659C73.0619 472.388 72.5157 470.197 71.8884 468.007V467.926C71.8884 467.85 71.8072 467.775 71.8072 467.694C71.4179 466.444 71.0285 465.19 70.5634 464.016C66.0261 450.637 60.948 437.333 55.3237 424.424C47.8228 407.211 39.3052 390.235 29.8467 374.038C29.6952 373.724 29.3005 373.649 28.9922 373.8C28.6785 373.957 28.6028 374.352 28.7543 374.665C38.1317 390.862 46.6493 407.762 54.1502 424.976C58.3684 434.678 62.3541 444.612 65.9504 454.628C60.0881 444.845 51.4191 436.241 40.5545 429.275ZM546.347 448.214C546.504 447.819 546.655 447.505 546.812 447.116C546.812 447.04 546.893 447.04 546.893 446.959C549.235 441.719 551.425 436.473 553.453 431.076L567.287 420.514C559.629 428.805 552.518 438.663 546.347 448.214ZM600.259 503.684H515.478C507.821 491.007 503.446 477.942 502.667 464.562C500.558 429.903 522.747 402.598 540.561 380.69C550.798 368.17 562.366 356.668 575.101 346.495C577.524 355.727 579.244 365.272 580.098 374.822C581.272 387.417 581.272 397.59 580.098 408.779C577.989 410.342 575.88 412.062 573.852 413.944L554.394 428.886C554.784 427.788 555.254 426.696 555.643 425.598C556.579 423.094 557.439 420.59 558.299 418.086C564.08 401.029 568.46 383.507 571.348 365.823C571.429 365.51 571.191 365.196 570.883 365.12C570.57 365.039 570.256 365.272 570.175 365.585C567.363 382.723 563.144 399.78 557.677 416.291L542.28 385.07C542.124 384.757 541.734 384.681 541.502 384.757C541.188 384.913 541.112 385.303 541.188 385.541L556.974 417.929C556.114 420.357 555.33 422.78 554.394 425.208C551.89 432.017 549.159 438.745 546.19 445.396L529.312 414.176C529.155 413.862 528.766 413.787 528.452 413.944C528.138 414.095 528.063 414.49 528.22 414.803L545.563 446.884C544 450.323 542.361 453.768 540.717 457.207C539.393 459.398 538.138 461.512 536.97 463.546L520.481 441.324C520.248 441.092 519.935 441.011 519.621 441.167C519.388 441.405 519.307 441.719 519.464 442.033L536.267 464.719C530.486 474.892 526.5 482.874 525.245 485.453C525.094 485.767 525.245 486.156 525.559 486.237C525.873 486.394 526.262 486.237 526.343 485.924C526.576 485.534 526.808 484.983 527.122 484.28C530.875 478.098 534.39 471.841 537.748 465.422C537.83 465.346 537.83 465.271 537.905 465.19C539.236 462.61 540.561 460.025 541.891 457.364C550.484 443.125 561.814 426.614 573.695 415.425L574.474 414.879C574.555 414.803 574.631 414.722 574.712 414.565C576.74 412.77 578.692 411.045 580.726 409.558C580.883 409.482 581.039 409.401 581.115 409.244C588.465 403.928 595.965 401.11 603.072 402.441C605.494 402.911 611.432 404.474 613.779 409.168C621.513 424.738 582.37 462.058 551.112 483.031C543.221 488.352 534.861 493.203 526.343 497.502C526.029 497.659 525.948 498.054 526.105 498.286C526.186 498.519 526.419 498.6 526.657 498.6C526.732 498.6 526.808 498.6 526.965 498.519C535.483 494.22 543.843 489.288 551.815 483.966C582.213 463.546 623.233 425.441 614.872 408.541C612.292 403.376 605.965 401.657 603.309 401.186C596.198 399.856 588.697 402.516 581.353 407.681C582.445 396.887 582.445 386.871 581.272 374.508C580.336 364.65 578.541 354.71 575.961 345.089C575.88 344.851 575.723 344.694 575.567 344.694C575.415 344.619 575.177 344.694 575.02 344.775C561.971 355.105 550.019 366.84 539.549 379.749C521.573 401.813 499.303 429.275 501.418 464.487C502.196 477.785 506.496 490.856 513.997 503.527H500.633V495.939H496.183C495.555 496.172 492.662 497.27 491.18 500.32C490.634 501.493 490.477 502.591 490.396 503.451H393.036L398.039 463.232H401.867C402.181 463.232 402.489 462.999 402.489 462.61V456.504C402.489 456.191 402.257 455.877 401.867 455.877H387.412C390.457 452.043 393.82 448.446 397.336 445.083C401.164 441.405 405.226 437.96 409.525 434.91C409.758 434.678 409.839 434.364 409.682 434.05C409.444 433.737 409.136 433.737 408.822 433.894C404.523 437.025 400.305 440.464 396.476 444.223C392.647 447.819 389.05 451.81 385.768 455.877H380.068C383.74 449.074 387.023 442.033 389.835 434.91C393.35 425.993 396.162 416.756 398.195 407.449C398.271 407.135 398.039 406.821 397.725 406.746C397.411 406.664 397.103 406.897 397.022 407.211C394.988 416.447 392.176 425.679 388.737 434.521C385.849 441.795 382.491 448.993 378.737 455.958H376.785C379.441 445.24 382.409 431.233 383.269 418.01C384.054 413.003 386.319 405.961 392.333 401.11C394.129 399.699 398.271 396.335 401.24 397.509C402.884 398.217 405.464 401.029 404.68 412.3C404.133 420.357 400.694 428.496 394.756 435.851C394.523 436.084 394.599 436.473 394.832 436.711C394.913 436.787 395.07 436.868 395.226 436.868C395.383 436.868 395.616 436.787 395.692 436.63C401.786 429.118 405.307 420.747 405.853 412.456C406.632 401.029 404.052 397.509 401.711 396.492C398.114 395.005 393.507 398.682 391.63 400.251C387.488 403.614 385.065 407.919 383.659 411.986C383.659 409.871 383.659 407.838 383.583 405.805C383.269 400.013 382.409 392.971 377.564 390.235C374.752 388.591 371.004 388.667 368.971 389.608C365.455 391.171 363.893 397.195 364.358 407.762C362.173 402.987 358.971 400.094 355.689 399.937C352.249 399.78 349.594 402.598 348.891 403.457C345.138 407.919 348.031 417.778 353.342 428.496C352.017 427.399 350.297 426.539 348.263 426.382C345.608 426.225 342.169 427.242 341.076 429.356C339.746 431.936 340.838 437.571 364.282 455.958H353.109C352.795 455.958 352.482 456.191 352.482 456.586V462.924C352.482 463.232 352.72 463.546 353.109 463.546H356.078L362.173 503.765H269.42V496.096H270.751C271.064 496.096 271.373 495.864 271.373 495.469L273.796 426.614L272.233 411.596C272.233 411.359 272.076 411.202 271.843 411.126C271.611 411.045 271.373 411.126 271.221 411.283C269.345 413.003 265.359 415.896 259.654 416.756C253.483 417.697 248.481 415.739 246.058 414.49C245.901 414.409 245.669 414.409 245.512 414.49C245.355 414.565 245.198 414.722 245.198 414.879L236.059 447.662V447.9L239.417 495.626C239.417 495.939 239.731 496.172 240.039 496.172H241.212C238.557 498.362 236.21 499.146 234.496 499.46C233.165 499.693 232.305 499.541 231.132 500.087C229.493 500.866 228.401 502.353 227.698 503.84H69.855C70.2443 502.824 70.6337 501.807 70.9528 500.866C75.5604 491.716 78.2968 482.246 79.0756 472.544C80.0923 459.479 77.199 451.183 72.2777 437.414C71.1853 434.364 70.0118 431.076 68.8437 427.48C63.8359 412.77 60.4018 400.169 57.6654 389.997C51.8842 368.641 48.4447 355.727 38.2074 351.741C36.4877 351.114 31.3339 349.08 26.3315 351.27C19.923 354.088 17.8896 362.222 17.1109 365.742C12.3464 385.07 30.474 415.977 38.1317 427.869C27.8944 421.763 15.9373 417.069 2.73644 414.409C2.57961 414.409 2.34166 414.409 2.19023 414.565C2.0334 414.722 1.95228 414.879 1.95228 415.036C2.49849 427.869 6.55989 460.495 32.8157 484.831C41.7226 493.046 52.041 499.46 63.6844 503.765H1.79545C0.77875 503.765 0 504.544 0 505.566C0 506.582 0.77875 507.361 1.79545 507.361H600.184C601.2 507.361 601.979 506.582 601.979 505.566C601.979 504.544 601.276 503.684 600.259 503.684ZM368.343 211.447C400.148 211.447 426.09 237.346 426.09 269.269C426.09 301.192 400.223 327.091 368.343 327.091C336.463 327.091 310.602 301.192 310.602 269.269C310.602 237.346 336.544 211.447 368.343 211.447ZM368.343 328.265C400.851 328.265 427.263 301.82 427.263 269.269C427.263 236.724 400.851 210.273 368.343 210.273C335.841 210.273 309.429 236.724 309.429 269.269C309.429 301.82 335.841 328.265 368.343 328.265ZM368.343 227.098C391.554 227.098 410.461 246.031 410.461 269.269C410.461 292.507 391.554 311.446 368.343 311.446C345.138 311.446 326.226 292.507 326.226 269.269C326.226 246.031 345.138 227.098 368.343 227.098ZM368.343 312.695C392.257 312.695 411.71 293.216 411.71 269.269C411.71 245.328 392.257 225.848 368.343 225.848C344.435 225.848 324.977 245.328 324.977 269.269C324.977 293.216 344.435 312.695 368.343 312.695ZM368.343 240.006C384.443 240.006 397.568 253.153 397.568 269.269C397.568 285.39 384.443 298.532 368.343 298.532C352.249 298.532 339.119 285.39 339.119 269.269C339.119 253.153 352.249 240.006 368.343 240.006ZM368.343 299.705C385.146 299.705 398.742 286.012 398.742 269.269C398.742 252.45 385.065 238.833 368.343 238.833C351.546 238.833 337.95 252.526 337.95 269.269C337.95 286.093 351.546 299.705 368.343 299.705ZM548.299 328.265C548.77 329.125 549.473 331.239 549.706 333.354C549.938 335.544 549.624 337.81 548.846 340.081H546.655C545.406 334.836 545.563 333.429 545.72 333.116C545.877 333.197 546.266 333.429 547.05 334.37C547.207 334.603 547.515 334.603 547.753 334.527C547.986 334.446 548.143 334.214 548.143 333.9C547.986 330.455 548.143 328.892 548.299 328.265ZM502.743 341.487C503.527 344.386 504.852 346.495 505.09 346.809C505.479 347.355 505.793 347.75 506.025 348.139C506.182 348.372 506.339 348.529 506.496 348.685C506.496 348.685 506.496 348.766 506.571 348.766C506.961 349.237 507.199 349.702 507.431 350.486L507.664 350.719C507.745 351.032 507.821 351.427 507.821 351.817C507.821 351.892 507.821 351.892 507.745 351.973C506.339 351.503 505.165 350.719 504.305 349.783C502.586 347.75 502.04 344.694 502.743 341.487ZM495.869 334.684C495.869 325.058 503.684 317.233 513.294 317.233C522.904 317.233 530.718 325.058 530.718 334.684C530.718 339.454 528.842 343.916 525.483 347.122C524.623 343.602 527.668 341.958 526.965 337.734C526.029 331.71 518.761 328.578 517.901 328.189C515.792 327.329 511.341 325.447 507.356 327.637C502.51 330.298 502.353 336.874 502.277 337.734V338.827C501.104 341.882 500.947 345.089 501.807 347.669C498.135 344.462 495.869 339.768 495.869 334.684ZM537.83 322.165L546.737 311.679C546.969 311.446 546.893 311.132 546.737 310.894L536.97 300.333C536.889 300.176 536.656 300.176 536.499 300.1C536.342 300.1 536.186 300.176 536.029 300.257L526.343 310.424C524.856 309.645 523.374 308.942 521.811 308.472V295.168C521.811 294.854 521.573 294.541 521.184 294.541H506.653C506.496 294.541 506.339 294.622 506.182 294.697C506.106 294.779 506.025 294.935 506.025 295.168V308.077C504.305 308.547 502.667 309.175 501.023 309.959L491.802 300.333C491.727 300.257 491.57 300.176 491.413 300.176C491.18 300.176 491.099 300.257 490.942 300.333L479.926 311.132C479.769 311.208 479.769 311.446 479.769 311.597C479.769 311.754 479.851 311.911 479.926 312.068L489.379 320.834C488.287 322.63 487.427 324.587 486.805 326.621H473.21C472.896 326.621 472.582 326.859 472.582 327.248V341.725C472.582 342.039 472.815 342.347 473.21 342.347H486.492C487.038 344.305 487.822 346.263 488.833 348.139L482.192 353.774C482.035 353.931 481.96 354.088 481.96 354.32C481.96 354.477 482.117 354.71 482.273 354.791C483.441 355.494 484.696 356.121 486.021 356.511C487.584 356.981 489.147 357.214 490.634 357.214C494.463 357.214 498.211 355.883 502.353 354.396C503.759 353.931 505.09 353.304 506.415 352.676C506.809 352.833 507.199 352.99 507.664 353.147C507.512 354.32 507.199 355.883 506.258 357.841C503.602 363.476 500.558 363.633 500.32 366.294C499.93 370.593 507.274 376.542 515.013 376.931C524.391 377.477 529.701 369.576 530.248 368.798C530.561 368.403 535.564 360.502 532.438 354.634C531.654 353.223 530.637 352.363 529.701 351.66L538.219 352.833H538.533C539.393 352.52 540.328 352.13 541.188 351.66C541.345 351.584 541.502 351.427 541.502 351.189C541.502 351.032 541.502 350.8 541.345 350.643L538.062 347.355C538.846 345.711 539.549 344.072 540.014 342.347H545.33C545.33 341.958 545.406 341.487 545.487 341.098H539.549C539.236 341.098 538.998 341.255 538.922 341.568C538.452 343.521 537.673 345.403 536.732 347.198C536.58 347.436 536.656 347.75 536.889 347.982L539.858 350.957L538.219 351.66L527.435 350.173C526.889 349.702 526.343 349.156 525.954 348.372C529.783 344.851 531.967 340 531.967 334.684C531.967 324.431 523.607 316.059 513.369 316.059C503.132 316.059 494.771 324.431 494.771 334.684C494.771 341.098 498.135 346.966 503.37 350.329C503.213 350.254 503.132 350.097 503.056 349.94C503.213 350.173 503.37 350.329 503.527 350.567C503.992 351.114 504.543 351.584 505.165 351.973C504.149 352.444 503.056 352.833 501.964 353.223C496.415 355.18 491.57 356.9 486.41 355.337C485.475 355.024 484.615 354.634 483.679 354.164L489.931 348.766C489.931 348.766 490.007 348.766 490.007 348.685C490.239 348.529 490.32 348.139 490.164 347.907C488.99 345.868 488.13 343.759 487.584 341.487C487.508 341.255 487.27 341.017 486.962 341.017H473.831V327.794H487.114C487.427 327.875 487.741 327.637 487.822 327.405C488.444 325.134 489.461 323.024 490.634 320.991C490.791 320.753 490.71 320.439 490.553 320.207L481.257 311.522L491.413 301.587L500.558 311.132C500.715 311.289 501.023 311.365 501.261 311.289C503.056 310.348 504.933 309.645 506.885 309.175C507.118 309.093 507.356 308.861 507.356 308.547V295.795H520.638V308.942C520.638 309.175 520.794 309.407 521.027 309.488C522.828 310.034 524.542 310.819 526.186 311.754C526.419 311.911 526.732 311.835 526.889 311.679L536.499 301.587L545.406 311.208L536.58 321.537C536.342 321.694 536.342 322.008 536.499 322.24C537.359 323.803 538.062 325.528 538.533 327.248C538.608 327.481 538.846 327.719 539.079 327.719H546.969C546.969 327.405 547.126 327.016 547.358 326.778C546.969 327.248 546.655 328.578 546.737 332.256C546.19 331.785 545.644 331.553 545.093 331.785C544.314 332.099 543.611 333.116 545.487 340.627C545.563 340.86 545.801 341.098 546.109 341.098H549.159C549.392 341.098 549.63 340.941 549.706 340.709C550.641 338.124 551.036 335.544 550.798 332.959C550.565 330.536 549.549 327.405 548.613 326.621C548.375 326.464 548.218 326.388 548.067 326.388H548.218C549.002 326.388 549.392 327.016 549.392 327.637H552.675V334.289H551.112C551.187 334.603 551.187 334.992 551.036 335.23C551.268 335.387 551.425 335.544 551.658 335.777V335.463H553.302C553.61 335.463 553.924 335.23 553.924 334.836V326.934C553.924 326.621 553.691 326.307 553.302 326.307H539.625C539.155 325.058 538.533 323.571 537.83 322.165ZM435.229 208.24C435.386 207.775 454.065 157.226 495.085 139.467C495.242 139.385 495.474 139.385 495.631 139.467C495.788 139.542 495.945 139.705 495.945 139.932C496.026 140.326 498.838 161.845 492.976 186.413C493.057 186.646 492.976 186.878 492.819 187.041C490.164 197.678 485.945 208.867 479.066 219.197C486.335 218.18 522.514 213.875 549.078 227.254C549.235 227.33 549.392 227.487 549.392 227.725C549.392 227.882 549.392 228.114 549.235 228.271C548.921 228.585 517.982 260.979 487.741 260.979C485.551 260.979 483.441 260.822 481.332 260.427C481.019 260.351 480.786 260.038 480.867 259.724C480.943 259.41 481.257 259.178 481.57 259.253C510.871 264.104 543.14 232.733 547.829 228.039C519.702 214.346 481.019 220.132 478.207 220.603C473.831 226.941 468.44 232.89 461.799 238.13C463.908 237.584 466.644 237.037 469.846 236.486C474.378 235.707 479.926 234.842 485.864 233.982L497.037 221.462C497.275 221.23 497.664 221.23 497.897 221.387C498.135 221.619 498.135 222.014 497.978 222.247L487.584 233.749C493.522 232.965 499.855 232.105 505.95 231.402L516.03 221.462C516.263 221.23 516.652 221.23 516.884 221.462C517.122 221.7 517.122 222.09 516.884 222.328L507.902 231.164C524.153 229.212 538.376 227.725 539.701 227.568C540.014 227.568 540.328 227.801 540.409 228.114C540.409 228.428 540.171 228.742 539.858 228.817C539.468 228.817 520.638 230.775 501.104 233.279L517.825 241.888C518.139 242.04 518.215 242.435 518.058 242.667C517.982 242.905 517.744 242.981 517.512 242.981C517.436 242.981 517.355 242.981 517.198 242.905L498.914 233.511C488.99 234.766 478.991 236.172 471.409 237.427L492.04 251.434C492.354 251.59 492.354 251.98 492.197 252.293C492.04 252.45 491.883 252.526 491.727 252.526C491.57 252.526 491.494 252.526 491.413 252.45L469.77 237.741C464.297 238.676 460.236 239.617 458.673 240.401C457.499 241.261 456.25 242.121 455.001 242.905C454.925 242.981 454.768 242.981 454.687 242.981C454.455 242.981 454.298 242.905 454.141 242.667C453.984 242.354 454.065 242.04 454.298 241.807C475.941 228.039 486.41 207.148 491.337 187.976L470.787 200.025C468.678 203.784 466.801 206.753 465.081 208.478C464.925 208.635 464.768 208.635 464.611 208.635C464.454 208.635 464.297 208.554 464.221 208.478C463.989 208.24 463.989 207.851 464.221 207.618C466.644 205.114 469.77 199.636 473.053 193.065C472.036 189.388 465.471 166.539 465.395 165.598C465.314 165.29 465.552 164.971 465.941 164.895C466.255 164.814 466.563 165.052 466.644 165.441C466.801 166.144 470.944 180.854 473.913 191.421C481.803 175.143 490.164 153.235 490.396 151.986C490.396 151.672 490.634 151.44 491.023 151.44C491.337 151.44 491.645 151.748 491.645 152.062C491.645 152.3 482.738 176.16 474.378 193.217C474.378 193.298 474.302 193.373 474.221 193.455C473.442 195.017 472.658 196.505 471.955 197.916L491.802 186.256C497.118 164.424 495.399 145.021 494.928 140.878C454.925 158.714 436.641 208.083 436.484 208.554C436.403 208.867 436.013 209.024 435.7 208.948C435.31 208.948 435.154 208.554 435.229 208.24ZM462.891 250.336C463.129 250.568 463.205 250.963 462.972 251.196C462.815 251.352 462.659 251.434 462.502 251.434C462.345 251.434 462.188 251.352 462.112 251.277C459.846 249.319 457.656 246.972 455.628 244.392C455.39 244.154 455.471 243.765 455.704 243.527C455.936 243.295 456.331 243.37 456.564 243.608C458.516 246.112 460.625 248.378 462.891 250.336ZM457.737 200.728L453.205 181.481C453.124 181.173 453.362 180.854 453.671 180.778C453.984 180.702 454.298 180.935 454.374 181.249L458.905 200.496C458.987 200.809 458.754 201.123 458.44 201.199H458.284C458.051 201.199 457.813 200.966 457.737 200.728ZM368.343 252.526C377.564 252.526 385.065 260.038 385.065 269.269C385.065 278.506 377.564 286.012 368.343 286.012C359.123 286.012 351.622 278.506 351.622 269.269C351.622 260.038 359.123 252.526 368.343 252.526ZM368.343 287.186C378.267 287.186 386.238 279.128 386.238 269.269C386.238 259.41 378.191 251.352 368.343 251.352C358.42 251.352 350.454 259.41 350.454 269.269C350.454 279.128 358.42 287.186 368.343 287.186ZM526.343 494.295C526.186 494.452 526.029 494.533 525.873 494.533C525.716 494.533 525.64 494.533 525.483 494.377C525.245 494.139 525.169 493.825 525.326 493.511C537.283 477.239 550.565 461.593 564.707 447.192C576.664 435.067 589.476 423.489 602.763 412.921C602.996 412.689 603.385 412.77 603.623 413.003C603.856 413.235 603.775 413.63 603.542 413.862C590.26 424.424 577.524 435.927 565.567 448.057C551.501 462.529 538.295 478.023 526.343 494.295ZM251.217 365.12C243.478 359.328 241.369 358.468 240.823 358.468C240.899 358.858 241.369 360.188 244.495 364.255C244.652 364.412 244.652 364.65 244.571 364.882C244.495 365.12 244.262 365.196 244.025 365.196C242.229 365.272 241.294 365.428 240.899 365.51C241.602 365.899 243.716 366.84 250.357 368.484C250.671 368.56 250.903 368.873 250.822 369.187C250.747 369.501 250.514 369.658 250.2 369.658H250.044C240.039 367.154 239.336 366.137 239.417 365.272C239.493 364.65 240.12 364.179 242.775 364.022C239.493 359.561 239.184 358.23 239.887 357.527C240.59 356.743 242.153 356.668 251.996 364.098C252.228 364.336 252.31 364.65 252.153 364.963C251.839 365.272 251.45 365.353 251.217 365.12ZM230.743 378.889C231.213 375.13 231.213 373.492 231.132 372.783C230.899 373.178 230.429 374.038 229.726 375.682C229.65 375.915 229.336 376.071 229.104 376.071C228.866 376.071 228.633 375.839 228.552 375.601C227.849 371.534 227.303 369.42 226.995 368.327C226.838 369.971 226.838 373.724 227.146 382.096C227.146 382.41 226.914 382.723 226.6 382.723C226.286 382.723 225.978 382.485 225.978 382.177C225.351 366.213 225.978 366.137 226.838 366.056C227.46 365.98 228.006 365.899 229.493 373.492C230.429 371.534 230.975 371.22 231.602 371.302C232.381 371.453 232.852 372.161 232.073 379.122C232.073 379.435 231.759 379.673 231.37 379.673C230.975 379.516 230.743 379.203 230.743 378.889ZM253.169 337.031C253.169 335.701 252.78 334.836 252.466 334.214C251.92 333.273 251.217 332.802 250.822 331.629C250.514 330.612 250.59 329.752 250.666 329.125C252.385 328.578 256.609 327.405 261.217 329.125C262.779 329.676 265.516 330.769 267.236 333.586C268.247 335.387 268.485 337.183 268.485 338.205C270.28 339.611 271.14 341.882 270.67 343.991C270.123 346.495 267.858 348.372 265.127 348.529L265.981 351.503C266.062 351.817 265.905 352.13 265.592 352.287C265.278 352.363 264.97 352.206 264.813 351.892L263.093 345.949C263.012 345.635 263.169 345.322 263.482 345.246C264.575 344.775 265.359 343.759 265.278 342.504C265.278 341.412 264.575 340.471 263.639 340C262.309 340.157 260.438 340.081 258.404 339.065C256.917 338.28 255.825 337.264 255.122 336.404C254.029 337.734 253.169 339.297 252.699 340.86C252.077 342.742 251.217 345.322 252.466 347.907C253.245 349.47 254.576 350.411 255.511 350.957C255.749 351.032 255.825 351.27 255.825 351.503V356.121C255.825 356.435 255.592 356.743 255.203 356.743C254.889 356.743 254.576 356.511 254.576 356.121V351.892C253.483 351.27 252.153 350.173 251.374 348.529C249.887 345.56 250.903 342.585 251.525 340.627C251.839 339.378 252.385 338.205 253.169 337.031ZM220.192 166.068C230.975 166.068 239.731 174.829 239.731 185.629C239.731 196.429 230.975 205.19 220.192 205.19C212.615 205.19 205.974 200.809 202.767 194.471C203.005 193.92 203.162 193.373 203.238 192.746C203.784 189.777 203.238 186.413 202.378 185.316C202.145 185.002 201.831 184.845 201.518 184.769C201.285 184.769 200.972 184.845 200.658 185.159C200.972 174.678 209.565 166.068 220.192 166.068ZM195.737 196.505C196.05 196.58 196.364 196.348 196.44 196.034C197.3 191.735 197.846 189.62 198.159 188.604C198.235 189.225 198.316 190.166 198.316 191.735C198.316 192.043 198.549 192.281 198.862 192.357C199.176 192.357 199.49 192.2 199.49 191.892C200.501 187.587 201.204 186.489 201.442 186.175C201.907 186.803 202.534 189.696 201.988 192.589C201.518 194.942 200.344 197.132 198.473 198.927C198.235 199.165 198.235 199.555 198.473 199.793C198.63 199.95 198.787 199.95 198.938 199.95C199.095 199.95 199.252 199.868 199.333 199.793C200.501 198.619 201.442 197.289 202.145 195.958C205.736 202.215 212.458 206.52 220.192 206.52C231.678 206.52 240.98 197.208 240.98 185.705C240.98 174.202 231.678 164.895 220.192 164.895C208.71 164.895 199.409 174.202 199.409 185.705C199.409 186.256 199.49 186.803 199.49 187.43C199.49 187.268 199.565 187.192 199.641 187.116C199.565 187.349 199.409 187.663 199.333 187.976C199.176 186.878 198.862 186.57 198.392 186.57C197.689 186.489 197.067 186.413 195.19 195.802C195.19 196.115 195.423 196.429 195.737 196.505ZM138.147 174.283C137.914 174.051 137.833 173.737 137.99 173.423C138.617 172.639 140.256 170.681 143.149 170.292C144.637 170.135 145.886 170.449 146.665 170.763C146.821 168.491 147.524 165.598 149.634 162.937C152.137 159.655 155.415 158.4 156.826 157.929C158.541 158.092 161.823 158.638 165.187 160.828C167.604 162.391 169.091 164.268 170.027 165.522L167.918 168.654C168.156 169.827 168.232 171.001 168.232 172.174C168.232 175.067 168.232 178.977 165.495 181.011C164.484 181.795 163.154 182.184 161.591 182.184H160.963C160.655 182.184 160.341 181.871 160.417 181.562C160.417 181.249 160.731 181.011 161.044 181.011C162.526 181.092 163.857 180.778 164.792 180.075C167.058 178.431 167.058 174.829 167.058 172.25C167.058 170.838 166.901 169.432 166.593 168.026C165.652 168.654 164.716 169.119 163.624 169.432C162.526 169.746 161.434 169.903 160.341 169.903C161.358 173.813 160.185 177.728 157.291 179.448C155.339 180.621 153.149 180.389 152.056 180.075C151.743 179.999 151.51 179.68 151.586 179.372C151.586 179.291 151.667 179.134 151.743 179.053C150.493 177.88 149.168 176.706 147.914 175.532L144.399 176.868H144.166C143.928 176.868 143.696 176.706 143.62 176.473C143.463 176.16 143.696 175.77 144.009 175.695L146.903 174.829C146.821 174.44 146.665 173.58 146.665 172.407L146.351 172.012C145.648 171.704 144.555 171.466 143.306 171.547C140.883 171.855 139.396 173.58 139.007 174.126C138.85 174.44 138.461 174.521 138.147 174.283ZM471.252 346.652C471.019 347.355 470.63 348.685 469.689 350.957L467.58 353.536C466.72 350.719 466.563 347.982 467.115 345.246C467.661 342.899 468.678 340.86 469.143 340.314C469.3 340.784 469.613 342.271 469.381 347.122C469.381 347.355 469.532 347.593 469.77 347.75C470.003 347.825 470.316 347.75 470.473 347.593C470.863 347.122 471.095 346.809 471.252 346.652ZM469.456 338.983C467.737 338.67 466.255 343.678 465.941 345.008C465.238 348.215 465.552 351.584 466.801 354.948C466.877 355.18 467.034 355.337 467.266 355.337H467.347C467.504 355.337 467.737 355.261 467.818 355.105L470.63 351.584C470.63 351.503 470.706 351.503 470.706 351.427C473.053 345.868 472.815 345.165 472.193 344.851C471.798 344.619 471.333 344.775 470.63 345.403C470.863 339.768 470.159 339.065 469.456 338.983Z" fill="#0F0E0C"/>
<path d="M260.984 354.947C258.486 356.04 256.295 356.197 255.046 356.197C254.343 357.684 253.245 360.031 252.153 363.162C247.935 374.584 248.562 380.138 243.792 383.507C243.17 383.896 240.277 385.93 237.075 385.146C233.09 384.129 231.527 379.516 231.37 378.964L225.118 382.955C226.524 388.98 231.056 393.755 236.837 395.399C244.025 397.351 249.811 393.517 250.671 392.895C248.562 399.936 246.447 407.053 244.338 414.094C245.901 415.035 251.839 418.556 259.81 417.307C266.998 416.209 271.454 411.985 272.784 410.574C272.86 407.448 273.093 402.359 273.487 396.102C275.126 372.783 278.019 363.081 272 356.197C270.827 354.866 268.874 353.065 265.359 351.816C264.58 352.676 263.093 353.931 260.984 354.947ZM155.42 182.968C156.669 183.282 157.762 183.206 158.308 183.049C159.952 183.595 162.294 184.612 164.716 186.413C167.61 188.679 168.859 190.95 170.108 192.594C172.142 195.255 175.657 198.619 182.455 201.123C184.018 200.809 185.813 200.263 187.765 199.479C190.972 198.229 193.395 196.585 195.19 195.255C196.753 196.975 198.316 198.776 199.879 200.495C198.549 201.593 196.521 203.313 194.017 205.346C189.566 208.948 187.3 210.749 186.127 211.371C184.174 212.312 179.015 213.956 169.016 208.164C168.545 218.493 167.999 228.741 167.529 239.07C163.857 240.244 157.059 241.807 148.698 240.558C143.074 239.698 138.618 237.74 135.73 236.177L133.853 204.724C132.993 203.859 127.445 197.991 128.148 189.074C128.926 179.61 136.195 174.596 137.055 173.969C137.758 173.893 138.618 173.893 139.71 174.131C141.976 174.596 143.463 176.008 144.09 176.635C142.76 177.652 140.727 179.528 139.477 182.503C139.164 183.206 137.914 186.099 138.774 186.727C139.553 187.354 141.511 185.553 145.183 183.676C147.919 182.265 150.418 181.405 152.137 180.859C152.451 181.248 153.544 182.503 155.42 182.968Z" fill="#FFEB9A"/>
<path d="M184.564 336.479H174.483C174.716 336.166 174.873 335.776 175.029 335.23C175.186 334.289 175.029 333.429 173.78 330.85C173.391 329.984 172.845 328.968 172.217 327.794C172.374 327.718 172.531 327.481 172.531 327.329L173.001 296.422H196.753L184.564 336.479ZM170.968 381.468H106.813L119.397 340.081H183.39L170.968 381.468ZM157.448 426.539H93.1417L105.721 385.146H169.876L157.448 426.539ZM144.166 470.511H79.7029L91.9682 430.135H156.28L144.166 470.511ZM132.755 296.341H137.444L137.996 326.074C137.996 326.388 138.228 326.621 138.542 326.702L139.867 326.859C139.553 328.503 139.321 330.455 139.402 332.802C139.477 334.132 139.634 335.306 139.791 336.404H120.647L132.755 296.341ZM137.055 281.945L137.211 287.58L137.287 292.664H133.772L137.055 281.945ZM149.871 296.341L147.211 326.621L139.164 325.604L138.617 296.422H149.871V296.341ZM153.7 266.608L156.669 276.391L158.546 292.664H151.434L153.7 266.608ZM164.17 327.875C164.17 330.769 164.089 333.586 164.089 336.479H149.012C148.931 335.306 148.774 333.976 148.309 332.413C147.762 330.455 147.059 328.892 146.356 327.718L147.606 327.875H147.681C147.838 327.875 147.995 327.794 148.071 327.718C148.227 327.637 148.309 327.481 148.309 327.329L151.04 296.341H158.935L162.526 327.329C162.526 327.637 162.84 327.875 163.154 327.875H164.17ZM171.59 296.341L171.125 326.621H163.624L160.109 296.341H171.59ZM209.413 260.119C208.472 259.805 207.456 260.351 207.147 261.368L197.689 292.664H172.92L173.001 288.986L167.215 239.228C167.139 238.914 166.907 238.676 166.512 238.676C166.204 238.676 165.966 238.99 165.966 239.384L171.747 289.068L171.671 292.664H159.795L157.919 276.159L154.09 263.558C154.09 263.482 154.014 263.482 154.014 263.401L154.09 262.385V252.136C154.09 251.823 153.857 251.509 153.462 251.509C153.154 251.509 152.84 251.747 152.84 252.136V262.309L150.185 292.588H138.542L138.461 287.499L138.228 278.192L144.09 258.945C144.399 258.004 143.852 256.987 142.836 256.674C141.9 256.36 140.883 256.906 140.57 257.923L137.914 266.608L137.136 236.41C137.136 236.096 136.822 235.864 136.508 235.783C136.195 235.783 135.881 236.096 135.881 236.41L136.741 270.286L65.6367 504.235C65.323 505.171 65.8692 506.187 66.886 506.501C67.0428 506.582 67.2807 506.582 67.4322 506.582C68.2163 506.582 68.9194 506.112 69.1519 505.252L78.6051 474.107H143.074L134.086 504.235C133.772 505.171 134.318 506.187 135.335 506.501C135.492 506.582 135.73 506.582 135.881 506.582C136.665 506.582 137.368 506.031 137.601 505.252L210.663 262.309C210.895 261.449 210.349 260.351 209.413 260.119Z" fill="#0F0E0C"/>
</svg>
