<svg width="142" height="149" viewBox="0 0 142 149" fill="none" xmlns="http://www.w3.org/2000/svg">
<path d="M90.3494 0H0V148.331H111.199V20.8591L90.3494 0Z" fill="#FDF8DA"/>
<path d="M90.3494 0V20.8591H111.199L90.3494 0Z" fill="#F3D33F"/>
<path d="M27.8005 18.542H32.4333" stroke="#434343" stroke-width="4.63434" stroke-miterlimit="10"/>
<path d="M37.0662 18.542H41.7002" stroke="#434343" stroke-width="4.63434" stroke-miterlimit="10"/>
<path d="M46.3329 18.542H50.967" stroke="#434343" stroke-width="4.63434" stroke-miterlimit="10"/>
<path d="M111.2 85.7539V92.7069" stroke="#2D2829" stroke-width="4.63434" stroke-miterlimit="10"/>
<path d="M104.25 92.707V132.108C104.25 133.887 104.929 135.665 106.286 137.024C107.643 138.382 109.42 139.061 111.2 139.061C112.979 139.061 114.756 138.382 116.113 137.024C117.471 135.665 118.15 133.887 118.15 132.108V92.707H104.25Z" fill="#434343"/>
<path d="M104.25 99.6602H118.15" stroke="#2D2829" stroke-width="4.63434" stroke-miterlimit="10"/>
<path d="M139 57.942C139 58.3965 138.988 58.8523 138.966 59.3068C138.943 59.7614 138.91 60.2146 138.866 60.6678C138.821 61.1211 138.766 61.573 138.699 62.0224C138.632 62.473 138.554 62.9211 138.466 63.3679C138.377 63.8147 138.278 64.2577 138.167 64.6993C138.056 65.1409 137.935 65.58 137.802 66.0152C137.671 66.4504 137.528 66.8831 137.375 67.3118C137.222 67.7406 137.058 68.1642 136.883 68.5853C136.709 69.0063 136.525 69.4222 136.331 69.8329C136.136 70.245 135.932 70.6506 135.717 71.0523C135.503 71.454 135.279 71.8493 135.044 72.2408C134.81 72.6309 134.567 73.0146 134.314 73.3932C134.062 73.7717 133.799 74.1438 133.529 74.5095C133.257 74.8752 132.978 75.2344 132.689 75.5859C132.401 75.9374 132.104 76.2825 131.798 76.6199C131.492 76.9572 131.179 77.2868 130.857 77.6075C130.535 77.9294 130.206 78.2435 129.87 78.55C129.532 78.8551 129.187 79.1526 128.836 79.441C128.484 79.7294 128.126 80.0101 127.761 80.2805C127.395 80.5522 127.023 80.8136 126.644 81.0672C126.267 81.3196 125.882 81.563 125.492 81.7973C125.102 82.0316 124.706 82.2557 124.305 82.4694C123.903 82.6845 123.497 82.8892 123.085 83.0836C122.675 83.278 122.259 83.4622 121.839 83.6373C121.418 83.8111 120.994 83.9746 120.565 84.1279C120.137 84.2811 119.705 84.424 119.27 84.5566C118.835 84.6892 118.396 84.8103 117.954 84.921C117.514 85.0317 117.07 85.1309 116.623 85.2197C116.177 85.3086 115.729 85.3858 115.279 85.4528C114.829 85.5197 114.377 85.5751 113.924 85.6202C113.472 85.6652 113.019 85.6987 112.564 85.7206C112.11 85.7425 111.655 85.7541 111.199 85.7541C110.745 85.7541 110.29 85.7425 109.836 85.7206C109.381 85.6987 108.928 85.6652 108.475 85.6202C108.022 85.5751 107.571 85.5197 107.12 85.4528C106.671 85.3858 106.223 85.3086 105.776 85.2197C105.331 85.1309 104.886 85.0317 104.445 84.921C104.003 84.8103 103.565 84.6892 103.13 84.5566C102.695 84.424 102.262 84.2811 101.835 84.1279C101.406 83.9746 100.981 83.8111 100.561 83.6373C100.14 83.4622 99.7244 83.278 99.3136 83.0836C98.9029 82.8892 98.496 82.6845 98.0956 82.4694C97.6938 82.2557 97.2985 82.0316 96.9071 81.7973C96.517 81.563 96.1333 81.3196 95.7547 81.0672C95.3762 80.8136 95.0053 80.5522 94.6396 80.2805C94.274 80.0101 93.9147 79.7294 93.5632 79.441C93.2117 79.1526 92.8679 78.8551 92.5306 78.55C92.1932 78.2435 91.8636 77.9294 91.5417 77.6075C91.2211 77.2868 90.9069 76.9572 90.6017 76.6199C90.2953 76.2825 89.9991 75.9374 89.7107 75.5859C89.421 75.2344 89.1416 74.8752 88.8712 74.5095C88.5995 74.1438 88.3381 73.7717 88.0845 73.3932C87.8321 73.0146 87.5888 72.6309 87.3544 72.2408C87.1214 71.8493 86.8973 71.454 86.6823 71.0523C86.4673 70.6506 86.2638 70.245 86.0694 69.8329C85.875 69.4222 85.6896 69.0063 85.5157 68.5853C85.3419 68.1642 85.1784 67.7406 85.0252 67.3118C84.8719 66.8831 84.729 66.4504 84.5964 66.0152C84.4651 65.58 84.344 65.1409 84.2333 64.6993C84.1225 64.2577 84.0221 63.8147 83.9346 63.3679C83.8457 62.9211 83.7672 62.473 83.7002 62.0224C83.6346 61.573 83.5779 61.1211 83.5341 60.6678C83.4891 60.2146 83.4556 59.7614 83.4337 59.3068C83.4105 58.8523 83.4002 58.3965 83.4002 57.942C83.4002 57.4862 83.4105 57.0317 83.4337 56.5771C83.4556 56.1226 83.4891 55.6694 83.5341 55.2161C83.5779 54.7629 83.6346 54.311 83.7002 53.8616C83.7672 53.4109 83.8457 52.9628 83.9346 52.5161C84.0221 52.0693 84.1225 51.6263 84.2333 51.1847C84.344 50.743 84.4651 50.304 84.5964 49.8688C84.729 49.4335 84.8719 49.0009 85.0252 48.5721C85.1784 48.1434 85.3419 47.7197 85.5157 47.2987C85.6896 46.8777 85.875 46.4618 86.0694 46.051C86.2638 45.639 86.4673 45.2334 86.6823 44.8317C86.8973 44.4299 87.1214 44.0346 87.3544 43.6432C87.5888 43.2531 87.8321 42.8694 88.0845 42.4908C88.3381 42.1123 88.5995 41.7401 88.8712 41.3745C89.1416 41.0088 89.421 40.6496 89.7107 40.298C89.9991 39.9465 90.2953 39.6014 90.6017 39.2641C90.9069 38.9267 91.2211 38.5971 91.5417 38.2752C91.8636 37.9546 92.1932 37.6404 92.5306 37.334C92.8679 37.0288 93.2117 36.7314 93.5632 36.443C93.9147 36.1546 94.274 35.8739 94.6396 35.6035C95.0053 35.3318 95.3762 35.0704 95.7547 34.8167C96.1333 34.5644 96.517 34.321 96.9071 34.0867C97.2985 33.8523 97.6938 33.6283 98.0956 33.4133C98.496 33.1995 98.9029 32.9948 99.3136 32.8004C99.7244 32.6059 100.14 32.4205 100.561 32.2467C100.981 32.0729 101.406 31.9093 101.835 31.7561C102.262 31.6029 102.695 31.46 103.13 31.3273C103.565 31.1947 104.003 31.0737 104.445 30.963C104.886 30.8522 105.331 30.7531 105.776 30.6642C106.223 30.5754 106.671 30.4981 107.12 30.4312C107.571 30.3642 108.022 30.3089 108.475 30.2638C108.928 30.2187 109.381 30.1852 109.836 30.1634C110.29 30.1415 110.745 30.1299 111.199 30.1299C111.655 30.1299 112.11 30.1415 112.564 30.1634C113.019 30.1852 113.472 30.2187 113.924 30.2638C114.377 30.3089 114.829 30.3642 115.279 30.4312C115.729 30.4981 116.177 30.5754 116.623 30.6642C117.07 30.7531 117.514 30.8522 117.954 30.963C118.396 31.0737 118.835 31.1947 119.27 31.3273C119.705 31.46 120.137 31.6029 120.565 31.7561C120.994 31.9093 121.418 32.0729 121.839 32.2467C122.259 32.4205 122.675 32.6059 123.085 32.8004C123.497 32.9948 123.903 33.1995 124.305 33.4133C124.706 33.6283 125.102 33.8523 125.492 34.0867C125.882 34.321 126.267 34.5644 126.644 34.8167C127.023 35.0704 127.395 35.3318 127.761 35.6035C128.126 35.8739 128.484 36.1546 128.836 36.443C129.187 36.7314 129.532 37.0288 129.87 37.334C130.206 37.6404 130.535 37.9546 130.857 38.2752C131.179 38.5971 131.492 38.9267 131.798 39.2641C132.104 39.6014 132.401 39.9465 132.689 40.298C132.978 40.6496 133.257 41.0088 133.529 41.3745C133.799 41.7401 134.062 42.1123 134.314 42.4908C134.567 42.8694 134.81 43.2531 135.044 43.6432C135.279 44.0346 135.503 44.4299 135.717 44.8317C135.932 45.2334 136.136 45.639 136.331 46.051C136.525 46.4618 136.709 46.8777 136.883 47.2987C137.058 47.7197 137.222 48.1434 137.375 48.5721C137.528 49.0009 137.671 49.4335 137.802 49.8688C137.935 50.304 138.056 50.743 138.167 51.1847C138.278 51.6263 138.377 52.0693 138.466 52.5161C138.554 52.9628 138.632 53.4109 138.699 53.8616C138.766 54.311 138.821 54.7629 138.866 55.2161C138.91 55.6694 138.943 56.1226 138.966 56.5771C138.988 57.0317 139 57.4862 139 57.942Z" fill="#FDF8DA"/>
<path d="M132.05 57.9421C132.05 58.6258 132.016 59.3069 131.949 59.9868C131.882 60.6666 131.782 61.3413 131.649 62.0109C131.516 62.6817 131.35 63.3436 131.152 63.9977C130.954 64.6505 130.725 65.293 130.463 65.9239C130.202 66.5561 129.91 67.1729 129.588 67.7755C129.266 68.3781 128.916 68.9626 128.536 69.5305C128.157 70.0983 127.75 70.6468 127.318 71.1747C126.884 71.7026 126.425 72.2087 125.942 72.6915C125.46 73.1744 124.955 73.6327 124.427 74.0667C123.899 74.4993 123.351 74.9062 122.784 75.286C122.216 75.6659 121.63 76.0161 121.029 76.338C120.426 76.6599 119.81 76.9522 119.179 77.2136C118.548 77.4749 117.905 77.7041 117.252 77.9024C116.598 78.1007 115.937 78.2668 115.267 78.4007C114.597 78.5333 113.923 78.6338 113.243 78.7007C112.564 78.7677 111.883 78.8012 111.199 78.8012C110.517 78.8012 109.836 78.7677 109.156 78.7007C108.476 78.6338 107.802 78.5333 107.132 78.4007C106.462 78.2668 105.801 78.1007 105.148 77.9024C104.494 77.7041 103.851 77.4749 103.22 77.2136C102.591 76.9522 101.974 76.6599 101.371 76.338C100.769 76.0161 100.184 75.6659 99.6163 75.286C99.0484 74.9062 98.5012 74.4993 97.9733 74.0667C97.4454 73.6327 96.9393 73.1744 96.4565 72.6915C95.9737 72.2087 95.5153 71.7026 95.0826 71.1747C94.6487 70.6468 94.2431 70.0983 93.8633 69.5305C93.4847 68.9626 93.1332 68.3781 92.8113 67.7755C92.4894 67.1729 92.1984 66.5561 91.937 65.9239C91.6757 65.293 91.4465 64.6505 91.2482 63.9977C91.0499 63.3436 90.8838 62.6817 90.7499 62.0109C90.6172 61.3413 90.5168 60.6666 90.4499 59.9868C90.3829 59.3069 90.3494 58.6258 90.3494 57.9421C90.3494 57.2584 90.3829 56.5772 90.4499 55.8974C90.5168 55.2175 90.6172 54.5428 90.7499 53.8733C90.8838 53.2024 91.0499 52.5406 91.2482 51.8865C91.4465 51.2337 91.6757 50.5912 91.937 49.9603C92.1984 49.3281 92.4894 48.7113 92.8113 48.1087C93.1332 47.5061 93.4847 46.9215 93.8633 46.3537C94.2431 45.7859 94.6487 45.2374 95.0826 44.7094C95.5153 44.1815 95.9737 43.6755 96.4565 43.1927C96.9393 42.7098 97.4454 42.2514 97.9733 41.8175C98.5012 41.3849 99.0484 40.978 99.6163 40.5981C100.184 40.2183 100.769 39.8681 101.371 39.5462C101.974 39.2243 102.591 38.932 103.22 38.6706C103.851 38.4092 104.494 38.18 105.148 37.9818C105.801 37.7835 106.462 37.6174 107.132 37.4835C107.802 37.3508 108.476 37.2504 109.156 37.1834C109.836 37.1165 110.517 37.083 111.199 37.083C111.883 37.083 112.564 37.1165 113.243 37.1834C113.923 37.2504 114.597 37.3508 115.267 37.4835C115.937 37.6174 116.598 37.7835 117.252 37.9818C117.905 38.18 118.548 38.4092 119.179 38.6706C119.81 38.932 120.426 39.2243 121.029 39.5462C121.63 39.8681 122.216 40.2183 122.784 40.5981C123.351 40.978 123.899 41.3849 124.427 41.8175C124.955 42.2514 125.46 42.7098 125.942 43.1927C126.425 43.6755 126.884 44.1815 127.318 44.7094C127.75 45.2374 128.157 45.7859 128.536 46.3537C128.916 46.9215 129.266 47.5061 129.588 48.1087C129.91 48.7113 130.202 49.3281 130.463 49.9603C130.725 50.5912 130.954 51.2337 131.152 51.8865C131.35 52.5406 131.516 53.2024 131.649 53.8733C131.782 54.5428 131.882 55.2175 131.949 55.8974C132.016 56.5772 132.05 57.2584 132.05 57.9421Z" fill="#FFEB9A"/>
<path d="M139 57.942C139 58.3965 138.988 58.8523 138.966 59.3068C138.943 59.7614 138.91 60.2146 138.866 60.6678C138.821 61.1211 138.766 61.573 138.699 62.0224C138.632 62.473 138.554 62.9211 138.466 63.3679C138.377 63.8147 138.278 64.2576 138.167 64.6993C138.056 65.1409 137.935 65.58 137.802 66.0152C137.671 66.4504 137.528 66.8831 137.375 67.3118C137.222 67.7406 137.058 68.1642 136.883 68.5853C136.709 69.0063 136.525 69.4222 136.331 69.8329C136.136 70.245 135.932 70.6506 135.717 71.0523C135.503 71.454 135.279 71.8493 135.044 72.2407C134.81 72.6309 134.567 73.0146 134.314 73.3932C134.062 73.7717 133.799 74.1438 133.529 74.5095C133.257 74.8752 132.978 75.2344 132.689 75.5859C132.401 75.9374 132.104 76.2825 131.798 76.6199C131.492 76.9572 131.179 77.2868 130.857 77.6075C130.535 77.9294 130.206 78.2435 129.87 78.55C129.532 78.8551 129.187 79.1526 128.836 79.441C128.484 79.7294 128.126 80.0101 127.761 80.2805C127.395 80.5522 127.023 80.8136 126.644 81.0672C126.267 81.3196 125.882 81.563 125.492 81.7973C125.102 82.0316 124.706 82.2557 124.305 82.4694C123.903 82.6845 123.497 82.8892 123.085 83.0836C122.675 83.278 122.259 83.4622 121.839 83.6373C121.418 83.8111 120.994 83.9746 120.565 84.1279C120.137 84.2811 119.705 84.424 119.27 84.5566C118.835 84.6892 118.396 84.8103 117.954 84.921C117.514 85.0317 117.07 85.1309 116.623 85.2197C116.177 85.3086 115.729 85.3858 115.279 85.4528C114.829 85.5197 114.377 85.5751 113.924 85.6202C113.472 85.6652 113.019 85.6987 112.564 85.7206C112.11 85.7425 111.655 85.7541 111.199 85.7541C110.745 85.7541 110.29 85.7425 109.836 85.7206C109.381 85.6987 108.928 85.6652 108.475 85.6202C108.022 85.5751 107.571 85.5197 107.12 85.4528C106.671 85.3858 106.223 85.3086 105.776 85.2197C105.331 85.1309 104.886 85.0317 104.445 84.921C104.003 84.8103 103.565 84.6892 103.13 84.5566C102.695 84.424 102.262 84.2811 101.835 84.1279C101.406 83.9746 100.981 83.8111 100.561 83.6373C100.14 83.4622 99.7244 83.278 99.3136 83.0836C98.9029 82.8892 98.496 82.6845 98.0956 82.4694C97.6938 82.2557 97.2985 82.0316 96.9071 81.7973C96.517 81.563 96.1333 81.3196 95.7547 81.0672C95.3762 80.8136 95.0053 80.5522 94.6396 80.2805C94.274 80.0101 93.9147 79.7294 93.5632 79.441C93.2117 79.1526 92.8679 78.8551 92.5306 78.55C92.1932 78.2435 91.8636 77.9294 91.5417 77.6075C91.2211 77.2868 90.9069 76.9572 90.6017 76.6199C90.2953 76.2825 89.9991 75.9374 89.7107 75.5859C89.421 75.2344 89.1416 74.8752 88.8712 74.5095C88.5995 74.1438 88.3381 73.7717 88.0845 73.3932C87.8321 73.0146 87.5888 72.6309 87.3544 72.2407C87.1214 71.8493 86.8973 71.454 86.6823 71.0523C86.4673 70.6506 86.2638 70.245 86.0694 69.8329C85.875 69.4222 85.6896 69.0063 85.5157 68.5853C85.3419 68.1642 85.1784 67.7406 85.0252 67.3118C84.8719 66.8831 84.729 66.4504 84.5964 66.0152C84.465 65.58 84.344 65.1409 84.2333 64.6993C84.1225 64.2576 84.0221 63.8147 83.9346 63.3679C83.8457 62.9211 83.7672 62.473 83.7002 62.0224C83.6346 61.573 83.5779 61.1211 83.5341 60.6678C83.4891 60.2146 83.4556 59.7614 83.4337 59.3068C83.4105 58.8523 83.4002 58.3965 83.4002 57.942C83.4002 57.4862 83.4105 57.0317 83.4337 56.5771C83.4556 56.1226 83.4891 55.6694 83.5341 55.2161C83.5779 54.7629 83.6346 54.311 83.7002 53.8616C83.7672 53.4109 83.8457 52.9628 83.9346 52.5161C84.0221 52.0693 84.1225 51.6263 84.2333 51.1847C84.344 50.743 84.465 50.304 84.5964 49.8687C84.729 49.4335 84.8719 49.0009 85.0252 48.5721C85.1784 48.1434 85.3419 47.7198 85.5157 47.2987C85.6896 46.8777 85.875 46.4618 86.0694 46.051C86.2638 45.639 86.4673 45.2334 86.6823 44.8317C86.8973 44.4299 87.1214 44.0346 87.3544 43.6432C87.5888 43.2531 87.8321 42.8694 88.0845 42.4908C88.3381 42.1123 88.5995 41.7401 88.8712 41.3745C89.1416 41.0088 89.421 40.6496 89.7107 40.298C89.9991 39.9465 90.2953 39.6014 90.6017 39.2641C90.9069 38.9267 91.2211 38.5971 91.5417 38.2752C91.8636 37.9546 92.1932 37.6404 92.5306 37.334C92.8679 37.0288 93.2117 36.7314 93.5632 36.443C93.9147 36.1546 94.274 35.8739 94.6396 35.6035C95.0053 35.3318 95.3762 35.0704 95.7547 34.8167C96.1333 34.5644 96.517 34.321 96.9071 34.0867C97.2985 33.8523 97.6938 33.6283 98.0956 33.4133C98.496 33.1995 98.9029 32.9948 99.3136 32.8004C99.7244 32.6059 100.14 32.4205 100.561 32.2467C100.981 32.0729 101.406 31.9093 101.835 31.7561C102.262 31.6029 102.695 31.46 103.13 31.3273C103.565 31.1947 104.003 31.0737 104.445 30.963C104.886 30.8522 105.331 30.7531 105.776 30.6642C106.223 30.5754 106.671 30.4981 107.12 30.4312C107.571 30.3642 108.022 30.3089 108.475 30.2638C108.928 30.2187 109.381 30.1853 109.836 30.1634C110.29 30.1415 110.745 30.1299 111.199 30.1299C111.655 30.1299 112.11 30.1415 112.564 30.1634C113.019 30.1853 113.472 30.2187 113.924 30.2638C114.377 30.3089 114.829 30.3642 115.279 30.4312C115.729 30.4981 116.177 30.5754 116.623 30.6642C117.07 30.7531 117.514 30.8522 117.954 30.963C118.396 31.0737 118.835 31.1947 119.27 31.3273C119.705 31.46 120.137 31.6029 120.565 31.7561C120.994 31.9093 121.418 32.0729 121.839 32.2467C122.259 32.4205 122.675 32.6059 123.085 32.8004C123.497 32.9948 123.903 33.1995 124.305 33.4133C124.706 33.6283 125.102 33.8523 125.492 34.0867C125.882 34.321 126.267 34.5644 126.644 34.8167C127.023 35.0704 127.395 35.3318 127.761 35.6035C128.126 35.8739 128.484 36.1546 128.836 36.443C129.187 36.7314 129.532 37.0288 129.87 37.334C130.206 37.6404 130.535 37.9546 130.857 38.2752C131.179 38.5971 131.492 38.9267 131.798 39.2641C132.104 39.6014 132.401 39.9465 132.689 40.298C132.978 40.6496 133.257 41.0088 133.529 41.3745C133.799 41.7401 134.062 42.1123 134.314 42.4908C134.567 42.8694 134.81 43.2531 135.044 43.6432C135.279 44.0346 135.503 44.4299 135.717 44.8317C135.932 45.2334 136.136 45.639 136.331 46.051C136.525 46.4618 136.709 46.8777 136.883 47.2987C137.058 47.7198 137.222 48.1434 137.375 48.5721C137.528 49.0009 137.671 49.4335 137.802 49.8687C137.935 50.304 138.056 50.743 138.167 51.1847C138.278 51.6263 138.377 52.0693 138.466 52.5161C138.554 52.9628 138.632 53.4109 138.699 53.8616C138.766 54.311 138.821 54.7629 138.866 55.2161C138.91 55.6694 138.943 56.1226 138.966 56.5771C138.988 57.0317 139 57.4862 139 57.942Z" stroke="#434343" stroke-width="4.63434" stroke-miterlimit="10"/>
<path d="M122.783 50.9893L108.883 64.8953L101.933 57.9423" stroke="#434343" stroke-width="4.63434" stroke-miterlimit="10"/>
<path d="M11.5833 139.061V129.79" stroke="#FFDF60" stroke-width="4.63434" stroke-miterlimit="10"/>
<path d="M20.8501 139.061V122.837" stroke="#FFDF60" stroke-width="4.63434" stroke-miterlimit="10"/>
<path d="M30.117 139.06V134.425" stroke="#FFDF60" stroke-width="4.63434" stroke-miterlimit="10"/>
<path d="M39.3839 139.061V127.473" stroke="#FFDF60" stroke-width="4.63434" stroke-miterlimit="10"/>
<path d="M48.6494 139.061V122.837" stroke="#FFDF60" stroke-width="4.63434" stroke-miterlimit="10"/>
<path d="M57.9161 139.06V125.154" stroke="#FFDF60" stroke-width="4.63434" stroke-miterlimit="10"/>
<path d="M67.183 139.061V129.79" stroke="#FFDF60" stroke-width="4.63434" stroke-miterlimit="10"/>
<path d="M76.4498 139.06V125.154" stroke="#FFDF60" stroke-width="4.63434" stroke-miterlimit="10"/>
<path d="M85.7167 139.061V120.52" stroke="#FFDF60" stroke-width="4.63434" stroke-miterlimit="10"/>
<path d="M94.9835 139.061V122.837" stroke="#FFDF60" stroke-width="4.63434" stroke-miterlimit="10"/>
<path d="M27.8005 85.7539H83.4003" stroke="#434343" stroke-width="4.63434" stroke-miterlimit="10"/>
<path d="M27.8005 95.0244H44.0165" stroke="#434343" stroke-width="4.63434" stroke-miterlimit="10"/>
<path d="M48.6494 95.0244H97.2999" stroke="#434343" stroke-width="4.63434" stroke-miterlimit="10"/>
<path d="M9.26691 83.4365H23.1665V97.3426H9.26691V83.4365Z" fill="#F3D33F"/>
<path d="M27.8005 104.295H83.4003" stroke="#434343" stroke-width="4.63434" stroke-miterlimit="10"/>
<path d="M88.0331 104.295H97.2999" stroke="#434343" stroke-width="4.63434" stroke-miterlimit="10"/>
<path d="M27.8005 113.566H55.5998" stroke="#434343" stroke-width="4.63434" stroke-miterlimit="10"/>
<path d="M60.2338 113.566H97.2999" stroke="#434343" stroke-width="4.63434" stroke-miterlimit="10"/>
<path d="M9.26691 101.978H23.1665V115.884H9.26691V101.978Z" fill="#F3D33F"/>
<path d="M27.8005 67.2129H55.5998" stroke="#434343" stroke-width="4.63434" stroke-miterlimit="10"/>
<path d="M60.2338 67.2129H69.4994" stroke="#434343" stroke-width="4.63434" stroke-miterlimit="10"/>
<path d="M27.8005 76.4834H74.1334" stroke="#434343" stroke-width="4.63434" stroke-miterlimit="10"/>
<path d="M9.26691 64.8945H23.1665V78.8006H9.26691V64.8945Z" fill="#F3D33F"/>
<path d="M55.5999 30.1299H83.4004" stroke="#434343" stroke-width="4.63434" stroke-miterlimit="10"/>
<path d="M27.8005 30.1299H50.967" stroke="#434343" stroke-width="4.63434" stroke-miterlimit="10"/>
<path d="M27.8005 39.4004H69.4994" stroke="#434343" stroke-width="4.63434" stroke-miterlimit="10"/>
<path d="M23.1665 30.1299L13.8997 39.4006L9.26691 34.7652" stroke="#434343" stroke-width="4.63434" stroke-miterlimit="10"/>
<path d="M46.3329 48.6709H74.1335" stroke="#434343" stroke-width="4.63434" stroke-miterlimit="10"/>
<path d="M27.8005 48.6709H41.7002" stroke="#434343" stroke-width="4.63434" stroke-miterlimit="10"/>
<path d="M27.8005 57.9424H69.4994" stroke="#434343" stroke-width="4.63434" stroke-miterlimit="10"/>
<path d="M11.5833 48.6709L20.8501 57.9416" stroke="#FFDF60" stroke-width="4.63434" stroke-miterlimit="10"/>
<path d="M11.5833 57.9416L20.8501 48.6709" stroke="#FFDF60" stroke-width="4.63434" stroke-miterlimit="10"/>
</svg>
