<svg width="170" height="163" viewBox="0 0 170 163" fill="none" xmlns="http://www.w3.org/2000/svg">
<path d="M72.6406 111.815C72.6406 111.815 88.0289 134.579 94.1533 136.284C100.279 137.992 98.7399 145.478 94.6646 147.97C90.5901 150.464 81.988 151.364 77.9865 145.63C73.9853 139.898 64.0037 118.46 64.0037 118.46L72.6406 111.815Z" fill="#434343"/>
<path d="M92.4697 148.904C75.9244 148.87 68.1126 121.027 68.1126 121.027L65.0718 121.089C67.8245 126.918 74.6553 141.142 77.7915 145.646C81.2217 150.574 88.0521 150.586 92.4697 148.904Z" fill="#151515"/>
<path d="M36.8857 97.6802C36.8857 97.6802 25.0688 106.866 33.914 121.078C42.7596 135.29 56.5045 126.766 56.5045 126.766C56.5045 126.766 37.7306 98.1273 36.8857 97.6802Z" fill="#434343"/>
<path d="M56.5028 126.711C56.5028 126.711 54.5757 123.778 51.9234 119.771C50.5196 121.318 41.8503 129.654 30.6846 113.777C31.1348 115.997 32.0582 118.402 33.6622 120.973C42.6062 135.308 56.5028 126.711 56.5028 126.711Z" fill="#151515"/>
<path d="M89.7861 15.0142C89.7515 15.0934 89.6843 15.1313 89.6559 15.2184C85.1326 27.7906 72.4971 84.5399 72.4971 84.5399L85.1732 105.369C127.489 116.381 147.247 118.846 153.301 119.386L89.7861 15.0142Z" fill="#434343"/>
<path d="M108.991 47.2538C108.991 47.2538 137.302 102.052 136.024 106.814C134.747 111.575 81.4044 99.7382 81.4044 99.7382L84.6858 105.116C127.151 116.139 147.056 118.636 153.229 119.191L108.991 47.2538Z" fill="#151515"/>
<path d="M74.0886 75.9781C74.0886 75.9781 93.2388 105.26 91.7238 107.84C90.2101 110.416 63.5582 128.078 57.4068 128.116C51.2552 128.156 34.4519 99.9944 36.6262 96.6032C38.8012 93.2106 72.7011 73.835 74.0886 75.9781Z" fill="#FFEB9A"/>
<path d="M94.2037 8.94873C94.2037 8.94873 85.9437 12.0698 90.6185 17.2059C95.2923 22.3424 148.575 119.79 152.725 120.472C156.875 121.154 162.066 120.65 161.634 114.967C161.203 109.285 111.186 11.4391 94.2037 8.94873Z" fill="#FFEB9A"/>
</svg>
