<svg width="153" height="144" viewBox="0 0 153 144" fill="none" xmlns="http://www.w3.org/2000/svg">
<path d="M123.481 66.5209C123.481 71.0258 110.29 77.3086 88.8044 77.3086C83.5594 77.3086 78.5479 76.9156 73.8748 76.1519C73.9455 75.731 74.0322 75.3132 74.0322 74.8763V62.5965C78.716 63.3034 83.659 63.6814 88.8044 63.6814C102.256 63.6814 116.273 60.9674 123.481 55.8359V66.5209ZM69.0871 74.8784C69.0871 79.364 55.9473 85.6244 34.5441 85.6244C13.1399 85.6244 0 79.3662 0 74.8784V64.2502C7.19115 69.3592 21.1493 72.0615 34.5441 72.0615C47.9378 72.0615 61.897 69.3592 69.0871 64.2502V74.8784ZM0.00321327 82.7615C7.1933 87.8672 21.1515 90.5695 34.5462 90.5695C47.941 90.5695 61.8992 87.8672 69.0893 82.7615V93.3886C69.0893 97.8764 55.9494 104.138 34.5462 104.138C13.1431 104.138 0.00321327 97.8796 0.00321327 93.3886V82.7615ZM123.481 29.3708C123.481 33.879 110.29 40.164 88.8044 40.164C67.322 40.164 54.1297 33.879 54.1297 29.3708V18.6891C61.3401 23.8227 75.3529 26.5368 88.8044 26.5368C102.256 26.5368 116.273 23.8227 123.481 18.6891V29.3708ZM88.8044 0C110.29 0 123.481 6.28824 123.481 10.7964C123.481 15.3034 110.29 21.5917 88.8044 21.5917C67.322 21.5917 54.1297 15.3034 54.1297 10.7964C54.1297 6.28824 67.3188 0 88.8044 0ZM54.1297 37.2614C61.3401 42.395 75.3529 45.107 88.8044 45.107C102.256 45.107 116.273 42.3918 123.481 37.2614V47.9453C123.481 52.4534 110.29 58.7395 88.8044 58.7395C83.6537 58.7395 78.5522 58.3207 73.8844 57.5667C73.9487 57.1715 74.0355 56.7827 74.0355 56.3725C74.0355 49.7436 65.4155 45.1145 54.1329 42.6767V37.2614H54.1297ZM34.5441 45.6211C55.9451 45.6211 69.0871 51.8826 69.0871 56.3703C69.0871 60.8581 55.9473 67.1164 34.5441 67.1164C13.1399 67.1164 0 60.8581 0 56.3703C0.00321327 51.8826 13.1431 45.6211 34.5441 45.6211ZM34.5441 122.643C13.1431 122.643 0 116.384 0 111.895V101.27C7.19115 106.377 21.1493 109.081 34.5441 109.081C47.9378 109.081 61.897 106.377 69.0871 101.27V111.895C69.0871 116.382 55.9473 122.643 34.5441 122.643ZM88.8044 95.8885C83.5915 95.8885 78.5747 95.4879 73.8641 94.7242C73.9455 94.284 74.0322 93.8459 74.0322 93.3865V81.1741C78.6935 81.8789 83.644 82.257 88.8044 82.257C102.256 82.257 116.273 79.5418 123.481 74.4114V85.0932C123.481 89.6002 110.29 95.8885 88.8044 95.8885Z" fill="#434343"/>
<path d="M65.3372 85.0633L75.975 68.6975H91.727L73.3155 94.5759C77.407 99.6902 81.1234 104.668 84.4647 109.51C87.8061 114.351 90.4655 118.681 92.443 122.5H76.0773C75.5317 121.477 74.8498 120.216 74.0315 118.715C73.2132 117.147 72.2927 115.545 71.2698 113.908C70.2469 112.203 69.1559 110.533 67.9967 108.896C66.9056 107.191 65.8145 105.657 64.7235 104.293C63.7006 105.589 62.6437 107.021 61.5526 108.589C60.5298 110.157 59.541 111.76 58.5863 113.397C57.6317 114.965 56.677 116.533 55.7223 118.102C54.8358 119.67 54.0516 121.136 53.3697 122.5H37.8223C38.6405 120.795 39.7657 118.784 41.1977 116.465C42.6297 114.147 44.164 111.76 45.8006 109.305C47.5053 106.782 49.2783 104.293 51.1194 101.838C52.9606 99.3151 54.7676 96.9626 56.5406 94.7805C53.472 90.4844 50.4034 86.1543 47.3349 81.7901C44.2663 77.3577 41.2318 72.9935 38.2314 68.6975H54.6995L65.3372 85.0633ZM144.17 70.2318C144.17 72.823 143.659 75.312 142.636 77.6987C141.613 80.0854 140.283 82.4038 138.647 84.6541C137.01 86.8362 135.169 88.9502 133.123 90.9959C131.078 93.0416 129.066 94.985 127.088 96.8262C126.066 97.7809 124.94 98.8719 123.713 100.099C122.554 101.259 121.429 102.452 120.338 103.679C119.247 104.907 118.258 106.066 117.371 107.157C116.553 108.18 116.042 109.032 115.837 109.714H146.318V122.5H99.0621C98.9257 121.75 98.8575 120.795 98.8575 119.636C98.8575 118.477 98.8575 117.658 98.8575 117.181C98.8575 113.908 99.3689 110.908 100.392 108.18C101.483 105.452 102.881 102.929 104.586 100.611C106.29 98.2241 108.2 96.0079 110.314 93.9622C112.496 91.9165 114.644 89.8707 116.758 87.825C118.394 86.2566 119.928 84.7905 121.36 83.4267C122.792 81.9947 124.054 80.6309 125.145 79.3353C126.236 77.9714 127.088 76.6417 127.702 75.3461C128.316 73.9823 128.623 72.6185 128.623 71.2547C128.623 68.2543 127.77 66.1404 126.066 64.9129C124.361 63.6855 122.247 63.0718 119.724 63.0718C117.883 63.0718 116.144 63.3786 114.507 63.9923C112.939 64.5379 111.473 65.2198 110.109 66.0381C108.813 66.7882 107.688 67.5724 106.734 68.3906C105.779 69.1407 105.063 69.7545 104.586 70.2318L97.0163 59.594C100.017 56.7982 103.494 54.5138 107.45 52.7409C111.473 50.8997 115.769 49.9791 120.338 49.9791C124.497 49.9791 128.077 50.4565 131.078 51.4111C134.078 52.3658 136.533 53.7296 138.442 55.5026C140.42 57.2074 141.852 59.3213 142.738 61.8443C143.693 64.2992 144.17 67.095 144.17 70.2318Z" fill="#F3D33F"/>
</svg>
