<svg width="100" height="100" viewBox="0 0 100 100" fill="none" xmlns="http://www.w3.org/2000/svg">
<path d="M63.9523 53.7474V57.6397C63.9523 60.9488 61.2543 63.6493 57.9488 63.6493H42.0512C38.7457 63.6493 36.0477 60.9488 36.0477 57.6397V53.7474C36.0477 52.8715 36.2422 52.02 36.5825 51.2656H0V87.3472C0 89.6831 1.92014 91.5807 4.22917 91.5807H95.7708C98.1042 91.5807 100 89.6588 100 87.3472V51.2656H63.4175C63.7578 52.02 63.9523 52.8715 63.9523 53.7474ZM57.9488 60.1215C59.3099 60.1215 60.428 59.0026 60.428 57.6397V53.7474C60.428 52.3845 59.3099 51.2656 57.9488 51.2656H42.0512C40.6901 51.2656 39.572 52.3845 39.572 53.7474V57.6397C39.572 59.0026 40.6901 60.1215 42.0512 60.1215H57.9488ZM95.7708 24.0399H72.6302V12.7023C72.6302 10.3672 70.7101 8.46875 68.4002 8.46875H31.6241C29.2899 8.46875 27.3941 10.3915 27.3941 12.7023V24.0399H4.22917C1.92014 24.0399 0 25.9384 0 28.2734V47.7378H100V28.2734C100 25.9384 98.1042 24.0399 95.7708 24.0399ZM65.1918 24.0399H34.8082V18.0304C34.8082 16.8628 35.7561 15.9141 36.9227 15.9141H63.053C64.2196 15.9141 65.1675 16.8628 65.1675 18.0304V24.0399H65.1918Z" fill="#434343"/>
</svg>
