<svg width="21" height="21" viewBox="0 0 21 21" fill="none" xmlns="http://www.w3.org/2000/svg">
<path d="M21 10.5C21 10.8434 20.9836 11.1869 20.9497 11.5292C20.9158 11.8716 20.8655 12.2106 20.7987 12.5486C20.7309 12.8855 20.6478 13.2191 20.5483 13.5483C20.4477 13.8775 20.3328 14.2002 20.2005 14.5184C20.0692 14.8356 19.9227 15.1462 19.7597 15.4492C19.5978 15.7533 19.4217 16.0475 19.2303 16.333C19.0389 16.6195 18.8344 16.8952 18.6167 17.1609C18.398 17.4267 18.1683 17.6816 17.9244 17.9244C17.6816 18.1683 17.4267 18.398 17.1609 18.6167C16.8952 18.8344 16.6195 19.0389 16.333 19.2303C16.0475 19.4217 15.7533 19.5978 15.4492 19.7597C15.1462 19.9227 14.8356 20.0692 14.5184 20.2005C14.2002 20.3328 13.8775 20.4477 13.5483 20.5483C13.2191 20.6478 12.8855 20.7309 12.5486 20.7987C12.2106 20.8655 11.8716 20.9158 11.5292 20.9497C11.1869 20.9836 10.8434 21 10.5 21C10.1566 21 9.81312 20.9836 9.47078 20.9497C9.12844 20.9158 8.78938 20.8655 8.45141 20.7987C8.11453 20.7309 7.78094 20.6478 7.45172 20.5483C7.1225 20.4477 6.79984 20.3328 6.48156 20.2005C6.16437 20.0692 5.85375 19.9227 5.55078 19.7597C5.24672 19.5978 4.9525 19.4217 4.66703 19.2303C4.38047 19.0389 4.10484 18.8344 3.83906 18.6167C3.57328 18.398 3.31844 18.1683 3.07562 17.9244C2.83172 17.6816 2.60203 17.4267 2.38328 17.1609C2.16562 16.8952 1.96109 16.6195 1.76969 16.333C1.57828 16.0475 1.40219 15.7533 1.24031 15.4492C1.07734 15.1462 0.930781 14.8356 0.799531 14.5184C0.667187 14.2002 0.552344 13.8775 0.451719 13.5483C0.352187 13.2191 0.269063 12.8855 0.20125 12.5486C0.134531 12.2106 0.0842187 11.8716 0.0503126 11.5292C0.0164063 11.1869 0 10.8434 0 10.5C0 10.1566 0.0164063 9.81312 0.0503126 9.47078C0.0842187 9.12844 0.134531 8.78938 0.20125 8.45141C0.269063 8.11453 0.352187 7.78094 0.451719 7.45172C0.552344 7.1225 0.667187 6.79984 0.799531 6.48156C0.930781 6.16437 1.07734 5.85375 1.24031 5.55078C1.40219 5.24672 1.57828 4.9525 1.76969 4.66703C1.96109 4.38047 2.16562 4.10484 2.38328 3.83906C2.60203 3.57328 2.83172 3.31844 3.07562 3.07562C3.31844 2.83172 3.57328 2.60203 3.83906 2.38328C4.10484 2.16562 4.38047 1.96109 4.66703 1.76969C4.9525 1.57828 5.24672 1.40219 5.55078 1.24031C5.85375 1.07734 6.16437 0.930781 6.48156 0.799531C6.79984 0.667187 7.1225 0.552344 7.45172 0.451719C7.78094 0.352187 8.11453 0.269063 8.45141 0.20125C8.78938 0.134531 9.12844 0.0842187 9.47078 0.0503126C9.81312 0.0164063 10.1566 0 10.5 0C10.8434 0 11.1869 0.0164063 11.5292 0.0503126C11.8716 0.0842187 12.2106 0.134531 12.5486 0.20125C12.8855 0.269063 13.2191 0.352187 13.5483 0.451719C13.8775 0.552344 14.2002 0.667187 14.5184 0.799531C14.8356 0.930781 15.1462 1.07734 15.4492 1.24031C15.7533 1.40219 16.0475 1.57828 16.333 1.76969C16.6195 1.96109 16.8952 2.16562 17.1609 2.38328C17.4267 2.60203 17.6816 2.83172 17.9244 3.07562C18.1683 3.31844 18.398 3.57328 18.6167 3.83906C18.8344 4.10484 19.0389 4.38047 19.2303 4.66703C19.4217 4.9525 19.5978 5.24672 19.7597 5.55078C19.9227 5.85375 20.0692 6.16437 20.2005 6.48156C20.3328 6.79984 20.4477 7.1225 20.5483 7.45172C20.6478 7.78094 20.7309 8.11453 20.7987 8.45141C20.8655 8.78938 20.9158 9.12844 20.9497 9.47078C20.9836 9.81312 21 10.1566 21 10.5Z" fill="#FFEB9A"/>
<path d="M8.50374 13.1647L4.79062 9.45898L3.53033 10.7168L8.50374 15.6796L17.5581 6.85745L16.2978 5.59961L8.50374 13.1647Z" fill="#434343"/>
</svg>
