<svg width="75" height="75" viewBox="0 0 75 75" fill="none" xmlns="http://www.w3.org/2000/svg">
<path d="M75 37.5C75 38.7266 74.9414 39.9531 74.8203 41.1758C74.6992 42.3984 74.5195 43.6094 74.2812 44.8164C74.0391 46.0195 73.7422 47.2109 73.3867 48.3867C73.0273 49.5625 72.6172 50.7148 72.1445 51.8516C71.6758 52.9844 71.1523 54.0938 70.5703 55.1758C69.9922 56.2617 69.3633 57.3125 68.6797 58.332C67.9961 59.3555 67.2656 60.3398 66.4883 61.2891C65.707 62.2383 64.8867 63.1484 64.0156 64.0156C63.1484 64.8867 62.2383 65.707 61.2891 66.4883C60.3398 67.2656 59.3555 67.9961 58.332 68.6797C57.3125 69.3633 56.2617 69.9922 55.1758 70.5703C54.0938 71.1523 52.9844 71.6758 51.8516 72.1445C50.7148 72.6172 49.5625 73.0273 48.3867 73.3867C47.2109 73.7422 46.0195 74.0391 44.8164 74.2812C43.6094 74.5195 42.3984 74.6992 41.1758 74.8203C39.9531 74.9414 38.7266 75 37.5 75C36.2734 75 35.0469 74.9414 33.8242 74.8203C32.6016 74.6992 31.3906 74.5195 30.1836 74.2812C28.9805 74.0391 27.7891 73.7422 26.6133 73.3867C25.4375 73.0273 24.2852 72.6172 23.1484 72.1445C22.0156 71.6758 20.9062 71.1523 19.8242 70.5703C18.7383 69.9922 17.6875 69.3633 16.668 68.6797C15.6445 67.9961 14.6602 67.2656 13.7109 66.4883C12.7617 65.707 11.8516 64.8867 10.9844 64.0156C10.1133 63.1484 9.29297 62.2383 8.51172 61.2891C7.73438 60.3398 7.00391 59.3555 6.32031 58.332C5.63672 57.3125 5.00781 56.2617 4.42969 55.1758C3.84766 54.0938 3.32422 52.9844 2.85547 51.8516C2.38281 50.7148 1.97266 49.5625 1.61328 48.3867C1.25781 47.2109 0.960938 46.0195 0.71875 44.8164C0.480469 43.6094 0.300781 42.3984 0.179688 41.1758C0.0585938 39.9531 0 38.7266 0 37.5C0 36.2734 0.0585938 35.0469 0.179688 33.8242C0.300781 32.6016 0.480469 31.3906 0.71875 30.1836C0.960938 28.9805 1.25781 27.7891 1.61328 26.6133C1.97266 25.4375 2.38281 24.2852 2.85547 23.1484C3.32422 22.0156 3.84766 20.9062 4.42969 19.8242C5.00781 18.7383 5.63672 17.6875 6.32031 16.668C7.00391 15.6445 7.73438 14.6602 8.51172 13.7109C9.29297 12.7617 10.1133 11.8516 10.9844 10.9844C11.8516 10.1133 12.7617 9.29297 13.7109 8.51172C14.6602 7.73438 15.6445 7.00391 16.668 6.32031C17.6875 5.63672 18.7383 5.00781 19.8242 4.42969C20.9062 3.84766 22.0156 3.32422 23.1484 2.85547C24.2852 2.38281 25.4375 1.97266 26.6133 1.61328C27.7891 1.25781 28.9805 0.960938 30.1836 0.71875C31.3906 0.480469 32.6016 0.300781 33.8242 0.179688C35.0469 0.0585938 36.2734 0 37.5 0C38.7266 0 39.9531 0.0585938 41.1758 0.179688C42.3984 0.300781 43.6094 0.480469 44.8164 0.71875C46.0195 0.960938 47.2109 1.25781 48.3867 1.61328C49.5625 1.97266 50.7148 2.38281 51.8516 2.85547C52.9844 3.32422 54.0938 3.84766 55.1758 4.42969C56.2617 5.00781 57.3125 5.63672 58.332 6.32031C59.3555 7.00391 60.3398 7.73438 61.2891 8.51172C62.2383 9.29297 63.1484 10.1133 64.0156 10.9844C64.8867 11.8516 65.707 12.7617 66.4883 13.7109C67.2656 14.6602 67.9961 15.6445 68.6797 16.668C69.3633 17.6875 69.9922 18.7383 70.5703 19.8242C71.1523 20.9062 71.6758 22.0156 72.1445 23.1484C72.6172 24.2852 73.0273 25.4375 73.3867 26.6133C73.7422 27.7891 74.0391 28.9805 74.2812 30.1836C74.5195 31.3906 74.6992 32.6016 74.8203 33.8242C74.9414 35.0469 75 36.2734 75 37.5Z" fill="#FFEB9A"/>
<path d="M30.3705 47.0183L17.1094 33.7835L12.6084 38.2757L30.3705 56L62.7076 24.4923L58.2066 20L30.3705 47.0183Z" fill="white"/>
</svg>
