<?xml version="1.0" encoding="UTF-8"?>
<svg xmlns="http://www.w3.org/2000/svg" xmlns:xlink="http://www.w3.org/1999/xlink" width="21px" height="30px" viewBox="0 0 21 30" version="1.1">
<g id="surface1">
<path style=" stroke:none;fill-rule:nonzero;fill:rgb(0%,0%,0%);fill-opacity:1;" d="M 14.480469 15 L 20.449219 9.136719 C 21.183594 8.417969 21.183594 7.25 20.449219 6.53125 L 19.125 5.226562 C 18.390625 4.507812 17.203125 4.507812 16.46875 5.226562 L 10.5 11.089844 L 4.53125 5.226562 C 3.796875 4.507812 2.609375 4.507812 1.875 5.226562 L 0.550781 6.53125 C -0.183594 7.25 -0.183594 8.417969 0.550781 9.136719 L 6.519531 15 L 0.550781 20.863281 C -0.183594 21.582031 -0.183594 22.75 0.550781 23.46875 L 1.875 24.773438 C 2.609375 25.492188 3.796875 25.492188 4.53125 24.773438 L 10.5 18.910156 L 16.46875 24.773438 C 17.203125 25.492188 18.390625 25.492188 19.125 24.773438 L 20.449219 23.46875 C 21.183594 22.75 21.183594 21.582031 20.449219 20.863281 Z M 14.480469 15 "/>
</g>
</svg>
