<svg width="204" height="55" viewBox="0 0 204 55" fill="none" xmlns="http://www.w3.org/2000/svg">
<path d="M18.8833 37.8008C18.8833 37.8008 22.0086 48.5086 24.2773 49.9065C26.5461 51.3073 24.8732 54.0372 22.8594 54.5214C20.8456 55.0026 17.2018 54.3237 16.3625 51.6109C15.5232 48.8982 14.426 39.3534 14.426 39.3534L18.8833 37.8008Z" fill="#434343"/>
<path d="M21.9456 54.6508C15.145 52.6456 15.8182 40.8292 15.8182 40.8292L14.5607 40.4883C14.8786 43.0979 15.7036 49.4745 16.3625 51.6115C17.0872 53.949 19.8917 54.7768 21.9456 54.6508Z" fill="#434334"/>
<path d="M6.60287 27.5625C6.60287 27.5625 0.486981 29.7253 2.12839 36.3224C3.76979 42.9195 10.5818 41.2466 10.5818 41.2466C10.5818 41.2466 6.88646 27.8375 6.60287 27.5625Z" fill="#434343"/>
<path d="M10.5846 41.2466C10.5846 41.2466 10.2065 39.8859 9.68799 38.024C8.90596 38.4536 4.24528 40.6479 1.91637 33.1914C1.7932 34.1023 1.8333 35.1393 2.12835 36.3224C3.76976 42.9195 10.5846 41.2466 10.5846 41.2466Z" fill="#434334"/>
<path d="M38.3998 1.91406C38.374 1.93984 38.3396 1.94557 38.3167 1.97708C34.7102 6.33698 21.6219 26.9505 21.6219 26.9505L23.9164 36.5956C39.7318 45.9714 47.4919 49.3057 49.8982 50.2453L38.3998 1.91406Z" fill="#434343"/>
<path d="M41.8372 17.0312C41.8372 17.0312 45.7617 41.6781 44.5815 43.374C43.4013 45.0698 23.3263 34.1156 23.3263 34.1156L23.9164 36.5935C39.6745 45.9378 47.4346 49.2807 49.8695 50.2318L41.8372 17.0312Z" fill="#434334"/>
<path d="M24.3031 23.7703C24.3031 23.7703 28.007 37.3284 27.0388 38.1419C26.0734 38.9583 12.8677 42.6136 10.3755 41.9003C7.88332 41.187 4.9729 28.3393 6.31925 27.288C7.66561 26.2367 24.0367 22.7792 24.3031 23.7703Z" fill="#FFEB9A"/>
<path d="M40.4708 0.00390625C40.4708 0.00390625 36.5921 0.221614 37.8182 2.80833C39.0442 5.39505 47.5664 50.1542 49.1992 50.9276C50.8349 51.701 53.0664 52.1365 53.6823 49.8534C54.301 47.5703 47.194 3.05469 40.4708 0.00390625Z" fill="#FFEB9A"/>
<g clip-path="url(#clip0_772_2)">
<path d="M15.1926 26.3622C11.779 27.1143 9.61227 30.5055 10.3644 33.9192C11.1165 37.3329 14.5077 39.4996 17.9214 38.7475C21.3351 37.9953 23.5018 34.6041 22.7497 31.1904C21.9976 27.7767 18.6063 25.61 15.1926 26.3622ZM15.42 27.3943C18.2764 26.7649 21.0883 28.5615 21.7176 31.4178C22.3469 34.2742 20.5504 37.086 17.694 37.7154C14.8377 38.3447 12.0258 36.5482 11.3965 33.6918C10.7672 30.8355 12.5637 28.0236 15.42 27.3943ZM14.3267 29.7996L15.0089 32.8959L13.9768 33.1233L14.19 34.0909L15.2221 33.8635L15.35 34.4441L14.3179 34.6715L14.46 35.3165L15.4921 35.0891L15.8048 36.5083L17.0304 36.2383L16.7177 34.8191L18.0724 34.5206L17.9303 33.8756L16.5756 34.174L16.448 33.5948L17.6433 33.3314C18.3374 33.1785 18.8451 32.8766 19.1637 32.4283C19.483 31.9805 19.5489 31.3985 19.4182 30.805C19.2875 30.2122 18.9717 29.7272 18.4931 29.4525C18.0151 29.177 17.4282 29.1163 16.7334 29.2693L14.3267 29.7996ZM15.7642 30.4974L16.9253 30.2416C17.2659 30.1666 17.5631 30.1924 17.7788 30.3485C17.9945 30.5046 18.1461 30.7816 18.2118 31.0796C18.2762 31.3718 18.2684 31.6833 18.1357 31.9101C18.0024 32.1369 17.7672 32.2882 17.4298 32.3625L16.2332 32.6262L15.7642 30.4974Z" fill="#434343"/>
</g>
<path d="M61.28 20.152H62.68C63.0253 19.5547 63.296 18.962 63.492 18.374C63.688 17.786 63.8327 17.1887 63.926 16.582C64.0287 15.9753 64.0893 15.35 64.108 14.706C64.136 14.062 64.15 13.3853 64.15 12.676V12.298H70.562V20.152H72.228V24.59H70.128V22H63.38V24.59H61.28V20.152ZM66.208 14.146C66.1893 14.65 66.1567 15.168 66.11 15.7C66.0633 16.232 65.9933 16.7593 65.9 17.282C65.8067 17.7953 65.6807 18.2993 65.522 18.794C65.3727 19.2793 65.1813 19.732 64.948 20.152H68.434V14.146H66.208ZM80.1977 14.636V22H78.0977C78.0977 21.5333 78.1024 21.0713 78.1117 20.614C78.1211 20.1473 78.1304 19.718 78.1397 19.326C78.1491 18.934 78.1584 18.5933 78.1677 18.304C78.1864 18.0053 78.1957 17.786 78.1957 17.646C77.9251 18.0287 77.6544 18.416 77.3837 18.808C77.1131 19.2 76.8517 19.5873 76.5997 19.97C76.3571 20.3433 76.1237 20.7027 75.8997 21.048C75.6851 21.3933 75.4937 21.7107 75.3257 22H73.4917V14.636H75.5777C75.5777 15.1027 75.5731 15.5507 75.5637 15.98C75.5637 16.4 75.5591 16.7827 75.5497 17.128C75.5404 17.4733 75.5311 17.7767 75.5217 18.038C75.5124 18.29 75.5077 18.486 75.5077 18.626C76.0677 17.8047 76.5811 17.0673 77.0477 16.414C77.5237 15.7607 77.9857 15.168 78.4337 14.636H80.1977ZM86.8777 18.374C86.8777 17.73 86.733 17.2167 86.4437 16.834C86.1544 16.442 85.725 16.246 85.1557 16.246C84.969 16.246 84.7964 16.2553 84.6377 16.274C84.479 16.2833 84.3484 16.2973 84.2457 16.316V20.082C84.3764 20.166 84.5444 20.236 84.7497 20.292C84.9644 20.348 85.179 20.376 85.3937 20.376C86.383 20.376 86.8777 19.7087 86.8777 18.374ZM89.0057 18.318C89.0057 18.8873 88.9357 19.4053 88.7957 19.872C88.6557 20.3387 88.4504 20.74 88.1797 21.076C87.909 21.412 87.573 21.6733 87.1717 21.86C86.7704 22.0467 86.3084 22.14 85.7857 22.14C85.4964 22.14 85.2257 22.112 84.9737 22.056C84.7217 22 84.479 21.9207 84.2457 21.818V24.59H82.1597V14.888C82.3464 14.832 82.561 14.7807 82.8037 14.734C83.0464 14.678 83.2984 14.6313 83.5597 14.594C83.8304 14.5567 84.101 14.5287 84.3717 14.51C84.6517 14.482 84.9177 14.468 85.1697 14.468C85.7764 14.468 86.3177 14.5613 86.7937 14.748C87.2697 14.9253 87.671 15.182 87.9977 15.518C88.3244 15.8447 88.5717 16.246 88.7397 16.722C88.917 17.198 89.0057 17.73 89.0057 18.318ZM90.2589 18.374C90.2589 17.7207 90.3569 17.1513 90.5529 16.666C90.7582 16.1713 91.0242 15.7607 91.3509 15.434C91.6776 15.1073 92.0509 14.86 92.4709 14.692C92.9002 14.524 93.3389 14.44 93.7869 14.44C94.8322 14.44 95.6582 14.762 96.2649 15.406C96.8716 16.0407 97.1749 16.9787 97.1749 18.22C97.1749 18.3413 97.1702 18.4767 97.1609 18.626C97.1516 18.766 97.1422 18.892 97.1329 19.004H92.4009C92.4476 19.4333 92.6482 19.774 93.0029 20.026C93.3576 20.278 93.8336 20.404 94.4309 20.404C94.8136 20.404 95.1869 20.3713 95.5509 20.306C95.9242 20.2313 96.2276 20.1427 96.4609 20.04L96.7409 21.734C96.6289 21.79 96.4796 21.846 96.2929 21.902C96.1062 21.958 95.8962 22.0047 95.6629 22.042C95.4389 22.0887 95.1962 22.126 94.9349 22.154C94.6736 22.182 94.4122 22.196 94.1509 22.196C93.4882 22.196 92.9096 22.098 92.4149 21.902C91.9296 21.706 91.5236 21.44 91.1969 21.104C90.8796 20.7587 90.6416 20.3527 90.4829 19.886C90.3336 19.4193 90.2589 18.9153 90.2589 18.374ZM95.1589 17.576C95.1496 17.3987 95.1169 17.226 95.0609 17.058C95.0142 16.89 94.9349 16.7407 94.8229 16.61C94.7202 16.4793 94.5849 16.372 94.4169 16.288C94.2582 16.204 94.0576 16.162 93.8149 16.162C93.5816 16.162 93.3809 16.204 93.2129 16.288C93.0449 16.3627 92.9049 16.4653 92.7929 16.596C92.6809 16.7267 92.5922 16.8807 92.5269 17.058C92.4709 17.226 92.4289 17.3987 92.4009 17.576H95.1589ZM100.871 17.212C101.076 17.016 101.291 16.8013 101.515 16.568C101.748 16.3347 101.972 16.106 102.187 15.882C102.401 15.6487 102.607 15.4247 102.803 15.21C102.999 14.9953 103.171 14.804 103.321 14.636H105.855C105.668 14.832 105.435 15.0747 105.155 15.364C104.884 15.6533 104.595 15.9567 104.287 16.274C103.979 16.582 103.666 16.89 103.349 17.198C103.041 17.506 102.747 17.7813 102.467 18.024C102.747 18.2387 103.045 18.5047 103.363 18.822C103.68 19.1393 103.988 19.48 104.287 19.844C104.595 20.208 104.884 20.5767 105.155 20.95C105.435 21.3233 105.673 21.6733 105.869 22H103.489C103.321 21.748 103.129 21.4867 102.915 21.216C102.7 20.936 102.476 20.6653 102.243 20.404C102.009 20.1333 101.771 19.8813 101.529 19.648C101.295 19.4147 101.076 19.214 100.871 19.046V22H98.7847V14.636H100.871V17.212ZM113.338 16.344H110.986V22H108.9V16.344H106.548V14.636H113.338V16.344ZM116.128 20.894C116.128 21.314 115.992 21.636 115.722 21.86C115.46 22.0747 115.162 22.182 114.826 22.182C114.49 22.182 114.186 22.0747 113.916 21.86C113.654 21.636 113.524 21.314 113.524 20.894C113.524 20.474 113.654 20.1567 113.916 19.942C114.186 19.718 114.49 19.606 114.826 19.606C115.162 19.606 115.46 19.718 115.722 19.942C115.992 20.1567 116.128 20.474 116.128 20.894ZM117.179 18.318C117.179 17.786 117.263 17.2867 117.431 16.82C117.608 16.344 117.86 15.9333 118.187 15.588C118.513 15.2333 118.91 14.9533 119.377 14.748C119.843 14.5427 120.375 14.44 120.973 14.44C121.365 14.44 121.724 14.4773 122.051 14.552C122.377 14.6173 122.695 14.7153 123.003 14.846L122.569 16.512C122.373 16.4373 122.158 16.372 121.925 16.316C121.691 16.26 121.43 16.232 121.141 16.232C120.525 16.232 120.063 16.4233 119.755 16.806C119.456 17.1887 119.307 17.6927 119.307 18.318C119.307 18.9807 119.447 19.494 119.727 19.858C120.016 20.222 120.515 20.404 121.225 20.404C121.477 20.404 121.747 20.3807 122.037 20.334C122.326 20.2873 122.592 20.2127 122.835 20.11L123.129 21.818C122.886 21.9207 122.583 22.0093 122.219 22.084C121.855 22.1587 121.453 22.196 121.015 22.196C120.343 22.196 119.764 22.098 119.279 21.902C118.793 21.6967 118.392 21.4213 118.075 21.076C117.767 20.7307 117.538 20.3247 117.389 19.858C117.249 19.382 117.179 18.8687 117.179 18.318ZM127.343 20.544C127.548 20.544 127.744 20.5393 127.931 20.53C128.117 20.5207 128.267 20.5067 128.379 20.488V18.906C128.295 18.8873 128.169 18.8687 128.001 18.85C127.833 18.8313 127.679 18.822 127.539 18.822C127.343 18.822 127.156 18.836 126.979 18.864C126.811 18.8827 126.661 18.9247 126.531 18.99C126.4 19.0553 126.297 19.144 126.223 19.256C126.148 19.368 126.111 19.508 126.111 19.676C126.111 20.0027 126.218 20.2313 126.433 20.362C126.657 20.4833 126.96 20.544 127.343 20.544ZM127.175 14.44C127.791 14.44 128.304 14.51 128.715 14.65C129.125 14.79 129.452 14.9907 129.695 15.252C129.947 15.5133 130.124 15.8307 130.227 16.204C130.329 16.5773 130.381 16.9927 130.381 17.45V21.79C130.082 21.8553 129.667 21.93 129.135 22.014C128.603 22.1073 127.959 22.154 127.203 22.154C126.727 22.154 126.293 22.112 125.901 22.028C125.518 21.944 125.187 21.8087 124.907 21.622C124.627 21.426 124.412 21.174 124.263 20.866C124.113 20.558 124.039 20.18 124.039 19.732C124.039 19.3027 124.123 18.9387 124.291 18.64C124.468 18.3413 124.701 18.1033 124.991 17.926C125.28 17.7487 125.611 17.6227 125.985 17.548C126.358 17.464 126.745 17.422 127.147 17.422C127.417 17.422 127.655 17.436 127.861 17.464C128.075 17.4827 128.248 17.5107 128.379 17.548V17.352C128.379 16.9973 128.271 16.7127 128.057 16.498C127.842 16.2833 127.469 16.176 126.937 16.176C126.582 16.176 126.232 16.204 125.887 16.26C125.541 16.3067 125.243 16.3767 124.991 16.47L124.725 14.79C124.846 14.7527 124.995 14.7153 125.173 14.678C125.359 14.6313 125.56 14.594 125.775 14.566C125.989 14.5287 126.213 14.5007 126.447 14.482C126.689 14.454 126.932 14.44 127.175 14.44ZM138.973 14.636V22H136.873C136.873 21.5333 136.878 21.0713 136.887 20.614C136.896 20.1473 136.906 19.718 136.915 19.326C136.924 18.934 136.934 18.5933 136.943 18.304C136.962 18.0053 136.971 17.786 136.971 17.646C136.7 18.0287 136.43 18.416 136.159 18.808C135.888 19.2 135.627 19.5873 135.375 19.97C135.132 20.3433 134.899 20.7027 134.675 21.048C134.46 21.3933 134.269 21.7107 134.101 22H132.267V14.636H134.353C134.353 15.1027 134.348 15.5507 134.339 15.98C134.339 16.4 134.334 16.7827 134.325 17.128C134.316 17.4733 134.306 17.7767 134.297 18.038C134.288 18.29 134.283 18.486 134.283 18.626C134.843 17.8047 135.356 17.0673 135.823 16.414C136.299 15.7607 136.761 15.168 137.209 14.636H138.973ZM135.655 13.628C135.356 13.628 135.067 13.586 134.787 13.502C134.516 13.4087 134.269 13.278 134.045 13.11C133.821 12.9327 133.634 12.7227 133.485 12.48C133.345 12.228 133.261 11.9433 133.233 11.626L134.675 11.248C134.75 11.6027 134.871 11.8547 135.039 12.004C135.216 12.1533 135.422 12.228 135.655 12.228C135.898 12.228 136.103 12.1627 136.271 12.032C136.448 11.892 136.574 11.6353 136.649 11.262L138.077 11.64C138.049 11.9573 137.96 12.242 137.811 12.494C137.671 12.7367 137.489 12.942 137.265 13.11C137.05 13.278 136.803 13.4087 136.523 13.502C136.243 13.586 135.954 13.628 135.655 13.628ZM147.025 16.344H144.673V22H142.587V16.344H140.235V14.636H147.025V16.344Z" fill="white"/>
<path d="M66.972 31.298H69.156V41H66.972V36.884H63.304V41H61.12V31.298H63.304V35.008H66.972V31.298ZM74.0753 39.544C74.2806 39.544 74.4766 39.5393 74.6633 39.53C74.8499 39.5207 74.9993 39.5067 75.1113 39.488V37.906C75.0273 37.8873 74.9013 37.8687 74.7333 37.85C74.5653 37.8313 74.4113 37.822 74.2713 37.822C74.0753 37.822 73.8886 37.836 73.7113 37.864C73.5433 37.8827 73.3939 37.9247 73.2633 37.99C73.1326 38.0553 73.0299 38.144 72.9553 38.256C72.8806 38.368 72.8433 38.508 72.8433 38.676C72.8433 39.0027 72.9506 39.2313 73.1653 39.362C73.3893 39.4833 73.6926 39.544 74.0753 39.544ZM73.9073 33.44C74.5233 33.44 75.0366 33.51 75.4473 33.65C75.8579 33.79 76.1846 33.9907 76.4273 34.252C76.6793 34.5133 76.8566 34.8307 76.9593 35.204C77.0619 35.5773 77.1133 35.9927 77.1133 36.45V40.79C76.8146 40.8553 76.3993 40.93 75.8673 41.014C75.3353 41.1073 74.6913 41.154 73.9353 41.154C73.4593 41.154 73.0253 41.112 72.6333 41.028C72.2506 40.944 71.9193 40.8087 71.6393 40.622C71.3593 40.426 71.1446 40.174 70.9953 39.866C70.8459 39.558 70.7713 39.18 70.7713 38.732C70.7713 38.3027 70.8553 37.9387 71.0233 37.64C71.2006 37.3413 71.4339 37.1033 71.7233 36.926C72.0126 36.7487 72.3439 36.6227 72.7173 36.548C73.0906 36.464 73.4779 36.422 73.8792 36.422C74.1499 36.422 74.3879 36.436 74.5933 36.464C74.8079 36.4827 74.9806 36.5107 75.1113 36.548V36.352C75.1113 35.9973 75.0039 35.7127 74.7893 35.498C74.5746 35.2833 74.2013 35.176 73.6693 35.176C73.3146 35.176 72.9646 35.204 72.6193 35.26C72.2739 35.3067 71.9753 35.3767 71.7233 35.47L71.4573 33.79C71.5786 33.7527 71.7279 33.7153 71.9053 33.678C72.0919 33.6313 72.2926 33.594 72.5073 33.566C72.7219 33.5287 72.9459 33.5007 73.1793 33.482C73.4219 33.454 73.6646 33.44 73.9073 33.44ZM78.6495 37.318C78.6495 36.786 78.7335 36.2867 78.9015 35.82C79.0789 35.344 79.3309 34.9333 79.6575 34.588C79.9842 34.2333 80.3809 33.9533 80.8475 33.748C81.3142 33.5427 81.8462 33.44 82.4435 33.44C82.8355 33.44 83.1949 33.4773 83.5215 33.552C83.8482 33.6173 84.1655 33.7153 84.4735 33.846L84.0395 35.512C83.8435 35.4373 83.6289 35.372 83.3955 35.316C83.1622 35.26 82.9009 35.232 82.6115 35.232C81.9955 35.232 81.5335 35.4233 81.2255 35.806C80.9269 36.1887 80.7775 36.6927 80.7775 37.318C80.7775 37.9807 80.9175 38.494 81.1975 38.858C81.4869 39.222 81.9862 39.404 82.6955 39.404C82.9475 39.404 83.2182 39.3807 83.5075 39.334C83.7969 39.2873 84.0629 39.2127 84.3055 39.11L84.5995 40.818C84.3569 40.9207 84.0535 41.0093 83.6895 41.084C83.3255 41.1587 82.9242 41.196 82.4855 41.196C81.8135 41.196 81.2349 41.098 80.7495 40.902C80.2642 40.6967 79.8629 40.4213 79.5455 40.076C79.2375 39.7307 79.0089 39.3247 78.8595 38.858C78.7195 38.382 78.6495 37.8687 78.6495 37.318ZM92.0895 35.344H89.7375V41H87.6515V35.344H85.2995V33.636H92.0895V35.344ZM98.073 37.374C98.073 36.73 97.9283 36.2167 97.639 35.834C97.3497 35.442 96.9203 35.246 96.351 35.246C96.1643 35.246 95.9917 35.2553 95.833 35.274C95.6743 35.2833 95.5437 35.2973 95.441 35.316V39.082C95.5717 39.166 95.7397 39.236 95.945 39.292C96.1597 39.348 96.3743 39.376 96.589 39.376C97.5783 39.376 98.073 38.7087 98.073 37.374ZM100.201 37.318C100.201 37.8873 100.131 38.4053 99.991 38.872C99.851 39.3387 99.6457 39.74 99.375 40.076C99.1043 40.412 98.7683 40.6733 98.367 40.86C97.9657 41.0467 97.5037 41.14 96.981 41.14C96.6917 41.14 96.421 41.112 96.169 41.056C95.917 41 95.6743 40.9207 95.441 40.818V43.59H93.355V33.888C93.5417 33.832 93.7563 33.7807 93.999 33.734C94.2417 33.678 94.4937 33.6313 94.755 33.594C95.0257 33.5567 95.2963 33.5287 95.567 33.51C95.847 33.482 96.113 33.468 96.365 33.468C96.9717 33.468 97.513 33.5613 97.989 33.748C98.465 33.9253 98.8663 34.182 99.193 34.518C99.5197 34.8447 99.767 35.246 99.935 35.722C100.112 36.198 100.201 36.73 100.201 37.318ZM108.692 37.304C108.692 37.8827 108.608 38.4147 108.44 38.9C108.272 39.376 108.03 39.7867 107.712 40.132C107.395 40.468 107.012 40.7293 106.564 40.916C106.126 41.1027 105.631 41.196 105.08 41.196C104.539 41.196 104.044 41.1027 103.596 40.916C103.158 40.7293 102.78 40.468 102.462 40.132C102.145 39.7867 101.898 39.376 101.72 38.9C101.543 38.4147 101.454 37.8827 101.454 37.304C101.454 36.7253 101.543 36.198 101.72 35.722C101.907 35.246 102.159 34.84 102.476 34.504C102.803 34.168 103.186 33.9067 103.624 33.72C104.072 33.5333 104.558 33.44 105.08 33.44C105.612 33.44 106.098 33.5333 106.536 33.72C106.984 33.9067 107.367 34.168 107.684 34.504C108.002 34.84 108.249 35.246 108.426 35.722C108.604 36.198 108.692 36.7253 108.692 37.304ZM106.564 37.304C106.564 36.66 106.434 36.156 106.172 35.792C105.92 35.4187 105.556 35.232 105.08 35.232C104.604 35.232 104.236 35.4187 103.974 35.792C103.713 36.156 103.582 36.66 103.582 37.304C103.582 37.948 103.713 38.4613 103.974 38.844C104.236 39.2173 104.604 39.404 105.08 39.404C105.556 39.404 105.92 39.2173 106.172 38.844C106.434 38.4613 106.564 37.948 106.564 37.304ZM117.014 33.636V41H114.914C114.914 40.5333 114.919 40.0713 114.928 39.614C114.937 39.1473 114.947 38.718 114.956 38.326C114.965 37.934 114.975 37.5933 114.984 37.304C115.003 37.0053 115.012 36.786 115.012 36.646C114.741 37.0287 114.471 37.416 114.2 37.808C113.929 38.2 113.668 38.5873 113.416 38.97C113.173 39.3433 112.94 39.7027 112.716 40.048C112.501 40.3933 112.31 40.7107 112.142 41H110.308V33.636H112.394C112.394 34.1027 112.389 34.5507 112.38 34.98C112.38 35.4 112.375 35.7827 112.366 36.128C112.357 36.4733 112.347 36.7767 112.338 37.038C112.329 37.29 112.324 37.486 112.324 37.626C112.884 36.8047 113.397 36.0673 113.864 35.414C114.34 34.7607 114.802 34.168 115.25 33.636H117.014ZM113.696 32.628C113.397 32.628 113.108 32.586 112.828 32.502C112.557 32.4087 112.31 32.278 112.086 32.11C111.862 31.9327 111.675 31.7227 111.526 31.48C111.386 31.228 111.302 30.9433 111.274 30.626L112.716 30.248C112.791 30.6027 112.912 30.8547 113.08 31.004C113.257 31.1533 113.463 31.228 113.696 31.228C113.939 31.228 114.144 31.1627 114.312 31.032C114.489 30.892 114.615 30.6353 114.69 30.262L116.118 30.64C116.09 30.9573 116.001 31.242 115.852 31.494C115.712 31.7367 115.53 31.942 115.306 32.11C115.091 32.278 114.844 32.4087 114.564 32.502C114.284 32.586 113.995 32.628 113.696 32.628ZM121.062 36.212C121.267 36.016 121.482 35.8013 121.706 35.568C121.939 35.3347 122.163 35.106 122.378 34.882C122.593 34.6487 122.798 34.4247 122.994 34.21C123.19 33.9953 123.363 33.804 123.512 33.636H126.046C125.859 33.832 125.626 34.0747 125.346 34.364C125.075 34.6533 124.786 34.9567 124.478 35.274C124.17 35.582 123.857 35.89 123.54 36.198C123.232 36.506 122.938 36.7813 122.658 37.024C122.938 37.2387 123.237 37.5047 123.554 37.822C123.871 38.1393 124.179 38.48 124.478 38.844C124.786 39.208 125.075 39.5767 125.346 39.95C125.626 40.3233 125.864 40.6733 126.06 41H123.68C123.512 40.748 123.321 40.4867 123.106 40.216C122.891 39.936 122.667 39.6653 122.434 39.404C122.201 39.1333 121.963 38.8813 121.72 38.648C121.487 38.4147 121.267 38.214 121.062 38.046V41H118.976V33.636H121.062V36.212ZM129.857 39.544C130.062 39.544 130.258 39.5393 130.445 39.53C130.631 39.5207 130.781 39.5067 130.893 39.488V37.906C130.809 37.8873 130.683 37.8687 130.515 37.85C130.347 37.8313 130.193 37.822 130.053 37.822C129.857 37.822 129.67 37.836 129.493 37.864C129.325 37.8827 129.175 37.9247 129.045 37.99C128.914 38.0553 128.811 38.144 128.737 38.256C128.662 38.368 128.625 38.508 128.625 38.676C128.625 39.0027 128.732 39.2313 128.947 39.362C129.171 39.4833 129.474 39.544 129.857 39.544ZM129.689 33.44C130.305 33.44 130.818 33.51 131.229 33.65C131.639 33.79 131.966 33.9907 132.209 34.252C132.461 34.5133 132.638 34.8307 132.741 35.204C132.843 35.5773 132.895 35.9927 132.895 36.45V40.79C132.596 40.8553 132.181 40.93 131.649 41.014C131.117 41.1073 130.473 41.154 129.717 41.154C129.241 41.154 128.807 41.112 128.415 41.028C128.032 40.944 127.701 40.8087 127.421 40.622C127.141 40.426 126.926 40.174 126.777 39.866C126.627 39.558 126.553 39.18 126.553 38.732C126.553 38.3027 126.637 37.9387 126.805 37.64C126.982 37.3413 127.215 37.1033 127.505 36.926C127.794 36.7487 128.125 36.6227 128.499 36.548C128.872 36.464 129.259 36.422 129.66 36.422C129.931 36.422 130.169 36.436 130.375 36.464C130.589 36.4827 130.762 36.5107 130.893 36.548V36.352C130.893 35.9973 130.785 35.7127 130.571 35.498C130.356 35.2833 129.983 35.176 129.451 35.176C129.096 35.176 128.746 35.204 128.401 35.26C128.055 35.3067 127.757 35.3767 127.505 35.47L127.239 33.79C127.36 33.7527 127.509 33.7153 127.687 33.678C127.873 33.6313 128.074 33.594 128.289 33.566C128.503 33.5287 128.727 33.5007 128.961 33.482C129.203 33.454 129.446 33.44 129.689 33.44ZM142.652 33.076C142.372 33.076 142.101 33.0993 141.84 33.146C141.588 33.1833 141.364 33.2533 141.168 33.356C140.972 33.4493 140.813 33.5847 140.692 33.762C140.571 33.93 140.51 34.1447 140.51 34.406C140.51 34.9007 140.683 35.2413 141.028 35.428C141.383 35.6147 141.905 35.708 142.596 35.708H143.506V33.09C143.394 33.0807 143.273 33.076 143.142 33.076C143.011 33.076 142.848 33.076 142.652 33.076ZM142.75 31.2C143.142 31.2 143.599 31.2233 144.122 31.27C144.654 31.3167 145.177 31.396 145.69 31.508V41H143.506V37.514H142.834C142.713 37.514 142.596 37.514 142.484 37.514C142.372 37.514 142.237 37.5047 142.078 37.486C141.77 37.906 141.429 38.4333 141.056 39.068C140.692 39.6933 140.351 40.3373 140.034 41H137.724C137.892 40.6173 138.069 40.2393 138.256 39.866C138.452 39.4927 138.648 39.138 138.844 38.802C139.04 38.466 139.231 38.158 139.418 37.878C139.605 37.5887 139.777 37.3367 139.936 37.122C139.731 37.0287 139.525 36.9073 139.32 36.758C139.124 36.5993 138.947 36.4127 138.788 36.198C138.629 35.9833 138.499 35.7313 138.396 35.442C138.303 35.1433 138.256 34.8027 138.256 34.42C138.256 33.888 138.359 33.4213 138.564 33.02C138.779 32.6187 139.077 32.2827 139.46 32.012C139.852 31.7413 140.323 31.5407 140.874 31.41C141.434 31.27 142.059 31.2 142.75 31.2ZM149.84 39.894C149.84 40.314 149.705 40.636 149.434 40.86C149.173 41.0747 148.874 41.182 148.538 41.182C148.202 41.182 147.899 41.0747 147.628 40.86C147.367 40.636 147.236 40.314 147.236 39.894C147.236 39.474 147.367 39.1567 147.628 38.942C147.899 38.718 148.202 38.606 148.538 38.606C148.874 38.606 149.173 38.718 149.434 38.942C149.705 39.1567 149.84 39.474 149.84 39.894ZM150.938 39.152H152.338C152.684 38.5547 152.954 37.962 153.15 37.374C153.346 36.786 153.491 36.1887 153.584 35.582C153.687 34.9753 153.748 34.35 153.766 33.706C153.794 33.062 153.808 32.3853 153.808 31.676V31.298H160.22V39.152H161.886V43.59H159.786V41H153.038V43.59H150.938V39.152ZM155.866 33.146C155.848 33.65 155.815 34.168 155.768 34.7C155.722 35.232 155.652 35.7593 155.558 36.282C155.465 36.7953 155.339 37.2993 155.18 37.794C155.031 38.2793 154.84 38.732 154.606 39.152H158.092V33.146H155.866ZM169.856 33.636V41H167.756C167.756 40.5333 167.761 40.0713 167.77 39.614C167.779 39.1473 167.789 38.718 167.798 38.326C167.807 37.934 167.817 37.5933 167.826 37.304C167.845 37.0053 167.854 36.786 167.854 36.646C167.583 37.0287 167.313 37.416 167.042 37.808C166.771 38.2 166.51 38.5873 166.258 38.97C166.015 39.3433 165.782 39.7027 165.558 40.048C165.343 40.3933 165.152 40.7107 164.984 41H163.15V33.636H165.236C165.236 34.1027 165.231 34.5507 165.222 34.98C165.222 35.4 165.217 35.7827 165.208 36.128C165.199 36.4733 165.189 36.7767 165.18 37.038C165.171 37.29 165.166 37.486 165.166 37.626C165.726 36.8047 166.239 36.0673 166.706 35.414C167.182 34.7607 167.644 34.168 168.092 33.636H169.856ZM176.536 37.374C176.536 36.73 176.391 36.2167 176.102 35.834C175.813 35.442 175.383 35.246 174.814 35.246C174.627 35.246 174.455 35.2553 174.296 35.274C174.137 35.2833 174.007 35.2973 173.904 35.316V39.082C174.035 39.166 174.203 39.236 174.408 39.292C174.623 39.348 174.837 39.376 175.052 39.376C176.041 39.376 176.536 38.7087 176.536 37.374ZM178.664 37.318C178.664 37.8873 178.594 38.4053 178.454 38.872C178.314 39.3387 178.109 39.74 177.838 40.076C177.567 40.412 177.231 40.6733 176.83 40.86C176.429 41.0467 175.967 41.14 175.444 41.14C175.155 41.14 174.884 41.112 174.632 41.056C174.38 41 174.137 40.9207 173.904 40.818V43.59H171.818V33.888C172.005 33.832 172.219 33.7807 172.462 33.734C172.705 33.678 172.957 33.6313 173.218 33.594C173.489 33.5567 173.759 33.5287 174.03 33.51C174.31 33.482 174.576 33.468 174.828 33.468C175.435 33.468 175.976 33.5613 176.452 33.748C176.928 33.9253 177.329 34.182 177.656 34.518C177.983 34.8447 178.23 35.246 178.398 35.722C178.575 36.198 178.664 36.73 178.664 37.318ZM179.917 37.374C179.917 36.7207 180.015 36.1513 180.211 35.666C180.416 35.1713 180.682 34.7607 181.009 34.434C181.336 34.1073 181.709 33.86 182.129 33.692C182.558 33.524 182.997 33.44 183.445 33.44C184.49 33.44 185.316 33.762 185.923 34.406C186.53 35.0407 186.833 35.9787 186.833 37.22C186.833 37.3413 186.828 37.4767 186.819 37.626C186.81 37.766 186.8 37.892 186.791 38.004H182.059C182.106 38.4333 182.306 38.774 182.661 39.026C183.016 39.278 183.492 39.404 184.089 39.404C184.472 39.404 184.845 39.3713 185.209 39.306C185.582 39.2313 185.886 39.1427 186.119 39.04L186.399 40.734C186.287 40.79 186.138 40.846 185.951 40.902C185.764 40.958 185.554 41.0047 185.321 41.042C185.097 41.0887 184.854 41.126 184.593 41.154C184.332 41.182 184.07 41.196 183.809 41.196C183.146 41.196 182.568 41.098 182.073 40.902C181.588 40.706 181.182 40.44 180.855 40.104C180.538 39.7587 180.3 39.3527 180.141 38.886C179.992 38.4193 179.917 37.9153 179.917 37.374ZM184.817 36.576C184.808 36.3987 184.775 36.226 184.719 36.058C184.672 35.89 184.593 35.7407 184.481 35.61C184.378 35.4793 184.243 35.372 184.075 35.288C183.916 35.204 183.716 35.162 183.473 35.162C183.24 35.162 183.039 35.204 182.871 35.288C182.703 35.3627 182.563 35.4653 182.451 35.596C182.339 35.7267 182.25 35.8807 182.185 36.058C182.129 36.226 182.087 36.3987 182.059 36.576H184.817ZM190.529 36.212C190.734 36.016 190.949 35.8013 191.173 35.568C191.406 35.3347 191.63 35.106 191.845 34.882C192.06 34.6487 192.265 34.4247 192.461 34.21C192.657 33.9953 192.83 33.804 192.979 33.636H195.513C195.326 33.832 195.093 34.0747 194.813 34.364C194.542 34.6533 194.253 34.9567 193.945 35.274C193.637 35.582 193.324 35.89 193.007 36.198C192.699 36.506 192.405 36.7813 192.125 37.024C192.405 37.2387 192.704 37.5047 193.021 37.822C193.338 38.1393 193.646 38.48 193.945 38.844C194.253 39.208 194.542 39.5767 194.813 39.95C195.093 40.3233 195.331 40.6733 195.527 41H193.147C192.979 40.748 192.788 40.4867 192.573 40.216C192.358 39.936 192.134 39.6653 191.901 39.404C191.668 39.1333 191.43 38.8813 191.187 38.648C190.954 38.4147 190.734 38.214 190.529 38.046V41H188.443V33.636H190.529V36.212ZM202.996 35.344H200.644V41H198.558V35.344H196.206V33.636H202.996V35.344Z" fill="white"/>
<rect x="61" y="27" width="100" height="1" fill="white"/>
<defs>
<clipPath id="clip0_772_2">
<rect width="12.6823" height="12.6823" fill="white" transform="translate(9 27.7266) rotate(-12.4252)"/>
</clipPath>
</defs>
</svg>
