<svg width="201" height="55" viewBox="0 0 201 55" fill="none" xmlns="http://www.w3.org/2000/svg">
<path d="M18.8833 37.8008C18.8833 37.8008 22.0086 48.5086 24.2773 49.9065C26.5461 51.3073 24.8732 54.0372 22.8594 54.5214C20.8456 55.0026 17.2018 54.3237 16.3625 51.6109C15.5232 48.8982 14.426 39.3534 14.426 39.3534L18.8833 37.8008Z" fill="#434343"/>
<path d="M21.9456 54.6508C15.145 52.6456 15.8182 40.8292 15.8182 40.8292L14.5607 40.4883C14.8786 43.0979 15.7036 49.4745 16.3625 51.6115C17.0872 53.949 19.8917 54.7768 21.9456 54.6508Z" fill="#1B1B1B"/>
<path d="M6.60287 27.5625C6.60287 27.5625 0.486981 29.7253 2.12839 36.3224C3.76979 42.9195 10.5818 41.2466 10.5818 41.2466C10.5818 41.2466 6.88646 27.8375 6.60287 27.5625Z" fill="#434343"/>
<path d="M10.5846 41.2466C10.5846 41.2466 10.2065 39.8859 9.68799 38.024C8.90596 38.4536 4.24528 40.6479 1.91637 33.1914C1.7932 34.1023 1.8333 35.1393 2.12835 36.3224C3.76976 42.9195 10.5846 41.2466 10.5846 41.2466Z" fill="#1B1B1B"/>
<path d="M38.3998 1.91406C38.374 1.93984 38.3396 1.94557 38.3167 1.97708C34.7102 6.33698 21.6219 26.9505 21.6219 26.9505L23.9164 36.5956C39.7318 45.9714 47.4919 49.3057 49.8982 50.2453L38.3998 1.91406Z" fill="#434343"/>
<path d="M41.8372 17.0332C41.8372 17.0332 45.7617 41.6801 44.5815 43.3759C43.4013 45.0717 23.3263 34.1176 23.3263 34.1176L23.9164 36.5954C39.6745 45.9397 47.4346 49.2827 49.8695 50.2337L41.8372 17.0332Z" fill="#1B1B1B"/>
<path d="M24.3031 23.7703C24.3031 23.7703 28.007 37.3284 27.0388 38.1419C26.0734 38.9583 12.8677 42.6136 10.3755 41.9003C7.88332 41.187 4.9729 28.3393 6.31925 27.288C7.66561 26.2367 24.0367 22.7792 24.3031 23.7703Z" fill="#FFEB9A"/>
<path d="M40.4708 0.00195312C40.4708 0.00195312 36.5921 0.219661 37.8182 2.80638C39.0442 5.3931 47.5664 50.1522 49.1992 50.9256C50.8349 51.6991 53.0664 52.1345 53.6823 49.8514C54.301 47.5684 47.194 3.05273 40.4708 0.00195312Z" fill="#FFEB9A"/>
<g clip-path="url(#clip0_333_136)">
<path d="M15.1926 26.3641C11.779 27.1162 9.61227 30.5075 10.3644 33.9212C11.1165 37.3349 14.5077 39.5015 17.9214 38.7494C21.3351 37.9973 23.5018 34.6061 22.7497 31.1924C21.9976 27.7787 18.6063 25.612 15.1926 26.3641ZM15.42 27.3962C18.2764 26.7669 21.0883 28.5634 21.7176 31.4198C22.3469 34.2761 20.5504 37.088 17.694 37.7173C14.8377 38.3466 12.0258 36.5501 11.3965 33.6938C10.7672 30.8374 12.5637 28.0256 15.42 27.3962ZM14.3267 29.8015L15.0089 32.8979L13.9768 33.1253L14.19 34.0929L15.2221 33.8655L15.35 34.446L14.3179 34.6734L14.46 35.3185L15.4921 35.0911L15.8048 36.5102L17.0304 36.2402L16.7177 34.8211L18.0724 34.5226L17.9303 33.8775L16.5756 34.176L16.448 33.5967L17.6433 33.3334C18.3374 33.1804 18.8451 32.8785 19.1637 32.4302C19.483 31.9824 19.5489 31.4004 19.4182 30.807C19.2875 30.2142 18.9717 29.7291 18.4931 29.4544C18.0151 29.1789 17.4282 29.1182 16.7334 29.2713L14.3267 29.8015ZM15.7642 30.4994L16.9253 30.2436C17.2659 30.1685 17.5631 30.1944 17.7788 30.3504C17.9945 30.5065 18.1461 30.7835 18.2118 31.0816C18.2762 31.3738 18.2684 31.6853 18.1357 31.912C18.0024 32.1389 17.7672 32.2901 17.4298 32.3645L16.2332 32.6281L15.7642 30.4994Z" fill="#434343"/>
</g>
<path d="M61.28 20.152H62.68C63.0253 19.5547 63.296 18.962 63.492 18.374C63.688 17.786 63.8327 17.1887 63.926 16.582C64.0287 15.9753 64.0893 15.35 64.108 14.706C64.136 14.062 64.15 13.3853 64.15 12.676V12.298H70.562V20.152H72.228V24.59H70.128V22H63.38V24.59H61.28V20.152ZM66.208 14.146C66.1893 14.65 66.1567 15.168 66.11 15.7C66.0633 16.232 65.9933 16.7593 65.9 17.282C65.8067 17.7953 65.6807 18.2993 65.522 18.794C65.3727 19.2793 65.1813 19.732 64.948 20.152H68.434V14.146H66.208ZM80.1977 14.636V22H78.0977C78.0977 21.5333 78.1024 21.0713 78.1117 20.614C78.1211 20.1473 78.1304 19.718 78.1397 19.326C78.1491 18.934 78.1584 18.5933 78.1677 18.304C78.1864 18.0053 78.1957 17.786 78.1957 17.646C77.9251 18.0287 77.6544 18.416 77.3837 18.808C77.1131 19.2 76.8517 19.5873 76.5997 19.97C76.3571 20.3433 76.1237 20.7027 75.8997 21.048C75.6851 21.3933 75.4937 21.7107 75.3257 22H73.4917V14.636H75.5777C75.5777 15.1027 75.5731 15.5507 75.5637 15.98C75.5637 16.4 75.5591 16.7827 75.5497 17.128C75.5404 17.4733 75.5311 17.7767 75.5217 18.038C75.5124 18.29 75.5077 18.486 75.5077 18.626C76.0677 17.8047 76.5811 17.0673 77.0477 16.414C77.5237 15.7607 77.9857 15.168 78.4337 14.636H80.1977ZM86.8777 18.374C86.8777 17.73 86.733 17.2167 86.4437 16.834C86.1544 16.442 85.725 16.246 85.1557 16.246C84.969 16.246 84.7964 16.2553 84.6377 16.274C84.479 16.2833 84.3484 16.2973 84.2457 16.316V20.082C84.3764 20.166 84.5444 20.236 84.7497 20.292C84.9644 20.348 85.179 20.376 85.3937 20.376C86.383 20.376 86.8777 19.7087 86.8777 18.374ZM89.0057 18.318C89.0057 18.8873 88.9357 19.4053 88.7957 19.872C88.6557 20.3387 88.4504 20.74 88.1797 21.076C87.909 21.412 87.573 21.6733 87.1717 21.86C86.7704 22.0467 86.3084 22.14 85.7857 22.14C85.4964 22.14 85.2257 22.112 84.9737 22.056C84.7217 22 84.479 21.9207 84.2457 21.818V24.59H82.1597V14.888C82.3464 14.832 82.561 14.7807 82.8037 14.734C83.0464 14.678 83.2984 14.6313 83.5597 14.594C83.8304 14.5567 84.101 14.5287 84.3717 14.51C84.6517 14.482 84.9177 14.468 85.1697 14.468C85.7764 14.468 86.3177 14.5613 86.7937 14.748C87.2697 14.9253 87.671 15.182 87.9977 15.518C88.3244 15.8447 88.5717 16.246 88.7397 16.722C88.917 17.198 89.0057 17.73 89.0057 18.318ZM90.2589 18.374C90.2589 17.7207 90.3569 17.1513 90.5529 16.666C90.7582 16.1713 91.0242 15.7607 91.3509 15.434C91.6776 15.1073 92.0509 14.86 92.4709 14.692C92.9002 14.524 93.3389 14.44 93.7869 14.44C94.8322 14.44 95.6582 14.762 96.2649 15.406C96.8716 16.0407 97.1749 16.9787 97.1749 18.22C97.1749 18.3413 97.1702 18.4767 97.1609 18.626C97.1516 18.766 97.1422 18.892 97.1329 19.004H92.4009C92.4476 19.4333 92.6482 19.774 93.0029 20.026C93.3576 20.278 93.8336 20.404 94.4309 20.404C94.8136 20.404 95.1869 20.3713 95.5509 20.306C95.9242 20.2313 96.2276 20.1427 96.4609 20.04L96.7409 21.734C96.6289 21.79 96.4796 21.846 96.2929 21.902C96.1062 21.958 95.8962 22.0047 95.6629 22.042C95.4389 22.0887 95.1962 22.126 94.9349 22.154C94.6736 22.182 94.4122 22.196 94.1509 22.196C93.4882 22.196 92.9096 22.098 92.4149 21.902C91.9296 21.706 91.5236 21.44 91.1969 21.104C90.8796 20.7587 90.6416 20.3527 90.4829 19.886C90.3336 19.4193 90.2589 18.9153 90.2589 18.374ZM95.1589 17.576C95.1496 17.3987 95.1169 17.226 95.0609 17.058C95.0142 16.89 94.9349 16.7407 94.8229 16.61C94.7202 16.4793 94.5849 16.372 94.4169 16.288C94.2582 16.204 94.0576 16.162 93.8149 16.162C93.5816 16.162 93.3809 16.204 93.2129 16.288C93.0449 16.3627 92.9049 16.4653 92.7929 16.596C92.6809 16.7267 92.5922 16.8807 92.5269 17.058C92.4709 17.226 92.4289 17.3987 92.4009 17.576H95.1589ZM100.871 17.212C101.076 17.016 101.291 16.8013 101.515 16.568C101.748 16.3347 101.972 16.106 102.187 15.882C102.401 15.6487 102.607 15.4247 102.803 15.21C102.999 14.9953 103.171 14.804 103.321 14.636H105.855C105.668 14.832 105.435 15.0747 105.155 15.364C104.884 15.6533 104.595 15.9567 104.287 16.274C103.979 16.582 103.666 16.89 103.349 17.198C103.041 17.506 102.747 17.7813 102.467 18.024C102.747 18.2387 103.045 18.5047 103.363 18.822C103.68 19.1393 103.988 19.48 104.287 19.844C104.595 20.208 104.884 20.5767 105.155 20.95C105.435 21.3233 105.673 21.6733 105.869 22H103.489C103.321 21.748 103.129 21.4867 102.915 21.216C102.7 20.936 102.476 20.6653 102.243 20.404C102.009 20.1333 101.771 19.8813 101.529 19.648C101.295 19.4147 101.076 19.214 100.871 19.046V22H98.7847V14.636H100.871V17.212ZM113.338 16.344H110.986V22H108.9V16.344H106.548V14.636H113.338V16.344ZM116.128 20.894C116.128 21.314 115.992 21.636 115.722 21.86C115.46 22.0747 115.162 22.182 114.826 22.182C114.49 22.182 114.186 22.0747 113.916 21.86C113.654 21.636 113.524 21.314 113.524 20.894C113.524 20.474 113.654 20.1567 113.916 19.942C114.186 19.718 114.49 19.606 114.826 19.606C115.162 19.606 115.46 19.718 115.722 19.942C115.992 20.1567 116.128 20.474 116.128 20.894ZM117.179 18.318C117.179 17.786 117.263 17.2867 117.431 16.82C117.608 16.344 117.86 15.9333 118.187 15.588C118.513 15.2333 118.91 14.9533 119.377 14.748C119.843 14.5427 120.375 14.44 120.973 14.44C121.365 14.44 121.724 14.4773 122.051 14.552C122.377 14.6173 122.695 14.7153 123.003 14.846L122.569 16.512C122.373 16.4373 122.158 16.372 121.925 16.316C121.691 16.26 121.43 16.232 121.141 16.232C120.525 16.232 120.063 16.4233 119.755 16.806C119.456 17.1887 119.307 17.6927 119.307 18.318C119.307 18.9807 119.447 19.494 119.727 19.858C120.016 20.222 120.515 20.404 121.225 20.404C121.477 20.404 121.747 20.3807 122.037 20.334C122.326 20.2873 122.592 20.2127 122.835 20.11L123.129 21.818C122.886 21.9207 122.583 22.0093 122.219 22.084C121.855 22.1587 121.453 22.196 121.015 22.196C120.343 22.196 119.764 22.098 119.279 21.902C118.793 21.6967 118.392 21.4213 118.075 21.076C117.767 20.7307 117.538 20.3247 117.389 19.858C117.249 19.382 117.179 18.8687 117.179 18.318ZM127.343 20.544C127.548 20.544 127.744 20.5393 127.931 20.53C128.117 20.5207 128.267 20.5067 128.379 20.488V18.906C128.295 18.8873 128.169 18.8687 128.001 18.85C127.833 18.8313 127.679 18.822 127.539 18.822C127.343 18.822 127.156 18.836 126.979 18.864C126.811 18.8827 126.661 18.9247 126.531 18.99C126.4 19.0553 126.297 19.144 126.223 19.256C126.148 19.368 126.111 19.508 126.111 19.676C126.111 20.0027 126.218 20.2313 126.433 20.362C126.657 20.4833 126.96 20.544 127.343 20.544ZM127.175 14.44C127.791 14.44 128.304 14.51 128.715 14.65C129.125 14.79 129.452 14.9907 129.695 15.252C129.947 15.5133 130.124 15.8307 130.227 16.204C130.329 16.5773 130.381 16.9927 130.381 17.45V21.79C130.082 21.8553 129.667 21.93 129.135 22.014C128.603 22.1073 127.959 22.154 127.203 22.154C126.727 22.154 126.293 22.112 125.901 22.028C125.518 21.944 125.187 21.8087 124.907 21.622C124.627 21.426 124.412 21.174 124.263 20.866C124.113 20.558 124.039 20.18 124.039 19.732C124.039 19.3027 124.123 18.9387 124.291 18.64C124.468 18.3413 124.701 18.1033 124.991 17.926C125.28 17.7487 125.611 17.6227 125.985 17.548C126.358 17.464 126.745 17.422 127.147 17.422C127.417 17.422 127.655 17.436 127.861 17.464C128.075 17.4827 128.248 17.5107 128.379 17.548V17.352C128.379 16.9973 128.271 16.7127 128.057 16.498C127.842 16.2833 127.469 16.176 126.937 16.176C126.582 16.176 126.232 16.204 125.887 16.26C125.541 16.3067 125.243 16.3767 124.991 16.47L124.725 14.79C124.846 14.7527 124.995 14.7153 125.173 14.678C125.359 14.6313 125.56 14.594 125.775 14.566C125.989 14.5287 126.213 14.5007 126.447 14.482C126.689 14.454 126.932 14.44 127.175 14.44ZM138.973 14.636V22H136.873C136.873 21.5333 136.878 21.0713 136.887 20.614C136.896 20.1473 136.906 19.718 136.915 19.326C136.924 18.934 136.934 18.5933 136.943 18.304C136.962 18.0053 136.971 17.786 136.971 17.646C136.7 18.0287 136.43 18.416 136.159 18.808C135.888 19.2 135.627 19.5873 135.375 19.97C135.132 20.3433 134.899 20.7027 134.675 21.048C134.46 21.3933 134.269 21.7107 134.101 22H132.267V14.636H134.353C134.353 15.1027 134.348 15.5507 134.339 15.98C134.339 16.4 134.334 16.7827 134.325 17.128C134.316 17.4733 134.306 17.7767 134.297 18.038C134.288 18.29 134.283 18.486 134.283 18.626C134.843 17.8047 135.356 17.0673 135.823 16.414C136.299 15.7607 136.761 15.168 137.209 14.636H138.973ZM135.655 13.628C135.356 13.628 135.067 13.586 134.787 13.502C134.516 13.4087 134.269 13.278 134.045 13.11C133.821 12.9327 133.634 12.7227 133.485 12.48C133.345 12.228 133.261 11.9433 133.233 11.626L134.675 11.248C134.75 11.6027 134.871 11.8547 135.039 12.004C135.216 12.1533 135.422 12.228 135.655 12.228C135.898 12.228 136.103 12.1627 136.271 12.032C136.448 11.892 136.574 11.6353 136.649 11.262L138.077 11.64C138.049 11.9573 137.96 12.242 137.811 12.494C137.671 12.7367 137.489 12.942 137.265 13.11C137.05 13.278 136.803 13.4087 136.523 13.502C136.243 13.586 135.954 13.628 135.655 13.628ZM147.025 16.344H144.673V22H142.587V16.344H140.235V14.636H147.025V16.344Z" fill="#434343"/>
<path d="M66.972 31.298H69.156V41H66.972V36.884H63.304V41H61.12V31.298H63.304V35.008H66.972V31.298ZM74.0753 39.544C74.2806 39.544 74.4766 39.5393 74.6633 39.53C74.8499 39.5207 74.9993 39.5067 75.1113 39.488V37.906C75.0273 37.8873 74.9013 37.8687 74.7333 37.85C74.5653 37.8313 74.4113 37.822 74.2713 37.822C74.0753 37.822 73.8886 37.836 73.7113 37.864C73.5433 37.8827 73.3939 37.9247 73.2633 37.99C73.1326 38.0553 73.0299 38.144 72.9553 38.256C72.8806 38.368 72.8433 38.508 72.8433 38.676C72.8433 39.0027 72.9506 39.2313 73.1653 39.362C73.3893 39.4833 73.6926 39.544 74.0753 39.544ZM73.9073 33.44C74.5233 33.44 75.0366 33.51 75.4473 33.65C75.8579 33.79 76.1846 33.9907 76.4273 34.252C76.6793 34.5133 76.8566 34.8307 76.9593 35.204C77.0619 35.5773 77.1133 35.9927 77.1133 36.45V40.79C76.8146 40.8553 76.3993 40.93 75.8673 41.014C75.3353 41.1073 74.6913 41.154 73.9353 41.154C73.4593 41.154 73.0253 41.112 72.6333 41.028C72.2506 40.944 71.9193 40.8087 71.6393 40.622C71.3593 40.426 71.1446 40.174 70.9953 39.866C70.8459 39.558 70.7713 39.18 70.7713 38.732C70.7713 38.3027 70.8553 37.9387 71.0233 37.64C71.2006 37.3413 71.4339 37.1033 71.7233 36.926C72.0126 36.7487 72.3439 36.6227 72.7173 36.548C73.0906 36.464 73.4779 36.422 73.8792 36.422C74.1499 36.422 74.3879 36.436 74.5933 36.464C74.8079 36.4827 74.9806 36.5107 75.1113 36.548V36.352C75.1113 35.9973 75.0039 35.7127 74.7893 35.498C74.5746 35.2833 74.2013 35.176 73.6693 35.176C73.3146 35.176 72.9646 35.204 72.6193 35.26C72.2739 35.3067 71.9753 35.3767 71.7233 35.47L71.4573 33.79C71.5786 33.7527 71.7279 33.7153 71.9053 33.678C72.0919 33.6313 72.2926 33.594 72.5073 33.566C72.7219 33.5287 72.9459 33.5007 73.1793 33.482C73.4219 33.454 73.6646 33.44 73.9073 33.44ZM78.6495 37.318C78.6495 36.786 78.7335 36.2867 78.9015 35.82C79.0789 35.344 79.3309 34.9333 79.6575 34.588C79.9842 34.2333 80.3809 33.9533 80.8475 33.748C81.3142 33.5427 81.8462 33.44 82.4435 33.44C82.8355 33.44 83.1949 33.4773 83.5215 33.552C83.8482 33.6173 84.1655 33.7153 84.4735 33.846L84.0395 35.512C83.8435 35.4373 83.6289 35.372 83.3955 35.316C83.1622 35.26 82.9009 35.232 82.6115 35.232C81.9955 35.232 81.5335 35.4233 81.2255 35.806C80.9269 36.1887 80.7775 36.6927 80.7775 37.318C80.7775 37.9807 80.9175 38.494 81.1975 38.858C81.4869 39.222 81.9862 39.404 82.6955 39.404C82.9475 39.404 83.2182 39.3807 83.5075 39.334C83.7969 39.2873 84.0629 39.2127 84.3055 39.11L84.5995 40.818C84.3569 40.9207 84.0535 41.0093 83.6895 41.084C83.3255 41.1587 82.9242 41.196 82.4855 41.196C81.8135 41.196 81.2349 41.098 80.7495 40.902C80.2642 40.6967 79.8629 40.4213 79.5455 40.076C79.2375 39.7307 79.0089 39.3247 78.8595 38.858C78.7195 38.382 78.6495 37.8687 78.6495 37.318ZM92.0895 35.344H89.7375V41H87.6515V35.344H85.2995V33.636H92.0895V35.344ZM98.073 37.374C98.073 36.73 97.9283 36.2167 97.639 35.834C97.3497 35.442 96.9203 35.246 96.351 35.246C96.1643 35.246 95.9917 35.2553 95.833 35.274C95.6743 35.2833 95.5437 35.2973 95.441 35.316V39.082C95.5717 39.166 95.7397 39.236 95.945 39.292C96.1597 39.348 96.3743 39.376 96.589 39.376C97.5783 39.376 98.073 38.7087 98.073 37.374ZM100.201 37.318C100.201 37.8873 100.131 38.4053 99.991 38.872C99.851 39.3387 99.6457 39.74 99.375 40.076C99.1043 40.412 98.7683 40.6733 98.367 40.86C97.9657 41.0467 97.5037 41.14 96.981 41.14C96.6917 41.14 96.421 41.112 96.169 41.056C95.917 41 95.6743 40.9207 95.441 40.818V43.59H93.355V33.888C93.5417 33.832 93.7563 33.7807 93.999 33.734C94.2417 33.678 94.4937 33.6313 94.755 33.594C95.0257 33.5567 95.2963 33.5287 95.567 33.51C95.847 33.482 96.113 33.468 96.365 33.468C96.9717 33.468 97.513 33.5613 97.989 33.748C98.465 33.9253 98.8663 34.182 99.193 34.518C99.5197 34.8447 99.767 35.246 99.935 35.722C100.112 36.198 100.201 36.73 100.201 37.318ZM108.692 37.304C108.692 37.8827 108.608 38.4147 108.44 38.9C108.272 39.376 108.03 39.7867 107.712 40.132C107.395 40.468 107.012 40.7293 106.564 40.916C106.126 41.1027 105.631 41.196 105.08 41.196C104.539 41.196 104.044 41.1027 103.596 40.916C103.158 40.7293 102.78 40.468 102.462 40.132C102.145 39.7867 101.898 39.376 101.72 38.9C101.543 38.4147 101.454 37.8827 101.454 37.304C101.454 36.7253 101.543 36.198 101.72 35.722C101.907 35.246 102.159 34.84 102.476 34.504C102.803 34.168 103.186 33.9067 103.624 33.72C104.072 33.5333 104.558 33.44 105.08 33.44C105.612 33.44 106.098 33.5333 106.536 33.72C106.984 33.9067 107.367 34.168 107.684 34.504C108.002 34.84 108.249 35.246 108.426 35.722C108.604 36.198 108.692 36.7253 108.692 37.304ZM106.564 37.304C106.564 36.66 106.434 36.156 106.172 35.792C105.92 35.4187 105.556 35.232 105.08 35.232C104.604 35.232 104.236 35.4187 103.974 35.792C103.713 36.156 103.582 36.66 103.582 37.304C103.582 37.948 103.713 38.4613 103.974 38.844C104.236 39.2173 104.604 39.404 105.08 39.404C105.556 39.404 105.92 39.2173 106.172 38.844C106.434 38.4613 106.564 37.948 106.564 37.304ZM117.014 33.636V41H114.914C114.914 40.5333 114.919 40.0713 114.928 39.614C114.937 39.1473 114.947 38.718 114.956 38.326C114.965 37.934 114.975 37.5933 114.984 37.304C115.003 37.0053 115.012 36.786 115.012 36.646C114.741 37.0287 114.471 37.416 114.2 37.808C113.929 38.2 113.668 38.5873 113.416 38.97C113.173 39.3433 112.94 39.7027 112.716 40.048C112.501 40.3933 112.31 40.7107 112.142 41H110.308V33.636H112.394C112.394 34.1027 112.389 34.5507 112.38 34.98C112.38 35.4 112.375 35.7827 112.366 36.128C112.357 36.4733 112.347 36.7767 112.338 37.038C112.329 37.29 112.324 37.486 112.324 37.626C112.884 36.8047 113.397 36.0673 113.864 35.414C114.34 34.7607 114.802 34.168 115.25 33.636H117.014ZM113.696 32.628C113.397 32.628 113.108 32.586 112.828 32.502C112.557 32.4087 112.31 32.278 112.086 32.11C111.862 31.9327 111.675 31.7227 111.526 31.48C111.386 31.228 111.302 30.9433 111.274 30.626L112.716 30.248C112.791 30.6027 112.912 30.8547 113.08 31.004C113.257 31.1533 113.463 31.228 113.696 31.228C113.939 31.228 114.144 31.1627 114.312 31.032C114.489 30.892 114.615 30.6353 114.69 30.262L116.118 30.64C116.09 30.9573 116.001 31.242 115.852 31.494C115.712 31.7367 115.53 31.942 115.306 32.11C115.091 32.278 114.844 32.4087 114.564 32.502C114.284 32.586 113.995 32.628 113.696 32.628ZM121.062 36.212C121.267 36.016 121.482 35.8013 121.706 35.568C121.939 35.3347 122.163 35.106 122.378 34.882C122.593 34.6487 122.798 34.4247 122.994 34.21C123.19 33.9953 123.363 33.804 123.512 33.636H126.046C125.859 33.832 125.626 34.0747 125.346 34.364C125.075 34.6533 124.786 34.9567 124.478 35.274C124.17 35.582 123.857 35.89 123.54 36.198C123.232 36.506 122.938 36.7813 122.658 37.024C122.938 37.2387 123.237 37.5047 123.554 37.822C123.871 38.1393 124.179 38.48 124.478 38.844C124.786 39.208 125.075 39.5767 125.346 39.95C125.626 40.3233 125.864 40.6733 126.06 41H123.68C123.512 40.748 123.321 40.4867 123.106 40.216C122.891 39.936 122.667 39.6653 122.434 39.404C122.201 39.1333 121.963 38.8813 121.72 38.648C121.487 38.4147 121.267 38.214 121.062 38.046V41H118.976V33.636H121.062V36.212ZM129.857 39.544C130.062 39.544 130.258 39.5393 130.445 39.53C130.631 39.5207 130.781 39.5067 130.893 39.488V37.906C130.809 37.8873 130.683 37.8687 130.515 37.85C130.347 37.8313 130.193 37.822 130.053 37.822C129.857 37.822 129.67 37.836 129.493 37.864C129.325 37.8827 129.175 37.9247 129.045 37.99C128.914 38.0553 128.811 38.144 128.737 38.256C128.662 38.368 128.625 38.508 128.625 38.676C128.625 39.0027 128.732 39.2313 128.947 39.362C129.171 39.4833 129.474 39.544 129.857 39.544ZM129.689 33.44C130.305 33.44 130.818 33.51 131.229 33.65C131.639 33.79 131.966 33.9907 132.209 34.252C132.461 34.5133 132.638 34.8307 132.741 35.204C132.843 35.5773 132.895 35.9927 132.895 36.45V40.79C132.596 40.8553 132.181 40.93 131.649 41.014C131.117 41.1073 130.473 41.154 129.717 41.154C129.241 41.154 128.807 41.112 128.415 41.028C128.032 40.944 127.701 40.8087 127.421 40.622C127.141 40.426 126.926 40.174 126.777 39.866C126.627 39.558 126.553 39.18 126.553 38.732C126.553 38.3027 126.637 37.9387 126.805 37.64C126.982 37.3413 127.215 37.1033 127.505 36.926C127.794 36.7487 128.125 36.6227 128.499 36.548C128.872 36.464 129.259 36.422 129.66 36.422C129.931 36.422 130.169 36.436 130.375 36.464C130.589 36.4827 130.762 36.5107 130.893 36.548V36.352C130.893 35.9973 130.785 35.7127 130.571 35.498C130.356 35.2833 129.983 35.176 129.451 35.176C129.096 35.176 128.746 35.204 128.401 35.26C128.055 35.3067 127.757 35.3767 127.505 35.47L127.239 33.79C127.36 33.7527 127.509 33.7153 127.687 33.678C127.873 33.6313 128.074 33.594 128.289 33.566C128.503 33.5287 128.727 33.5007 128.961 33.482C129.203 33.454 129.446 33.44 129.689 33.44ZM142.862 37.374C142.862 36.73 142.717 36.2167 142.428 35.834C142.139 35.442 141.709 35.246 141.14 35.246C140.953 35.246 140.781 35.2553 140.622 35.274C140.463 35.2833 140.333 35.2973 140.23 35.316V39.082C140.361 39.166 140.529 39.236 140.734 39.292C140.949 39.348 141.163 39.376 141.378 39.376C142.367 39.376 142.862 38.7087 142.862 37.374ZM144.99 37.318C144.99 37.8873 144.92 38.4053 144.78 38.872C144.64 39.3387 144.435 39.74 144.164 40.076C143.893 40.412 143.557 40.6733 143.156 40.86C142.755 41.0467 142.293 41.14 141.77 41.14C141.481 41.14 141.21 41.112 140.958 41.056C140.706 41 140.463 40.9207 140.23 40.818V43.59H138.144V33.888C138.331 33.832 138.545 33.7807 138.788 33.734C139.031 33.678 139.283 33.6313 139.544 33.594C139.815 33.5567 140.085 33.5287 140.356 33.51C140.636 33.482 140.902 33.468 141.154 33.468C141.761 33.468 142.302 33.5613 142.778 33.748C143.254 33.9253 143.655 34.182 143.982 34.518C144.309 34.8447 144.556 35.246 144.724 35.722C144.901 36.198 144.99 36.73 144.99 37.318ZM146.243 37.374C146.243 36.7207 146.341 36.1513 146.537 35.666C146.743 35.1713 147.009 34.7607 147.335 34.434C147.662 34.1073 148.035 33.86 148.455 33.692C148.885 33.524 149.323 33.44 149.771 33.44C150.817 33.44 151.643 33.762 152.249 34.406C152.856 35.0407 153.159 35.9787 153.159 37.22C153.159 37.3413 153.155 37.4767 153.145 37.626C153.136 37.766 153.127 37.892 153.117 38.004H148.385C148.432 38.4333 148.633 38.774 148.987 39.026C149.342 39.278 149.818 39.404 150.415 39.404C150.798 39.404 151.171 39.3713 151.535 39.306C151.909 39.2313 152.212 39.1427 152.445 39.04L152.725 40.734C152.613 40.79 152.464 40.846 152.277 40.902C152.091 40.958 151.881 41.0047 151.647 41.042C151.423 41.0887 151.181 41.126 150.919 41.154C150.658 41.182 150.397 41.196 150.135 41.196C149.473 41.196 148.894 41.098 148.399 40.902C147.914 40.706 147.508 40.44 147.181 40.104C146.864 39.7587 146.626 39.3527 146.467 38.886C146.318 38.4193 146.243 37.9153 146.243 37.374ZM151.143 36.576C151.134 36.3987 151.101 36.226 151.045 36.058C150.999 35.89 150.919 35.7407 150.807 35.61C150.705 35.4793 150.569 35.372 150.401 35.288C150.243 35.204 150.042 35.162 149.799 35.162C149.566 35.162 149.365 35.204 149.197 35.288C149.029 35.3627 148.889 35.4653 148.777 35.596C148.665 35.7267 148.577 35.8807 148.511 36.058C148.455 36.226 148.413 36.3987 148.385 36.576H151.143ZM156.855 36.212C157.06 36.016 157.275 35.8013 157.499 35.568C157.732 35.3347 157.956 35.106 158.171 34.882C158.386 34.6487 158.591 34.4247 158.787 34.21C158.983 33.9953 159.156 33.804 159.305 33.636H161.839C161.652 33.832 161.419 34.0747 161.139 34.364C160.868 34.6533 160.579 34.9567 160.271 35.274C159.963 35.582 159.65 35.89 159.333 36.198C159.025 36.506 158.731 36.7813 158.451 37.024C158.731 37.2387 159.03 37.5047 159.347 37.822C159.664 38.1393 159.972 38.48 160.271 38.844C160.579 39.208 160.868 39.5767 161.139 39.95C161.419 40.3233 161.657 40.6733 161.853 41H159.473C159.305 40.748 159.114 40.4867 158.899 40.216C158.684 39.936 158.46 39.6653 158.227 39.404C157.994 39.1333 157.756 38.8813 157.513 38.648C157.28 38.4147 157.06 38.214 156.855 38.046V41H154.769V33.636H156.855V36.212ZM166.509 35.344C166.499 35.6147 166.485 35.904 166.467 36.212C166.457 36.5107 166.434 36.814 166.397 37.122C166.359 37.4207 166.308 37.7147 166.243 38.004C166.187 38.2933 166.112 38.564 166.019 38.816C165.907 39.1147 165.762 39.3947 165.585 39.656C165.417 39.908 165.197 40.1367 164.927 40.342C164.665 40.5473 164.343 40.72 163.961 40.86C163.587 40.9907 163.149 41.0793 162.645 41.126L162.365 39.39C162.841 39.2967 163.209 39.166 163.471 38.998C163.732 38.8207 163.928 38.5967 164.059 38.326C164.161 38.0927 164.241 37.822 164.297 37.514C164.362 37.206 164.409 36.884 164.437 36.548C164.465 36.2027 164.479 35.8527 164.479 35.498C164.488 35.1433 164.493 34.8027 164.493 34.476V33.636H170.023V41H167.937V35.344H166.509ZM174.796 39.544C175.001 39.544 175.197 39.5393 175.384 39.53C175.571 39.5207 175.72 39.5067 175.832 39.488V37.906C175.748 37.8873 175.622 37.8687 175.454 37.85C175.286 37.8313 175.132 37.822 174.992 37.822C174.796 37.822 174.609 37.836 174.432 37.864C174.264 37.8827 174.115 37.9247 173.984 37.99C173.853 38.0553 173.751 38.144 173.676 38.256C173.601 38.368 173.564 38.508 173.564 38.676C173.564 39.0027 173.671 39.2313 173.886 39.362C174.11 39.4833 174.413 39.544 174.796 39.544ZM174.628 33.44C175.244 33.44 175.757 33.51 176.168 33.65C176.579 33.79 176.905 33.9907 177.148 34.252C177.4 34.5133 177.577 34.8307 177.68 35.204C177.783 35.5773 177.834 35.9927 177.834 36.45V40.79C177.535 40.8553 177.12 40.93 176.588 41.014C176.056 41.1073 175.412 41.154 174.656 41.154C174.18 41.154 173.746 41.112 173.354 41.028C172.971 40.944 172.64 40.8087 172.36 40.622C172.08 40.426 171.865 40.174 171.716 39.866C171.567 39.558 171.492 39.18 171.492 38.732C171.492 38.3027 171.576 37.9387 171.744 37.64C171.921 37.3413 172.155 37.1033 172.444 36.926C172.733 36.7487 173.065 36.6227 173.438 36.548C173.811 36.464 174.199 36.422 174.6 36.422C174.871 36.422 175.109 36.436 175.314 36.464C175.529 36.4827 175.701 36.5107 175.832 36.548V36.352C175.832 35.9973 175.725 35.7127 175.51 35.498C175.295 35.2833 174.922 35.176 174.39 35.176C174.035 35.176 173.685 35.204 173.34 35.26C172.995 35.3067 172.696 35.3767 172.444 35.47L172.178 33.79C172.299 33.7527 172.449 33.7153 172.626 33.678C172.813 33.6313 173.013 33.594 173.228 33.566C173.443 33.5287 173.667 33.5007 173.9 33.482C174.143 33.454 174.385 33.44 174.628 33.44ZM181.792 36.758C181.774 37.0847 181.755 37.4393 181.736 37.822C181.718 38.2047 181.699 38.592 181.68 38.984C181.671 39.3667 181.657 39.7353 181.638 40.09C181.629 40.4353 181.62 40.7387 181.61 41H179.58C179.599 40.4867 179.627 39.908 179.664 39.264C179.711 38.62 179.758 37.9667 179.804 37.304C179.86 36.632 179.916 35.9787 179.972 35.344C180.038 34.7093 180.098 34.14 180.154 33.636H181.89C182.292 34.2893 182.66 34.966 182.996 35.666C183.332 36.366 183.687 37.136 184.06 37.976C184.452 37.08 184.835 36.254 185.208 35.498C185.582 34.7327 185.918 34.112 186.216 33.636H187.98C188.046 34.14 188.106 34.7093 188.162 35.344C188.228 35.9787 188.284 36.632 188.33 37.304C188.386 37.9667 188.433 38.62 188.47 39.264C188.508 39.908 188.536 40.4867 188.554 41H186.482C186.464 40.272 186.436 39.5487 186.398 38.83C186.37 38.1113 186.342 37.416 186.314 36.744L184.774 40.132H183.332L181.792 36.758ZM199.947 41H197.861V33.636H199.947V41ZM193.493 39.544C193.875 39.544 194.174 39.474 194.389 39.334C194.613 39.1847 194.725 38.9467 194.725 38.62C194.725 38.452 194.687 38.312 194.613 38.2C194.538 38.0787 194.435 37.9853 194.305 37.92C194.174 37.8453 194.02 37.794 193.843 37.766C193.675 37.738 193.493 37.724 193.297 37.724C193.157 37.724 193.003 37.7333 192.835 37.752C192.667 37.7707 192.541 37.7893 192.457 37.808V39.488C192.569 39.5067 192.718 39.5207 192.905 39.53C193.091 39.5393 193.287 39.544 193.493 39.544ZM192.457 36.254C192.587 36.2167 192.755 36.1887 192.961 36.17C193.175 36.142 193.418 36.128 193.689 36.128C194.118 36.128 194.519 36.1793 194.893 36.282C195.275 36.3847 195.607 36.5433 195.887 36.758C196.167 36.9633 196.386 37.2293 196.545 37.556C196.713 37.8733 196.797 38.2467 196.797 38.676C196.797 39.1053 196.722 39.4787 196.573 39.796C196.423 40.104 196.209 40.3607 195.929 40.566C195.649 40.762 195.313 40.9067 194.921 41C194.538 41.1027 194.109 41.154 193.633 41.154C193.017 41.154 192.452 41.1213 191.939 41.056C191.425 41 190.903 40.9067 190.371 40.776V33.636H192.457V36.254Z" fill="#434343"/>
<rect x="61" y="27" width="100" height="1" fill="#434343"/>
<defs>
<clipPath id="clip0_333_136">
<rect width="12.6823" height="12.6823" fill="white" transform="translate(9 27.7285) rotate(-12.4252)"/>
</clipPath>
</defs>
</svg>
