<svg width="18" height="18" viewBox="0 0 18 18" fill="none" xmlns="http://www.w3.org/2000/svg">
<path d="M18 14.7494C18 14.8563 17.9859 14.9622 17.9569 15.0681C17.9278 15.1741 17.8847 15.2791 17.8275 15.3841C17.7694 15.4881 17.6981 15.5912 17.6128 15.6934C17.5266 15.7947 17.4281 15.895 17.3147 15.9934C17.2022 16.0919 17.0766 16.1875 16.9369 16.2822C16.7981 16.3759 16.6472 16.4669 16.4831 16.555C16.3191 16.6441 16.1437 16.7294 15.9572 16.8119C15.7697 16.8934 15.5728 16.9722 15.3637 17.0481C15.1556 17.1231 14.9372 17.1944 14.7094 17.2619C14.4816 17.3294 14.2453 17.3931 13.9997 17.4522C13.755 17.5113 13.5028 17.5656 13.2422 17.6163C12.9825 17.6659 12.7162 17.7119 12.4444 17.7522C12.1716 17.7934 11.895 17.8291 11.6128 17.86C11.3306 17.8909 11.0447 17.9162 10.7559 17.9369C10.4662 17.9584 10.1756 17.9734 9.88219 17.9837C9.58875 17.9941 9.29437 17.9997 9 17.9997C8.70562 17.9997 8.41125 17.9941 8.11781 17.9837C7.82437 17.9734 7.53375 17.9584 7.24406 17.9369C6.95531 17.9162 6.66937 17.8909 6.38719 17.86C6.105 17.8291 5.82844 17.7934 5.55562 17.7522C5.28375 17.7119 5.0175 17.6659 4.75781 17.6163C4.49719 17.5656 4.245 17.5113 4.00031 17.4522C3.75469 17.3931 3.51844 17.3294 3.29063 17.2619C3.06281 17.1944 2.84437 17.1231 2.63625 17.0481C2.42719 16.9722 2.23031 16.8934 2.04281 16.8119C1.85625 16.7294 1.68094 16.6441 1.51687 16.555C1.35281 16.4669 1.20187 16.3759 1.06313 16.2822C0.923437 16.1875 0.797813 16.0919 0.685313 15.9934C0.571875 15.895 0.473437 15.7947 0.387187 15.6934C0.301875 15.5912 0.230625 15.4881 0.1725 15.3841C0.115313 15.2791 0.0721874 15.1741 0.0431251 15.0681C0.0140625 14.9622 0 14.8563 0 14.7494C0 14.6434 0.0140625 14.5375 0.0431251 14.4316C0.0721874 14.3256 0.115313 14.2197 0.1725 14.1156C0.230625 14.0116 0.301875 13.9084 0.387187 13.8062C0.473437 13.7041 0.571875 13.6047 0.685313 13.5062C0.797813 13.4078 0.923437 13.3112 1.06313 13.2175C1.20187 13.1237 1.35281 13.0328 1.51687 12.9438C1.68094 12.8556 1.85625 12.7703 2.04281 12.6878C2.23031 12.6053 2.42719 12.5266 2.63625 12.4516C2.84437 12.3766 3.06281 12.3053 3.29063 12.2378C3.51844 12.1703 3.75469 12.1066 4.00031 12.0475C4.245 11.9884 4.49719 11.9341 4.75781 11.8834C5.0175 11.8328 5.28375 11.7878 5.55562 11.7475C5.82844 11.7062 6.105 11.6706 6.38719 11.6397C6.66937 11.6088 6.95531 11.5825 7.24406 11.5619C7.53375 11.5413 7.82437 11.5253 8.11781 11.515C8.41125 11.5047 8.70562 11.5 9 11.5C9.29437 11.5 9.58875 11.5047 9.88219 11.515C10.1756 11.5253 10.4662 11.5413 10.7559 11.5619C11.0447 11.5825 11.3306 11.6088 11.6128 11.6397C11.895 11.6706 12.1716 11.7062 12.4444 11.7475C12.7162 11.7878 12.9825 11.8328 13.2422 11.8834C13.5028 11.9341 13.755 11.9884 13.9997 12.0475C14.2453 12.1066 14.4816 12.1703 14.7094 12.2378C14.9372 12.3053 15.1556 12.3766 15.3637 12.4516C15.5728 12.5266 15.7697 12.6053 15.9572 12.6878C16.1437 12.7703 16.3191 12.8556 16.4831 12.9438C16.6472 13.0328 16.7981 13.1237 16.9369 13.2175C17.0766 13.3112 17.2022 13.4078 17.3147 13.5062C17.4281 13.6047 17.5266 13.7041 17.6128 13.8062C17.6981 13.9084 17.7694 14.0116 17.8275 14.1156C17.8847 14.2197 17.9278 14.3256 17.9569 14.4316C17.9859 14.5375 18 14.6434 18 14.7494Z" fill="#434343"/>
<path d="M9.00001 0C5.96251 0 3.49969 2.42906 3.49969 5.42531C3.49969 8.42156 9.00001 15.4997 9.00001 15.4997C9.00001 15.4997 14.5003 8.42156 14.5003 5.42531C14.5003 2.42906 12.0375 0 9.00001 0ZM9.00001 7.99969C7.61907 7.99969 6.49969 6.88031 6.49969 5.50031C6.49969 4.11938 7.61907 3 9.00001 3C10.3809 3 11.5003 4.11938 11.5003 5.50031C11.5003 6.88031 10.3809 7.99969 9.00001 7.99969Z" fill="#FFDF60"/>
</svg>
