<svg width="13" height="19" viewBox="0 0 13 19" fill="none" xmlns="http://www.w3.org/2000/svg">
<path d="M10.2466 17.9904C10.2466 17.9904 7.02753 18.304 5.84646 15.9914C4.66539 13.6798 1.94674 8.35878 0.471114 5.4714C-1.00451 2.58402 1.45772 0.789062 1.45772 0.789062L10.2466 17.9904Z" fill="#FFEB9A"/>
<path d="M6.71297 7.29518L5.18492 8.08351L1.45773 0.788333L2.98578 0L6.71297 7.29518Z" fill="#FFDF60"/>
<path d="M11.7747 17.1995L10.2467 17.9888L6.51947 10.6936L8.04752 9.9043L11.7747 17.1995Z" fill="#FFDF60"/>
<path d="M6.71296 7.29518L7.27347 6.21897L4.19354 0.190649L2.98578 0L6.71296 7.29518Z" fill="#434343"/>
<path d="M11.7747 17.1995L12.3552 16.1623L9.19614 9.98056L8.04749 9.9043L11.7747 17.1995Z" fill="#434343"/>
</svg>
