<svg width="200" height="23" viewBox="0 0 200 23" fill="none" xmlns="http://www.w3.org/2000/svg">
<circle cx="7.5" cy="11.5" r="7.5" fill="#434343"/>
<path fill-rule="evenodd" clip-rule="evenodd" d="M6.2224 11.5C6.2224 11.1612 6.357 10.8362 6.5966 10.5966C6.8362 10.357 7.16116 10.2224 7.5 10.2224H195.412L187.371 2.18375C187.131 1.94385 186.996 1.61848 186.996 1.27921C186.996 0.939944 187.131 0.614571 187.371 0.374672C187.611 0.134773 187.936 7.99343e-09 188.276 0C188.615 -7.99343e-09 188.94 0.134773 189.18 0.374672L199.401 10.5955C199.52 10.7141 199.614 10.8551 199.679 11.0103C199.743 11.1656 199.776 11.332 199.776 11.5C199.776 11.668 199.743 11.8344 199.679 11.9897C199.614 12.1449 199.52 12.2859 199.401 12.4045L189.18 22.6253C188.94 22.8652 188.615 23 188.276 23C187.936 23 187.611 22.8652 187.371 22.6253C187.131 22.3854 186.996 22.0601 186.996 21.7208C186.996 21.3815 187.131 21.0561 187.371 20.8162L195.412 12.7776H7.5C7.16116 12.7776 6.8362 12.643 6.5966 12.4034C6.357 12.1638 6.2224 11.8388 6.2224 11.5Z" fill="#434343"/>
</svg>
