<svg width="73" height="23" viewBox="0 0 73 23" fill="none" xmlns="http://www.w3.org/2000/svg">
<path fill-rule="evenodd" clip-rule="evenodd" d="M0.222412 11.5C0.222412 11.1612 0.357016 10.8362 0.596612 10.5966C0.836208 10.357 1.16117 10.2224 1.50001 10.2224H68.136L60.0947 2.18375C59.8548 1.94385 59.72 1.61848 59.72 1.27921C59.72 0.939944 59.8548 0.614571 60.0947 0.374672C60.3346 0.134773 60.66 7.99343e-09 60.9992 0C61.3385 -7.99343e-09 61.6639 0.134773 61.9038 0.374672L72.1247 10.5955C72.2436 10.7141 72.338 10.8551 72.4025 11.0103C72.4669 11.1656 72.5 11.332 72.5 11.5C72.5 11.668 72.4669 11.8344 72.4025 11.9897C72.338 12.1449 72.2436 12.2859 72.1247 12.4045L61.9038 22.6253C61.6639 22.8652 61.3385 23 60.9992 23C60.66 23 60.3346 22.8652 60.0947 22.6253C59.8548 22.3854 59.72 22.0601 59.72 21.7208C59.72 21.3815 59.8548 21.0561 60.0947 20.8162L68.136 12.7776H1.50001C1.16117 12.7776 0.836208 12.643 0.596612 12.4034C0.357016 12.1638 0.222412 11.8388 0.222412 11.5Z" fill="#434343"/>
</svg>
