<svg width="75" height="75" viewBox="0 0 75 75" fill="none" xmlns="http://www.w3.org/2000/svg">
<path d="M38.1591 4.25025C39.2529 4.27267 40.3431 4.34589 41.4257 4.47383C42.5122 4.60175 43.5873 4.78441 44.6548 5.01789C45.7222 5.25137 46.7782 5.53569 47.8149 5.87087C48.8555 6.20603 49.8768 6.59597 50.8787 7.02897C51.8807 7.46587 52.8555 7.94977 53.8111 8.48453C54.7627 9.01541 55.6872 9.59328 56.5845 10.2182C57.4819 10.8391 58.3442 11.5032 59.1756 12.2104C60.0069 12.9215 60.8032 13.668 61.5607 14.4497C62.3181 15.2354 63.0328 16.0564 63.7085 16.9127C64.3881 17.7691 65.021 18.6569 65.6072 19.5722C66.1973 20.4914 66.7406 21.4343 67.2372 22.4047C67.7337 23.3752 68.1796 24.3693 68.5787 25.3831C68.9739 26.397 69.3223 27.4306 69.62 28.48C69.9177 29.5256 70.1607 30.587 70.3531 31.6604C70.5454 32.7337 70.6831 33.8112 70.77 34.8968C70.853 35.9824 70.8853 37.0721 70.8628 38.1621C70.8404 39.252 70.7671 40.3344 70.6392 41.417C70.5073 42.4996 70.3286 43.5747 70.0912 44.6383C69.8577 45.7018 69.5733 46.75 69.2343 47.7867C68.8952 48.8234 68.5091 49.8408 68.0683 50.8389C67.6314 51.8369 67.1436 52.8118 66.6088 53.7595C66.074 54.7112 65.4961 55.6318 64.8712 56.5252C64.2463 57.4187 63.5783 58.281 62.8672 59.1085C62.1561 59.9359 61.4096 60.7283 60.62 61.4819C59.8305 62.2394 59.0095 62.954 58.1492 63.6259C57.2929 64.3016 56.4012 64.9306 55.4819 65.5168C54.5588 66.1069 53.612 66.6463 52.6376 67.139C51.6633 67.6356 50.6692 68.0776 49.6514 68.4767C48.6337 68.8719 47.5961 69.2164 46.5467 69.5141C45.4933 69.8079 44.428 70.051 43.3546 70.2433C42.2773 70.4318 41.1959 70.5695 40.1065 70.6564C39.017 70.7394 37.9234 70.7717 36.8334 70.7493C35.7395 70.7268 34.6494 70.6536 33.5667 70.5257C32.4802 70.3978 31.4052 70.2151 30.3377 69.9816C29.2702 69.7521 28.2143 69.4638 27.1737 69.1287C26.137 68.7935 25.1157 68.4075 24.1137 67.9706C23.1118 67.5337 22.1369 67.0498 21.1814 66.515C20.2298 65.9841 19.3053 65.4062 18.4079 64.7853C17.5106 64.1604 16.6482 63.4963 15.8169 62.7891C14.9856 62.0819 14.1892 61.3355 13.4318 60.5498C12.6743 59.7641 11.9597 58.9431 11.284 58.0868C10.6043 57.2305 9.97143 56.3466 9.38526 55.4273C8.79517 54.5081 8.25186 53.5652 7.7553 52.5948C7.25874 51.6244 6.81285 50.6303 6.41375 49.6164C6.01466 48.6026 5.67015 47.5689 5.37248 46.5234C5.07478 45.4739 4.83172 44.4125 4.63938 43.3392C4.44705 42.2658 4.30939 41.1883 4.22247 40.1027C4.13945 39.0171 4.1072 37.9274 4.12964 36.8375C4.15208 35.7475 4.22533 34.6651 4.35327 33.5825C4.48121 32.4999 4.66389 31.4287 4.89737 30.3613C5.13477 29.2977 5.41912 28.2495 5.7582 27.2128C6.09729 26.1761 6.48334 25.1587 6.92416 24.1607C7.36108 23.1626 7.84888 22.1877 8.38368 21.24C8.91456 20.2884 9.49636 19.3678 10.1212 18.4743C10.7461 17.5809 11.4141 16.7185 12.1253 15.891C12.8364 15.0636 13.5828 14.2712 14.3724 13.5176C15.162 12.7601 15.983 12.0455 16.8433 11.3737C17.6996 10.6979 18.5913 10.0689 19.5105 9.48271C20.4337 8.89652 21.3805 8.35319 22.3548 7.86052C23.3292 7.36784 24.3233 6.92195 25.341 6.52283C26.3588 6.12762 27.3963 5.7831 28.4458 5.4854C29.4991 5.19159 30.5645 4.94852 31.6378 4.76009C32.7151 4.56774 33.7965 4.43005 34.886 4.34312C35.9755 4.26008 37.0691 4.22781 38.1591 4.25025Z" stroke="#FF0000" stroke-width="3.32641"/>
<path d="M10.1957 57.5801L63.9776 16.8141" stroke="#FF0000" stroke-width="3.56365"/>
</svg>
